<?xml version="1.0" encoding="utf-8"?>
<!-- Generator: Adobe Illustrator 15.1.0, SVG Export Plug-In . SVG Version: 6.00 Build 0)  -->
<!DOCTYPE svg PUBLIC "-//W3C//DTD SVG 1.1//EN" "http://www.w3.org/Graphics/SVG/1.1/DTD/svg11.dtd">
<svg version="1.1" id="WebDevIconsLogo" xmlns="http://www.w3.org/2000/svg" xmlns:xlink="http://www.w3.org/1999/xlink" x="0px"
	 y="0px" width="800px" height="800px" viewBox="0 0 800 800" enable-background="new 0 0 800 800" xml:space="preserve">
<g>
	<path fill="#E3001C" d="M445.32,399.29c0.85,0,1.465-0.241,1.844-0.724s0.568-1.297,0.568-2.446c0-1.125-0.195-1.935-0.586-2.429
		c-0.391-0.494-0.999-0.741-1.826-0.741s-1.425,0.248-1.792,0.741c-0.368,0.494-0.552,1.304-0.552,2.429
		c0,1.149,0.184,1.964,0.552,2.446C443.896,399.048,444.493,399.29,445.32,399.29z"/>
	<path fill="#E3001C" d="M327.338,393.329c0-1.241-0.144-2.182-0.431-2.826c-0.287-0.643-0.712-1.027-1.275-1.234
		c-0.563-0.207-1.327-0.269-2.292-0.269H322v9h1.341c1.355,0,2.36-0.343,3.015-0.975S327.338,395.144,327.338,393.329z"/>
	<path fill="#E3001C" d="M285.197,398.566c0.367-0.505,0.551-1.332,0.551-2.481c0-1.148-0.184-1.958-0.551-2.429
		c-0.368-0.471-0.685-0.707-1.443-0.707c-0.804,0-1.753,0.23-1.753,0.689v4.927c0,0.506,0.996,0.758,1.753,0.758
		C284.512,399.324,284.829,399.072,285.197,398.566z"/>
	<path fill="#E3001C" d="M266,393.914c0-0.528-0.331-0.953-0.687-1.275c-0.356-0.321-1.013-0.482-1.817-0.482
		c-0.874,0-1.543,0.008-1.934,0.388c-0.391,0.379-0.624,1.456-0.624,1.456H266V393.914z"/>
	<path fill="#E3001C" d="M348,393.88c0-0.391-0.034-0.712-0.321-0.965c-0.287-0.252-0.698-0.379-1.341-0.379
		c-0.667,0-1.127,0.055-1.437,0.353c-0.31,0.299-0.438,1.111-0.438,1.111H348V393.88z"/>
	<path fill="#E3001C" d="M125,363v65h386v-65H125z M486.255,387.608c1.057,0,2.425,0.081,3.666,0.241
		c1.24,0.161,2.079,0.356,3.079,0.586v4.893c-1-0.298-1.638-0.528-2.477-0.689c-0.839-0.16-1.713-0.241-2.4-0.241
		c-0.828,0-1.526,0.029-1.985,0.086c-0.46,0.058-0.717,0.212-0.717,0.465c0,0.185,0.112,0.328,0.365,0.431
		c0.253,0.103,0.739,0.258,1.476,0.465c0.573,0.115,1.121,0.265,1.65,0.448c1.217,0.368,2.157,0.764,2.824,1.188
		c0.666,0.425,1.141,0.942,1.429,1.551c0.287,0.609,0.43,1.373,0.43,2.292c0,1.678-0.719,2.98-2.153,3.911
		c-1.437,0.931-3.51,1.396-6.22,1.396c-1.447,0-2.836-0.104-4.146-0.311c-1.309-0.207-2.076-0.471-3.076-0.793v-4.961
		c1,0.391,1.716,0.701,2.853,0.931c1.138,0.23,2.136,0.344,2.985,0.344s1.428-0.022,1.727-0.069
		c0.297-0.045,0.448-0.195,0.448-0.448c0-0.207-0.144-0.373-0.431-0.5c-0.287-0.126-0.786-0.281-1.498-0.465
		c-0.919-0.276-1.551-0.471-1.895-0.586c-1.563-0.574-2.677-1.217-3.343-1.93c-0.667-0.711-0.999-1.711-0.999-2.998
		C477.848,389.354,480.649,387.608,486.255,387.608z M457,388h7.271l0.173,1.079c0.643-0.414,1.487-0.77,2.533-1.045
		c1.045-0.276,2.119-0.419,3.222-0.419c1.976,0,3.452,0.503,4.382,1.513c0.931,1.011,1.419,2.57,1.419,4.684V404h-7v-9.328
		c0-0.574-0.354-0.982-0.606-1.223c-0.253-0.241-0.792-0.362-1.39-0.362c-0.367,0-0.686,0.092-1.088,0.275
		c-0.402,0.184-0.916,0.402-0.916,0.655V404h-8V388z M445.32,387.608c6.639,0,9.959,2.837,9.959,8.511
		c0,5.674-3.32,8.511-9.959,8.511c-3.331,0-5.813-0.712-7.443-2.137c-1.631-1.424-2.446-3.549-2.446-6.375
		C435.431,390.446,438.727,387.608,445.32,387.608z M421.613,389.762c1.77-1.436,4.181-2.154,7.236-2.154
		c1.286,0,2.346,0.092,3.368,0.276c1.021,0.184,1.782,0.482,2.782,0.896v5.168c-1-0.666-2.868-1-4.591-1
		c-1.355,0-2.313,0.241-2.968,0.724s-0.959,1.298-0.959,2.447c0,1.126,0.34,1.936,0.994,2.429c0.654,0.494,1.548,0.741,2.926,0.741
		c1.607,0,3.598-0.401,4.598-1.206v5.411c-1,0.758-3.695,1.137-6.244,1.137c-3.102,0-5.467-0.712-7.225-2.137
		c-1.757-1.424-2.604-3.549-2.604-6.375C418.928,393.317,419.844,391.198,421.613,389.762z M409,382h8v22h-8V382z M379,396.602
		l8.683-3.342L379,389.917v-7.684l18,7.615v6.823l-18,7.615V396.602z M365.068,388l2.102,7.512l2.136-7.512h8.684l-6.478,16h-8.649
		l-6.478-16H365.068z M339.226,389.9c1.585-1.527,3.882-2.292,6.892-2.292c2.826,0,4.895,0.695,6.561,2.085
		c1.665,1.39,2.322,3.348,2.322,5.875V398h-10.537c0.735,1,2.331,1.558,4.79,1.558c0.965,0,2.173,0.009,3.149-0.151
		c0.976-0.161,1.598-0.266,2.598-0.496v4.48c-2,0.826-4.465,1.24-7.749,1.24c-1.953,0-3.818-0.328-5.357-0.982
		c-1.539-0.654-2.804-1.613-3.677-2.877c-0.873-1.263-1.339-2.791-1.339-4.583C336.878,393.524,337.641,391.428,339.226,389.9z
		 M314,382h10.306c7.672,0,11.509,3.792,11.509,11.281c0,3.744-0.994,6.387-2.981,8.167c-1.987,1.781-4.83,2.552-8.528,2.552H314
		V382z M294,389.848l18-7.615v7.684l-8.684,3.343l8.684,3.342v7.684l-18-7.615V389.848z M274,381h8v7.401
		c0-0.229,0.834-0.419,1.547-0.568c0.712-0.149,1.278-0.224,1.945-0.224c2.573,0,4.475,0.667,5.832,1.999
		c1.354,1.333,2.002,3.458,2.002,6.375c0,2.849-0.693,5.002-2.048,6.461c-1.356,1.459-3.235,2.188-5.624,2.188
		c-0.988,0-1.871-0.127-2.64-0.379c-0.77-0.253-1.489-0.775-2.155-1.279L280.511,404H274V381z M263.179,387.608
		c2.733,0,4.876,0.689,6.461,2.067c1.585,1.378,2.36,3.286,2.36,5.72V398h-11.061c0.298,1,0.861,1.23,1.688,1.541
		c0.827,0.31,1.941,0.521,3.342,0.521c0.941,0,1.809-0.059,2.773-0.231s2.257-0.345,2.257-0.575v4.204
		c-1,0.781-3.911,1.172-7.012,1.172c-1.953,0-3.633-0.322-5.126-0.965s-2.637-1.597-3.476-2.86
		c-0.839-1.263-1.247-2.802-1.247-4.617c0-2.665,0.775-4.761,2.314-6.289C257.993,388.373,260.238,387.608,263.179,387.608z
		 M159,388.881l-11.802,5.884L159,400.704v10.943l-21-11.988v-9.733l21-11.988V388.881z M170.65,412h-9.617l10.229-36h9.617
		L170.65,412z M204,399.659l-21,11.988v-10.943l11.802-5.939L183,388.881v-10.943l21,11.988V399.659z M232.925,382l2.158,10.179
		l1.917-6.534V382h5.917l2.929,10.165L248.121,382h7.236l-5.134,22h-6.582l-2.998-10.096L237.404,404h-6.547l-5.169-22H232.925z
		 M494,410H226v-3h268V410z"/>
</g>
</svg>
