<!-- Generated by IcoMoon.io -->
<svg version="1.1" xmlns="http://www.w3.org/2000/svg" width="32" height="32" viewBox="0 0 32 32">
<title>accessibility</title>
<path d="M1.408 0.206c-0.070 0.045-0.067 0.117-0.067 0.202 0 9.94 0 19.858 0 29.798 9.985 0 20.015 0 30 0 0-9.985 0-19.969 0-30-9.985 0-19.953 0-29.933 0zM23.608 1.067c1.478-0.202 2.787 0.695 3.12 1.98 0.601 2.317-1.62 4.454-3.96 3.48-0.729-0.303-1.423-1.103-1.62-1.86-0.46-1.77 0.751-3.367 2.46-3.6zM13.048 29.689c-4.028-0.289-7.547-3.682-7.86-7.741-0.206-2.676 0.61-4.716 1.8-6.301 0.795 0.705 1.485 1.515 2.28 2.221-2.598 3.823 0.392 8.754 4.62 8.761 1.3 0.002 2.215-0.448 3.12-0.96 0.855 0.645 1.57 1.43 2.279 2.221-1.672 1.283-3.798 1.975-6.241 1.8zM27.448 17.448c-0.143 1.712-0.221 3.27-0.36 5.1-0.127 1.664-0.268 3.379-2.1 3.18-2.045-0.221-1.428-3.020-1.261-5.1 0.105-1.297 0.279-2.557 0.3-3.6-0.724 0.035-1.399 0.121-2.16 0.12 1.511 3.020 0.651 8.084-1.56 9.781-0.815-0.665-1.555-1.404-2.221-2.221 0.812-0.974 1.44-2.052 1.44-3.721 0-4.752-6.006-7.329-9.361-4.14-0.815-0.665-1.555-1.404-2.22-2.22 0.953-0.809 1.778-1.417 3.060-1.86 0.399-0.138 0.901-0.127 1.32-0.3 0.382-0.157 0.767-0.789 1.14-1.2 1.108-1.218 2.195-2.434 3.18-3.66-0.708-0.513-1.574-0.867-2.281-1.38-1.138 0.607-2.198 2.453-3.48 2.94-1.205 0.458-2.619-0.587-2.28-2.040 0.215-0.922 1.547-1.803 2.28-2.46 0.428-0.383 0.833-0.765 1.261-1.14 0.638-0.56 1.288-1.325 2.4-1.080 0.64 0.142 1.527 0.858 2.22 1.259 1.557 0.901 2.867 1.588 4.44 2.52 1.162 0.689 2.962 1.341 2.279 3.3-0.284 0.816-1.126 1.511-1.741 2.22-0.627 0.725-1.232 1.258-1.8 2.1 1.041-0.113 2.068-0.114 3.12-0.18 1.943-0.12 4.244-0.653 4.56 1.2 0.126 0.741-0.108 1.717-0.18 2.58z"></path>
</svg>
