<!-- Generated by IcoMoon.io -->
<svg version="1.1" xmlns="http://www.w3.org/2000/svg" width="32" height="32" viewBox="0 0 32 32">
<title>accessibility</title>
<path d="M3.626 2.607c-0.059 0.038-0.057 0.099-0.057 0.171 0 8.429 0 16.84 0 25.269 8.467 0 16.973 0 25.44 0 0-8.467 0-16.934 0-25.44-8.467 0-16.92 0-25.383 0zM22.452 3.337c1.253-0.171 2.363 0.589 2.646 1.679 0.51 1.965-1.374 3.777-3.358 2.951-0.618-0.257-1.207-0.935-1.374-1.577-0.39-1.501 0.637-2.855 2.086-3.053zM13.497 27.608c-3.416-0.245-6.4-3.122-6.665-6.564-0.175-2.269 0.517-3.999 1.526-5.343 0.674 0.598 1.259 1.285 1.933 1.883-2.203 3.242 0.332 7.423 3.918 7.429 1.102 0.002 1.878-0.38 2.646-0.814 0.725 0.547 1.331 1.213 1.933 1.883-1.418 1.088-3.221 1.675-5.292 1.526zM25.708 17.228c-0.121 1.452-0.187 2.773-0.305 4.325-0.108 1.411-0.227 2.865-1.781 2.697-1.734-0.187-1.211-2.561-1.069-4.325 0.089-1.1 0.237-2.168 0.254-3.053-0.614 0.030-1.186 0.103-1.832 0.102 1.281 2.561 0.552 6.855-1.323 8.294-0.691-0.564-1.319-1.191-1.883-1.883 0.689-0.826 1.221-1.74 1.221-3.155 0-4.030-5.093-6.215-7.938-3.511-0.691-0.564-1.319-1.191-1.883-1.883 0.808-0.686 1.508-1.202 2.595-1.577 0.338-0.117 0.764-0.108 1.119-0.254 0.324-0.133 0.65-0.669 0.967-1.018 0.94-1.033 1.861-2.064 2.697-3.104-0.6-0.435-1.335-0.735-1.934-1.17-0.965 0.515-1.864 2.080-2.951 2.493-1.022 0.388-2.221-0.498-1.933-1.73 0.182-0.782 1.312-1.529 1.933-2.086 0.363-0.325 0.706-0.649 1.069-0.967 0.541-0.475 1.092-1.124 2.035-0.916 0.543 0.12 1.295 0.728 1.883 1.068 1.32 0.764 2.431 1.347 3.765 2.137 0.985 0.584 2.512 1.137 1.933 2.798-0.241 0.692-0.955 1.281-1.476 1.883-0.532 0.615-1.045 1.067-1.526 1.781 0.883-0.096 1.754-0.097 2.646-0.153 1.648-0.102 3.599-0.554 3.867 1.018 0.107 0.628-0.092 1.456-0.153 2.188z"></path>
</svg>
