<!-- Generated by IcoMoon.io -->
<svg version="1.1" xmlns="http://www.w3.org/2000/svg" width="32" height="32" viewBox="0 0 32 32">
<title>amazonwebservices</title>
<path d="M9.522 19.366l-2.85 1.224 2.64 1.128 3.060-1.128-2.85-1.224zM5.238 20.896l-0.096 5.509 4.17 1.836v-5.719l-4.074-1.626zM13.807 20.896l-3.768 1.435v5.394l3.768-1.53v-5.298zM18.302 3.759l-2.869 1.224 2.659 1.129 3.060-1.129-2.85-1.224zM14.323 5.385v5.509l3.558 1.033 0.115-5.011-3.672-1.53zM22.28 5.691l-3.366 1.434v5.413l3.366-1.53v-5.317zM4.827 11.512l-2.85 1.224 2.64 1.129 3.060-1.129-2.85-1.224zM0.542 13.042l-0.096 5.508 4.17 1.836v-5.719l-4.074-1.626zM9.111 13.042l-3.768 1.434v5.394l3.768-1.53v-5.298zM14.008 11.308l-2.85 1.224 2.639 1.129 3.060-1.129-2.85-1.224zM9.723 12.838l-0.096 5.509 4.17 1.836v-5.719l-4.074-1.626zM18.292 12.838l-3.768 1.434v5.394l3.768-1.53v-5.298zM27.269 3.759l-2.85 1.224 2.64 1.129 3.060-1.129-2.85-1.224zM22.985 5.289l-0.096 5.508 4.17 1.836v-5.719l-4.074-1.625zM31.553 5.289l-3.768 1.434v5.394l3.768-1.53v-5.298z"></path>
</svg>
