<!-- Generated by IcoMoon.io -->
<svg version="1.1" xmlns="http://www.w3.org/2000/svg" width="32" height="32" viewBox="0 0 32 32">
<title>amazonwebservices</title>
<path d="M9.865 19.188l-2.699 1.159 2.5 1.068 2.898-1.068-2.699-1.159zM5.808 20.637l-0.091 5.217 3.949 1.739v-5.416l-3.858-1.54zM13.923 20.637l-3.568 1.359v5.108l3.568-1.449v-5.017zM18.18 4.408l-2.717 1.159 2.518 1.069 2.898-1.069-2.699-1.159zM14.412 5.947v5.217l3.369 0.978 0.109-4.745-3.477-1.449zM21.947 6.237l-3.188 1.358v5.126l3.188-1.449v-5.035zM5.419 11.75l-2.699 1.159 2.5 1.069 2.898-1.069-2.699-1.159zM1.361 13.199l-0.091 5.216 3.949 1.739v-5.416l-3.858-1.54zM9.476 13.199l-3.568 1.358v5.108l3.568-1.449v-5.017zM14.114 11.557l-2.699 1.159 2.499 1.069 2.898-1.069-2.699-1.159zM10.056 13.006l-0.091 5.217 3.949 1.739v-5.416l-3.858-1.54zM18.171 13.006l-3.568 1.358v5.108l3.568-1.449v-5.017zM26.672 4.408l-2.699 1.159 2.5 1.069 2.898-1.069-2.699-1.159zM22.615 5.856l-0.091 5.216 3.949 1.739v-5.416l-3.858-1.539zM30.729 5.856l-3.568 1.358v5.108l3.568-1.449v-5.017z"></path>
</svg>
