<!-- Generated by IcoMoon.io -->
<svg version="1.1" xmlns="http://www.w3.org/2000/svg" width="32" height="32" viewBox="0 0 32 32">
<title>apache</title>
<path d="M31.962 15.339c-2.593-0.356-12.124-0.839-16.369-1.525-3.431-0.559-6.761-1.576-9.963-2.643-0.813-0.28-2.288-0.839-3.228-1.347-0.585-0.457-2.008-1.118-2.415-1.754 6.176 2.948 8.667 3.736 15.936 5.21 2.948 0.585 13.649 1.449 16.038 2.059z"></path>
<path d="M22.812 16.483l-0.28 0.076-0.28 0.025-0.254-0.025-0.28-0.127-0.254-0.127-0.508-0.407-0.483-0.483-0.229-0.254-0.203-0.229-0.203-0.203-0.178-0.203-0.178-0.127-0.127-0.102-0.152-0.051h0.127l0.102 0.025h0.127l0.152 0.025 0.127 0.025h0.254l0.127 0.025 0.178 0.178 0.178 0.152 0.152 0.152 0.127 0.152 0.152 0.152 0.127 0.178 0.127 0.127 0.127 0.152 0.127 0.127 0.152 0.127 0.127 0.127 0.178 0.102 0.178 0.127 0.407 0.203 0.254 0.076z"></path>
<path d="M23.727 16.432l-0.33 0.051-0.305 0.025-0.28-0.051-0.254-0.051-0.229-0.102-0.229-0.127-0.229-0.152-0.178-0.152-0.203-0.178-0.178-0.203-0.203-0.203-0.178-0.203-0.178-0.178-0.178-0.203-0.178-0.178-0.203-0.178h0.152l0.076 0.025h0.178l0.076 0.025h0.076l0.076 0.025h0.178l0.076 0.025h0.356l0.076 0.025 0.076 0.102 0.076 0.127 0.102 0.127 0.102 0.152 0.127 0.178 0.305 0.356 0.457 0.457 0.178 0.152 0.152 0.102 0.178 0.102 0.152 0.076 0.152 0.025h0.152z"></path>
<path d="M24.311 16.457h-0.178l-0.178 0.025h-0.152l-0.178-0.025-0.178-0.051-0.152-0.051-0.152-0.102-0.178-0.102-0.178-0.127-0.152-0.152-0.178-0.152-0.178-0.203-0.178-0.229-0.178-0.254-0.203-0.254-0.203-0.305h0.229l0.127 0.025h0.127l0.102 0.025h0.381l0.127 0.127 0.102 0.127 0.127 0.102 0.102 0.152 0.102 0.102 0.102 0.152 0.127 0.102 0.102 0.152 0.102 0.127 0.229 0.229 0.102 0.127 0.254 0.203 0.127 0.127 0.127 0.102z"></path>
<path d="M24.947 16.407l-0.127 0.076-0.152 0.025-0.152-0.025-0.178-0.051-0.152-0.102-0.178-0.127-0.33-0.33-0.152-0.178-0.178-0.178-0.152-0.203-0.305-0.356-0.254-0.305-0.127-0.102 0.788 0.051 0.076 0.127 0.102 0.127 0.102 0.102 0.076 0.127 0.076 0.102 0.203 0.254 0.076 0.102 0.102 0.102 0.102 0.127 0.229 0.229 0.508 0.407z"></path>
<path d="M26.243 16.254l-0.229 0.127-0.203 0.102-0.229 0.051h-0.203l-0.178-0.051-0.203-0.051-0.178-0.102-0.178-0.127-0.178-0.178-0.178-0.152-0.152-0.203-0.178-0.203-0.152-0.203-0.178-0.229-0.152-0.203-0.152-0.229 0.152 0.025 0.102 0.025h0.254l0.102 0.025h0.127l0.127 0.203 0.152 0.178 0.127 0.178 0.152 0.152 0.457 0.381 0.127 0.102 0.152 0.102 0.152 0.076 0.127 0.051 0.152 0.051 0.127 0.051 0.102 0.025h0.127l0.102 0.025z"></path>
<path d="M26.929 16.203l-0.254 0.025-0.203 0.025-0.229-0.025-0.203-0.025-0.407-0.102-0.178-0.076-0.178-0.102-0.178-0.127-0.305-0.254-0.305-0.305-0.152-0.178-0.127-0.203-0.127-0.178h0.127l0.178 0.025h0.152l0.152 0.025h0.127l0.102 0.025h0.127v0.025l0.051 0.025 0.127 0.127 0.076 0.102 0.102 0.102 0.127 0.102 0.102 0.127 0.152 0.102 0.152 0.127 0.127 0.127 0.178 0.102 0.152 0.127 0.178 0.102 0.356 0.152z"></path>
<path d="M27.819 16.254l-0.203 0.025-0.178 0.025-0.407-0.051-0.178-0.076-0.203-0.076-0.178-0.102-0.203-0.102-0.356-0.254-0.152-0.152-0.178-0.152-0.432-0.432-0.102-0.152h0.178l0.127 0.025h0.229l0.127 0.025h0.178v0.025l0.102 0.102 0.102 0.076 0.127 0.102 0.457 0.381 0.534 0.381 0.305 0.203 0.127 0.076 0.102 0.051 0.076 0.051z"></path>
<path d="M28.81 16.254l-0.127 0.102-0.152 0.051h-0.178l-0.203-0.051-0.254-0.076-0.229-0.127-0.508-0.305-0.254-0.178-0.229-0.178-0.203-0.152-0.203-0.178-0.178-0.127-0.102-0.102-0.102-0.076-0.025-0.025h0.203l0.102 0.025h0.229l0.127 0.025h0.229l0.127 0.076 0.127 0.102 0.152 0.076 0.102 0.076 0.152 0.102 0.102 0.076 0.152 0.102 0.127 0.076 0.127 0.102 0.127 0.076 0.127 0.102 0.254 0.152 0.127 0.102 0.254 0.152z"></path>
<path d="M29.547 16.254l-0.127 0.051-0.127 0.025h-0.127l-0.254-0.051-0.127-0.051-0.127-0.076-0.305-0.203-0.178-0.102-0.178-0.127-0.203-0.152-0.229-0.152-0.254-0.152-0.254-0.178-0.28-0.178h0.508l0.102 0.025h0.152l0.076 0.076 0.076 0.051 0.076 0.102 0.102 0.076 0.127 0.127 0.127 0.102 0.152 0.102 0.152 0.127 0.178 0.127 0.152 0.102 0.178 0.102 0.305 0.152 0.152 0.051 0.152 0.025z"></path>
<path d="M30.081 16.178l-0.178 0.076-0.178 0.025-0.203-0.025-0.178-0.051-0.407-0.152-0.407-0.254-0.178-0.127-0.178-0.152-0.152-0.127-0.127-0.127-0.127-0.102-0.178-0.178-0.051-0.025h0.356l0.102 0.025h0.102l0.102 0.025h0.229l0.102 0.102 0.102 0.076 0.076 0.076 0.102 0.076 0.076 0.102 0.102 0.076 0.102 0.102 0.102 0.076 0.102 0.102 0.102 0.076 0.127 0.076 0.203 0.102 0.127 0.051 0.102 0.051 0.127 0.025z"></path>
<path d="M30.716 15.975l-0.152 0.102-0.127 0.076-0.152 0.025h-0.152l-0.152-0.025-0.127-0.051-0.152-0.051-0.152-0.102-0.127-0.102-0.152-0.102-0.152-0.127-0.127-0.127-0.152-0.127-0.254-0.254-0.127-0.102h0.076l0.102 0.025h0.178l0.127 0.025h0.102l0.127 0.025h0.127l0.025 0.076 0.051 0.102 0.051 0.076 0.305 0.305 0.102 0.051 0.076 0.051 0.102 0.051 0.127 0.051 0.102 0.051 0.127 0.025 0.102 0.025 0.127 0.025h0.127z"></path>
<path d="M31.301 15.873l-0.127 0.051-0.127 0.025-0.152 0.025h-0.305l-0.152-0.025-0.457-0.152-0.254-0.152-0.127-0.102-0.102-0.102-0.076-0.102-0.076-0.127-0.025-0.127h0.076l0.076 0.025h0.203l0.102 0.025h0.33l0.152 0.229 0.076 0.051 0.051 0.051 0.076 0.051 0.051 0.051 0.076 0.051 0.076 0.025 0.076 0.051 0.152 0.051 0.102 0.025 0.102 0.051h0.102l0.102 0.051z"></path>
<path d="M31.581 15.771l-0.025 0.025-0.152 0.051h-0.203l-0.102-0.025-0.102-0.051-0.127-0.025-0.127-0.051-0.102-0.051-0.127-0.076-0.203-0.152-0.076-0.076-0.076-0.102-0.051-0.102 0.051 0.025h0.152l0.051 0.025h0.229v0.025l0.076 0.076 0.102 0.076 0.152 0.102 0.178 0.076 0.178 0.102 0.152 0.076 0.152 0.051z"></path>
<path d="M31.809 15.568l-0.025 0.102-0.025 0.051-0.152 0.051-0.076-0.025-0.127-0.025-0.102-0.051-0.127-0.051-0.102-0.076-0.127-0.076-0.102-0.051-0.076-0.076-0.152-0.102-0.025-0.025v-0.025l0.559 0.076 0.051 0.025 0.076 0.025 0.076 0.051 0.203 0.102 0.076 0.025 0.102 0.051 0.076 0.025z"></path>
<path d="M31.149 15.263h0.229l0.102 0.025h0.28l0.203 0.051-0.025 0.127-0.051 0.076h-0.102l-0.152-0.025-0.381-0.229-0.102-0.025z"></path>
<path d="M31.174 15.187l0.127 0.025h0.102l0.102 0.025 0.076 0.025 0.102 0.025h0.076l0.102 0.025 0.127 0.025v-0.152l-0.076-0.102-0.102-0.025-0.127-0.025-0.152 0.051-0.152 0.025-0.127 0.051-0.076 0.025zM23.574 12.213l-0.33-0.127-0.305-0.076-0.28-0.025-0.254 0.025-0.28 0.051-0.229 0.102-0.457 0.254-0.229 0.152-0.203 0.178-0.229 0.178-0.203 0.203-0.61 0.534-0.203 0.152h0.076l0.076 0.025h0.152l0.076 0.025h0.178l0.076 0.025h0.178l0.076 0.025h0.178l0.076 0.025h0.102l0.076 0.025 0.076-0.102 0.102-0.127 0.102-0.152 0.127-0.152 0.305-0.305 0.152-0.178 0.178-0.152 0.178-0.127 0.178-0.152 0.178-0.102 0.203-0.102 0.178-0.076 0.178-0.051h0.178l0.178 0.025z"></path>
<path d="M24.133 12.34l-0.203-0.051-0.152-0.051-0.356-0.051-0.178 0.025-0.152 0.025-0.178 0.051-0.178 0.076-0.178 0.102-0.178 0.152-0.203 0.152-0.203 0.178-0.203 0.203-0.203 0.254-0.229 0.254-0.254 0.305h0.152l0.102 0.025h0.127l0.102 0.025h0.102l0.102 0.025 0.127 0.025 0.152 0.025 0.127-0.127 0.127-0.102 0.127-0.127 0.102-0.127 0.61-0.61 0.152-0.127 0.102-0.102 0.152-0.102 0.127-0.102 0.457-0.229z"></path>
<path d="M24.743 12.492l-0.152-0.102-0.152-0.051-0.152-0.025-0.178 0.025-0.178 0.076-0.178 0.102-0.203 0.127-0.178 0.178-0.203 0.152-0.991 0.991-0.127 0.102 0.788 0.102 0.102-0.127 0.102-0.102 0.102-0.127 0.102-0.102 0.305-0.381 0.102-0.102 0.127-0.102 0.102-0.102 0.254-0.203 0.152-0.102 0.127-0.076 0.152-0.076 0.178-0.076z"></path>
<path d="M25.938 13.001l-0.229-0.203-0.203-0.152-0.203-0.102-0.203-0.051h-0.203l-0.203 0.025-0.203 0.076-0.178 0.076-0.203 0.152-0.356 0.305-0.712 0.813-0.178 0.229h0.254l0.102 0.025h0.076l0.102 0.025h0.076l0.254 0.051 0.152-0.203 0.152-0.178 0.152-0.152 0.127-0.152 0.457-0.305 0.127-0.076 0.152-0.051 0.127-0.051 0.127-0.025 0.152-0.025 0.102-0.025h0.254l0.127-0.025z"></path>
<path d="M26.777 13.204l-0.457-0.152-0.229-0.025-0.203-0.025h-0.229l-0.203 0.025-0.178 0.051-0.203 0.076-0.178 0.076-0.356 0.203-0.178 0.152-0.152 0.127-0.178 0.178-0.305 0.356 0.152 0.025 0.534 0.076h0.152l0.127 0.025h0.152l0.025-0.025 0.051-0.076 0.076-0.051 0.076-0.076 0.102-0.076 0.102-0.102 0.254-0.203 0.305-0.203 0.178-0.076 0.178-0.102 0.203-0.051 0.178-0.076 0.203-0.051z"></path>
<path d="M27.87 13.331l-0.203-0.076-0.203-0.051-0.203-0.025h-0.203l-0.203 0.025-0.229 0.051-0.203 0.051-0.203 0.076-0.203 0.102-0.178 0.102-0.203 0.127-0.356 0.254-0.178 0.152-0.152 0.127-0.127 0.152h0.203l0.127 0.025 0.152 0.025h0.127l0.127 0.025h0.203v-0.025l0.025-0.025 0.076-0.051 0.102-0.076 0.127-0.076 0.152-0.102 0.178-0.102 0.203-0.102 0.356-0.203 0.203-0.102 0.178-0.076 0.152-0.076 0.152-0.051 0.102-0.051 0.102-0.025z"></path>
<path d="M28.886 13.56l-0.102-0.178-0.152-0.076-0.178-0.051h-0.229l-0.229 0.051-0.28 0.076-0.28 0.127-0.254 0.127-0.28 0.127-0.254 0.152-0.254 0.127-0.203 0.152-0.203 0.102-0.127 0.102-0.102 0.051-0.025 0.025 0.203 0.051h0.254l0.152 0.025 0.254 0.051h0.127l0.152-0.051 0.127-0.076 0.152-0.076 0.127-0.076 0.127-0.051 0.254-0.152 0.152-0.076 0.127-0.051 0.254-0.152 0.152-0.051 0.127-0.076 0.127-0.051 0.152-0.051 0.127-0.051zM30.208 13.89l-0.178-0.102-0.178-0.076-0.178-0.025h-0.203l-0.229 0.051-0.203 0.051-0.229 0.076-0.407 0.203-0.203 0.127-0.457 0.305-0.102 0.076-0.076 0.076-0.051 0.025 0.102 0.025h0.127l0.102 0.025h0.178l0.203 0.051h0.127l0.102-0.051 0.203-0.152 0.127-0.076 0.102-0.076 0.127-0.076 0.102-0.102 0.127-0.051 0.127-0.076 0.102-0.076 0.254-0.102 0.127-0.025 0.102-0.025h0.254z"></path>
<path d="M29.725 13.687l-0.127-0.076-0.254-0.102h-0.28l-0.127 0.025-0.152 0.051-0.152 0.076-0.178 0.076-0.203 0.076-0.203 0.127-0.712 0.356-0.28 0.152-0.33 0.152h0.127l0.127 0.025h0.127l0.152 0.025 0.102 0.025h0.203l0.051-0.051 0.076-0.051 0.076-0.076 0.102-0.076 0.127-0.076 0.457-0.305 0.534-0.229 0.203-0.076 0.356-0.051h0.178zM30.793 14.272l-0.152-0.152-0.127-0.102-0.152-0.076-0.127-0.051h-0.152l-0.305 0.051-0.152 0.051-0.178 0.076-0.152 0.076-0.152 0.102-0.152 0.127-0.178 0.102-0.457 0.305h0.102l0.076 0.025 0.127 0.025h0.102l0.127 0.025h0.127l0.127 0.025h0.127l0.102-0.152 0.051-0.102 0.076-0.051 0.076-0.076 0.076-0.051 0.102-0.051 0.076-0.051 0.127-0.025 0.203-0.051 0.127-0.025h0.356l0.152 0.025zM31.682 14.755l-0.102-0.102-0.076-0.051-0.076-0.025-0.127-0.025h-0.356l-0.254 0.051-0.127 0.051-0.102 0.051-0.127 0.051-0.102 0.076-0.152 0.152 0.152 0.051h0.076l0.076 0.025h0.229l0.076-0.051 0.127-0.051 0.127-0.076 0.356-0.102 0.203-0.025h0.178z"></path>
<path d="M31.86 15.060v-0.127l-0.025-0.076-0.051-0.076-0.076-0.025-0.102-0.025-0.102 0.025h-0.127l-0.127 0.025-0.254 0.102-0.102 0.051-0.102 0.025-0.102 0.051-0.076 0.025-0.051 0.051 0.585 0.102 0.051-0.025 0.076-0.025 0.407-0.102h0.102l0.076 0.025zM31.377 14.551l-0.381-0.229-0.152-0.025-0.152-0.051h-0.483l-0.152 0.025-0.152 0.051-0.127 0.076-0.152 0.076-0.102 0.076-0.102 0.102-0.102 0.127-0.051 0.127h0.102l0.076 0.025h0.203l0.102 0.025h0.102l0.254 0.051 0.025-0.076 0.051-0.051 0.076-0.051 0.051-0.051 0.152-0.102 0.076-0.025 0.102-0.025 0.076-0.025 0.102-0.025 0.076-0.025h0.483zM5.401 11.069l-0.076 0.076-0.051 0.102-0.051 0.127-0.076 0.127-0.076 0.152-0.051 0.178-0.076 0.178-0.051 0.356v0.178l0.051 0.152 0.076 0.152 0.127 0.127 0.178 0.102 0.229 0.076-0.051-0.102-0.025-0.127-0.025-0.102v-0.686l0.025-0.127v-0.152l0.076-0.381 0.025-0.102 0.051-0.102 0.025-0.102-0.051-0.025h-0.025l-0.025-0.025h-0.051l-0.051-0.025h-0.025l-0.025-0.025z"></path>
<path d="M5.63 11.171l-0.102 0.407-0.076 0.356-0.025 0.33v0.508l0.051 0.203 0.051 0.178 0.076 0.152 0.076 0.102 0.102 0.102 0.102 0.076 0.102 0.051 0.102 0.025 0.076 0.025h0.152l-0.051-0.127-0.025-0.102-0.051-0.127-0.025-0.152-0.025-0.127-0.051-0.305v-0.152l-0.025-0.152v-0.152l0.025-0.152v-0.178l0.051-0.305 0.051-0.152 0.025-0.152-0.076-0.025-0.102-0.025-0.229-0.076-0.051-0.025h-0.076l-0.051-0.025z"></path>
<path d="M6.24 11.349l-0.051 0.152-0.051 0.178-0.025 0.203-0.025 0.229v0.508l0.025 0.229 0.025 0.254 0.051 0.229 0.076 0.203 0.102 0.178 0.102 0.152 0.152 0.102 0.152 0.076h0.178l0.203-0.051-0.076-0.127-0.152-0.305-0.051-0.127-0.051-0.152-0.051-0.305-0.051-0.152v-0.635l0.076-0.457 0.051-0.152-0.076-0.025-0.102-0.051-0.076-0.025-0.102-0.025-0.152-0.051-0.102-0.051z"></path>
<path d="M8.095 14.373l-0.203 0.025-0.203-0.025-0.152-0.076-0.152-0.102-0.152-0.127-0.127-0.178-0.203-0.407-0.076-0.229-0.051-0.229-0.051-0.508v-0.229l0.025-0.254 0.051-0.254 0.051-0.229 0.076 0.051 0.102 0.025 0.152 0.051 0.203 0.051 0.076 0.025 0.102 0.025v0.712l0.025 0.203v0.203l0.076 0.61 0.025 0.178 0.051 0.178 0.051 0.152 0.051 0.127 0.076 0.102 0.076 0.076 0.102 0.051z"></path>
<path d="M7.562 11.806l0.152 0.051h0.051l0.305 0.102 0.051 0.025 0.025 0.127v0.178l0.025 0.178v0.762l0.025 0.178v0.178l0.025 0.203 0.025 0.178 0.102 0.305 0.076 0.152 0.076 0.102 0.102 0.102-0.203-0.051-0.178-0.076-0.152-0.102-0.127-0.127-0.102-0.127-0.076-0.152-0.102-0.356-0.025-0.203-0.025-0.229v-0.203l-0.025-0.254v-0.712l-0.025-0.229z"></path>
<path d="M9.493 14.907h-0.28l-0.254-0.076-0.203-0.076-0.178-0.127-0.127-0.178-0.102-0.178-0.076-0.203-0.051-0.229-0.051-0.457v-0.991l-0.025-0.203v-0.203l0.076 0.025h0.076l0.051 0.025 0.229 0.076h0.076l0.076 0.025-0.025 0.025v0.051l-0.025 0.076-0.025 0.102v0.127l-0.025 0.152v0.356l0.025 0.203 0.102 0.457 0.076 0.229 0.127 0.229 0.152 0.254 0.178 0.254 0.203 0.254z"></path>
<path d="M10.485 15.212l-0.178 0.051-0.203-0.025-0.203-0.051-0.178-0.102-0.356-0.305-0.178-0.203-0.127-0.229-0.127-0.254-0.102-0.254-0.102-0.28-0.102-0.559v-0.305l0.025-0.28 0.051-0.28 0.712 0.229-0.025 0.102v0.305l0.051 0.356 0.025 0.203 0.102 0.407 0.152 0.407 0.076 0.229 0.127 0.178 0.102 0.203 0.152 0.178 0.152 0.152 0.152 0.127z"></path>
<path d="M9.392 12.34l0.102 0.051 0.152 0.025 0.61 0.203 0.152 0.025 0.102 0.025v0.356l0.025 0.178v0.178l0.051 0.407 0.051 0.356 0.025 0.203 0.051 0.178 0.051 0.152 0.076 0.178 0.076 0.152 0.203 0.254 0.127 0.102-0.152 0.025h-0.152l-0.305-0.102-0.152-0.102-0.305-0.254-0.152-0.203-0.127-0.178-0.127-0.229-0.203-0.559-0.051-0.305-0.076-0.356-0.025-0.356-0.025-0.407z"></path>
<path d="M12.187 15.517h-0.33l-0.28-0.025-0.229-0.076-0.203-0.127-0.152-0.152-0.127-0.178-0.102-0.203-0.076-0.229-0.051-0.229-0.076-0.762v-0.254l-0.025-0.229-0.025-0.203v-0.178h0.102l0.229 0.076 0.102 0.025 0.076 0.025 0.203 0.051 0.051 0.407 0.127 0.89 0.051 0.152 0.051 0.178 0.051 0.152 0.152 0.305 0.203 0.305 0.28 0.28z"></path>
<path d="M13.077 15.67l-0.305 0.025-0.254-0.051-0.203-0.076-0.203-0.127-0.178-0.152-0.152-0.178-0.102-0.203-0.203-0.457-0.102-0.508-0.051-0.229-0.025-0.254-0.051-0.407v-0.178l0.102 0.025 0.076 0.025h0.076l0.152 0.051h0.076l0.102 0.051h0.102l0.051 0.305 0.102 0.508 0.102 0.457 0.076 0.203 0.051 0.178 0.229 0.457 0.102 0.102 0.076 0.102 0.076 0.127 0.203 0.152 0.076 0.051z"></path>
<path d="M13.916 15.771l-0.28 0.025-0.254-0.025-0.229-0.102-0.203-0.102-0.152-0.152-0.152-0.178-0.127-0.203-0.127-0.229-0.102-0.229-0.076-0.229-0.076-0.254-0.152-0.686-0.051-0.356h0.102l0.152 0.051 0.102 0.025 0.076 0.025 0.102 0.025h0.076l0.102 0.025v0.152l0.051 0.305 0.051 0.178 0.051 0.203 0.152 0.356 0.076 0.203 0.102 0.178 0.102 0.203 0.203 0.305 0.127 0.152 0.102 0.152 0.127 0.102 0.127 0.076z"></path>
<path d="M14.831 15.949l-0.305 0.025-0.254-0.025-0.229-0.102-0.229-0.127-0.203-0.203-0.178-0.203-0.305-0.508-0.127-0.28-0.102-0.254-0.076-0.254-0.076-0.229-0.051-0.203-0.025-0.178-0.025-0.127v-0.076l0.813 0.203 0.025 0.102 0.025 0.152 0.102 0.356 0.051 0.203 0.229 0.61 0.102 0.203 0.076 0.203 0.102 0.178 0.254 0.305 0.102 0.102 0.152 0.076 0.152 0.051z"></path>
<path d="M15.492 15.924l-0.28 0.051h-0.229l-0.203-0.051-0.203-0.102-0.152-0.152-0.178-0.152-0.127-0.203-0.127-0.229-0.102-0.229-0.102-0.254-0.051-0.229-0.152-0.457-0.025-0.203-0.102-0.305 0.102 0.025h0.076l0.076 0.025h0.051l0.076 0.025h0.076l0.051 0.025h0.076v0.178l0.051 0.178 0.051 0.152 0.025 0.178 0.076 0.178 0.051 0.178 0.076 0.152 0.102 0.152 0.076 0.178 0.102 0.152 0.127 0.127 0.102 0.127 0.152 0.152 0.127 0.102 0.152 0.127 0.178 0.102z"></path>
<path d="M16.305 16.051h-0.203l-0.203-0.025-0.203-0.051-0.203-0.076-0.178-0.102-0.203-0.127-0.305-0.305-0.152-0.178-0.127-0.203-0.127-0.229-0.102-0.203-0.229-0.762-0.025-0.28 0.076 0.025 0.102 0.025h0.102l0.102 0.025 0.076 0.025h0.102l0.102 0.025 0.076 0.025 0.051 0.152 0.025 0.152 0.051 0.152 0.025 0.152 0.152 0.457 0.229 0.457 0.127 0.152 0.28 0.28 0.178 0.127 0.407 0.305z"></path>
<path d="M17.5 16.178l-0.28 0.025-0.28-0.025-0.254-0.025-0.254-0.076-0.229-0.102-0.203-0.127-0.203-0.152-0.178-0.152-0.305-0.407-0.127-0.203-0.102-0.229-0.102-0.254-0.076-0.254-0.051-0.28-0.051-0.254 0.076 0.025 0.102 0.025h0.076l0.076 0.025h0.102l0.102 0.025 0.076 0.025 0.102 0.025 0.025 0.178 0.102 0.356 0.076 0.178 0.102 0.178 0.076 0.178 0.127 0.152 0.127 0.178 0.254 0.305 0.178 0.127 0.152 0.127 0.178 0.127 0.178 0.102 0.203 0.102 0.203 0.076z"></path>
<path d="M18.16 16.254l-0.254-0.025-0.229-0.025-0.229-0.051-0.457-0.203-0.407-0.254-0.178-0.152-0.152-0.178-0.178-0.203-0.254-0.407-0.203-0.457-0.051-0.254-0.051-0.229h0.152l0.076 0.025h0.127l0.076 0.025h0.076l0.102 0.025 0.203 0.407 0.152 0.356 0.102 0.178 0.152 0.305 0.102 0.127 0.102 0.152 0.254 0.254 0.152 0.102 0.152 0.127 0.203 0.127 0.457 0.229z"></path>
<path d="M19.304 16.33h-0.686l-0.305-0.051-0.254-0.076-0.28-0.127-0.203-0.127-0.229-0.152-0.356-0.356-0.152-0.203-0.152-0.229-0.127-0.203-0.127-0.229-0.305-0.686h0.076l0.076 0.025h0.102l0.127 0.025 0.102 0.025h0.102l0.102 0.025h0.051l0.102 0.203 0.076 0.203 0.127 0.203 0.102 0.178 0.127 0.152 0.127 0.178 0.305 0.305 0.152 0.127 0.152 0.152 0.178 0.127 0.178 0.102 0.203 0.127 0.203 0.102 0.203 0.076 0.203 0.102zM20.016 16.432l-0.407-0.051-0.229-0.051-0.229-0.076-0.203-0.102-0.229-0.102-0.686-0.457-0.407-0.407-0.178-0.203-0.178-0.229-0.152-0.254-0.127-0.254-0.102-0.254 0.102 0.025h0.229l0.102 0.025h0.102l0.102 0.025h0.076l0.025 0.025 0.127 0.102 0.127 0.127 0.152 0.127 0.432 0.432 0.127 0.152 0.152 0.152 0.152 0.178 0.152 0.152 0.152 0.178 0.152 0.152 0.178 0.152 0.305 0.305 0.178 0.127z"></path>
<path d="M21.083 16.432l-0.203 0.127-0.203 0.051h-0.178l-0.203-0.051-0.203-0.102-0.203-0.152-0.229-0.178-0.203-0.178-0.203-0.229-0.229-0.254-0.229-0.229-0.457-0.508-0.457-0.457-0.229-0.178h0.178l0.102 0.025h0.102l0.127 0.025 0.102 0.025 0.127 0.025h0.076l0.203 0.178 0.178 0.152 0.356 0.356 0.152 0.178 0.178 0.178 0.152 0.178 0.178 0.152 0.305 0.305 0.305 0.254 0.152 0.102 0.305 0.152 0.152 0.051z"></path>
<path d="M21.897 16.508h-0.305l-0.28-0.025-0.508-0.152-0.229-0.127-0.407-0.305-0.178-0.178-0.203-0.178-0.712-0.813-0.203-0.203-0.407-0.356 0.076 0.025h0.102l0.102 0.025h0.229l0.076 0.025h0.127l0.127 0.025 0.102 0.051 0.127 0.102 0.152 0.102 0.127 0.127 0.127 0.152 0.152 0.152 0.305 0.356 0.178 0.203 0.178 0.178 0.407 0.356 0.229 0.178 0.254 0.152 0.254 0.127zM5.655 10.51v-0.229l-0.025-0.152v-0.381l0.025-0.203v-0.203l0.102-0.407 0.076-0.152 0.127-0.152 0.102-0.102 0.178-0.051h0.178l0.229 0.051-0.076 0.076-0.051 0.076-0.076 0.127-0.051 0.102-0.102 0.254-0.152 0.457-0.025 0.152-0.051 0.152-0.051 0.305-0.051 0.127v0.127l-0.025 0.102h-0.076l-0.025-0.025h-0.025l-0.051-0.025h-0.051l-0.051-0.025z"></path>
<path d="M5.935 10.612l0.076-0.457 0.102-0.407 0.102-0.356 0.102-0.28 0.127-0.229 0.102-0.178 0.102-0.127 0.076-0.102 0.203-0.102h0.076l0.102 0.025 0.152 0.051 0.051 0.051 0.076 0.051-0.407 0.407-0.229 0.381-0.051 0.127-0.076 0.127-0.051 0.152-0.076 0.152-0.051 0.152-0.025 0.152-0.051 0.178-0.051 0.152-0.025 0.178-0.102-0.025h-0.102l-0.025-0.025h-0.025l-0.025-0.025h-0.051l-0.025-0.025z"></path>
<path d="M6.291 10.764l0.025-0.178 0.025-0.203 0.076-0.203 0.076-0.254 0.076-0.229 0.127-0.229 0.102-0.229 0.127-0.229 0.152-0.178 0.152-0.152 0.152-0.127 0.152-0.076 0.152-0.051 0.178 0.051 0.153 0.076 0.178 0.178-0.381 0.305-0.102 0.127-0.102 0.102-0.102 0.127-0.076 0.152-0.102 0.127-0.076 0.127-0.051 0.152-0.076 0.152-0.051 0.178-0.051 0.152-0.025 0.178-0.051 0.178-0.025 0.203-0.076-0.025-0.102-0.025-0.076-0.025-0.102-0.051-0.076-0.025-0.102-0.025-0.051-0.051h-0.051z"></path>
<path d="M9.137 8.832l-0.178-0.102-0.178-0.076-0.178-0.025-0.178 0.025-0.356 0.152-0.178 0.152-0.305 0.305-0.127 0.229-0.127 0.203-0.102 0.254-0.102 0.229-0.076 0.28-0.051 0.254-0.025 0.28 0.076 0.025h0.076l0.102 0.051 0.076 0.025 0.203 0.051 0.076 0.025 0.102 0.025 0.076-0.178 0.051-0.178 0.076-0.178 0.051-0.178 0.076-0.203 0.076-0.178 0.076-0.203 0.102-0.152 0.076-0.178 0.203-0.305 0.102-0.127 0.102-0.102 0.254-0.152 0.127-0.051z"></path>
<path d="M9.951 9.061l-0.28-0.127-0.254-0.051-0.229-0.025-0.178 0.051-0.178 0.076-0.152 0.127-0.152 0.152-0.127 0.178-0.102 0.203-0.102 0.229-0.076 0.229-0.102 0.229-0.076 0.254-0.076 0.229-0.203 0.457h0.102l0.051 0.025 0.381 0.127h0.076l0.025-0.025v-0.076l0.025-0.102 0.025-0.127 0.025-0.152 0.102-0.356 0.076-0.203 0.102-0.203 0.102-0.178 0.152-0.203 0.152-0.178 0.178-0.178 0.203-0.152 0.229-0.127 0.28-0.102z"></path>
<path d="M10.967 9.214l-0.152-0.127-0.203-0.076-0.203-0.025h-0.203l-0.203 0.051-0.229 0.076-0.203 0.127-0.229 0.152-0.203 0.178-0.178 0.203-0.178 0.229-0.152 0.254-0.127 0.28-0.102 0.28-0.051 0.305-0.051 0.33 0.762 0.178 0.025-0.102 0.076-0.152 0.051-0.152 0.152-0.356 0.305-0.534 0.254-0.356 0.152-0.178 0.152-0.152 0.356-0.254 0.178-0.102 0.203-0.076z"></path>
<path d="M9.036 11.654l0.254 0.051 0.305 0.102 0.127 0.051 0.152 0.025 0.127 0.051 0.102 0.025 0.076-0.178 0.076-0.203 0.076-0.178 0.152-0.407 0.102-0.178 0.076-0.203 0.203-0.356 0.102-0.152 0.127-0.178 0.254-0.254 0.127-0.102 0.152-0.076 0.152-0.051-0.127-0.102-0.305-0.102-0.152-0.025-0.178 0.025-0.178 0.051-0.203 0.076-0.178 0.102-0.178 0.127-0.203 0.178-0.178 0.229-0.203 0.254-0.152 0.28-0.178 0.33-0.178 0.381-0.152 0.407z"></path>
<path d="M12.696 9.747l-0.28-0.152-0.28-0.102-0.254-0.025-0.229 0.051-0.178 0.076-0.203 0.127-0.152 0.178-0.152 0.203-0.254 0.457-0.102 0.254-0.127 0.254-0.102 0.254-0.076 0.254-0.102 0.203-0.076 0.203h0.102l0.076 0.025 0.102 0.025 0.229 0.076h0.102l0.102 0.025 0.102-0.203 0.076-0.203 0.102-0.178 0.076-0.178 0.203-0.356 0.076-0.178 0.203-0.305 0.127-0.127 0.102-0.127 0.152-0.127 0.127-0.127 0.152-0.102 0.178-0.102 0.178-0.076z"></path>
<path d="M13.611 10.002l-0.28-0.127-0.254-0.076-0.229-0.025-0.229 0.051-0.229 0.076-0.203 0.127-0.356 0.356-0.457 0.686-0.127 0.229-0.102 0.254-0.102 0.203-0.102 0.229-0.076 0.178 0.203 0.051h0.102l0.152 0.051 0.102 0.025h0.102l0.102 0.025 0.127-0.28 0.152-0.28 0.102-0.254 0.127-0.229 0.127-0.203 0.102-0.178 0.127-0.152 0.102-0.152 0.229-0.229 0.127-0.102 0.254-0.152 0.127-0.051 0.127-0.025 0.152-0.025z"></path>
<path d="M14.297 10.205l-0.254-0.127-0.254-0.051h-0.229l-0.229 0.051-0.203 0.076-0.203 0.127-0.178 0.152-0.178 0.178-0.152 0.203-0.152 0.229-0.254 0.457-0.102 0.229-0.203 0.407-0.076 0.178 0.102 0.025 0.229 0.076h0.076l0.076 0.025 0.102 0.025h0.076l0.051-0.152 0.152-0.305 0.203-0.356 0.127-0.178 0.102-0.178 0.152-0.178 0.457-0.457 0.305-0.254 0.305-0.152 0.152-0.051z"></path>
<path d="M15.136 10.408l-0.28-0.127-0.254-0.076h-0.28l-0.254 0.076-0.229 0.127-0.229 0.152-0.229 0.203-0.203 0.229-0.356 0.457-0.152 0.254-0.127 0.229-0.102 0.178-0.076 0.178-0.051 0.127-0.025 0.076 0.127 0.025h0.076l0.305 0.076 0.076 0.025h0.102l0.102 0.025 0.051-0.127 0.076-0.152 0.076-0.178 0.127-0.178 0.102-0.203 0.102-0.178 0.127-0.203 0.127-0.178 0.152-0.203 0.305-0.305 0.152-0.127 0.152-0.102 0.152-0.076 0.178-0.025h0.178z"></path>
<path d="M15.72 10.637l-0.229-0.152-0.254-0.076-0.203-0.025-0.229 0.025-0.203 0.102-0.203 0.127-0.178 0.152-0.178 0.203-0.152 0.203-0.152 0.229-0.127 0.229-0.152 0.254-0.203 0.407-0.076 0.178-0.076 0.152 0.076 0.025h0.076l0.076 0.025 0.051 0.025 0.076 0.025 0.051 0.025h0.051l0.076 0.025 0.305-0.712 0.102-0.178 0.102-0.152 0.127-0.178 0.254-0.305 0.152-0.127 0.127-0.102 0.178-0.127 0.534-0.229 0.203-0.051z"></path>
<path d="M16.483 10.815l-0.203-0.076-0.229-0.051h-0.407l-0.229 0.051-0.178 0.076-0.407 0.203-0.178 0.152-0.178 0.178-0.178 0.203-0.152 0.203-0.152 0.229-0.127 0.254-0.254 0.559 0.102 0.025h0.102l0.102 0.025 0.076 0.025 0.305 0.076 0.076 0.025 0.076-0.178 0.051-0.152 0.076-0.178 0.076-0.152 0.076-0.178 0.076-0.152 0.203-0.305 0.127-0.127 0.127-0.152 0.152-0.127 0.152-0.102 0.407-0.203 0.508-0.152z"></path>
<path d="M17.55 11.069l-0.254-0.102-0.28-0.076-0.508-0.051-0.254 0.051-0.229 0.051-0.229 0.102-0.203 0.127-0.203 0.152-0.178 0.178-0.178 0.203-0.152 0.203-0.152 0.254-0.127 0.254-0.102 0.254-0.102 0.28 0.076 0.025h0.102l0.203 0.051h0.102l0.102 0.025h0.102l0.102 0.025 0.102-0.407 0.305-0.534 0.254-0.305 0.152-0.152 0.152-0.127 0.356-0.203 0.203-0.102 0.203-0.051 0.203-0.076 0.229-0.025 0.203-0.025z"></path>
<path d="M18.084 11.145l-0.229-0.051-0.254-0.025-0.229 0.025-0.254 0.025-0.229 0.051-0.203 0.076-0.229 0.102-0.203 0.102-0.356 0.305-0.178 0.178-0.152 0.203-0.127 0.203-0.203 0.508-0.076 0.254 0.076 0.025h0.152l0.152 0.051h0.076l0.076 0.025 0.102 0.025 0.127-0.229 0.102-0.203 0.203-0.356 0.102-0.152 0.102-0.178 0.203-0.254 0.254-0.254 0.127-0.102 0.178-0.076 0.178-0.102 0.203-0.051 0.254-0.076 0.254-0.051z"></path>
<path d="M19.253 11.298l-0.356-0.102-0.356-0.051h-0.305l-0.305 0.025-0.254 0.051-0.254 0.102-0.229 0.102-0.407 0.305-0.178 0.178-0.305 0.407-0.127 0.229-0.152 0.229-0.102 0.229-0.127 0.254h0.152l0.076 0.025 0.203 0.051h0.076l0.076 0.025h0.076l0.102-0.229 0.127-0.178 0.127-0.203 0.127-0.178 0.305-0.305 0.178-0.152 0.356-0.254 0.178-0.102 0.203-0.102 0.203-0.076 0.203-0.102 0.229-0.051 0.229-0.076 0.229-0.051z"></path>
<path d="M19.94 11.349l-0.203-0.025h-0.432l-0.254 0.051-0.229 0.051-0.254 0.051-0.254 0.102-0.229 0.127-0.254 0.127-0.229 0.178-0.229 0.152-0.229 0.203-0.203 0.229-0.178 0.229-0.152 0.254-0.152 0.28h0.102l0.203 0.051 0.127 0.025h0.076l0.076 0.025 0.051 0.025 0.051-0.025 0.127-0.076 0.152-0.102 0.305-0.254 0.178-0.127 0.152-0.152 0.712-0.61 0.203-0.152 0.178-0.152 0.407-0.254 0.203-0.102 0.178-0.127z"></path>
<path d="M20.931 11.628l-0.203-0.178-0.178-0.102-0.203-0.051-0.229 0.025-0.203 0.051-0.254 0.102-0.229 0.152-0.254 0.178-0.229 0.203-0.254 0.203-0.508 0.457-0.28 0.229-0.508 0.407-0.28 0.178h0.076l0.102 0.025h0.229l0.127 0.025h0.33l0.203-0.152 0.178-0.152 0.203-0.152 0.178-0.178 0.178-0.152 0.152-0.152 0.178-0.152 0.152-0.127 0.178-0.152 0.178-0.102 0.178-0.127 0.178-0.102 0.178-0.076 0.407-0.102 0.229-0.025z"></path>
<path d="M21.643 11.73l-0.305-0.076-0.28-0.025h-0.28l-0.254 0.051-0.457 0.203-0.457 0.305-0.203 0.178-0.203 0.152-0.229 0.203-0.203 0.178-0.203 0.203-0.203 0.178-0.457 0.305h0.076l0.076 0.025 0.127 0.025h0.203l0.102 0.025h0.076l0.051 0.025h0.127l0.254-0.102 0.152-0.102 0.305-0.254 0.178-0.152 0.178-0.178 0.178-0.152 0.407-0.356 0.203-0.152 0.508-0.305 0.254-0.102 0.28-0.102z"></path>
<path d="M22.558 11.984l-0.254-0.152-0.28-0.076h-0.28l-0.28 0.076-0.305 0.102-0.28 0.152-0.28 0.178-0.508 0.407-0.254 0.229-0.254 0.203-0.203 0.203-0.203 0.152-0.178 0.127-0.178 0.076-0.127 0.025h0.127l0.102 0.025 0.305 0.051h0.127l0.152 0.025h0.152l0.127 0.025 0.203-0.152 0.178-0.152 0.152-0.152 0.178-0.127 0.127-0.152 0.305-0.254 0.254-0.254 0.152-0.102 0.356-0.203 0.178-0.076 0.203-0.076 0.229-0.076 0.254-0.051zM4.893 8.985l-0.051-0.076-0.076-0.229-0.025-0.102v-0.076l-0.025-0.102v-0.102l-0.025-0.076v-0.28l0.025-0.076v-0.102l0.051-0.152-0.127 0.152-0.152 0.305-0.051 0.356v0.178l0.025 0.178 0.051 0.178 0.025 0.178 0.076 0.152 0.051 0.178 0.076 0.152 0.076 0.178 0.051 0.152 0.076 0.152 0.076 0.127-0.025-0.025v-0.051l-0.025-0.051v-0.686l-0.025-0.102v-0.076l-0.025-0.102v-0.076l-0.025-0.076z"></path>
<path d="M2.656 12.010l0.152-0.076 0.254-0.152 0.152-0.102 0.127-0.076 0.102-0.076 0.381-0.229 0.102-0.051 0.127-0.102 0.127-0.051 0.102-0.076 0.381-0.229-0.102 0.127-0.127 0.102-0.102 0.127-0.127 0.102-0.127 0.127-0.381 0.305-0.381 0.229-0.127 0.051-0.381 0.076-0.152-0.025zM3.749 9.087l0.102 0.076 0.102 0.051 0.102 0.076 0.076 0.051 0.102 0.076 0.457 0.457 0.051 0.102 0.152 0.152 0.051 0.102 0.076 0.076-0.025-0.076-0.051-0.102-0.025-0.102-0.203-0.407-0.076-0.076-0.051-0.102-0.203-0.152-0.203-0.102-0.127-0.051-0.305-0.051z"></path>
<path d="M4.842 8.222l0.025 0.152 0.025 0.127 0.025 0.152 0.025 0.127v0.152l0.076 0.381v0.127l0.025 0.152 0.025 0.102 0.025 0.152 0.025 0.127v0.127l0.051 0.127 0.025 0.152v-0.178l0.051-0.305v-0.152l0.025-0.152v-0.305l-0.025-0.152v-0.152l-0.025-0.127-0.051-0.127-0.025-0.127-0.051-0.102-0.152-0.203-0.102-0.076zM4.054 7.968l-0.127 0.127-0.076 0.152-0.051 0.152v0.152l0.025 0.152 0.152 0.305 0.076 0.178 0.127 0.152 0.102 0.152 0.127 0.127 0.127 0.152 0.229 0.229 0.076 0.102 0.076 0.076v-0.203l-0.051-0.203-0.025-0.152-0.051-0.152-0.076-0.127-0.076-0.102-0.051-0.102-0.102-0.102-0.051-0.102-0.102-0.076-0.076-0.102-0.102-0.254-0.051-0.152-0.025-0.178-0.025-0.203z"></path>
<path d="M4.994 10.307v-0.28l0.025-0.152v-0.28l0.025-0.152v-0.127l0.025-0.127 0.025-0.152 0.076-0.381 0.051-0.152 0.051-0.127 0.025-0.127 0.076-0.127-0.229 0.203-0.178 0.203-0.127 0.178-0.076 0.178-0.051 0.152-0.051 0.305 0.025 0.152 0.025 0.127 0.102 0.254 0.102 0.203 0.076 0.229zM2.859 10.815l0.102 0.025 0.127 0.025h0.127l0.102 0.025h0.127l0.102 0.025h0.229l0.127-0.025h0.229l0.102-0.025h0.229l0.127-0.025 0.102-0.025-0.203 0.102-0.102 0.025-0.102 0.051-0.203 0.051-0.127 0.051h-0.483l-0.254-0.051-0.102-0.076-0.127-0.051-0.127-0.102z"></path>
<path d="M3.546 11.4l-0.102 0.025-0.076 0.025h-0.076l-0.102 0.025-0.076 0.051-0.102 0.025-0.076 0.025-0.076 0.051-0.102 0.051-0.152 0.102-0.051 0.051-0.076 0.051-0.178 0.178 0.051-0.178 0.102-0.152 0.076-0.127 0.127-0.127 0.127-0.102 0.152-0.076 0.152-0.102 0.356-0.102 0.152-0.076 0.203-0.051 0.178-0.025 0.178-0.051 0.178-0.025 0.152-0.025 0.076-0.025-0.102 0.076-0.127 0.076-0.152 0.102-0.178 0.102-0.152 0.102-0.178 0.076-0.127 0.051zM3.19 12.721l-0.051-0.178-0.025-0.152 0.025-0.152 0.051-0.152 0.102-0.152 0.102-0.127 0.305-0.254 0.152-0.102 0.178-0.102 0.152-0.102 0.178-0.102 0.305-0.152 0.127-0.076 0.076-0.051-0.102 0.203-0.102 0.178-0.102 0.152-0.102 0.127-0.102 0.076-0.127 0.102-0.102 0.051-0.203 0.152-0.127 0.076-0.102 0.051-0.203 0.203-0.102 0.127-0.102 0.152-0.102 0.203z"></path>
<path d="M5.045 10.917l-0.076 0.127-0.102 0.127-0.076 0.127-0.076 0.102-0.051 0.127-0.076 0.127-0.051 0.102-0.076 0.127-0.102 0.254-0.051 0.102-0.051 0.127-0.025 0.127-0.051 0.127-0.025 0.152-0.025 0.127-0.076-0.28-0.025-0.229v-0.407l0.051-0.178 0.076-0.152 0.152-0.203 0.102-0.102 0.102-0.076 0.127-0.076 0.102-0.051 0.076-0.076 0.102-0.051 0.051-0.051 0.076-0.051zM31.962 14.653c-2.593-0.356-12.124-0.839-16.369-1.525-3.431-0.559-6.761-1.576-9.963-2.643-0.813-0.28-2.288-0.839-3.228-1.347-0.585-0.457-2.008-1.118-2.415-1.754 6.176 2.948 8.667 3.736 15.936 5.21 2.974 0.585 13.674 1.449 16.038 2.059zM6.926 22.964h-1.373l-0.356-1.042h-1.906l-0.356 1.042h-1.322l1.881-5.134h1.525l1.906 5.134zM4.867 20.982l-0.635-1.83-0.635 1.83h1.271zM11.603 20.982c0 0.33-0.051 0.61-0.152 0.864s-0.229 0.483-0.381 0.635c-0.152 0.178-0.356 0.305-0.559 0.407s-0.432 0.127-0.661 0.127-0.407-0.025-0.559-0.076-0.305-0.102-0.483-0.203v1.601h-1.245v-5.236h1.245v0.407c0.166-0.146 0.36-0.266 0.571-0.351l0.013-0.005c0.203-0.102 0.432-0.152 0.686-0.152 0.483 0 0.864 0.178 1.118 0.534 0.28 0.33 0.407 0.813 0.407 1.449zM10.332 21.007c0-0.381-0.076-0.635-0.203-0.813s-0.33-0.254-0.61-0.254c-0.127 0-0.229 0.025-0.356 0.051s-0.229 0.076-0.356 0.152v1.932c0.075 0.027 0.162 0.046 0.252 0.051l0.002 0c0.102 0 0.178 0.025 0.28 0.025 0.33 0 0.559-0.102 0.737-0.28 0.178-0.203 0.254-0.483 0.254-0.864zM14.856 22.558c-0.076 0.051-0.152 0.102-0.254 0.178s-0.203 0.127-0.28 0.178c-0.127 0.051-0.254 0.102-0.381 0.127-0.129 0.030-0.277 0.048-0.43 0.051l-0.002 0c-0.356 0-0.686-0.102-0.915-0.33-0.234-0.203-0.382-0.5-0.382-0.832 0-0.011 0-0.022 0.001-0.034l-0 0.002c0-0.28 0.051-0.508 0.178-0.686s0.305-0.33 0.534-0.432 0.508-0.178 0.864-0.229c0.33-0.051 0.686-0.076 1.068-0.102v-0.025c0-0.203-0.076-0.356-0.254-0.432s-0.432-0.127-0.762-0.127c-0.004-0-0.009-0-0.014-0-0.231 0-0.453 0.037-0.661 0.106l0.015-0.004c-0.229 0.076-0.407 0.127-0.508 0.178h-0.102v-0.94l0.635-0.127c0.267-0.048 0.575-0.076 0.889-0.076h0c0.712 0 1.22 0.102 1.525 0.33s0.457 0.559 0.457 1.017v2.618h-1.22v-0.407zM14.856 21.948v-0.813c-0.178 0.025-0.356 0.025-0.534 0.051-0.203 0.025-0.33 0.051-0.432 0.076-0.127 0.051-0.229 0.102-0.28 0.178-0.076 0.076-0.102 0.178-0.102 0.305 0 0.076 0 0.152 0.025 0.203s0.051 0.102 0.102 0.152 0.127 0.076 0.178 0.102c0.076 0.025 0.178 0.025 0.356 0.025 0.127 0 0.254-0.025 0.381-0.076 0.076-0.051 0.203-0.127 0.305-0.203zM19.228 23.066c-0.33 0-0.635-0.051-0.915-0.127s-0.508-0.203-0.737-0.381c-0.203-0.178-0.356-0.381-0.483-0.635-0.11-0.263-0.175-0.568-0.178-0.889v-0.001c0-0.356 0.051-0.661 0.178-0.94s0.28-0.483 0.508-0.661c0.203-0.152 0.457-0.28 0.712-0.356 0.28-0.076 0.559-0.102 0.839-0.102 0.254 0 0.508 0.025 0.737 0.076s0.432 0.127 0.61 0.229v1.067h-0.178c-0.051-0.051-0.102-0.102-0.178-0.152s-0.152-0.102-0.254-0.152-0.203-0.102-0.305-0.127-0.254-0.051-0.381-0.051c-0.33 0-0.585 0.102-0.762 0.305s-0.254 0.483-0.254 0.864 0.102 0.661 0.28 0.839c0.178 0.203 0.432 0.28 0.762 0.28 0.155-0.003 0.304-0.022 0.447-0.054l-0.015 0.003c0.127-0.025 0.229-0.076 0.305-0.127s0.152-0.102 0.203-0.152 0.127-0.102 0.152-0.152h0.178v1.067c-0.203 0.102-0.407 0.152-0.61 0.229-0.178 0.076-0.407 0.102-0.661 0.102zM25.226 22.964h-1.245v-1.906c0-0.152 0-0.305-0.025-0.457s-0.051-0.28-0.076-0.33c-0.051-0.076-0.102-0.152-0.203-0.178-0.076-0.051-0.203-0.051-0.381-0.051-0.12 0.005-0.233 0.023-0.341 0.053l0.011-0.003c-0.102-0.025-0.229 0.051-0.356 0.127v2.745h-1.245v-5.363h1.245v1.906c0.185-0.148 0.393-0.283 0.614-0.397l0.021-0.010c0.203-0.102 0.432-0.127 0.686-0.127 0.407 0 0.737 0.127 0.966 0.356 0.229 0.254 0.356 0.61 0.356 1.093v2.542zM30.183 21.261h-2.847c0.025 0.305 0.127 0.534 0.356 0.686 0.203 0.152 0.534 0.229 0.94 0.229 0.254 0 0.508-0.051 0.762-0.152 0.224-0.088 0.416-0.191 0.595-0.312l-0.011 0.007h0.127v0.991c-0.28 0.102-0.534 0.203-0.788 0.254s-0.534 0.076-0.813 0.076c-0.762 0-1.373-0.178-1.779-0.534s-0.61-0.839-0.61-1.5c0-0.635 0.203-1.144 0.585-1.525s0.915-0.559 1.601-0.559c0.635 0 1.093 0.152 1.423 0.483 0.305 0.305 0.483 0.762 0.483 1.373v0.483zM28.963 20.524c0-0.254-0.076-0.457-0.203-0.585s-0.305-0.203-0.559-0.203c-0.229 0-0.432 0.051-0.585 0.178s-0.229 0.33-0.254 0.585h1.601z"></path>
</svg>
