<!-- Generated by IcoMoon.io -->
<svg version="1.1" xmlns="http://www.w3.org/2000/svg" width="32" height="32" viewBox="0 0 32 32">
<title>apache</title>
<path d="M31.7 15.35c-2.55-0.35-11.925-0.825-16.1-1.5-3.375-0.55-6.65-1.55-9.8-2.6-0.8-0.275-2.25-0.825-3.175-1.325-0.575-0.45-1.975-1.1-2.375-1.725 6.075 2.9 8.525 3.675 15.675 5.125 2.9 0.575 13.425 1.425 15.775 2.025z"></path>
<path d="M22.7 16.475l-0.275 0.075-0.275 0.025-0.25-0.025-0.275-0.125-0.25-0.125-0.5-0.4-0.475-0.475-0.225-0.25-0.2-0.225-0.2-0.2-0.175-0.2-0.175-0.125-0.125-0.1-0.15-0.050h0.125l0.1 0.025h0.125l0.15 0.025 0.125 0.025h0.25l0.125 0.025 0.175 0.175 0.175 0.15 0.15 0.15 0.125 0.15 0.15 0.15 0.125 0.175 0.125 0.125 0.125 0.15 0.125 0.125 0.15 0.125 0.125 0.125 0.175 0.1 0.175 0.125 0.4 0.2 0.25 0.075z"></path>
<path d="M23.6 16.425l-0.325 0.050-0.3 0.025-0.275-0.050-0.25-0.050-0.225-0.1-0.225-0.125-0.225-0.15-0.175-0.15-0.2-0.175-0.175-0.2-0.2-0.2-0.175-0.2-0.175-0.175-0.175-0.2-0.175-0.175-0.2-0.175h0.15l0.075 0.025h0.175l0.075 0.025h0.075l0.075 0.025h0.175l0.075 0.025h0.35l0.075 0.025 0.075 0.1 0.075 0.125 0.1 0.125 0.1 0.15 0.125 0.175 0.3 0.35 0.45 0.45 0.175 0.15 0.15 0.1 0.175 0.1 0.15 0.075 0.15 0.025h0.15z"></path>
<path d="M24.175 16.45h-0.175l-0.175 0.025h-0.15l-0.175-0.025-0.175-0.050-0.15-0.050-0.15-0.1-0.175-0.1-0.175-0.125-0.15-0.15-0.175-0.15-0.175-0.2-0.175-0.225-0.175-0.25-0.2-0.25-0.2-0.3h0.225l0.125 0.025h0.125l0.1 0.025h0.375l0.125 0.125 0.1 0.125 0.125 0.1 0.1 0.15 0.1 0.1 0.1 0.15 0.125 0.1 0.1 0.15 0.1 0.125 0.225 0.225 0.1 0.125 0.25 0.2 0.125 0.125 0.125 0.1z"></path>
<path d="M24.8 16.4l-0.125 0.075-0.15 0.025-0.15-0.025-0.175-0.050-0.15-0.1-0.175-0.125-0.325-0.325-0.15-0.175-0.175-0.175-0.15-0.2-0.3-0.35-0.25-0.3-0.125-0.1 0.775 0.050 0.075 0.125 0.1 0.125 0.1 0.1 0.075 0.125 0.075 0.1 0.2 0.25 0.075 0.1 0.1 0.1 0.1 0.125 0.225 0.225 0.5 0.4z"></path>
<path d="M26.075 16.25l-0.225 0.125-0.2 0.1-0.225 0.050h-0.2l-0.175-0.050-0.2-0.050-0.175-0.1-0.175-0.125-0.175-0.175-0.175-0.15-0.15-0.2-0.175-0.2-0.15-0.2-0.175-0.225-0.15-0.2-0.15-0.225 0.15 0.025 0.1 0.025h0.25l0.1 0.025h0.125l0.125 0.2 0.15 0.175 0.125 0.175 0.15 0.15 0.45 0.375 0.125 0.1 0.15 0.1 0.15 0.075 0.125 0.050 0.15 0.050 0.125 0.050 0.1 0.025h0.125l0.1 0.025z"></path>
<path d="M26.75 16.2l-0.25 0.025-0.2 0.025-0.225-0.025-0.2-0.025-0.4-0.1-0.175-0.075-0.175-0.1-0.175-0.125-0.3-0.25-0.3-0.3-0.15-0.175-0.125-0.2-0.125-0.175h0.125l0.175 0.025h0.15l0.15 0.025h0.125l0.1 0.025h0.125v0.025l0.050 0.025 0.125 0.125 0.075 0.1 0.1 0.1 0.125 0.1 0.1 0.125 0.15 0.1 0.15 0.125 0.125 0.125 0.175 0.1 0.15 0.125 0.175 0.1 0.35 0.15z"></path>
<path d="M27.625 16.25l-0.2 0.025-0.175 0.025-0.4-0.050-0.175-0.075-0.2-0.075-0.175-0.1-0.2-0.1-0.35-0.25-0.15-0.15-0.175-0.15-0.425-0.425-0.1-0.15h0.175l0.125 0.025h0.225l0.125 0.025h0.175v0.025l0.1 0.1 0.1 0.075 0.125 0.1 0.45 0.375 0.525 0.375 0.3 0.2 0.125 0.075 0.1 0.050 0.075 0.050z"></path>
<path d="M28.6 16.25l-0.125 0.1-0.15 0.050h-0.175l-0.2-0.050-0.25-0.075-0.225-0.125-0.5-0.3-0.25-0.175-0.225-0.175-0.2-0.15-0.2-0.175-0.175-0.125-0.1-0.1-0.1-0.075-0.025-0.025h0.2l0.1 0.025h0.225l0.125 0.025h0.225l0.125 0.075 0.125 0.1 0.15 0.075 0.1 0.075 0.15 0.1 0.1 0.075 0.15 0.1 0.125 0.075 0.125 0.1 0.125 0.075 0.125 0.1 0.25 0.15 0.125 0.1 0.25 0.15z"></path>
<path d="M29.325 16.25l-0.125 0.050-0.125 0.025h-0.125l-0.25-0.050-0.125-0.050-0.125-0.075-0.3-0.2-0.175-0.1-0.175-0.125-0.2-0.15-0.225-0.15-0.25-0.15-0.25-0.175-0.275-0.175h0.5l0.1 0.025h0.15l0.075 0.075 0.075 0.050 0.075 0.1 0.1 0.075 0.125 0.125 0.125 0.1 0.15 0.1 0.15 0.125 0.175 0.125 0.15 0.1 0.175 0.1 0.3 0.15 0.15 0.050 0.15 0.025z"></path>
<path d="M29.85 16.175l-0.175 0.075-0.175 0.025-0.2-0.025-0.175-0.050-0.4-0.15-0.4-0.25-0.175-0.125-0.175-0.15-0.15-0.125-0.125-0.125-0.125-0.1-0.175-0.175-0.050-0.025h0.35l0.1 0.025h0.1l0.1 0.025h0.225l0.1 0.1 0.1 0.075 0.075 0.075 0.1 0.075 0.075 0.1 0.1 0.075 0.1 0.1 0.1 0.075 0.1 0.1 0.1 0.075 0.125 0.075 0.2 0.1 0.125 0.050 0.1 0.050 0.125 0.025z"></path>
<path d="M30.475 15.975l-0.15 0.1-0.125 0.075-0.15 0.025h-0.15l-0.15-0.025-0.125-0.050-0.15-0.050-0.15-0.1-0.125-0.1-0.15-0.1-0.15-0.125-0.125-0.125-0.15-0.125-0.25-0.25-0.125-0.1h0.075l0.1 0.025h0.175l0.125 0.025h0.1l0.125 0.025h0.125l0.025 0.075 0.050 0.1 0.050 0.075 0.3 0.3 0.1 0.050 0.075 0.050 0.1 0.050 0.125 0.050 0.1 0.050 0.125 0.025 0.1 0.025 0.125 0.025h0.125z"></path>
<path d="M31.050 15.875l-0.125 0.050-0.125 0.025-0.15 0.025h-0.3l-0.15-0.025-0.45-0.15-0.25-0.15-0.125-0.1-0.1-0.1-0.075-0.1-0.075-0.125-0.025-0.125h0.075l0.075 0.025h0.2l0.1 0.025h0.325l0.15 0.225 0.075 0.050 0.050 0.050 0.075 0.050 0.050 0.050 0.075 0.050 0.075 0.025 0.075 0.050 0.15 0.050 0.1 0.025 0.1 0.050h0.1l0.1 0.050z"></path>
<path d="M31.325 15.775l-0.025 0.025-0.15 0.050h-0.2l-0.1-0.025-0.1-0.050-0.125-0.025-0.125-0.050-0.1-0.050-0.125-0.075-0.2-0.15-0.075-0.075-0.075-0.1-0.050-0.1 0.050 0.025h0.15l0.050 0.025h0.225v0.025l0.075 0.075 0.1 0.075 0.15 0.1 0.175 0.075 0.175 0.1 0.15 0.075 0.15 0.050z"></path>
<path d="M31.55 15.575l-0.025 0.1-0.025 0.050-0.15 0.050-0.075-0.025-0.125-0.025-0.1-0.050-0.125-0.050-0.1-0.075-0.125-0.075-0.1-0.050-0.075-0.075-0.15-0.1-0.025-0.025v-0.025l0.55 0.075 0.050 0.025 0.075 0.025 0.075 0.050 0.2 0.1 0.075 0.025 0.1 0.050 0.075 0.025z"></path>
<path d="M30.9 15.275h0.225l0.1 0.025h0.275l0.2 0.050-0.025 0.125-0.050 0.075h-0.1l-0.15-0.025-0.375-0.225-0.1-0.025z"></path>
<path d="M30.925 15.2l0.125 0.025h0.1l0.1 0.025 0.075 0.025 0.1 0.025h0.075l0.1 0.025 0.125 0.025v-0.15l-0.075-0.1-0.1-0.025-0.125-0.025-0.15 0.050-0.15 0.025-0.125 0.050-0.075 0.025zM23.45 12.275l-0.325-0.125-0.3-0.075-0.275-0.025-0.25 0.025-0.275 0.050-0.225 0.1-0.45 0.25-0.225 0.15-0.2 0.175-0.225 0.175-0.2 0.2-0.6 0.525-0.2 0.15h0.075l0.075 0.025h0.15l0.075 0.025h0.175l0.075 0.025h0.175l0.075 0.025h0.175l0.075 0.025h0.1l0.075 0.025 0.075-0.1 0.1-0.125 0.1-0.15 0.125-0.15 0.3-0.3 0.15-0.175 0.175-0.15 0.175-0.125 0.175-0.15 0.175-0.1 0.2-0.1 0.175-0.075 0.175-0.050h0.175l0.175 0.025z"></path>
<path d="M24 12.4l-0.2-0.050-0.15-0.050-0.35-0.050-0.175 0.025-0.15 0.025-0.175 0.050-0.175 0.075-0.175 0.1-0.175 0.15-0.2 0.15-0.2 0.175-0.2 0.2-0.2 0.25-0.225 0.25-0.25 0.3h0.15l0.1 0.025h0.125l0.1 0.025h0.1l0.1 0.025 0.125 0.025 0.15 0.025 0.125-0.125 0.125-0.1 0.125-0.125 0.1-0.125 0.6-0.6 0.15-0.125 0.1-0.1 0.15-0.1 0.125-0.1 0.45-0.225z"></path>
<path d="M24.6 12.55l-0.15-0.1-0.15-0.050-0.15-0.025-0.175 0.025-0.175 0.075-0.175 0.1-0.2 0.125-0.175 0.175-0.2 0.15-0.975 0.975-0.125 0.1 0.775 0.1 0.1-0.125 0.1-0.1 0.1-0.125 0.1-0.1 0.3-0.375 0.1-0.1 0.125-0.1 0.1-0.1 0.25-0.2 0.15-0.1 0.125-0.075 0.15-0.075 0.175-0.075z"></path>
<path d="M25.775 13.050l-0.225-0.2-0.2-0.15-0.2-0.1-0.2-0.050h-0.2l-0.2 0.025-0.2 0.075-0.175 0.075-0.2 0.15-0.35 0.3-0.7 0.8-0.175 0.225h0.25l0.1 0.025h0.075l0.1 0.025h0.075l0.25 0.050 0.15-0.2 0.15-0.175 0.15-0.15 0.125-0.15 0.45-0.3 0.125-0.075 0.15-0.050 0.125-0.050 0.125-0.025 0.15-0.025 0.1-0.025h0.25l0.125-0.025z"></path>
<path d="M26.6 13.25l-0.45-0.15-0.225-0.025-0.2-0.025h-0.225l-0.2 0.025-0.175 0.050-0.2 0.075-0.175 0.075-0.35 0.2-0.175 0.15-0.15 0.125-0.175 0.175-0.3 0.35 0.15 0.025 0.525 0.075h0.15l0.125 0.025h0.15l0.025-0.025 0.050-0.075 0.075-0.050 0.075-0.075 0.1-0.075 0.1-0.1 0.25-0.2 0.3-0.2 0.175-0.075 0.175-0.1 0.2-0.050 0.175-0.075 0.2-0.050z"></path>
<path d="M27.675 13.375l-0.2-0.075-0.2-0.050-0.2-0.025h-0.2l-0.2 0.025-0.225 0.050-0.2 0.050-0.2 0.075-0.2 0.1-0.175 0.1-0.2 0.125-0.35 0.25-0.175 0.15-0.15 0.125-0.125 0.15h0.2l0.125 0.025 0.15 0.025h0.125l0.125 0.025h0.2v-0.025l0.025-0.025 0.075-0.050 0.1-0.075 0.125-0.075 0.15-0.1 0.175-0.1 0.2-0.1 0.35-0.2 0.2-0.1 0.175-0.075 0.15-0.075 0.15-0.050 0.1-0.050 0.1-0.025z"></path>
<path d="M28.675 13.6l-0.1-0.175-0.15-0.075-0.175-0.050h-0.225l-0.225 0.050-0.275 0.075-0.275 0.125-0.25 0.125-0.275 0.125-0.25 0.15-0.25 0.125-0.2 0.15-0.2 0.1-0.125 0.1-0.1 0.050-0.025 0.025 0.2 0.050h0.25l0.15 0.025 0.25 0.050h0.125l0.15-0.050 0.125-0.075 0.15-0.075 0.125-0.075 0.125-0.050 0.25-0.15 0.15-0.075 0.125-0.050 0.25-0.15 0.15-0.050 0.125-0.075 0.125-0.050 0.15-0.050 0.125-0.050zM29.975 13.925l-0.175-0.1-0.175-0.075-0.175-0.025h-0.2l-0.225 0.050-0.2 0.050-0.225 0.075-0.4 0.2-0.2 0.125-0.45 0.3-0.1 0.075-0.075 0.075-0.050 0.025 0.1 0.025h0.125l0.1 0.025h0.175l0.2 0.050h0.125l0.1-0.050 0.2-0.15 0.125-0.075 0.1-0.075 0.125-0.075 0.1-0.1 0.125-0.050 0.125-0.075 0.1-0.075 0.25-0.1 0.125-0.025 0.1-0.025h0.25z"></path>
<path d="M29.5 13.725l-0.125-0.075-0.25-0.1h-0.275l-0.125 0.025-0.15 0.050-0.15 0.075-0.175 0.075-0.2 0.075-0.2 0.125-0.7 0.35-0.275 0.15-0.325 0.15h0.125l0.125 0.025h0.125l0.15 0.025 0.1 0.025h0.2l0.050-0.050 0.075-0.050 0.075-0.075 0.1-0.075 0.125-0.075 0.45-0.3 0.525-0.225 0.2-0.075 0.35-0.050h0.175zM30.55 14.3l-0.15-0.15-0.125-0.1-0.15-0.075-0.125-0.050h-0.15l-0.3 0.050-0.15 0.050-0.175 0.075-0.15 0.075-0.15 0.1-0.15 0.125-0.175 0.1-0.45 0.3h0.1l0.075 0.025 0.125 0.025h0.1l0.125 0.025h0.125l0.125 0.025h0.125l0.1-0.15 0.050-0.1 0.075-0.050 0.075-0.075 0.075-0.050 0.1-0.050 0.075-0.050 0.125-0.025 0.2-0.050 0.125-0.025h0.35l0.15 0.025zM31.425 14.775l-0.1-0.1-0.075-0.050-0.075-0.025-0.125-0.025h-0.35l-0.25 0.050-0.125 0.050-0.1 0.050-0.125 0.050-0.1 0.075-0.15 0.15 0.15 0.050h0.075l0.075 0.025h0.225l0.075-0.050 0.125-0.050 0.125-0.075 0.35-0.1 0.2-0.025h0.175z"></path>
<path d="M31.6 15.075v-0.125l-0.025-0.075-0.050-0.075-0.075-0.025-0.1-0.025-0.1 0.025h-0.125l-0.125 0.025-0.25 0.1-0.1 0.050-0.1 0.025-0.1 0.050-0.075 0.025-0.050 0.050 0.575 0.1 0.050-0.025 0.075-0.025 0.4-0.1h0.1l0.075 0.025zM31.125 14.575l-0.375-0.225-0.15-0.025-0.15-0.050h-0.475l-0.15 0.025-0.15 0.050-0.125 0.075-0.15 0.075-0.1 0.075-0.1 0.1-0.1 0.125-0.050 0.125h0.1l0.075 0.025h0.2l0.1 0.025h0.1l0.25 0.050 0.025-0.075 0.050-0.050 0.075-0.050 0.050-0.050 0.15-0.1 0.075-0.025 0.1-0.025 0.075-0.025 0.1-0.025 0.075-0.025h0.475zM5.575 11.15l-0.075 0.075-0.050 0.1-0.050 0.125-0.075 0.125-0.075 0.15-0.050 0.175-0.075 0.175-0.050 0.35v0.175l0.050 0.15 0.075 0.15 0.125 0.125 0.175 0.1 0.225 0.075-0.050-0.1-0.025-0.125-0.025-0.1v-0.675l0.025-0.125v-0.15l0.075-0.375 0.025-0.1 0.050-0.1 0.025-0.1-0.050-0.025h-0.025l-0.025-0.025h-0.050l-0.050-0.025h-0.025l-0.025-0.025z"></path>
<path d="M5.8 11.25l-0.1 0.4-0.075 0.35-0.025 0.325v0.5l0.050 0.2 0.050 0.175 0.075 0.15 0.075 0.1 0.1 0.1 0.1 0.075 0.1 0.050 0.1 0.025 0.075 0.025h0.15l-0.050-0.125-0.025-0.1-0.050-0.125-0.025-0.15-0.025-0.125-0.050-0.3v-0.15l-0.025-0.15v-0.15l0.025-0.15v-0.175l0.050-0.3 0.050-0.15 0.025-0.15-0.075-0.025-0.1-0.025-0.225-0.075-0.050-0.025h-0.075l-0.050-0.025z"></path>
<path d="M6.4 11.425l-0.050 0.15-0.050 0.175-0.025 0.2-0.025 0.225v0.5l0.025 0.225 0.025 0.25 0.050 0.225 0.075 0.2 0.1 0.175 0.1 0.15 0.15 0.1 0.15 0.075h0.175l0.2-0.050-0.075-0.125-0.15-0.3-0.050-0.125-0.050-0.15-0.050-0.3-0.050-0.15v-0.625l0.075-0.45 0.050-0.15-0.075-0.025-0.1-0.050-0.075-0.025-0.1-0.025-0.15-0.050-0.1-0.050z"></path>
<path d="M8.225 14.4l-0.2 0.025-0.2-0.025-0.15-0.075-0.15-0.1-0.15-0.125-0.125-0.175-0.2-0.4-0.075-0.225-0.050-0.225-0.050-0.5v-0.225l0.025-0.25 0.050-0.25 0.050-0.225 0.075 0.050 0.1 0.025 0.15 0.050 0.2 0.050 0.075 0.025 0.1 0.025v0.7l0.025 0.2v0.2l0.075 0.6 0.025 0.175 0.050 0.175 0.050 0.15 0.050 0.125 0.075 0.1 0.075 0.075 0.1 0.050z"></path>
<path d="M7.7 11.875l0.15 0.050h0.050l0.3 0.1 0.050 0.025 0.025 0.125v0.175l0.025 0.175v0.75l0.025 0.175v0.175l0.025 0.2 0.025 0.175 0.1 0.3 0.075 0.15 0.075 0.1 0.1 0.1-0.2-0.050-0.175-0.075-0.15-0.1-0.125-0.125-0.1-0.125-0.075-0.15-0.1-0.35-0.025-0.2-0.025-0.225v-0.2l-0.025-0.25v-0.7l-0.025-0.225z"></path>
<path d="M9.6 14.925h-0.275l-0.25-0.075-0.2-0.075-0.175-0.125-0.125-0.175-0.1-0.175-0.075-0.2-0.050-0.225-0.050-0.45v-0.975l-0.025-0.2v-0.2l0.075 0.025h0.075l0.050 0.025 0.225 0.075h0.075l0.075 0.025-0.025 0.025v0.050l-0.025 0.075-0.025 0.1v0.125l-0.025 0.15v0.35l0.025 0.2 0.1 0.45 0.075 0.225 0.125 0.225 0.15 0.25 0.175 0.25 0.2 0.25z"></path>
<path d="M10.575 15.225l-0.175 0.050-0.2-0.025-0.2-0.050-0.175-0.1-0.35-0.3-0.175-0.2-0.125-0.225-0.125-0.25-0.1-0.25-0.1-0.275-0.1-0.55v-0.3l0.025-0.275 0.050-0.275 0.7 0.225-0.025 0.1v0.3l0.050 0.35 0.025 0.2 0.1 0.4 0.15 0.4 0.075 0.225 0.125 0.175 0.1 0.2 0.15 0.175 0.15 0.15 0.15 0.125z"></path>
<path d="M9.5 12.4l0.1 0.050 0.15 0.025 0.6 0.2 0.15 0.025 0.1 0.025v0.35l0.025 0.175v0.175l0.050 0.4 0.050 0.35 0.025 0.2 0.050 0.175 0.050 0.15 0.075 0.175 0.075 0.15 0.2 0.25 0.125 0.1-0.15 0.025h-0.15l-0.3-0.1-0.15-0.1-0.3-0.25-0.15-0.2-0.125-0.175-0.125-0.225-0.2-0.55-0.050-0.3-0.075-0.35-0.025-0.35-0.025-0.4z"></path>
<path d="M12.25 15.525h-0.325l-0.275-0.025-0.225-0.075-0.2-0.125-0.15-0.15-0.125-0.175-0.1-0.2-0.075-0.225-0.050-0.225-0.075-0.75v-0.25l-0.025-0.225-0.025-0.2v-0.175h0.1l0.225 0.075 0.1 0.025 0.075 0.025 0.2 0.050 0.050 0.4 0.125 0.875 0.050 0.15 0.050 0.175 0.050 0.15 0.15 0.3 0.2 0.3 0.275 0.275z"></path>
<path d="M13.125 15.675l-0.3 0.025-0.25-0.050-0.2-0.075-0.2-0.125-0.175-0.15-0.15-0.175-0.1-0.2-0.2-0.45-0.1-0.5-0.050-0.225-0.025-0.25-0.050-0.4v-0.175l0.1 0.025 0.075 0.025h0.075l0.15 0.050h0.075l0.1 0.050h0.1l0.050 0.3 0.1 0.5 0.1 0.45 0.075 0.2 0.050 0.175 0.225 0.45 0.1 0.1 0.075 0.1 0.075 0.125 0.2 0.15 0.075 0.050z"></path>
<path d="M13.95 15.775l-0.275 0.025-0.25-0.025-0.225-0.1-0.2-0.1-0.15-0.15-0.15-0.175-0.125-0.2-0.125-0.225-0.1-0.225-0.075-0.225-0.075-0.25-0.15-0.675-0.050-0.35h0.1l0.15 0.050 0.1 0.025 0.075 0.025 0.1 0.025h0.075l0.1 0.025v0.15l0.050 0.3 0.050 0.175 0.050 0.2 0.15 0.35 0.075 0.2 0.1 0.175 0.1 0.2 0.2 0.3 0.125 0.15 0.1 0.15 0.125 0.1 0.125 0.075z"></path>
<path d="M14.85 15.95l-0.3 0.025-0.25-0.025-0.225-0.1-0.225-0.125-0.2-0.2-0.175-0.2-0.3-0.5-0.125-0.275-0.1-0.25-0.075-0.25-0.075-0.225-0.050-0.2-0.025-0.175-0.025-0.125v-0.075l0.8 0.2 0.025 0.1 0.025 0.15 0.1 0.35 0.050 0.2 0.225 0.6 0.1 0.2 0.075 0.2 0.1 0.175 0.25 0.3 0.1 0.1 0.15 0.075 0.15 0.050z"></path>
<path d="M15.5 15.925l-0.275 0.050h-0.225l-0.2-0.050-0.2-0.1-0.15-0.15-0.175-0.15-0.125-0.2-0.125-0.225-0.1-0.225-0.1-0.25-0.050-0.225-0.15-0.45-0.025-0.2-0.1-0.3 0.1 0.025h0.075l0.075 0.025h0.050l0.075 0.025h0.075l0.050 0.025h0.075v0.175l0.050 0.175 0.050 0.15 0.025 0.175 0.075 0.175 0.050 0.175 0.075 0.15 0.1 0.15 0.075 0.175 0.1 0.15 0.125 0.125 0.1 0.125 0.15 0.15 0.125 0.1 0.15 0.125 0.175 0.1z"></path>
<path d="M16.3 16.050h-0.2l-0.2-0.025-0.2-0.050-0.2-0.075-0.175-0.1-0.2-0.125-0.3-0.3-0.15-0.175-0.125-0.2-0.125-0.225-0.1-0.2-0.225-0.75-0.025-0.275 0.075 0.025 0.1 0.025h0.1l0.1 0.025 0.075 0.025h0.1l0.1 0.025 0.075 0.025 0.050 0.15 0.025 0.15 0.050 0.15 0.025 0.15 0.15 0.45 0.225 0.45 0.125 0.15 0.275 0.275 0.175 0.125 0.4 0.3z"></path>
<path d="M17.475 16.175l-0.275 0.025-0.275-0.025-0.25-0.025-0.25-0.075-0.225-0.1-0.2-0.125-0.2-0.15-0.175-0.15-0.3-0.4-0.125-0.2-0.1-0.225-0.1-0.25-0.075-0.25-0.050-0.275-0.050-0.25 0.075 0.025 0.1 0.025h0.075l0.075 0.025h0.1l0.1 0.025 0.075 0.025 0.1 0.025 0.025 0.175 0.1 0.35 0.075 0.175 0.1 0.175 0.075 0.175 0.125 0.15 0.125 0.175 0.25 0.3 0.175 0.125 0.15 0.125 0.175 0.125 0.175 0.1 0.2 0.1 0.2 0.075z"></path>
<path d="M18.125 16.25l-0.25-0.025-0.225-0.025-0.225-0.050-0.45-0.2-0.4-0.25-0.175-0.15-0.15-0.175-0.175-0.2-0.25-0.4-0.2-0.45-0.050-0.25-0.050-0.225h0.15l0.075 0.025h0.125l0.075 0.025h0.075l0.1 0.025 0.2 0.4 0.15 0.35 0.1 0.175 0.15 0.3 0.1 0.125 0.1 0.15 0.25 0.25 0.15 0.1 0.15 0.125 0.2 0.125 0.45 0.225z"></path>
<path d="M19.25 16.325h-0.675l-0.3-0.050-0.25-0.075-0.275-0.125-0.2-0.125-0.225-0.15-0.35-0.35-0.15-0.2-0.15-0.225-0.125-0.2-0.125-0.225-0.3-0.675h0.075l0.075 0.025h0.1l0.125 0.025 0.1 0.025h0.1l0.1 0.025h0.050l0.1 0.2 0.075 0.2 0.125 0.2 0.1 0.175 0.125 0.15 0.125 0.175 0.3 0.3 0.15 0.125 0.15 0.15 0.175 0.125 0.175 0.1 0.2 0.125 0.2 0.1 0.2 0.075 0.2 0.1zM19.95 16.425l-0.4-0.050-0.225-0.050-0.225-0.075-0.2-0.1-0.225-0.1-0.675-0.45-0.4-0.4-0.175-0.2-0.175-0.225-0.15-0.25-0.125-0.25-0.1-0.25 0.1 0.025h0.225l0.1 0.025h0.1l0.1 0.025h0.075l0.025 0.025 0.125 0.1 0.125 0.125 0.15 0.125 0.425 0.425 0.125 0.15 0.15 0.15 0.15 0.175 0.15 0.15 0.15 0.175 0.15 0.15 0.175 0.15 0.3 0.3 0.175 0.125z"></path>
<path d="M21 16.425l-0.2 0.125-0.2 0.050h-0.175l-0.2-0.050-0.2-0.1-0.2-0.15-0.225-0.175-0.2-0.175-0.2-0.225-0.225-0.25-0.225-0.225-0.45-0.5-0.45-0.45-0.225-0.175h0.175l0.1 0.025h0.1l0.125 0.025 0.1 0.025 0.125 0.025h0.075l0.2 0.175 0.175 0.15 0.35 0.35 0.15 0.175 0.175 0.175 0.15 0.175 0.175 0.15 0.3 0.3 0.3 0.25 0.15 0.1 0.3 0.15 0.15 0.050z"></path>
<path d="M21.8 16.5h-0.3l-0.275-0.025-0.5-0.15-0.225-0.125-0.4-0.3-0.175-0.175-0.2-0.175-0.7-0.8-0.2-0.2-0.4-0.35 0.075 0.025h0.1l0.1 0.025h0.225l0.075 0.025h0.125l0.125 0.025 0.1 0.050 0.125 0.1 0.15 0.1 0.125 0.125 0.125 0.15 0.15 0.15 0.3 0.35 0.175 0.2 0.175 0.175 0.4 0.35 0.225 0.175 0.25 0.15 0.25 0.125zM5.825 10.6v-0.225l-0.025-0.15v-0.375l0.025-0.2v-0.2l0.1-0.4 0.075-0.15 0.125-0.15 0.1-0.1 0.175-0.050h0.175l0.225 0.050-0.075 0.075-0.050 0.075-0.075 0.125-0.050 0.1-0.1 0.25-0.15 0.45-0.025 0.15-0.050 0.15-0.050 0.3-0.050 0.125v0.125l-0.025 0.1h-0.075l-0.025-0.025h-0.025l-0.050-0.025h-0.050l-0.050-0.025z"></path>
<path d="M6.1 10.7l0.075-0.45 0.1-0.4 0.1-0.35 0.1-0.275 0.125-0.225 0.1-0.175 0.1-0.125 0.075-0.1 0.2-0.1h0.075l0.1 0.025 0.15 0.050 0.050 0.050 0.075 0.050-0.4 0.4-0.225 0.375-0.050 0.125-0.075 0.125-0.050 0.15-0.075 0.15-0.050 0.15-0.025 0.15-0.050 0.175-0.050 0.15-0.025 0.175-0.1-0.025h-0.1l-0.025-0.025h-0.025l-0.025-0.025h-0.050l-0.025-0.025z"></path>
<path d="M6.45 10.85l0.025-0.175 0.025-0.2 0.075-0.2 0.075-0.25 0.075-0.225 0.125-0.225 0.1-0.225 0.125-0.225 0.15-0.175 0.15-0.15 0.15-0.125 0.15-0.075 0.15-0.050 0.175 0.050 0.15 0.075 0.175 0.175-0.375 0.3-0.1 0.125-0.1 0.1-0.1 0.125-0.075 0.15-0.1 0.125-0.075 0.125-0.050 0.15-0.075 0.15-0.050 0.175-0.050 0.15-0.025 0.175-0.050 0.175-0.025 0.2-0.075-0.025-0.1-0.025-0.075-0.025-0.1-0.050-0.075-0.025-0.1-0.025-0.050-0.050h-0.050z"></path>
<path d="M9.25 8.95l-0.175-0.1-0.175-0.075-0.175-0.025-0.175 0.025-0.35 0.15-0.175 0.15-0.3 0.3-0.125 0.225-0.125 0.2-0.1 0.25-0.1 0.225-0.075 0.275-0.050 0.25-0.025 0.275 0.075 0.025h0.075l0.1 0.050 0.075 0.025 0.2 0.050 0.075 0.025 0.1 0.025 0.075-0.175 0.050-0.175 0.075-0.175 0.050-0.175 0.075-0.2 0.075-0.175 0.075-0.2 0.1-0.15 0.075-0.175 0.2-0.3 0.1-0.125 0.1-0.1 0.25-0.15 0.125-0.050z"></path>
<path d="M10.050 9.175l-0.275-0.125-0.25-0.050-0.225-0.025-0.175 0.050-0.175 0.075-0.15 0.125-0.15 0.15-0.125 0.175-0.1 0.2-0.1 0.225-0.075 0.225-0.1 0.225-0.075 0.25-0.075 0.225-0.2 0.45h0.1l0.050 0.025 0.375 0.125h0.075l0.025-0.025v-0.075l0.025-0.1 0.025-0.125 0.025-0.15 0.1-0.35 0.075-0.2 0.1-0.2 0.1-0.175 0.15-0.2 0.15-0.175 0.175-0.175 0.2-0.15 0.225-0.125 0.275-0.1z"></path>
<path d="M11.050 9.325l-0.15-0.125-0.2-0.075-0.2-0.025h-0.2l-0.2 0.050-0.225 0.075-0.2 0.125-0.225 0.15-0.2 0.175-0.175 0.2-0.175 0.225-0.15 0.25-0.125 0.275-0.1 0.275-0.050 0.3-0.050 0.325 0.75 0.175 0.025-0.1 0.075-0.15 0.050-0.15 0.15-0.35 0.3-0.525 0.25-0.35 0.15-0.175 0.15-0.15 0.35-0.25 0.175-0.1 0.2-0.075z"></path>
<path d="M9.15 11.725l0.25 0.050 0.3 0.1 0.125 0.050 0.15 0.025 0.125 0.050 0.1 0.025 0.075-0.175 0.075-0.2 0.075-0.175 0.15-0.4 0.1-0.175 0.075-0.2 0.2-0.35 0.1-0.15 0.125-0.175 0.25-0.25 0.125-0.1 0.15-0.075 0.15-0.050-0.125-0.1-0.3-0.1-0.15-0.025-0.175 0.025-0.175 0.050-0.2 0.075-0.175 0.1-0.175 0.125-0.2 0.175-0.175 0.225-0.2 0.25-0.15 0.275-0.175 0.325-0.175 0.375-0.15 0.4z"></path>
<path d="M12.75 9.85l-0.275-0.15-0.275-0.1-0.25-0.025-0.225 0.050-0.175 0.075-0.2 0.125-0.15 0.175-0.15 0.2-0.25 0.45-0.1 0.25-0.125 0.25-0.1 0.25-0.075 0.25-0.1 0.2-0.075 0.2h0.1l0.075 0.025 0.1 0.025 0.225 0.075h0.1l0.1 0.025 0.1-0.2 0.075-0.2 0.1-0.175 0.075-0.175 0.2-0.35 0.075-0.175 0.2-0.3 0.125-0.125 0.1-0.125 0.15-0.125 0.125-0.125 0.15-0.1 0.175-0.1 0.175-0.075z"></path>
<path d="M13.65 10.1l-0.275-0.125-0.25-0.075-0.225-0.025-0.225 0.050-0.225 0.075-0.2 0.125-0.35 0.35-0.45 0.675-0.125 0.225-0.1 0.25-0.1 0.2-0.1 0.225-0.075 0.175 0.2 0.050h0.1l0.15 0.050 0.1 0.025h0.1l0.1 0.025 0.125-0.275 0.15-0.275 0.1-0.25 0.125-0.225 0.125-0.2 0.1-0.175 0.125-0.15 0.1-0.15 0.225-0.225 0.125-0.1 0.25-0.15 0.125-0.050 0.125-0.025 0.15-0.025z"></path>
<path d="M14.325 10.3l-0.25-0.125-0.25-0.050h-0.225l-0.225 0.050-0.2 0.075-0.2 0.125-0.175 0.15-0.175 0.175-0.15 0.2-0.15 0.225-0.25 0.45-0.1 0.225-0.2 0.4-0.075 0.175 0.1 0.025 0.225 0.075h0.075l0.075 0.025 0.1 0.025h0.075l0.050-0.15 0.15-0.3 0.2-0.35 0.125-0.175 0.1-0.175 0.15-0.175 0.45-0.45 0.3-0.25 0.3-0.15 0.15-0.050z"></path>
<path d="M15.15 10.5l-0.275-0.125-0.25-0.075h-0.275l-0.25 0.075-0.225 0.125-0.225 0.15-0.225 0.2-0.2 0.225-0.35 0.45-0.15 0.25-0.125 0.225-0.1 0.175-0.075 0.175-0.050 0.125-0.025 0.075 0.125 0.025h0.075l0.3 0.075 0.075 0.025h0.1l0.1 0.025 0.050-0.125 0.075-0.15 0.075-0.175 0.125-0.175 0.1-0.2 0.1-0.175 0.125-0.2 0.125-0.175 0.15-0.2 0.3-0.3 0.15-0.125 0.15-0.1 0.15-0.075 0.175-0.025h0.175z"></path>
<path d="M15.725 10.725l-0.225-0.15-0.25-0.075-0.2-0.025-0.225 0.025-0.2 0.1-0.2 0.125-0.175 0.15-0.175 0.2-0.15 0.2-0.15 0.225-0.125 0.225-0.15 0.25-0.2 0.4-0.075 0.175-0.075 0.15 0.075 0.025h0.075l0.075 0.025 0.050 0.025 0.075 0.025 0.050 0.025h0.050l0.075 0.025 0.3-0.7 0.1-0.175 0.1-0.15 0.125-0.175 0.25-0.3 0.15-0.125 0.125-0.1 0.175-0.125 0.525-0.225 0.2-0.050z"></path>
<path d="M16.475 10.9l-0.2-0.075-0.225-0.050h-0.4l-0.225 0.050-0.175 0.075-0.4 0.2-0.175 0.15-0.175 0.175-0.175 0.2-0.15 0.2-0.15 0.225-0.125 0.25-0.25 0.55 0.1 0.025h0.1l0.1 0.025 0.075 0.025 0.3 0.075 0.075 0.025 0.075-0.175 0.050-0.15 0.075-0.175 0.075-0.15 0.075-0.175 0.075-0.15 0.2-0.3 0.125-0.125 0.125-0.15 0.15-0.125 0.15-0.1 0.4-0.2 0.5-0.15z"></path>
<path d="M17.525 11.15l-0.25-0.1-0.275-0.075-0.5-0.050-0.25 0.050-0.225 0.050-0.225 0.1-0.2 0.125-0.2 0.15-0.175 0.175-0.175 0.2-0.15 0.2-0.15 0.25-0.125 0.25-0.1 0.25-0.1 0.275 0.075 0.025h0.1l0.2 0.050h0.1l0.1 0.025h0.1l0.1 0.025 0.1-0.4 0.3-0.525 0.25-0.3 0.15-0.15 0.15-0.125 0.35-0.2 0.2-0.1 0.2-0.050 0.2-0.075 0.225-0.025 0.2-0.025z"></path>
<path d="M18.050 11.225l-0.225-0.050-0.25-0.025-0.225 0.025-0.25 0.025-0.225 0.050-0.2 0.075-0.225 0.1-0.2 0.1-0.35 0.3-0.175 0.175-0.15 0.2-0.125 0.2-0.2 0.5-0.075 0.25 0.075 0.025h0.15l0.15 0.050h0.075l0.075 0.025 0.1 0.025 0.125-0.225 0.1-0.2 0.2-0.35 0.1-0.15 0.1-0.175 0.2-0.25 0.25-0.25 0.125-0.1 0.175-0.075 0.175-0.1 0.2-0.050 0.25-0.075 0.25-0.050z"></path>
<path d="M19.2 11.375l-0.35-0.1-0.35-0.050h-0.3l-0.3 0.025-0.25 0.050-0.25 0.1-0.225 0.1-0.4 0.3-0.175 0.175-0.3 0.4-0.125 0.225-0.15 0.225-0.1 0.225-0.125 0.25h0.15l0.075 0.025 0.2 0.050h0.075l0.075 0.025h0.075l0.1-0.225 0.125-0.175 0.125-0.2 0.125-0.175 0.3-0.3 0.175-0.15 0.35-0.25 0.175-0.1 0.2-0.1 0.2-0.075 0.2-0.1 0.225-0.050 0.225-0.075 0.225-0.050z"></path>
<path d="M19.875 11.425l-0.2-0.025h-0.425l-0.25 0.050-0.225 0.050-0.25 0.050-0.25 0.1-0.225 0.125-0.25 0.125-0.225 0.175-0.225 0.15-0.225 0.2-0.2 0.225-0.175 0.225-0.15 0.25-0.15 0.275h0.1l0.2 0.050 0.125 0.025h0.075l0.075 0.025 0.050 0.025 0.050-0.025 0.125-0.075 0.15-0.1 0.3-0.25 0.175-0.125 0.15-0.15 0.7-0.6 0.2-0.15 0.175-0.15 0.4-0.25 0.2-0.1 0.175-0.125z"></path>
<path d="M20.85 11.7l-0.2-0.175-0.175-0.1-0.2-0.050-0.225 0.025-0.2 0.050-0.25 0.1-0.225 0.15-0.25 0.175-0.225 0.2-0.25 0.2-0.5 0.45-0.275 0.225-0.5 0.4-0.275 0.175h0.075l0.1 0.025h0.225l0.125 0.025h0.325l0.2-0.15 0.175-0.15 0.2-0.15 0.175-0.175 0.175-0.15 0.15-0.15 0.175-0.15 0.15-0.125 0.175-0.15 0.175-0.1 0.175-0.125 0.175-0.1 0.175-0.075 0.4-0.1 0.225-0.025z"></path>
<path d="M21.55 11.8l-0.3-0.075-0.275-0.025h-0.275l-0.25 0.050-0.45 0.2-0.45 0.3-0.2 0.175-0.2 0.15-0.225 0.2-0.2 0.175-0.2 0.2-0.2 0.175-0.45 0.3h0.075l0.075 0.025 0.125 0.025h0.2l0.1 0.025h0.075l0.050 0.025h0.125l0.25-0.1 0.15-0.1 0.3-0.25 0.175-0.15 0.175-0.175 0.175-0.15 0.4-0.35 0.2-0.15 0.5-0.3 0.25-0.1 0.275-0.1z"></path>
<path d="M22.45 12.050l-0.25-0.15-0.275-0.075h-0.275l-0.275 0.075-0.3 0.1-0.275 0.15-0.275 0.175-0.5 0.4-0.25 0.225-0.25 0.2-0.2 0.2-0.2 0.15-0.175 0.125-0.175 0.075-0.125 0.025h0.125l0.1 0.025 0.3 0.050h0.125l0.15 0.025h0.15l0.125 0.025 0.2-0.15 0.175-0.15 0.15-0.15 0.175-0.125 0.125-0.15 0.3-0.25 0.25-0.25 0.15-0.1 0.35-0.2 0.175-0.075 0.2-0.075 0.225-0.075 0.25-0.050zM5.075 9.1l-0.050-0.075-0.075-0.225-0.025-0.1v-0.075l-0.025-0.1v-0.1l-0.025-0.075v-0.275l0.025-0.075v-0.1l0.050-0.15-0.125 0.15-0.15 0.3-0.050 0.35v0.175l0.025 0.175 0.050 0.175 0.025 0.175 0.075 0.15 0.050 0.175 0.075 0.15 0.075 0.175 0.050 0.15 0.075 0.15 0.075 0.125-0.025-0.025v-0.050l-0.025-0.050v-0.675l-0.025-0.1v-0.075l-0.025-0.1v-0.075l-0.025-0.075z"></path>
<path d="M2.875 12.075l0.15-0.075 0.25-0.15 0.15-0.1 0.125-0.075 0.1-0.075 0.375-0.225 0.1-0.050 0.125-0.1 0.125-0.050 0.1-0.075 0.375-0.225-0.1 0.125-0.125 0.1-0.1 0.125-0.125 0.1-0.125 0.125-0.375 0.3-0.375 0.225-0.125 0.050-0.375 0.075-0.15-0.025zM3.95 9.2l0.1 0.075 0.1 0.050 0.1 0.075 0.075 0.050 0.1 0.075 0.45 0.45 0.050 0.1 0.15 0.15 0.050 0.1 0.075 0.075-0.025-0.075-0.050-0.1-0.025-0.1-0.2-0.4-0.075-0.075-0.050-0.1-0.2-0.15-0.2-0.1-0.125-0.050-0.3-0.050z"></path>
<path d="M5.025 8.35l0.025 0.15 0.025 0.125 0.025 0.15 0.025 0.125v0.15l0.075 0.375v0.125l0.025 0.15 0.025 0.1 0.025 0.15 0.025 0.125v0.125l0.050 0.125 0.025 0.15v-0.175l0.050-0.3v-0.15l0.025-0.15v-0.3l-0.025-0.15v-0.15l-0.025-0.125-0.050-0.125-0.025-0.125-0.050-0.1-0.15-0.2-0.1-0.075zM4.25 8.1l-0.125 0.125-0.075 0.15-0.050 0.15v0.15l0.025 0.15 0.15 0.3 0.075 0.175 0.125 0.15 0.1 0.15 0.125 0.125 0.125 0.15 0.225 0.225 0.075 0.1 0.075 0.075v-0.2l-0.050-0.2-0.025-0.15-0.050-0.15-0.075-0.125-0.075-0.1-0.050-0.1-0.1-0.1-0.050-0.1-0.1-0.075-0.075-0.1-0.1-0.25-0.050-0.15-0.025-0.175-0.025-0.2z"></path>
<path d="M5.175 10.4v-0.275l0.025-0.15v-0.275l0.025-0.15v-0.125l0.025-0.125 0.025-0.15 0.075-0.375 0.050-0.15 0.050-0.125 0.025-0.125 0.075-0.125-0.225 0.2-0.175 0.2-0.125 0.175-0.075 0.175-0.050 0.15-0.050 0.3 0.025 0.15 0.025 0.125 0.1 0.25 0.1 0.2 0.075 0.225zM3.075 10.9l0.1 0.025 0.125 0.025h0.125l0.1 0.025h0.125l0.1 0.025h0.225l0.125-0.025h0.225l0.1-0.025h0.225l0.125-0.025 0.1-0.025-0.2 0.1-0.1 0.025-0.1 0.050-0.2 0.050-0.125 0.050h-0.475l-0.25-0.050-0.1-0.075-0.125-0.050-0.125-0.1z"></path>
<path d="M3.75 11.475l-0.1 0.025-0.075 0.025h-0.075l-0.1 0.025-0.075 0.050-0.1 0.025-0.075 0.025-0.075 0.050-0.1 0.050-0.15 0.1-0.050 0.050-0.075 0.050-0.175 0.175 0.050-0.175 0.1-0.15 0.075-0.125 0.125-0.125 0.125-0.1 0.15-0.075 0.15-0.1 0.35-0.1 0.15-0.075 0.2-0.050 0.175-0.025 0.175-0.050 0.175-0.025 0.15-0.025 0.075-0.025-0.1 0.075-0.125 0.075-0.15 0.1-0.175 0.1-0.15 0.1-0.175 0.075-0.125 0.050zM3.4 12.775l-0.050-0.175-0.025-0.15 0.025-0.15 0.050-0.15 0.1-0.15 0.1-0.125 0.3-0.25 0.15-0.1 0.175-0.1 0.15-0.1 0.175-0.1 0.3-0.15 0.125-0.075 0.075-0.050-0.1 0.2-0.1 0.175-0.1 0.15-0.1 0.125-0.1 0.075-0.125 0.1-0.1 0.050-0.2 0.15-0.125 0.075-0.1 0.050-0.2 0.2-0.1 0.125-0.1 0.15-0.1 0.2z"></path>
<path d="M5.225 11l-0.075 0.125-0.1 0.125-0.075 0.125-0.075 0.1-0.050 0.125-0.075 0.125-0.050 0.1-0.075 0.125-0.1 0.25-0.050 0.1-0.050 0.125-0.025 0.125-0.050 0.125-0.025 0.15-0.025 0.125-0.075-0.275-0.025-0.225v-0.4l0.050-0.175 0.075-0.15 0.15-0.2 0.1-0.1 0.1-0.075 0.125-0.075 0.1-0.050 0.075-0.075 0.1-0.050 0.050-0.050 0.075-0.050zM31.7 14.675c-2.55-0.35-11.925-0.825-16.1-1.5-3.375-0.55-6.65-1.55-9.8-2.6-0.8-0.275-2.25-0.825-3.175-1.325-0.575-0.45-1.975-1.1-2.375-1.725 6.075 2.9 8.525 3.675 15.675 5.125 2.925 0.575 13.45 1.425 15.775 2.025zM7.075 22.85h-1.35l-0.35-1.025h-1.875l-0.35 1.025h-1.3l1.85-5.050h1.5l1.875 5.050zM5.050 20.9l-0.625-1.8-0.625 1.8h1.25zM11.675 20.9c0 0.325-0.050 0.6-0.15 0.85s-0.225 0.475-0.375 0.625c-0.15 0.175-0.35 0.3-0.55 0.4s-0.425 0.125-0.65 0.125-0.4-0.025-0.55-0.075-0.3-0.1-0.475-0.2v1.575h-1.225v-5.15h1.225v0.4c0.163-0.144 0.354-0.262 0.562-0.345l0.013-0.005c0.2-0.1 0.425-0.15 0.675-0.15 0.475 0 0.85 0.175 1.1 0.525 0.275 0.325 0.4 0.8 0.4 1.425zM10.425 20.925c0-0.375-0.075-0.625-0.2-0.8s-0.325-0.25-0.6-0.25c-0.125 0-0.225 0.025-0.35 0.050s-0.225 0.075-0.35 0.15v1.9c0.074 0.027 0.159 0.045 0.248 0.050l0.002 0c0.1 0 0.175 0.025 0.275 0.025 0.325 0 0.55-0.1 0.725-0.275 0.175-0.2 0.25-0.475 0.25-0.85zM14.875 22.45c-0.075 0.050-0.15 0.1-0.25 0.175s-0.2 0.125-0.275 0.175c-0.125 0.050-0.25 0.1-0.375 0.125-0.127 0.029-0.273 0.047-0.423 0.050l-0.002 0c-0.35 0-0.675-0.1-0.9-0.325-0.23-0.199-0.375-0.492-0.375-0.819 0-0.011 0-0.022 0.001-0.033l-0 0.002c0-0.275 0.050-0.5 0.175-0.675s0.3-0.325 0.525-0.425 0.5-0.175 0.85-0.225c0.325-0.050 0.675-0.075 1.050-0.1v-0.025c0-0.2-0.075-0.35-0.25-0.425s-0.425-0.125-0.75-0.125c-0.004-0-0.009-0-0.014-0-0.227 0-0.446 0.037-0.65 0.104l0.015-0.004c-0.225 0.075-0.4 0.125-0.5 0.175h-0.1v-0.925l0.625-0.125c0.263-0.047 0.566-0.075 0.875-0.075h0c0.7 0 1.2 0.1 1.5 0.325s0.45 0.55 0.45 1v2.575h-1.2v-0.4zM14.875 21.85v-0.8c-0.175 0.025-0.35 0.025-0.525 0.050-0.2 0.025-0.325 0.050-0.425 0.075-0.125 0.050-0.225 0.1-0.275 0.175-0.075 0.075-0.1 0.175-0.1 0.3 0 0.075 0 0.15 0.025 0.2s0.050 0.1 0.1 0.15 0.125 0.075 0.175 0.1c0.075 0.025 0.175 0.025 0.35 0.025 0.125 0 0.25-0.025 0.375-0.075 0.075-0.050 0.2-0.125 0.3-0.2zM19.175 22.95c-0.325 0-0.625-0.050-0.9-0.125s-0.5-0.2-0.725-0.375c-0.2-0.175-0.35-0.375-0.475-0.625-0.108-0.259-0.172-0.559-0.175-0.874v-0.001c0-0.35 0.050-0.65 0.175-0.925s0.275-0.475 0.5-0.65c0.2-0.15 0.45-0.275 0.7-0.35 0.275-0.075 0.55-0.1 0.825-0.1 0.25 0 0.5 0.025 0.725 0.075s0.425 0.125 0.6 0.225v1.050h-0.175c-0.050-0.050-0.1-0.1-0.175-0.15s-0.15-0.1-0.25-0.15-0.2-0.1-0.3-0.125-0.25-0.050-0.375-0.050c-0.325 0-0.575 0.1-0.75 0.3s-0.25 0.475-0.25 0.85 0.1 0.65 0.275 0.825c0.175 0.2 0.425 0.275 0.75 0.275 0.152-0.003 0.299-0.021 0.44-0.053l-0.015 0.003c0.125-0.025 0.225-0.075 0.3-0.125s0.15-0.1 0.2-0.15 0.125-0.1 0.15-0.15h0.175v1.050c-0.2 0.1-0.4 0.15-0.6 0.225-0.175 0.075-0.4 0.1-0.65 0.1zM25.075 22.85h-1.225v-1.875c0-0.15 0-0.3-0.025-0.45s-0.050-0.275-0.075-0.325c-0.050-0.075-0.1-0.15-0.2-0.175-0.075-0.050-0.2-0.050-0.375-0.050-0.118 0.005-0.229 0.023-0.335 0.052l0.010-0.002c-0.1-0.025-0.225 0.050-0.35 0.125v2.7h-1.225v-5.275h1.225v1.875c0.182-0.146 0.387-0.278 0.604-0.39l0.021-0.010c0.2-0.1 0.425-0.125 0.675-0.125 0.4 0 0.725 0.125 0.95 0.35 0.225 0.25 0.35 0.6 0.35 1.075v2.5zM29.95 21.175h-2.8c0.025 0.3 0.125 0.525 0.35 0.675 0.2 0.15 0.525 0.225 0.925 0.225 0.25 0 0.5-0.050 0.75-0.15 0.22-0.087 0.41-0.188 0.585-0.307l-0.011 0.007h0.125v0.975c-0.275 0.1-0.525 0.2-0.775 0.25s-0.525 0.075-0.8 0.075c-0.75 0-1.35-0.175-1.75-0.525s-0.6-0.825-0.6-1.475c0-0.625 0.2-1.125 0.575-1.5s0.9-0.55 1.575-0.55c0.625 0 1.075 0.15 1.4 0.475 0.3 0.3 0.475 0.75 0.475 1.35v0.475zM28.75 20.45c0-0.25-0.075-0.45-0.2-0.575s-0.3-0.2-0.55-0.2c-0.225 0-0.425 0.050-0.575 0.175s-0.225 0.325-0.25 0.575h1.575z"></path>
</svg>
