<!-- Generated by IcoMoon.io -->
<svg version="1.1" xmlns="http://www.w3.org/2000/svg" width="32" height="32" viewBox="0 0 32 32">
<title>apple</title>
<path d="M24.115 17.263c-0.038-3.766 3.070-5.572 3.209-5.663-1.747-2.555-4.468-2.905-5.437-2.944-2.313-0.236-4.518 1.363-5.692 1.363-1.172 0-2.985-1.329-4.904-1.295-2.525 0.038-4.852 1.469-6.151 3.729-2.622 4.548-0.67 11.288 1.885 14.979 1.249 1.804 2.739 3.834 4.692 3.76 1.883-0.074 2.594-1.219 4.87-1.219s2.916 1.219 4.909 1.18c2.026-0.037 3.309-1.838 4.548-3.65 1.433-2.096 2.023-4.125 2.059-4.228-0.044-0.020-3.947-1.516-3.988-6.011zM20.371 6.213c1.036-1.258 1.738-3.007 1.548-4.747-1.495 0.061-3.306 0.994-4.379 2.251-0.961 1.115-1.804 2.891-1.577 4.6 1.669 0.129 3.369-0.848 4.409-2.104z"></path>
</svg>
