<!-- Generated by IcoMoon.io -->
<svg version="1.1" xmlns="http://www.w3.org/2000/svg" width="32" height="32" viewBox="0 0 32 32">
<title>atlassian</title>
<path d="M31.175 1.72c-4.484 2.455-9.682 3.753-15.032 3.754-5.35-0.001-10.548-1.299-15.032-3.754-0.106-0.059-0.229-0.089-0.353-0.089-0.239 0-0.468 0.115-0.611 0.306-0.212 0.283-0.219 0.756 0.143 1.038 2.245 1.674 4.721 2.982 7.358 3.876 2.733 0.927 5.592 1.398 8.494 1.399h0.003c2.904-0.001 5.762-0.472 8.494-1.399 2.638-0.894 5.112-2.201 7.361-3.877zM26.406 8.846c-1.299 0.497-2.62 0.875-3.825 1.155-0.245 0.058-0.444 0.24-0.527 0.459-0.877 2.404-3.119 4.693-5.47 7.092-0.095 0.090-0.226 0.208-0.441 0.208s-0.345-0.114-0.441-0.208c-2.351-2.398-4.592-4.679-5.47-7.084-0.082-0.219-0.281-0.402-0.527-0.459-1.206-0.281-2.528-0.67-3.826-1.166-0.070-0.027-0.143-0.040-0.215-0.040-0.13 0-0.256 0.041-0.363 0.123-0.166 0.127-0.253 0.332-0.233 0.531 0.199 2 0.988 3.954 2.414 6.002 1.34 1.926 3.088 3.708 4.778 5.432 3.114 3.176 6.056 6.176 6.314 9.654 0.023 0.315 0.285 0.558 0.6 0.558h3.658c0.165 0 0.322-0.068 0.436-0.187s0.174-0.28 0.165-0.445c-0.115-2.326-0.99-4.654-2.676-7.118-0.353-0.517-0.731-1.019-1.127-1.511-0.161-0.201-0.093-0.449 0.029-0.574 0.121-0.124 0.243-0.249 0.366-0.375 1.69-1.724 3.438-3.506 4.778-5.432 1.426-2.048 2.216-3.992 2.414-5.991zM12.218 23.594c-0.087-0.091-0.214-0.183-0.427-0.183-0.274 0-0.436 0.189-0.496 0.283-1.54 2.341-2.334 4.552-2.444 6.773-0.008 0.164 0.052 0.326 0.166 0.446s0.274 0.188 0.437 0.188h3.652c0.313 0 0.579-0.245 0.602-0.559 0.079-1.070 0.413-2.143 1.019-3.271 0.21-0.39 0.047-0.756-0.074-0.913-0.602-0.783-1.339-1.618-2.436-2.762zM16.147 10.722c1.147 0 1.812-0.069 2.045-0.069 0.283 0 0.554 0.231 0.554 0.556 0 0.095-0.022 0.162-0.045 0.223-0.152 0.407-0.845 1.869-2.135 3.124-0.145 0.141-0.308 0.166-0.422 0.166h-0.001c-0.113 0-0.276-0.026-0.421-0.166-1.29-1.254-1.983-2.717-2.135-3.124-0.023-0.060-0.045-0.128-0.045-0.223 0-0.325 0.271-0.556 0.554-0.556 0.234 0 0.899 0.069 2.045 0.069h0.008z"></path>
</svg>
