<!-- Generated by IcoMoon.io -->
<svg version="1.1" xmlns="http://www.w3.org/2000/svg" width="32" height="32" viewBox="0 0 32 32">
<title>atom</title>
<path d="M9.511 1.839c-1.853 0.404-2.833 2.552-2.626 5.732 0.062 0.921 0.054 0.831 0.245 2.009l0.122 0.886c-0.010 0.016-0.337 0.096-0.714 0.187-2.521 0.58-4.374 1.454-5.487 2.583-0.751 0.756-1.066 1.46-1.054 2.349 0.005 0.499 0.171 1.048 0.474 1.577 0.262 0.453 1.193 1.373 1.806 1.79 1.285 0.864 1.678 0.998 2.029 0.634 0.15-0.15 0.181-0.225 0.181-0.399 0-0.341-0.117-0.505-0.517-0.724-1.76-0.973-2.679-1.987-2.679-2.958 0-0.352 0.122-0.671 0.416-1.054 0.774-1.028 2.637-1.949 5.135-2.541 0.661-0.155 0.789-0.165 0.789-0.054 0 0.143 0.533 1.847 0.874 2.78l0.341 0.936-0.421 0.805-0.73 1.497c-2.446 5.386-2.85 9.663-1.082 11.421 0.416 0.416 0.756 0.608 1.315 0.751 1.289 0.331 2.995-0.165 4.904-1.428 0.666-0.442 0.815-0.608 0.815-0.898 0-0.352-0.383-0.693-0.724-0.639-0.096 0.016-0.469 0.225-0.826 0.458-0.789 0.527-1.672 0.965-2.312 1.156-0.655 0.192-1.364 0.202-1.768 0.025-1.242-0.549-1.529-2.764-0.756-5.838 0.374-1.46 1.193-3.654 1.944-5.151l0.3-0.602 0.165 0.374c0.309 0.714 1.512 3.041 1.982 3.835 2.596 4.41 5.518 7.643 8.111 8.965 1.838 0.936 3.357 0.852 4.389-0.25 0.749-0.805 1.136-1.977 1.198-3.734 0.1-3.026-0.886-6.963-2.813-11.181l-0.559-1.129c-0.117-0.127-0.416-0.212-0.618-0.171s-0.449 0.287-0.484 0.495c-0.042 0.197 0.005 0.331 0.479 1.358 1.323 2.85 2.246 5.844 2.604 8.416 0.117 0.849 0.137 2.683 0.032 3.25s-0.314 1.161-0.537 1.503c-0.357 0.549-0.767 0.774-1.444 0.767-2.009-0.005-5.173-2.764-7.987-6.951-1.213-1.791-2.353-3.844-3.308-5.998l-0.101-0.256-0.331-0.749 0.462-0.782 1.928-2.958 0.559-0.782h0.864c5.924 0 11.805 1.343 14.809 3.372 0.686 0.462 1.348 1.141 1.577 1.61 0.117 0.197 0.185 0.435 0.185 0.689 0 0.039-0.002 0.077-0.005 0.115l0-0.005c-0.005 0.357-0.025 0.469-0.15 0.703-0.367 0.714-1.3 1.423-2.596 1.987-0.608 0.262-0.799 0.442-0.799 0.751 0 0.287 0.117 0.495 0.341 0.602 0.245 0.117 0.331 0.106 0.724-0.054 1.872-0.751 3.201-1.872 3.623-2.989 0.777-2.078-0.852-4.177-4.448-5.743-3.142-1.373-7.762-2.234-12.567-2.334l-0.528-0.012 0.601-0.693c0.693-0.805 2.221-2.334 2.876-2.883 1.555-1.31 2.945-2.141 4.143-2.483 0.591-0.171 1.323-0.165 1.7 0.005 0.499 0.23 0.869 0.746 1.066 1.545 0.122 0.484 0.122 1.965 0 2.679-0.137 0.789-0.122 0.927 0.091 1.139 0.155 0.155 0.218 0.181 0.442 0.181 0.474 0 0.596-0.175 0.74-1.038 0.075-0.442 0.1-0.864 0.1-1.731 0-1.011-0.016-1.204-0.122-1.625-0.337-1.327-1.156-2.243-2.254-2.503-2.546-0.597-6.439 1.853-10.313 6.499-0.184 0.216-0.402 0.481-0.616 0.75l-0.050 0.065c-0.080 0.117-0.134 0.127-0.906 0.175-0.763 0.051-1.392 0.11-2.018 0.183l0.191-0.018c-1.481 0.171-1.364 0.187-1.448-0.197-0.225-1.071-0.3-1.822-0.303-2.995-0.005-1.257 0.037-1.63 0.266-2.327 0.245-0.74 0.661-1.242 1.188-1.416 0.256-0.091 0.886-0.080 1.257 0.016 0.624 0.165 1.502 0.634 2.301 1.248 0.474 0.357 0.639 0.421 0.89 0.337 0.267-0.080 0.458-0.323 0.458-0.611 0-0.006-0-0.013-0-0.019l0 0.001c0-0.225-0.021-0.266-0.256-0.49-0.331-0.319-1.289-0.958-1.869-1.248-1.098-0.549-2.057-0.724-2.92-0.537zM11.508 11.278c-0.005 0.025-0.352 0.549-0.749 1.167l-0.899 1.373-0.155 0.262-0.127-0.346c-0.16-0.421-0.655-2.050-0.655-2.153 0-0.096 0.235-0.134 1.972-0.314 0.374-0.037 0.649-0.037 0.629 0zM15.563 14.57c-0.399 0.136-0.729 0.387-0.961 0.713l-0.004 0.006c-0.655 0.965-0.337 2.221 0.693 2.727 0.319 0.16 0.399 0.175 0.836 0.175s0.517-0.016 0.836-0.175c1.39-0.681 1.36-2.706-0.054-3.357-0.374-0.171-0.973-0.207-1.348-0.091z"></path>
</svg>
