<!-- Generated by IcoMoon.io -->
<svg version="1.1" xmlns="http://www.w3.org/2000/svg" width="32" height="32" viewBox="0 0 32 32">
<title>atom</title>
<path d="M10.8 4.652c-1.485 0.324-2.27 2.045-2.104 4.593 0.050 0.738 0.043 0.666 0.196 1.61l0.098 0.71c-0.008 0.013-0.27 0.077-0.572 0.15-2.020 0.465-3.505 1.165-4.397 2.070-0.602 0.606-0.854 1.17-0.845 1.882 0.004 0.4 0.137 0.84 0.38 1.264 0.21 0.363 0.956 1.1 1.447 1.434 1.030 0.692 1.345 0.8 1.626 0.508 0.12-0.12 0.145-0.18 0.145-0.32 0-0.273-0.094-0.405-0.414-0.58-1.41-0.78-2.147-1.592-2.147-2.37 0-0.282 0.098-0.538 0.333-0.845 0.62-0.824 2.113-1.562 4.115-2.036 0.53-0.124 0.632-0.132 0.632-0.043 0 0.115 0.427 1.48 0.7 2.228l0.273 0.75-0.337 0.645-0.585 1.2c-1.96 4.316-2.284 7.743-0.867 9.152 0.333 0.333 0.606 0.487 1.054 0.602 1.033 0.265 2.4-0.132 3.93-1.144 0.534-0.354 0.653-0.487 0.653-0.72 0-0.282-0.307-0.555-0.58-0.512-0.077 0.013-0.376 0.18-0.662 0.367-0.632 0.422-1.34 0.773-1.853 0.926-0.525 0.154-1.093 0.162-1.417 0.020-0.995-0.44-1.225-2.215-0.606-4.678 0.3-1.17 0.956-2.928 1.558-4.128l0.24-0.482 0.132 0.3c0.248 0.572 1.212 2.437 1.588 3.073 2.080 3.534 4.422 6.125 6.5 7.184 1.473 0.75 2.69 0.683 3.517-0.2 0.6-0.645 0.91-1.584 0.96-2.992 0.080-2.425-0.71-5.58-2.254-8.96l-0.448-0.905c-0.094-0.102-0.333-0.17-0.495-0.137s-0.36 0.23-0.388 0.397c-0.034 0.158 0.004 0.265 0.384 1.088 1.060 2.284 1.8 4.683 2.087 6.744 0.094 0.68 0.11 2.15 0.026 2.604s-0.252 0.93-0.43 1.204c-0.286 0.44-0.615 0.62-1.157 0.615-1.61-0.004-4.145-2.215-6.4-5.57-0.972-1.435-1.885-3.081-2.651-4.806l-0.081-0.205-0.265-0.6 0.37-0.627 1.545-2.37 0.448-0.627h0.692c4.747 0 9.46 1.076 11.867 2.702 0.55 0.37 1.080 0.914 1.264 1.29 0.093 0.158 0.149 0.349 0.149 0.552 0 0.031-0.001 0.062-0.004 0.092l0-0.004c-0.004 0.286-0.020 0.376-0.12 0.563-0.294 0.572-1.042 1.14-2.080 1.592-0.487 0.21-0.64 0.354-0.64 0.602 0 0.23 0.094 0.397 0.273 0.482 0.196 0.094 0.265 0.085 0.58-0.043 1.5-0.602 2.565-1.5 2.903-2.395 0.623-1.665-0.683-3.347-3.564-4.602-2.518-1.1-6.22-1.79-10.070-1.87l-0.423-0.010 0.482-0.555c0.555-0.645 1.78-1.87 2.305-2.31 1.246-1.050 2.36-1.716 3.32-1.99 0.474-0.137 1.060-0.132 1.362 0.004 0.4 0.184 0.696 0.598 0.854 1.238 0.098 0.388 0.098 1.575 0 2.147-0.11 0.632-0.098 0.743 0.073 0.913 0.124 0.124 0.175 0.145 0.354 0.145 0.38 0 0.478-0.14 0.593-0.832 0.060-0.354 0.080-0.692 0.080-1.387 0-0.81-0.013-0.965-0.098-1.302-0.27-1.063-0.926-1.797-1.806-2.006-2.040-0.478-5.16 1.485-8.264 5.208-0.148 0.173-0.323 0.386-0.494 0.601l-0.040 0.052c-0.064 0.094-0.107 0.102-0.726 0.14-0.611 0.041-1.116 0.088-1.617 0.146l0.153-0.014c-1.187 0.137-1.093 0.15-1.16-0.158-0.18-0.858-0.24-1.46-0.243-2.4-0.004-1.007 0.030-1.306 0.213-1.865 0.196-0.593 0.53-0.995 0.952-1.135 0.205-0.073 0.71-0.064 1.007 0.013 0.5 0.132 1.204 0.508 1.844 1 0.38 0.286 0.512 0.337 0.713 0.27 0.214-0.064 0.367-0.259 0.367-0.49 0-0.005-0-0.010-0-0.015l0 0.001c0-0.18-0.017-0.213-0.205-0.393-0.265-0.256-1.033-0.768-1.498-1-0.88-0.44-1.648-0.58-2.34-0.43zM12.4 12.216c-0.004 0.020-0.282 0.44-0.6 0.935l-0.72 1.1-0.124 0.21-0.102-0.277c-0.128-0.337-0.525-1.643-0.525-1.725 0-0.077 0.188-0.107 1.58-0.252 0.3-0.030 0.52-0.030 0.504 0zM15.65 14.854c-0.32 0.109-0.585 0.31-0.77 0.571l-0.003 0.005c-0.525 0.773-0.27 1.78 0.555 2.185 0.256 0.128 0.32 0.14 0.67 0.14s0.414-0.013 0.67-0.14c1.114-0.546 1.090-2.168-0.043-2.69-0.3-0.137-0.78-0.166-1.080-0.073z"></path>
</svg>
