<!-- Generated by IcoMoon.io -->
<svg version="1.1" xmlns="http://www.w3.org/2000/svg" width="32" height="32" viewBox="0 0 32 32">
<title>babel</title>
<path d="M22.545 12.625v0.037h0.078c0.001-0.040 0.009-0.077 0.024-0.111l-0.001 0.002-0.001 0.002v-0.068c-0.032 0-0.065 0.053-0.095 0.145zM21.81 10.855v-0.068h-0.1v0.068h0.1zM19.675 14.855c-0.169-0.285-0.363-0.531-0.586-0.748l-0.002-0.002c0-0.080 0.125-0.197 0.398-0.355l0.765-0.665c0.2-0.3 0.32-0.672 0.32-1.070v-0.13c-0.030-0.345-0.28-0.623-0.75-0.835q-0.42-0.283-1.5-0.313c-0.897 0.119-1.709 0.353-2.467 0.69l0.057-0.023 0.057-0.022c-0.256 0.185-0.552 0.374-0.86 0.547l-0.048 0.025v0.057c0.034-0.007 0.065-0.020 0.090-0.040 0.003-0.001 0.007-0.002 0.012-0.002 0.030 0 0.053 0.024 0.053 0.053v0.002l0.036-0.024h0.027v0.025c-0.184 0.188-0.39 0.354-0.616 0.492l-0.014 0.008 0.033 0.060h-0.027l-0.070-0.025c0 0.020-0.027 0.035-0.085 0.040v0.025l0.068 0.085c-0.036-0.001-0.070-0.010-0.1-0.023l0.002 0.001c-0.117 0.017-0.217 0.074-0.3 0.157v0.001l0.040-0.172c0.113-0.443 0.215-0.995 0.283-1.557l0.007-0.068-0.008-0.047c-0.104-0.070-0.194-0.152-0.269-0.246l-0.002-0.002-0.002-0.002v-0.148h-0.027q-0.463 0.693-1.777 2.362-1 1.188-1.035 1.32c-0.273 0.283-0.402 0.453-0.4 0.5-0.072 0.047-0.102 0.092-0.1 0.145-0.003 0.001-0.007 0.002-0.010 0.002-0.015 0-0.027-0.010-0.030-0.024-0.115 0.185-0.3 0.317-0.515 0.362l-0.005 0.001-0.25 0.055c-0.028 0.004-0.050 0.028-0.050 0.057 0 0.005 0.001 0.010 0.002 0.014v0.030l0.1-0.020v0.025l-0.205 0.080-0.363 0.085h-0.2c-0.027 0.027 0.152 0 0.082 0.015l-0.25 0.055c-0.145 0.033-0.223 0.020-0.25-0.037h0.006c0.002 0.010 0.003 0.020 0.003 0.030s-0.001 0.020-0.004 0.030l-0.015-0.058-0.2 0.045q0.018-0.102-0.732-0.925c0-0.107 0.168-0.262 0.53-0.465l1.020-0.897q0.342-0.44 0.408-1.412l-0.015-0.152c-0.040-0.457-0.37-0.825-1-1.1-0.367-0.25-1.030-0.383-1.985-0.402-1.153 0.154-2.198 0.45-3.175 0.87l0.078-0.030c-0.323 0.236-0.694 0.474-1.078 0.69l-0.057 0.029-0.060 0.030v0.080c0.045-0.008 0.086-0.025 0.12-0.048l-0.001 0.001c0.005-0.001 0.012-0.002 0.018-0.002h0c0.037 0 0.067 0.030 0.067 0.067l0.080-0.045h0.050v0.047c-0.241 0.236-0.507 0.446-0.795 0.627l-0.020 0.011-0.020 0.012 0.045 0.070h-0.035l-0.085-0.030c0 0.023-0.038 0.040-0.12 0.047v0.043l0.092 0.102c-0.045 0-0.088-0.010-0.127-0.026l0.002 0.001c-0.23 0.050-0.42 0.194-0.528 0.39l-0.002 0.004 0.045 0.070c0.075-0.081 0.16-0.151 0.255-0.207l0.005-0.003 0.005-0.003v0.115c-0.046 0.010-0.087 0.027-0.124 0.049l0.002-0.001 0.002-0.001 0.095 0.145c0.178-0.188 0.377-0.353 0.595-0.492l0.013-0.008c0.1 0.027 0.167 0.063 0.17 0.1h0.085c0.512-0.394 1.103-0.72 1.74-0.95l0.045-0.014v0.080q-0.165 0.25-0.223 0.25c0.003 0.057 0.024 0.108 0.058 0.148q0.015 0.15-0.803 2.025-1.83 4.322-3.1 6.408c0.008 0.043 0.026 0.081 0.050 0.114l-0-0.001v-0.001c0.148-0.025 0.28-0.077 0.397-0.152l-0.004 0.002h0.045v0.080h0.098l0.080-0.045c0 0.023 0.027 0.035 0.083 0.030v0.080c-0.010 0.134-0.058 0.256-0.13 0.357l0.001-0.002c-0.114 0.165-0.203 0.358-0.257 0.565l-0.003 0.013v0.038h0.078c0.288-0.312 0.538-0.665 0.739-1.048l0.013-0.027 0.013-0.027c0.864-0.233 1.612-0.522 2.32-0.877l-0.070 0.032c0.45-0.012 0.862-0.165 1.196-0.416l-0.005 0.004-0.006 0.004v-0.043l-0.195 0.058h-0.045v-0.043c0.295-0.020 0.566-0.11 0.8-0.254l-0.008 0.004q1.115-0.86 1.685-1.218 1.17-0.86 1.52-1.675l0.13-0.030 0.094 0.003 0.098-0.003h-0.005c0-0.020 0-0.032 0.025-0.038 0.175-0.017 0.1 0 0.203-0.015l0.293-0.067h0.050l-0.023 0.015c0.016 0.003 0.035 0.005 0.054 0.005h0c0.020 0 0.038-0.002 0.056-0.005h-0.002l0.020 0.085-1.335 2.122-0.313 0.343-0.145 0.485h0.027l0.145-0.060-0.048 0.188 0.015 0.055 0.040 0.050c-0.018 0-0.025 0.017-0.020 0.038v0.030l0.060-0.015q0.133-0.115 0.113-0.2c0.040 0.010 0.090 0.017 0.138 0.017 0.018 0 0.037-0.001 0.054-0.003h-0.003v0.030c-0.057 0.015-0.088 0.060-0.092 0.14v0.030h0.033c0.485-0.53 1.672-2.337 2.625-3.567q-0.045-0.2 1.5-0.555h0.033q0.055 0.25-0.25 1.168c-0.072 0.168-0.132 0.366-0.171 0.571l-0.003 0.019-0.003 0.020c-0.090 0.227-0.17 0.497-0.225 0.775l-0.005 0.030-0.342 1.172c-0.212 0.523-0.395 1.142-0.519 1.783l-0.010 0.064-0.010 0.068c0.015-0.003 0.032-0.005 0.050-0.005s0.035 0.002 0.052 0.005h-0.002l0.053-0.045c0.003 0.014 0.015 0.024 0.030 0.024 0.004 0 0.007-0.001 0.010-0.002l-0.020-0.085h0.158c0.047 0 0.085-0.070 0.12-0.177 0-0.16 0.025-0.25 0.098-0.265 0.041-0.224 0.106-0.424 0.194-0.612l-0.007 0.016-0.007 0.016c0.043-0.25 0.116-0.473 0.216-0.681l-0.007 0.015-0.007 0.016c0.137-0.5 0.25-0.75 0.303-0.765l0.015 0.060-0.1 0.25c-0.15 0.716-0.333 1.33-0.56 1.924l0.030-0.087 0.053 0.223h0.033q0.65-1.398 1.87-5.535c0.025-0.23 0.155-0.424 0.34-0.538l0.003-0.002-0.047-0.050v-0.025c0.080-0.012 0.147-0.052 0.195-0.1 0-0.020-0.085-0.053-0.25-0.092l0.405-1.75c0.044-0.047 0.095-0.087 0.152-0.118h0.002v0.088c-0.034 0.007-0.065 0.020-0.090 0.040h0.001l0.078 0.1c0.132-0.14 0.278-0.265 0.437-0.371l0.009-0.006 0.010-0.006c0.085 0.023 0.125 0.053 0.13 0.080h0.060c0.39-0.298 0.84-0.544 1.323-0.717l0.035-0.010v0.057q-0.122 0.185-0.168 0.188c0.004 0.042 0.017 0.080 0.038 0.114l-0.001-0.001c-0.19 0.625-0.404 1.155-0.658 1.663l0.028-0.061 0.028-0.062c-0.79 1.94-1.58 3.546-2.468 5.090l0.108-0.204c0.008 0.033 0.023 0.060 0.043 0.085 0.113-0.018 0.213-0.060 0.301-0.119l-0.003 0.002-0.003 0.002h0.027v0.058h0.065l0.057-0.030q0 0.025 0.063 0.020v0.063c-0.010 0.1-0.045 0.19-0.1 0.266l0.001-0.001c-0.094 0.127-0.166 0.276-0.208 0.437l-0.002 0.009-0.002 0.010v0.030h0.060c0.219-0.237 0.409-0.505 0.56-0.797l0.010-0.020 0.010-0.020c0.673-0.182 1.255-0.409 1.806-0.689l-0.106 0.049c0.342-0.010 0.655-0.124 0.91-0.313l-0.004 0.003v-0.030l-0.152 0.045h-0.032v-0.030c0.226-0.017 0.433-0.087 0.612-0.199l-0.006 0.003-0.006 0.003 1.28-0.925c0.9-0.655 1.317-1.283 1.268-1.887zM19.52 14.895l0.020 0.235c-0.027 0.057-0.058 0.088-0.085 0.1l-0.035-0.4c0.065 0.023 0.098 0.047 0.1 0.075zM1.88 13h-0.040v-0.072l0.16-0.012v0.037c-0.045 0.008-0.085 0.025-0.12 0.049l0.001-0.001zM1.095 20.85c-0.065-0.034-0.143-0.053-0.224-0.053l-0.027 0.001h0.001v-0.115c0-0.045 0.020-0.075 0.078-0.085s0.083 0.032 0.085 0.108c0.068-0.093 0.14-0.175 0.22-0.25v0l0.085 0.035c-0.028 0.233-0.1 0.352-0.215 0.36zM9.482 12.075c-0.040 0-0.12-0.12-0.232-0.363v-0.072c0.075 0 0.152 0.115 0.232 0.363v0.072zM9.37 11.205l-0.033 0.078-1.14-0.475q1.14 0.037 1.172 0.398zM4.563 15.338l-0.16 0.015v-0.072l0.16-0.015v0.072zM4.433 12.858h0.040v0.115c-0.037 0-0.085 0.057-0.147 0.165v-0.080c0.072-0.085 0.1-0.152 0.105-0.197zM4.095 13.656l0.015 0.152h-0.040l-0.015-0.152zM3.917 13.941h0.078c0 0.125-0.042 0.193-0.105 0.197h-0.040c0.039-0.053 0.063-0.12 0.067-0.191l0-0.001zM3.785 14.336h0.045v0.037l-0.072 0.12h-0.078v-0.037h0.008c0.055 0 0.1-0.045 0.1-0.1v0c0-0.008-0.001-0.016-0.003-0.023zM3.655 14.694l-0.022 0.2h-0.040l-0.018-0.188h0.080zM2.355 18.406c-0.053 0.25-0.107 0.392-0.165 0.398v-0.064c0-0.137 0.066-0.258 0.167-0.334zM2.105 18.926v0.038c0.002 0.005 0.002 0.010 0.002 0.018 0 0.037-0.030 0.067-0.067 0.067h-0.005v-0.049q0-0.067 0.070-0.085zM2.038 20h0.12v0.043c-0.045 0.008-0.086 0.025-0.12 0.048l0.001-0.001h-0.079c0-0.040 0.020-0.070 0.070-0.085zM5.485 18.935c-0.46 0.2-0.853 0.43-1.218 0.695l0.018-0.013q-1.105 0.383-1.085 0.48c-0.52 0.194-0.947 0.385-1.36 0.6l0.067-0.032c-0.079-0.001-0.153-0.022-0.217-0.057l0.004 0.002c-0.001-0.007-0.001-0.016-0.001-0.024 0-0.13 0.070-0.24 0.177-0.3l0.002-0.001c0.017-0.002 0.038-0.002 0.058-0.002 0 0 0.001 0 0.001 0 0.099 0 0.192 0.021 0.277 0.059l-0.004-0.002-0.004-0.002c0.18-0.083 0.39-0.155 0.61-0.204l0.020-0.004v-0.080l-0.25 0.020c0.202-0.125 0.434-0.233 0.68-0.313l0.023-0.007h0.12v0.038c-0.208 0.017-0.323 0.080-0.348 0.188 0 0.050 0.033 0.070 0.085 0.065 0.155-0.098 0.232-0.155 0.23-0.172q0.442-0.085 2.452-1.282v0.073c0 0.035-0.112 0.133-0.343 0.3zM3.43 19.6c0.197-0.016 0.371-0.102 0.5-0.232l0-0c0.055 0 0.085 0.017 0.087 0.065-0.211 0.057-0.395 0.144-0.56 0.258l0.006-0.004 0.006-0.004h-0.040v-0.078zM6.75 17.057l-1.027 0.815c-0.353 0.254-0.758 0.503-1.18 0.723l-0.056 0.027q-1.825 1-2.268 1.043h-0.045q0.055-0.205 1.625-3.328c0.816-0.134 1.548-0.358 2.233-0.668l-0.056 0.023 0.25-0.020c0.074-0.014 0.16-0.022 0.246-0.022 0.333 0 0.64 0.117 0.88 0.31h-0.002l0.015 0.152c-0.185 0.532-0.4 0.845-0.6 0.938zM4.75 15.927l0.165-0.015v0.037l-0.165 0.015v-0.037zM7.072 15.534h0.12c0.112 0.053 0.17 0.1 0.175 0.143v0.037h-0.005c-0.123-0-0.232-0.066-0.291-0.164l-0.001-0.002v0.009zM7.4 13.664c-0.264 0.243-0.56 0.46-0.877 0.64l-0.024 0.012c-0.157 0.015-0.75 0.25-1.768 0.7-0.034-0.013-0.072-0.021-0.113-0.021h-0c-0.016 0-0.030 0.001-0.046 0.003h0.002v-0.072c0.006-0.2 0.080-0.403 0.2-0.557l-0.002 0.002c0.080-0.42 0.165-0.66 0.25-0.717l0.85-1.912q-0.015-0.178 0.545-0.273h0.12v0.1l0.683-0.095c0.675-0.057 1.028 0.080 1.055 0.408h0.078l-0.018-0.193h0.085c0.162 0.060 0.284 0.194 0.33 0.36l0.001 0.004c-0.008 0.155-0.073 0.294-0.173 0.398l0-0c-0.053 0-0.082-0.033-0.085-0.107h-0.085l-0.018 0.232q-0.513 0.768-0.75 0.8c-0.14 0.193-0.225 0.3-0.25 0.3zM7.923 15.004c-0.046-0.037-0.104-0.060-0.167-0.065h-0.001v-0.115h0.077l0.17 0.1c0.002 0.005 0.002 0.010 0.002 0.018 0 0.037-0.030 0.068-0.067 0.068h-0.005zM8.463 15.644c0.075 0.030 0.12 0.063 0.127 0.092h-0.060l-0.055 0.045-0.015-0.155zM8.5 15.964v-0.030l0.098-0.023v0.030l-0.098 0.023zM8.735 16.239l0.335-0.065v0.030l-0.355 0.082 0.001-0.024-0.001-0.025zM9.080 16.387c-0.131 0.003-0.257 0.022-0.377 0.055l0.011-0.003 0.010-0.002v-0.030l0.297-0.095 0.143-0.032 0.015 0.055c-0.065 0.015-0.018 0.015-0.092 0.052zM9.395 16.312c-0.005 0.001-0.010 0.002-0.017 0.002-0.030 0-0.056-0.020-0.063-0.050l0.1-0.020c0.006-0.002 0.013-0.004 0.020-0.004 0.030 0 0.053 0.023 0.055 0.050l-0.085 0.020zM10.25 15.382v-0.030l0.148-0.035 0.015 0.055h-0.155zM11.15 20.966c0.003-0.014 0.005-0.030 0.005-0.046-0-0.017-0.002-0.034-0.005-0.050l0 0.002v0.002h0.033c0.006-0.003 0.013-0.004 0.020-0.004 0.027 0 0.050 0.020 0.052 0.046v0.030l-0.12 0.027zM11.787 15.622h-0.065c-0.070 0.031-0.154 0.060-0.241 0.082l-0.011 0.002-0.013 0.003-0.060 0.015c-0.006 0.002-0.012 0.003-0.020 0.003-0.028 0-0.052-0.020-0.058-0.045l0.42-0.107 0.14-0.065 0.047 0.053c-0.055 0.008-0.105 0.030-0.146 0.060zM12.115 15.516v-0.030c0.032-0.010 0.060-0.030 0.080-0.052l0.295-0.068v0.030c-0.148 0.033-0.275 0.074-0.398 0.126l0.015-0.006zM12.162 14.904c-0.033 0.012-0.061 0.030-0.085 0.053l0-0c0-0.020-0.047-0.020-0.125 0-0.015-0.057 0.2-0.14 0.672-0.25l0.065-0.015 0.015 0.055-0.543 0.155zM12.978 14.024c-0.033 0.37-0.162 0.58-0.393 0.633v-0.030l-0.205 0.080-0.1 0.020c-0.020 0.006-0.040 0.010-0.063 0.010-0.001 0-0.001 0-0.002 0-0.022 0-0.044-0.003-0.064-0.009l0.002 0h0.002l-0.018-0.082c0.298-0.467 0.59-0.867 0.907-1.248l-0.017 0.020h0.070l0.001 0.055c0 0 0 0 0 0 0 0.2-0.046 0.389-0.127 0.557l0.003-0.008 0.003-0.008zM14.43 12.8h-0.030v-0.057h0.12v0.030c-0.035 0.010-0.066 0.023-0.094 0.040l0.002-0.001 0.002-0.001zM13.835 18.765c-0.050-0.027-0.1-0.043-0.173-0.043h-0.014v-0.087q0-0.045 0.055-0.063c0.040 0 0.063 0.023 0.068 0.085 0.049-0.073 0.104-0.136 0.166-0.191l0.001-0.001 0.001-0.001 0.063 0.035c-0.023 0.177-0.078 0.27-0.16 0.277zM20.203 12.105c-0.030 0-0.087-0.1-0.18-0.28v-0.057c0.058 0 0.12 0.085 0.18 0.273v0.065zM20.117 11.44l-0.027 0.060-0.863-0.36c0.575 0.018 0.872 0.12 0.9 0.3zM16.465 14.575h-0.12v-0.057h0.12v0.057zM16.365 12.69h0.032v0.088q-0.045 0-0.113 0.125v-0.057c0.040-0.040 0.070-0.094 0.077-0.154zM16.115 13.295v0.115h-0.032v-0.115zM15.977 13.512h0.060q0 0.148-0.078 0.152h-0.035c0.028-0.043 0.047-0.095 0.050-0.151l0-0.001v-0.001zM15.88 13.81h0.027v0.030l-0.053 0.092h-0.060v-0.030c0.063 0 0.1-0.037 0.085-0.095zM15.783 14.080l-0.020 0.15h-0.027v-0.148h0.060zM14.783 16.905q-0.060 0.293-0.125 0.3v-0.038c0-0 0-0.001 0-0.001 0-0.105 0.049-0.199 0.126-0.26l0.001-0.001zM14.6 17.3v0.025c0.001 0.005 0.002 0.010 0.002 0.015 0 0.030-0.024 0.052-0.053 0.052h-0.005v-0.030q0-0.045 0.055-0.063zM14.547 18.12h0.092v0.030c-0.034 0.007-0.065 0.019-0.092 0.037l0.001-0.001 0.001-0.001h-0.060q0-0.050 0.055-0.063zM17.163 17.313c-0.357 0.16-0.662 0.336-0.947 0.538l0.017-0.012 0.017-0.010c-0.56 0.195-0.835 0.317-0.832 0.365-0.408 0.15-0.745 0.303-1.071 0.476l0.047-0.023 0.050-0.023c-0.060-0.003-0.114-0.020-0.162-0.046l0.002 0.001c-0.001-0.008-0.002-0.018-0.002-0.027 0 0 0 0 0-0 0-0.096 0.054-0.179 0.134-0.221l0.001-0.001 0.001-0.001 0.050-0.002c0.072 0 0.14 0.015 0.204 0.040l-0.003-0.001c0.136-0.060 0.297-0.114 0.464-0.152l0.018-0.003v-0.058l-0.188 0.017c0.154-0.097 0.33-0.182 0.517-0.245l0.018-0.005h0.092v0.025c-0.158 0.015-0.25 0.060-0.265 0.145v0.002c0 0.030 0.024 0.052 0.053 0.052 0.004 0 0.010-0.001 0.013-0.002 0.117-0.078 0.172-0.12 0.172-0.135q0.335-0.060 1.86-0.975v0.058c0 0.023-0.085 0.098-0.25 0.225zM15.603 17.813c0.154-0.006 0.293-0.067 0.398-0.163 0.040 0 0.062 0.015 0.064 0.052-0.16 0.042-0.3 0.104-0.427 0.185l0.006-0.004 0.006-0.004h-0.033v-0.055zM18.123 15.877l-0.775 0.625c-0.259 0.189-0.553 0.373-0.861 0.536l-0.040 0.019-0.042 0.020q-1.383 0.75-1.723 0.8h-0.033q0.043-0.157 1.238-2.525c0.636-0.108 1.205-0.288 1.737-0.534l-0.042 0.017-0.043 0.017 0.188-0.018c0.055-0.010 0.118-0.016 0.183-0.016 0 0 0 0 0 0h-0c0.254 0 0.487 0.1 0.668 0.24l-0.002-0.001v0.115c-0.142 0.4-0.295 0.635-0.462 0.707zM16.601 15.033h0.12v0.030h-0.12v-0.030zM18.364 14.733h0.093c0.085 0.043 0.13 0.080 0.133 0.1v0.025h-0.010c-0.092-0-0.173-0.050-0.216-0.125l-0.001-0.001-0.001-0.001zM18.614 13.316c-0.195 0.186-0.413 0.352-0.648 0.49l-0.017 0.010c-0.524 0.157-0.97 0.334-1.395 0.543l0.052-0.023c-0.030-0.010-0.067-0.018-0.104-0.018l-0.020 0.001 0.001-0.057c0.004-0.16 0.060-0.306 0.15-0.424v0.002c0.060-0.322 0.128-0.5 0.198-0.543l0.65-1.453c0-0.085 0.13-0.155 0.4-0.2h0.093v0.088q0.413-0.068 0.517-0.078c0.5-0.045 0.78 0.057 0.802 0.3h0.060v-0.14h0.060c0.128 0.047 0.223 0.157 0.25 0.291l0 0.002v0.002c-0.004 0.118-0.050 0.224-0.123 0.305l0-0c-0.040 0-0.063-0.023-0.067-0.085h-0.060l-0.017 0.175c-0.25 0.393-0.448 0.598-0.565 0.605-0.105 0.143-0.17 0.215-0.2 0.217zM18.886 14.286v-0.088h0.060l0.13 0.080v0.008c0 0.030-0.025 0.055-0.055 0.055h-0.001c-0.035-0.027-0.078-0.045-0.125-0.050l-0.001-0h-0.001zM8.037 19.94l-0.060 0.015-0.053 0.045c0.003 0.026 0.025 0.047 0.052 0.047 0.007 0 0.014-0.002 0.020-0.004 0.040 0 0.055-0.032 0.047-0.070v-0.030zM7.807 19.48v0.030c0.040 0 0.055-0.032 0.048-0.070v-0.030c-0.028 0.003-0.050 0.026-0.050 0.055 0 0.005 0.001 0.010 0.002 0.016zM9.457 16.383l0.045-0.027h-0.022c-0.012 0.003-0.020 0.014-0.020 0.027 0 0.002 0 0.004 0.001 0.006zM9.457 15.58l0.070-0.018-0.027-0.062-0.070 0.018 0.015 0.060zM25.92 17.933l-0.157-0.017-0.027 0.060v0.024l0.942-0.080v-0.058l-0.75 0.065zM30.74 17.343v0.058l0.102 0.017v-0.058l-0.102-0.017zM30.595 17.343c-0.279 0.082-0.601 0.133-0.934 0.142l-0.005 0h-0.006v0.058h0.1l0.078-0.030c0.7-0.078 0.782-0.050 0.775-0.128v-0.027zM26.345 16.313l-0.063-0.020c-0.033 0.072-0.060 0.156-0.074 0.244l-0.001 0.006v0.025c0.050 0 0.093-0.085 0.135-0.25zM25.492 15.853v-0.030h-0.032l-0.058 0.037 0.032 0.055c0.045 0 0.065-0.025 0.060-0.065zM27.345 17.768v-0.058h-0.017v0.058zM31.188 16.901h0.045c0.025 0 0.038-0.023 0.035-0.060l-0.025-0.055h-0.004c-0 0-0.001 0-0.001 0-0.133 0-0.259 0.035-0.367 0.096l0.004-0.002 0.004-0.002v-0.030l-0.192 0.017c0-0.058-0.020-0.087-0.047-0.085h-0.1c-0.117 0-0.172 0-0.23 0.050 0-0.020 0-0.030-0.020-0.030h-0.113l-0.065 0.038c0-0.020 0-0.030-0.020-0.030l-0.040 0.035v-0.030h-0.192v0.058l0.080 0.020h0.075c0.020 0.012 0.043 0.020 0.068 0.020 0.006 0 0.012 0 0.017-0.001h-0.001l0.065-0.032v0.025c-0.17 0.047-0.378 0.088-0.59 0.115l-0.024 0.002c-0.017-0.014-0.038-0.023-0.062-0.025s-0.048-0.023-0.048-0.050v-0.003l0.13-0.017c0.022 0.008 0.050 0.016 0.078 0.021l0.004 0.001 0.005 0.001c0.105-0.052 0.1-0.073 0.165-0.078v-0.070c-0.199 0.039-0.428 0.061-0.663 0.063h-0.021v-0.058c0.578-0.070 0.385-0.030 0.582-0.085 0 0.020 0 0.030 0.020 0.030 0.020-0.020 0.048-0.036 0.080-0.040h0.040l0.095 0.002c0.195 0 0.383-0.026 0.562-0.076l-0.015 0.003v0.025l0.065-0.032h0.060c0-0.058 0.085-0.067 0.115-0.070v-0.063c-0.703 0.142-0.887 0.102-1.082 0.157v-0.025c-0.057 0.014-0.122 0.022-0.19 0.022-0.001 0-0.002 0-0.002 0h0c-0.020 0-0.040-0.001-0.060-0.002h0.003c-0.023 0.007-0.043 0.020-0.057 0.037 0-0.020 0-0.030-0.023-0.030l-0.598 0.098c0-0.017 0-0.025-0.023-0.023-0.187 0.057-0.405 0.098-0.63 0.114l-0.010 0.001c-0.030 0.005-0.056 0.017-0.078 0.033 0.001-0.017 0.001-0.025-0.030-0.023l-0.25 0.020-0.17 0.043c0-0.017 0-0.025-0.032-0.023-0.072 0.022-0.157 0.040-0.244 0.047h-0.006c-0.043 0 0.020 0 0-0.025l-0.052 0.030h-0.3l-0.45 0.065h-0.168c0 0.002 0.001 0.003 0.001 0.005 0 0.012-0.010 0.023-0.023 0.023h-0.003c-0.2-0.025-0.3-0.055-0.3-0.1q0.038-0.273 0.133-0.28h0.032l-0.027 0.060h0.032c0.060-0.032 0.087-0.063 0.085-0.1v-0.023h-0.060v-0.058l-0.002-0.030c0-0.032 0.007-0.063 0.020-0.1l-0.001 0.001 0.137-0.223v0.058h0.065v-0.058l-0.038-0.052c0.030-0.032 0.070-0.056 0.116-0.067h0.002v-0.030h-0.087v-0.088c0.105-0.185 0.19-0.4 0.246-0.625l0.004-0.017 0.063 0.025c0.040 0 0.058-0.025 0.055-0.068h-0.060v-0.025c-0.001-0.007-0.001-0.015-0.001-0.023 0-0.036 0.010-0.070 0.024-0.1h0.016c0.080-0.072 0.13-0.175 0.13-0.291 0-0 0-0 0-0v0-0.014c0.017 0 0.027 0 0.030 0.027 0.082-0.047 0.145-0.17 0.2-0.375 0.213-0.428 0.422-0.946 0.594-1.48l0.023-0.083c0.512-1.38 0.5-1.525 0.563-1.852h-0.060c0.001 0.006 0.001 0.012 0.001 0.019 0 0.001-0 0.003-0 0.004v-0c0 0.035-0.010 0.070-0.024 0.098l0.001-0.001c-0.030-0.013-0.062-0.022-0.097-0.023v-0.025c0.003-0.163 0.061-0.312 0.155-0.43l-0.001 0.001 0.026 0.001 0.052 0.2h0.060c0.012-0.1 0.029-0.189 0.053-0.276l-0.003 0.013-0.003 0.013c0-0.030-0.025-0.050-0.073-0.053l-0.058 0.037v-0.325h-0.030c-0.040-0.032-0.068-0.076-0.080-0.126v-0.002l-0.332 0.033c-0.007-0.040-0.020-0.073-0.038-0.104l0.001 0.001c0-0.030 0.073-0.060 0.225-0.1l0.067 0.025 0.063-0.037c0 0.020 0.015 0.030 0.038 0.027l0.063-0.037c0 0.020 0.015 0.030 0.038 0.027h0.030v-0.068h-0.365l-0.063 0.043v-0.027q-2.345 0.193-2.663 0.223h-0.33c0 0.025-0.020 0.040-0.067 0.045l-0.067-0.030-0.265 0.045c-0.040 0.004-0.087 0.006-0.135 0.006s-0.095-0.002-0.14-0.006h0.006c-0.035 0.028-0.080 0.046-0.127 0.050h-0.001l0.663-0.050c-0.046 0.031-0.101 0.051-0.161 0.053l-0.001 0-0.030 0.002c-0.037 0-0.072-0.010-0.103-0.025l0.001 0.001c-0.137 0.044-0.305 0.085-0.478 0.114l-0.022 0.003-0.067-0.025-1.1 0.168c-0.033-0.016-0.071-0.025-0.111-0.025-0.001 0-0.001 0-0.002 0h0c-0.012 0-0.024 0.001-0.036 0.002-0.11 0.015-0.207 0.037-0.302 0.066l0.013-0.003-0.527 0.22 0.040 0.065c0.040-0.007 0.077-0.022 0.11-0.043v0.002l0.188 0.018-0.023 0.175c-0.149 0.054-0.26 0.177-0.298 0.329l-0.001 0.003-0.001 0.003c-0.25 0.115-0.387 0.195-0.387 0.25v0.030h0.040l0.070-0.037 0.082 0.098v0.135q0 0.063-1.302 2.75l-1.19 2.828c-0.25 0.073-0.407 0.177-0.453 0.317 0 0.045 0.082 0.075 0.23 0.085v0.067l-0.067 0.113v0.135q0 0.105 0.565 0.16c0-0.023 0-0.038 0.035-0.040-0.003 0.18-0.028 0.35-0.073 0.514l0.003-0.014h0.085c0.11-0.116 0.187-0.263 0.22-0.427l0.001-0.005h0.030c0.038 0 0.078 0.040 0.122 0.13q-0.070 0.027-0.5 1.113l0.040 0.065h0.040q0.512-1.3 0.645-1.438 0.675-0.060 2.332-0.25l0.070-0.043v0.002c0 0.018 0.015 0.032 0.032 0.032 0.004 0 0.007-0.001 0.010-0.002h0.073l0.070-0.043v0.002c0 0.018 0.015 0.032 0.032 0.032 0.004 0 0.007-0.001 0.010-0.002l0.837-0.073c0.223-0.017 0.325-0.085 0.317-0.2 0-0.030 0.128-0.065 0.392-0.102h0.004c0.040 0 0.078 0.007 0.114 0.020l-0.002-0.001c0-0.020 0.13-0.043 0.395-0.065 0-0.14 0.050-0.215 0.13-0.223v-0.067c-0.093 0.010-0.178 0.030-0.258 0.060l0.008-0.003c-0.122-0.002-0.241-0.017-0.354-0.044l0.011 0.002 0.010 0.002c-0.030 0.020-0.066 0.035-0.104 0.042l-0.002 0h-0.002l-0.598-0.017-0.070 0.038q0-0.032-0.043-0.027h-0.032l-0.075 0.038c0-0.020-0.063-0.038-0.185-0.052l-0.075 0.045h-0.145v-0.038q1.125-0.122 1.1-0.305c0.005-0.001 0.010-0.002 0.015-0.002 0.036 0 0.065 0.030 0.065 0.065v0.005l0.22-0.055v-0.046l-1.795 0.050c0 0.023 0 0.038-0.035 0.040l-0.22-0.017c-0.053 0.003-0.1 0.020-0.14 0.050l0.001-0.001-0.087-0.015c-0.183 0.012-0.354 0.040-0.518 0.087l0.018-0.004-0.25-0.010-0.26 0.010 0.010-0.001-0.402 0.035-0.188-0.020c0-0.12 0.223-0.703 0.698-1.75 0.075-0.259 0.208-0.481 0.385-0.66l-0 0c0.042 0.001 0.080 0.010 0.117 0.028l-0.002-0.001 0.258-0.098 0.148 0.023c0.328-0.037 0.627-0.115 0.907-0.229l-0.023 0.008-0.023 0.008c0.016-0.003 0.034-0.004 0.052-0.004 0.002 0 0.003 0 0.005 0h-0c0.047 0 0.090 0.008 0.133 0.022l-0.003-0.001 0.22-0.053 0.652-0.055c0.346-0.033 0.664-0.101 0.966-0.203l-0.030 0.009-0.030 0.010v-0.068c-0.12 0-0.185 0-0.188-0.057 0-0.1-0.095-0.127-0.265-0.115v-0.068l0.18-0.053 0.47-0.040v-0.068h-0.3v-0.072l0.183-0.018c0.050 0 0.070-0.027 0.065-0.075-0.25 0-0.367 0-0.37-0.037q-2.558 0.125-2.565 0.047c-0.040 0.010-0.077 0.026-0.108 0.048l0.001-0.001-0.073-0.078q0.677-1.44 0.795-1.45c-0.005 0.067-0.025 0.128-0.056 0.182l0.001-0.002v0.020h0.073c0.18-0.428 0.33-0.65 0.457-0.66 0.535-0.047-0.075-0.082 1.073-0.25 0.030 0.017 0.065 0.027 0.102 0.027q0.675-0.137 1.88-0.285v-0.068l-0.427 0.040v-0.068c0.050-0.004 0.093-0.022 0.128-0.050v0.037c0.037-0.010 0.070-0.026 0.098-0.048 0.015-0.003 0.033-0.004 0.050-0.004 0.043 0 0.084 0.010 0.122 0.025h0.014c0.098-0.030 0.216-0.054 0.337-0.070l0.011-0.001 0.012-0.001 0.267-0.025c0.065-0.043 0.095-0.080 0.093-0.115v-0.030c-0.020 0.002-0.042 0.002-0.064 0.002-0.060 0-0.12-0.006-0.176-0.018l0.006 0.001v-0.008c0-0.035 0.026-0.063 0.060-0.067l0.5-0.047 0.227-0.057c0 0.025 0.015 0.035 0.032 0.035 0.037-0.010 0.070-0.026 0.098-0.048h0.038c-0.035 0.072-0.068 0.158-0.094 0.247l-0.003 0.012-0.003 0.013h-0.065c-0.004-0.045-0.017-0.085-0.038-0.12v-0.010h-0.045l-1.433 3.758c-0.102 0.33-0.188 0.515-0.262 0.555v0.002c0 0.030 0.023 0.053 0.052 0.053 0.004 0 0.010-0.001 0.013-0.002 0.001 0.015 0.002 0.033 0.002 0.051 0 0.004-0 0.008-0 0.012v-0.001c0 0.155-0.044 0.3-0.12 0.424l0.002-0.004c-0.25 0.75-0.43 1.153-0.52 1.228l0.058 0.352v0.008c0 0.030-0.025 0.055-0.055 0.055h-0.060c0-0.098-0.045-0.145-0.108-0.137h-0.032c-0.080 0.123-0.142 0.267-0.178 0.42l-0.002 0.010h0.060c0.067-0.034 0.113-0.102 0.113-0.18v-0.006h0.12l0.070 0.025c-0.045 0.058-0.074 0.131-0.077 0.211l-0 0.001 0.032 0.056-0.080 0.188v0.030h0.015c0.001 0 0.001 0 0.002 0 0.079 0 0.152 0.025 0.212 0.067l-0.001-0.001-0.001-0.001c0.070-0.012 0.13-0.040 0.18-0.080l-0.001 0.001h0.78l0.225-0.078 0.115 0.001 0.442-0.020h0.098l0.052-0.035v0.030c0.052-0.006 0.112-0.010 0.173-0.010 0.102 0 0.2 0.010 0.297 0.030l-0.010-0.002v0.030h-0.137v0.058c0.042-0.003 0.080-0.018 0.1-0.043 0.035 0 0.055 0.017 0.058 0.058-0.070 0.008-0.133 0.022-0.193 0.044l0.006-0.002-0.060-0.020c-0.095 0.025-0.075 0.032-0.14 0.038l-0.095-0.017c0 0.002 0.001 0.003 0.001 0.005 0 0.012-0.010 0.023-0.023 0.023h-0.001v0.003c0 0.028 0.022 0.050 0.050 0.050 0.003 0 0.005 0 0.008-0.001h0.098l0.5-0.045 0.192-0.043c0 0.017 0 0.025 0.025 0.023l0.093-0.035 0.175-0.015c0.135 0 0.133-0.020 0.427-0.067 0-0.017 0-0.025 0.017-0.027v0.025c0.234-0.028 0.443-0.070 0.645-0.126l-0.030 0.007-0.030 0.007v0.015c0.12-0.027 0.052-0.020 0.085-0.045 0 0.020 0 0.030 0.020 0.030h0.085v-0.063h-0.2c-0.048 0.010-0.103 0.015-0.16 0.015-0.002 0-0.003 0-0.005-0h-0.025l-0.427 0.023v-0.030l0.25-0.032h0.085l0.050-0.035v0.027c0.335-0.027 0.455 0.055 2-0.275 0.085 0 0.078-0.078 0.13-0.223-0.004 0-0.008 0.001-0.012 0.001-0.026 0-0.050-0.007-0.070-0.018h0.001c-0.128 0.033-0.277 0.056-0.43 0.065l-0.006 0h-0.006c-0.020 0-0.038-0.017-0.045-0.052v-0.025h0.25c0.094-0.010 0.178-0.040 0.253-0.086l-0.003 0.001c0 0.020-0.050 0.032-0.020 0.030zM19.718 17.086h-0.1c0.040-0.19 0.1-0.356 0.18-0.512l-0.005 0.012h0.073c-0.025 0.186-0.073 0.355-0.142 0.512l0.005-0.012zM19.85 16.556v-0.030c0-0.038 0.020-0.063 0.073-0.075v0.050c0 0.045-0.020 0.070-0.073 0.075zM21.305 17.681v0.030l-0.183 0.017v-0.030l0.183-0.017zM21.085 17.664c0 0.038-0.052 0.080-0.175 0.12l-0.223-0.017h-0.073v-0.067l0.477-0.045zM22.558 10.886h-0.1v-0.037c0-0.037 0.017-0.063 0.065-0.075h0.040l0.075 0.030c0 0.003 0.001 0.007 0.001 0.010 0 0.036-0.030 0.065-0.065 0.065h-0.003zM24.223 10.561h0.027v0.068h-0.1v-0.008c0-0.035 0.026-0.063 0.060-0.067zM23.803 10.708l-0.165-0.018v-0.030c0.154-0.010 0.298-0.040 0.435-0.084l-0.013 0.004c0 0.025 0.025 0.035 0.067 0.030v0.068h-0.065l-0.030 0.002c-0.037 0-0.072-0.010-0.103-0.025-0.035 0.026-0.078 0.043-0.125 0.048h-0.001zM24.001 11.323v-0.030l0.267-0.025v0.030l-0.267 0.025zM24.289 11.091v-0.040h0.13v0.037h-0.13zM24.319 10.634h-0.035l0.030-0.072 0.297-0.027v0.037c-0.11 0.013-0.21 0.034-0.308 0.063l0.013-0.003zM24.472 11.276v-0.068h0.13q0.067 0 0.070 0.063l-0.195 0.018zM25.272 10.201l-0.168 0.047h-0.030c-0.051 0.005-0.109 0.008-0.169 0.008-0 0-0.001 0-0.002 0h0c-0.050 0-0.1-0.002-0.15-0.006h0.006l0.5-0.043zM25.092 10.951v0.030l-0.23 0.020v-0.030l0.23-0.020zM25.469 11.131c0-0.027-0.047-0.047-0.137-0.055l-0.23 0.065h-0.177c-0.040-0.027-0.060-0.047-0.063-0.060h0.205l0.46-0.075h0.235v0.037c-0.112 0.010-0.215 0.032-0.313 0.066l0.009-0.003 0.010-0.003zM27.842 10.501h0.052c0.076-0.076 0.166-0.138 0.266-0.183l0.006-0.002 0.006-0.002c-0.055 0.318-0.194 0.596-0.394 0.82l0.001-0.002-0.13-0.080c0.065-0.144 0.128-0.318 0.179-0.498l0.006-0.027 0.007-0.030zM27.442 11.189h0.032c-0.045 0.085-0.085 0.127-0.117 0.13v-0.088c0.035-0.006 0.065-0.020 0.1-0.040zM27.192 11.806c0.022-0.165 0.086-0.31 0.18-0.432v0.031c-0.032 0.232-0.085 0.357-0.152 0.365v0.148c-0.044 0.050-0.073 0.114-0.080 0.185l-0 0.001v0.001h-0.032l-0.017-0.203c0.038 0 0.067-0.037 0.087-0.098zM27.092 12.141c-0.010 0.093-0.034 0.177-0.070 0.255l0.002-0.005h-0.032v-0.088c0.045-0.102 0.082-0.155 0.108-0.155zM25.212 17.596v-0.025h0.060v0.087c-0.032 0-0.055-0.017-0.065-0.058zM27.897 17.666c0-0.020 0-0.030-0.032-0.027l-0.152 0.015v-0.030h0.015l0.358-0.030v0.030c-0.007-0.001-0.015-0.001-0.024-0.001-0 0-0.001 0-0.001 0-0.061 0-0.118 0.017-0.165 0.048l0.001-0.001 0.001-0.001zM27.717 17.591c0.015 0 0 0.015 0 0.017s-0.017 0 0-0.017zM27.735 17.171l-0.2 0.017v-0.030l0.183-0.017 0.157-0.040c0 0.017 0 0.025 0.032 0.023 0.188-0.032 0.17-0.043 0.25-0.050 0.030 0 0.050 0.017 0.052 0.052l-0.483 0.043zM28.435 17.111c-0.048-0.010-0.102-0.016-0.16-0.016l-0.040 0.001h0.002v-0.025l0.18-0.017v0.025c-0.017 0 0.050 0 0.017 0.030zM28.451 17.079v-0.025h0.098v0.025h-0.098zM28.668 17.061v-0.025c0.027-0.007 0.051-0.020 0.070-0.038l-0 0c0.003 0 0.007-0.001 0.010-0.001 0 0 0 0 0 0 0.037 0 0.068 0.029 0.070 0.066v0zM28.946 17.026v-0.026h0.12v0.030h-0.12zM29.111 17.011c0-0.035 0-0.055 0.043-0.060l0.040 0.052c0-0.002-0.001-0.003-0.001-0.005 0-0.010 0.008-0.020 0.018-0.022l0.030 0.055-0.13-0.017zM31.438 16.721c0.017 0 0.027-0.023-0.017-0.030s0.023 0.030-0.023 0.032v0.027l0.025-0.017-0.025 0.020-0.050 0.063 0.098-0.035v-0.058zM31.608 16.853h-0.017v0.058h0.137c0-0.038-0.093-0.050-0.122-0.050z"></path>
</svg>
