<!-- Generated by IcoMoon.io -->
<svg version="1.1" xmlns="http://www.w3.org/2000/svg" width="32" height="32" viewBox="0 0 32 32">
<title>babel</title>
<path d="M22.657 12.568v0.038h0.079c0.001-0.040 0.009-0.078 0.024-0.113l-0.001 0.002-0.001 0.002v-0.069c-0.033 0-0.066 0.054-0.097 0.147zM21.909 10.767v-0.069h-0.102v0.069h0.102zM19.738 14.835c-0.172-0.29-0.369-0.54-0.596-0.761l-0.002-0.002c0-0.081 0.127-0.2 0.405-0.361l0.778-0.676c0.203-0.305 0.325-0.683 0.325-1.088v-0.132c-0.030-0.351-0.285-0.634-0.763-0.849q-0.427-0.288-1.526-0.318c-0.912 0.121-1.739 0.359-2.509 0.701l0.058-0.023 0.058-0.022c-0.26 0.188-0.561 0.38-0.875 0.556l-0.049 0.025v0.058c0.035-0.007 0.066-0.020 0.092-0.041 0.003-0.001 0.007-0.002 0.012-0.002 0.030 0 0.054 0.024 0.054 0.054v0.002l0.037-0.024h0.027v0.025c-0.187 0.191-0.397 0.36-0.627 0.5l-0.014 0.008 0.034 0.061h-0.027l-0.071-0.025c0 0.020-0.027 0.036-0.086 0.041v0.025l0.069 0.086c-0.037-0.001-0.071-0.010-0.102-0.023l0.002 0.001c-0.119 0.017-0.221 0.075-0.305 0.16v0.001l0.041-0.175c0.115-0.451 0.219-1.012 0.288-1.584l0.007-0.069-0.008-0.048c-0.106-0.071-0.197-0.155-0.274-0.25l-0.002-0.002-0.002-0.002v-0.151h-0.027q-0.471 0.705-1.807 2.402-1.017 1.208-1.053 1.342c-0.278 0.288-0.409 0.461-0.407 0.509-0.073 0.048-0.104 0.094-0.102 0.147-0.003 0.001-0.007 0.002-0.010 0.002-0.015 0-0.027-0.010-0.030-0.024-0.117 0.188-0.305 0.322-0.524 0.368l-0.005 0.001-0.254 0.056c-0.028 0.004-0.051 0.028-0.051 0.058 0 0.005 0.001 0.010 0.002 0.014v0.030l0.102-0.020v0.025l-0.209 0.081-0.369 0.086h-0.203c-0.027 0.027 0.155 0 0.083 0.015l-0.254 0.056c-0.147 0.034-0.227 0.020-0.254-0.038h0.006c0.002 0.010 0.003 0.020 0.003 0.030s-0.001 0.020-0.004 0.030l-0.015-0.059-0.203 0.046q0.018-0.104-0.744-0.941c0-0.109 0.171-0.266 0.539-0.473l1.037-0.912q0.348-0.447 0.415-1.436l-0.015-0.155c-0.041-0.465-0.376-0.839-1.017-1.119-0.373-0.254-1.048-0.39-2.019-0.409-1.173 0.157-2.235 0.458-3.229 0.885l0.079-0.030c-0.328 0.24-0.705 0.482-1.097 0.702l-0.058 0.030-0.061 0.030v0.081c0.046-0.008 0.087-0.025 0.122-0.049l-0.001 0.001c0.005-0.001 0.012-0.002 0.018-0.002h0c0.038 0 0.068 0.030 0.068 0.068l0.081-0.046h0.051v0.048c-0.245 0.24-0.516 0.454-0.809 0.637l-0.020 0.012-0.020 0.012 0.046 0.071h-0.036l-0.086-0.030c0 0.023-0.039 0.041-0.122 0.048v0.044l0.094 0.104c-0.046 0-0.089-0.010-0.129-0.026l0.002 0.001c-0.234 0.051-0.427 0.197-0.537 0.397l-0.002 0.004 0.046 0.071c0.076-0.083 0.163-0.154 0.259-0.211l0.005-0.003 0.005-0.003v0.117c-0.047 0.010-0.088 0.027-0.126 0.050l0.002-0.001 0.002-0.001 0.097 0.147c0.181-0.191 0.383-0.359 0.605-0.5l0.013-0.008c0.102 0.027 0.17 0.064 0.173 0.102h0.086c0.521-0.401 1.122-0.732 1.77-0.966l0.046-0.014v0.081q-0.168 0.254-0.227 0.254c0.003 0.058 0.024 0.11 0.059 0.151q0.015 0.153-0.817 2.059-1.861 4.396-3.153 6.517c0.008 0.044 0.026 0.083 0.051 0.116l-0-0.001v-0.001c0.151-0.025 0.285-0.078 0.404-0.155l-0.004 0.002h0.046v0.081h0.1l0.081-0.046c0 0.023 0.027 0.036 0.084 0.030v0.081c-0.010 0.136-0.059 0.26-0.132 0.363l0.001-0.002c-0.116 0.168-0.206 0.364-0.261 0.575l-0.003 0.013v0.039h0.079c0.293-0.317 0.547-0.676 0.752-1.066l0.013-0.027 0.013-0.027c0.879-0.237 1.639-0.531 2.36-0.892l-0.071 0.033c0.458-0.013 0.877-0.168 1.217-0.423l-0.006 0.004-0.006 0.004v-0.044l-0.198 0.059h-0.046v-0.044c0.3-0.020 0.576-0.112 0.814-0.258l-0.008 0.004q1.134-0.875 1.714-1.239 1.19-0.875 1.546-1.704l0.132-0.030 0.096 0.003 0.1-0.003h-0.005c0-0.020 0-0.033 0.025-0.039 0.178-0.017 0.102 0 0.206-0.015l0.298-0.068h0.051l-0.023 0.015c0.017 0.003 0.035 0.005 0.055 0.005h0c0.020 0 0.039-0.002 0.057-0.005h-0.002l0.020 0.086-1.358 2.158-0.318 0.349-0.147 0.493h0.027l0.147-0.061-0.049 0.191 0.015 0.056 0.041 0.051c-0.018 0-0.025 0.017-0.020 0.039v0.030l0.061-0.015q0.135-0.117 0.115-0.203c0.041 0.010 0.092 0.017 0.14 0.017 0.018 0 0.038-0.001 0.055-0.003h-0.003v0.030c-0.058 0.015-0.089 0.061-0.094 0.142v0.030h0.034c0.493-0.539 1.7-2.377 2.67-3.628q-0.046-0.203 1.526-0.564h0.034q0.056 0.254-0.254 1.188c-0.073 0.171-0.134 0.372-0.174 0.581l-0.003 0.019-0.003 0.020c-0.092 0.231-0.173 0.505-0.229 0.788l-0.005 0.030-0.348 1.192c-0.216 0.532-0.402 1.162-0.528 1.813l-0.010 0.065-0.010 0.069c0.015-0.003 0.033-0.005 0.051-0.005s0.036 0.002 0.053 0.005h-0.002l0.054-0.046c0.003 0.014 0.015 0.024 0.030 0.024 0.004 0 0.007-0.001 0.010-0.002l-0.020-0.086h0.161c0.048 0 0.086-0.071 0.122-0.18 0-0.163 0.025-0.254 0.1-0.27 0.042-0.228 0.108-0.431 0.197-0.622l-0.007 0.016-0.007 0.016c0.044-0.254 0.118-0.481 0.219-0.693l-0.007 0.016-0.007 0.016c0.139-0.509 0.254-0.763 0.308-0.778l0.015 0.061-0.102 0.254c-0.153 0.728-0.339 1.353-0.57 1.957l0.030-0.088 0.054 0.227h0.034q0.661-1.422 1.902-5.629c0.025-0.234 0.158-0.431 0.346-0.547l0.003-0.002-0.048-0.051v-0.025c0.081-0.012 0.149-0.053 0.198-0.102 0-0.020-0.086-0.054-0.254-0.094l0.412-1.78c0.045-0.048 0.097-0.088 0.155-0.12h0.002v0.089c-0.035 0.007-0.066 0.020-0.092 0.041h0.001l0.079 0.102c0.134-0.143 0.283-0.269 0.444-0.378l0.009-0.006 0.010-0.006c0.086 0.023 0.127 0.054 0.132 0.081h0.061c0.397-0.303 0.854-0.553 1.346-0.729l0.036-0.010v0.058q-0.124 0.188-0.171 0.191c0.004 0.043 0.017 0.081 0.039 0.116l-0.001-0.001c-0.193 0.635-0.411 1.175-0.669 1.691l0.028-0.062 0.028-0.063c-0.803 1.973-1.607 3.606-2.51 5.177l0.11-0.207c0.008 0.034 0.023 0.061 0.044 0.086 0.115-0.019 0.217-0.061 0.306-0.121l-0.003 0.002-0.003 0.002h0.027v0.059h0.066l0.058-0.030q0 0.025 0.064 0.020v0.064c-0.010 0.102-0.046 0.193-0.102 0.271l0.001-0.001c-0.095 0.129-0.169 0.28-0.212 0.444l-0.002 0.009-0.002 0.010v0.030h0.061c0.223-0.241 0.416-0.514 0.57-0.81l0.010-0.021 0.010-0.020c0.684-0.185 1.277-0.416 1.837-0.701l-0.108 0.050c0.348-0.010 0.666-0.126 0.926-0.318l-0.004 0.003v-0.030l-0.155 0.046h-0.033v-0.030c0.23-0.017 0.441-0.089 0.622-0.203l-0.006 0.003-0.006 0.003 1.302-0.941c0.915-0.666 1.339-1.305 1.29-1.919zM19.58 14.876l0.020 0.239c-0.027 0.058-0.059 0.089-0.086 0.102l-0.036-0.407c0.066 0.023 0.1 0.048 0.102 0.076zM1.639 12.949h-0.041v-0.073l0.163-0.012v0.038c-0.046 0.009-0.087 0.026-0.122 0.050l0.001-0.001zM0.841 20.933c-0.066-0.035-0.145-0.054-0.228-0.054l-0.027 0.001h0.001v-0.117c0-0.046 0.020-0.076 0.079-0.086s0.084 0.033 0.086 0.11c0.069-0.095 0.142-0.178 0.224-0.254v0l0.086 0.036c-0.028 0.237-0.102 0.358-0.219 0.366zM9.371 12.008c-0.041 0-0.122-0.122-0.236-0.369v-0.073c0.076 0 0.155 0.117 0.236 0.369v0.073zM9.257 11.123l-0.034 0.079-1.159-0.483q1.159 0.038 1.192 0.405zM4.368 15.327l-0.163 0.015v-0.073l0.163-0.015v0.073zM4.236 12.804h0.041v0.117c-0.038 0-0.086 0.058-0.149 0.168v-0.081c0.073-0.086 0.102-0.155 0.107-0.2zM3.892 13.616l0.015 0.155h-0.041l-0.015-0.155zM3.711 13.906h0.079c0 0.127-0.043 0.196-0.107 0.2h-0.041c0.039-0.054 0.064-0.122 0.068-0.194l0-0.001zM3.577 14.308h0.046v0.038l-0.073 0.122h-0.079v-0.038h0.008c0.056 0 0.102-0.046 0.102-0.102v0c0-0.008-0.001-0.016-0.003-0.023zM3.445 14.672l-0.022 0.203h-0.041l-0.018-0.191h0.081zM2.123 18.447c-0.054 0.254-0.109 0.399-0.168 0.405v-0.065c0-0.139 0.067-0.262 0.17-0.34zM1.868 18.976v0.039c0.002 0.005 0.002 0.010 0.002 0.018 0 0.038-0.030 0.068-0.068 0.068h-0.005v-0.050q0-0.068 0.071-0.086zM1.8 20.068h0.122v0.044c-0.046 0.008-0.087 0.025-0.122 0.049l0.001-0.001h-0.080c0-0.041 0.020-0.071 0.071-0.086zM5.306 18.985c-0.468 0.203-0.868 0.437-1.239 0.707l0.018-0.013q-1.124 0.39-1.103 0.488c-0.529 0.197-0.963 0.392-1.383 0.61l0.068-0.033c-0.080-0.001-0.155-0.022-0.221-0.058l0.004 0.002c-0.001-0.007-0.001-0.016-0.001-0.024 0-0.132 0.071-0.244 0.18-0.305l0.002-0.001c0.017-0.002 0.039-0.002 0.059-0.002 0 0 0.001 0 0.002 0 0.1 0 0.196 0.021 0.282 0.060l-0.004-0.002-0.004-0.002c0.183-0.084 0.397-0.158 0.62-0.207l0.020-0.004v-0.081l-0.254 0.020c0.205-0.127 0.441-0.237 0.692-0.318l0.023-0.007h0.122v0.039c-0.212 0.017-0.329 0.081-0.354 0.191 0 0.051 0.034 0.071 0.086 0.066 0.158-0.1 0.236-0.158 0.234-0.175q0.45-0.086 2.494-1.304v0.074c0 0.036-0.114 0.135-0.349 0.305zM3.216 19.661c0.2-0.016 0.377-0.103 0.508-0.236l0-0c0.056 0 0.086 0.017 0.088 0.066-0.214 0.058-0.402 0.146-0.569 0.262l0.006-0.004 0.006-0.004h-0.041v-0.079zM6.592 17.075l-1.045 0.829c-0.359 0.258-0.771 0.512-1.2 0.735l-0.057 0.027q-1.856 1.017-2.307 1.061h-0.046q0.056-0.209 1.653-3.385c0.83-0.136 1.574-0.364 2.271-0.679l-0.057 0.023 0.254-0.020c0.075-0.014 0.163-0.022 0.25-0.022 0.339 0 0.651 0.119 0.895 0.315h-0.002l0.015 0.155c-0.188 0.541-0.407 0.859-0.61 0.954zM4.558 15.926l0.168-0.015v0.038l-0.168 0.015v-0.038zM6.92 15.526h0.122c0.114 0.054 0.173 0.102 0.178 0.145v0.038h-0.005c-0.126-0-0.236-0.067-0.296-0.167l-0.001-0.002v0.009zM7.253 13.624c-0.269 0.247-0.57 0.468-0.892 0.651l-0.024 0.012c-0.16 0.015-0.763 0.254-1.798 0.712-0.034-0.013-0.074-0.021-0.115-0.021h-0c-0.016 0-0.030 0.001-0.047 0.003h0.002v-0.073c0.006-0.203 0.081-0.41 0.203-0.566l-0.002 0.002c0.081-0.427 0.168-0.671 0.254-0.729l0.864-1.945q-0.015-0.181 0.554-0.278h0.122v0.102l0.695-0.097c0.686-0.058 1.045 0.081 1.073 0.415h0.079l-0.018-0.196h0.086c0.165 0.061 0.289 0.197 0.336 0.366l0.001 0.004c-0.009 0.158-0.074 0.299-0.176 0.405l0-0c-0.054 0-0.083-0.034-0.086-0.109h-0.086l-0.018 0.236q-0.522 0.781-0.763 0.814c-0.142 0.196-0.229 0.305-0.254 0.305zM7.785 14.987c-0.047-0.038-0.106-0.061-0.17-0.066h-0.001v-0.117h0.078l0.173 0.102c0.002 0.005 0.002 0.010 0.002 0.018 0 0.038-0.030 0.069-0.068 0.069h-0.005zM8.335 15.638c0.076 0.030 0.122 0.064 0.129 0.094h-0.061l-0.056 0.046-0.015-0.158zM8.372 15.963v-0.030l0.1-0.023v0.030l-0.1 0.023zM8.611 16.243l0.341-0.066v0.030l-0.361 0.083 0.001-0.024-0.001-0.025zM8.962 16.394c-0.134 0.003-0.261 0.022-0.383 0.055l0.011-0.003 0.010-0.002v-0.030l0.302-0.097 0.145-0.033 0.015 0.056c-0.066 0.015-0.018 0.015-0.094 0.053zM9.282 16.317c-0.005 0.001-0.010 0.002-0.017 0.002-0.030 0-0.057-0.020-0.064-0.051l0.102-0.020c0.006-0.002 0.013-0.004 0.020-0.004 0.030 0 0.054 0.023 0.056 0.051l-0.086 0.020zM10.152 15.371v-0.030l0.151-0.036 0.015 0.056h-0.158zM11.067 21.051c0.003-0.014 0.005-0.030 0.005-0.047-0-0.017-0.002-0.034-0.005-0.051l0 0.002v0.002h0.034c0.006-0.003 0.013-0.004 0.020-0.004 0.027 0 0.051 0.020 0.053 0.047v0.030l-0.122 0.027zM11.715 15.616h-0.066c-0.071 0.032-0.156 0.061-0.245 0.084l-0.012 0.003-0.013 0.003-0.061 0.015c-0.006 0.002-0.012 0.003-0.020 0.003-0.028 0-0.053-0.020-0.059-0.046l0.427-0.109 0.142-0.066 0.048 0.054c-0.056 0.008-0.107 0.030-0.149 0.061zM12.049 15.508v-0.030c0.033-0.010 0.061-0.030 0.081-0.053l0.3-0.069v0.030c-0.151 0.034-0.28 0.075-0.405 0.128l0.015-0.006zM12.097 14.885c-0.034 0.012-0.062 0.031-0.086 0.054l0-0c0-0.020-0.048-0.020-0.127 0-0.015-0.058 0.203-0.142 0.683-0.254l0.066-0.015 0.015 0.056-0.552 0.158zM12.927 13.99c-0.034 0.376-0.165 0.59-0.4 0.644v-0.030l-0.209 0.081-0.102 0.020c-0.020 0.006-0.041 0.010-0.064 0.010-0.001 0-0.001 0-0.002 0-0.023 0-0.044-0.003-0.065-0.010l0.002 0h0.002l-0.018-0.083c0.303-0.475 0.6-0.882 0.922-1.269l-0.017 0.020h0.071l0.001 0.056c0 0 0 0 0 0 0 0.203-0.047 0.395-0.13 0.567l0.003-0.008 0.003-0.008zM14.403 12.745h-0.030v-0.058h0.122v0.030c-0.036 0.010-0.067 0.024-0.095 0.041l0.002-0.001 0.002-0.001zM13.798 18.812c-0.051-0.027-0.102-0.044-0.176-0.044h-0.014v-0.088q0-0.046 0.056-0.064c0.041 0 0.064 0.023 0.069 0.086 0.050-0.074 0.106-0.138 0.169-0.194l0.001-0.001 0.001-0.001 0.064 0.036c-0.023 0.18-0.079 0.275-0.163 0.282zM20.275 12.039c-0.030 0-0.088-0.102-0.183-0.285v-0.058c0.059 0 0.122 0.086 0.183 0.278v0.066zM20.187 11.362l-0.027 0.061-0.878-0.366c0.585 0.018 0.887 0.122 0.915 0.305zM16.473 14.551h-0.122v-0.058h0.122v0.058zM16.371 12.634h0.033v0.089q-0.046 0-0.115 0.127v-0.058c0.041-0.041 0.071-0.096 0.078-0.157zM16.117 13.249v0.117h-0.033v-0.117zM15.977 13.47h0.061q0 0.151-0.079 0.155h-0.036c0.029-0.044 0.047-0.097 0.051-0.154l0-0.001v-0.001zM15.878 13.773h0.027v0.030l-0.054 0.094h-0.061v-0.030c0.064 0 0.102-0.038 0.086-0.097zM15.779 14.047l-0.020 0.153h-0.027v-0.151h0.061zM14.762 16.92q-0.061 0.298-0.127 0.305v-0.039c0-0 0-0.001 0-0.001 0-0.107 0.050-0.203 0.128-0.264l0.001-0.001zM14.576 17.322v0.025c0.001 0.005 0.002 0.010 0.002 0.015 0 0.030-0.024 0.053-0.054 0.053h-0.005v-0.030q0-0.046 0.056-0.064zM14.522 18.156h0.094v0.030c-0.035 0.007-0.066 0.020-0.094 0.037l0.001-0.001 0.001-0.001h-0.061q0-0.051 0.056-0.064zM17.183 17.335c-0.363 0.163-0.673 0.341-0.963 0.547l0.018-0.012 0.017-0.010c-0.57 0.198-0.849 0.322-0.846 0.371-0.415 0.153-0.758 0.308-1.089 0.484l0.048-0.023 0.051-0.023c-0.061-0.003-0.116-0.020-0.165-0.047l0.002 0.001c-0.001-0.008-0.002-0.018-0.002-0.027 0 0 0 0 0-0 0-0.098 0.055-0.183 0.136-0.225l0.001-0.001 0.001-0.001 0.051-0.002c0.073 0 0.142 0.015 0.207 0.041l-0.003-0.001c0.138-0.061 0.302-0.116 0.472-0.155l0.018-0.003v-0.059l-0.191 0.017c0.157-0.099 0.336-0.185 0.526-0.249l0.018-0.005h0.094v0.025c-0.161 0.015-0.254 0.061-0.27 0.147v0.002c0 0.030 0.024 0.053 0.054 0.053 0.004 0 0.010-0.001 0.013-0.002 0.119-0.079 0.175-0.122 0.175-0.137q0.341-0.061 1.892-0.992v0.059c0 0.023-0.086 0.1-0.254 0.229zM15.596 17.844c0.157-0.006 0.298-0.068 0.405-0.166 0.041 0 0.063 0.015 0.065 0.053-0.162 0.042-0.305 0.105-0.434 0.188l0.006-0.004 0.006-0.004h-0.034v-0.056zM18.159 15.875l-0.788 0.636c-0.263 0.192-0.563 0.379-0.876 0.545l-0.040 0.020-0.043 0.020q-1.407 0.763-1.752 0.814h-0.034q0.044-0.16 1.259-2.568c0.647-0.11 1.226-0.293 1.767-0.544l-0.043 0.018-0.044 0.017 0.191-0.018c0.056-0.010 0.12-0.016 0.186-0.016 0 0 0 0 0 0h-0c0.258 0 0.495 0.102 0.679 0.244l-0.002-0.001v0.117c-0.144 0.407-0.3 0.646-0.47 0.719zM16.611 15.017h0.122v0.030h-0.122v-0.030zM18.404 14.711h0.095c0.086 0.044 0.132 0.081 0.135 0.102v0.025h-0.010c-0.094-0-0.176-0.051-0.22-0.127l-0.001-0.001-0.001-0.001zM18.659 13.27c-0.198 0.189-0.42 0.358-0.659 0.498l-0.017 0.010c-0.533 0.16-0.987 0.34-1.419 0.552l0.053-0.023c-0.030-0.010-0.068-0.018-0.106-0.018l-0.020 0.001 0.001-0.058c0.004-0.163 0.061-0.311 0.153-0.431v0.002c0.061-0.328 0.13-0.509 0.201-0.552l0.661-1.478c0-0.086 0.132-0.158 0.407-0.203h0.095v0.089q0.42-0.069 0.526-0.079c0.509-0.046 0.793 0.058 0.816 0.305h0.061v-0.142h0.061c0.13 0.048 0.227 0.159 0.254 0.295l0 0.002v0.002c-0.004 0.12-0.051 0.228-0.125 0.311l0-0c-0.041 0-0.064-0.023-0.068-0.086h-0.061l-0.017 0.178c-0.254 0.4-0.456 0.608-0.575 0.615-0.107 0.145-0.173 0.219-0.203 0.221zM18.935 14.257v-0.089h0.061l0.132 0.081v0.008c0 0.030-0.025 0.056-0.056 0.056h-0.001c-0.035-0.027-0.079-0.046-0.127-0.051l-0.001-0h-0.001zM7.901 20.007l-0.061 0.015-0.054 0.046c0.003 0.026 0.025 0.048 0.053 0.048 0.007 0 0.014-0.002 0.020-0.004 0.041 0 0.056-0.033 0.048-0.071v-0.030zM7.667 19.539v0.030c0.041 0 0.056-0.033 0.049-0.071v-0.030c-0.028 0.003-0.051 0.026-0.051 0.056 0 0.005 0.001 0.010 0.002 0.016zM9.346 16.39l0.046-0.027h-0.022c-0.012 0.003-0.020 0.014-0.020 0.027 0 0.002 0 0.004 0.001 0.006zM9.346 15.573l0.071-0.018-0.027-0.063-0.071 0.018 0.015 0.061zM26.089 17.966l-0.16-0.017-0.027 0.061v0.024l0.958-0.081v-0.059l-0.763 0.066zM30.991 17.366v0.059l0.104 0.017v-0.059l-0.104-0.017zM30.844 17.366c-0.284 0.083-0.612 0.136-0.95 0.144l-0.005 0h-0.006v0.059h0.102l0.079-0.030c0.712-0.079 0.795-0.051 0.788-0.13v-0.027zM26.521 16.318l-0.064-0.020c-0.034 0.073-0.061 0.159-0.075 0.248l-0.001 0.006v0.025c0.051 0 0.095-0.086 0.137-0.254zM25.654 15.851v-0.030h-0.033l-0.059 0.038 0.033 0.056c0.046 0 0.066-0.025 0.061-0.066zM27.538 17.798v-0.059h-0.017v0.059zM31.447 16.916h0.046c0.025 0 0.039-0.023 0.036-0.061l-0.025-0.056h-0.004c-0 0-0.001 0-0.002 0-0.136 0-0.263 0.035-0.374 0.098l0.004-0.002 0.004-0.002v-0.030l-0.195 0.017c0-0.059-0.020-0.088-0.048-0.086h-0.102c-0.119 0-0.175 0-0.234 0.051 0-0.020 0-0.030-0.020-0.030h-0.115l-0.066 0.039c0-0.020 0-0.030-0.020-0.030l-0.041 0.036v-0.030h-0.195v0.059l0.081 0.020h0.076c0.020 0.012 0.044 0.020 0.069 0.020 0.006 0 0.012 0 0.017-0.001h-0.001l0.066-0.033v0.025c-0.173 0.048-0.384 0.090-0.6 0.117l-0.024 0.002c-0.017-0.014-0.039-0.023-0.063-0.025s-0.049-0.023-0.049-0.051v-0.003l0.132-0.017c0.023 0.008 0.051 0.016 0.079 0.022l0.004 0.001 0.005 0.001c0.107-0.053 0.102-0.074 0.168-0.079v-0.071c-0.202 0.039-0.436 0.063-0.674 0.064h-0.022v-0.059c0.588-0.071 0.392-0.030 0.592-0.086 0 0.020 0 0.030 0.020 0.030 0.020-0.020 0.049-0.037 0.081-0.041h0.041l0.097 0.002c0.198 0 0.39-0.026 0.572-0.077l-0.015 0.003v0.025l0.066-0.033h0.061c0-0.059 0.086-0.068 0.117-0.071v-0.064c-0.715 0.144-0.902 0.104-1.1 0.16v-0.025c-0.058 0.014-0.125 0.022-0.193 0.022-0.001 0-0.002 0-0.002 0h0c-0.020 0-0.041-0.001-0.061-0.002h0.003c-0.023 0.007-0.044 0.020-0.058 0.038 0-0.020 0-0.030-0.023-0.030l-0.608 0.1c0-0.017 0-0.025-0.023-0.023-0.19 0.058-0.412 0.1-0.641 0.116l-0.010 0.001c-0.030 0.005-0.057 0.017-0.079 0.034 0.001-0.017 0.001-0.025-0.030-0.023l-0.254 0.020-0.173 0.044c0-0.017 0-0.025-0.033-0.023-0.073 0.022-0.16 0.041-0.248 0.048h-0.006c-0.044 0 0.020 0 0-0.025l-0.053 0.030h-0.305l-0.458 0.066h-0.171c0 0.002 0.001 0.003 0.001 0.005 0 0.012-0.010 0.023-0.023 0.023h-0.003c-0.203-0.025-0.305-0.056-0.305-0.102q0.039-0.278 0.135-0.285h0.033l-0.027 0.061h0.033c0.061-0.033 0.088-0.064 0.086-0.102v-0.023h-0.061v-0.059l-0.002-0.030c0-0.033 0.007-0.064 0.020-0.102l-0.001 0.001 0.139-0.227v0.059h0.066v-0.059l-0.039-0.053c0.030-0.033 0.071-0.057 0.118-0.068h0.002v-0.030h-0.088v-0.089c0.107-0.188 0.193-0.407 0.25-0.636l0.004-0.017 0.064 0.025c0.041 0 0.059-0.025 0.056-0.069h-0.061v-0.025c-0.001-0.007-0.001-0.015-0.001-0.023 0-0.037 0.010-0.071 0.024-0.102h0.016c0.081-0.073 0.132-0.178 0.132-0.296 0-0 0-0 0-0v0-0.014c0.017 0 0.027 0 0.030 0.027 0.083-0.048 0.147-0.173 0.203-0.381 0.217-0.435 0.429-0.962 0.604-1.505l0.023-0.084c0.521-1.403 0.509-1.551 0.573-1.884h-0.061c0.001 0.006 0.001 0.012 0.001 0.019 0 0.001-0 0.003-0 0.004v-0c0 0.036-0.010 0.071-0.024 0.1l0.001-0.001c-0.030-0.013-0.063-0.022-0.099-0.023v-0.025c0.003-0.166 0.062-0.318 0.158-0.438l-0.001 0.001 0.026 0.001 0.053 0.203h0.061c0.012-0.102 0.030-0.192 0.054-0.281l-0.003 0.013-0.003 0.013c0-0.030-0.025-0.051-0.074-0.054l-0.059 0.038v-0.331h-0.030c-0.041-0.033-0.069-0.077-0.081-0.128v-0.002l-0.338 0.034c-0.007-0.041-0.020-0.074-0.039-0.106l0.001 0.001c0-0.030 0.074-0.061 0.229-0.102l0.068 0.025 0.064-0.038c0 0.020 0.015 0.030 0.039 0.027l0.064-0.038c0 0.020 0.015 0.030 0.039 0.027h0.030v-0.069h-0.371l-0.064 0.044v-0.027q-2.385 0.196-2.708 0.227h-0.336c0 0.025-0.020 0.041-0.068 0.046l-0.068-0.030-0.27 0.046c-0.041 0.004-0.088 0.006-0.137 0.006s-0.097-0.002-0.142-0.006h0.006c-0.036 0.028-0.081 0.047-0.129 0.051h-0.001l0.674-0.051c-0.046 0.032-0.103 0.052-0.164 0.054l-0.001 0-0.030 0.002c-0.038 0-0.073-0.010-0.105-0.025l0.001 0.001c-0.139 0.045-0.31 0.086-0.486 0.116l-0.022 0.003-0.068-0.025-1.119 0.171c-0.033-0.016-0.072-0.025-0.113-0.025-0.001 0-0.001 0-0.002 0h0c-0.012 0-0.024 0.001-0.037 0.002-0.112 0.015-0.211 0.038-0.307 0.067l0.013-0.003-0.536 0.224 0.041 0.066c0.041-0.007 0.078-0.022 0.112-0.044v0.002l0.191 0.018-0.023 0.178c-0.151 0.055-0.265 0.18-0.303 0.334l-0.001 0.003-0.001 0.003c-0.254 0.117-0.394 0.198-0.394 0.254v0.030h0.041l0.071-0.038 0.083 0.1v0.137q0 0.064-1.324 2.797l-1.21 2.876c-0.254 0.074-0.414 0.18-0.461 0.322 0 0.046 0.083 0.076 0.234 0.086v0.068l-0.068 0.115v0.137q0 0.107 0.575 0.163c0-0.023 0-0.039 0.036-0.041-0.003 0.183-0.028 0.356-0.074 0.523l0.003-0.014h0.086c0.112-0.118 0.19-0.267 0.224-0.434l0.001-0.005h0.030c0.039 0 0.079 0.041 0.124 0.132q-0.071 0.027-0.509 1.132l0.041 0.066h0.041q0.521-1.322 0.656-1.462 0.686-0.061 2.372-0.254l0.071-0.044v0.002c0 0.018 0.015 0.033 0.033 0.033 0.004 0 0.007-0.001 0.010-0.002h0.074l0.071-0.044v0.002c0 0.018 0.015 0.033 0.033 0.033 0.004 0 0.007-0.001 0.010-0.002l0.851-0.074c0.227-0.017 0.331-0.086 0.322-0.203 0-0.030 0.13-0.066 0.399-0.104h0.004c0.041 0 0.079 0.007 0.116 0.020l-0.002-0.001c0-0.020 0.132-0.044 0.402-0.066 0-0.142 0.051-0.219 0.132-0.227v-0.068c-0.095 0.010-0.181 0.030-0.262 0.061l0.008-0.003c-0.125-0.002-0.245-0.017-0.36-0.045l0.011 0.002 0.010 0.002c-0.031 0.020-0.067 0.035-0.106 0.042l-0.002 0h-0.002l-0.608-0.017-0.071 0.039q0-0.033-0.044-0.027h-0.033l-0.076 0.039c0-0.020-0.064-0.039-0.188-0.053l-0.076 0.046h-0.147v-0.039q1.144-0.124 1.119-0.31c0.005-0.001 0.010-0.002 0.015-0.002 0.037 0 0.066 0.030 0.066 0.066v0.005l0.224-0.056v-0.047l-1.826 0.051c0 0.023 0 0.039-0.036 0.041l-0.224-0.017c-0.054 0.003-0.102 0.020-0.142 0.051l0.001-0.001-0.088-0.015c-0.186 0.012-0.36 0.041-0.527 0.088l0.018-0.004-0.254-0.010-0.264 0.010 0.010-0.001-0.409 0.036-0.191-0.020c0-0.122 0.227-0.715 0.71-1.78 0.076-0.263 0.212-0.489 0.392-0.671l-0 0c0.043 0.001 0.081 0.010 0.119 0.028l-0.002-0.001 0.262-0.1 0.151 0.023c0.333-0.037 0.638-0.116 0.923-0.233l-0.023 0.008-0.023 0.008c0.016-0.003 0.034-0.004 0.053-0.004 0.002 0 0.003 0 0.005 0h-0c0.048 0 0.092 0.008 0.135 0.022l-0.003-0.001 0.224-0.054 0.663-0.056c0.352-0.034 0.675-0.103 0.983-0.206l-0.031 0.009-0.030 0.010v-0.069c-0.122 0-0.188 0-0.191-0.058 0-0.102-0.097-0.129-0.27-0.117v-0.069l0.183-0.054 0.478-0.041v-0.069h-0.305v-0.073l0.186-0.018c0.051 0 0.071-0.027 0.066-0.076-0.254 0-0.373 0-0.376-0.038q-2.602 0.127-2.609 0.048c-0.041 0.010-0.078 0.026-0.11 0.049l0.001-0.001-0.074-0.079q0.689-1.465 0.809-1.475c-0.005 0.068-0.025 0.13-0.057 0.185l0.001-0.002v0.020h0.074c0.183-0.435 0.336-0.661 0.465-0.671 0.544-0.048-0.076-0.083 1.091-0.254 0.030 0.017 0.066 0.027 0.104 0.027q0.686-0.139 1.912-0.29v-0.069l-0.434 0.041v-0.069c0.051-0.004 0.095-0.022 0.13-0.051v0.038c0.038-0.010 0.071-0.026 0.1-0.049 0.015-0.003 0.034-0.004 0.051-0.004 0.044 0 0.085 0.010 0.124 0.025h0.014c0.1-0.030 0.22-0.055 0.343-0.071l0.011-0.001 0.012-0.001 0.272-0.025c0.066-0.044 0.097-0.081 0.095-0.117v-0.030c-0.020 0.002-0.043 0.002-0.065 0.002-0.061 0-0.122-0.006-0.179-0.018l0.006 0.001v-0.008c0-0.036 0.026-0.064 0.061-0.068l0.509-0.048 0.231-0.058c0 0.025 0.015 0.036 0.033 0.036 0.038-0.010 0.071-0.026 0.1-0.049h0.039c-0.035 0.073-0.069 0.161-0.096 0.251l-0.003 0.012-0.003 0.013h-0.066c-0.004-0.046-0.017-0.086-0.039-0.122v-0.010h-0.046l-1.457 3.822c-0.104 0.336-0.191 0.524-0.266 0.564v0.002c0 0.030 0.023 0.054 0.053 0.054 0.004 0 0.010-0.001 0.013-0.002 0.001 0.015 0.002 0.033 0.002 0.052 0 0.004-0 0.008-0 0.012v-0.001c0 0.158-0.045 0.305-0.122 0.431l0.002-0.004c-0.254 0.763-0.437 1.173-0.529 1.249l0.059 0.358v0.008c0 0.030-0.025 0.056-0.056 0.056h-0.061c0-0.1-0.046-0.147-0.11-0.139h-0.033c-0.081 0.125-0.144 0.272-0.181 0.427l-0.002 0.010h0.061c0.068-0.035 0.115-0.104 0.115-0.183v-0.006h0.122l0.071 0.025c-0.046 0.059-0.075 0.134-0.078 0.215l-0 0.001 0.033 0.057-0.081 0.191v0.030h0.015c0.001 0 0.001 0 0.002 0 0.080 0 0.155 0.025 0.216 0.068l-0.001-0.001-0.001-0.001c0.071-0.012 0.132-0.041 0.183-0.081l-0.001 0.001h0.793l0.229-0.079 0.117 0.001 0.45-0.020h0.1l0.053-0.036v0.030c0.053-0.006 0.114-0.010 0.176-0.010 0.104 0 0.203 0.010 0.302 0.030l-0.010-0.002v0.030h-0.139v0.059c0.043-0.003 0.081-0.018 0.102-0.044 0.036 0 0.056 0.017 0.059 0.059-0.071 0.008-0.135 0.022-0.196 0.045l0.006-0.002-0.061-0.020c-0.097 0.025-0.076 0.033-0.142 0.039l-0.097-0.017c0 0.002 0.001 0.003 0.001 0.005 0 0.012-0.010 0.023-0.023 0.023h-0.001v0.003c0 0.028 0.022 0.051 0.051 0.051 0.003 0 0.005 0 0.008-0.001h0.1l0.509-0.046 0.195-0.044c0 0.017 0 0.025 0.025 0.023l0.095-0.036 0.178-0.015c0.137 0 0.135-0.020 0.434-0.068 0-0.017 0-0.025 0.017-0.027v0.025c0.238-0.029 0.45-0.071 0.656-0.128l-0.031 0.007-0.030 0.007v0.015c0.122-0.027 0.053-0.020 0.086-0.046 0 0.020 0 0.030 0.020 0.030h0.086v-0.064h-0.203c-0.049 0.010-0.105 0.015-0.163 0.015-0.002 0-0.004 0-0.005-0h-0.025l-0.434 0.023v-0.030l0.254-0.033h0.086l0.051-0.036v0.027c0.341-0.027 0.463 0.056 2.034-0.28 0.086 0 0.079-0.079 0.132-0.227-0.004 0-0.008 0.001-0.012 0.001-0.026 0-0.051-0.007-0.071-0.018h0.001c-0.13 0.034-0.282 0.057-0.437 0.066l-0.006 0h-0.006c-0.020 0-0.039-0.017-0.046-0.053v-0.025h0.254c0.096-0.010 0.181-0.041 0.257-0.087l-0.003 0.001c0 0.020-0.051 0.033-0.020 0.030zM19.781 17.105h-0.102c0.041-0.193 0.102-0.362 0.183-0.521l-0.005 0.012h0.074c-0.025 0.189-0.074 0.361-0.144 0.521l0.005-0.012zM19.916 16.565v-0.030c0-0.039 0.020-0.064 0.074-0.076v0.051c0 0.046-0.020 0.071-0.074 0.076zM21.395 17.71v0.030l-0.186 0.017v-0.030l0.186-0.017zM21.172 17.692c0 0.039-0.053 0.081-0.178 0.122l-0.227-0.017h-0.074v-0.068l0.485-0.046zM22.67 10.799h-0.102v-0.038c0-0.038 0.017-0.064 0.066-0.076h0.041l0.076 0.030c0 0.003 0.001 0.007 0.001 0.010 0 0.037-0.030 0.066-0.066 0.066h-0.003zM24.363 10.468h0.027v0.069h-0.102v-0.008c0-0.036 0.026-0.064 0.061-0.068zM23.936 10.618l-0.168-0.018v-0.030c0.157-0.010 0.303-0.041 0.442-0.085l-0.013 0.004c0 0.025 0.025 0.036 0.068 0.030v0.069h-0.066l-0.030 0.002c-0.038 0-0.073-0.010-0.105-0.025-0.036 0.026-0.079 0.044-0.127 0.049h-0.001zM24.137 11.243v-0.030l0.272-0.025v0.030l-0.272 0.025zM24.43 11.007v-0.041h0.132v0.038h-0.132zM24.461 10.543h-0.036l0.030-0.073 0.302-0.027v0.038c-0.112 0.013-0.214 0.035-0.313 0.064l0.013-0.003zM24.616 11.196v-0.069h0.132q0.068 0 0.071 0.064l-0.198 0.018zM25.43 10.102l-0.171 0.048h-0.030c-0.051 0.005-0.111 0.008-0.171 0.008-0 0-0.001 0-0.002 0h0c-0.051 0-0.102-0.002-0.153-0.006h0.006l0.509-0.044zM25.247 10.865v0.030l-0.234 0.020v-0.030l0.234-0.020zM25.63 11.048c0-0.027-0.048-0.048-0.139-0.056l-0.234 0.066h-0.18c-0.041-0.027-0.061-0.048-0.064-0.061h0.209l0.468-0.076h0.239v0.038c-0.114 0.010-0.219 0.033-0.319 0.067l0.009-0.003 0.010-0.003zM28.044 10.407h0.053c0.078-0.077 0.169-0.141 0.271-0.186l0.006-0.002 0.006-0.002c-0.056 0.323-0.197 0.606-0.401 0.834l0.001-0.002-0.132-0.081c0.066-0.146 0.131-0.324 0.182-0.507l0.006-0.027 0.007-0.030zM27.637 11.107h0.033c-0.046 0.086-0.086 0.129-0.119 0.132v-0.089c0.036-0.006 0.066-0.020 0.102-0.041zM27.383 11.735c0.022-0.168 0.087-0.315 0.183-0.439v0.032c-0.033 0.236-0.086 0.363-0.155 0.371v0.151c-0.045 0.051-0.074 0.116-0.081 0.188l-0 0.001v0.001h-0.033l-0.017-0.206c0.039 0 0.068-0.038 0.088-0.1zM27.281 12.075c-0.010 0.095-0.035 0.18-0.071 0.259l0.002-0.005h-0.033v-0.089c0.046-0.104 0.083-0.158 0.11-0.158zM25.369 17.623v-0.025h0.061v0.088c-0.033 0-0.056-0.017-0.066-0.059zM28.1 17.694c0-0.020 0-0.030-0.033-0.027l-0.155 0.015v-0.030h0.015l0.364-0.030v0.030c-0.007-0.001-0.015-0.001-0.024-0.001-0 0-0.001 0-0.001 0-0.062 0-0.12 0.018-0.168 0.049l0.001-0.001 0.001-0.001zM27.917 17.618c0.015 0 0 0.015 0 0.017s-0.017 0 0-0.017zM27.935 17.191l-0.203 0.017v-0.030l0.186-0.017 0.16-0.041c0 0.017 0 0.025 0.033 0.023 0.191-0.033 0.173-0.044 0.254-0.051 0.030 0 0.051 0.017 0.053 0.053l-0.491 0.044zM28.647 17.13c-0.049-0.010-0.104-0.016-0.163-0.016l-0.041 0.001h0.002v-0.025l0.183-0.017v0.025c-0.017 0 0.051 0 0.017 0.030zM28.663 17.097v-0.025h0.1v0.025h-0.1zM28.884 17.079v-0.025c0.028-0.007 0.052-0.021 0.071-0.039l-0 0c0.003 0 0.007-0.001 0.010-0.001 0 0 0 0 0 0 0.038 0 0.069 0.030 0.071 0.067v0zM29.167 17.043v-0.026h0.122v0.030h-0.122zM29.334 17.028c0-0.036 0-0.056 0.044-0.061l0.041 0.053c0-0.002-0.001-0.003-0.001-0.005 0-0.010 0.008-0.020 0.018-0.022l0.030 0.056-0.132-0.017zM31.701 16.733c0.017 0 0.027-0.023-0.017-0.030s0.023 0.030-0.023 0.033v0.027l0.025-0.017-0.025 0.020-0.051 0.064 0.1-0.036v-0.059zM31.874 16.868h-0.017v0.059h0.139c0-0.039-0.095-0.051-0.124-0.051z"></path>
</svg>
