<!-- Generated by IcoMoon.io -->
<svg version="1.1" xmlns="http://www.w3.org/2000/svg" width="32" height="32" viewBox="0 0 32 32">
<title>bootstrap</title>
<path d="M5.614 1.406c-0.746 0.11-1.641 0.46-2.276 0.895-0.415 0.275-0.951 0.791-1.26 1.195-0.345 0.455-0.765 1.331-0.931 1.932l-0.141 0.5v20.863l0.141 0.5c0.165 0.601 0.585 1.476 0.931 1.931 0.65 0.85 1.652 1.567 2.657 1.892 0.83 0.265 0.415 0.255 11.257 0.255 10.847 0 10.432 0.011 11.257-0.26 1.011-0.325 2.011-1.036 2.657-1.886 0.345-0.46 0.771-1.336 0.935-1.931l0.135-0.5v-20.863l-0.141-0.5c-0.165-0.6-0.585-1.476-0.93-1.931-0.31-0.406-0.845-0.921-1.26-1.195-0.446-0.305-1.171-0.635-1.731-0.791l-0.491-0.135-10.257-0.005c-5.639-0.005-10.392 0.011-10.552 0.034zM19.594 6.925c1.581 0.26 2.661 0.78 3.367 1.621 0.3 0.356 0.65 1.061 0.796 1.587 0.090 0.345 0.105 0.54 0.11 1.401 0.005 0.906-0.005 1.040-0.11 1.396-0.305 1.061-0.971 1.876-2.047 2.507l-0.37 0.215 0.265 0.085c0.405 0.135 1.081 0.486 1.426 0.746 0.861 0.65 1.461 1.661 1.701 2.867 0.115 0.601 0.115 1.886-0.005 2.437-0.475 2.166-2.152 3.672-4.674 4.177-0.966 0.195-1.215 0.206-6.399 0.206h-5.067v-19.368l5.244 0.020c4.693 0.015 5.293 0.025 5.764 0.105zM12.889 12.388v2.282l2.417-0.020c2.267-0.025 2.437-0.030 2.802-0.13 1.141-0.31 1.636-0.966 1.636-2.166 0-0.921-0.325-1.516-1.031-1.866-0.625-0.31-1.301-0.375-3.957-0.381h-1.866v2.282zM12.889 20.213v2.657l2.641-0.020c2.968-0.020 3.067-0.030 3.798-0.385 0.841-0.41 1.215-1.081 1.215-2.177 0-1.41-0.56-2.192-1.851-2.581-0.365-0.115-0.435-0.115-3.087-0.135l-2.717-0.015v2.657z"></path>
</svg>
