<!-- Generated by IcoMoon.io -->
<svg version="1.1" xmlns="http://www.w3.org/2000/svg" width="32" height="32" viewBox="0 0 32 32">
<title>bower</title>
<path d="M29.713 15.020c-0.318-0.128-0.636-0.273-0.968-0.345-1.886-0.408-3.768-0.833-5.665-1.18-1.387-0.254-2.795-0.395-4.193-0.587 0.142-0.973 0.272-1.095 1.317-1.257 0.533 0.92 0.533 0.92 1.632 0.791 2.255-0.264 3.696-1.563 4.105-3.876 0.303-1.714 0.658-3.37 1.956-4.651 0.016-0.015-0.010-0.072-0.016-0.109-2.387-0.733-5.456 0.913-7.367 3.97-0.874-0.116-1.431-0.397-1.82-1.316-1.043-2.462-2.965-3.944-5.697-4.045-4.945-0.183-9.441 2.686-11.377 7.251-1.92 4.529-1.306 8.939 0.871 13.209 0.885 1.735 2.015 3.301 3.689 4.38 1.434 0.924 2.757 0.631 3.717-0.78 0.040-0.058 0.113-0.095 0.201-0.165l0.428 1.122c0.145 0.38 0.275 0.766 0.438 1.139 0.33 0.758 1.213 1.119 1.982 0.862 0.197-0.066 0.452-0.073 0.65-0.011 0.856 0.269 1.64 0.277 2.326-0.417 0.109-0.11 0.341-0.146 0.513-0.14 1.178 0.037 1.829-0.349 2.335-1.407 0.043-0.090 0.108-0.179 0.185-0.24 0.789-0.622 0.983-1.27 0.586-2.179-0.239-0.548-0.538-1.071-0.819-1.6-0.202-0.38-0.419-0.753-0.686-1.23 1.305 0.431 2.47 0.875 3.546-0.104 0.221 0.114 0.407 0.224 0.602 0.308 1.078 0.469 2.518 0.314 3.132-0.406 0.254-0.299 0.483-0.319 0.823-0.293 1.343 0.103 2.913-0.322 3.133-1.919 1.427-0.29 2.079-0.922 2.196-2.13 0.127-1.311-0.393-2.1-1.755-2.647zM21.395 11.633c-0.142 0.002-0.342-0.255-0.421-0.434-0.106-0.24-0.119-0.52-0.216-1.003l1.132 0.438c0.517-0.383 1.042 0.208 1.788 0.274-0.786 0.543-1.52 0.713-2.283 0.726zM26.199 4.566c-0.552 1.893-1.111 3.811-1.712 5.872-0.703-0.588-1.209-1.011-1.833-1.533l2.084-3.215c-1.158 0.707-1.831 1.793-2.467 2.984l-0.933-0.521c0.693-1.857 3.067-3.562 4.861-3.589zM18.338 8.136c1.577 0.088 2.924 0.758 4.152 1.704 0.081 0.063 0.095 0.214 0.209 0.494-1.432-0.489-2.651-0.316-3.869 0.143-0.357 0.134-0.79 0.063-1.189 0.087l0.007 0.184 2.245-0.139 0.021 0.161c-0.778 0.357-1.557 0.715-2.334 1.072-0.604-0.829-0.363-2.83 0.273-3.498 0.114-0.12 0.326-0.217 0.487-0.209zM21.86 16.218l-0.025 0.168c2.428 0.478 4.857 0.956 7.294 1.435-0.286 0.774-0.869 1.014-2.29 0.989-0.055 1.324-0.669 1.674-2.668 1.524-0.406 1.203-1.485 1.464-3.331 0.795-0.988 1.074-2.107 0.686-3.261 0.235-0.228 1.785-1.053 3.178-2.62 4.066-1.457 0.826-3.019 0.736-4.574 0.396-6.272-1.367-9.881-7.477-8.213-13.869 1.249-4.784 5.151-8.038 9.96-8.304 2.323-0.128 4.39 1.082 5.361 3.176 0.093 0.2 0.101 0.568-0.023 0.722-1.297 1.615-1.32 3.346-0.479 5.132 0.194 0.411 0.131 0.652-0.116 0.963-1.111 1.4-2.596 2.212-4.262 2.746l-0.225 0.068c1.929-0.041 3.776-0.349 5.125-1.88 0.354-0.401 0.689-0.509 1.165-0.433 2.602 0.415 5.208 0.813 7.807 1.246 0.669 0.111 1.325 0.314 1.977 0.506 0.503 0.148 0.845 0.474 0.937 1.095-2.543-0.262-5.041-0.52-7.541-0.777zM14.028 9.347c-0.001-0.879-0.744-1.603-1.614-1.574-0.813 0.027-1.559 0.816-1.53 1.618 0.031 0.854 0.751 1.54 1.599 1.527 0.859-0.013 1.546-0.711 1.544-1.571zM11.533 8.629c0.001-0.555 0.542-0.63 1.005-0.608 0.413 0.018 0.91 0.121 0.884 0.62-0.030 0.565-0.573 0.588-1.155 0.755-0.259-0.255-0.734-0.511-0.733-0.767z"></path>
</svg>
