<!-- Generated by IcoMoon.io -->
<svg version="1.1" xmlns="http://www.w3.org/2000/svg" width="32" height="32" viewBox="0 0 32 32">
<title>brackets</title>
<path d="M27.858 2.784h-23.585c-1.598 0-2.924 1.612-3.176 3.725v1.459c0.005 0.049 0.012 0.098 0.018 0.146-0.008 0.034-0.013 0.070-0.018 0.105v18.441c0.368 1.904 1.62 3.305 3.111 3.305h23.585c1.491 0 2.745-1.401 3.111-3.305v-20.869c-0.434-1.751-1.633-3.011-3.045-3.011zM28.019 24.673c-0.295 1.536-1.306 2.666-2.509 2.666h-19.020c-1.202 0-2.212-1.13-2.509-2.666v-14.873c0.005-0.029 0.008-0.058 0.014-0.086-0.005-0.040-0.011-0.078-0.014-0.117v-1.177c0.203-1.704 1.272-3.006 2.561-3.006h19.020c1.139 0 2.105 1.015 2.456 2.427v16.83zM6.626 16.377v8.064h8.391v-3.671h-4.721v-8.785h4.721v-3.671h-8.392v8.064zM16.983 10.148v1.835h4.721v8.785h-4.721v3.671h8.392v-16.128h-8.392v1.835z"></path>
</svg>
