<!-- Generated by IcoMoon.io -->
<svg version="1.1" xmlns="http://www.w3.org/2000/svg" width="32" height="32" viewBox="0 0 32 32">
<title>chrome</title>
<path d="M21.579 16.379c0 3.081-2.498 5.579-5.579 5.579s-5.579-2.498-5.579-5.579c0-3.081 2.498-5.579 5.579-5.579s5.579 2.498 5.579 5.579zM15.967 9.732v0h13.481c-2.451-4.949-7.552-8.351-13.448-8.351-4.774 0-9.025 2.23-11.773 5.705l5.144 8.795c0.255-3.427 3.108-6.13 6.596-6.148zM16 23.026c-2.877 0-5.327-1.828-6.253-4.385l-6.207-10.616c-1.604 2.387-2.54 5.26-2.54 8.352 0 7.55 5.579 13.796 12.838 14.843l5.174-8.917c-0.905 0.462-1.929 0.722-3.014 0.722zM29.927 10.801h-10.31c1.825 1.184 3.031 3.24 3.031 5.579 0 1.15-0.292 2.231-0.805 3.174l0.004 0.003-6.841 11.789c0.329 0.021 0.661 0.033 0.996 0.033 8.283 0 14.999-6.715 14.999-14.999 0-1.971-0.381-3.854-1.073-5.579z"></path>
</svg>
