<!-- Generated by IcoMoon.io -->
<svg version="1.1" xmlns="http://www.w3.org/2000/svg" width="32" height="32" viewBox="0 0 32 32">
<title>codepen</title>
<path d="M30.977 11.586c-0.007-0.036-0.013-0.073-0.023-0.108-0.005-0.021-0.013-0.041-0.020-0.063-0.011-0.032-0.020-0.063-0.033-0.093-0.009-0.021-0.019-0.041-0.029-0.063-0.013-0.029-0.028-0.057-0.044-0.085-0.012-0.020-0.024-0.040-0.037-0.060-0.017-0.027-0.035-0.053-0.055-0.079-0.015-0.019-0.029-0.037-0.044-0.056-0.020-0.024-0.041-0.048-0.064-0.071-0.017-0.017-0.033-0.035-0.052-0.051-0.023-0.021-0.048-0.041-0.073-0.061-0.020-0.015-0.039-0.031-0.059-0.044-0.007-0.005-0.013-0.011-0.021-0.016l-13.71-9.139c-0.433-0.289-0.997-0.289-1.43 0l-13.71 9.139c-0.008 0.005-0.013 0.011-0.021 0.016-0.020 0.015-0.039 0.029-0.059 0.044-0.025 0.020-0.049 0.040-0.073 0.061-0.017 0.016-0.035 0.033-0.051 0.051-0.023 0.023-0.044 0.045-0.064 0.071-0.016 0.019-0.029 0.036-0.044 0.056-0.019 0.025-0.037 0.052-0.055 0.079-0.012 0.020-0.025 0.040-0.036 0.060-0.016 0.028-0.031 0.056-0.044 0.085-0.009 0.021-0.020 0.041-0.029 0.063-0.013 0.031-0.024 0.063-0.033 0.093-0.007 0.021-0.015 0.041-0.020 0.063-0.009 0.036-0.016 0.072-0.023 0.108-0.004 0.019-0.008 0.037-0.011 0.056-0.007 0.056-0.012 0.112-0.012 0.168v9.139c0 0.057 0.004 0.113 0.012 0.168 0.003 0.019 0.007 0.037 0.011 0.056 0.007 0.036 0.013 0.072 0.023 0.108 0.005 0.021 0.013 0.041 0.020 0.063 0.011 0.032 0.021 0.063 0.033 0.095 0.008 0.021 0.019 0.041 0.029 0.063 0.013 0.029 0.028 0.057 0.044 0.087 0.012 0.020 0.024 0.040 0.036 0.059 0.017 0.027 0.035 0.053 0.055 0.079 0.015 0.020 0.029 0.037 0.044 0.056 0.020 0.024 0.041 0.047 0.064 0.069 0.016 0.017 0.033 0.035 0.051 0.051 0.023 0.021 0.048 0.041 0.073 0.061 0.019 0.015 0.039 0.031 0.059 0.044 0.008 0.005 0.013 0.011 0.021 0.016l13.709 9.139c0.217 0.144 0.465 0.217 0.715 0.217s0.498-0.072 0.715-0.217l13.709-9.139c0.008-0.005 0.015-0.011 0.021-0.016 0.020-0.015 0.039-0.029 0.059-0.044 0.025-0.020 0.049-0.040 0.073-0.061 0.017-0.016 0.035-0.033 0.052-0.051 0.023-0.023 0.044-0.045 0.064-0.069 0.016-0.019 0.031-0.036 0.044-0.056 0.019-0.025 0.037-0.052 0.055-0.079 0.012-0.020 0.025-0.039 0.037-0.059 0.016-0.028 0.031-0.057 0.044-0.087 0.009-0.020 0.020-0.041 0.029-0.063 0.013-0.031 0.023-0.063 0.033-0.095 0.007-0.021 0.015-0.041 0.020-0.063 0.009-0.036 0.016-0.072 0.023-0.108 0.003-0.019 0.008-0.037 0.011-0.056 0.007-0.056 0.012-0.112 0.012-0.168v-9.139c0-0.057-0.004-0.113-0.012-0.168-0.003-0.019-0.007-0.037-0.011-0.056zM16 19.431l-4.559-3.050 4.559-3.050 4.559 3.050-4.559 3.050zM14.712 11.092l-5.589 3.738-4.511-3.018 10.1-6.733v6.012zM6.805 16.381l-3.224 2.157v-4.314l3.224 2.157zM9.123 17.932l5.589 3.737v6.012l-10.1-6.733 4.511-3.018zM17.288 21.669l5.589-3.737 4.511 3.018-10.1 6.733v-6.012zM25.195 16.381l3.225-2.157v4.314l-3.225-2.157zM22.877 14.83l-5.589-3.738v-6.012l10.1 6.733-4.511 3.018z"></path>
</svg>
