<!-- Generated by IcoMoon.io -->
<svg version="1.1" xmlns="http://www.w3.org/2000/svg" width="32" height="32" viewBox="0 0 32 32">
<title>codrops</title>
<path d="M13.066 1.595c-4.834 1.031-9.123 4.552-10.922 8.973-1.517 3.709-1.517 7.943 0 11.653 1.592 3.897 5.152 7.156 9.329 8.542 1.499 0.487 1.854 0.524 4.534 0.524s3.035-0.037 4.534-0.524c6.314-2.080 10.454-7.756 10.454-14.368 0-6.557-4.010-12.14-10.265-14.294-1.443-0.487-1.911-0.562-4.253-0.618-1.443-0.037-2.979 0.019-3.409 0.113zM17.693 11.41c2.585 4.534 3.39 6.762 3.035 8.355-0.562 2.398-2.661 3.934-5.058 3.69-1.181-0.131-2.454-0.844-3.166-1.742l-0.45-0.6h0.749c2.041-0.037 3.616-1.967 3.298-4.066-0.113-0.862-0.749-2.567-1.499-4.028l-0.431-0.844 0.955-1.63c0.524-0.899 1.012-1.592 1.086-1.536 0.076 0.037 0.749 1.123 1.48 2.398zM13.758 13.209c1.612 3.203 1.892 4.608 1.199 5.807-1.255 2.117-4.234 1.517-4.852-0.992-0.094-0.3-0.019-0.899 0.187-1.499 0.337-1.068 2.341-4.815 2.567-4.815 0.076 0 0.487 0.674 0.899 1.499z"></path>
</svg>
