<!-- Generated by IcoMoon.io -->
<svg version="1.1" xmlns="http://www.w3.org/2000/svg" width="27" height="32" viewBox="0 0 27 32">
<title>composer</title>
<path d="M13.973 30.717c0.572-0.267 0.988-0.647 0.988-0.925 0-0.111 1.469-1.579 1.662-1.662 0.028-0.010 0.222 0.046 0.407 0.12l0.351 0.148-0.655 0.415c-0.36 0.222-0.692 0.407-0.748 0.407zM16.798 29.138l0.627-0.314c1.266-0.637 4.681-1.81 5.975-2.060 0.572-0.103 0.442-0.195-0.157-0.111-0.314 0.037-0.627 0.103-0.702 0.12-0.259 0.103 0.203-0.324 0.757-0.702 0.305-0.195 0.48-0.36 0.398-0.36-0.442 0-4.442 1.597-5.198 2.085-0.288 0.185-0.305 0.175-0.305-0.222 0-0.333 0.028-0.351 0.627-0.683 0.526-0.288 3.758-1.746 3.869-1.746 0.018 0-0.074 0.195-0.213 0.433l-0.259 0.442 0.702-0.647 0.711-0.702c0-0.037-0.222-0.010-0.498 0.055s-0.526 0.103-0.544 0.055c-0.103-0.148 0.12-1.202 0.314-1.579 0.111-0.222 0.259-0.74 0.324-1.145 0.267-1.607 0.6-2.907 0.97-3.795 0.785-1.856 0.859-2.133 0.74-2.65-0.065-0.25-0.103-0.572-0.055-0.719 0.008-0.052 0.013-0.111 0.013-0.171 0-0.12-0.018-0.236-0.052-0.344l0.002 0.008c-0.065-0.175-0.065-0.288 0.010-0.37 0.082-0.111 0.028-0.231-0.288-0.6-0.213-0.25-0.38-0.47-0.36-0.48 0.018-0.018 0.185-0.103 0.36-0.166l0.324-0.148 0.103-1.264 0.082-1.256c-0.528 0.146-0.832 0.241-1.135 0.34l0.221-0.063-1.017 0.277c-0.129 0-0.25-0.24-0.647-1.348-0.259-0.702-0.305-0.925-0.259-1.385 0.055-0.637-0.166-2.106-0.442-2.928-0.37-1.109-1.533-3.121-1.911-3.287-0.324-0.157-0.555-0.12-0.674 0.103-0.12 0.231-0.111 0.259 0.324 1.264l0.333 0.776-0.572-0.452c-1.284-0.996-2.521-1.671-3.223-1.755-0.444-0.055-0.462-0.046-0.563 0.231-0.065 0.157-0.185 0.305-0.277 0.324-0.12 0.037-0.166 0.139-0.166 0.397 0 0.324 0.074 0.416 0.951 1.255l0.868 0.904c-0.037 0-0.398-0.213-0.785-0.48-0.581-0.388-0.785-0.48-1.118-0.489-0.776 0-0.757 0.534 0.037 1.099 0.446 0.35 0.844 0.71 1.216 1.096l0.003 0.004 0.719 0.74-0.647 0.111c-1.017 0.185-1.422 0.314-1.523 0.517-0.195 0.36-0.074 0.462 0.996 0.812 0.572 0.195 1.127 0.434 1.246 0.534 0.488 0.407 1.053 0.744 1.667 0.983l0.041 0.014c0.324 0.103 0.526 0.231 0.591 0.37 0.071 0.135 0.179 0.243 0.31 0.312l0.004 0.002c0.148 0.065 0.259 0.24 0.37 0.609 0.082 0.288 0.129 0.544 0.103 0.572-0.028 0.018-0.407 0.157-0.84 0.288l-0.794 0.25 0.674 1.2c0.618 1.118 0.683 1.202 0.925 1.173 0.305-0.028 0.305-0.028 0.046 0.407l-0.203 0.342 0.213 0.388c0.139 0.267 0.185 0.47 0.148 0.6-0.055 0.175-0.103 0.148-0.277-0.25-0.24-0.517-0.896-1.377-1.292-1.708-0.683-0.555-0.97-0.665-1.856-0.674l-0.832-0.018-0.434-0.416c-0.279-0.261-0.594-0.488-0.937-0.672l-0.024-0.012c-0.507-0.25-0.6-0.267-1.69-0.267h-1.155l-0.877 0.462c-1.127 0.581-2.291 1.726-3.020 2.954-0.267 0.452-0.489 0.776-0.489 0.719l-0.082-0.47c-0.074-0.378-0.074-0.387 0.203-0.416 0.267-0.028 0.288-0.055 0.48-0.859l0.267-1.025c0.055-0.185 0-0.213-0.776-0.407-0.627-0.157-0.832-0.24-0.832-0.36 0-0.288 0.267-1.136 0.397-1.292 0.074-0.082 0.157-0.231 0.175-0.333s0.213-0.288 0.452-0.416c0.647-0.351 0.683-0.397 1.356-1.699 0.489-0.951 0.757-1.356 1.284-1.921l0.674-0.794c0-0.157-0.38-0.572-0.517-0.572-0.277 0-0.074-0.166 1.181-0.97 1.654-1.044 1.699-1.089 1.541-1.21-0.103-0.082-0.665 0.231-2.392 1.311l-2.32 1.422c-0.028 0-0.139-0.277-0.25-0.609l-0.195-0.6 0.637-0.6c0.674-0.637 0.822-0.887 0.647-1.099-0.082-0.103-0.25-0.055-0.951 0.288-0.47 0.231-1.192 0.517-1.616 0.655-0.711 0.222-0.776 0.222-0.933 0.082-0.388-0.351-0.637-0.139-1.597 1.348-0.195 0.296-0.38 0.534-0.415 0.534-0.046 0-0.277-0.36-0.526-0.812l-0.637-1.017c-0.25-0.267-0.489-0.259-0.563 0.019-0.103 0.37 0.324 2.060 0.988 4.099 0.213 0.637 0.222 0.674 0.065 0.757-0.148 0.074-0.157 0.129-0.065 0.37 0.074 0.203 0.148 0.259 0.267 0.222 0.139-0.037 0.222 0.065 0.433 0.544 0.267 0.591 0.267 0.6 0.12 1.136l-0.157 0.563c0 0.010-0.231-0.037-0.507-0.111-0.84-0.222-0.785-0.288-0.904 1.081l-0.111 1.377c0 0.111 0.12 0.175 0.424 0.222l0.424 0.055-0.065 0.555c-0.055 0.442-0.037 0.591 0.082 0.719 0.157 0.166 0.203 1.173 0.231 4.783l0.010 1.302 0.351 0.111c0.435 0.148 0.665 0.342 0.665 0.591 0 0.12 0.148 0.296 0.397 0.47l1.792 1.311c1.339 0.988 1.403 1.053 1.311 1.255-0.082 0.195-0.065 0.259 0.166 0.489 0.222 0.231 0.24 0.267 0.103 0.296-0.082 0.018-0.38-0.018-0.647-0.074-0.618-0.139-2.743-0.24-2.733-0.129 0 0.046 0.442 0.305 0.988 0.572s0.904 0.415 0.803 0.324l-0.925-0.785 0.544 0.065c0.996 0.12 4.183 0.996 4.397 1.219 0.129 0.129 0.074 0.139-0.507 0.082-1.708-0.157-2.447-0.166-3.62-0.055l-1.394 0.185c-0.166 0.082 1.284 0.185 2.753 0.185 1.155 0 2.539 0.213 5.116 0.785l0.674 0.148-0.157 0.342c-0.25 0.507-0.665 1.949-0.6 2.049zM17.388 2.415c1.292 0.702 2.142 1.385 2.142 1.718-0.010 0.185 0.037 0.25 0.166 0.25 0.103 0 0.25 0.046 0.351 0.103 0.139 0.074 0.175 0.065 0.175-0.028 0-0.185-0.222-0.812-0.572-1.607-0.296-0.683-0.296-0.951 0-0.951 0.231 0 0.36 0.166 0.904 1.109 0.563 0.979 0.925 1.764 1.155 2.568 0.231 0.785 0.333 2.198 0.195 2.604-0.082 0.231-0.074 0.36 0.037 0.627l0.776 2.003c0 0.103-1.856 0.692-2.114 0.692-0.046 0-0.12-0.103-0.157-0.213-0.213-0.692-0.433-1.173-0.544-1.173-0.074 0-0.195-0.12-0.277-0.277-0.166-0.333-0.314-0.407-0.97-0.544-0.342-0.074-0.776-0.288-1.339-0.655-0.647-0.424-0.96-0.563-1.431-0.655-0.333-0.055-0.674-0.148-0.757-0.195-0.213-0.103-0.213-0.324 0.010-0.433 0.195-0.111 2.040-0.277 2.355-0.222 0.139 0.028 0.36-0.055 0.609-0.213 0.424-0.288 0.37-0.415-0.082-0.185-0.433 0.231-0.618 0.185-0.979-0.259-0.185-0.231-0.766-0.794-1.302-1.255-0.933-0.822-1.099-1.062-0.832-1.164 0.157-0.065 0.47 0.103 1.469 0.74l1.311 0.794c0.507 0.288 0.534 0.296 0.37 0.082l-2.188-2.401c-0.442-0.424-0.572-0.776-0.314-0.877 0.203-0.074 0.647 0.195 2.085 1.274 0.859 0.637 1.164 0.84 0.859 0.544-0.48-0.452-1.69-1.377-2.262-1.718-0.166-0.103-0.314-0.277-0.333-0.397-0.055-0.351 0.416-0.25 1.486 0.324zM8.959 3.874c0 0.166-0.185 0.38-0.74 0.84l-0.74 0.637c0 0.010 0.103 0.010 0.195 0.010 0.157-0.010 0.24 0.082 0.37 0.452 0.231 0.665 0.222 0.859-0.065 0.933-0.195 0.046-0.305-0.010-0.6-0.296-0.407-0.397-0.452-0.683-0.148-0.904 0.175-0.12 0.148-0.12-0.148 0.010l-0.36 0.166-0.267-0.324c-0.148-0.175-0.259-0.38-0.24-0.452 0.010-0.065 0.37-0.277 0.803-0.462l1.202-0.581c0.544-0.314 0.74-0.324 0.74-0.028zM5.919 4.954c0.111 0.166 0.534 0.647 0.933 1.053 0.719 0.757 0.84 0.988 0.572 1.089-0.388 0.148-0.832-0.028-1.431-0.563-0.203-0.185-0.388-0.314-0.407-0.288-0.028 0.019-0.065 0.185-0.103 0.36-0.037 0.25-0.028 0.288 0.055 0.148 0.055-0.082 0.139-0.157 0.195-0.157 0.175 0 1.007 0.609 1.007 0.74 0 0.12-2.753 1.755-3.092 1.829-0.166 0.037-1.089-2.817-1.292-3.98-0.046-0.296-0.028-0.342 0.12-0.342 0.213 0 0.498 0.415 1.071 1.541l0.452 0.85c0.019 0 0.019-0.111 0-0.259-0.028-0.185 0.12-0.498 0.618-1.292 0.748-1.173 0.933-1.274 1.302-0.74zM10.509 6.266c0.028 0.213-0.055 0.351-0.378 0.692-0.442 0.462-1.21 1.561-1.541 2.225-0.259 0.517-0.776 1.071-1.219 1.302-0.277 0.139-0.342 0.24-0.397 0.534-0.037 0.203-0.12 0.416-0.185 0.47s-0.195 0.37-0.288 0.702-0.222 0.627-0.288 0.655-0.581-0.065-1.145-0.203l-1.025-0.259 0.046-0.351c0.039-0.242 0.107-0.459 0.201-0.662l-0.006 0.015c0.139-0.277 0.139-0.314-0.195-0.988-0.222-0.462-0.305-0.74-0.25-0.812 0.139-0.203 3.352-2.16 3.537-2.16 0.103 0 0.305-0.103 0.462-0.231 0.424-0.36 2.151-1.229 2.41-1.219 0.185 0.019 0.24 0.074 0.259 0.288zM24.692 11.602c-0.037 0.47-0.082 0.887-0.12 0.925-0.074 0.082-4.294 1.541-4.469 1.541-0.139 0-1.017-1.523-0.96-1.69 0.037-0.111 5.034-1.616 5.401-1.625 0.213-0.010 0.213 0 0.148 0.84zM5.431 12.942l2.455 0.683c0.074 0.065-0.166 1.136-0.305 1.366-0.046 0.074-0.719 0.010-2.512-0.231l-2.493-0.387c-0.037-0.037-0.018-0.507 0.037-1.062 0.082-0.868 0.12-0.988 0.267-0.988 0.103 0 1.246 0.277 2.548 0.618zM14.351 12.72c0.832 0.398 1.302 0.868 1.486 1.477 0.175 0.591 0.185 1.496 0.010 1.654-0.082 0.074-0.111 0.24-0.082 0.452 0.103 0.719-0.407 1.561-1.339 2.198-1.155 0.776-1.448 0.859-3.943 1.118-1.931 0.195-2.216 0.288-2.568 0.74-0.111 0.157-0.259 0.277-0.324 0.277-0.166 0-0.148-0.424 0.028-0.719 0.277-0.48 0.711-0.665 2.327-1.034 1.764-0.407 2.41-0.618 3.223-1.062 0.563-0.314 0.859-0.6 0.859-0.85 0-0.074-0.157-0.010-0.434 0.175-0.766 0.534-1.746 0.812-3.693 1.053-1.136 0.148-2.013 0.407-2.539 0.748-0.37 0.24-0.627 0.288-0.627 0.12 0-0.055 0.231-0.473 0.517-0.925 0.896-1.413 2.419-2.632 3.842-3.084 0.97-0.305 2.753-0.333 3.39-0.046 0.213 0.103 0.37 0.139 0.342 0.103-0.103-0.166-1.118-0.48-1.708-0.526-1.486-0.12-3.482 0.609-4.479 1.633-0.305 0.314-0.794 0.647-0.942 0.647-0.12 0 0.166-0.534 0.776-1.459 1.081-1.616 2.16-2.502 3.444-2.825 1.228-0.305 1.514-0.288 2.438 0.157zM24.185 13.357c0.324 0.333 0.38 0.442 0.333 0.665-0.028 0.148 0 0.324 0.055 0.388 0.065 0.074 0.082 0.259 0.037 0.462-0.065 0.36-0.010 0.351-0.84 0.175-0.175-0.037-0.082 0.046 0.288 0.25 0.526 0.288 0.555 0.324 0.581 0.692 0.028 0.378-0.222 1.081-0.85 2.428-0.129 0.277-0.24 0.618-0.24 0.757 0 0.129-0.046 0.259-0.103 0.277-0.139 0.046-0.342 0.877-0.507 2.022-0.103 0.665-0.222 1.181-0.415 1.607s-0.296 0.85-0.342 1.302c-0.046 0.581-0.082 0.692-0.296 0.85-0.38 0.277-3.298 1.514-3.482 1.477-0.111-0.018-0.259-0.231-0.398-0.581-0.314-0.785-0.341-1.228-0.12-1.671 0.103-0.195 0.24-0.544 0.305-0.766 0.065-0.213 0.175-0.415 0.24-0.442s0.203-0.185 0.314-0.36c0.103-0.175 0.24-0.314 0.305-0.314s0.157 0.288 0.222 0.74c0.065 0.398 0.175 0.868 0.25 1.034 0.129 0.305 0.129 0.296 0.139-0.388 0.018-0.951 0.111-1.422 0.288-1.459 0.12-0.018 0.157 0.074 0.195 0.462 0.032 0.301 0.098 0.576 0.193 0.837l-0.008-0.024c0.129 0.305 0.139 0.288 0.103-0.609-0.018-0.517 0.010-1.21 0.074-1.588 0.129-0.803 0.24-0.84 0.868-0.288 0.231 0.203 0.424 0.342 0.424 0.305 0-0.195-0.627-1.007-0.979-1.256-0.591-0.424-0.534-0.534 0.267-0.534 0.36 0 0.812 0.037 0.988 0.103l0.324 0.082-0.37-0.324c-0.203-0.175-0.555-0.388-0.785-0.473l-0.415-0.148-0.213-0.887c-0.25-1.034-0.25-1.136-0.055-1.69 0.129-0.398 0.129-0.433-0.046-0.719-0.24-0.387-0.24-0.609-0.018-0.942 0.103-0.148 0.148-0.342 0.129-0.442-0.037-0.12 0.018-0.203 0.166-0.267 0.442-0.203 2.808-1.099 2.907-1.099 0.065-0.010 0.277 0.166 0.489 0.38zM17.528 13.949c0.415 0.12 0.627 0.259 1.007 0.637 0.259 0.267 0.555 0.647 0.665 0.859l0.185 0.37-0.203-0.046c-0.111-0.028-0.407-0.157-0.665-0.288-0.38-0.195-0.627-0.25-1.385-0.296l-0.925-0.046-0.028-0.591c-0.018-0.416 0.010-0.618 0.103-0.665 0.195-0.12 0.692-0.103 1.255 0.065zM5.264 15.010c0.785 0.111 1.477 0.25 1.533 0.305s0.195 0.6 0.305 1.202c0.166 0.97 0.175 1.127 0.055 1.255-0.288 0.314-1.246 2.661-1.246 3.038 0 0.074 0.175-0.148 0.397-0.498 0.213-0.36 0.47-0.655 0.563-0.674 0.157-0.037 0.166 0.010 0.12 0.38-0.103 0.692 0.139 1.746 0.48 2.178l0.324 0.38c0.010 0 0.010-0.129-0.019-0.277-0.046-0.314 0.148-0.38 0.36-0.129 0.065 0.082 0.342 0.277 0.609 0.424 0.572 0.324 0.627 0.498 0.563 1.644l-0.046 0.719 0.277-0.333 0.388-0.517c0.103-0.129 0.185-0.157 0.37-0.111 0.267 0.065 1.155 0.85 1.155 1.017 0 0.055-0.082 0.259-0.175 0.433-0.148 0.267-0.175 0.452-0.129 0.84 0.046 0.452 0.028 0.526-0.195 0.748-0.129 0.129-0.24 0.288-0.24 0.342 0 0.046-0.074 0.103-0.157 0.103-0.288 0-2.059-0.507-2.059-0.581 0-0.046-0.065-0.222-0.148-0.398s-0.129-0.442-0.111-0.6c0.046-0.277 0-0.324-1.164-1.192l-1.746-1.246c-0.581-0.388-0.933-0.868-0.877-1.192 0.037-0.166 0.010-0.203-0.148-0.175-0.111 0.028-0.314-0.010-0.462-0.065l-0.267-0.103 0.065-0.665c0.074-0.627 0.116-1.354 0.116-2.090 0-0.532-0.022-1.059-0.065-1.58l0.005 0.068c-0.065-1.034-0.148-1.625-0.231-1.755-0.175-0.277-0.018-1.081 0.213-1.081 0.082 0 0.803 0.103 1.588 0.195zM17.897 15.416c0.581 0.175 1.616 0.803 1.81 1.109 0.288 0.424 0.157 0.618-0.25 0.398-0.129-0.065-0.046 0.065 0.195 0.333 0.407 0.442 0.711 1.017 0.776 1.44 0.018 0.195-0.010 0.24-0.24 0.259-0.157 0.018-0.627-0.082-1.053-0.222-0.674-0.213-1.219-0.526-2.024-1.173-0.065-0.046-0.12-0.065-0.12-0.037 0 0.037 0.314 0.324 0.692 0.655 0.6 0.507 0.785 0.609 1.32 0.74 0.48 0.111 1.875 0.333 2.106 0.333 0.018 0 0.037 0.055 0.037 0.12 0 0.166-2.465 0.296-2.973 0.157-0.925-0.259-1.875-0.84-2.216-1.366-0.111-0.166-0.166-0.424-0.166-0.757 0-0.563 0.103-0.794 0.305-0.711 0.111 0.037 0.12-0.028 0.082-0.351-0.018-0.222-0.010-0.555 0.018-0.719l0.065-0.333h0.581c0.314 0 0.794 0.065 1.053 0.139zM16.087 18.601c0.48 0.683 2.428 1.939 3.028 1.939 0.165 0.008 0.311 0.081 0.415 0.194l0 0c0.148 0.157 0.157 0.231 0.065 0.48-0.103 0.277-0.103 0.288 0.037 0.111 0.074-0.103 0.166-0.296 0.195-0.442 0.037-0.185 0.103-0.25 0.267-0.25 0.267 0 0.288 0.213 0.082 0.719-0.213 0.489-0.498 0.757-0.803 0.757-0.203 0-0.305 0.065-0.424 0.288-0.288 0.526-0.702 0.942-1.173 1.164-0.452 0.203-0.452 0.213-0.111 0.157 0.398-0.065 0.407-0.037 0.166 0.618-0.572 1.496-1.726 2.244-3.611 2.355-0.748 0.046-0.803 0.037-1.256-0.231-0.351-0.203-0.555-0.406-0.757-0.766-0.288-0.507-1.377-1.607-2.032-2.031-0.213-0.139-0.462-0.415-0.572-0.618-0.148-0.296-0.25-0.38-0.507-0.433-0.37-0.065-0.655-0.388-0.96-1.053-0.305-0.674-0.267-0.877 0.25-1.202 0.627-0.398 1.181-0.534 2.548-0.647 1.292-0.103 2.068-0.259 2.613-0.534 0.175-0.091 0.381-0.173 0.595-0.235l0.024-0.006c0.25-0.065 0.259-0.055 0.148 0.103-0.065 0.103-0.231 0.259-0.36 0.37l-0.231 0.203 0.351-0.082c0.462-0.103 1.044-0.517 1.329-0.942 0.12-0.195 0.277-0.351 0.333-0.351 0.055 0.010 0.213 0.175 0.351 0.37zM12.042 25.766c0.148 0.24 0.48 0.563 0.766 0.757 0.555 0.37 0.534 0.424-0.222 0.526-0.84 0.111-0.572 0.25 0.342 0.175 0.591-0.046 0.832-0.028 0.832 0.046-0.001 0.056-0.046 0.101-0.102 0.102h-0c-0.203 0-1.625 0.74-1.847 0.96-0.351 0.341-0.637 0.24-0.637-0.231 0-0.195-0.046-0.452-0.103-0.581-0.103-0.195-0.074-0.277 0.111-0.534 0.148-0.203 0.222-0.442 0.231-0.719 0.010-0.424 0.166-0.925 0.288-0.925 0.046 0 0.195 0.195 0.342 0.424zM17.823 26.201c0.166 0.424 0.185 0.555 0.103 0.665-0.074 0.103-0.103 0.277-0.055 0.534 0.055 0.36 0.037 0.415-0.175 0.526-0.203 0.111-0.277 0.103-0.627-0.065-0.262-0.126-0.595-0.26-0.937-0.377l-0.070-0.021c-0.637-0.203-0.812-0.37-0.406-0.37 0.12 0 0.563 0.103 0.988 0.222 0.424 0.129 0.794 0.213 0.812 0.195 0.185-0.185-0.683-0.6-1.256-0.6-0.314 0-0.259-0.157 0.111-0.277 0.185-0.065 0.507-0.314 0.757-0.6 0.24-0.267 0.47-0.462 0.498-0.424 0.028 0.028 0.148 0.296 0.267 0.591zM15.645 27.697c0.288 0.129 0.517 0.25 0.517 0.267s-0.296 0.277-0.647 0.563l-0.655 0.534-0.803-0.38c-0.442-0.213-0.925-0.407-1.071-0.442-0.222-0.055-0.24-0.074-0.111-0.148 0.351-0.195 1.246-0.48 1.718-0.534l0.517-0.082c0.010 0 0.25 0.103 0.534 0.222zM13.613 20.328l-0.277 0.342-0.97-0.111c-1.385-0.157-1.681-0.148-1.893 0.082l-0.175 0.203 0.324-0.055c0.544-0.082 2.419 0.195 2.623 0.388 0.24 0.24 0.324 1.329 0.12 1.561-0.139 0.148-0.12 0.185 0.267 0.498 0.231 0.185 0.47 0.324 0.544 0.296 0.148-0.055 0.904-1.053 0.803-1.053-0.037 0-0.24 0.166-0.434 0.37s-0.407 0.37-0.47 0.37c-0.24 0-0.36-0.314-0.36-0.925 0-0.406-0.055-0.719-0.166-0.951-0.175-0.342-0.175-0.342 0.055-0.647 0.203-0.267 0.407-0.719 0.324-0.719-0.018 0-0.157 0.157-0.314 0.342zM14.168 20.383c0.046 0.38 0.259 0.618 0.683 0.794 0.139 0.055 0.305 0.222 0.37 0.37 0.082 0.195 0.213 0.288 0.555 0.37 0.85 0.222 1.007 0.231 1.181 0.018 0.103-0.111 0.222-0.195 0.277-0.195 0.065 0 0.139-0.065 0.166-0.148 0.055-0.129 0.028-0.129-0.195 0.018-0.38 0.25-1.561 0.25-1.746 0-0.213-0.288-0.157-0.351 0.25-0.296 0.351 0.046 1.321-0.148 1.486-0.305 0.037-0.028-0.277-0.037-0.692-0.028-0.415 0.018-1.044-0.010-1.385-0.074-0.618-0.111-0.637-0.12-0.812-0.498l-0.175-0.38 0.037 0.351zM10.322 21.452c0.411-0.32 0.949-0.148 1.41-0.080 0.36-0.066 0.723-0.134 1.095-0.092l0.207 0.123-0.74 0.090c-0.269 0.123-0.521 0.308-0.835 0.26-0.115-0.072-0.228-0.148-0.332-0.234-0.264-0.072-0.538-0.041-0.808-0.066zM14.654 23.681c0.31 0.010 0.63 0.002 0.894-0.185 0.029 0.104 0.076 0.195 0.138 0.273l-0.001-0.002-0.257 0.058c-0.483-0.187-0.908 0.242-1.381 0.269-0.158-0.015-0.277-0.118-0.387-0.223-0.188-0.008-0.385-0.031-0.555 0.069-0.257 0.137-0.546 0.117-0.827 0.106l0.277-0.275 0.475-0.010 0.175-0.182c0.284-0.037 0.569 0.056 0.75 0.282 0.257 0.048 0.466-0.113 0.699-0.182zM13.876 24.424c0.211-0.005 0.416-0.051 0.619-0.098 0.296 0.039 0.557 0.166 0.762 0.353l-0.001-0.001-0.549-0.090c-0.48-0.214-0.93 0.164-1.361 0.335-0.134 0.244-0.247 0.503-0.249 0.789l-0.175-0.188c-0.015-0.308 0.038-0.693 0.331-0.879 0.198-0.096 0.414-0.151 0.621-0.223z"></path>
</svg>
