<!-- Generated by IcoMoon.io -->
<svg version="1.1" xmlns="http://www.w3.org/2000/svg" width="32" height="32" viewBox="0 0 32 32">
<title>compass</title>
<path d="M21.608 2.34c-4.859 0.79-9.977 2.233-13.101 3.692-3.503 1.632-5.89 4.447-7.057 8.328-0.377 1.305-0.447 1.871-0.447 3.606-0.017 4.052 1.391 7.229 4.379 9.96 2.455 2.232 5.46 3.383 8.878 3.383 5.203 0 9.771-2.799 11.934-7.314 1.941-4.052 3.76-11.504 4.447-18.133 0.36-3.593 0.451-4.308 0.256-4.433-0.065-0.042-0.161-0.019-0.291-0.014-0.257 0-7.865 0.669-8.998 0.928zM14.5 10.531c0.051 0.224 0.189 1.546 0.309 2.97 0.103 1.408 0.224 2.61 0.24 2.645 0.035 0.035 0.533-0.377 1.116-0.91 1.391-1.305 2.851-2.387 3.073-2.301 0.257 0.086-0.636 1.356-2.095 2.97l-1.237 1.373 2.146 0.103c5.169 0.257 5.46 0.858 0.584 1.219l-2.626 0.189 1.288 1.477c1.442 1.632 2.215 2.712 2.060 2.867-0.138 0.138-1.373-0.739-2.953-2.13l-1.373-1.202-0.206 2.61c-0.206 2.679-0.463 3.846-0.739 3.365-0.189-0.36-0.515-3.314-0.515-4.808 0-0.653-0.068-1.202-0.138-1.202s-0.412 0.274-0.739 0.618c-1.237 1.288-3.589 3.039-3.589 2.679 0-0.292 0.945-1.562 2.163-2.902l1.237-1.356-2.61-0.206c-2.833-0.241-3.537-0.344-3.537-0.549 0-0.327 2.404-0.669 4.602-0.687 0.772 0 1.408-0.052 1.408-0.138 0-0.068-0.549-0.738-1.202-1.494-2.97-3.383-2.558-3.76 0.825-0.772 0.755 0.652 1.426 1.202 1.477 1.202s0.103-0.566 0.103-1.253c0-1.288 0.257-3.863 0.43-4.431 0.138-0.447 0.36-0.412 0.498 0.051z"></path>
</svg>
