<!-- Generated by IcoMoon.io -->
<svg version="1.1" xmlns="http://www.w3.org/2000/svg" width="27" height="32" viewBox="0 0 27 32">
<title>composer</title>
<path d="M13.96 30.326c0.557-0.26 0.962-0.63 0.962-0.9 0-0.108 1.43-1.537 1.618-1.618 0.027-0.010 0.216 0.045 0.396 0.117l0.342 0.144-0.638 0.404c-0.35 0.216-0.674 0.396-0.728 0.396zM16.71 28.789l0.61-0.306c1.232-0.62 4.557-1.762 5.816-2.005 0.557-0.1 0.43-0.19-0.153-0.108-0.306 0.036-0.61 0.1-0.683 0.117-0.252 0.1 0.198-0.315 0.737-0.683 0.297-0.19 0.467-0.35 0.387-0.35-0.43 0-4.324 1.555-5.060 2.030-0.28 0.18-0.297 0.17-0.297-0.216 0-0.324 0.027-0.342 0.61-0.665 0.512-0.28 3.658-1.7 3.766-1.7 0.018 0-0.072 0.19-0.207 0.422l-0.252 0.43 0.683-0.63 0.692-0.683c0-0.036-0.216-0.010-0.485 0.054s-0.512 0.1-0.53 0.054c-0.1-0.144 0.117-1.17 0.306-1.537 0.108-0.216 0.252-0.72 0.315-1.115 0.26-1.564 0.584-2.83 0.944-3.694 0.764-1.807 0.836-2.076 0.72-2.58-0.063-0.243-0.1-0.557-0.054-0.7 0.008-0.050 0.012-0.108 0.012-0.167 0-0.117-0.018-0.229-0.051-0.335l0.002 0.008c-0.063-0.17-0.063-0.28 0.010-0.36 0.080-0.108 0.027-0.225-0.28-0.584-0.207-0.243-0.37-0.458-0.35-0.467 0.018-0.018 0.18-0.1 0.35-0.162l0.315-0.144 0.1-1.23 0.080-1.223c-0.514 0.142-0.81 0.234-1.105 0.331l0.215-0.061-0.99 0.27c-0.126 0-0.243-0.234-0.63-1.312-0.252-0.683-0.297-0.9-0.252-1.348 0.054-0.62-0.162-2.050-0.43-2.85-0.36-1.080-1.492-3.038-1.86-3.2-0.315-0.153-0.54-0.117-0.656 0.1-0.117 0.225-0.108 0.252 0.315 1.23l0.324 0.755-0.557-0.44c-1.25-0.97-2.454-1.627-3.137-1.708-0.432-0.054-0.45-0.045-0.548 0.225-0.063 0.153-0.18 0.297-0.27 0.315-0.117 0.036-0.162 0.135-0.162 0.386 0 0.315 0.072 0.405 0.926 1.222l0.845 0.88c-0.036 0-0.387-0.207-0.764-0.467-0.566-0.378-0.764-0.467-1.088-0.476-0.755 0-0.737 0.52 0.036 1.070 0.435 0.341 0.822 0.691 1.184 1.067l0.003 0.003 0.7 0.72-0.63 0.108c-0.99 0.18-1.384 0.306-1.483 0.503-0.19 0.35-0.072 0.45 0.97 0.79 0.557 0.19 1.097 0.422 1.213 0.52 0.475 0.396 1.025 0.724 1.623 0.957l0.040 0.014c0.315 0.1 0.512 0.225 0.575 0.36 0.070 0.132 0.174 0.236 0.302 0.304l0.004 0.002c0.144 0.063 0.252 0.234 0.36 0.593 0.080 0.28 0.126 0.53 0.1 0.557-0.027 0.018-0.396 0.153-0.818 0.28l-0.773 0.243 0.656 1.168c0.602 1.088 0.665 1.17 0.9 1.142 0.297-0.027 0.297-0.027 0.045 0.396l-0.198 0.333 0.207 0.378c0.135 0.26 0.18 0.458 0.144 0.584-0.054 0.17-0.1 0.144-0.27-0.243-0.234-0.503-0.872-1.34-1.258-1.663-0.665-0.54-0.944-0.647-1.807-0.656l-0.81-0.018-0.422-0.405c-0.271-0.254-0.578-0.475-0.912-0.654l-0.023-0.011c-0.494-0.243-0.584-0.26-1.645-0.26h-1.124l-0.854 0.45c-1.097 0.566-2.23 1.68-2.94 2.876-0.26 0.44-0.476 0.755-0.476 0.7l-0.080-0.458c-0.072-0.368-0.072-0.377 0.198-0.405 0.26-0.027 0.28-0.054 0.467-0.836l0.26-0.998c0.054-0.18 0-0.207-0.755-0.396-0.61-0.153-0.81-0.234-0.81-0.35 0-0.28 0.26-1.106 0.386-1.258 0.072-0.080 0.153-0.225 0.17-0.324s0.207-0.28 0.44-0.405c0.63-0.342 0.665-0.386 1.32-1.654 0.476-0.926 0.737-1.32 1.25-1.87l0.656-0.773c0-0.153-0.37-0.557-0.503-0.557-0.27 0-0.072-0.162 1.15-0.944 1.61-1.016 1.654-1.060 1.5-1.178-0.1-0.080-0.647 0.225-2.328 1.276l-2.258 1.384c-0.027 0-0.135-0.27-0.243-0.593l-0.19-0.584 0.62-0.584c0.656-0.62 0.8-0.863 0.63-1.070-0.080-0.1-0.243-0.054-0.926 0.28-0.458 0.225-1.16 0.503-1.573 0.638-0.692 0.216-0.755 0.216-0.908 0.080-0.378-0.342-0.62-0.135-1.555 1.312-0.19 0.288-0.37 0.52-0.404 0.52-0.045 0-0.27-0.35-0.512-0.79l-0.62-0.99c-0.243-0.26-0.476-0.252-0.548 0.018-0.1 0.36 0.315 2.005 0.962 3.99 0.207 0.62 0.216 0.656 0.063 0.737-0.144 0.072-0.153 0.126-0.063 0.36 0.072 0.198 0.144 0.252 0.26 0.216 0.135-0.036 0.216 0.063 0.422 0.53 0.26 0.575 0.26 0.584 0.117 1.106l-0.153 0.548c0 0.010-0.225-0.036-0.494-0.108-0.818-0.216-0.764-0.28-0.88 1.052l-0.108 1.34c0 0.108 0.117 0.17 0.413 0.216l0.413 0.054-0.063 0.54c-0.054 0.43-0.036 0.575 0.080 0.7 0.153 0.162 0.198 1.142 0.225 4.656l0.010 1.267 0.342 0.108c0.423 0.144 0.647 0.333 0.647 0.575 0 0.117 0.144 0.288 0.386 0.458l1.744 1.276c1.303 0.962 1.366 1.025 1.276 1.222-0.080 0.19-0.063 0.252 0.162 0.476 0.216 0.225 0.234 0.26 0.1 0.288-0.080 0.018-0.37-0.018-0.63-0.072-0.602-0.135-2.67-0.234-2.66-0.126 0 0.045 0.43 0.297 0.962 0.557s0.88 0.404 0.782 0.315l-0.9-0.764 0.53 0.063c0.97 0.117 4.072 0.97 4.28 1.187 0.126 0.126 0.072 0.135-0.494 0.080-1.663-0.153-2.382-0.162-3.524-0.054l-1.357 0.18c-0.162 0.080 1.25 0.18 2.68 0.18 1.124 0 2.472 0.207 4.98 0.764l0.656 0.144-0.153 0.333c-0.243 0.494-0.647 1.897-0.584 1.995zM17.285 2.776c1.258 0.683 2.085 1.348 2.085 1.672-0.010 0.18 0.036 0.243 0.162 0.243 0.1 0 0.243 0.045 0.342 0.1 0.135 0.072 0.17 0.063 0.17-0.027 0-0.18-0.216-0.79-0.557-1.564-0.288-0.665-0.288-0.926 0-0.926 0.225 0 0.35 0.162 0.88 1.080 0.548 0.953 0.9 1.717 1.124 2.5 0.225 0.764 0.324 2.14 0.19 2.535-0.080 0.225-0.072 0.35 0.036 0.61l0.755 1.95c0 0.1-1.807 0.674-2.058 0.674-0.045 0-0.117-0.1-0.153-0.207-0.207-0.674-0.422-1.142-0.53-1.142-0.072 0-0.19-0.117-0.27-0.27-0.162-0.324-0.306-0.396-0.944-0.53-0.333-0.072-0.755-0.28-1.303-0.638-0.63-0.413-0.935-0.548-1.393-0.638-0.324-0.054-0.656-0.144-0.737-0.19-0.207-0.1-0.207-0.315 0.010-0.422 0.19-0.108 1.986-0.27 2.292-0.216 0.135 0.027 0.35-0.054 0.593-0.207 0.413-0.28 0.36-0.404-0.080-0.18-0.422 0.225-0.602 0.18-0.953-0.252-0.18-0.225-0.746-0.773-1.267-1.222-0.908-0.8-1.070-1.034-0.81-1.133 0.153-0.063 0.458 0.1 1.43 0.72l1.276 0.773c0.494 0.28 0.52 0.288 0.36 0.080l-2.13-2.337c-0.43-0.413-0.557-0.755-0.306-0.854 0.198-0.072 0.63 0.19 2.030 1.24 0.836 0.62 1.133 0.818 0.836 0.53-0.467-0.44-1.645-1.34-2.202-1.672-0.162-0.1-0.306-0.27-0.324-0.386-0.054-0.342 0.405-0.243 1.447 0.315zM9.080 4.196c0 0.162-0.18 0.37-0.72 0.818l-0.72 0.62c0 0.010 0.1 0.010 0.19 0.010 0.153-0.010 0.234 0.080 0.36 0.44 0.225 0.647 0.216 0.836-0.063 0.908-0.19 0.045-0.297-0.010-0.584-0.288-0.396-0.386-0.44-0.665-0.144-0.88 0.17-0.117 0.144-0.117-0.144 0.010l-0.35 0.162-0.26-0.315c-0.144-0.17-0.252-0.37-0.234-0.44 0.010-0.063 0.36-0.27 0.782-0.45l1.17-0.566c0.53-0.306 0.72-0.315 0.72-0.027zM6.12 5.247c0.108 0.162 0.52 0.63 0.908 1.025 0.7 0.737 0.818 0.962 0.557 1.060-0.378 0.144-0.81-0.027-1.393-0.548-0.198-0.18-0.378-0.306-0.396-0.28-0.027 0.018-0.063 0.18-0.1 0.35-0.036 0.243-0.027 0.28 0.054 0.144 0.054-0.080 0.135-0.153 0.19-0.153 0.17 0 0.98 0.593 0.98 0.72 0 0.117-2.68 1.708-3.010 1.78-0.162 0.036-1.060-2.742-1.258-3.874-0.045-0.288-0.027-0.333 0.117-0.333 0.207 0 0.485 0.404 1.043 1.5l0.44 0.827c0.018 0 0.018-0.108 0-0.252-0.027-0.18 0.117-0.485 0.602-1.258 0.728-1.142 0.908-1.24 1.267-0.72zM10.588 6.524c0.027 0.207-0.054 0.342-0.368 0.674-0.43 0.45-1.178 1.52-1.5 2.166-0.252 0.503-0.755 1.043-1.187 1.267-0.27 0.135-0.333 0.234-0.386 0.52-0.036 0.198-0.117 0.405-0.18 0.458s-0.19 0.36-0.28 0.683-0.216 0.61-0.28 0.638-0.566-0.063-1.115-0.198l-0.998-0.252 0.045-0.342c0.038-0.235 0.104-0.447 0.195-0.644l-0.006 0.015c0.135-0.27 0.135-0.306-0.19-0.962-0.216-0.45-0.297-0.72-0.243-0.79 0.135-0.198 3.263-2.103 3.443-2.103 0.1 0 0.297-0.1 0.45-0.225 0.413-0.35 2.094-1.196 2.346-1.187 0.18 0.018 0.234 0.072 0.252 0.28zM24.395 11.719c-0.036 0.458-0.080 0.863-0.117 0.9-0.072 0.080-4.18 1.5-4.35 1.5-0.135 0-0.99-1.483-0.935-1.645 0.036-0.108 4.9-1.573 5.258-1.582 0.207-0.010 0.207 0 0.144 0.818zM5.645 13.023l2.39 0.665c0.072 0.063-0.162 1.106-0.297 1.33-0.045 0.072-0.7 0.010-2.445-0.225l-2.427-0.377c-0.036-0.036-0.018-0.494 0.036-1.034 0.080-0.845 0.117-0.962 0.26-0.962 0.1 0 1.213 0.27 2.48 0.602zM14.328 12.807c0.81 0.387 1.267 0.845 1.447 1.438 0.17 0.575 0.18 1.456 0.010 1.61-0.080 0.072-0.108 0.234-0.080 0.44 0.1 0.7-0.396 1.52-1.303 2.14-1.124 0.755-1.41 0.836-3.838 1.088-1.88 0.19-2.157 0.28-2.5 0.72-0.108 0.153-0.252 0.27-0.315 0.27-0.162 0-0.144-0.413 0.027-0.7 0.27-0.467 0.692-0.647 2.265-1.007 1.717-0.396 2.346-0.602 3.137-1.034 0.548-0.306 0.836-0.584 0.836-0.827 0-0.072-0.153-0.010-0.422 0.17-0.746 0.52-1.7 0.79-3.595 1.025-1.106 0.144-1.96 0.396-2.472 0.728-0.36 0.234-0.61 0.28-0.61 0.117 0-0.054 0.225-0.46 0.503-0.9 0.872-1.375 2.355-2.562 3.74-3.002 0.944-0.297 2.68-0.324 3.3-0.045 0.207 0.1 0.36 0.135 0.333 0.1-0.1-0.162-1.088-0.467-1.663-0.512-1.447-0.117-3.39 0.593-4.36 1.59-0.297 0.306-0.773 0.63-0.917 0.63-0.117 0 0.162-0.52 0.755-1.42 1.052-1.573 2.103-2.436 3.353-2.75 1.195-0.297 1.474-0.28 2.373 0.153zM23.901 13.427c0.315 0.324 0.37 0.43 0.324 0.647-0.027 0.144 0 0.315 0.054 0.378 0.063 0.072 0.080 0.252 0.036 0.45-0.063 0.35-0.010 0.342-0.818 0.17-0.17-0.036-0.080 0.045 0.28 0.243 0.512 0.28 0.54 0.315 0.566 0.674 0.027 0.368-0.216 1.052-0.827 2.364-0.126 0.27-0.234 0.602-0.234 0.737 0 0.126-0.045 0.252-0.1 0.27-0.135 0.045-0.333 0.854-0.494 1.968-0.1 0.647-0.216 1.15-0.404 1.564s-0.288 0.827-0.333 1.267c-0.045 0.566-0.080 0.674-0.288 0.827-0.37 0.27-3.21 1.474-3.39 1.438-0.108-0.018-0.252-0.225-0.387-0.566-0.306-0.764-0.332-1.195-0.117-1.627 0.1-0.19 0.234-0.53 0.297-0.746 0.063-0.207 0.17-0.404 0.234-0.43s0.198-0.18 0.306-0.35c0.1-0.17 0.234-0.306 0.297-0.306s0.153 0.28 0.216 0.72c0.063 0.387 0.17 0.845 0.243 1.007 0.126 0.297 0.126 0.288 0.135-0.378 0.018-0.926 0.108-1.384 0.28-1.42 0.117-0.018 0.153 0.072 0.19 0.45 0.032 0.293 0.095 0.561 0.188 0.815l-0.008-0.024c0.126 0.297 0.135 0.28 0.1-0.593-0.018-0.503 0.010-1.178 0.072-1.546 0.126-0.782 0.234-0.818 0.845-0.28 0.225 0.198 0.413 0.333 0.413 0.297 0-0.19-0.61-0.98-0.953-1.223-0.575-0.413-0.52-0.52 0.26-0.52 0.35 0 0.79 0.036 0.962 0.1l0.315 0.080-0.36-0.315c-0.198-0.17-0.54-0.378-0.764-0.46l-0.404-0.144-0.207-0.863c-0.243-1.007-0.243-1.106-0.054-1.645 0.126-0.387 0.126-0.422-0.045-0.7-0.234-0.377-0.234-0.593-0.018-0.917 0.1-0.144 0.144-0.333 0.126-0.43-0.036-0.117 0.018-0.198 0.162-0.26 0.43-0.198 2.733-1.070 2.83-1.070 0.063-0.010 0.27 0.162 0.476 0.37zM17.421 14.003c0.404 0.117 0.61 0.252 0.98 0.62 0.252 0.26 0.54 0.63 0.647 0.836l0.18 0.36-0.198-0.045c-0.108-0.027-0.396-0.153-0.647-0.28-0.37-0.19-0.61-0.243-1.348-0.288l-0.9-0.045-0.027-0.575c-0.018-0.405 0.010-0.602 0.1-0.647 0.19-0.117 0.674-0.1 1.222 0.063zM5.483 15.036c0.764 0.108 1.438 0.243 1.492 0.297s0.19 0.584 0.297 1.17c0.162 0.944 0.17 1.097 0.054 1.222-0.28 0.306-1.213 2.59-1.213 2.957 0 0.072 0.17-0.144 0.386-0.485 0.207-0.35 0.458-0.638 0.548-0.656 0.153-0.036 0.162 0.010 0.117 0.37-0.1 0.674 0.135 1.7 0.467 2.12l0.315 0.37c0.010 0 0.010-0.126-0.018-0.27-0.045-0.306 0.144-0.37 0.35-0.126 0.063 0.080 0.333 0.27 0.593 0.413 0.557 0.315 0.61 0.485 0.548 1.6l-0.045 0.7 0.27-0.324 0.378-0.503c0.1-0.126 0.18-0.153 0.36-0.108 0.26 0.063 1.124 0.827 1.124 0.99 0 0.054-0.080 0.252-0.17 0.422-0.144 0.26-0.17 0.44-0.126 0.818 0.045 0.44 0.027 0.512-0.19 0.728-0.126 0.126-0.234 0.28-0.234 0.333 0 0.045-0.072 0.1-0.153 0.1-0.28 0-2.004-0.494-2.004-0.566 0-0.045-0.063-0.216-0.144-0.387s-0.126-0.43-0.108-0.584c0.045-0.27 0-0.315-1.133-1.16l-1.7-1.213c-0.566-0.378-0.908-0.845-0.854-1.16 0.036-0.162 0.010-0.198-0.144-0.17-0.108 0.027-0.306-0.010-0.45-0.063l-0.26-0.1 0.063-0.647c0.072-0.61 0.113-1.318 0.113-2.034 0-0.518-0.021-1.031-0.064-1.538l0.004 0.066c-0.063-1.007-0.144-1.582-0.225-1.708-0.17-0.27-0.018-1.052 0.207-1.052 0.080 0 0.782 0.1 1.546 0.19zM17.78 15.432c0.566 0.17 1.573 0.782 1.762 1.080 0.28 0.413 0.153 0.602-0.243 0.387-0.126-0.063-0.045 0.063 0.19 0.324 0.396 0.43 0.692 0.99 0.755 1.402 0.018 0.19-0.010 0.234-0.234 0.252-0.153 0.018-0.61-0.080-1.025-0.216-0.656-0.207-1.187-0.512-1.97-1.142-0.063-0.045-0.117-0.063-0.117-0.036 0 0.036 0.306 0.315 0.674 0.638 0.584 0.494 0.764 0.593 1.285 0.72 0.467 0.108 1.825 0.324 2.050 0.324 0.018 0 0.036 0.054 0.036 0.117 0 0.162-2.4 0.288-2.894 0.153-0.9-0.252-1.825-0.818-2.157-1.33-0.108-0.162-0.162-0.413-0.162-0.737 0-0.548 0.1-0.773 0.297-0.692 0.108 0.036 0.117-0.027 0.080-0.342-0.018-0.216-0.010-0.54 0.018-0.7l0.063-0.324h0.566c0.306 0 0.773 0.063 1.025 0.135zM16.018 18.532c0.467 0.665 2.364 1.888 2.948 1.888 0.16 0.008 0.302 0.079 0.404 0.189l0 0c0.144 0.153 0.153 0.225 0.063 0.467-0.1 0.27-0.1 0.28 0.036 0.108 0.072-0.1 0.162-0.288 0.19-0.43 0.036-0.18 0.1-0.243 0.26-0.243 0.26 0 0.28 0.207 0.080 0.7-0.207 0.476-0.485 0.737-0.782 0.737-0.198 0-0.297 0.063-0.413 0.28-0.28 0.512-0.683 0.917-1.142 1.133-0.44 0.198-0.44 0.207-0.108 0.153 0.387-0.063 0.396-0.036 0.162 0.602-0.557 1.456-1.68 2.184-3.515 2.292-0.728 0.045-0.782 0.036-1.223-0.225-0.342-0.198-0.54-0.395-0.737-0.746-0.28-0.494-1.34-1.564-1.978-1.977-0.207-0.135-0.45-0.404-0.557-0.602-0.144-0.288-0.243-0.37-0.494-0.422-0.36-0.063-0.638-0.378-0.935-1.025-0.297-0.656-0.26-0.854 0.243-1.17 0.61-0.387 1.15-0.52 2.48-0.63 1.258-0.1 2.013-0.252 2.544-0.52 0.171-0.089 0.371-0.169 0.579-0.228l0.023-0.006c0.243-0.063 0.252-0.054 0.144 0.1-0.063 0.1-0.225 0.252-0.35 0.36l-0.225 0.198 0.342-0.080c0.45-0.1 1.016-0.503 1.294-0.917 0.117-0.19 0.27-0.342 0.324-0.342 0.054 0.010 0.207 0.17 0.342 0.36zM12.081 25.507c0.144 0.234 0.467 0.548 0.746 0.737 0.54 0.36 0.52 0.413-0.216 0.512-0.818 0.108-0.557 0.243 0.333 0.17 0.575-0.045 0.81-0.027 0.81 0.045-0.001 0.054-0.045 0.098-0.099 0.099h-0c-0.198 0-1.582 0.72-1.798 0.935-0.342 0.332-0.62 0.234-0.62-0.225 0-0.19-0.045-0.44-0.1-0.566-0.1-0.19-0.072-0.27 0.108-0.52 0.144-0.198 0.216-0.43 0.225-0.7 0.010-0.413 0.162-0.9 0.28-0.9 0.045 0 0.19 0.19 0.333 0.413zM17.708 25.93c0.162 0.413 0.18 0.54 0.1 0.647-0.072 0.1-0.1 0.27-0.054 0.52 0.054 0.35 0.036 0.404-0.17 0.512-0.198 0.108-0.27 0.1-0.61-0.063-0.255-0.122-0.579-0.253-0.912-0.367l-0.068-0.020c-0.62-0.198-0.79-0.36-0.395-0.36 0.117 0 0.548 0.1 0.962 0.216 0.413 0.126 0.773 0.207 0.79 0.19 0.18-0.18-0.665-0.584-1.223-0.584-0.306 0-0.252-0.153 0.108-0.27 0.18-0.063 0.494-0.306 0.737-0.584 0.234-0.26 0.458-0.45 0.485-0.413 0.027 0.027 0.144 0.288 0.26 0.575zM15.588 27.386c0.28 0.126 0.503 0.243 0.503 0.26s-0.288 0.27-0.63 0.548l-0.638 0.52-0.782-0.37c-0.43-0.207-0.9-0.396-1.043-0.43-0.216-0.054-0.234-0.072-0.108-0.144 0.342-0.19 1.213-0.467 1.672-0.52l0.503-0.080c0.010 0 0.243 0.1 0.52 0.216zM13.61 20.213l-0.27 0.333-0.944-0.108c-1.348-0.153-1.636-0.144-1.843 0.080l-0.17 0.198 0.315-0.054c0.53-0.080 2.355 0.19 2.553 0.378 0.234 0.234 0.315 1.294 0.117 1.52-0.135 0.144-0.117 0.18 0.26 0.485 0.225 0.18 0.458 0.315 0.53 0.288 0.144-0.054 0.88-1.025 0.782-1.025-0.036 0-0.234 0.162-0.422 0.36s-0.396 0.36-0.458 0.36c-0.234 0-0.35-0.306-0.35-0.9 0-0.395-0.054-0.7-0.162-0.926-0.17-0.333-0.17-0.333 0.054-0.63 0.198-0.26 0.396-0.7 0.315-0.7-0.018 0-0.153 0.153-0.306 0.333zM14.15 20.267c0.045 0.37 0.252 0.602 0.665 0.773 0.135 0.054 0.297 0.216 0.36 0.36 0.080 0.19 0.207 0.28 0.54 0.36 0.827 0.216 0.98 0.225 1.15 0.018 0.1-0.108 0.216-0.19 0.27-0.19 0.063 0 0.135-0.063 0.162-0.144 0.054-0.126 0.027-0.126-0.19 0.018-0.37 0.243-1.52 0.243-1.7 0-0.207-0.28-0.153-0.342 0.243-0.288 0.342 0.045 1.286-0.144 1.447-0.297 0.036-0.027-0.27-0.036-0.674-0.027-0.404 0.018-1.016-0.010-1.348-0.072-0.602-0.108-0.62-0.117-0.79-0.485l-0.17-0.37 0.036 0.342zM10.406 21.307c0.4-0.312 0.924-0.144 1.373-0.078 0.35-0.064 0.704-0.13 1.066-0.090l0.202 0.12-0.72 0.088c-0.262 0.12-0.507 0.3-0.813 0.253-0.112-0.070-0.222-0.144-0.323-0.228-0.257-0.070-0.524-0.040-0.787-0.064zM14.623 23.477c0.302 0.010 0.613 0.002 0.87-0.18 0.028 0.101 0.074 0.19 0.134 0.265l-0.001-0.001-0.25 0.056c-0.47-0.182-0.884 0.236-1.344 0.262-0.154-0.015-0.27-0.115-0.377-0.217-0.183-0.008-0.375-0.030-0.54 0.067-0.25 0.133-0.532 0.114-0.805 0.103l0.27-0.268 0.462-0.010 0.17-0.177c0.276-0.036 0.554 0.055 0.73 0.275 0.25 0.047 0.454-0.11 0.68-0.177zM13.866 24.2c0.205-0.005 0.405-0.050 0.603-0.095 0.288 0.038 0.542 0.162 0.742 0.344l-0.001-0.001-0.534-0.088c-0.467-0.208-0.905 0.16-1.325 0.326-0.13 0.238-0.24 0.49-0.242 0.768l-0.17-0.183c-0.015-0.3 0.037-0.675 0.322-0.856 0.193-0.093 0.403-0.147 0.605-0.217z"></path>
</svg>
