<!-- Generated by IcoMoon.io -->
<svg version="1.1" xmlns="http://www.w3.org/2000/svg" width="32" height="32" viewBox="0 0 32 32">
<title>confluence</title>
<path d="M22.181 20.367c-0.373-0.736-0.817-1.481-1.333-2.238-0.424-0.616-0.813-1.134-1.22-1.634l0.037 0.047c-0.168-0.21-0.098-0.472 0.030-0.602s0.256-0.261 0.385-0.393c1.775-1.81 3.611-3.682 5.019-5.704 1.497-2.152 2.327-4.192 2.537-6.291 0.002-0.017 0.003-0.036 0.003-0.056 0-0.206-0.096-0.389-0.247-0.508l-0.001-0.001c-0.105-0.081-0.239-0.129-0.384-0.129-0.081 0-0.159 0.015-0.23 0.043l0.005-0.002c-1.365 0.523-2.752 0.918-4.017 1.214-0.255 0.062-0.458 0.242-0.551 0.477l-0.002 0.006c-0.922 2.526-3.276 4.929-5.746 7.449-0.099 0.094-0.238 0.218-0.464 0.218s-0.364-0.121-0.464-0.218c-2.47-2.518-4.823-4.914-5.746-7.44-0.095-0.24-0.298-0.42-0.547-0.481l-0.006-0.001c-1.266-0.295-2.653-0.725-4.017-1.247-0.067-0.027-0.145-0.042-0.226-0.042-0.349 0-0.632 0.283-0.632 0.632 0 0.022 0.001 0.044 0.003 0.066v-0.003c0.209 2.1 1.038 4.166 2.537 6.317 1.407 2.022 3.243 3.894 5.018 5.704 3.27 3.335 6.359 6.486 6.631 10.139 0.025 0.328 0.297 0.585 0.63 0.585 0 0 0 0 0 0h3.842c0.349 0 0.632-0.284 0.632-0.633 0-0.010 0-0.022-0.001-0.032v0.002c-0.040-0.755-0.146-1.463-0.312-2.147l0.016 0.079 0.002-0.002c-0.006-0.020-0.009-0.043-0.009-0.066 0-0.139 0.112-0.252 0.251-0.252v0c0.011 0 0.024 0.003 0.036 0.004v0c3.137 0.46 5.121 1.193 5.123 2.001v0.002c0 0.761-1.784 1.911-4.682 2.752l-0.001 0.001c-0.258 0.074-0.445 0.306-0.445 0.583 0 0.335 0.277 0.608 0.619 0.608 0.048 0 0.093-0.006 0.137-0.015 3.897-0.901 6.48-2.416 6.48-4.125 0-2.030-3.492-3.843-8.692-4.662zM11.878 18.387c-0.114-0.117-0.272-0.19-0.448-0.192v0c-0.287 0-0.457 0.186-0.521 0.283-0.353 0.524-0.72 1.143-1.051 1.783l-0.051 0.108c-5.192 0.819-8.678 2.631-8.678 4.659 0 1.712 2.564 3.224 6.467 4.124 0 0 0.005 0 0.006 0 0.046 0.011 0.093 0.018 0.143 0.018 0.342 0 0.619-0.272 0.619-0.608 0-0.276-0.188-0.506-0.445-0.581l-0.002-0.004c-2.899-0.841-4.683-1.991-4.683-2.752v-0.002c0.003-0.807 1.982-1.539 5.11-1.999 0.010-0.002 0.021-0.004 0.033-0.004v0c0.141 0 0.254 0.114 0.254 0.254 0 0.024-0.003 0.047-0.010 0.069v-0.002l0.002 0.003c-0.148 0.602-0.253 1.308-0.291 2.030l-0.001 0.029c-0.009 0.172 0.055 0.343 0.174 0.468s0.287 0.197 0.459 0.197h3.842c0.333-0.001 0.605-0.259 0.632-0.585v-0.002c0.084-1.124 0.435-2.251 1.072-3.436 0.221-0.409 0.050-0.795-0.078-0.959-0.633-0.822-1.407-1.699-2.558-2.902z"></path>
<path d="M15.556 8.894c0.152 0.148 0.325 0.175 0.443 0.175h0.001c0.119 0 0.291-0.028 0.443-0.175 1.355-1.317 2.083-2.853 2.242-3.281 0.029-0.069 0.047-0.149 0.047-0.233v0c0-0.342-0.285-0.584-0.582-0.584-0.246 0-0.944 0.072-2.147 0.072h-0.008c-1.204 0-1.902-0.072-2.147-0.072-0.297 0-0.582 0.244-0.582 0.584 0 0.099 0.024 0.17 0.048 0.233 0.16 0.427 0.887 1.964 2.242 3.281z"></path>
</svg>
