<!-- Generated by IcoMoon.io -->
<svg version="1.1" xmlns="http://www.w3.org/2000/svg" width="32" height="32" viewBox="0 0 32 32">
<title>confluence</title>
<path d="M22.494 20.588c-0.392-0.773-0.858-1.556-1.401-2.351-0.446-0.647-0.854-1.191-1.282-1.717l0.039 0.049c-0.177-0.221-0.103-0.496 0.032-0.633 0.134-0.137 0.269-0.274 0.404-0.413 1.865-1.902 3.794-3.869 5.273-5.993 1.573-2.261 2.445-4.404 2.665-6.61 0.002-0.018 0.003-0.038 0.003-0.059 0-0.216-0.101-0.409-0.259-0.534l-0.001-0.001c-0.11-0.085-0.251-0.136-0.403-0.136-0.085 0-0.167 0.016-0.242 0.045l0.005-0.002c-1.434 0.549-2.891 0.965-4.22 1.275-0.268 0.065-0.481 0.254-0.579 0.501l-0.002 0.006c-0.969 2.654-3.442 5.179-6.037 7.826-0.104 0.099-0.25 0.229-0.488 0.229s-0.382-0.127-0.488-0.229c-2.595-2.646-5.067-5.163-6.037-7.817-0.1-0.252-0.313-0.441-0.575-0.505l-0.006-0.001c-1.33-0.31-2.787-0.762-4.22-1.31-0.070-0.028-0.152-0.044-0.237-0.044-0.367 0-0.664 0.297-0.664 0.664 0 0.023 0.001 0.046 0.003 0.069v-0.003c0.22 2.206 1.091 4.377 2.665 6.637 1.478 2.124 3.407 4.091 5.272 5.993 3.436 3.504 6.681 6.814 6.967 10.652 0.026 0.345 0.312 0.615 0.662 0.615 0 0 0 0 0 0h4.037c0.367 0 0.664-0.298 0.664-0.665 0-0.011 0-0.023-0.001-0.034v0.002c-0.042-0.793-0.153-1.537-0.328-2.256l0.017 0.083 0.002-0.002c-0.006-0.021-0.009-0.045-0.009-0.069 0-0.146 0.118-0.265 0.264-0.265v0c0.012 0 0.025 0.003 0.038 0.004v0c3.296 0.483 5.38 1.253 5.383 2.102v0.002c0 0.8-1.874 2.008-4.919 2.891l-0.001 0.001c-0.271 0.078-0.468 0.322-0.468 0.613 0 0.352 0.291 0.639 0.65 0.639 0.050 0 0.098-0.006 0.144-0.016 4.094-0.947 6.808-2.538 6.808-4.334 0-2.133-3.669-4.038-9.132-4.898zM11.669 18.508c-0.12-0.123-0.286-0.2-0.471-0.202v0c-0.302 0-0.48 0.195-0.547 0.297-0.371 0.551-0.756 1.201-1.104 1.873l-0.054 0.114c-5.455 0.86-9.117 2.764-9.117 4.895 0 1.799 2.694 3.387 6.795 4.333 0 0 0.005 0 0.006 0 0.048 0.012 0.098 0.019 0.15 0.019 0.359 0 0.65-0.286 0.65-0.639 0-0.29-0.198-0.532-0.468-0.61l-0.002-0.004c-3.046-0.884-4.92-2.092-4.92-2.891v-0.002c0.003-0.848 2.082-1.617 5.369-2.1 0.010-0.002 0.022-0.004 0.035-0.004v0c0.148 0 0.267 0.12 0.267 0.267 0 0.025-0.003 0.049-0.010 0.072v-0.002l0.002 0.003c-0.156 0.633-0.266 1.374-0.306 2.133l-0.001 0.030c-0.009 0.181 0.058 0.36 0.183 0.492 0.125 0.131 0.301 0.207 0.482 0.207h4.037c0.35-0.001 0.636-0.272 0.664-0.615v-0.002c0.088-1.181 0.457-2.365 1.126-3.61 0.232-0.43 0.052-0.835-0.082-1.008-0.665-0.864-1.478-1.785-2.688-3.049z"></path>
<path d="M15.534 8.534c0.16 0.155 0.341 0.184 0.465 0.184h0.001c0.125 0 0.306-0.029 0.465-0.184 1.424-1.384 2.189-2.998 2.356-3.447 0.030-0.072 0.049-0.157 0.049-0.245v0c0-0.359-0.299-0.614-0.611-0.614-0.258 0-0.992 0.076-2.256 0.076h-0.008c-1.265 0-1.998-0.076-2.256-0.076-0.312 0-0.611 0.256-0.611 0.614 0 0.104 0.025 0.179 0.050 0.245 0.168 0.449 0.932 2.063 2.356 3.447z"></path>
</svg>
