<!-- Generated by IcoMoon.io -->
<svg version="1.1" xmlns="http://www.w3.org/2000/svg" width="32" height="32" viewBox="0 0 32 32">
<title>contao</title>
<path d="M3.11 2.94h3.35c-0.799 0.731-1.513 1.582-2.143 2.534-2.636 4.064-1.565 8.519-0.544 13.315 0.833 3.894 1.53 7.601 3.962 10.271h-4.625c-1.088 0-1.972-0.885-1.972-1.972v-22.175c0-1.088 0.885-1.972 1.972-1.972zM23.653 2.94h5.238c1.088 0 1.972 0.885 1.972 1.972v22.175c0 1.088-0.885 1.972-1.972 1.972h-3.027c2.245-2.227 3.52-5.459 3.333-9.608l-7.976 1.718c-0.102 1.887-0.748 3.707-3.333 4.251-1.446 0.306-2.636-0.034-3.384-0.68-0.918-0.782-1.649-1.803-2.874-7.618-1.242-5.833-0.987-7.058-0.476-8.146 0.425-0.885 1.377-1.701 2.805-2.006 2.602-0.544 3.928 0.868 4.796 2.551l7.958-1.701c-0.782-2.006-1.82-3.639-3.061-4.881z"></path>
</svg>
