<!-- Generated by IcoMoon.io -->
<svg version="1.1" xmlns="http://www.w3.org/2000/svg" width="32" height="32" viewBox="0 0 32 32">
<title>craftcms</title>
<path d="M16 1c-8.285 0-15 6.715-15 15s6.715 15 15 15c8.285 0 15-6.715 15-15s-6.715-15-15-15zM21.4 10.56c-0.52-0.28-1.081-0.48-1.64-0.679-0.6-0.2-1.24-0.28-2-0.28-1.28 0-2.4 0.361-3.4 1.040s-1.8 1.68-2.4 3-0.879 2.76-0.879 4.32c0 1.399 0.32 2.44 1 3.159s1.68 1.12 3 1.12c1.16 0 2.52-0.24 4.040-0.76v2.36c-1.48 0.52-3 0.76-4.601 0.76-2.040 0-3.64-0.56-4.8-1.72-1.12-1.12-1.68-2.72-1.68-4.8 0-2 0.44-3.879 1.28-5.6 0.881-1.72 2.040-3.040 3.48-3.92s3.080-1.36 4.96-1.36c1.8 0 3.361 0.361 4.8 1.080l-1.16 2.28z"></path>
</svg>
