<!-- Generated by IcoMoon.io -->
<svg version="1.1" xmlns="http://www.w3.org/2000/svg" width="32" height="32" viewBox="0 0 32 32">
<title>craftcms</title>
<path d="M16 3.020c-7.169 0-12.98 5.811-12.98 12.98s5.811 12.98 12.98 12.98c7.169 0 12.98-5.811 12.98-12.98s-5.811-12.98-12.98-12.98zM20.673 11.293c-0.45-0.242-0.935-0.415-1.419-0.588-0.519-0.173-1.073-0.242-1.731-0.242-1.108 0-2.077 0.312-2.942 0.9s-1.558 1.454-2.077 2.596-0.761 2.388-0.761 3.738c0 1.211 0.277 2.111 0.865 2.734s1.454 0.969 2.596 0.969c1.004 0 2.181-0.208 3.496-0.658v2.042c-1.281 0.45-2.596 0.658-3.981 0.658-1.765 0-3.15-0.485-4.154-1.488-0.969-0.969-1.454-2.354-1.454-4.154 0-1.731 0.381-3.357 1.108-4.846 0.762-1.488 1.765-2.631 3.011-3.392s2.665-1.177 4.292-1.177c1.558 0 2.908 0.312 4.154 0.935l-1.004 1.973z"></path>
</svg>
