<!-- Generated by IcoMoon.io -->
<svg version="1.1" xmlns="http://www.w3.org/2000/svg" width="32" height="32" viewBox="0 0 32 32">
<title>creativecommons</title>
<path d="M15.979 1.377c-4.109 0-7.726 1.521-10.52 4.356-2.876 2.918-4.438 6.699-4.438 10.644 0 3.987 1.52 7.684 4.397 10.561s6.617 4.438 10.561 4.438 7.767-1.562 10.726-4.479c2.794-2.753 4.274-6.411 4.274-10.52 0-4.068-1.479-7.767-4.315-10.603-2.877-2.876-6.576-4.397-10.685-4.397zM16.020 4.089c3.37 0 6.37 1.274 8.713 3.617 2.302 2.302 3.534 5.343 3.534 8.672 0 3.37-1.191 6.328-3.493 8.59-2.424 2.383-5.547 3.658-8.753 3.658-3.247 0-6.288-1.274-8.631-3.617s-3.658-5.425-3.658-8.631c0-3.247 1.315-6.329 3.658-8.713 2.302-2.343 5.261-3.576 8.631-3.576zM15.827 13.886c-0.848-1.545-2.292-2.16-3.971-2.16-2.443 0-4.387 1.729-4.387 4.652 0 2.974 1.828 4.652 4.47 4.652 1.695 0 3.14-0.931 3.938-2.343l-1.861-0.947c-0.416 0.997-1.047 1.295-1.845 1.295-1.379 0-2.011-1.146-2.011-2.658s0.532-2.659 2.011-2.659c0.399 0 1.196 0.217 1.661 1.214l1.994-1.047zM24.48 13.886c-0.848-1.545-2.292-2.16-3.971-2.16-2.443 0-4.387 1.729-4.387 4.652 0 2.974 1.828 4.652 4.47 4.652 1.695 0 3.14-0.931 3.938-2.343l-1.861-0.947c-0.416 0.997-1.047 1.295-1.845 1.295-1.379 0-2.011-1.146-2.011-2.658s0.532-2.659 2.011-2.659c0.399 0 1.196 0.217 1.662 1.214l1.994-1.047z"></path>
</svg>
