<!-- Generated by IcoMoon.io -->
<svg version="1.1" xmlns="http://www.w3.org/2000/svg" width="32" height="32" viewBox="0 0 32 32">
<title>css3</title>
<path d="M16.020 21.926v0zM2.774 1.335l2.407 27.002 10.803 2.998 10.833-3.003 2.41-26.997h-26.453zM24.225 7.511l-0.814 9.126-0.564 6.297-0.049 0.559-6.792 1.883-6.783-1.883-0.464-5.2h3.324l0.236 2.641 3.692 0.995 0.009-0.002h0.002l3.682-0.994 0.387-4.294h-7.73l-0.066-0.744-0.152-1.679-0.079-0.888h8.32l0.303-3.391h-12.673l-0.066-0.745-0.152-1.679-0.079-0.888h16.588l-0.080 0.888z"></path>
</svg>
