<!-- Generated by IcoMoon.io -->
<svg version="1.1" xmlns="http://www.w3.org/2000/svg" width="32" height="32" viewBox="0 0 32 32">
<title>database</title>
<path d="M16 31.381c-7.098 0-12.856-1.92-12.856-4.286 0-1.294 0-2.708 0-4.286 0-0.372 0.187-0.727 0.455-1.071 1.434 1.846 6.418 3.214 12.403 3.214s10.969-1.368 12.403-3.214c0.268 0.345 0.453 0.699 0.453 1.071 0 1.241 0 2.558 0 4.286 0 2.364-5.758 4.286-12.856 4.286zM16 22.809c-7.098 0-12.856-1.922-12.856-4.286 0-1.294 0-2.707 0-4.286 0-0.227 0.085-0.448 0.201-0.667v0c0.065-0.137 0.151-0.272 0.253-0.405 1.434 1.844 6.418 3.214 12.403 3.214s10.969-1.37 12.403-3.214c0.103 0.133 0.188 0.268 0.253 0.405v0c0.115 0.219 0.201 0.44 0.201 0.667 0 1.241 0 2.556 0 4.286 0 2.364-5.758 4.286-12.856 4.286zM16 14.238c-7.098 0-12.856-1.92-12.856-4.286 0-0.677 0-1.392 0-2.143 0-0.681 0-1.388 0-2.143 0-2.366 5.758-4.286 12.856-4.286s12.856 1.92 12.856 4.286c0 0.668 0 1.377 0 2.143 0 0.656 0 1.348 0 2.143 0 2.366-5.758 4.286-12.856 4.286zM16 3.525c-4.734 0-8.57 0.957-8.57 2.143s3.838 2.143 8.57 2.143c4.734 0 8.57-0.957 8.57-2.143s-3.838-2.143-8.57-2.143z"></path>
</svg>
