<!-- Generated by IcoMoon.io -->
<svg version="1.1" xmlns="http://www.w3.org/2000/svg" width="32" height="32" viewBox="0 0 32 32">
<title>docker</title>
<path d="M30.060 13.248c-0.994-0.578-2.312-0.648-3.422-0.324-0.139-1.203-0.925-2.243-1.85-2.983l-0.37-0.301-0.324 0.37c-0.624 0.717-0.809 1.919-0.717 2.844 0.069 0.671 0.277 1.364 0.694 1.919-0.324 0.185-0.671 0.439-0.994 0.555-0.648 0.231-1.364 0.463-2.058 0.463h-1.549v-3.261h-3.006v-5.781h-3.469v2.775h-5.781v3.006h-3.006v3.237h-2.59l-0.046 0.347c-0.116 1.48 0.069 2.914 0.694 4.278l0.277 0.555c1.827 3.099 5.018 4.394 8.51 4.394 6.752 0 12.325-3.029 14.869-9.389 1.711 0.092 3.469-0.416 4.301-2.058l0.208-0.416-0.37-0.231zM7.675 10.219h2.312v2.544h-2.312v-2.544zM10.704 20.44c0 0.393-0.324 0.717-0.717 0.717s-0.717-0.324-0.717-0.717c0-0.393 0.324-0.717 0.717-0.717 0.393 0.023 0.717 0.324 0.717 0.717zM7.675 13.225h2.312v2.544h-2.312v-2.544zM4.669 13.225h2.544v2.544h-2.544v-2.544zM11.074 24.834c-3.654-0.023-5.619-1.249-7.238-2.867 0.486 0.023 0.948 0.046 1.364 0.046 0.37 0 0.74 0 1.087-0.023 0.902-0.046 1.688-0.162 2.336-0.347 0.532 1.226 1.503 2.359 3.237 3.191h-0.786zM12.994 15.769h-2.544v-2.544h2.544v2.544zM12.994 12.763h-2.544v-2.544h2.544v2.544zM16 15.769h-2.544v-2.544h2.544v2.544zM16 12.763h-2.544v-2.544h2.544v2.544zM16 9.756h-2.544v-2.544h2.544v2.544zM19.006 15.769h-2.544v-2.544h2.544v2.544zM10.173 19.977c-0.046-0.023-0.116-0.046-0.185-0.046-0.277 0-0.509 0.231-0.509 0.509s0.231 0.509 0.509 0.509 0.509-0.231 0.509-0.509c0-0.069-0.023-0.139-0.046-0.185-0.046 0.069-0.092 0.116-0.185 0.116-0.116 0-0.208-0.093-0.208-0.208 0.023-0.093 0.069-0.162 0.116-0.185z"></path>
</svg>
