<!-- Generated by IcoMoon.io -->
<svg version="1.1" xmlns="http://www.w3.org/2000/svg" width="32" height="32" viewBox="0 0 32 32">
<title>docker</title>
<path d="M31.2 13.025c-1.075-0.625-2.5-0.7-3.7-0.35-0.15-1.3-1-2.425-2-3.225l-0.4-0.325-0.35 0.4c-0.675 0.775-0.875 2.075-0.775 3.075 0.075 0.725 0.3 1.475 0.75 2.075-0.35 0.2-0.725 0.475-1.075 0.6-0.7 0.25-1.475 0.5-2.225 0.5h-1.675v-3.525h-3.25v-6.25h-3.75v3h-6.25v3.25h-3.25v3.5h-2.8l-0.050 0.375c-0.125 1.6 0.075 3.15 0.75 4.625l0.3 0.6c1.975 3.35 5.425 4.75 9.2 4.75 7.3 0 13.325-3.275 16.075-10.15 1.85 0.1 3.75-0.45 4.65-2.225l0.225-0.45-0.4-0.25zM7 9.75h2.5v2.75h-2.5v-2.75zM10.275 20.8c0 0.425-0.35 0.775-0.775 0.775s-0.775-0.35-0.775-0.775c0-0.425 0.35-0.775 0.775-0.775 0.425 0.025 0.775 0.35 0.775 0.775zM7 13h2.5v2.75h-2.5v-2.75zM3.75 13h2.75v2.75h-2.75v-2.75zM10.675 25.55c-3.95-0.025-6.075-1.35-7.825-3.1 0.525 0.025 1.025 0.050 1.475 0.050 0.4 0 0.8 0 1.175-0.025 0.975-0.050 1.825-0.175 2.525-0.375 0.575 1.325 1.625 2.55 3.5 3.45h-0.85zM12.75 15.75h-2.75v-2.75h2.75v2.75zM12.75 12.5h-2.75v-2.75h2.75v2.75zM16 15.75h-2.75v-2.75h2.75v2.75zM16 12.5h-2.75v-2.75h2.75v2.75zM16 9.25h-2.75v-2.75h2.75v2.75zM19.25 15.75h-2.75v-2.75h2.75v2.75zM9.7 20.3c-0.050-0.025-0.125-0.050-0.2-0.050-0.3 0-0.55 0.25-0.55 0.55s0.25 0.55 0.55 0.55 0.55-0.25 0.55-0.55c0-0.075-0.025-0.15-0.050-0.2-0.050 0.075-0.1 0.125-0.2 0.125-0.125 0-0.225-0.1-0.225-0.225 0.025-0.1 0.075-0.175 0.125-0.2z"></path>
</svg>
