<!-- Generated by IcoMoon.io -->
<svg version="1.1" xmlns="http://www.w3.org/2000/svg" width="32" height="32" viewBox="0 0 32 32">
<title>dreamweaver</title>
<path d="M1 1.379c0 10 0 20 0 30 10 0 20 0 30 0 0-10 0-20 0-30-10 0-20 0-30 0zM28.652 28.979c-8.412 0-16.801 0-25.217 0 0-8.384 0-16.749 0-25.136 8.412 0 16.8 0 25.217 0 0 8.372 0 16.737 0 25.136zM5.495 16.109c0-1.965 0-3.93-0.001-5.896 0-0.179-0.007-0.318 0.24-0.351 1.676-0.219 3.357-0.371 5.030-0.017 2.262 0.478 3.638 1.887 4.128 4.137 0.315 1.446 0.253 2.898-0.155 4.32-0.634 2.21-2.1 3.545-4.346 4.011-1.561 0.324-3.133 0.229-4.705 0.081-0.192-0.019-0.188-0.135-0.188-0.27 0.001-0.599 0-1.197 0-1.796 0-1.406 0-2.813 0-4.219zM7.521 16.11c-0.001 0-0.001 0-0.003 0 0 0.709 0 1.417 0 2.124s0.009 1.417-0.004 2.124c-0.004 0.23 0.068 0.327 0.299 0.326 0.408-0.003 0.818 0.040 1.225 0.011 1.974-0.14 3.172-1.107 3.664-2.992 0.305-1.165 0.326-2.351 0.025-3.523-0.281-1.090-0.895-1.932-1.955-2.388-0.987-0.424-2.016-0.421-3.056-0.264-0.222 0.034-0.196 0.18-0.196 0.33 0.001 1.417 0 2.833 0 4.25zM21.092 15.86c-0.070 0.375-0.123 0.755-0.216 1.124-0.436 1.739-0.883 3.475-1.323 5.212-0.041 0.162-0.136 0.192-0.285 0.191-0.449-0.005-0.898-0.012-1.347 0.004-0.211 0.008-0.294-0.069-0.343-0.27-0.262-1.063-0.542-2.124-0.812-3.186-0.445-1.748-0.889-3.496-1.332-5.244-0.029-0.114-0.046-0.229-0.081-0.4 0.461 0 0.885 0 1.31 0 0.679 0 0.69-0.003 0.814 0.662 0.38 2.017 0.752 4.035 1.128 6.052 0.019 0.097 0.045 0.191 0.114 0.29 0.103-0.481 0.197-0.965 0.313-1.443 0.425-1.773 0.861-3.544 1.283-5.317 0.048-0.2 0.146-0.25 0.332-0.245 0.359 0.011 0.719 0.015 1.077-0.001 0.215-0.011 0.294 0.077 0.339 0.277 0.495 2.196 0.997 4.39 1.498 6.586 0.011 0.046 0.023 0.093 0.091 0.144 0.030-0.156 0.061-0.314 0.091-0.47 0.413-2.091 0.828-4.182 1.237-6.274 0.037-0.188 0.115-0.265 0.315-0.26 0.536 0.013 1.074 0.004 1.663 0.004-0.126 0.485-0.238 0.934-0.359 1.38-0.669 2.471-1.343 4.941-2.005 7.415-0.058 0.218-0.138 0.314-0.377 0.302-0.408-0.020-0.818-0.017-1.226-0.001-0.228 0.008-0.332-0.060-0.387-0.294-0.458-2-0.931-3.997-1.398-5.994-0.019-0.081-0.040-0.162-0.058-0.242-0.020 0-0.040 0.001-0.060 0.001z"></path>
</svg>
