<!-- Generated by IcoMoon.io -->
<svg version="1.1" xmlns="http://www.w3.org/2000/svg" width="32" height="32" viewBox="0 0 32 32">
<title>drupal</title>
<path d="M22.532 6.91c-1.532-0.954-2.976-1.329-4.421-2.283-0.896-0.607-2.139-2.052-3.179-3.294-0.202 1.994-0.809 2.803-1.503 3.381-1.474 1.156-2.399 1.503-3.67 2.196-1.069 0.549-6.879 4.017-6.879 11.474s6.272 12.948 13.237 12.948c6.966 0 13.005-5.057 13.005-12.716s-5.665-11.127-6.59-11.705zM22.699 28.612c-0.145 0.145-1.474 1.069-3.034 1.214s-3.67 0.231-4.943-0.925c-0.202-0.202-0.144-0.491 0-0.607s0.26-0.202 0.433-0.202c0.173 0 0.144 0 0.231 0.058 0.578 0.462 1.445 0.838 3.294 0.838s3.15-0.52 3.728-0.954c0.26-0.202 0.376-0.029 0.405 0.087s0.087 0.289-0.116 0.491zM17.641 25.981c0.318-0.289 0.838-0.751 1.329-0.954s0.751-0.173 1.214-0.173 0.954 0.029 1.3 0.26c0.347 0.231 0.549 0.751 0.665 1.040s0 0.462-0.231 0.578c-0.202 0.116-0.231 0.058-0.434-0.318s-0.376-0.751-1.387-0.751-1.329 0.347-1.821 0.751c-0.491 0.405-0.665 0.549-0.838 0.318s-0.115-0.462 0.203-0.751zM25.3 26.212c-1.040-0.087-3.121-3.323-4.45-3.381-1.676-0.058-5.317 3.497-8.179 3.497-1.734 0-2.254-0.26-2.832-0.636-0.867-0.607-1.3-1.532-1.272-2.803 0.029-2.254 2.138-4.364 4.797-4.393 3.381-0.029 5.723 3.352 7.428 3.323 1.445-0.029 4.219-2.861 5.577-2.861 1.445 0 1.85 1.503 1.85 2.398s-0.289 2.514-0.983 3.526c-0.694 1.012-1.127 1.387-1.936 1.329z"></path>
</svg>
