<!-- Generated by IcoMoon.io -->
<svg version="1.1" xmlns="http://www.w3.org/2000/svg" width="32" height="32" viewBox="0 0 32 32">
<title>electron</title>
<path d="M12.268 8.165c-3.592-0.655-6.43 0.030-7.563 2-0.845 1.463-0.603 3.402 0.585 5.475 0.065 0.111 0.184 0.185 0.32 0.185 0.204 0 0.369-0.165 0.369-0.369 0-0.068-0.018-0.131-0.050-0.185l0.001 0.002c-1.070-1.867-1.28-3.543-0.588-4.75 0.94-1.627 3.473-2.25 6.793-1.635 0.020 0.004 0.043 0.006 0.066 0.006 0.204 0 0.368-0.165 0.368-0.368 0-0.18-0.129-0.33-0.3-0.362h-0.002zM7.157 18.152c1.577 1.687 3.388 3.127 5.388 4.276l0.112 0.059c5.21 3 10.75 3.813 13.5 1.948 0.097-0.067 0.16-0.178 0.16-0.304 0-0.203-0.165-0.368-0.368-0.368-0.078 0-0.149 0.024-0.209 0.065l0.001-0.001c-2.465 1.672-7.742 0.902-12.725-1.98-2.041-1.169-3.791-2.562-5.303-4.18l-0.012-0.013c-0.068-0.074-0.165-0.12-0.272-0.12-0.204 0-0.37 0.166-0.37 0.37 0 0.097 0.037 0.184 0.098 0.25v0z"></path>
<path d="M25.265 17.703c2.352-2.777 3.172-5.572 2.043-7.527-0.83-1.44-2.587-2.2-4.922-2.23-0.204 0-0.369 0.165-0.369 0.369s0.165 0.369 0.369 0.369v0c2.1 0.027 3.613 0.682 4.295 1.863 0.938 1.625 0.205 4.117-1.968 6.685-0.054 0.064-0.087 0.147-0.087 0.238 0 0.203 0.165 0.368 0.368 0.368 0.113 0 0.213-0.050 0.281-0.13v-0.001zM19.223 8.287c-2.482 0.573-4.673 1.469-6.668 2.658l0.105-0.058c-5.378 3.113-8.887 7.685-8.41 11.005 0.027 0.185 0.185 0.325 0.375 0.325 0.209 0 0.379-0.17 0.379-0.379 0-0.019-0.001-0.038-0.004-0.056v0.002c-0.442-2.948 2.883-7.285 8.027-10.258 1.829-1.098 3.948-1.969 6.199-2.498l0.151-0.030c0.167-0.037 0.291-0.184 0.291-0.36 0-0.203-0.165-0.368-0.368-0.368-0.027 0-0.054 0.003-0.080 0.009h0.002z"></path>
<path d="M10.5 24.195c1.25 3.433 3.25 5.555 5.512 5.555 1.65 0 3.175-1.125 4.365-3.105 0.036-0.056 0.057-0.124 0.057-0.198 0-0.205-0.166-0.371-0.371-0.371-0.132 0-0.247 0.069-0.313 0.172l-0.001 0.002c-1.070 1.78-2.383 2.75-3.735 2.75-1.88 0-3.672-1.885-4.81-5.060-0.053-0.143-0.188-0.243-0.346-0.243-0.203 0-0.368 0.165-0.368 0.368 0 0.045 0.008 0.088 0.023 0.128l-0.001-0.003zM21.75 23.523c0.621-1.991 0.978-4.281 0.978-6.654 0-0.060 0-0.12-0.001-0.18v0.009c0-6.102-2.135-11.36-5.177-12.713-0.044-0.020-0.096-0.032-0.15-0.032-0.204 0-0.369 0.165-0.369 0.369 0 0.15 0.089 0.279 0.217 0.337l0.002 0.001c2.712 1.205 4.75 6.195 4.75 12.038 0 0.049 0.001 0.108 0.001 0.166 0 2.296-0.346 4.512-0.988 6.597l0.042-0.159c-0.011 0.033-0.017 0.071-0.017 0.11 0 0.203 0.165 0.368 0.368 0.368 0.164 0 0.303-0.107 0.351-0.255l0.001-0.003z"></path>
<path d="M28.677 23.163c0-0.973-0.789-1.762-1.762-1.762s-1.762 0.789-1.762 1.762c0 0.973 0.789 1.762 1.762 1.762v0c0.973 0 1.762-0.789 1.762-1.762v0zM27.94 23.163c0 0.566-0.459 1.025-1.025 1.025s-1.025-0.459-1.025-1.025c0-0.566 0.459-1.025 1.025-1.025v0c0.566 0 1.025 0.459 1.025 1.025v0z"></path>
<path d="M5.085 24.925c0.973 0 1.763-0.789 1.763-1.762s-0.789-1.762-1.763-1.762c-0.973 0-1.763 0.789-1.763 1.762v0c0 0.973 0.789 1.762 1.763 1.762v0zM5.085 24.188c-0.566 0-1.025-0.459-1.025-1.025s0.459-1.025 1.025-1.025c0.566 0 1.025 0.459 1.025 1.025v0c0 0.566-0.459 1.025-1.025 1.025v0z"></path>
<path d="M16.012 5.782c0.973 0 1.762-0.789 1.762-1.763s-0.789-1.763-1.762-1.763c-0.973 0-1.762 0.789-1.762 1.763v0c0 0.973 0.789 1.763 1.762 1.763v0zM16.012 5.045c-0.566 0-1.025-0.459-1.025-1.025s0.459-1.025 1.025-1.025c0.566 0 1.025 0.459 1.025 1.025v0c0 0.566-0.459 1.025-1.025 1.025v0z"></path>
<path d="M16.282 17.942c-0.084 0.020-0.18 0.031-0.278 0.031-0.704 0-1.275-0.571-1.275-1.275s0.571-1.275 1.275-1.275c0.608 0 1.117 0.426 1.244 0.996l0.002 0.009c0.018 0.081 0.029 0.175 0.029 0.271 0 0.605-0.422 1.112-0.988 1.243l-0.009 0.002z"></path>
</svg>
