<!-- Generated by IcoMoon.io -->
<svg version="1.1" xmlns="http://www.w3.org/2000/svg" width="32" height="32" viewBox="0 0 32 32">
<title>electron</title>
<path d="M11.928 7.451c-3.919-0.715-7.016 0.033-8.252 2.182-0.922 1.596-0.658 3.712 0.638 5.974 0.071 0.121 0.201 0.202 0.349 0.202 0.223 0 0.403-0.18 0.403-0.403 0-0.074-0.020-0.143-0.055-0.202l0.001 0.002c-1.168-2.037-1.397-3.866-0.642-5.183 1.026-1.775 3.79-2.455 7.412-1.784 0.022 0.004 0.047 0.007 0.072 0.007 0.223 0 0.402-0.18 0.402-0.402 0-0.196-0.141-0.36-0.327-0.395h-0.002zM6.351 18.348c1.721 1.841 3.697 3.412 5.879 4.666l0.122 0.064c5.685 3.273 11.73 4.161 14.73 2.126 0.106-0.073 0.175-0.194 0.175-0.332 0-0.221-0.18-0.402-0.402-0.402-0.085 0-0.163 0.026-0.228 0.071l0.001-0.001c-2.69 1.824-8.448 0.984-13.885-2.16-2.227-1.276-4.137-2.796-5.786-4.561l-0.013-0.014c-0.074-0.081-0.18-0.131-0.297-0.131-0.223 0-0.404 0.181-0.404 0.404 0 0.106 0.040 0.201 0.107 0.273v0z"></path>
<path d="M26.109 17.858c2.566-3.030 3.461-6.080 2.229-8.213-0.906-1.571-2.823-2.401-5.371-2.433-0.223 0-0.403 0.18-0.403 0.403s0.18 0.403 0.403 0.403v0c2.291 0.029 3.942 0.744 4.686 2.033 1.023 1.773 0.224 4.492-2.147 7.294-0.059 0.070-0.095 0.16-0.095 0.26 0 0.221 0.18 0.402 0.402 0.402 0.123 0 0.232-0.055 0.307-0.142v-0.001zM19.517 7.584c-2.708 0.625-5.099 1.603-7.276 2.9l0.115-0.063c-5.868 3.397-9.697 8.385-9.177 12.008 0.029 0.202 0.202 0.355 0.409 0.355 0.228 0 0.414-0.186 0.414-0.414 0-0.021-0.001-0.041-0.004-0.061v0.002c-0.482-3.217 3.146-7.949 8.759-11.193 1.996-1.198 4.308-2.148 6.764-2.726l0.165-0.033c0.182-0.040 0.318-0.201 0.318-0.393 0-0.221-0.18-0.402-0.402-0.402-0.029 0-0.059 0.003-0.087 0.010h0.002z"></path>
<path d="M9.999 24.942c1.364 3.746 3.546 6.061 6.014 6.061 1.8 0 3.464-1.228 4.763-3.388 0.039-0.061 0.062-0.135 0.062-0.216 0-0.224-0.181-0.405-0.405-0.405-0.144 0-0.27 0.075-0.342 0.188l-0.001 0.002c-1.168 1.942-2.6 3.001-4.075 3.001-2.051 0-4.007-2.057-5.248-5.521-0.058-0.156-0.205-0.265-0.378-0.265-0.222 0-0.402 0.18-0.402 0.402 0 0.049 0.009 0.096 0.025 0.14l-0.001-0.003zM22.274 24.209c0.678-2.172 1.067-4.671 1.067-7.261 0-0.065 0-0.131-0.001-0.196v0.010c0-6.658-2.33-12.395-5.649-13.872-0.048-0.022-0.105-0.035-0.164-0.035-0.223 0-0.403 0.18-0.403 0.403 0 0.164 0.097 0.304 0.237 0.368l0.002 0.001c2.959 1.315 5.183 6.76 5.183 13.135 0 0.053 0.001 0.118 0.001 0.181 0 2.505-0.378 4.923-1.078 7.198l0.046-0.174c-0.012 0.036-0.019 0.077-0.019 0.12 0 0.221 0.18 0.402 0.402 0.402 0.179 0 0.331-0.117 0.383-0.278l0.001-0.003z"></path>
<path d="M29.832 23.816c0-1.062-0.861-1.923-1.923-1.923s-1.923 0.861-1.923 1.923c0 1.062 0.861 1.923 1.923 1.923v0c1.062 0 1.923-0.861 1.923-1.923v0zM29.028 23.816c0 0.618-0.501 1.118-1.118 1.118s-1.118-0.501-1.118-1.118c0-0.618 0.501-1.118 1.118-1.118v0c0.618 0 1.118 0.501 1.118 1.118v0z"></path>
<path d="M4.090 25.738c1.062 0 1.924-0.861 1.924-1.923s-0.861-1.923-1.924-1.923c-1.062 0-1.924 0.861-1.924 1.923v0c0 1.062 0.861 1.923 1.924 1.923v0zM4.090 24.934c-0.618 0-1.118-0.501-1.118-1.118s0.501-1.118 1.118-1.118c0.618 0 1.118 0.501 1.118 1.118v0c0 0.618-0.501 1.118-1.118 1.118v0z"></path>
<path d="M16.013 4.851c1.062 0 1.923-0.861 1.923-1.924s-0.861-1.924-1.923-1.924c-1.062 0-1.923 0.861-1.923 1.924v0c0 1.062 0.861 1.924 1.923 1.924v0zM16.013 4.046c-0.618 0-1.118-0.501-1.118-1.118s0.501-1.118 1.118-1.118c0.618 0 1.118 0.501 1.118 1.118v0c0 0.618-0.501 1.118-1.118 1.118v0z"></path>
<path d="M16.308 18.119c-0.092 0.022-0.196 0.034-0.303 0.034-0.768 0-1.391-0.623-1.391-1.391s0.623-1.391 1.391-1.391c0.663 0 1.219 0.465 1.357 1.087l0.002 0.010c0.020 0.088 0.032 0.191 0.032 0.296 0 0.66-0.46 1.213-1.078 1.356l-0.010 0.002z"></path>
</svg>
