<!-- Generated by IcoMoon.io -->
<svg version="1.1" xmlns="http://www.w3.org/2000/svg" width="32" height="32" viewBox="0 0 32 32">
<title>firefox</title>
<path d="M23.55 7.933v0zM5.207 14.010l-0.080 0.104-0.020 0.107c0.030-0.084 0.064-0.156 0.1-0.21zM8.387 8.875l0.060-0.063c0.958-0.958 2.074-1.71 3.316-2.236 1.286-0.544 2.652-0.82 4.060-0.82 1.33 0 2.62 0.246 3.844 0.73 0.714 0.123 1.665 0.36 2.458 0.812-1.78-1.264-3.954-2.006-6.302-2.006-3.044 0-5.797 1.25-7.774 3.262 0.092 0.112 0.203 0.22 0.335 0.32zM12.257 17.070c-0.073-0.060-0.137-0.126-0.194-0.198l-0.002-0.003c-0.020 0.156-0.030 0.323-0.030 0.5 0 0.328 0.040 0.68 0.153 1.032 0.127 0.395 0.326 0.736 0.583 1.024l-0.002-0.003c0.19 0.215 0.43 0.42 0.728 0.605l-0.017 0.027c0.56 0.010 1.472-0.001 1.934-0.155 0.695-0.232 1.808-1.113 1.808-1.113 0.278-0.278 0.603-0.14 0.88-0.14s0.37-0.417 0-0.835-1.67-0.835-2.643-0.185-2.365 0.14-3.2-0.556zM12.929 10.95c-0.062 0.23-0.116 0.524-0.116 0.843s0.054 0.668 0.205 1.010c0.12 0.273 0.236 0.474 0.34 0.635l0.206 0.293c0.13-0.12 0.283-0.24 0.408-0.324 0.278-0.185 1.345-0.696 1.484-0.835s0.417-0.88 0.185-1.113-1.716-0.093-2.18-0.185c-0.195-0.040-0.382-0.177-0.533-0.323zM13.229 15.487c0.001 0.004 0.002 0.006 0.002 0.006l0.005-0.010-0.007 0.005zM26.956 13.407c0 0.377-0.34 0.905-0.406 1.004 0.014-0.035 0.035-0.145 0.035-0.494 0-0.5 0.14-1.808-0.5-3.246s-1.635-2.134-1.635-2.134v0.325c-0.14-0.464-1.437-1.345-1.437-1.345v0.464c2.318 2.133 2.55 3.617 2.55 3.617-0.417-1.345-1.623-2.365-2.643-3.338s-3.153-1.484-3.153-1.484c2.272 1.298 3.385 3.338 3.385 3.338-1.16-1.113-2.087-1.020-2.087-1.020 0.696 0.5 1.020 1.066 1.67 2.087s0.603 3.43 0.603 3.43c-0.325-0.788-0.974-1.113-0.974-1.113l0.232 2.18c0.093 0.788-0.325 2.272-0.325 2.272 0-0.556-0.325-0.696-0.325-0.696s0.093 0.325-0.37 1.808-1.345 1.994-1.484 1.947 0-0.278 0-0.278-0.232-0.185-0.556 0.325c-0.274 0.43-0.746 0.662-0.886 0.725 0.15-0.086 0.19-0.4 0.19-0.4s-0.325 0.185-1.808 0.417-2.18-0.417-2.18-0.417c0.14-0.14 0.788 0 0.788 0 0-0.14-0.742-0.37-1.484-0.464-0.603-0.075-0.896-0.355-1.035-0.58-0.267-0.179-0.498-0.381-0.702-0.607l-0.003-0.003c-0.222-0.25-0.39-0.514-0.517-0.783-0.253-0.538-0.334-1.1-0.334-1.578 0.002-0.412 0.054-0.81 0.15-1.191l-0.007 0.034c0.070-0.292 0.144-0.47 0.147-0.48l0.010 0.004c0.087-0.268 0.258-0.483 0.46-0.57-0.055-0.039-0.119-0.078-0.186-0.114l-0.010-0.005c-0.303-0.162-0.646-0.23-0.983-0.173s-0.662 0.22-0.95 0.44c-0.276 0.21-0.496 0.51-0.64 0.84s-0.218 0.7-0.218 1.067c0.002 0.392 0.077 0.765 0.213 1.109l-0.007-0.021c0.147 0.372 0.336 0.694 0.567 0.98l-0.006-0.007c0.234 0.296 0.508 0.564 0.805 0.802-0.3-0.22-0.6-0.473-0.854-0.76-0.248-0.277-0.459-0.595-0.619-0.941l-0.010-0.024c-0.16-0.354-0.257-0.738-0.28-1.13s0.033-0.793 0.173-1.167c0.145-0.396 0.377-0.73 0.674-0.993l0.003-0.002c0.153-0.128 0.32-0.244 0.5-0.34s0.376-0.17 0.582-0.213 0.42-0.050 0.632-0.020 0.414 0.093 0.603 0.183c0.2 0.097 0.372 0.208 0.529 0.337l-0.005-0.004c0.083 0.068 0.158 0.136 0.229 0.207l0 0 0.107 0.113 0.085 0.1c0.165-0.428 0.050-1.144 0.022-1.294l-0.35-0.503c-0.105-0.168-0.22-0.375-0.336-0.637-0.155-0.346-0.245-0.75-0.245-1.175 0-0.008 0-0.015 0-0.023v0.001c0-0.436 0.085-0.82 0.17-1.095l0.076-0.224c0.262-1.14 1.517-2.26 1.517-2.26-1.762-0.232-2.967 1.39-2.967 1.39l-0.015-0.010c-0.125 0.138-0.55 0.634-0.588 1.030 0 0 0.015-0.7 0.192-1.206-0.672-0.214-1.464-0.102-1.87-0.018l0.003 0.015c-0.416 0.075-0.796 0.235-1.133 0.436s-0.63 0.444-0.873 0.68c-0.483 0.47-0.756 0.907-0.758 0.912l-0.013-0.008c-0.853 1.237-1.4 3.874-1.4 3.874 0.093-0.417 0.5-0.927 0.5-0.927-0.464 0.696-0.37 3.895-0.37 3.895 0-0.5 0.278-1.113 0.278-1.113 0.093 1.066 0.556 4.498 3.57 7.094s5.564 2.83 5.564 2.83c-0.603-0.186-0.742-0.464-0.742-0.464 1.947 0.788 3.153 0.65 3.153 0.65-0.325-0.185-0.37-0.325-0.37-0.325 2.087 0.093 4.87-0.65 5.518-1.113s1.206-1.39 1.206-1.39c1.67-0.788 2.828-2.41 3.153-3.246s0-1.716 0-1.716 0-0.046 0.788-1.808 0-4.266 0-4.266zM7.485 9.458c0.196-0.117 0.407-0.223 0.632-0.31-0.893-0.744-0.823-1.723-0.823-1.723-0.893 0.862-1.11 2.318-1.157 3.198l0.038-0.045c0.302-0.348 0.743-0.78 1.3-1.12z"></path>
</svg>
