<!-- Generated by IcoMoon.io -->
<svg version="1.1" xmlns="http://www.w3.org/2000/svg" width="32" height="32" viewBox="0 0 32 32">
<title>firebase</title>
<path d="M11.928 2.61c-4.193 0.52-6.786 1.752-7.095 3.394-0.056 0.266-0.056 1.752-0.028 3.309 0.056 2.328 0.098 2.917 0.308 3.295 0.225 0.435 0.225 0.505 0 1.094-0.21 0.546-0.225 0.968-0.154 3.238 0.056 1.43 0.169 2.818 0.266 3.071 0.126 0.351 0.126 0.546 0 0.827-0.21 0.448-0.225 4.403-0.028 5.595 0.084 0.561 0.266 0.996 0.533 1.332 1.248 1.557 4.557 2.482 9.422 2.636 6.043 0.197 10.656-0.94 11.75-2.889 0.295-0.505 0.308-0.73 0.308-3.295 0-2.173-0.041-2.861-0.223-3.295-0.182-0.463-0.182-0.617-0.041-0.884 0.126-0.238 0.169-1.051 0.141-2.987-0.028-2.777-0.070-3.184-0.379-3.632-0.154-0.225-0.141-0.336 0.028-0.687 0.182-0.336 0.225-0.953 0.21-3.407-0.013-1.739-0.084-3.182-0.182-3.449-0.379-1.163-2.062-2.229-4.347-2.777-2.805-0.659-7.347-0.869-10.488-0.491zM12.574 3.929c-0.041 0.070 0.743 0.084 1.795 0.041 1.557-0.056 5.664 0.182 5.525 0.323-0.028 0.028-0.659 0.112-1.416 0.197-0.771 0.084-1.514 0.225-1.683 0.308-0.28 0.154-0.28 0.169-0.041 0.351 0.238 0.169 0.223 0.182-0.141 0.266-1.15 0.238-1.893 0.533-2.159 0.869-0.673 0.856-0.084 1.711 1.36 2.019 1.094 0.225 5.413 0.084 6.604-0.21 1.319-0.336 1.991-0.715 1.991-1.135 0-0.574-0.842-0.996-2.874-1.416-1.080-0.21-0.392-0.253 0.953-0.041 1.332 0.21 2.413 0.617 2.762 1.066 0.253 0.336 0.28 0.561 0.28 3 0 3.015 0.028 2.944-1.345 3.576-1.991 0.94-5.231 1.291-10.853 1.191-1.066-0.028-1.15-0.041-0.855-0.21s0.197-0.197-0.981-0.266c-1.64-0.098-3.071-0.505-3.743-1.038-0.814-0.645-1.332-1.809-1.402-3.182-0.070-1.304 0.182-2.805 0.448-2.707 0.098 0.041 0.308-0.197 0.505-0.546 0.561-1.066 1.781-1.795 3.786-2.3 1.191-0.295 1.598-0.336 1.486-0.154zM7.302 14.444c0 0.574 0.28 0.813 1.374 1.135 3.955 1.191 12.872 1.038 15.424-0.266 0.52-0.266 0.589-0.351 0.589-0.784 0-0.533 0.141-0.617 0.477-0.266 0.266 0.266 0.253 0.028 0.223 2.931l-0.013 2.384-0.407 0.379c-0.869 0.799-3.884 1.43-7.572 1.598-4.57 0.21-9.801-0.687-10.6-1.823-0.154-0.225-0.197-0.827-0.197-2.734 0-2.075 0.028-2.482 0.238-2.706 0.323-0.364 0.463-0.308 0.463 0.154zM7.722 22.465c1.206 0.884 7.193 1.473 11.246 1.122 2.229-0.197 4.15-0.561 5.075-0.968 0.617-0.28 0.645-0.323 0.645-0.855 0-0.392 0.056-0.574 0.197-0.574 0.477 0 0.546 0.379 0.518 2.959-0.013 1.402-0.070 2.623-0.098 2.72-0.113 0.28-1.304 0.869-2.3 1.122-1.696 0.448-3.281 0.645-5.82 0.73-4.683 0.154-9.086-0.561-10.278-1.668-0.295-0.295-0.308-0.392-0.308-2.833 0-2.426 0.013-2.538 0.323-2.861l0.308-0.336 0.070 0.602c0.056 0.42 0.169 0.659 0.42 0.841z"></path>
</svg>
