<!-- Generated by IcoMoon.io -->
<svg version="1.1" xmlns="http://www.w3.org/2000/svg" width="32" height="32" viewBox="0 0 32 32">
<title>firefox</title>
<path d="M26.005 5.31v0zM1.698 13.363l-0.106 0.138-0.026 0.142c0.040-0.111 0.085-0.207 0.133-0.278zM5.912 6.559l0.080-0.083c1.269-1.269 2.748-2.266 4.394-2.963 1.704-0.721 3.514-1.087 5.38-1.087 1.762 0 3.472 0.326 5.094 0.967 0.946 0.163 2.206 0.477 3.257 1.076-2.359-1.675-5.239-2.658-8.351-2.658-4.034 0-7.682 1.656-10.301 4.322 0.122 0.148 0.269 0.292 0.444 0.424zM11.040 17.418c-0.096-0.080-0.181-0.167-0.257-0.263l-0.003-0.004c-0.027 0.207-0.040 0.428-0.040 0.663 0 0.435 0.053 0.901 0.203 1.367 0.168 0.524 0.432 0.976 0.773 1.356l-0.003-0.003c0.252 0.285 0.57 0.557 0.965 0.802l-0.023 0.036c0.742 0.013 1.951-0.001 2.563-0.205 0.921-0.307 2.396-1.475 2.396-1.475 0.368-0.368 0.799-0.186 1.166-0.186s0.49-0.553 0-1.106-2.213-1.106-3.502-0.245-3.134 0.186-4.24-0.737zM11.931 9.308c-0.082 0.305-0.154 0.694-0.154 1.117s0.072 0.885 0.272 1.338c0.159 0.362 0.313 0.628 0.451 0.841l0.273 0.388c0.172-0.159 0.375-0.318 0.541-0.429 0.368-0.245 1.782-0.922 1.966-1.106s0.553-1.166 0.245-1.475-2.274-0.123-2.889-0.245c-0.258-0.053-0.506-0.235-0.706-0.428zM12.328 15.32c0.001 0.005 0.003 0.008 0.003 0.008l0.007-0.013-0.009 0.007zM30.518 12.564c0 0.5-0.451 1.199-0.538 1.33 0.019-0.046 0.046-0.192 0.046-0.655 0-0.663 0.186-2.396-0.663-4.301s-2.167-2.828-2.167-2.828v0.431c-0.186-0.615-1.904-1.782-1.904-1.782v0.615c3.072 2.826 3.379 4.793 3.379 4.793-0.553-1.782-2.151-3.134-3.502-4.423s-4.178-1.966-4.178-1.966c3.011 1.72 4.486 4.423 4.486 4.423-1.537-1.475-2.765-1.352-2.765-1.352 0.922 0.663 1.352 1.413 2.213 2.765s0.799 4.545 0.799 4.545c-0.431-1.044-1.291-1.475-1.291-1.475l0.307 2.889c0.123 1.044-0.431 3.011-0.431 3.011 0-0.737-0.431-0.922-0.431-0.922s0.123 0.431-0.49 2.396-1.782 2.642-1.966 2.58 0-0.368 0-0.368-0.307-0.245-0.737 0.431c-0.363 0.57-0.989 0.877-1.174 0.961 0.199-0.114 0.252-0.53 0.252-0.53s-0.431 0.245-2.396 0.553-2.889-0.553-2.889-0.553c0.186-0.186 1.044 0 1.044 0 0-0.186-0.983-0.49-1.966-0.615-0.799-0.099-1.187-0.47-1.371-0.769-0.353-0.238-0.66-0.504-0.93-0.804l-0.004-0.004c-0.294-0.331-0.517-0.681-0.685-1.038-0.335-0.713-0.443-1.458-0.443-2.091 0.003-0.546 0.072-1.074 0.199-1.578l-0.010 0.045c0.093-0.387 0.191-0.623 0.195-0.636l0.013 0.005c0.115-0.355 0.342-0.64 0.61-0.755-0.073-0.051-0.158-0.104-0.246-0.151l-0.014-0.007c-0.402-0.215-0.856-0.305-1.303-0.229s-0.877 0.292-1.259 0.583c-0.366 0.278-0.657 0.676-0.848 1.113s-0.289 0.928-0.289 1.414c0.002 0.519 0.102 1.014 0.283 1.469l-0.010-0.027c0.195 0.493 0.445 0.919 0.751 1.299l-0.007-0.009c0.31 0.392 0.673 0.747 1.067 1.063-0.398-0.292-0.795-0.627-1.132-1.007-0.329-0.367-0.608-0.789-0.82-1.247l-0.013-0.031c-0.212-0.469-0.341-0.978-0.371-1.497s0.044-1.051 0.229-1.546c0.193-0.524 0.5-0.968 0.894-1.316l0.003-0.003c0.203-0.17 0.424-0.323 0.663-0.451s0.498-0.225 0.771-0.282 0.557-0.066 0.837-0.027 0.549 0.123 0.799 0.242c0.265 0.129 0.492 0.276 0.701 0.446l-0.006-0.005c0.11 0.090 0.209 0.18 0.303 0.274l0 0 0.142 0.15 0.113 0.133c0.219-0.567 0.066-1.516 0.029-1.715l-0.464-0.667c-0.139-0.223-0.292-0.497-0.445-0.844-0.205-0.459-0.325-0.994-0.325-1.557 0-0.010 0-0.020 0-0.030v0.002c0-0.578 0.113-1.087 0.225-1.451l0.101-0.297c0.347-1.511 2.010-2.995 2.010-2.995-2.335-0.307-3.932 1.842-3.932 1.842l-0.020-0.013c-0.166 0.183-0.729 0.84-0.779 1.365 0 0 0.020-0.928 0.254-1.598-0.89-0.284-1.94-0.135-2.478-0.024l0.004 0.020c-0.551 0.099-1.055 0.311-1.501 0.578s-0.835 0.588-1.157 0.901c-0.64 0.623-1.002 1.202-1.004 1.208l-0.017-0.011c-1.13 1.639-1.855 5.133-1.855 5.133 0.123-0.553 0.663-1.228 0.663-1.228-0.615 0.922-0.49 5.161-0.49 5.161 0-0.663 0.368-1.475 0.368-1.475 0.123 1.413 0.737 5.96 4.731 9.4s7.373 3.75 7.373 3.75c-0.799-0.246-0.983-0.615-0.983-0.615 2.58 1.044 4.178 0.861 4.178 0.861-0.431-0.245-0.49-0.431-0.49-0.431 2.765 0.123 6.453-0.861 7.312-1.475s1.598-1.842 1.598-1.842c2.213-1.044 3.747-3.194 4.178-4.301s0-2.274 0-2.274 0-0.061 1.044-2.396 0-5.653 0-5.653zM4.717 7.331c0.26-0.155 0.539-0.295 0.837-0.411-1.183-0.986-1.091-2.283-1.091-2.283-1.183 1.142-1.471 3.072-1.533 4.238l0.050-0.060c0.4-0.461 0.985-1.034 1.723-1.484z"></path>
</svg>
