<!-- Generated by IcoMoon.io -->
<svg version="1.1" xmlns="http://www.w3.org/2000/svg" width="32" height="32" viewBox="0 0 32 32">
<title>foundation</title>
<path d="M29.043 16.025l0.366 0.118 0.022-0.040c-0.2-0.264-0.394-0.548-0.76-0.6-0.265-0.037-0.537-0.027-0.806-0.038 0.010-0.127-0.038-0.172-0.165-0.12l-0.364 0.135-0.873 0.326c-0.050 0.018-0.115 0-0.173-0.002 0.004-0.055 0-0.11 0.014-0.163l0.17-0.582c0.018-0.065 0.027-0.132 0.040-0.198l0.276 0.22c0.056-0.685-0.080-1.284-0.44-1.862l0.358 0.020c-0.16-0.372-0.4-0.654-0.736-0.853-0.424-0.25-0.9-0.246-1.37-0.284-0.074-0.006-0.148-0.001-0.24-0.001 0.356 0.594 0.505 1.6 0.29 1.928l-0.12-0.202-0.82 1.316c-0.3 0.427-0.668 0.792-1.18 1.030l0.062-0.306-0.172 0.045c-0.127 0.020-0.26 0.063-0.38 0.044-0.23-0.035-0.452-0.104-0.677-0.165l-0.46-0.137-0.032-0.033c-0.178-0.125-0.15-0.274-0.060-0.44 0.060-0.114 0.103-0.237 0.15-0.357l0.317-0.82c0.105-0.118 0.225-0.227 0.313-0.357 0.086-0.133 0.168-0.286 0.236-0.446l0.008-0.020c0.052-0.114 0.123-0.193 0.243-0.244 0.070-0.030 0.14-0.095 0.172-0.162 0.060-0.124 0.1-0.26 0.14-0.393 0.032-0.106-0.008-0.182-0.116-0.217l-0.133-0.043c0.012-0.045 0.017-0.093 0.036-0.134l0.988-2.095 1.094-2.096c0.078-0.148 0.188-0.28 0.283-0.417l0.497 0.032c0.744 0.016 1.42-0.173 1.968-0.7 0.575-0.554 0.97-1.223 1.235-1.973l0.056-0.139-0.104 0.066c-0.733 0.502-1.524 0.778-2.426 0.633 0.010-0.030 0.015-0.063 0.032-0.087l0.952-1.28 0.368-0.45-0.196-0.074-0.903-0.28c-0.13-0.037-0.156-0.1-0.102-0.217l0.378-0.818 0.142-0.253c-0.389-0.077-0.837-0.122-1.295-0.122-0.318 0-0.631 0.021-0.938 0.063l0.036-0.004v-0.444c-0.5 0.046-0.605 0.072-0.88 0.133s-0.547 0.154-0.816 0.234l-0.040-0.025 0.63-1.092-0.93 0.1-1.87 0.354-0.843 0.206v-0.47c-0.25 0.068-0.694 0.264-1.122 0.423l0.272-0.7c0.015-0.048 0.026-0.104 0.028-0.156-0.023-0.008-0.036-0.027-0.057-0.024l-0.543 0.087c-0.945 0.185-1.84 0.498-2.686 0.963l-0.33 0.175-0.064-1.010c-0.51 0.18-0.997 0.415-1.348 0.867l-0.2-0.778-0.002-0.060-0.010-0.030-0.015 0.017-0.13 0.152c-0.4 0.565-0.61 1.195-0.65 1.885l-0.322-0.708-0.454 2.15-0.766-0.976c-0.264 0.714-0.436 1.428-0.518 2.19l-0.538-0.607c-0.36 1.098-0.664 2.178-0.777 3.32-0.27-0.165-0.436-0.38-0.55-0.646-0.164-0.38-0.203-0.778-0.188-1.186 0.002-0.062-0.006-0.124-0.010-0.186h-0.046c-0.534 1.86-0.673 3.764-0.6 5.697l-0.662-1.26-0.045 0.004-0.13 1.462c-0.020 0.302 0.030 0.248-0.258 0.32-0.907 0.226-1.77 0.552-2.523 1.123-0.048 0.036-0.106 0.057-0.16 0.085l0.054 0.050 0.772 0.29-0.97 1.084c-0.312 0.37-0.553 0.787-0.733 1.262l0.458-0.19c0.138-0.050 0.28-0.086 0.42-0.13-0.256 0.265-0.473 0.57-0.642 0.903l-0.010 0.021c-0.607 1.18-0.822 2.457-0.894 3.76-0.047 0.842-0.023 1.69 0.12 2.526l0.083 0.427 0.063 0.010 0.376-0.9c0.17 0.953 0.204 1.906 0.193 2.86l0.040 0.025 0.34-0.415c0.047 0.096 0.074 0.136 0.085 0.178 0.18 0.645 0.226 1.307 0.18 1.97-0.025 0.346-0.020 0.68 0.060 1.015 0.192 0.82 0.6 1.53 1.16 2.15 0.112 0.124 0.267 0.21 0.405 0.308 0.066 0.047 0.106 0.030 0.1-0.058v0l0.263 0.086 0.426 0.148 0.020-0.040-0.272-0.568-0.023-0.033 0.012-0.008 0.012 0.040c0.020 0.006 0.045 0.006 0.058 0.018 0.266 0.26 0.604 0.395 0.934 0.543 0.092 0.22 0.243 0.4 0.42 0.54l0.298-0.206 0.104 0.13c0.246 0.352 0.583 0.517 1.012 0.5l0.8-0.023 2.788-0.066 1.93-0.073 0.926-0.060c-0.482-1.27-1.486-1.942-2.598-2.418l0.954-0.26c1.38 0.766 2.904 1.27 4.15 2.285l0.058-0.030-0.1-1.124 0.237 0.162 0.914 0.68 0.056 0.026 0.020 0.040c0.458 0.393 0.945 0.695 1.588 0.68l2.664-0.005c0.081-0.005 0.151-0.044 0.198-0.103l0-0.001 0.574-0.98 1.44-2.763c-0.207 0.067-0.385 0.145-0.553 0.238l0.016-0.008-0.55 0.284-0.016 0.014 0.012-0.018c0.020-0.058 0.030-0.122 0.060-0.174l1.208-1.974c0.42-0.64 0.908-1.24 1.166-1.974l0.315-1.020-0.005-0.004-0.030 0.002-0.564 0.39c-0.24 0.135-0.495 0.24-0.744 0.358l-0.007 0.013-0.006-0.006 0.013-0.007 0.042-0.148 0.192-0.732c-0.077-0.005-0.11 0.010-0.14 0.026l-1.61 0.8c-0.75 0.34-1.452 0.75-2.1 1.268l-0.637 0.547-0.050-0.034-0.635-0.57-0.402-0.353c0.462-0.593 0.833-1.238 1.057-1.956 0.144-0.462 0.235-0.94 0.35-1.412l0.132-0.040c0.36-0.13 0.726-0.236 1.113-0.2 0.167 0.010 0.33 0.060 0.497 0.1l-0.125-0.28-0.012-0.015 0.010 0.003 0.005 0.012c0.030 0.006 0.062 0.007 0.090 0.020l0.862 0.4c0.394 0.159 0.851 0.251 1.329 0.251 0.062 0 0.123-0.002 0.185-0.005l-0.009 0c0.070-0.003 0.12-0.010 0.066-0.094l0.148 0.040c0.384 0.145 0.783 0.216 1.188 0.172 0.373-0.040 0.674-0.227 0.84-0.593l0.12 0.055c0.103-0.288 0.012-0.557-0.040-0.83-0.010-0.047-0.010-0.117 0.020-0.146 0.1-0.108 0.215-0.204 0.33-0.31l0.070 0.16c0.16-0.267 0.165-0.56 0.184-0.887l0.154 0.2 0.060-0.024c-0.048-0.237-0.052-0.496-0.155-0.706-0.144-0.294-0.152-0.53 0.040-0.802 0.114-0.16 0.163-0.37 0.264-0.61 0.018 0.050 0.023 0.078 0.038 0.1s0.037 0.022 0.065 0.038c-0.014-0.43-0.21-0.78-0.427-1.15z"></path>
</svg>
