<!-- Generated by IcoMoon.io -->
<svg version="1.1" xmlns="http://www.w3.org/2000/svg" width="32" height="32" viewBox="0 0 32 32">
<title>foundation</title>
<path d="M28.482 16.024l0.35 0.113 0.021-0.038c-0.191-0.253-0.377-0.524-0.727-0.574-0.254-0.035-0.514-0.026-0.771-0.036 0.010-0.122-0.036-0.165-0.158-0.115l-0.348 0.129-0.835 0.312c-0.048 0.017-0.11 0-0.166-0.002 0.004-0.053 0-0.105 0.013-0.156l0.163-0.557c0.017-0.062 0.026-0.126 0.038-0.19l0.264 0.211c0.054-0.656-0.077-1.229-0.421-1.782l0.343 0.019c-0.153-0.356-0.383-0.626-0.704-0.816-0.406-0.239-0.861-0.235-1.311-0.272-0.071-0.006-0.142-0.001-0.23-0.001 0.341 0.568 0.483 1.531 0.278 1.845l-0.115-0.193-0.785 1.259c-0.287 0.409-0.639 0.758-1.129 0.986l0.059-0.293-0.165 0.043c-0.122 0.019-0.249 0.060-0.364 0.042-0.22-0.034-0.433-0.1-0.648-0.158l-0.44-0.131-0.031-0.032c-0.17-0.12-0.144-0.262-0.057-0.421 0.057-0.109 0.099-0.227 0.144-0.342l0.303-0.785c0.101-0.113 0.215-0.217 0.3-0.342 0.082-0.127 0.16-0.273 0.226-0.426l0.007-0.020c0.050-0.109 0.118-0.185 0.233-0.234 0.067-0.029 0.134-0.091 0.165-0.155 0.057-0.119 0.096-0.249 0.134-0.376 0.031-0.101-0.008-0.174-0.111-0.208l-0.127-0.041c0.012-0.043 0.016-0.089 0.034-0.128l0.946-2.005 1.047-2.006c0.075-0.142 0.18-0.268 0.271-0.399l0.476 0.031c0.712 0.015 1.359-0.166 1.883-0.67 0.55-0.53 0.928-1.17 1.182-1.888l0.054-0.133-0.1 0.063c-0.701 0.48-1.459 0.745-2.322 0.606 0.010-0.029 0.014-0.060 0.031-0.083l0.911-1.225 0.352-0.431-0.188-0.071-0.864-0.268c-0.124-0.035-0.149-0.096-0.098-0.208l0.362-0.783 0.136-0.242c-0.373-0.074-0.801-0.116-1.24-0.116-0.304 0-0.604 0.020-0.897 0.060l0.034-0.004v-0.425c-0.479 0.044-0.579 0.069-0.842 0.127s-0.523 0.147-0.781 0.224l-0.038-0.024 0.603-1.045-0.89 0.096-1.79 0.339-0.807 0.197v-0.45c-0.239 0.065-0.664 0.253-1.074 0.405l0.26-0.67c0.014-0.046 0.025-0.1 0.027-0.149-0.022-0.008-0.034-0.026-0.055-0.023l-0.52 0.083c-0.904 0.177-1.761 0.477-2.571 0.922l-0.316 0.168-0.061-0.967c-0.488 0.172-0.954 0.397-1.29 0.83l-0.191-0.745-0.002-0.057-0.010-0.029-0.014 0.016-0.124 0.145c-0.383 0.541-0.584 1.144-0.622 1.804l-0.308-0.678-0.434 2.058-0.733-0.934c-0.253 0.683-0.417 1.367-0.496 2.096l-0.515-0.581c-0.345 1.051-0.635 2.084-0.744 3.177-0.258-0.158-0.417-0.364-0.526-0.618-0.157-0.364-0.194-0.745-0.18-1.135 0.002-0.059-0.006-0.119-0.010-0.178h-0.044c-0.511 1.78-0.644 3.602-0.574 5.452l-0.634-1.206-0.043 0.004-0.124 1.399c-0.019 0.289 0.029 0.237-0.247 0.306-0.868 0.216-1.694 0.528-2.415 1.075-0.046 0.034-0.101 0.055-0.153 0.081l0.052 0.048 0.739 0.278-0.928 1.037c-0.299 0.354-0.529 0.753-0.702 1.208l0.438-0.182c0.132-0.048 0.268-0.082 0.402-0.124-0.245 0.254-0.453 0.545-0.615 0.864l-0.009 0.020c-0.581 1.129-0.787 2.351-0.856 3.598-0.045 0.806-0.022 1.617 0.115 2.417l0.079 0.409 0.060 0.010 0.36-0.861c0.163 0.912 0.195 1.824 0.185 2.737l0.038 0.024 0.325-0.397c0.045 0.092 0.071 0.13 0.081 0.17 0.172 0.617 0.216 1.251 0.172 1.885-0.024 0.331-0.019 0.651 0.057 0.971 0.184 0.785 0.574 1.464 1.11 2.058 0.107 0.119 0.256 0.201 0.388 0.295 0.063 0.045 0.101 0.029 0.096-0.056v0l0.252 0.082 0.408 0.142 0.019-0.038-0.26-0.544-0.022-0.032 0.011-0.008 0.011 0.038c0.019 0.006 0.043 0.006 0.056 0.017 0.255 0.249 0.578 0.378 0.894 0.52 0.088 0.211 0.233 0.383 0.402 0.517l0.285-0.197 0.1 0.124c0.235 0.337 0.558 0.495 0.969 0.479l0.766-0.022 2.668-0.063 1.847-0.070 0.886-0.057c-0.461-1.215-1.422-1.859-2.486-2.314l0.913-0.249c1.321 0.733 2.779 1.215 3.972 2.187l0.056-0.029-0.096-1.076 0.227 0.155 0.875 0.651 0.054 0.025 0.019 0.038c0.438 0.376 0.904 0.665 1.52 0.651l2.549-0.005c0.077-0.005 0.145-0.042 0.189-0.099l0-0.001 0.549-0.938 1.378-2.644c-0.198 0.064-0.368 0.139-0.529 0.228l0.015-0.008-0.526 0.272-0.015 0.013 0.012-0.017c0.019-0.056 0.029-0.117 0.057-0.167l1.156-1.889c0.402-0.612 0.869-1.187 1.116-1.889l0.301-0.976-0.005-0.004-0.029 0.002-0.54 0.373c-0.23 0.129-0.474 0.23-0.712 0.343l-0.007 0.012-0.006-0.006 0.012-0.007 0.040-0.142 0.184-0.701c-0.074-0.005-0.105 0.010-0.134 0.025l-1.541 0.766c-0.718 0.325-1.39 0.718-2.010 1.213l-0.61 0.523-0.048-0.033-0.608-0.546-0.385-0.338c0.442-0.567 0.797-1.185 1.012-1.872 0.138-0.442 0.225-0.9 0.335-1.351l0.126-0.038c0.345-0.124 0.695-0.226 1.065-0.191 0.16 0.010 0.316 0.057 0.476 0.096l-0.12-0.268-0.012-0.014 0.010 0.003 0.005 0.012c0.029 0.006 0.059 0.007 0.086 0.019l0.825 0.383c0.377 0.152 0.814 0.24 1.272 0.24 0.059 0 0.118-0.001 0.177-0.004l-0.008 0c0.067-0.003 0.115-0.010 0.063-0.090l0.142 0.038c0.367 0.139 0.749 0.207 1.137 0.165 0.357-0.038 0.645-0.217 0.804-0.567l0.115 0.053c0.099-0.276 0.012-0.533-0.038-0.794-0.010-0.045-0.010-0.112 0.019-0.14 0.096-0.103 0.206-0.195 0.316-0.297l0.067 0.153c0.153-0.256 0.158-0.536 0.176-0.849l0.147 0.191 0.057-0.023c-0.046-0.227-0.050-0.475-0.148-0.676-0.138-0.281-0.145-0.507 0.038-0.768 0.109-0.153 0.156-0.354 0.253-0.584 0.017 0.048 0.022 0.075 0.036 0.096s0.035 0.021 0.062 0.036c-0.013-0.412-0.201-0.747-0.409-1.101z"></path>
</svg>
