<!-- Generated by IcoMoon.io -->
<svg version="1.1" xmlns="http://www.w3.org/2000/svg" width="32" height="32" viewBox="0 0 32 32">
<title>gimp</title>
<path d="M9.1 13.6c-0.275 0-0.55-0.15-0.675-0.4l-0.2-0.4-0.075 0.45-0.025 0.2c0 0.825 0.65 1.475 1.475 1.475s1.475-0.65 1.475-1.475c0-0.775-0.625-1.425-1.4-1.475l-0.425-0.025 0.35 0.275c0.175 0.15 0.3 0.375 0.3 0.6-0.025 0.425-0.375 0.775-0.8 0.775zM8.975 10.25c1.25 0 2.325 0.85 2.65 1.975 0.2-0.55 0.525-1.025 0.95-1.4-4.075-0.25-5.825-3.875-5.825-3.875l-0.1 4.575c0.475-0.75 1.325-1.275 2.325-1.275zM15.425 15.5c0.925 0 1.675-0.75 1.675-1.675 0-0.9-0.7-1.65-1.6-1.675l-0.375-0.025 0.3 0.225c0.225 0.175 0.35 0.45 0.35 0.75 0 0.525-0.425 0.95-0.95 0.95-0.35 0-0.675-0.2-0.85-0.5l-0.175-0.325-0.050 0.375-0.025 0.225c0.025 0.9 0.775 1.675 1.7 1.675zM31.5 27.3c-0.1-0.35-0.2-0.7-0.3-1.025-0.625-2.25-1.1-4-3.075-3.825-0.3 0.025-0.55 0.125-0.775 0.275l-1.975-1.25h-0.075l-0.15-0.475-0.3 0.2c-0.625-0.4-1.325-0.75-2.025-1.075 2.25-2.675 3.475-7.4 2.625-15.125-0.075-0.675-0.45-0.775-0.7-0.050-0.2 0.625-1.525 4.575-8.35 5.675 0.9 0.575 1.5 1.575 1.5 2.725 0 1.8-1.45 3.25-3.25 3.25-1.525 0-2.825-1.075-3.15-2.5-0.425 1-1.4 1.7-2.55 1.7s-2.125-0.7-2.55-1.7c-0.025 0.050-0.050 0.1-0.075 0.125-0.025-0.050-0.075-0.1-0.1-0.175-1.35-1.85-3.5-2.6-4.825-1.65-1.325 0.975-1.3 3.25 0.050 5.1 1.125 1.55 2.8 2.325 4.1 1.975 3.775 2.8 10.75 5.225 15.425 2.25 0.925 0.525 1.975 1.025 2.95 1.375v0.025l0.1 0.3 0.4-0.15 0.050 0.050 2.2 0.8c0.025 0.7 0.45 1.475 1.35 1.825 1.675 0.65 3.275 1.45 3.275 1.475l0.25 0.125-0.050-0.25zM1.25 14.275c0-0.8 0.55-1.45 1.2-1.45 0.675 0 1.2 0.65 1.2 1.45s-0.55 1.45-1.2 1.45c-0.675 0-1.2-0.65-1.2-1.45zM10.4 18.925c4.575 0.925 6.925 0.075 8.275-1-0.35-0.475-0.975-0.975-0.975-0.975s1.6 0.45 2.175 1.175c0.25 0.325 0.325 0.6 0.3 0.875-0.8-0.275-1.4-0.45-1.525-0.5-0.5-0.225-0.975-0.075-1.1 0.3-0.1 0.275-0.025 0.6 0.225 0.85-1.575 0.725-4.15 0.425-7.375-0.725z"></path>
</svg>
