<!-- Generated by IcoMoon.io -->
<svg version="1.1" xmlns="http://www.w3.org/2000/svg" width="32" height="32" viewBox="0 0 32 32">
<title>gimp</title>
<path d="M9.504 13.741c-0.259 0-0.518-0.141-0.635-0.377l-0.188-0.377-0.071 0.424-0.024 0.188c0 0.777 0.612 1.389 1.389 1.389s1.389-0.612 1.389-1.389c0-0.73-0.588-1.342-1.318-1.389l-0.4-0.024 0.329 0.259c0.165 0.141 0.282 0.353 0.282 0.565-0.024 0.4-0.353 0.73-0.753 0.73zM9.386 10.587c1.177 0 2.189 0.8 2.495 1.859 0.188-0.518 0.494-0.965 0.894-1.318-3.836-0.235-5.484-3.648-5.484-3.648l-0.094 4.307c0.447-0.706 1.247-1.2 2.189-1.2zM15.459 15.529c0.871 0 1.577-0.706 1.577-1.577 0-0.847-0.659-1.553-1.506-1.577l-0.353-0.024 0.282 0.212c0.212 0.165 0.329 0.424 0.329 0.706 0 0.494-0.4 0.894-0.894 0.894-0.329 0-0.635-0.188-0.8-0.471l-0.165-0.306-0.047 0.353-0.024 0.212c0.024 0.847 0.73 1.577 1.6 1.577zM30.592 26.638c-0.094-0.329-0.188-0.659-0.282-0.965-0.588-2.118-1.036-3.766-2.895-3.601-0.282 0.024-0.518 0.118-0.73 0.259l-1.859-1.177h-0.071l-0.141-0.447-0.282 0.188c-0.588-0.377-1.247-0.706-1.906-1.012 2.118-2.518 3.271-6.967 2.471-14.239-0.071-0.635-0.424-0.73-0.659-0.047-0.188 0.588-1.436 4.307-7.861 5.343 0.847 0.541 1.412 1.483 1.412 2.565 0 1.695-1.365 3.060-3.060 3.060-1.436 0-2.66-1.012-2.966-2.354-0.4 0.941-1.318 1.6-2.401 1.6s-2.001-0.659-2.401-1.6c-0.024 0.047-0.047 0.094-0.071 0.118-0.024-0.047-0.071-0.094-0.094-0.165-1.271-1.742-3.295-2.448-4.542-1.553-1.247 0.918-1.224 3.060 0.047 4.801 1.059 1.459 2.636 2.189 3.86 1.859 3.554 2.636 10.12 4.919 14.522 2.118 0.871 0.494 1.859 0.965 2.777 1.294v0.024l0.094 0.282 0.377-0.141 0.047 0.047 2.071 0.753c0.024 0.659 0.424 1.389 1.271 1.718 1.577 0.612 3.083 1.365 3.083 1.389l0.235 0.118-0.047-0.235zM2.114 14.376c0-0.753 0.518-1.365 1.13-1.365 0.635 0 1.13 0.612 1.13 1.365s-0.518 1.365-1.13 1.365c-0.635 0-1.13-0.612-1.13-1.365zM10.728 18.754c4.307 0.871 6.519 0.071 7.79-0.941-0.329-0.447-0.918-0.918-0.918-0.918s1.506 0.424 2.048 1.106c0.235 0.306 0.306 0.565 0.282 0.824-0.753-0.259-1.318-0.424-1.436-0.471-0.471-0.212-0.918-0.071-1.036 0.282-0.094 0.259-0.024 0.565 0.212 0.8-1.483 0.683-3.907 0.4-6.943-0.683z"></path>
</svg>
