<!-- Generated by IcoMoon.io -->
<svg version="1.1" xmlns="http://www.w3.org/2000/svg" width="32" height="32" viewBox="0 0 32 32">
<title>git-pull-request</title>
<path d="M8 3.335c-2.208 0-4 1.792-4 4 0 1.476 0.809 2.752 2 3.447v13.108c-1.19 0.693-2 1.969-2 3.446 0 2.207 1.792 4 4 4s4-1.793 4-4c0-1.477-0.808-2.752-2-3.446v-13.108c1.192-0.694 2-1.971 2-3.447 0-2.208-1.792-4-4-4zM8 29.334c-1.103 0-2-0.895-2-2 0-1.103 0.896-2 2-2 1.107 0 2 0.896 2 2 0 1.106-0.894 2-2 2zM8 9.335c-1.103 0-2-0.894-2-2s0.896-2 2-2c1.107 0 2 0.894 2 2s-0.894 2-2 2zM26 23.889v-12.555c0-6.015-6-6-6-6h-2v-4l-6 6 6 6v-4c0 0 0.834 0 2 0 1.764 0 2 2 2 2v12.554c-1.191 0.693-2 1.966-2 3.446 0 2.207 1.793 4 4 4s4-1.793 4-4c0-1.477-0.809-2.752-2-3.446zM24 29.334c-1.103 0-2-0.895-2-2 0-1.103 0.896-2 2-2 1.106 0 2 0.896 2 2 0 1.106-0.895 2-2 2z"></path>
</svg>
