<!-- Generated by IcoMoon.io -->
<svg version="1.1" xmlns="http://www.w3.org/2000/svg" width="32" height="32" viewBox="0 0 32 32">
<title>git-branch</title>
<path d="M22.428 5.62c-2.365 0-4.286 1.92-4.286 4.286 0 1.581 0.866 2.949 2.142 3.692v0.594c0 0 0 4.286-4.286 4.286-1.777 0-3.169 0.381-4.286 0.964v-10.129c1.278-0.743 2.142-2.111 2.142-3.692 0-2.366-1.92-4.286-4.286-4.286s-4.286 1.92-4.286 4.286c0 1.581 0.865 2.949 2.142 3.692v14.044c-1.278 0.743-2.142 2.11-2.142 3.691 0 2.365 1.92 4.286 4.286 4.286s4.286-1.922 4.286-4.286c0-1.122-0.442-2.134-1.147-2.901 0.624-0.766 1.638-1.385 3.29-1.385 8.504 0 8.571-8.571 8.571-8.571v-0.594c1.276-0.743 2.142-2.111 2.142-3.692 0-2.366-1.922-4.286-4.286-4.286zM9.572 3.477c1.185 0 2.142 0.957 2.142 2.142s-0.957 2.142-2.142 2.142c-1.185 0-2.142-0.957-2.142-2.142s0.957-2.142 2.142-2.142zM9.572 29.191c-1.185 0-2.142-0.958-2.142-2.142s0.957-2.142 2.142-2.142 2.142 0.961 2.142 2.142c0 1.184-0.957 2.142-2.142 2.142zM22.428 12.048c-1.184 0-2.142-0.957-2.142-2.142s0.958-2.142 2.142-2.142 2.142 0.957 2.142 2.142c0 1.185-0.958 2.142-2.142 2.142z"></path>
</svg>
