<!-- Generated by IcoMoon.io -->
<svg version="1.1" xmlns="http://www.w3.org/2000/svg" width="32" height="32" viewBox="0 0 32 32">
<title>git-merge</title>
<path d="M24.571 14.193c-1.595 0-2.967 0.881-3.704 2.173-0.192-0.014-0.381-0.030-0.582-0.030-4.389 0-8.553-3.343-10.073-7.482 0.914-0.786 1.5-1.936 1.5-3.234 0-2.366-1.92-4.286-4.286-4.286s-4.286 1.92-4.286 4.286c0 1.581 0.866 2.949 2.143 3.692v14.045c-1.277 0.742-2.143 2.11-2.143 3.691 0 2.365 1.92 4.286 4.286 4.286s4.286-1.921 4.286-4.286c0-1.582-0.866-2.949-2.143-3.691v-7.711c2.818 2.981 6.709 4.973 10.714 4.973 0.213 0 0.389-0.014 0.582-0.021 0.741 1.287 2.114 2.164 3.704 2.164 2.365 0 4.286-1.921 4.286-4.286s-1.921-4.286-4.286-4.286zM7.429 29.193c-1.182 0-2.143-0.958-2.143-2.143 0-1.182 0.961-2.143 2.143-2.143 1.186 0 2.143 0.961 2.143 2.143 0 1.185-0.957 2.143-2.143 2.143zM7.429 7.763c-1.182 0-2.143-0.957-2.143-2.143s0.961-2.143 2.143-2.143c1.186 0 2.143 0.957 2.143 2.143s-0.957 2.143-2.143 2.143zM24.571 20.621c-1.182 0-2.143-0.958-2.143-2.143s0.961-2.143 2.143-2.143c1.185 0 2.143 0.957 2.143 2.143s-0.958 2.143-2.143 2.143z"></path>
</svg>
