<!-- Generated by IcoMoon.io -->
<svg version="1.1" xmlns="http://www.w3.org/2000/svg" width="32" height="32" viewBox="0 0 32 32">
<title>git</title>
<path d="M30.434 15.044l-13.098-13.098c-0.754-0.754-1.978-0.754-2.732 0l-2.72 2.72 3.45 3.45c0.802-0.271 1.721-0.089 2.361 0.549 0.642 0.642 0.823 1.571 0.545 2.375l3.325 3.325c0.805-0.278 1.733-0.098 2.375 0.545 0.898 0.898 0.898 2.353 0 3.251s-2.353 0.898-3.252 0c-0.676-0.676-0.842-1.668-0.5-2.5l-3.102-3.102v8.161c0.218 0.109 0.426 0.253 0.608 0.435 0.898 0.898 0.898 2.353 0 3.252-0.898 0.898-2.354 0.898-3.251 0-0.898-0.899-0.898-2.354 0-3.252 0.222-0.222 0.479-0.39 0.753-0.501v-8.237c-0.274-0.112-0.531-0.278-0.753-0.501-0.68-0.68-0.843-1.679-0.495-2.512l-3.401-3.402-8.982 8.98c-0.754 0.755-0.754 1.979 0 2.733l13.1 13.098c0.754 0.754 1.976 0.754 2.732 0l13.037-13.037c0.754-0.754 0.754-1.979 0-2.733z"></path>
</svg>
