<!-- Generated by IcoMoon.io -->
<svg version="1.1" xmlns="http://www.w3.org/2000/svg" width="32" height="32" viewBox="0 0 32 32">
<title>github</title>
<path d="M16 1.775c-8.271 0-14.976 6.705-14.976 14.975 0 6.617 4.29 12.23 10.242 14.209 0.749 0.137 1.022-0.326 1.022-0.721 0-0.356-0.013-1.538-0.021-2.787-4.165 0.905-5.044-1.766-5.044-1.766-0.682-1.73-1.663-2.19-1.663-2.19-1.362-0.929 0.103-0.91 0.103-0.91 1.503 0.104 2.296 1.543 2.296 1.543 1.336 2.289 3.507 1.627 4.358 1.243 0.136-0.965 0.523-1.627 0.95-2-3.324-0.378-6.821-1.663-6.821-7.402 0-1.636 0.585-2.97 1.54-4.019-0.152-0.38-0.669-1.903 0.148-3.964 0 0 1.256-0.402 4.118 1.535 1.193-0.334 2.475-0.498 3.747-0.503 1.272 0.005 2.554 0.172 3.75 0.506 2.857-1.939 4.115-1.535 4.115-1.535 0.818 2.062 0.303 3.584 0.149 3.963 0.96 1.048 1.539 2.383 1.539 4.019 0 5.753-3.503 7.020-6.838 7.391 0.539 0.465 1.016 1.375 1.016 2.771 0 2.002-0.020 3.616-0.020 4.11 0 0.399 0.272 0.865 1.030 0.718 5.947-1.984 10.233-7.595 10.233-14.209 0-8.269-6.705-14.976-14.976-14.976z"></path>
</svg>
