<!-- Generated by IcoMoon.io -->
<svg version="1.1" xmlns="http://www.w3.org/2000/svg" width="32" height="32" viewBox="0 0 32 32">
<title>gnu</title>
<path d="M9.726 18.222c-0.207 0.013-0.383 0.134-0.473 0.308l-0.002 0.003c-0.106 0.19-0.356 0.22-0.472 0.183-0.194-0.064-0.442-0.108-0.682 0.063s-0.5 0.042-0.454-0.27 0.158-0.59 0.457-0.76c0.653-0.376 0.2-0.637 0.557-1.014s0.28-0.493 0.268-1.006c-1.213-0.182-1.9-0.532-2.67-1.49s-1.066-1.75-1.145-2.952-0.010-1.982 0.51-2.98 1.067-1.48 2.015-1.978 1.877-0.618 2.736-0.603 1.43 0.077 1.916 0.354 0.93 0.625 1.212 0.628 0.476-0.072 0.613-0.177c0.037 0.932-0.802 1.013-1.553 1.033s-1.212-0.29-1.904-0.175-1.824 0.43-2.375 1.4-0.57 1.3-0.525 2.104 0.74 1.406 1.13 1.412 0.478-0.107 0.82-0.33 2.1-2.387 2.687-2.873 1.185-0.636 1.82-0.644 0.798 0.014 1.3 0.224 0.828 0.597 1.24 0.833c0.21-0.124 0.342-0.3 0.536-0.452 0.693-0.507 1.053-0.643 1.877-0.563 0.474 0.046 1.070 0.317 1.427 0.626 0.634 0.552 1.158 1.32 1.582 1.903 0.33 0.454 0.718 0.998 1.272 1.168 0.605 0.185 1.060-0.598 1.127-1.033 0.038-0.246 0.087-0.462 0.088-0.733s-0.027-0.6-0.105-0.882c-0.089-0.303-0.211-0.568-0.365-0.81l0.008 0.013c-0.236-0.38-0.622-0.776-1.023-0.98-0.225-0.115-0.755-0.323-1.1-0.33-0.41-0.010-0.72 0.13-1.1 0.154-0.458 0.030-1.277 0.134-1.636-0.22-0.23-0.225-0.257-0.375-0.296-0.67 0.1 0.083 0.242 0.138 0.368 0.15 0.287 0.024 0.556-0.2 0.787-0.346 0.19-0.112 0.46-0.312 0.712-0.413 0.644-0.26 1.435-0.252 2.114-0.183 0.545 0.056 1.25 0.298 1.73 0.568s0.943 0.73 1.282 1.16c0.426 0.543 0.66 1.010 0.814 1.687 0.197 0.865 0.252 2.164 0.014 3.017-0.188 0.672-0.812 1.705-1.344 2.21-0.524 0.5-1.13 0.74-1.818 0.872 0.027 0.14 0.030 0.268 0.067 0.382 0.050 0.162 0.147 0.342 0.346 0.285 0.080-0.023 0.122-0.042 0.226 0.050s0.050 0.445-0.244 0.603c-0.15 0.080-0.306 0.098-0.545 0.103s-0.61 0.006-0.87-0.040-0.414-0.25-0.7-0.283c-0.444-0.050-0.783-0.37-1.14-0.6-0.148-0.096-0.198-0.097-0.284-0.145l0.14 0.424c0.030 0.136 0.018 0.262 0.034 0.37s0.046 0.193 0.064 0.282c0.070 0.064 0.094 0.16 0.213 0.19s0.306-0.017 0.43-0.033 0.204-0.083 0.3-0.065 0.187 0.087 0.267 0.15 0.15 0.074 0.215 0.234 0.125 0.5 0.134 0.71-0.016 0.418-0.080 0.593-0.122 0.252-0.3 0.424-0.464 0.426-0.75 0.603c0.053 0.078 0.076 0.15 0.16 0.235s0.254 0.18 0.33 0.27 0.115 0.154 0.116 0.254-0.004 0.23-0.085 0.34c-0.203 0.272-0.443 0.32-0.735 0.45 0.050 0.306 0.090 0.525 0.018 0.83-0.030 0.125-0.093 0.408-0.247 0.48s-0.45 0.037-0.638 0.067l-0.44 0.087c-0.090 0.13-0.22 0.27-0.267 0.386s-0.032 0.157 0.006 0.274 0.168 0.29 0.205 0.427c0.020 0.069 0.032 0.149 0.032 0.232 0 0.068-0.008 0.135-0.023 0.198l0.001-0.006c-0.036 0.143-0.11 0.266-0.211 0.361l-0 0c-0.118 0.123-0.35 0.22-0.465 0.32s-0.23 0.11-0.2 0.276c0.043 0.226 0.374 0.593 0.613 0.68 0.143 0.052 0.335 0.036 0.51-0.038-0.012 0.193-0.18 0.323-0.288 0.452 0.296-0.085 0.583-0.247 0.78-0.46-0.062 0.186-0.273 0.486-0.6 0.748s-0.315 0.21-0.472 0.313c0.287 0.058 0.554 0.042 0.777 0.002-0.122 0.067-0.322 0.162-0.587 0.2s-0.428 0.008-0.667-0.050-0.456-0.275-0.746-0.424c0.028 0.107 0.048 0.236 0.17 0.346s0.306 0.166 0.5 0.262l-0.755-0.090c-0.18-0.040-0.303-0.082-0.435-0.148s-0.235-0.16-0.352-0.242c0.056 0.107 0.073 0.234 0.17 0.322s0.25 0.12 0.377 0.182c-0.13-0.003-0.257 0.026-0.393-0.010-0.155-0.039-0.29-0.105-0.408-0.194l0.003 0.002c-0.142-0.104-0.287-0.233-0.408-0.364s-0.27-0.3-0.315-0.422 0.027-0.206 0.040-0.31c-0.083 0.055-0.186 0.085-0.25 0.165s-0.12 0.152-0.092 0.29 0.156 0.308 0.247 0.462c-0.27-0.22-0.42-0.305-0.485-0.572-0.060-0.25 0.095-0.475 0.214-0.664 0.060-0.093 0.146-0.18 0.2-0.27-0.122-0.12-0.26-0.222-0.366-0.358s-0.148-0.32-0.255-0.45-0.25-0.212-0.375-0.32c0.1 0.236 0.3 0.525 0.33 0.708s-0.044 0.294-0.11 0.393-0.17 0.12-0.268 0.18-0.253 0.013-0.313 0.103-0.075 0.225-0.018 0.314l0.232 0.366c-0.117-0.070-0.215-0.155-0.297-0.255l-0.002-0.002c-0.067-0.090-0.168-0.17-0.182-0.29s-0.020-0.224 0.057-0.33 0.29-0.143 0.386-0.225 0.15-0.136 0.143-0.242-0.11-0.182-0.2-0.25c-0.273-0.204-0.622-0.393-0.854-0.64-0.13-0.14-0.194-0.252-0.22-0.348s0.002-0.17 0.066-0.29 0.288-0.276 0.315-0.404-0.085-0.156-0.187-0.2-0.294 0.023-0.39-0.056 0.028-0.244-0.080-0.335-0.35-0.040-0.474-0.138-0.177-0.22-0.22-0.36-0.048-0.297-0.020-0.4 0.117-0.12 0.17-0.174 0.1-0.097 0.028-0.177-0.303 0.005-0.436-0.097-0.052-0.345-0.146-0.448-0.263-0.063-0.352-0.095-0.124 0.083-0.18-0.1-0.056-0.73-0.13-0.933-0.218-0.014-0.285-0.216-0.003-0.526-0.034-0.832l-0.137-0.832c-0.478 0.32-0.793 0.422-1.307 0.512-0.043 1.256-0.16 1.996 0.265 3.39s1.29 2.215 2.453 3.395c-1.536-1.15-2.27-2.086-2.728-3.285s-0.37-2.2-0.325-3.355zM17.886 17.718c0.118 0.005 0.262 0.035 0.345 0.090s0.17 0.098 0.246 0.175c0.188 0.19 0.33 0.422 0.39 0.687 0.040 0.17 0.046 0.386 0.060 0.585-0.057-0.183-0.095-0.375-0.176-0.54-0.128-0.26-0.345-0.512-0.614-0.63-0.090-0.038-0.148-0.030-0.197-0.024 0.022 0.037 0.060 0.068 0.060 0.12s-0.010 0.16-0.102 0.203c-0.147 0.072-0.31 0.020-0.424-0.080s-0.154-0.272-0.094-0.42c0.072-0.175 0.344-0.176 0.505-0.17zM16.406 17.468c0.015-0.302 0.124-0.556 0.394-0.704 0.14-0.076 0.355-0.175 0.553-0.2 0.2-0.022 0.653-0.006 0.93 0.12 0.214 0.098 0.36 0.25 0.547 0.36l0.5 0.3c0.274 0.19 0.435 0.4 0.625 0.527 0.090 0.060 0.22 0.052 0.34 0.090-0.094 0.028-0.218 0.060-0.32 0.026-0.127-0.040-0.304-0.157-0.403-0.24-0.134-0.12-0.282-0.229-0.441-0.322l-0.013-0.007-0.425-0.225-0.46-0.32c-0.168-0.072-0.364-0.114-0.57-0.114-0.009 0-0.018 0-0.027 0l0.001-0c-0.234 0.007-0.572 0.045-0.752 0.21s-0.248 0.306-0.207 0.518c0.068-0.078 0.113-0.176 0.18-0.234 0.14-0.12 0.3-0.126 0.476-0.103 0.196 0.026 0.295 0.14 0.36 0.325-0.044-0.032-0.124-0.102-0.187-0.124-0.148-0.050-0.26-0.035-0.4 0.040-0.164 0.088-0.12 0.22-0.143 0.363-0.010 0.067-0.036 0.12-0.054 0.18-0.062-0.016-0.12-0.042-0.166-0.088 0.002 0.068-0.008 0.127 0.006 0.203s0.050 0.167 0.076 0.25c-0.114-0.114-0.23-0.22-0.305-0.37s-0.124-0.312-0.116-0.474zM16.604 15.272c0.084-0.125 0.11-0.317 0.16-0.473-0.020 0.198 0.020 0.415-0.077 0.558s-0.266 0.118-0.407 0.16c0.11-0.083 0.238-0.12 0.323-0.245zM14.584 18.202c0.108-0.088 0.4-0.017 0.62-0.002l-0.47 0.12c-0.015 0.053-0.008 0.115-0.044 0.16s-0.104 0.063-0.156 0.094c0.005-0.14-0.056-0.285 0.052-0.373zM16.124 12.115c0.13 0.070 0.296 0.163 0.41 0.166s0.145-0.075 0.213-0.12c0.107 0.348 0.23 0.73 0.4 1.045 0.076 0.132 0.125 0.070 0.182 0.204s0.083 0.403 0.138 0.573 0.126 0.294 0.2 0.442l-0.457-0.707c-0.090-0.2-0.032-0.206-0.105-0.386s-0.22-0.46-0.328-0.692c-0.078 0.010-0.175 0.025-0.235 0.006s-0.048-0.082-0.1-0.123-0.144-0.025-0.22-0.1-0.093-0.2-0.1-0.318zM15.421 13.83c0.123-0.010 0.275 0.022 0.4 0.016s0.197-0.036 0.296-0.055c-0.018-0.173-0.001-0.49-0.16-0.607-0.103-0.075-0.527-0.018-0.64 0.006-0.255 0.055-0.552 0.207-0.798 0.302 0.236-0.165 0.44-0.318 0.724-0.403 0.17-0.050 0.568-0.118 0.744-0.070 0.080 0.022 0.096 0.055 0.145 0.123 0.167 0.234 0.167 0.435 0.2 0.708 0.043 0.067 0.088 0.11 0.123 0.18 0.033 0.078 0.056 0.168 0.064 0.262l0 0.003c-0.044-0.063-0.017-0.143-0.138-0.2s-0.307-0.003-0.47 0.014c0.12 0.086 0.178 0.17 0.183 0.35 0.005 0.213-0.175 0.367-0.364 0.382-0.262 0.020-0.397-0.037-0.503-0.26-0.046-0.098-0.013-0.216-0.017-0.312-0.315 0.022-0.3 0.012-0.54 0.203 0.125 0.183 0.204 0.29 0.4 0.398 0.116 0.062 0.247 0.12 0.39 0.146s0.38 0.048 0.53 0.025c0.137-0.015 0.258-0.077 0.348-0.17l0-0c0.112-0.104 0.122-0.252 0.166-0.37-0.010 0.113-0.023 0.256-0.065 0.338-0.127 0.25-0.348 0.322-0.6 0.323s-0.565-0.057-0.8-0.155c-0.188-0.078-0.5-0.298-0.573-0.49-0.050-0.13-0.010-0.29-0.016-0.437 0.26-0.173 0.324-0.13 0.632-0.18 0.13-0.020 0.217-0.070 0.34-0.080zM13.907 12.66c0.007-0.104 0.020-0.1 0.028-0.152-0.237-0.063-0.332 0.1-0.47 0.376-0.052 0.107-0.001 0.17-0.056 0.24s-0.145 0.060-0.236 0.128-0.18 0.197-0.264 0.267c-0.174 0.143-0.408 0.23-0.61 0.327 0.137-0.1 0.404-0.255 0.5-0.402 0.046-0.078 0.040-0.225 0.1-0.296s0.096-0.12 0.188-0.137 0.055-0.124 0.085-0.21 0.090-0.145 0.152-0.23 0.142-0.212 0.266-0.258 0.318 0.004 0.41-0.023 0.040-0.095 0.108-0.136 0.2-0.023 0.292-0.067c0.162-0.078 0.24-0.208 0.336-0.346 0.014 0.3 0.010 0.514-0.097 0.796-0.12 0.317-0.244 0.503-0.587 0.698-0.118 0.067-0.236 0.1-0.334 0.126 0.057-0.078 0.14-0.112 0.172-0.234s0.008-0.365 0.016-0.468zM19.453 14.118c-0.163 0.010-0.202-0.010-0.333 0.080l0.212 0.33c-0.004-0.023-0.006-0.050-0.006-0.077 0-0.129 0.048-0.246 0.126-0.336l-0 0.001zM19.026 13.96c0.226-0.096 0.423-0.174 0.67-0.2 0.1-0.006 0.252 0.010 0.35 0.014 0.085-0.125 0.193-0.223 0.233-0.366 0.026-0.095 0.013-0.534-0.033-0.648-0.135-0.332-0.267-0.346-0.453-0.536-0.135-0.138-0.14-0.348-0.18-0.583-0.015-0.086-0.057-0.196-0.077-0.285-0.244-0.040-0.505-0.055-0.785-0.040 0.136-0.13 0.267-0.25 0.306-0.445s0.007-0.436-0.104-0.61-0.29-0.328-0.452-0.47-0.397-0.26-0.55-0.378c0.2-0.072 0.406-0.178 0.603-0.216 0.513-0.1 0.955 0.053 1.45 0.352 0.316 0.184 0.588 0.401 0.824 0.652l0.002 0.002c0.3 0.315 0.673 0.892 0.964 1.234s0.526 0.613 0.78 0.817 0.484 0.262 0.725 0.393l0.377 0.4 0.305-0.377 0.49 0.056 0.1-0.55 0.45-0.123-0.074-0.743 0.324-0.23-0.243-0.462 0.247-0.505-0.322-0.577 0.124-0.556-0.373-0.318-0.050-0.6-0.52-0.2-0.21-0.514-0.585-0.007-0.287-0.38-0.394 0.028-0.44-0.048-0.25-0.183-0.36 0.24-0.436-0.228-0.867 0.33 0.565-0.492 0.586-0.094 0.45-0.114 0.606 0.2 0.533-0.135 0.514 0.304 0.544-0.030 0.267 0.48 0.542 0.063 0.293 0.533 0.34 0.186 0.1 0.683 0.303 0.288-0.134 0.598 0.358 0.453-0.335 0.485 0.36 0.303-0.458 0.406 0.464 0.483-0.56 0.18 0.365 0.518-0.458 0.080 0.3 0.57-0.516-0.007 0.26 0.427-0.566-0.068 0.135 0.614-0.428-0.376-0.147 0.745-0.295-0.535-0.16 0.667-0.364-0.492 0.010 0.7-0.403-0.63c0.085 0.357 0.068 0.747 0.302 1.084 0.726-0.098 1.2-0.28 1.757-0.816 0.506-0.487 1.112-1.504 1.276-2.148 0.187-0.736 0.193-2.088 0.010-2.837-0.177-0.72-0.408-1.066-0.82-1.654-0.394-0.418-0.78-0.86-1.28-1.158-0.733-0.438-1.674-0.556-2.51-0.544-0.463 0.006-0.773 0.095-1.050 0.196-0.484 0.176-0.87 0.56-1.363 0.75-0.16 0.062-0.29 0.064-0.415-0.004 0.124 0.247 0.258 0.36 0.567 0.45 0.223 0.065 0.756 0.024 1.122-0.010 0.394-0.036 0.6-0.153 1.134-0.146 0.523 0.007 0.938 0.206 1.164 0.335 0.468 0.267 0.803 0.564 1.094 1.034 0.16 0.258 0.272 0.55 0.35 0.846s0.113 0.63 0.12 0.92c0.001 0.031 0.002 0.067 0.002 0.103 0 0.252-0.033 0.496-0.094 0.729l0.004-0.020c-0.166 0.613-0.533 1.236-1.287 1.14-0.46-0.060-1.157-0.925-1.4-1.243-0.47-0.64-0.954-1.35-1.544-1.885-0.358-0.322-0.818-0.537-1.326-0.593l-0.011-0.001c-0.908-0.083-1.178 0.090-1.86 0.653 0.14 0.044 0.275 0.070 0.417 0.133 0.33 0.148 0.613 0.337 0.86 0.565l-0.002-0.002c0.264 0.248 0.383 0.405 0.393 0.76 0.006 0.236-0.188 0.424-0.365 0.594-0.11 0.104-0.252 0.2-0.34 0.28-0.117 0.107-0.26 0.224-0.115 0.395 0.055 0.064 0.15 0.113 0.232 0.172 0.128 0.095 0.070 0.448-0.1 0.542-0.216 0.12-0.474 0.106-0.652-0.054 0.225-0.034 0.367-0.063 0.362-0.247-0.003-0.107-0.14-0.195-0.272-0.256-0.32-0.146-0.563-0.125-0.882-0.354s-0.33-0.36-0.417-0.723c-0.155 0.016-0.3 0.020-0.506 0.090s-0.438 0.233-0.626 0.273c-0.475 0.102-0.57 0.072-0.83 0.005-0.458-0.118-1.054 0.084-1.646 0.274-0.098 0.030-0.497 0.001-0.765 0.095-0.414 0.145-0.995 0.497-1.33 0.78-0.51 0.428-1.177 1.7-1.555 3.18-0.040 0.447 0.088 0.75-0.194 0.967s-0.274 0.778-0.37 0.935-0.206 0.087-0.412 0.308-0.3 0.184-0.305 0.6c0.177-0.116 0.436-0.252 0.662-0.26 0.2-0.007 0.203 0.257 0.72-0.253 0.276-0.273 0.806-0.28 1.173-0.4s1.030-0.368 1.694-1.1 0.98-1.523 1.1-2.652c0.020 0.2 0.056 0.426-0.030 0.978s-0.27 1.172 0.12 1.915l0.242 0.463c-0.144-0.197-0.426-0.518-0.51-0.747l-0.196-0.528c-0.438 0.688-0.54 0.81-1.147 1.304-0.024 0.306-0.030 0.625 0.070 0.917s-0.060 0.63 0.017 0.822 0.252 0.083 0.31 0.278-0.030 0.58 0.060 0.77 0.307 0.075 0.413 0.136 0.14 0.145 0.197 0.226-0.022 0.272 0.093 0.334 0.295 0.010 0.415 0.070 0.138 0.203 0.11 0.33-0.157 0.187-0.213 0.317-0.050 0.22 0.018 0.34 0.217 0.186 0.366 0.246 0.358 0.026 0.512 0.1 0.292 0.25 0.373 0.37c0.063 0.083 0.101 0.188 0.101 0.301 0 0.011-0 0.022-0.001 0.033l0-0.002c-0.004 0.127-0.056 0.274-0.124 0.396s-0.218 0.272 0.016 0.507 0.225 0.134 0.36 0.286c-0.015-0.263-0.123-0.478-0.044-0.676s0.318-0.233 0.444-0.322 0.198-0.212 0.297-0.317c-0.001 0.136 0.013 0.283-0.002 0.385-0.030 0.208-0.093 0.393 0.217 0.427 0.14 0.015 0.273-0.076 0.42-0.13-0.077 0.138-0.21 0.25-0.23 0.415-0.005 0.031-0.007 0.067-0.007 0.103 0 0.152 0.047 0.294 0.128 0.41l-0.002-0.002c0.114 0.164 0.312 0.286 0.457 0.382s0.222 0.104 0.334 0.156c0.005 0.163-0.027 0.334-0.008 0.488s0.067 0.288 0.155 0.415 0.23 0.2 0.364 0.293c-0.073-0.17-0.222-0.333-0.22-0.512s0.056-0.307 0.23-0.466 0.585-0.297 0.778-0.452 0.256-0.25 0.325-0.4 0.050-0.393 0.063-0.528c0.050 0.131 0.083 0.283 0.093 0.442l0 0.004c0.020 0.198-0.116 0.476-0.173 0.623 0.209-0.1 0.373-0.267 0.465-0.474l0.002-0.006c0.050 0.030 0.025 0.114 0.044 0.274 0.085-0.085 0.182-0.15 0.268-0.23s0.18-0.15 0.223-0.262 0.025-0.23-0.007-0.36-0.177-0.28-0.255-0.422 0.014-0.28 0.010-0.452c-0.156-0.027-0.29-0.106-0.468-0.080s-0.385 0.227-0.57 0.23-0.287-0.17-0.437-0.217-0.303-0.042-0.454-0.063c0.192-0.183 0.935-0.27 1.444-0.354 0.447-0.073 0.89-0.115 1.345-0.12 0.202-0.003 0.463 0.064 0.603 0.023s0.11-0.136 0.152-0.24c0.117-0.292 0.060-0.552-0.004-0.846-0.407-0.048-0.83-0.106-1.24-0.075-0.4 0.030-0.876 0.22-1.29 0.234-0.36 0.010-0.892-0.070-1.2-0.257-0.377-0.23-0.67-0.724-0.773-0.882-0.17-0.258-0.382-0.765-0.51-0.997s-0.158-0.297-0.266-0.393-0.255-0.104-0.383-0.156c0.147 0.015 0.308-0.032 0.44 0.045 0.2 0.115 0.426 0.593 0.55 0.8 0.132-0.444 0.1-0.618 0.485-0.868-0.31 0.346-0.316 0.608-0.392 1.015 0.257 0.42 0.613 1.092 1.080 1.278 0.17 0.067 0.458 0.1 0.64 0.132 0.567 0.070 1.115-0.1 1.672-0.247 0.408-0.1 0.82-0.060 1.316-0.030 0.168 0.010 0.565-0.090 0.647-0.262 0.019-0.038 0.030-0.083 0.030-0.13 0-0.063-0.020-0.122-0.053-0.171l0.001 0.001c-0.064-0.098-0.234-0.145-0.325-0.233s-0.143-0.192-0.215-0.29c-0.287 0.059-0.621 0.098-0.963 0.108l-0.008 0c0.202-0.083 0.395-0.13 0.605-0.212s0.448-0.217 0.617-0.328 0.277-0.177 0.4-0.307 0.28-0.264 0.37-0.423 0.104-0.337 0.11-0.534-0.004-0.473-0.080-0.63-0.222-0.207-0.34-0.244-0.198 0.057-0.32 0.070-0.236 0.1-0.413 0.007-0.386-0.252-0.565-0.503-0.306-0.662-0.488-0.978c-0.314-0.544-0.705-1.053-1.080-1.557-0.030-0.124-0.077-0.296-0.092-0.465-0.027-0.294-0.032-0.6 0.060-0.886 0.070-0.22 0.172-0.452 0.402-0.542 0.092-0.036 0.208-0.050 0.29-0.020s0.163 0.123 0.13 0.23c-0.035 0.118-0.117 0.12-0.173 0.18-0.080 0.081-0.139 0.183-0.167 0.297l-0.001 0.004c0.102-0.002 0.24-0.010 0.323 0.013 0.11 0.030 0.21 0.1 0.266 0.256-0.13-0.116-0.195-0.17-0.358-0.173-0.075-0.002-0.165 0.025-0.247 0.037-0.030 0.1-0.050 0.223-0.092 0.3s-0.128 0.060-0.16 0.15c-0.018 0.066-0.028 0.141-0.028 0.219 0 0.049 0.004 0.097 0.012 0.143l-0.001-0.005zM20.164 13.824c0.050 0.020 0.070 0.024 0.132 0.072s0.15 0.096 0.2 0.21c0.028 0.078 0.044 0.168 0.044 0.261 0 0.037-0.002 0.073-0.007 0.108l0-0.004c-0.044-0.013-0.104-0.004-0.15-0.043s-0.073-0.127-0.13-0.165-0.107-0.030-0.172-0.038c0.033 0.094 0.050 0.19 0.034 0.274-0.034 0.187-0.143 0.28-0.32 0.304-0.078 0.010-0.2-0.016-0.268-0.028 0.030 0.070 0.084 0.13 0.116 0.2 0.15-0.022 0.262-0.020 0.342-0.056s0.167-0.122 0.27-0.158 0.196-0.035 0.3-0.053c-0.1 0.077-0.148 0.154-0.237 0.23l0.196 0.57c0.14 0.087 0.27 0.133 0.444 0.24s0.385 0.3 0.613 0.404c0.174 0.091 0.375 0.163 0.588 0.205l0.014 0.002c0.24 0.045 0.427 0.238 0.662 0.27 0.163 0.019 0.353 0.029 0.545 0.029 0.108 0 0.216-0.003 0.322-0.010l-0.015 0.001c0.205-0.020 0.47-0.126 0.495-0.35-0.172 0.042-0.434 0.004-0.567-0.32-0.060-0.144-0.030-0.408-0.12-0.577s-0.215-0.224-0.365-0.434-0.395-0.54-0.533-0.82-0.17-0.598-0.286-0.85-0.292-0.454-0.428-0.648c-0.297-0.423-0.537-0.712-1.026-0.925-0.235-0.103-0.503-0.13-0.755-0.195-0.102 0.046-0.243 0.097-0.268 0.216-0.003 0.021-0.005 0.046-0.005 0.071 0 0.121 0.044 0.231 0.116 0.316l-0.001-0.001c0.145 0.15 0.36 0.313 0.446 0.552 0.054 0.153 0.070 0.668 0.023 0.807-0.050 0.145-0.163 0.232-0.257 0.33zM20.211 15.041c-0.046 0.040-0.080 0.080-0.153 0.112s-0.173 0.040-0.27 0.065l0.41 0.648 0.368 0.7-0.017-0.4c-0.020-0.125-0.076-0.234-0.132-0.42l-0.204-0.703zM16.551 10.387c-0.020 0.208 0.016 0.534 0.060 0.738 0.052 0.244 0.1 0.37 0.3 0.518 0.363 0.27 0.594 0.224 0.873 0.38 0.133 0.074 0.3 0.2 0.35 0.33s-0.032 0.275-0.133 0.33c0.176 0.026 0.374-0.172 0.29-0.376-0.040-0.1-0.234-0.145-0.293-0.246s-0.060-0.205-0.030-0.308c0.050-0.185 0.417-0.354 0.546-0.5 0.2-0.225 0.276-0.414 0.163-0.704-0.158-0.408-0.77-0.735-1.137-0.895-0.168-0.073-0.262-0.078-0.393-0.118 0.268 0.157 0.55 0.282 0.686 0.633 0.113 0.293 0.015 0.404 0.020 0.66 0.002 0.118 0.158 0.178 0.227 0.252 0.060 0.065 0.055 0.113 0.007 0.203-0.005-0.080-0.040-0.14-0.102-0.185-0.103-0.073-0.213-0.057-0.268-0.206-0.083-0.227 0.082-0.44-0.103-0.696-0.138-0.2-0.322-0.404-0.57-0.41-0.117-0.003-0.206 0.015-0.33 0.052l-0.167-0.2-0.004-0.003c-0.34-0.31-0.573-0.567-1.050-0.78s-0.713-0.246-1.26-0.234-1.090 0.058-1.725 0.605-2.268 2.64-2.664 2.905-0.484 0.355-0.98 0.355-1.268-0.7-1.298-1.575-0.043-1.186 0.566-2.24 1.71-1.378 2.53-1.488 1.31 0.18 1.915 0.18 1.203-0.103 1.38-0.584c-0.086 0.050-0.202 0.11-0.527 0.092s-0.776-0.393-1.283-0.646-1.070-0.282-1.795-0.295-1.627 0.042-2.522 0.525-1.505 0.996-2.024 1.94-0.596 1.717-0.513 2.862 0.437 1.996 1.116 2.834 1.36 1.248 2.584 1.4l0.258-1.137-0.46 0.66 0.010-0.735-0.416 0.517-0.183-0.7-0.337 0.562-0.168-0.782-0.49 0.395 0.155-0.646-0.647 0.072 0.297-0.45-0.6 0.007 0.343-0.6-0.523-0.083 0.417-0.545-0.64-0.2 0.53-0.508-0.524-0.427 0.4-0.32-0.383-0.5 0.41-0.476-0.153-0.628 0.347-0.303 0.103-0.718 0.39-0.196 0.335-0.56 0.62-0.066 0.306-0.504 0.622 0.032 0.588-0.32 0.6 0.142 0.692-0.21 0.513 0.12 0.67 0.098 0.646 0.517-0.99-0.346-0.5 0.24-0.412-0.252-0.284 0.193-0.502 0.050-0.45-0.030-0.328 0.4-0.67 0.007-0.24 0.54-0.595 0.21-0.056 0.62-0.427 0.334 0.142 0.584-0.37 0.606 0.283 0.53-0.278 0.485 0.37 0.24-0.084 0.78 0.515 0.13 0.116 0.58 0.56-0.058 0.348 0.397 0.43-0.42c0.785-0.39 1.108-0.6 1.72-1.272 0.697-0.753 1.096-1.45 2.024-1.966 0.665-0.37 1.208-0.503 1.956-0.374 0.702 0.12 0.937 0.542 1.454 0.986 0.055-0.1 0.066-0.125 0.156-0.198-0.028 0.13-0.073 0.262-0.085 0.386z"></path>
</svg>
