<!-- Generated by IcoMoon.io -->
<svg version="1.1" xmlns="http://www.w3.org/2000/svg" width="32" height="32" viewBox="0 0 32 32">
<title>gnu</title>
<path d="M7.433 19.034c-0.283 0.018-0.523 0.184-0.645 0.42l-0.002 0.004c-0.145 0.259-0.486 0.3-0.644 0.25-0.265-0.087-0.604-0.147-0.931 0.086s-0.683 0.057-0.62-0.369 0.216-0.806 0.624-1.038c0.892-0.513 0.273-0.87 0.761-1.385s0.382-0.673 0.366-1.374c-1.656-0.249-2.594-0.726-3.646-2.035s-1.456-2.39-1.563-4.031-0.014-2.706 0.696-4.069 1.457-2.021 2.751-2.701 2.563-0.844 3.736-0.823 1.953 0.105 2.616 0.483 1.27 0.853 1.655 0.857 0.65-0.098 0.837-0.242c0.051 1.273-1.095 1.383-2.121 1.411s-1.655-0.396-2.6-0.239-2.491 0.587-3.243 1.912-0.778 1.775-0.717 2.873 1.010 1.92 1.543 1.928 0.653-0.146 1.12-0.451 2.867-3.259 3.669-3.923 1.618-0.868 2.485-0.879 1.090 0.019 1.775 0.306 1.131 0.815 1.693 1.137c0.287-0.169 0.467-0.41 0.732-0.617 0.946-0.692 1.438-0.878 2.563-0.769 0.647 0.063 1.461 0.433 1.948 0.855 0.866 0.754 1.581 1.802 2.16 2.598 0.451 0.62 0.98 1.363 1.737 1.595 0.826 0.253 1.447-0.817 1.539-1.411 0.052-0.336 0.119-0.631 0.12-1.001s-0.037-0.819-0.143-1.204c-0.121-0.414-0.288-0.775-0.498-1.106l0.010 0.017c-0.322-0.519-0.849-1.060-1.397-1.338-0.307-0.157-1.031-0.441-1.502-0.451-0.56-0.014-0.983 0.178-1.502 0.21-0.625 0.041-1.744 0.183-2.234-0.3-0.314-0.307-0.351-0.512-0.404-0.915 0.137 0.113 0.33 0.188 0.503 0.205 0.392 0.033 0.759-0.273 1.075-0.472 0.259-0.153 0.628-0.426 0.972-0.564 0.879-0.355 1.959-0.344 2.887-0.25 0.744 0.076 1.707 0.407 2.362 0.776s1.288 0.997 1.751 1.584c0.582 0.741 0.901 1.379 1.111 2.304 0.269 1.181 0.344 2.955 0.019 4.12-0.257 0.918-1.109 2.328-1.835 3.018-0.715 0.683-1.543 1.010-2.482 1.191 0.037 0.191 0.041 0.366 0.091 0.522 0.068 0.221 0.201 0.467 0.472 0.389 0.109-0.031 0.167-0.057 0.309 0.068s0.068 0.608-0.333 0.823c-0.205 0.109-0.418 0.134-0.744 0.141s-0.833 0.008-1.188-0.055-0.565-0.341-0.956-0.386c-0.606-0.068-1.069-0.505-1.557-0.819-0.202-0.131-0.27-0.132-0.388-0.198l0.191 0.579c0.041 0.186 0.025 0.358 0.046 0.505s0.063 0.264 0.087 0.385c0.096 0.087 0.128 0.218 0.291 0.259s0.418-0.023 0.587-0.045 0.279-0.113 0.41-0.089 0.255 0.119 0.365 0.205 0.205 0.101 0.294 0.32 0.171 0.683 0.183 0.969-0.022 0.571-0.109 0.81-0.167 0.344-0.41 0.579-0.634 0.582-1.024 0.823c0.072 0.107 0.104 0.205 0.218 0.321s0.347 0.246 0.451 0.369 0.157 0.21 0.158 0.347-0.005 0.314-0.116 0.464c-0.277 0.371-0.605 0.437-1.004 0.614 0.068 0.418 0.123 0.717 0.025 1.133-0.041 0.171-0.127 0.557-0.337 0.655s-0.614 0.051-0.871 0.091l-0.601 0.119c-0.123 0.178-0.3 0.369-0.365 0.527s-0.044 0.214 0.008 0.374 0.229 0.396 0.28 0.583c0.028 0.095 0.043 0.204 0.043 0.316 0 0.093-0.011 0.184-0.031 0.271l0.002-0.008c-0.049 0.196-0.15 0.363-0.288 0.492l-0.001 0c-0.161 0.168-0.478 0.3-0.635 0.437s-0.314 0.15-0.273 0.377c0.059 0.309 0.511 0.81 0.837 0.928 0.195 0.071 0.457 0.049 0.696-0.052-0.016 0.264-0.246 0.441-0.393 0.617 0.404-0.116 0.796-0.337 1.065-0.628-0.085 0.254-0.373 0.664-0.819 1.021s-0.43 0.287-0.645 0.427c0.392 0.079 0.756 0.057 1.061 0.003-0.167 0.091-0.44 0.221-0.802 0.273s-0.584 0.011-0.911-0.068-0.623-0.375-1.019-0.579c0.038 0.146 0.066 0.322 0.232 0.472s0.418 0.227 0.683 0.358l-1.031-0.123c-0.246-0.055-0.414-0.112-0.594-0.202s-0.321-0.218-0.481-0.33c0.076 0.146 0.1 0.32 0.232 0.44s0.341 0.164 0.515 0.249c-0.178-0.004-0.351 0.036-0.537-0.014-0.211-0.053-0.396-0.144-0.557-0.265l0.004 0.003c-0.194-0.142-0.392-0.318-0.557-0.497s-0.369-0.41-0.43-0.576 0.037-0.281 0.055-0.423c-0.113 0.075-0.254 0.116-0.341 0.225s-0.164 0.208-0.126 0.396 0.213 0.421 0.337 0.631c-0.369-0.3-0.573-0.416-0.662-0.781-0.082-0.341 0.13-0.649 0.292-0.907 0.082-0.127 0.199-0.246 0.273-0.369-0.167-0.164-0.355-0.303-0.5-0.489s-0.202-0.437-0.348-0.614-0.341-0.289-0.512-0.437c0.137 0.322 0.41 0.717 0.451 0.967s-0.060 0.401-0.15 0.537-0.232 0.164-0.366 0.246-0.345 0.018-0.427 0.141-0.102 0.307-0.025 0.429l0.317 0.5c-0.159-0.095-0.294-0.212-0.406-0.348l-0.002-0.003c-0.091-0.123-0.229-0.232-0.249-0.396s-0.027-0.306 0.078-0.451 0.396-0.195 0.527-0.307 0.205-0.186 0.195-0.33-0.15-0.249-0.273-0.341c-0.373-0.279-0.849-0.537-1.166-0.874-0.178-0.191-0.265-0.344-0.3-0.475s0.003-0.232 0.090-0.396 0.393-0.377 0.43-0.552-0.116-0.213-0.255-0.273-0.401 0.031-0.533-0.076 0.038-0.333-0.109-0.457-0.478-0.055-0.647-0.188-0.242-0.3-0.3-0.492-0.066-0.406-0.027-0.546 0.16-0.164 0.232-0.238 0.137-0.132 0.038-0.242-0.414 0.007-0.595-0.132-0.071-0.471-0.199-0.612-0.359-0.086-0.481-0.13-0.169 0.113-0.246-0.137-0.076-0.997-0.178-1.274-0.298-0.019-0.389-0.295-0.004-0.718-0.046-1.136l-0.187-1.136c-0.653 0.437-1.083 0.576-1.785 0.699-0.059 1.715-0.218 2.725 0.362 4.629s1.761 3.024 3.349 4.636c-2.097-1.57-3.1-2.848-3.725-4.486s-0.505-3.004-0.444-4.581zM18.575 18.346c0.161 0.007 0.358 0.048 0.471 0.123s0.232 0.134 0.336 0.239c0.257 0.259 0.451 0.576 0.533 0.938 0.055 0.232 0.063 0.527 0.082 0.799-0.078-0.25-0.13-0.512-0.24-0.737-0.175-0.355-0.471-0.699-0.838-0.86-0.123-0.052-0.202-0.041-0.269-0.033 0.030 0.051 0.082 0.093 0.082 0.164s-0.014 0.218-0.139 0.277c-0.201 0.098-0.423 0.027-0.579-0.109s-0.21-0.371-0.128-0.573c0.098-0.239 0.47-0.24 0.69-0.232zM16.554 18.005c0.020-0.412 0.169-0.759 0.538-0.961 0.191-0.104 0.485-0.239 0.755-0.273 0.273-0.030 0.892-0.008 1.27 0.164 0.292 0.134 0.492 0.341 0.747 0.492l0.683 0.41c0.374 0.259 0.594 0.546 0.853 0.72 0.123 0.082 0.3 0.071 0.464 0.123-0.128 0.038-0.298 0.082-0.437 0.036-0.173-0.055-0.415-0.214-0.55-0.328-0.182-0.165-0.385-0.313-0.603-0.44l-0.017-0.009-0.58-0.307-0.628-0.437c-0.23-0.099-0.498-0.156-0.779-0.156-0.012 0-0.025 0-0.037 0l0.002-0c-0.32 0.010-0.781 0.061-1.027 0.287s-0.339 0.418-0.283 0.707c0.093-0.107 0.154-0.24 0.246-0.32 0.191-0.164 0.41-0.172 0.65-0.141 0.268 0.036 0.403 0.191 0.492 0.444-0.060-0.044-0.169-0.139-0.255-0.169-0.202-0.068-0.355-0.048-0.546 0.055-0.224 0.12-0.164 0.3-0.195 0.496-0.014 0.091-0.049 0.164-0.074 0.246-0.085-0.022-0.164-0.057-0.227-0.12 0.003 0.093-0.011 0.173 0.008 0.277s0.068 0.228 0.104 0.341c-0.156-0.156-0.314-0.3-0.416-0.505s-0.169-0.426-0.158-0.647zM16.825 15.006c0.115-0.171 0.15-0.433 0.218-0.646-0.027 0.27 0.027 0.567-0.105 0.762s-0.363 0.161-0.556 0.218c0.15-0.113 0.325-0.164 0.441-0.335zM14.066 19.007c0.147-0.12 0.546-0.023 0.847-0.003l-0.642 0.164c-0.020 0.072-0.011 0.157-0.060 0.218s-0.142 0.086-0.213 0.128c0.007-0.191-0.076-0.389 0.071-0.509zM16.169 10.695c0.178 0.096 0.404 0.223 0.56 0.227s0.198-0.102 0.291-0.164c0.146 0.475 0.314 0.997 0.546 1.427 0.104 0.18 0.171 0.096 0.249 0.279s0.113 0.55 0.188 0.782 0.172 0.401 0.273 0.604l-0.624-0.965c-0.123-0.273-0.044-0.281-0.143-0.527s-0.3-0.628-0.448-0.945c-0.107 0.014-0.239 0.034-0.321 0.008s-0.066-0.112-0.137-0.168-0.197-0.034-0.3-0.137-0.127-0.273-0.137-0.434zM15.209 13.037c0.168-0.014 0.376 0.030 0.546 0.022s0.269-0.049 0.404-0.075c-0.025-0.236-0.001-0.669-0.218-0.829-0.141-0.102-0.72-0.025-0.874 0.008-0.348 0.075-0.754 0.283-1.090 0.412 0.322-0.225 0.601-0.434 0.989-0.55 0.232-0.068 0.776-0.161 1.016-0.096 0.109 0.030 0.131 0.075 0.198 0.168 0.228 0.32 0.228 0.594 0.273 0.967 0.059 0.091 0.12 0.15 0.168 0.246 0.046 0.106 0.077 0.229 0.087 0.358l0 0.004c-0.060-0.086-0.023-0.195-0.188-0.273s-0.419-0.004-0.642 0.019c0.164 0.117 0.243 0.232 0.25 0.478 0.007 0.291-0.239 0.501-0.497 0.522-0.358 0.027-0.542-0.051-0.687-0.355-0.063-0.134-0.018-0.295-0.023-0.426-0.43 0.030-0.41 0.016-0.737 0.277 0.171 0.25 0.279 0.396 0.546 0.543 0.158 0.085 0.337 0.164 0.533 0.199s0.519 0.066 0.724 0.034c0.188-0.021 0.353-0.106 0.475-0.232l0-0c0.153-0.142 0.167-0.344 0.227-0.505-0.014 0.154-0.031 0.35-0.089 0.462-0.173 0.341-0.475 0.44-0.819 0.441s-0.771-0.078-1.092-0.212c-0.257-0.107-0.683-0.407-0.782-0.669-0.068-0.178-0.014-0.396-0.022-0.597 0.355-0.236 0.442-0.178 0.863-0.246 0.178-0.027 0.296-0.096 0.464-0.109zM13.142 11.439c0.010-0.142 0.027-0.137 0.038-0.208-0.324-0.086-0.453 0.137-0.642 0.513-0.071 0.146-0.001 0.232-0.076 0.328s-0.198 0.082-0.322 0.175-0.246 0.269-0.361 0.365c-0.238 0.195-0.557 0.314-0.833 0.447 0.187-0.137 0.552-0.348 0.683-0.549 0.063-0.107 0.055-0.307 0.137-0.404s0.131-0.164 0.257-0.187 0.075-0.169 0.116-0.287 0.123-0.198 0.208-0.314 0.194-0.289 0.363-0.352 0.434 0.005 0.56-0.031 0.055-0.13 0.147-0.186 0.273-0.031 0.399-0.091c0.221-0.107 0.328-0.284 0.459-0.472 0.019 0.41 0.014 0.702-0.132 1.087-0.164 0.433-0.333 0.687-0.802 0.953-0.161 0.091-0.322 0.137-0.456 0.172 0.078-0.107 0.191-0.153 0.235-0.32s0.011-0.498 0.022-0.639zM20.715 13.43c-0.223 0.014-0.276-0.014-0.455 0.109l0.289 0.451c-0.005-0.031-0.008-0.068-0.008-0.105 0-0.176 0.065-0.336 0.172-0.459l-0.001 0.001zM20.132 13.214c0.309-0.131 0.578-0.238 0.915-0.273 0.137-0.008 0.344 0.014 0.478 0.019 0.116-0.171 0.264-0.305 0.318-0.5 0.036-0.13 0.018-0.729-0.045-0.885-0.184-0.453-0.365-0.472-0.619-0.732-0.184-0.188-0.191-0.475-0.246-0.796-0.020-0.117-0.078-0.268-0.105-0.389-0.333-0.055-0.69-0.075-1.072-0.055 0.186-0.178 0.365-0.341 0.418-0.608s0.010-0.595-0.142-0.833-0.396-0.448-0.617-0.642-0.542-0.355-0.751-0.516c0.273-0.098 0.554-0.243 0.823-0.295 0.701-0.137 1.304 0.072 1.98 0.481 0.432 0.252 0.803 0.548 1.126 0.891l0.002 0.002c0.41 0.43 0.919 1.218 1.316 1.685s0.718 0.837 1.065 1.116 0.661 0.358 0.99 0.537l0.515 0.546 0.416-0.515 0.669 0.076 0.137-0.751 0.614-0.168-0.101-1.015 0.442-0.314-0.332-0.631 0.337-0.69-0.44-0.788 0.169-0.759-0.509-0.434-0.068-0.819-0.71-0.273-0.287-0.702-0.799-0.010-0.392-0.519-0.538 0.038-0.601-0.066-0.341-0.25-0.492 0.328-0.595-0.311-1.184 0.451 0.771-0.672 0.8-0.128 0.614-0.156 0.827 0.273 0.728-0.184 0.702 0.415 0.743-0.041 0.365 0.655 0.74 0.086 0.4 0.728 0.464 0.254 0.137 0.933 0.414 0.393-0.183 0.817 0.489 0.619-0.457 0.662 0.492 0.414-0.625 0.554 0.634 0.659-0.765 0.246 0.498 0.707-0.625 0.109 0.41 0.778-0.705-0.010 0.355 0.583-0.773-0.093 0.184 0.838-0.584-0.513-0.201 1.017-0.403-0.73-0.218 0.911-0.497-0.672 0.014 0.956-0.55-0.86c0.116 0.487 0.093 1.020 0.412 1.48 0.991-0.134 1.639-0.382 2.399-1.114 0.691-0.665 1.518-2.054 1.742-2.933 0.255-1.005 0.264-2.851 0.014-3.874-0.242-0.983-0.557-1.456-1.12-2.258-0.538-0.571-1.065-1.174-1.748-1.581-1.001-0.598-2.286-0.759-3.427-0.743-0.632 0.008-1.055 0.13-1.434 0.268-0.661 0.24-1.188 0.765-1.861 1.024-0.218 0.085-0.396 0.087-0.567-0.005 0.169 0.337 0.352 0.492 0.774 0.614 0.305 0.089 1.032 0.033 1.532-0.014 0.538-0.049 0.819-0.209 1.548-0.199 0.714 0.010 1.281 0.281 1.589 0.457 0.639 0.365 1.096 0.77 1.494 1.412 0.218 0.352 0.371 0.751 0.478 1.155s0.154 0.86 0.164 1.256c0.002 0.042 0.003 0.091 0.003 0.141 0 0.344-0.045 0.677-0.129 0.995l0.006-0.027c-0.227 0.837-0.728 1.688-1.757 1.557-0.628-0.082-1.58-1.263-1.912-1.697-0.642-0.874-1.303-1.843-2.108-2.574-0.489-0.44-1.117-0.734-1.811-0.81l-0.015-0.001c-1.24-0.113-1.609 0.123-2.54 0.892 0.191 0.060 0.375 0.096 0.569 0.182 0.451 0.202 0.838 0.46 1.174 0.771l-0.003-0.003c0.36 0.339 0.523 0.553 0.537 1.038 0.008 0.322-0.257 0.579-0.498 0.811-0.15 0.142-0.344 0.273-0.464 0.382-0.16 0.146-0.355 0.306-0.157 0.539 0.075 0.087 0.205 0.154 0.317 0.235 0.175 0.13 0.096 0.612-0.137 0.74-0.295 0.164-0.647 0.145-0.89-0.074 0.307-0.046 0.501-0.086 0.494-0.337-0.004-0.146-0.191-0.266-0.371-0.35-0.437-0.199-0.769-0.171-1.204-0.483s-0.451-0.492-0.569-0.987c-0.212 0.022-0.41 0.027-0.691 0.123s-0.598 0.318-0.855 0.373c-0.649 0.139-0.778 0.098-1.133 0.007-0.625-0.161-1.439 0.115-2.248 0.374-0.134 0.041-0.679 0.001-1.045 0.13-0.565 0.198-1.359 0.679-1.816 1.065-0.696 0.584-1.607 2.321-2.123 4.342-0.055 0.61 0.12 1.024-0.265 1.32s-0.374 1.062-0.505 1.277-0.281 0.119-0.563 0.421-0.41 0.251-0.416 0.819c0.242-0.158 0.595-0.344 0.904-0.355 0.273-0.010 0.277 0.351 0.983-0.345 0.377-0.373 1.101-0.382 1.602-0.546s1.406-0.503 2.313-1.502 1.338-2.080 1.502-3.621c0.027 0.273 0.076 0.582-0.041 1.335s-0.369 1.6 0.164 2.615l0.33 0.632c-0.197-0.269-0.582-0.707-0.696-1.020l-0.268-0.721c-0.598 0.939-0.737 1.106-1.566 1.781-0.033 0.418-0.041 0.853 0.096 1.252s-0.082 0.86 0.023 1.122 0.344 0.113 0.423 0.38-0.041 0.792 0.082 1.051 0.419 0.102 0.564 0.186 0.191 0.198 0.269 0.309-0.030 0.371 0.127 0.456 0.403 0.014 0.567 0.096 0.188 0.277 0.15 0.451-0.214 0.255-0.291 0.433-0.068 0.3 0.025 0.464 0.296 0.254 0.5 0.336 0.489 0.036 0.699 0.137 0.399 0.341 0.509 0.505c0.086 0.113 0.138 0.256 0.138 0.411 0 0.015-0.001 0.030-0.002 0.045l0-0.002c-0.005 0.173-0.076 0.374-0.169 0.541s-0.298 0.371 0.022 0.692 0.307 0.183 0.492 0.391c-0.020-0.359-0.168-0.653-0.060-0.923s0.434-0.318 0.606-0.44 0.27-0.289 0.406-0.433c-0.001 0.186 0.018 0.386-0.003 0.526-0.041 0.284-0.127 0.537 0.296 0.583 0.191 0.020 0.373-0.104 0.573-0.178-0.105 0.188-0.287 0.341-0.314 0.567-0.007 0.042-0.010 0.091-0.010 0.141 0 0.208 0.065 0.401 0.175 0.56l-0.002-0.003c0.156 0.224 0.426 0.391 0.624 0.522s0.303 0.142 0.456 0.213c0.007 0.223-0.037 0.456-0.011 0.666s0.091 0.393 0.212 0.567 0.314 0.273 0.497 0.4c-0.1-0.232-0.303-0.455-0.3-0.699s0.076-0.419 0.314-0.636 0.799-0.406 1.062-0.617 0.35-0.341 0.444-0.546 0.068-0.537 0.086-0.721c0.068 0.179 0.114 0.387 0.127 0.603l0 0.006c0.027 0.27-0.158 0.65-0.236 0.851 0.286-0.136 0.509-0.365 0.634-0.647l0.003-0.008c0.068 0.041 0.034 0.156 0.060 0.374 0.116-0.116 0.249-0.205 0.366-0.314s0.246-0.205 0.305-0.358 0.034-0.314-0.010-0.492-0.242-0.382-0.348-0.576 0.019-0.382 0.014-0.617c-0.213-0.037-0.396-0.145-0.639-0.109s-0.526 0.31-0.778 0.314-0.392-0.232-0.597-0.296-0.414-0.057-0.62-0.086c0.262-0.25 1.277-0.369 1.972-0.483 0.61-0.1 1.215-0.157 1.837-0.164 0.276-0.004 0.632 0.087 0.823 0.031s0.15-0.186 0.208-0.328c0.16-0.399 0.082-0.754-0.005-1.155-0.556-0.066-1.133-0.145-1.693-0.102-0.546 0.041-1.196 0.3-1.761 0.32-0.492 0.014-1.218-0.096-1.639-0.351-0.515-0.314-0.915-0.989-1.055-1.204-0.232-0.352-0.522-1.045-0.696-1.361s-0.216-0.406-0.363-0.537-0.348-0.142-0.523-0.213c0.201 0.020 0.421-0.044 0.601 0.061 0.273 0.157 0.582 0.81 0.751 1.092 0.18-0.606 0.137-0.844 0.662-1.185-0.423 0.472-0.431 0.83-0.535 1.386 0.351 0.573 0.837 1.491 1.475 1.745 0.232 0.091 0.625 0.137 0.874 0.18 0.774 0.096 1.523-0.137 2.283-0.337 0.557-0.137 1.12-0.082 1.797-0.041 0.229 0.014 0.771-0.123 0.883-0.358 0.026-0.052 0.041-0.113 0.041-0.178 0-0.087-0.027-0.167-0.073-0.233l0.001 0.001c-0.087-0.134-0.32-0.198-0.444-0.318s-0.195-0.262-0.294-0.396c-0.392 0.081-0.848 0.134-1.314 0.147l-0.011 0c0.276-0.113 0.539-0.178 0.826-0.289s0.612-0.296 0.843-0.448 0.378-0.242 0.546-0.419 0.382-0.36 0.505-0.578 0.142-0.46 0.15-0.729-0.005-0.646-0.109-0.86-0.303-0.283-0.464-0.333-0.27 0.078-0.437 0.096-0.322 0.137-0.564 0.010-0.527-0.344-0.771-0.687-0.418-0.904-0.666-1.335c-0.429-0.743-0.963-1.438-1.475-2.126-0.041-0.169-0.105-0.404-0.126-0.635-0.037-0.401-0.044-0.819 0.082-1.21 0.096-0.3 0.235-0.617 0.549-0.74 0.126-0.049 0.284-0.068 0.396-0.027s0.223 0.168 0.178 0.314c-0.048 0.161-0.16 0.164-0.236 0.246-0.109 0.11-0.19 0.249-0.228 0.405l-0.001 0.006c0.139-0.003 0.328-0.014 0.441 0.018 0.15 0.041 0.287 0.137 0.363 0.35-0.178-0.158-0.266-0.232-0.489-0.236-0.102-0.003-0.225 0.034-0.337 0.051-0.041 0.137-0.068 0.305-0.126 0.41s-0.175 0.082-0.218 0.205c-0.024 0.090-0.038 0.193-0.038 0.299 0 0.067 0.005 0.132 0.016 0.195l-0.001-0.007zM21.686 13.029c0.068 0.027 0.096 0.033 0.18 0.098s0.205 0.131 0.273 0.287c0.038 0.106 0.060 0.229 0.060 0.356 0 0.050-0.003 0.099-0.010 0.148l0.001-0.006c-0.060-0.018-0.142-0.005-0.205-0.059s-0.1-0.173-0.178-0.225-0.146-0.041-0.235-0.052c0.045 0.128 0.068 0.259 0.046 0.374-0.046 0.255-0.195 0.382-0.437 0.415-0.107 0.014-0.273-0.022-0.366-0.038 0.041 0.096 0.115 0.178 0.158 0.273 0.205-0.030 0.358-0.027 0.467-0.076s0.228-0.167 0.369-0.216 0.268-0.048 0.41-0.072c-0.137 0.105-0.202 0.21-0.324 0.314l0.268 0.778c0.191 0.119 0.369 0.182 0.606 0.328s0.526 0.41 0.837 0.552c0.237 0.124 0.513 0.222 0.802 0.279l0.020 0.003c0.328 0.061 0.583 0.325 0.904 0.369 0.223 0.026 0.482 0.040 0.744 0.040 0.148 0 0.294-0.005 0.44-0.014l-0.020 0.001c0.28-0.027 0.642-0.172 0.676-0.478-0.235 0.057-0.593 0.005-0.774-0.437-0.082-0.197-0.041-0.557-0.164-0.788s-0.294-0.306-0.498-0.593-0.539-0.737-0.728-1.12-0.232-0.817-0.391-1.161-0.399-0.62-0.584-0.885c-0.406-0.578-0.733-0.972-1.401-1.263-0.321-0.141-0.687-0.178-1.031-0.266-0.139 0.063-0.332 0.132-0.366 0.295-0.005 0.029-0.007 0.063-0.007 0.097 0 0.165 0.059 0.315 0.158 0.432l-0.001-0.001c0.198 0.205 0.492 0.427 0.609 0.754 0.074 0.209 0.096 0.912 0.031 1.102-0.068 0.198-0.223 0.317-0.351 0.451zM21.75 14.691c-0.063 0.055-0.109 0.109-0.209 0.153s-0.236 0.055-0.369 0.089l0.56 0.885 0.503 0.956-0.023-0.546c-0.027-0.171-0.104-0.32-0.18-0.573l-0.279-0.96zM16.752 8.336c-0.027 0.284 0.022 0.729 0.082 1.008 0.071 0.333 0.137 0.505 0.41 0.707 0.496 0.369 0.811 0.306 1.192 0.519 0.182 0.101 0.41 0.273 0.478 0.451s-0.044 0.376-0.182 0.451c0.24 0.036 0.511-0.235 0.396-0.513-0.055-0.137-0.32-0.198-0.4-0.336s-0.082-0.28-0.041-0.421c0.068-0.253 0.569-0.483 0.746-0.683 0.273-0.307 0.377-0.565 0.223-0.961-0.216-0.557-1.051-1.004-1.553-1.222-0.229-0.1-0.358-0.107-0.537-0.161 0.366 0.214 0.751 0.385 0.937 0.864 0.154 0.4 0.020 0.552 0.027 0.901 0.003 0.161 0.216 0.243 0.31 0.344 0.082 0.089 0.075 0.154 0.010 0.277-0.007-0.109-0.055-0.191-0.139-0.253-0.141-0.1-0.291-0.078-0.366-0.281-0.113-0.31 0.112-0.601-0.141-0.95-0.188-0.273-0.44-0.552-0.778-0.56-0.16-0.004-0.281 0.020-0.451 0.071l-0.228-0.273-0.005-0.004c-0.464-0.423-0.782-0.774-1.434-1.065s-0.974-0.336-1.72-0.32-1.488 0.079-2.355 0.826-3.097 3.605-3.638 3.967-0.661 0.485-1.338 0.485-1.731-0.956-1.772-2.151-0.059-1.619 0.773-3.059 2.335-1.882 3.455-2.032 1.789 0.246 2.615 0.246 1.643-0.141 1.884-0.797c-0.117 0.068-0.276 0.15-0.72 0.126s-1.060-0.537-1.752-0.882-1.461-0.385-2.451-0.403-2.222 0.057-3.444 0.717-2.055 1.36-2.764 2.649-0.814 2.345-0.7 3.908 0.597 2.725 1.524 3.87 1.857 1.704 3.528 1.912l0.352-1.553-0.628 0.901 0.014-1.004-0.568 0.706-0.25-0.956-0.46 0.767-0.229-1.068-0.669 0.539 0.212-0.882-0.883 0.098 0.406-0.614-0.819 0.010 0.468-0.819-0.714-0.113 0.569-0.744-0.874-0.273 0.724-0.694-0.716-0.583 0.546-0.437-0.523-0.683 0.56-0.65-0.209-0.857 0.474-0.414 0.141-0.98 0.533-0.268 0.457-0.765 0.847-0.090 0.418-0.688 0.849 0.044 0.803-0.437 0.819 0.194 0.945-0.287 0.7 0.164 0.915 0.134 0.882 0.706-1.352-0.472-0.683 0.328-0.563-0.344-0.388 0.264-0.685 0.068-0.614-0.041-0.448 0.546-0.915 0.010-0.328 0.737-0.812 0.287-0.076 0.847-0.583 0.456 0.194 0.797-0.505 0.827 0.386 0.724-0.38 0.662 0.505 0.328-0.115 1.065 0.703 0.178 0.158 0.792 0.765-0.079 0.475 0.542 0.587-0.573c1.072-0.533 1.513-0.819 2.349-1.737 0.952-1.028 1.497-1.98 2.764-2.684 0.908-0.505 1.649-0.687 2.671-0.511 0.959 0.164 1.279 0.74 1.985 1.346 0.075-0.137 0.090-0.171 0.213-0.27-0.038 0.178-0.1 0.358-0.116 0.527z"></path>
</svg>
