<!-- Generated by IcoMoon.io -->
<svg version="1.1" xmlns="http://www.w3.org/2000/svg" width="34" height="32" viewBox="0 0 34 32">
<title>google-cloud-platform</title>
<path d="M32.367 14.559c-0.775-1.36-1.561-2.713-2.346-4.066-0.472-0.813-0.928-1.634-1.418-2.436-0.017-0.037-0.031-0.075-0.051-0.111-0.884-1.533-1.767-3.069-2.656-4.6-0.563-0.97-1.418-1.463-2.537-1.464-4.32-0.006-8.64-0.002-12.96-0.001-0.139 0-0.28 0.006-0.416 0.027-0.906 0.146-1.603 0.609-2.065 1.406-1.006 1.737-2.008 3.477-3.011 5.215-0.215 0.372-0.425 0.745-0.637 1.117 0 0 0 0 0 0-0.056 0.081-0.111 0.162-0.14 0.26-0.055 0.026-0.072 0.082-0.1 0.13-0.105 0.181-0.206 0.365-0.311 0.547-0.291 0.502-0.583 1.003-0.874 1.504-0.265 0.457-0.532 0.913-0.792 1.372-0.262 0.463-0.556 0.908-0.782 1.39-0.221 0.472-0.287 0.971-0.227 1.492 0.041 0.355 0.142 0.69 0.31 0.999 0.286 0.523 0.597 1.031 0.894 1.547 0.286 0.496 0.568 0.994 0.854 1.488 0.318 0.551 0.642 1.099 0.96 1.649 0.265 0.457 0.522 0.918 0.785 1.375 0.318 0.551 0.643 1.099 0.96 1.649 0.296 0.512 0.584 1.029 0.88 1.542 0.355 0.614 0.718 1.222 1.066 1.839 0.245 0.433 0.512 0.844 0.924 1.14 0.459 0.33 0.966 0.546 1.536 0.547 2.406 0.008 4.813 0.004 7.219 0.004 0.18 0 0.361-0.005 0.541-0.008 0.036 0.003 0.074 0.009 0.11 0.009 1.792 0 3.582 0 5.374 0.001 0.144 0 0.287-0.008 0.428-0.034 0.874-0.165 1.544-0.626 1.989-1.397 2.167-3.751 4.335-7.499 6.495-11.253 0.548-0.953 0.538-1.925-0.005-2.879zM3.863 16.714c-0.382 0.015-0.729-0.323-0.727-0.715 0.002-0.361 0.325-0.729 0.712-0.689 0.353-0.039 0.683 0.321 0.702 0.647 0.025 0.434-0.346 0.743-0.687 0.757zM23.425 3.995c0.387 0.001 0.702 0.317 0.702 0.704 0 0.395-0.312 0.71-0.707 0.713-0.383 0.003-0.699-0.315-0.7-0.705-0.001-0.397 0.312-0.713 0.705-0.712zM10.383 3.995c0.383 0.004 0.704 0.328 0.699 0.71-0.004 0.386-0.321 0.703-0.705 0.705-0.388 0.003-0.714-0.325-0.712-0.712 0.002-0.391 0.326-0.708 0.718-0.704zM10.363 28.020c-0.381 0.005-0.677-0.291-0.702-0.687-0.021-0.351 0.265-0.743 0.713-0.734 0.406 0.008 0.737 0.381 0.688 0.708 0.026 0.41-0.326 0.709-0.7 0.714zM23.415 28.008c-0.391-0.003-0.698-0.311-0.697-0.704 0-0.398 0.311-0.705 0.71-0.704 0.393 0.001 0.702 0.317 0.698 0.717-0.003 0.387-0.318 0.693-0.712 0.69zM26.552 16.195c-0.263 0.43-0.508 0.87-0.76 1.307-0.727 1.261-1.455 2.52-2.181 3.779-0.559 0.969-1.119 1.938-1.677 2.907-0.055 0.095-0.132 0.182-0.146 0.297-0.004-0.006-0.010-0.012-0.019-0.019-0.071-0.024-0.146-0.015-0.22-0.015-3.088 0-6.174 0-9.262 0-0.045 0-0.090-0.003-0.135 0-0.099 0.008-0.159-0.039-0.207-0.122-0.397-0.689-0.795-1.377-1.192-2.066-0.673-1.169-1.348-2.336-2.023-3.503-0.531-0.92-1.062-1.838-1.592-2.759-0.001-0.002-0.004-0.006-0.005-0.009 0.030-0.019 0.042-0.052 0.059-0.081 0.451-0.767 0.888-1.539 1.335-2.307 0.026-0.046 0.062-0.091 0.050-0.151 0.011-0.001 0.022-0.005 0.035-0.012 0.044-0.039 0.069-0.091 0.097-0.14 1.065-1.85 2.135-3.697 3.197-5.548 0.080-0.139 0.17-0.182 0.322-0.181 0.918 0.006 1.835 0.003 2.754 0.003 2.205 0 4.41 0 6.613-0.001 0.070 0 0.142 0.015 0.207-0.026-0.008 0.017-0.004 0.040 0.006 0.064 0.020 0.045 0.045 0.087 0.069 0.13 0.8 1.387 1.603 2.774 2.403 4.163 0.755 1.31 1.511 2.619 2.272 3.927 0.082 0.14 0.072 0.24-0.006 0.368zM29.94 16.712c-0.388-0.004-0.697-0.317-0.698-0.708 0-0.396 0.315-0.708 0.71-0.704 0.392 0.004 0.698 0.313 0.697 0.705 0 0.396-0.316 0.71-0.71 0.707z"></path>
<path d="M16.905 11.759c-2.332-0.008-4.275 1.921-4.246 4.249-0.022 2.321 1.882 4.245 4.226 4.244 2.376-0.001 4.252-1.875 4.26-4.242 0.009-2.382-1.939-4.242-4.24-4.25z"></path>
</svg>
