<!-- Generated by IcoMoon.io -->
<svg version="1.1" xmlns="http://www.w3.org/2000/svg" width="32" height="32" viewBox="0 0 32 32">
<title>google</title>
<path d="M12.068 3.888c-5.059 1.793-8.617 6.536-8.617 12.111 0 5.897 3.982 10.864 9.405 12.359l0.090 0.021c1.027 0.276 2.206 0.434 3.421 0.434 1.112 0 2.192-0.132 3.227-0.383l-0.093 0.019c2.042-0.469 3.815-1.422 5.256-2.735l-0.009 0.008c1.505-1.412 2.631-3.21 3.221-5.237l0.020-0.082c0.362-1.23 0.57-2.642 0.57-4.104 0-0.954-0.089-1.887-0.258-2.792l0.015 0.093h-12.057c0 1.667 0 3.334 0 5.001h6.983c-0.297 1.655-1.236 3.049-2.544 3.941l-0.021 0.013c-0.804 0.539-1.755 0.93-2.778 1.108l-0.044 0.006c-0.46 0.090-0.989 0.141-1.529 0.141s-1.070-0.051-1.582-0.149l0.052 0.008c-1.083-0.228-2.039-0.66-2.869-1.257l0.022 0.015c-1.351-0.964-2.374-2.31-2.92-3.878l-0.017-0.056c-0.261-0.744-0.412-1.602-0.412-2.495s0.151-1.751 0.428-2.549l-0.017 0.055c0.407-1.181 1.043-2.19 1.861-3.021l-0.001 0.001c1.371-1.419 3.291-2.3 5.417-2.3 0.773 0 1.52 0.117 2.222 0.333l-0.053-0.014c1.079 0.337 2.005 0.894 2.766 1.623l-0.003-0.002q1.181-1.175 2.358-2.356c0.405-0.423 0.847-0.827 1.246-1.26-1.155-1.077-2.526-1.94-4.039-2.516l-0.085-0.028c-1.316-0.493-2.837-0.778-4.425-0.778-1.506 0-2.953 0.257-4.298 0.729l0.091-0.028z"></path>
</svg>
