<!-- Generated by IcoMoon.io -->
<svg version="1.1" xmlns="http://www.w3.org/2000/svg" width="32" height="32" viewBox="0 0 32 32">
<title>google-wordmark</title>
<path d="M9.399 14.749h-3.031v0.899h2.149c-0.107 1.261-1.156 1.799-2.145 1.799-1.326 0-2.402-1.076-2.402-2.402s1.076-2.402 2.402-2.402v0c0.001 0 0.002 0 0.003 0 0.628 0 1.197 0.248 1.617 0.651l-0.001-0.001 0.631-0.653c-0.575-0.557-1.36-0.899-2.225-0.899-0.017 0-0.034 0-0.051 0h0.002c-1.814 0.013-3.28 1.487-3.28 3.304 0 1.825 1.479 3.304 3.304 3.304 0.008 0 0.016 0 0.025 0h-0.002c1.767 0 3.064-1.211 3.064-3.004 0-0.015 0.001-0.032 0.001-0.049 0-0.193-0.021-0.382-0.059-0.563l0.003 0.017z"></path>
<path d="M11.881 14.099c-1.169 0.005-2.115 0.954-2.115 2.123 0 1.173 0.95 2.123 2.123 2.123 1.17 0 2.118-0.946 2.123-2.114v-0.001c0-0.010 0-0.021 0-0.033 0-1.159-0.94-2.098-2.098-2.098-0.011 0-0.023 0-0.034 0h0.002zM11.893 14.932c0.023-0.002 0.049-0.002 0.076-0.002 0.713 0 1.291 0.578 1.291 1.292s-0.578 1.292-1.291 1.292c-0.713 0-1.291-0.578-1.291-1.292 0-0.002 0-0.002 0-0.004v0c-0.001-0.019-0.002-0.041-0.002-0.064 0-0.673 0.545-1.219 1.217-1.222v0z"></path>
<path d="M16.526 14.099c-1.17 0.003-2.117 0.953-2.117 2.123 0 1.173 0.95 2.123 2.123 2.123 1.17 0 2.118-0.946 2.123-2.114v-0.001c0-0.010 0-0.021 0-0.033 0-1.159-0.94-2.098-2.098-2.098-0.011 0-0.022 0-0.033 0h0.002zM16.538 14.932c0.023-0.002 0.049-0.002 0.076-0.002 0.713 0 1.292 0.578 1.292 1.292s-0.578 1.292-1.292 1.292c-0.713 0-1.291-0.578-1.291-1.292 0-0.002 0-0.002 0-0.004v0c-0.001-0.019-0.002-0.041-0.002-0.064 0-0.673 0.545-1.219 1.217-1.222v0z"></path>
<path d="M21.078 14.101c-1.142 0-2.038 1-2.038 2.121 0 0.010 0 0.021 0 0.032 0 1.13 0.895 2.051 2.015 2.093h0.004c0.023 0.002 0.049 0.002 0.076 0.002 0.438 0 0.829-0.2 1.086-0.515l0.002-0.002v0.411c0 0.733-0.446 1.17-1.117 1.17-0.489-0.004-0.908-0.307-1.082-0.735l-0.002-0.008-0.821 0.341c0.321 0.742 1.046 1.251 1.89 1.251 0.007 0 0.014 0 0.021 0h-0.001c1.136 0 2-0.715 2-2.213v-3.819h-0.885v0.36c-0.276-0.3-0.67-0.487-1.108-0.487-0.013 0-0.027 0-0.040 0.001h0.002zM21.16 14.932c0.561 0 1.133 0.478 1.133 1.294s-0.573 1.287-1.146 1.287c-0.654-0.017-1.177-0.551-1.177-1.207 0-0.025 0.001-0.051 0.002-0.076v0.003c0-0.821 0.587-1.302 1.187-1.302z"></path>
<path d="M27.074 14.095c-1.076 0-1.982 0.857-1.982 2.121-0.001 0.023-0.002 0.051-0.002 0.078 0 1.134 0.919 2.053 2.053 2.053 0.012 0 0.023 0 0.034 0h-0.002c0.002 0 0.002 0 0.004 0 0.733 0 1.38-0.366 1.769-0.925l0.005-0.007-0.735-0.489c-0.21 0.352-0.59 0.586-1.024 0.586-0.006 0-0.012 0-0.017 0h0.001c-0.013 0.001-0.030 0.001-0.045 0.001-0.441 0-0.82-0.261-0.993-0.637l-0.002-0.007 2.848-1.181-0.148-0.347c-0.278-0.724-0.961-1.23-1.764-1.244h-0.002zM27.11 14.916c0.011-0.001 0.024-0.001 0.036-0.001 0.324 0 0.605 0.182 0.747 0.45l0.002 0.005-1.901 0.795c-0.002-0.021-0.002-0.046-0.002-0.071 0-0.629 0.494-1.143 1.114-1.177h0.003z"></path>
<path d="M23.735 18.222h0.936v-6.26h-0.936z"></path>
</svg>
