<!-- Generated by IcoMoon.io -->
<svg version="1.1" xmlns="http://www.w3.org/2000/svg" width="32" height="32" viewBox="0 0 32 32">
<title>google-analytics</title>
<path d="M30.998 28.739c0 1.457-1.191 2.648-2.648 2.648h-24.701c-1.457 0-2.648-1.191-2.648-2.648v-24.701c0-1.457 1.191-2.648 2.648-2.648h24.701c1.457 0 2.648 1.191 2.648 2.648v24.701zM30.998 10.814l-2.709-1.825c0.054-0.234 0.087-0.477 0.087-0.729 0-1.76-1.427-3.188-3.188-3.188s-3.188 1.427-3.188 3.188c0 0.692 0.223 1.331 0.598 1.855l-5.857 8.957c-0.238-0.057-0.487-0.091-0.743-0.091-0.785 0-1.501 0.284-2.058 0.755l-3.921-2.256c0.020-0.144 0.034-0.29 0.034-0.439 0-1.76-1.427-3.188-3.188-3.188s-3.188 1.427-3.188 3.188c0 0.437 0.088 0.853 0.248 1.232l-2.928 2.716v2.89l4.349-4.035c0.452 0.245 0.968 0.384 1.518 0.384 0.843 0 1.607-0.329 2.177-0.865l3.826 2.202c-0.038 0.196-0.058 0.397-0.058 0.604 0 1.76 1.427 3.186 3.188 3.186s3.188-1.427 3.188-3.186c0-0.733-0.25-1.406-0.666-1.945l5.817-8.894c0.272 0.075 0.556 0.118 0.851 0.118 0.738 0 1.416-0.253 1.957-0.675l3.853 2.596v-2.554z"></path>
</svg>
