<!-- Generated by IcoMoon.io -->
<svg version="1.1" xmlns="http://www.w3.org/2000/svg" width="32" height="32" viewBox="0 0 32 32">
<title>google</title>
<path d="M11.397 1.821c-5.922 2.099-10.087 7.651-10.087 14.178 0 6.903 4.662 12.718 11.010 14.468l0.105 0.025c1.202 0.323 2.582 0.508 4.005 0.508 1.302 0 2.566-0.154 3.778-0.448l-0.109 0.022c2.39-0.549 4.466-1.665 6.153-3.202l-0.011 0.009c1.762-1.653 3.080-3.758 3.771-6.131l0.023-0.096c0.424-1.44 0.667-3.093 0.667-4.804 0-1.117-0.104-2.209-0.302-3.268l0.018 0.109h-14.114c0 1.951 0 3.903 0 5.854h8.175c-0.348 1.937-1.447 3.569-2.978 4.613l-0.025 0.015c-0.941 0.631-2.054 1.089-3.252 1.297l-0.052 0.007c-0.538 0.105-1.158 0.165-1.79 0.165s-1.253-0.060-1.852-0.174l0.061 0.009c-1.268-0.267-2.387-0.773-3.359-1.471l0.026 0.018c-1.582-1.128-2.779-2.704-3.418-4.54l-0.020-0.066c-0.306-0.871-0.482-1.875-0.482-2.921s0.177-2.050 0.501-2.984l-0.020 0.064c0.476-1.383 1.221-2.564 2.179-3.537l-0.001 0.001c1.605-1.661 3.853-2.692 6.341-2.692 0.905 0 1.779 0.137 2.601 0.39l-0.062-0.016c1.263 0.394 2.347 1.047 3.238 1.9l-0.004-0.002q1.383-1.375 2.76-2.758c0.474-0.495 0.992-0.968 1.459-1.475-1.352-1.261-2.957-2.271-4.728-2.945l-0.099-0.033c-1.541-0.577-3.321-0.911-5.18-0.911-1.763 0-3.457 0.301-5.031 0.853l0.107-0.033z"></path>
</svg>
