<!-- Generated by IcoMoon.io -->
<svg version="1.1" xmlns="http://www.w3.org/2000/svg" width="32" height="32" viewBox="0 0 32 32">
<title>google-wordmark</title>
<path d="M7.963 14.477h-3.69v1.095h2.617c-0.13 1.535-1.407 2.19-2.612 2.19-1.615 0-2.925-1.31-2.925-2.925s1.31-2.925 2.925-2.925v0c0.001 0 0.003 0 0.004 0 0.764 0 1.458 0.302 1.969 0.793l-0.001-0.001 0.768-0.795c-0.7-0.678-1.656-1.095-2.709-1.095-0.021 0-0.041 0-0.062 0h0.003c-2.209 0.016-3.994 1.811-3.994 4.023 0 2.222 1.801 4.023 4.023 4.023 0.010 0 0.020 0 0.030 0h-0.002c2.152 0 3.73-1.475 3.73-3.658 0-0.018 0.001-0.039 0.001-0.060 0-0.235-0.025-0.465-0.072-0.686l0.004 0.021z"></path>
<path d="M10.985 13.685c-1.423 0.006-2.575 1.161-2.575 2.585 0 1.428 1.157 2.585 2.585 2.585 1.424 0 2.579-1.152 2.585-2.574v-0.001c0-0.012 0-0.026 0-0.040 0-1.411-1.144-2.555-2.555-2.555-0.014 0-0.028 0-0.042 0h0.002zM11 14.7c0.028-0.002 0.060-0.003 0.092-0.003 0.868 0 1.572 0.704 1.572 1.573s-0.704 1.573-1.572 1.573c-0.868 0-1.572-0.704-1.572-1.573 0-0.002 0-0.003 0-0.005v0c-0.001-0.023-0.002-0.050-0.002-0.078 0-0.82 0.663-1.484 1.482-1.488v0z"></path>
<path d="M16.64 13.685c-1.424 0.004-2.577 1.16-2.577 2.585 0 1.428 1.157 2.585 2.585 2.585 1.424 0 2.579-1.152 2.585-2.574v-0.001c0-0.012 0-0.026 0-0.040 0-1.411-1.144-2.555-2.555-2.555-0.013 0-0.027 0-0.040 0h0.002zM16.655 14.7c0.028-0.002 0.060-0.003 0.093-0.003 0.868 0 1.573 0.704 1.573 1.573s-0.704 1.573-1.573 1.573c-0.868 0-1.572-0.704-1.572-1.573 0-0.002 0-0.003 0-0.005v0c-0.001-0.023-0.002-0.050-0.002-0.078 0-0.82 0.663-1.484 1.482-1.488v0z"></path>
<path d="M22.183 13.688c-1.39 0-2.482 1.217-2.482 2.582 0 0.012 0 0.025 0 0.039 0 1.376 1.090 2.497 2.453 2.548h0.005c0.028 0.002 0.060 0.003 0.093 0.003 0.533 0 1.009-0.244 1.322-0.627l0.002-0.003v0.5c0 0.892-0.543 1.425-1.36 1.425-0.596-0.005-1.106-0.374-1.317-0.895l-0.003-0.010-1 0.415c0.391 0.903 1.273 1.523 2.301 1.523 0.008 0 0.017 0 0.025 0h-0.001c1.383 0 2.435-0.87 2.435-2.695v-4.65h-1.078v0.438c-0.336-0.365-0.816-0.593-1.349-0.593-0.016 0-0.033 0-0.049 0.001h0.002zM22.282 14.7c0.683 0 1.38 0.582 1.38 1.575s-0.698 1.567-1.395 1.567c-0.796-0.021-1.433-0.671-1.433-1.47 0-0.031 0.001-0.062 0.003-0.092v0.004c0-1 0.715-1.585 1.445-1.585z"></path>
<path d="M29.483 13.68c-1.31 0-2.413 1.043-2.413 2.582-0.001 0.028-0.002 0.062-0.002 0.095 0 1.381 1.119 2.5 2.5 2.5 0.014 0 0.028 0 0.041 0h-0.002c0.002 0 0.003 0 0.005 0 0.892 0 1.68-0.446 2.154-1.126l0.006-0.009-0.895-0.595c-0.256 0.429-0.719 0.713-1.247 0.713-0.007 0-0.014 0-0.021 0h0.001c-0.016 0.001-0.036 0.001-0.055 0.001-0.537 0-0.999-0.318-1.209-0.775l-0.003-0.008 3.468-1.438-0.18-0.422c-0.338-0.881-1.17-1.498-2.148-1.515h-0.002zM29.527 14.68c0.013-0.001 0.029-0.001 0.044-0.001 0.395 0 0.737 0.222 0.91 0.548l0.003 0.006-2.315 0.968c-0.002-0.026-0.003-0.056-0.003-0.087 0-0.766 0.601-1.392 1.357-1.433h0.004z"></path>
<path d="M25.418 18.705h1.14v-7.622h-1.14z"></path>
</svg>
