<!-- Generated by IcoMoon.io -->
<svg version="1.1" xmlns="http://www.w3.org/2000/svg" width="32" height="32" viewBox="0 0 32 32">
<title>google-plus</title>
<path d="M28.188 1h-24.375c-1.546 0-2.813 1.266-2.813 2.813v24.375c0 1.547 1.266 2.813 2.813 2.813h24.375c1.547 0 2.813-1.265 2.813-2.813v-24.375c0-1.546-1.265-2.813-2.813-2.813zM12.25 23.5c-4.149 0-7.5-3.351-7.5-7.5s3.351-7.5 7.5-7.5c2.027 0 3.721 0.739 5.027 1.963l-2.039 1.957c-0.556-0.534-1.529-1.154-2.989-1.154-2.56 0-4.652 2.121-4.652 4.734s2.091 4.735 4.652 4.735c2.971 0 4.084-2.133 4.254-3.234h-4.254v-2.572h7.084c0.065 0.375 0.117 0.75 0.117 1.243 0 4.289-2.871 7.33-7.201 7.33zM27.25 16h-1.875v1.875h-1.875v-1.875h-1.875v-1.875h1.875v-1.875h1.875v1.875h1.875v1.875z"></path>
</svg>
