<!-- Generated by IcoMoon.io -->
<svg version="1.1" xmlns="http://www.w3.org/2000/svg" width="32" height="32" viewBox="0 0 32 32">
<title>gulp</title>
<path d="M21.899 1.294c-0.029 0.024-0.861 0.884-1.841 1.918l-1.781 1.876-0.712 2.778-1.989 0.035c-3.699 0.077-5.883 0.374-6.287 0.855-0.077 0.089-0.066 0.119 0.071 0.237 0.968 0.831 8.607 1.074 12.14 0.391 1.253-0.243 1.573-0.546 0.891-0.837-0.517-0.225-2.411-0.535-3.259-0.535-0.232 0-0.285-0.018-0.285-0.106 0-0.053 0.13-0.599 0.285-1.205l0.279-1.104 1.662-1.757c0.915-0.968 1.668-1.805 1.68-1.852 0.060-0.267-0.647-0.837-0.855-0.694zM9.349 9.522c0 0.179 0.718 6.934 0.754 7.040 0.011 0.047 0.071-0.042 0.13-0.214 0.528-1.478 1.579-2.731 2.47-2.939 0.433-0.101 0.76 0.006 1.11 0.356 0.386 0.386 0.457 0.802 0.161 0.961-0.148 0.077-0.291-0.029-0.481-0.374-0.409-0.73-1.169-0.345-1.989 1.021-0.866 1.436-1.092 3.028-0.433 3.028 0.243 0 0.831-0.463 1.24-0.974 0.279-0.356 0.386-0.552 0.54-1.010 0.101-0.309 0.219-0.594 0.267-0.629s0.154-0.060 0.249-0.047c0.154 0.018 0.166 0.042 0.184 0.297 0.011 0.196-0.035 0.433-0.166 0.802-0.172 0.486-0.368 1.11-0.736 2.333-0.083 0.279-0.19 0.564-0.243 0.635-0.13 0.184-0.314 0.172-0.398-0.018-0.060-0.124-0.042-0.256 0.124-0.813 0.107-0.368 0.214-0.718 0.232-0.784 0.018-0.077-0.119 0.024-0.374 0.261-0.594 0.552-1.176 0.784-1.52 0.599-0.101-0.053-0.113-0.042-0.113 0.101 0 0.451 0.427 4.5 0.481 4.565 0.179 0.214 1.443 0.576 2.725 0.778 0.979 0.154 3.77 0.154 4.749 0 0.843-0.137 1.763-0.35 2.208-0.517 0.629-0.232 0.552 0.024 0.908-3.058 0.172-1.502 0.309-2.742 0.297-2.749-0.011-0.011-0.202 0.13-0.422 0.314-0.475 0.404-0.789 0.558-1.14 0.564-0.314 0-0.475-0.077-0.546-0.273-0.084-0.208 0.029-0.451 0.481-1.010 0.504-0.623 0.588-0.742 0.588-0.867 0-0.267-0.612 0.011-0.961 0.44-0.113 0.142-0.279 0.374-0.368 0.517-0.201 0.314-0.724 1.507-0.985 2.25-0.202 0.576-0.391 0.843-0.588 0.843-0.113 0-0.303-0.142-0.303-0.226 0-0.155 0.19-0.635 0.54-1.401 0.226-0.486 0.409-0.897 0.409-0.908s-0.113 0.066-0.256 0.179c-0.338 0.279-0.712 0.457-0.944 0.457-0.226 0-0.463-0.142-0.463-0.273 0-0.107 0.011-0.113-0.362 0.095-0.564 0.309-0.884 0.196-0.884-0.321v-0.237l-0.243 0.256c-0.445 0.457-1.050 0.617-1.383 0.356-0.214-0.166-0.208-0.558 0.018-1.235 0.409-1.211 0.724-1.686 1.003-1.507 0.172 0.107 0.142 0.279-0.13 0.843-0.469 0.968-0.499 1.425-0.083 1.306 0.398-0.113 0.873-0.736 1.205-1.567 0.089-0.232 0.201-0.463 0.256-0.522 0.13-0.148 0.327-0.107 0.392 0.083 0.042 0.124 0 0.291-0.232 0.861-0.19 0.463-0.291 0.796-0.291 0.974-0.006 0.256 0 0.267 0.166 0.256 0.214-0.018 0.558-0.243 0.605-0.404 0.184-0.599 1.555-3.947 1.662-4.066 0.119-0.119 0.166-0.137 0.303-0.084 0.101 0.035 0.172 0.107 0.184 0.184 0.011 0.071-0.101 0.404-0.249 0.742-0.582 1.348-1.341 3.295-1.341 3.443 0 0.095 0.029 0.166 0.060 0.166 0.142 0 0.535-0.249 0.961-0.612 0.38-0.332 0.469-0.44 0.552-0.707 0.226-0.689 0.391-0.884 0.635-0.754 0.095 0.053 0.113 0.107 0.089 0.267-0.018 0.113-0.018 0.202 0 0.202s0.154-0.107 0.297-0.243c0.451-0.409 0.837-0.511 1.193-0.291 0.166 0.101 0.19 0.148 0.19 0.374 0 0.309-0.237 0.73-0.736 1.317-0.184 0.214-0.332 0.416-0.332 0.451 0 0.029 0.060 0.053 0.137 0.053 0.13 0 1.128-0.766 1.348-1.033 0.066-0.083 0.202-1.176 0.517-4.066 0.232-2.172 0.422-3.96 0.409-3.966-0.006-0.011-0.161 0.035-0.345 0.101-0.463 0.161-1.467 0.332-2.672 0.457-1.306 0.13-5.728 0.148-7.023 0.029-1.205-0.113-2.369-0.297-2.862-0.457l-0.433-0.137v0.13zM11.13 24.25c0 0.011 0.19 0.345 0.416 0.736l0.422 0.718 0.172 2.386 0.179 2.393 0.179 0.154c0.445 0.38 1.514 0.594 3.176 0.63 1.888 0.042 3.36-0.196 3.841-0.63l0.19-0.166 0.137-2.41 0.137-2.404 0.386-0.677c0.214-0.368 0.386-0.689 0.386-0.712 0-0.018-0.179 0.024-0.404 0.101-0.802 0.273-2.363 0.517-3.752 0.594-1.543 0.084-3.936-0.208-5.147-0.629-0.172-0.060-0.314-0.095-0.314-0.084z"></path>
</svg>
