<!-- Generated by IcoMoon.io -->
<svg version="1.1" xmlns="http://www.w3.org/2000/svg" width="32" height="32" viewBox="0 0 32 32">
<title>html5</title>
<path d="M2.794 1.333l2.403 27.001 10.786 2.999 10.816-3.003 2.406-26.997h-26.413zM7.788 7.741l-0.079-0.889h8.28v3.311h-4.666l0.302 3.391h4.364v3.311h-7.388l-0.813-9.126zM23.594 14.445l-0.777 8.718-0.050 0.559-6.783 1.883-6.774-1.883-0.464-5.2h3.319l0.235 2.641 3.685 0.995 3.687-0.997 0.383-4.294h-4.060v-3.311h7.674l-0.080 0.889zM24.193 7.741l-0.15 1.679-0.066 0.744h-7.976v-3.311h8.272l-0.079 0.888z"></path>
</svg>
