<!-- Generated by IcoMoon.io -->
<svg version="1.1" xmlns="http://www.w3.org/2000/svg" width="32" height="32" viewBox="0 0 32 32">
<title>ie</title>
<path d="M30.598 17.051c0-2.282-0.533-4.434-1.476-6.327 0.265-0.71 0.579-1.679 0.919-2.984 1.099-4.221-1.431-6.734-5.312-6.323-2.358 0.249-4.578 0.922-6.723 1.929-0.173-0.007-0.347-0.012-0.522-0.012-6.457 0-11.824 4.88-12.913 11.308 2.698-4.076 6.633-6.237 6.633-6.237-2.687 2.945-5.004 5.842-6.726 8.895-0.033 0.055-0.065 0.11-0.096 0.167-1.436 2.586-2.442 5.289-2.875 8.231-0.593 4.034 1.345 6.189 5.484 5.57 1.423-0.213 4-1.513 4.731-1.891 1.74 0.891 3.695 1.393 5.762 1.393 5.71 0 10.567-3.818 12.368-9.145h-7.099c-1.007 1.838-2.901 3.077-5.071 3.077-3.133 0-5.69-2.58-5.835-5.82h18.635c0.076-0.599 0.116-1.209 0.116-1.829zM7.071 30.27c-2.213 0.244-5.074-2.28-1.814-8.249 1.051 2.829 2.974 5.201 5.423 6.759-0.677 0.398-2.415 1.359-3.609 1.491zM11.89 14.807c0.37-3.001 2.821-5.321 5.792-5.321s5.422 2.319 5.792 5.321h-11.584zM22.395 4.328c5.53-2.712 7.54 0.185 6.932 3.137-0.083 0.407-0.387 1.488-0.657 2.422-1.459-2.489-3.657-4.453-6.275-5.56z"></path>
</svg>
