<!-- Generated by IcoMoon.io -->
<svg version="1.1" xmlns="http://www.w3.org/2000/svg" width="32" height="32" viewBox="0 0 32 32">
<title>illustrator</title>
<path d="M13.008 16.933h2.867c-0.493-1.679-0.979-3.23-1.458-4.807-0.464 1.583-0.935 3.129-1.409 4.807zM27.211 4.25h-22.612c-0.408 0-0.349 0.089-0.349 0.482v22.641c0 0.393-0.058 0.377 0.321 0.377h22.669c0.379 0 0.51 0.016 0.51-0.377v-22.612c0-0.422-0.131-0.511-0.539-0.511zM18.48 21.968c-0.305 0-0.612-0.025-0.916-0.003-0.219 0.016-0.292-0.076-0.351-0.266-0.282-0.92-0.582-1.839-0.865-2.759-0.057-0.185-0.138-0.253-0.339-0.25-1.030 0.012-2.061 0.011-3.091-0.001-0.217-0.003-0.317 0.055-0.379 0.27-0.262 0.915-0.549 1.822-0.814 2.735-0.057 0.198-0.145 0.267-0.355 0.262-0.619-0.015-1.239-0.006-1.916-0.006 0.179-0.568 0.341-1.093 0.509-1.616 1.028-3.208 2.060-6.416 3.081-9.626 0.071-0.223 0.17-0.292 0.4-0.287 0.725 0.016 1.45 0.004 2.175 0 0.136-0.001 0.228 0.007 0.278 0.161 1.213 3.752 2.431 7.527 3.647 11.278 0.005 0.017 0.002 0.107 0.005 0.107h-1.070zM22.341 21.968h-2.238v-8.393h2.238v8.393zM21.157 12.443c-0.684-0.001-1.173-0.472-1.178-1.132s0.505-1.149 1.195-1.149c0.695-0.001 1.185 0.473 1.191 1.151 0.005 0.661-0.497 1.132-1.208 1.131z"></path>
</svg>
