<!-- Generated by IcoMoon.io -->
<svg version="1.1" xmlns="http://www.w3.org/2000/svg" width="32" height="32" viewBox="0 0 32 32">
<title>illustrator</title>
<path d="M12.181 17.191h3.659c-0.629-2.143-1.25-4.123-1.861-6.136-0.592 2.021-1.193 3.994-1.798 6.136zM30.31 1.002h-28.862c-0.521 0-0.445 0.114-0.445 0.615v28.899c0 0.502-0.074 0.481 0.41 0.481h28.935c0.484 0 0.651 0.020 0.651-0.481v-28.862c0-0.539-0.167-0.652-0.688-0.652zM19.166 23.618c-0.389 0-0.781-0.032-1.169-0.004-0.28 0.020-0.373-0.097-0.448-0.34-0.36-1.174-0.743-2.347-1.104-3.522-0.073-0.236-0.176-0.323-0.433-0.319-1.315 0.015-2.631 0.014-3.945-0.001-0.277-0.004-0.405 0.070-0.484 0.345-0.334 1.168-0.701 2.326-1.039 3.491-0.073 0.253-0.185 0.341-0.453 0.334-0.79-0.019-1.581-0.008-2.446-0.008 0.228-0.725 0.435-1.395 0.65-2.063 1.312-4.095 2.629-8.189 3.933-12.287 0.091-0.285 0.217-0.373 0.511-0.366 0.925 0.020 1.851 0.005 2.776 0 0.174-0.001 0.291 0.009 0.355 0.206 1.548 4.789 3.103 9.608 4.655 14.395 0.006 0.022 0.003 0.137 0.006 0.137h-1.366zM24.094 23.618h-2.857v-10.713h2.857v10.713zM22.582 11.46c-0.873-0.001-1.497-0.602-1.504-1.445-0.006-0.841 0.645-1.467 1.525-1.467 0.887-0.001 1.513 0.604 1.52 1.469 0.006 0.844-0.634 1.445-1.542 1.444z"></path>
</svg>
