<!-- Generated by IcoMoon.io -->
<svg version="1.1" xmlns="http://www.w3.org/2000/svg" width="32" height="32" viewBox="0 0 32 32">
<title>inkscape</title>
<path d="M25.435 25.214c-1.253 1.13 0.147 2.285 1.376 1.548 0.27-0.295 0-1.278-1.376-1.548zM7.302 27.032c0.983 0.835 2.506-0.221 2.948-1.401-0.958-1.253-4.496 0.049-2.948 1.401zM25.951 24.059c0 0.565 4.128 0.934 4.128-0.123-0.59-1.72-3.636-1.622-4.128 0.123zM29.784 13.961l-11.474-11.745c-1.401-1.351-3.735-1.351-5.061 0l-11.081 11.327c-3.735 4.644 2.555 4.103 5.233 5.43 0.958 0.983-3.71 1.72-2.727 2.703 0.958 0.983 5.848 1.892 6.806 2.899l-1.007 3.022c0.958 0.983 3.194 0.049 3.612 2.334 0.295 1.622 4.030 0.688 5.848-0.639 0.958-0.983-1.843-0.885-0.885-1.892 2.408-2.457 4.644-0.885 5.455-3.366 0.418-1.229-3.538-1.867-2.58-2.875 2.801-1.597 12.408-2.654 7.863-7.199zM16.025 21.602c-1.179 0.319-6.88-2.015-5.455-2.015 0.295 0.172 4.767 1.081 5.872 1.278 0.393 0.074 0.123 0.467-0.418 0.737zM22.192 8.948l-2.162-1.745-0.418 2.58-1.818-0.958-2.899 1.843-0.958-3.808-1.597 2.752h-2.383c-0.983 0-1.081-1.302-0.197-2.187 1.548-1.671 3.317-3.391 4.275-4.373s2.654-0.983 3.612-0.025l4.373 4.447c0.418 0.418 0.418 1.229 0.172 1.474z"></path>
</svg>
