<!-- Generated by IcoMoon.io -->
<svg version="1.1" xmlns="http://www.w3.org/2000/svg" width="32" height="32" viewBox="0 0 32 32">
<title>internet-security</title>
<path d="M22.424 17.91c0-1.387-0.002-2.961-0.002-3.691 0-3.54-2.879-6.42-6.419-6.42s-6.421 2.88-6.421 6.42c0 0.735-0.001 2.308-0.003 3.691-1.678 0-3.037 1.359-3.037 3.036v8.017c0 1.677 1.36 3.036 3.037 3.036h12.844c1.677 0 3.037-1.359 3.037-3.036v-8.018c0-1.676-1.36-3.035-3.035-3.035zM17.168 25.032v2.507c0 0.645-0.522 1.168-1.168 1.168s-1.167-0.523-1.167-1.168v-2.507c-0.569-0.379-0.946-1.026-0.946-1.761 0-1.166 0.947-2.113 2.113-2.113 1.168 0 2.114 0.947 2.114 2.113 0 0.735-0.376 1.381-0.947 1.761zM12.025 17.91c0.002-1.384 0.004-2.955 0.004-3.692 0-2.19 1.782-3.972 3.973-3.972 2.189 0 3.972 1.782 3.972 3.972 0 0.73 0.002 2.303 0.002 3.692h-7.951z"></path>
<path d="M25.103 4.64c-0.227-0.020-0.435-0.135-0.57-0.318-1.236-1.663-3.213-2.688-5.317-2.688-0.129 0-0.259 0.004-0.387 0.011-0.188 0.011-0.374-0.045-0.524-0.158-1.282-0.964-2.833-1.487-4.458-1.487-2.911 0-5.495 1.684-6.707 4.235-0.114 0.241-0.343 0.408-0.607 0.446-3.208 0.457-5.682 3.222-5.682 6.553 0 3.356 2.513 6.13 5.755 6.555 0.471-0.443 1.039-0.785 1.67-0.984 0-0.554 0.001-1.093 0.001-1.561h-0.808c-2.212 0-4.011-1.799-4.011-4.011s1.799-4.011 4.011-4.011c0.112 0 0.222 0.009 0.331 0.018 0.637 0.049 1.215-0.364 1.37-0.982 0.54-2.149 2.462-3.65 4.676-3.65 1.265 0 2.462 0.489 3.37 1.375 0.311 0.303 0.752 0.432 1.176 0.343 0.271-0.056 0.548-0.085 0.823-0.085 1.548 0 2.932 0.871 3.609 2.272 0.238 0.493 0.759 0.786 1.304 0.73 0.136-0.014 0.271-0.021 0.402-0.021 2.212 0 4.012 1.799 4.012 4.011s-1.8 4.011-4.011 4.011h-0.805l0.001 1.561c0.631 0.199 1.199 0.54 1.669 0.983 3.242-0.425 5.755-3.199 5.755-6.555 0.001-3.457-2.664-6.303-6.046-6.594z"></path>
</svg>
