<!-- Generated by IcoMoon.io -->
<svg version="1.1" xmlns="http://www.w3.org/2000/svg" width="32" height="32" viewBox="0 0 32 32">
<title>internet-security</title>
<path d="M22.023 17.791c0-1.3-0.002-2.776-0.002-3.46 0-3.319-2.699-6.019-6.018-6.019s-6.020 2.7-6.020 6.019c0 0.689-0.001 2.164-0.003 3.46-1.573 0-2.847 1.274-2.847 2.846v7.516c0 1.572 1.275 2.846 2.847 2.846h12.042c1.572 0 2.847-1.274 2.847-2.846v-7.517c0-1.571-1.275-2.845-2.845-2.845zM17.095 24.468v2.35c0 0.605-0.489 1.095-1.095 1.095s-1.094-0.49-1.094-1.095v-2.35c-0.533-0.355-0.887-0.962-0.887-1.651 0-1.093 0.888-1.981 1.981-1.981 1.095 0 1.982 0.888 1.982 1.981 0 0.689-0.352 1.295-0.888 1.651zM12.273 17.791c0.002-1.298 0.004-2.77 0.004-3.461 0-2.053 1.671-3.724 3.725-3.724 2.052 0 3.724 1.671 3.724 3.724 0 0.684 0.002 2.159 0.002 3.461h-7.454z"></path>
<path d="M24.534 5.35c-0.213-0.019-0.408-0.127-0.534-0.298-1.159-1.559-3.012-2.52-4.985-2.52-0.121 0-0.243 0.004-0.363 0.010-0.176 0.010-0.351-0.042-0.491-0.148-1.202-0.904-2.656-1.394-4.18-1.394-2.729 0-5.152 1.579-6.288 3.97-0.107 0.226-0.322 0.383-0.569 0.418-3.008 0.428-5.327 3.021-5.327 6.144 0 3.146 2.356 5.747 5.396 6.146 0.442-0.415 0.974-0.736 1.566-0.923 0-0.519 0.001-1.025 0.001-1.463h-0.758c-2.074 0-3.76-1.687-3.76-3.76s1.687-3.76 3.76-3.76c0.105 0 0.208 0.008 0.31 0.017 0.597 0.046 1.139-0.341 1.284-0.921 0.506-2.015 2.308-3.422 4.384-3.422 1.186 0 2.308 0.458 3.159 1.289 0.292 0.284 0.705 0.405 1.103 0.322 0.254-0.053 0.514-0.080 0.772-0.080 1.451 0 2.749 0.817 3.384 2.13 0.223 0.462 0.712 0.737 1.223 0.684 0.128-0.013 0.254-0.020 0.377-0.020 2.074 0 3.761 1.687 3.761 3.76s-1.688 3.76-3.76 3.76h-0.755l0.001 1.464c0.592 0.187 1.124 0.506 1.565 0.922 3.039-0.398 5.395-2.999 5.395-6.146 0.001-3.241-2.498-5.909-5.668-6.182z"></path>
</svg>
