<!-- Generated by IcoMoon.io -->
<svg version="1.1" xmlns="http://www.w3.org/2000/svg" width="32" height="32" viewBox="0 0 32 32">
<title>javascript</title>
<path d="M1.031 1.305v30h30v-30h-30zM16.688 26.968c-0.442 0.898-1.286 1.489-2.264 1.773-1.503 0.345-2.94 0.149-4.010-0.494-0.716-0.439-1.275-1.115-1.654-1.893 0.761-0.465 1.52-0.933 2.281-1.398 0.020 0.009 0.080 0.117 0.16 0.257 0.29 0.488 0.542 0.833 1.035 1.075 0.485 0.165 1.548 0.271 1.959-0.582 0.251-0.433 0.171-1.856 0.171-3.398 0-2.424 0.011-4.808 0.011-7.262h2.806c0 2.577 0.014 5.16 0 7.733 0.006 1.577 0.143 3.010-0.497 4.188zM28.329 26.175c-0.975 3.337-6.414 3.445-8.586 1.24-0.459-0.519-0.747-0.79-1.021-1.389 1.155-0.664 1.155-0.664 2.279-1.314 0.611 0.938 1.175 1.454 2.19 1.665 1.377 0.168 2.764-0.305 2.453-1.768-0.319-1.195-2.82-1.486-4.523-2.764-1.728-1.161-2.133-3.981-0.713-5.592 0.474-0.596 1.281-1.041 2.127-1.255 0.293-0.037 0.59-0.077 0.884-0.114 1.697-0.034 2.758 0.413 3.536 1.284 0.217 0.22 0.393 0.456 0.725 0.97-0.904 0.576-0.901 0.57-2.196 1.409-0.277-0.596-0.735-0.97-1.22-1.132-0.753-0.228-1.702 0.020-1.899 0.816-0.068 0.245-0.054 0.474 0.055 0.878 0.305 0.696 1.329 0.998 2.247 1.42 2.644 1.073 3.536 2.221 3.756 3.59 0.211 1.178-0.052 1.942-0.091 2.056z"></path>
</svg>
