<!-- Generated by IcoMoon.io -->
<svg version="1.1" xmlns="http://www.w3.org/2000/svg" width="32" height="32" viewBox="0 0 32 32">
<title>jenkins</title>
<path d="M16.442 1.338c-0.707 0.060-1.237 0.158-1.737 0.319l-1.21 0.458c-0.195 0.086-1.047 0.564-1.586 0.868-0.941 0.55-1.427 1.074-1.653 1.784-0.045 0.139-0.064 0.173-0.109 0.197-0.233 0.131-0.426 0.304-0.575 0.512l-0.004 0.005c-0.22 0.321-0.378 0.819-0.429 1.351l-0.039 0.42-0.22 0.192c-0.643 0.579-1.212 1.217-1.706 1.912l-0.024 0.036c-0.957 1.363-1.627 2.996-1.887 4.763l-0.007 0.061c-0.067 0.426-0.106 0.917-0.106 1.417 0 0.066 0.001 0.132 0.002 0.197l-0-0.010c0 0.703 0.019 0.99 0.104 1.605 0.183 1.237 0.537 2.354 1.041 3.383l-0.030-0.067c0.587 1.218 1.453 2.389 2.421 3.271l0.276 0.254 0.023 0.353 0.039 0.868c0.020 0.656 0.047 0.769 0.21 0.908 0.094 0.079 0.244 0.153 0.55 0.268l0.873 0.399c0.905 0.451 1.198 0.559 1.647 0.668 0.226 0.063 0.485 0.1 0.753 0.1 0.016 0 0.033-0 0.049-0l-0.002 0 0.395 0.011 0.127 0.451 0.53 1.755 0.336 0.902c0.028 0.030 0.305 0.113 0.598 0.178 1.049 0.226 2.684 0.268 4.247 0.081 0.53-0.064 0.893-0.263 1.023-0.557 0.034-0.076 0.036-0.113 0.019-0.226l-0.030-0.364-0.014-0.226 0.167-0.032c0.546-0.105 0.819-0.248 0.938-0.492 0.039-0.082 0.051-0.135 0.059-0.293 0.014-0.242-0.009-0.398-0.127-0.925-0.16-0.692-0.192-0.955-0.15-1.205l0.023-0.135 0.118-0.039c0.254-0.085 0.367-0.21 0.367-0.411v-0.097l0.118-0.054c0.282-0.127 0.591-0.186 1.046-0.201l0.338-0.009 0.053 0.093 0.113 0.173c0.070 0.081 0.073 0.082 0.266 0.116 0.59 0.113 1.196 0.113 1.658 0.006 0.359-0.076 0.478-0.135 0.661-0.33 0.338-0.367 0.564-1.071 0.573-1.732 0-0.293-0.017-0.395-0.135-0.808-0.165-0.572-0.379-1.154-0.539-1.464-0.099-0.191-0.242-0.347-0.416-0.46l-0.005-0.003c-0.060-0.034-0.108-0.070-0.108-0.079s0.043-0.090 0.096-0.184c0.172-0.31 0.366-0.709 0.542-1.117l0.037-0.096c0.451-1.094 0.69-2.179 0.792-3.422 0.013-0.244 0.021-0.529 0.021-0.817s-0.008-0.573-0.023-0.856l0.002 0.040c-0.099-1.233-0.338-2.323-0.792-3.421-0.25-0.586-0.489-1.063-0.75-1.523l0.039 0.074c-0.483-0.811-1.023-1.512-1.636-2.142l-0.291-0.297-0.034-0.372c-0.113-1.303-0.421-2.366-0.882-3.072-0.336-0.514-1.030-1.258-1.653-1.771-0.741-0.609-1.639-0.953-2.899-1.111-0.223-0.028-1.274-0.053-1.483-0.036zM17.86 2.046c0.775 0.127 1.47 0.355 2.113 0.672l-0.044-0.019c0.41 0.191 0.758 0.449 1.043 0.765l0.002 0.003c0.257 0.266 0.916 1.086 0.953 1.188 0.014 0.032 0.006 0.034-0.076 0.023-0.343-0.045-0.512-0.032-0.711 0.062-0.242 0.113-0.379 0.304-0.389 0.541-0.002 0.043 0.002 0.085 0.008 0.090s0.042-0.011 0.081-0.037c0.147-0.113 0.263-0.132 0.508-0.132 0.020-0.002 0.044-0.003 0.068-0.003 0.121 0 0.236 0.024 0.341 0.067l-0.006-0.002c0.255 0.084 0.473 0.223 0.647 0.404l0 0c0.361 0.361 0.485 0.79 0.564 1.924 0.034 0.548 0.045 1.647 0.020 1.99-0.107 1.515-0.508 2.919-1.137 3.986-0.276 0.447-0.52 0.808-0.776 1.16l0.036-0.052c-0.167 0.202-0.359 0.375-0.575 0.516l-0.010 0.006c-0.677 0.451-1.391 0.729-2.057 0.835-0.271 0.042-0.79 0.042-1.021 0-0.257-0.045-0.639-0.18-0.986-0.338-0.902-0.451-1.509-1.015-2.481-2.393l-0.12-0.169 0.011 0.094c0.056 0.421 0.302 0.852 0.797 1.417 0.572 0.65 0.993 1.032 1.353 1.235 0.068 0.037 0.135 0.081 0.15 0.096 0.025 0.023 0.015 0.025-0.065 0.014l-0.338-0.023c-0.381-0.019-0.634 0.060-0.76 0.235l-0.056 0.079-0.197-0.011c-1.094-0.062-1.756-0.265-2.151-0.661-0.429-0.429-1.046-1.856-1.181-2.738-0.045-0.285-0.034-0.314 0.18-0.546 0.226-0.255 0.277-0.338 0.221-0.512-0.020-0.059-0.025-0.060-0.105-0.049-0.109 0.015-0.169 0.047-0.372 0.201-0.092 0.070-0.192 0.138-0.226 0.147-0.175 0.068-0.451 0.056-0.677-0.026-0.505-0.203-0.961-0.865-1.097-1.588-0.039-0.203-0.039-0.571 0-0.73 0.090-0.367 0.33-0.696 0.638-0.876 0.223-0.132 0.53-0.192 0.796-0.16 0.424 0.054 0.659 0.338 0.831 1.009l0.062 0.24 0.203-0.003c0.336-0.003 0.609-0.094 0.711-0.235 0.037-0.049 0.037-0.054 0.006-0.263l-0.113-0.53c-0.226-0.846-0.212-0.981 0.036-2.168 0.115-0.548 0.144-0.774 0.147-1.060 0-0.015 0.001-0.033 0.001-0.051 0-0.234-0.039-0.458-0.112-0.667l0.004 0.014c-0.021-0.054-0.037-0.116-0.047-0.181l-0.001-0.005c0-0.062 0.113-0.291 0.282-0.512 0.283-0.349 0.59-0.658 0.927-0.933l0.011-0.009c0.317-0.24 0.679-0.482 1.054-0.704l0.054-0.029c0.981-0.556 1.326-0.654 2.242-0.639 0.388 0.006 0.519 0.015 0.769 0.054zM14.106 2.565c0.099 0.079 0.023 0.218-0.152 0.274-0.079 0.028-0.147 0.072-0.2 0.129l-0 0c-0.059 0.054-0.192 0.165-0.299 0.244-0.293 0.221-0.393 0.333-0.614 0.699-0.24 0.398-0.356 0.564-0.466 0.62s-0.212 0.085-0.426 0.059c-0.226-0.030-0.342-0.011-0.747 0.122-0.353 0.113-0.485 0.141-0.485 0.099 0-0.015 0.042-0.098 0.094-0.18 0.361-0.609 1.042-1.181 1.942-1.633 0.245-0.13 0.536-0.256 0.838-0.359l0.044-0.013c0.316-0.111 0.393-0.12 0.469-0.062zM12.184 5.046c0.073 0.192 0.098 0.343 0.107 0.65 0.009 0.356-0.008 0.559-0.099 1.148-0.113 0.661-0.111 0.752-0.111 1.088-0.001 0.027-0.002 0.059-0.002 0.092 0 0.259 0.045 0.507 0.129 0.737l-0.005-0.015c0.085 0.289 0.111 0.512 0.073 0.605-0.026 0.063-0.087 0.113-0.19 0.122l-0.068 0.014-0.014-0.127c-0.038-0.35-0.215-0.652-0.474-0.855l-0.003-0.002c-0.274-0.219-0.568-0.319-0.902-0.319-0.24 0-0.409 0.037-0.645 0.147-0.085 0.037-0.156 0.065-0.161 0.060-0.025-0.025-0.053-0.53-0.054-0.953 0-0.383 0.006-0.517 0.034-0.677 0.092-0.501 0.254-0.79 0.617-1.094 0.381-0.319 0.803-0.523 1.284-0.624 0.112-0.031 0.241-0.051 0.375-0.056l0.003-0c0.090-0.002 0.099 0.002 0.118 0.048zM9.173 8.123c0.019 0.017 0.030 0.065 0.032 0.13 0 0.056 0.008 0.113 0.017 0.113s0.014 0.042 0.014 0.094-0.008 0.094-0.017 0.094-0.011 0.020-0.008 0.043-0.003 0.059-0.020 0.076-0.030 0.037-0.030 0.049-0.008 0.020-0.019 0.020-0.019 0.011-0.019 0.026-0.014 0.030-0.028 0.037-0.028 0.023-0.028 0.037-0.011 0.036-0.026 0.043c-0.066 0.133-0.122 0.289-0.159 0.451l-0.003 0.014c0 0.015-0.006 0.028-0.014 0.028s-0.015 0.028-0.017 0.060c-0.006 0.112-0.015 0.211-0.027 0.31l0.002-0.022c-0.059 0.548 0.094 1.306 0.377 1.877 0.325 0.652 0.882 1.109 1.507 1.237l0.113 0.025 0.006 0.073c0.048 0.47 0.2 0.897 0.433 1.267l-0.007-0.012c0.235 0.368 0.308 0.587 0.254 0.751-0.039 0.122-0.147 0.201-0.677 0.496l-2.233 1.349c-0.113 0.073-0.338 0.212-0.523 0.305-0.48 0.248-0.628 0.398-0.661 0.672-0.023 0.192 0.073 0.577 0.285 1.154l0.232 0.65 0.288 0.769c0.183 0.419 0.336 0.911 0.436 1.421l0.007 0.046c0.082 0.392 0.226 1.353 0.226 1.5 0 0.107-0.533-0.471-0.981-1.065-0.921-1.209-1.594-2.657-1.914-4.234l-0.011-0.068c-0.079-0.399-0.139-0.809-0.126-0.862 0.008-0.028 0.003-0.045-0.009-0.045s-0.019-0.028-0.011-0.094 0.003-0.094-0.009-0.094-0.017-0.039-0.008-0.122 0.006-0.122-0.009-0.122-0.017-0.049-0.008-0.178 0.008-0.178-0.008-0.178-0.020-0.113-0.020-0.404 0.006-0.404 0.020-0.404 0.017-0.054 0.008-0.178c-0.009-0.13-0.008-0.178 0.008-0.178s0.019-0.036 0.009-0.122-0.006-0.122 0.008-0.122 0.017-0.032 0.009-0.094-0.003-0.094 0.008-0.094 0.017-0.034 0.009-0.085 0-0.085 0.009-0.085 0.014-0.030 0.009-0.065 0-0.065 0.009-0.065 0.014-0.030 0.009-0.065 0-0.065 0.009-0.065 0.015-0.026 0.009-0.056 0-0.056 0.008-0.056 0.019-0.049 0.020-0.107 0.011-0.111 0.020-0.113 0.014-0.026 0.008-0.051 0-0.047 0.008-0.047 0.019-0.039 0.019-0.088 0.011-0.092 0.023-0.096 0.017-0.017 0.011-0.030c0.094-0.497 0.221-0.934 0.387-1.352l-0.017 0.049c0.009-0.003 0.017-0.025 0.017-0.045 0-0.054 0.077-0.259 0.096-0.259 0.009 0 0.017-0.020 0.017-0.047s0.009-0.047 0.019-0.047 0.019-0.020 0.019-0.047 0.009-0.047 0.019-0.047 0.019-0.020 0.019-0.045 0.014-0.059 0.028-0.076 0.028-0.037 0.028-0.051c0-0.039 0.045-0.147 0.060-0.147 0.008 0 0.015-0.014 0.015-0.028 0-0.036 0.098-0.24 0.122-0.257 0.011-0.008 0.039-0.059 0.064-0.113 0.113-0.259 0.141-0.314 0.166-0.323 0.014-0.006 0.025-0.028 0.025-0.049s0.017-0.053 0.037-0.070 0.037-0.047 0.037-0.065 0.015-0.047 0.036-0.065 0.039-0.056 0.047-0.086 0.020-0.051 0.030-0.051 0.019-0.014 0.019-0.028 0.008-0.028 0.017-0.028 0.023-0.020 0.028-0.047 0.020-0.047 0.030-0.047 0.019-0.014 0.019-0.028 0.008-0.028 0.017-0.028 0.023-0.020 0.028-0.047 0.020-0.047 0.030-0.047 0.019-0.014 0.019-0.028 0.009-0.028 0.019-0.028 0.019-0.014 0.019-0.028 0.009-0.028 0.019-0.028 0.019-0.014 0.019-0.028 0.009-0.028 0.019-0.028 0.019-0.014 0.019-0.028 0.014-0.034 0.028-0.039 0.028-0.023 0.028-0.037 0.009-0.026 0.019-0.026 0.019-0.011 0.019-0.026 0.014-0.030 0.028-0.037 0.028-0.023 0.028-0.039 0.009-0.028 0.019-0.028 0.019-0.011 0.019-0.026 0.014-0.030 0.028-0.037 0.028-0.023 0.028-0.037 0.014-0.030 0.028-0.037 0.028-0.023 0.028-0.037 0.014-0.030 0.028-0.037 0.028-0.023 0.028-0.037 0.017-0.037 0.037-0.049 0.037-0.030 0.037-0.043 0.017-0.034 0.037-0.047 0.037-0.034 0.037-0.047 0.017-0.034 0.037-0.047 0.037-0.034 0.037-0.047 0.026-0.043 0.056-0.065 0.056-0.052 0.056-0.065 0.030-0.047 0.065-0.076 0.065-0.062 0.065-0.073 0.051-0.068 0.113-0.122c0.043-0.035 0.080-0.075 0.112-0.119l0.001-0.002c0.118-0.145 0.245-0.273 0.382-0.389l0.004-0.004c0.014 0 0.026-0.017 0.032-0.037 0.011-0.045 0.043-0.049 0.082-0.008zM23.677 8.932c1.394 1.629 2.233 3.581 2.479 5.786 0.027 0.356 0.042 0.772 0.042 1.191 0 0.238-0.005 0.476-0.015 0.712l0.001-0.034c-0.094 1.351-0.432 2.635-1.009 3.855l-0.451 0.857-0.049 0.077-0.18 0.025c-0.469 0.059-1.148 0.288-1.753 0.591-0.18 0.090-0.206 0.098-0.206 0.056 0-0.015 0.062-0.198 0.139-0.406l0.876-2.643 0.338-1.088c0.203-0.651 0.248-0.846 0.226-1.088-0.011-0.364-0.113-0.489-1.402-1.588-0.354-0.305-0.636-0.584-0.677-0.685-0.073-0.141-0.006-0.338 0.255-0.792 0.169-0.271 0.314-0.584 0.42-0.914l0.008-0.030c0.282-0.846 0.485-1.771 0.591-2.701l0.086-1.136c0-0.197 0.017-0.3 0.045-0.3 0.011 0 0.122 0.116 0.244 0.257zM21.688 15.188c0.062 0.053 0.338 0.305 0.591 0.564l0.685 0.627c0.302 0.226 0.449 0.383 0.519 0.528 0.060 0.12 0.060 0.122 0.049 0.332-0.014 0.218-0.079 0.55-0.229 1.173-0.192 0.79-0.508 1.726-0.97 2.885-0.302 0.756-0.37 0.857-0.602 0.925-0.192 0.054-0.232 0.060-0.735 0.079-0.451 0.019-0.62 0.042-0.76 0.113-0.088 0.045-0.113 0.047-0.113 0.008s0.133-0.266 0.846-1.432l1.038-1.74c0.028-0.051 0.026-0.060-0.006-0.111-0.052-0.071-0.103-0.134-0.157-0.193l0.001 0.002c-0.122-0.138-0.183-0.235-0.183-0.293 0.020-0.088 0.042-0.162 0.069-0.234l-0.004 0.013c0.265-0.79 0.13-2.053-0.263-2.489-0.086-0.096-0.226-0.19-0.305-0.19-0.080-0.020-0.147-0.068-0.191-0.132l-0.001-0.001c0-0.019 0.082-0.096 0.192-0.18 0.101-0.078 0.192-0.158 0.276-0.243l0-0c0.031-0.038 0.069-0.070 0.111-0.095l0.002-0.001c0.015 0 0.079 0.042 0.141 0.094zM11.914 15.752l0.33 0.361 0.338 0.401c0.192 0.22 0.623 0.478 1.579 0.947l0.591 0.291 0.025 0.152c0.151 0.72 0.336 1.339 0.566 1.937l-0.029-0.085c0.178 0.379 0.393 0.489 0.718 0.372l0.152-0.047c0.065 0-0.015 0.18-0.176 0.395-0.212 0.282-0.257 0.451-0.156 0.616 0.054 0.082 0.223 0.201 0.456 0.319l1.602 0.764 0.398 0.187c0 0.017-0.082 0.026-0.293 0.036l-3.973 0.314-0.683 0.060c-0.043-0.026-0.094-0.18-0.116-0.347-0.032-0.259-0.023-1.080 0.019-1.611l0.037-0.639c0-0.474-0.226-0.469-0.314 0.006-0.030 0.175-0.026 0.311 0.032 0.942 0.042 0.426 0.049 0.942 0.019 1.137-0.017 0.098-0.037 0.181-0.063 0.263l0.004-0.015c-0.034 0.118-0.042 0.127-0.088 0.127-0.077-0.002-0.195-0.062-0.399-0.206-0.242-0.169-0.336-0.218-0.356-0.184-0.045 0.070-0.002 0.187 0.121 0.33 0.118 0.135 0.135 0.254 0.052 0.347-0.043 0.053-0.079 0.065-0.231 0.098-0.246 0.053-0.353 0.131-0.353 0.263 0 0.045 0.003 0.047 0.118 0.047l0.477-0.023c0.361-0.020 0.538-0.011 0.722 0.042l0.068 0.019 0.014 0.156 0.338 2.869 0.111 0.82c0 0.045-0.471 0-0.863-0.082-0.632-0.133-1.145-0.344-2.205-0.902l-0.764-0.395-0.147-0.071v-0.169c-0.026-0.791-0.081-1.528-0.164-2.257l0.012 0.127c-0.226-1.962-0.659-3.756-1.277-5.166l-0.13-0.319c0-0.015 0.175-0.158 0.388-0.316 1.243-0.933 2.081-1.466 2.981-1.861 0.156-0.070 0.31-0.113 0.344-0.127 0.047 0 0.082 0.019 0.149 0.079zM21.11 16.338c0.192 0.098 0.338 0.537 0.383 1.241 0.030 0.383-0.025 0.76-0.131 0.905l-0.034 0.043-0.308-0.020c-0.496-0.032-1.128-0.113-1.424-0.212l-0.082-0.023 0.002-0.291 0.003-0.305c0-0.019 0.13-0.082 0.197-0.098s0.285-0.036 0.353-0.034c0.028 0.002 0.051-0.006 0.051-0.014 0-0.019-0.203-0.079-0.31-0.088l-0.099-0.017c-0.011-0.003-0.062 0-0.111 0.008-0.116 0.023-0.144 0.003-0.175-0.105-0.014-0.049-0.042-0.122-0.060-0.164-0.030-0.060-0.032-0.076-0.011-0.088 0.014-0.009 0.032-0.017 0.042-0.017s0.164-0.097 0.347-0.22c0.55-0.361 0.786-0.492 0.963-0.521l0.064-0.015c0.024-0.002 0.053-0.003 0.081-0.003 0.092 0 0.181 0.013 0.265 0.037l-0.007-0.002zM19.689 16.34c0 0.015-0.017 0.036-0.036 0.047s-0.192 0.141-0.379 0.291l-0.344 0.271-0.105 0.003c-0.401 0.014-0.707-0.036-0.944-0.15-0.18-0.090-0.37-0.22-0.37-0.257s0.085-0.054 0.147-0.030c0.132 0.044 0.283 0.072 0.441 0.077l0.002 0c0.18 0 0.477-0.047 0.846-0.135l0.711-0.144c0.017-0.002 0.032 0.011 0.032 0.026zM13.502 16.432c0.135 0.045 0.377 0.081 0.767 0.113 0.533 0.043 0.522 0.042 0.522 0.107-0.008 0.075-0.020 0.142-0.038 0.207l0.002-0.009-0.051 0.242c-0.011 0.093-0.017 0.099-0.062 0.099-0.086 0-0.421-0.090-0.632-0.167-0.508-0.192-0.812-0.429-0.769-0.598 0.023-0.088 0.043-0.099 0.109-0.060 0.041 0.022 0.091 0.044 0.142 0.062l0.008 0.002zM15.799 16.497c0.020 0.009 0.042 0.015 0.047 0.011 0.026-0.026 0.764 0.218 1.020 0.338l0.706 0.378c0.123 0.079 0.267 0.138 0.422 0.166l0.007 0.001 0.068 0.006c0.011 0.002 0.020 0.037 0.023 0.077 0.003 0.070-0.002 0.077-0.082 0.122s-0.257 0.107-0.285 0.113c-0.014-0.002-0.068 0.011-0.282 0.071-0.099 0.028-0.122 0.076-0.026 0.056 0.109-0.023 0.656 0.132 0.713 0.201 0.011 0.014 0.015 0.096 0.009 0.21l-0.011 0.189-0.077 0.054-0.395 0.321-0.469 0.372c-0.338 0.252-1.092 0.537-1.399 0.537-0.090 0-0.111-0.008-0.156-0.054-0.030-0.032-0.056-0.076-0.060-0.099-0.057-0.193-0.111-0.345-0.171-0.493l0.013 0.037c-0.085-0.196-0.165-0.433-0.227-0.677l-0.007-0.034-0.019-0.107c-0.043-0.226-0.064-0.774-0.037-1.069l0.014-0.169c0.011-0.139 0.118-0.398 0.195-0.469s0.173-0.105 0.31-0.113c0 0 0.001 0 0.002 0 0.058 0 0.114 0.009 0.166 0.026l-0.004-0.001zM18.897 17.306c0.113 0.045 0.113 0.070 0.18 0.192 0.032 0.069 0.050 0.15 0.050 0.235 0 0.092-0.021 0.178-0.059 0.255l0.002-0.003c-0.076 0.147-0.184 0.203-0.381 0.203-0.229 0-0.223 0.003-0.282-0.271-0.030-0.13-0.047-0.246-0.042-0.255s0.002-0.019-0.008-0.019-0.020-0.047-0.020-0.118c0-0.109 0.003-0.118 0.053-0.143 0.226-0.118 0.365-0.135 0.508-0.077zM19.307 18.487c0.089 0.047 0.163 0.094 0.235 0.145l-0.006-0.004c0.186 0.13 0.338 0.197 0.451 0.212l0.096 0.011v0.113c-0.002 0.117-0.009 0.229-0.021 0.339l0.001-0.017-0.037 0.668c-0.028 0.639-0.060 0.953-0.152 1.52-0.039 0.252-0.099 0.46-0.131 0.466s-0.254-0.438-0.571-1.17c-0.399-0.921-0.623-1.346-0.902-1.722-0.068-0.093-0.12-0.178-0.116-0.192 0.031-0.053 0.063-0.1 0.1-0.142l-0.001 0.001 0.094-0.115 0.085 0.014c0.139 0.020 0.195 0.011 0.398-0.077 0.221-0.096 0.345-0.108 0.477-0.049zM21.051 18.817c0.161 0.047 0.3 0.123 0.418 0.225l-0.002-0.001c0.113 0.099 0.231 0.248 0.231 0.293 0 0.037-0.559 1.009-0.902 1.55-0.316 0.517-0.751 1.137-0.809 1.159-0.037 0.015-0.034-0.011 0.030-0.257 0.135-0.528 0.244-1.305 0.31-2.211l0.028-0.541c0-0.152 0.002-0.156 0.053-0.175 0.198-0.077 0.443-0.094 0.632-0.045zM17.929 19.291c0.406 0.573 0.654 1.055 1.171 2.281l0.195 0.494c0 0.045-0.054 0.034-0.379-0.077-0.582-0.201-1.122-0.429-1.763-0.749l-0.88-0.476c0-0.008 0.017-0.070 0.039-0.135 0.113-0.314 0.319-0.617 0.625-0.875 0.18-0.152 0.828-0.605 0.868-0.606 0.011 0 0.068 0.065 0.113 0.144zM25.008 21.979c0.192 0.094 0.388 0.288 0.48 0.478 0.118 0.244 0.244 0.668 0.426 1.419 0.076 0.311 0.085 0.377 0.094 0.638 0.008 0.254 0.003 0.311-0.030 0.456-0.098 0.413-0.334 0.73-0.654 0.88s-1.105 0.209-1.509 0.116c-0.104-0.023-0.13-0.036-0.13-0.064 0-0.060 0.24-0.135 0.69-0.218l0.539-0.122c0.009-0.015-0.026-0.026-0.226-0.076-0.118-0.030-0.717-0.030-1.060-0.002l-0.557 0.034-0.302 0.014-0.011-0.113-0.070-0.683c-0.081-0.826-0.165-1.362-0.271-1.737l-0.030-0.113 0.081-0.070c0.156-0.133 0.514-0.293 1.158-0.511 0.364-0.113 0.598-0.22 0.744-0.305 0.086-0.072 0.197-0.116 0.319-0.116 0.020 0 0.040 0.001 0.059 0.003l-0.002-0c0.096 0.003 0.185 0.027 0.264 0.069l-0.003-0.002zM21.884 22.949c0.071 0.043 0.248 0.522 0.338 0.882 0.098 0.475 0.155 1.022 0.156 1.582v0.001l-0.006 0.192-0.244 0.082c-0.101 0.037-0.222 0.070-0.347 0.092l-0.013 0.002-0.115 0.014-0.011-0.081-0.039-0.372-0.143-1.015-0.186-1.353c0-0.043 0.008-0.045 0.147-0.053 0.192-0.011 0.444-0.002 0.474 0.015zM18.102 22.958c0.429 0.026 1.203 0.115 1.243 0.141 0.030 0.17 0.058 0.392 0.077 0.617l0.002 0.031 0.068 1.267 0.094 1.351 0.085 1.605 0.161 2.165 0.042 0.282c-0.019 0.011-0.321 0.088-0.503 0.13-0.539 0.118-1.066 0.169-1.718 0.169-0.756-0.002-1.331-0.059-2.030-0.195l-0.835-0.21c-0.003-0.003-0.060-0.184-0.127-0.401-0.483-1.556-0.82-3.087-1.083-4.895l-0.195-1.661c0.020-0.019 0.993-0.176 1.432-0.235l1.886-0.165c0.182-0.006 0.396-0.009 0.611-0.009 0.273 0 0.544 0.005 0.815 0.016l-0.039-0.001zM20.649 23.080c0.113 0.377 0.169 0.925 0.259 2.102l0.073 0.882c0.011 0.098 0.011 0.153-0.002 0.161-0.185 0.044-0.491 0.101-0.799 0.15l-0.103 0.014c-0.141 0.023-0.212 0.026-0.212 0.015s-0.014-0.186-0.028-0.387l-0.098-2.117v-0.792c0.054-0.011 0.097-0.021 0.139-0.033l-0.012 0.003c0.141-0.036 0.398-0.060 0.606-0.056 0.15 0.002 0.15 0.002 0.165 0.059zM20.601 26.835c0.034 0.009 0.043 0.030 0.053 0.113 0.047 0.285 0.088 0.49 0.133 0.693l-0.017-0.088c0.141 0.672 0.178 0.902 0.189 1.238l0.011 0.282-0.226 0.070-0.308 0.088c-0.113 0.020-0.422 0.049-0.422 0.037-0.025-0.441-0.039-0.655-0.054-0.869l0.014 0.252-0.049-1.17-0.011-0.557h0.060c0.034 0 0.143-0.020 0.242-0.045l0.226-0.054 0.074-0.009c0.011-0.002 0.037 0.002 0.059 0.008zM15.887 4.895c-0.158 0.026-0.379 0.113-0.591 0.266-0.227 0.167-0.421 0.363-0.581 0.585l-0.005 0.008c-0.161 0.246-0.266 0.564-0.226 0.744 0.014 0.076 0.099 0.186 0.144 0.186 0.014 0 0.059-0.070 0.099-0.156 0.16-0.338 0.404-0.643 0.627-0.808 0.13-0.096 0.333-0.187 0.503-0.229 0.107-0.026 0.188-0.030 0.404-0.023l0.311 0.023c0.036 0.011 0.045 0.003 0.070-0.054 0.045-0.105 0.036-0.184-0.032-0.285-0.132-0.195-0.429-0.304-0.711-0.257zM21.949 6.922c0 0.255 0.062 0.508 0.229 0.925 0.037 0.078 0.066 0.169 0.085 0.263l0.001 0.007c-0.009 0.060-0.178 0.113-0.508 0.113-0.291 0.020-0.319 0.025-0.458 0.060-0.073 0.019-0.081 0.026-0.081 0.077 0.006 0.19 0.134 0.348 0.308 0.399l0.003 0.001c0.293 0.085 0.79-0.070 1.066-0.323 0.164-0.158 0.161-0.147 0.028-0.368-0.108-0.178-0.338-0.614-0.564-1.108-0.051-0.113-0.098-0.203-0.105-0.203s-0.015 0.065-0.015 0.144zM17.154 6.888c-0.045 0.265 0.122 0.79 0.422 1.291 0.068 0.113 0.113 0.212 0.109 0.226-0.014 0.097-0.302 0.178-0.548 0.153l-0.387-0.059c-0.338-0.060-0.383-0.060-0.411 0.006-0.053 0.127-0.056 0.176-0.026 0.252 0.082 0.21 0.417 0.336 0.902 0.336 0.392 0 0.545-0.051 0.767-0.255 0.093-0.087 0.118-0.113 0.142-0.21 0.034-0.116 0.026-0.232-0.023-0.338-0.017-0.034-0.126-0.158-0.24-0.277-0.226-0.248-0.288-0.33-0.474-0.767l-0.167-0.379-0.043-0.082-0.014 0.081zM19.581 7.23c-0.028 0.015-0.034 0.045-0.034 0.156 0 0.514 0.299 1.19 0.823 1.869l0.775 0.929c0.187 0.226 0.252 0.395 0.203 0.594-0.030 0.127-0.105 0.276-0.147 0.291-0.017 0.006-0.209 0.094-0.426 0.195l-0.882 0.361c-0.248 0.070-0.438 0.094-0.639 0.081-0.338-0.019-0.395-0.082-0.494-0.471l-0.059-0.229c0-0.003-0.007-0.008-0.019-0.008-0.032 0-0.111 0.18-0.132 0.308-0.039 0.221 0.039 0.5 0.192 0.677l0.065 0.076 0.282 0.006c0.767 0.019 1.473-0.21 2.337-0.752l0.28-0.176 0.032-0.13c0.027-0.108 0.054-0.195 0.085-0.28l-0.006 0.020c0.023-0.062 0.047-0.141 0.067-0.222l0.003-0.015c0.037-0.18 0.023-0.209-0.293-0.519-0.817-0.79-1.706-2.036-1.812-2.522-0.012-0.076-0.041-0.144-0.082-0.202l0.001 0.002c-0.049-0.060-0.071-0.065-0.122-0.036zM10.319 9.26c-0.18 0.062-0.316 0.209-0.387 0.422-0.045 0.132-0.042 0.139 0.039 0.065 0.113-0.109 0.153-0.13 0.259-0.13 0.053 0 0.104 0.008 0.109 0.019-0.005 0.063-0.019 0.122-0.041 0.176l0.001-0.004c-0.042 0.13-0.052 0.199-0.060 0.411-0.009 0.293 0.020 0.485 0.107 0.677 0.111 0.231 0.108 0.235 0.118-0.255 0.009-0.383 0.015-0.454 0.051-0.564 0.065-0.203 0.192-0.291 0.338-0.24 0.094 0.032 0.167 0.126 0.293 0.387 0.064 0.13 0.142 0.265 0.176 0.305l0.060 0.070 0.014-0.13c0.059-0.539-0.248-1.049-0.718-1.193-0.056-0.022-0.121-0.035-0.19-0.035-0.066 0-0.129 0.012-0.187 0.034l0.004-0.001zM21.846 11.863c-0.715 0.379-0.964 0.477-1.368 0.541-0.068 0.006-0.13 0.024-0.187 0.052l0.003-0.001c-0.017 0.028-0.020 0.48-0.003 0.582 0.011 0.070 0.015 0.071 0.090 0.071 0.127 0 0.409-0.068 0.582-0.135 0.433-0.176 0.859-0.602 1.165-1.164l0.062-0.113c-0.002 0-0.158 0.081-0.344 0.18zM17.193 12.23c0.13 0.24 0.474 0.503 0.862 0.654 0.467 0.184 1.201 0.298 1.773 0.28l0.178-0.006-0.003-0.254-0.019-0.338-0.017-0.085-0.645-0.011c-1.062-0.019-1.608-0.113-2.147-0.338-0.030-0.014-0.028-0.002 0.019 0.087zM16.794 12.794c-0.096 0.028-0.108 0.076-0.045 0.158 0.048 0.061 0.098 0.116 0.152 0.166l0.001 0.001c0.053 0.051 0.173 0.201 0.266 0.332l0.285 0.376c0.332 0.388 0.699 0.522 1.428 0.522 0.598 0 1.148-0.111 1.337-0.271 0.059-0.049 0.192-0.226 0.192-0.268 0-0.009-0.305-0.014-0.681-0.009-1.122 0.014-1.579-0.051-2.049-0.276-0.311-0.153-0.53-0.361-0.654-0.625-0.054-0.116-0.065-0.127-0.116-0.113-0.042 0.002-0.082 0.009-0.12 0.020l0.003-0.001zM19.196 19.114c-0.113 0.068-0.127 0.232-0.032 0.338 0.139 0.139 0.361 0.037 0.361-0.165 0-0.056-0.014-0.085-0.064-0.135-0.076-0.076-0.173-0.086-0.266-0.028zM19.481 20.107c-0.091 0.021-0.159 0.102-0.159 0.198 0 0.006 0 0.011 0.001 0.017l-0-0.001c0 0.059 0.014 0.086 0.064 0.138s0.077 0.064 0.15 0.064 0.098-0.011 0.147-0.054c0.054-0.049 0.062-0.065 0.062-0.15s-0.007-0.104-0.056-0.15c-0.059-0.056-0.142-0.082-0.206-0.062zM24.144 22.775c-0.451 0.082-0.837 0.271-1.051 0.526l-0.079 0.094h0.088c0.197 0 0.404-0.086 0.854-0.356 0.271-0.164 0.433-0.248 0.545-0.282 0.094-0.030-0.156-0.017-0.356 0.019zM23.755 23.562c-0.131 0.025-0.285 0.086-0.353 0.141-0.047 0.039-0.053 0.051-0.028 0.068 0.042 0.028 0.662 0.006 1.097-0.039l0.395-0.039c0.062-0.003-0.158-0.068-0.347-0.099-0.226-0.037-0.629-0.054-0.764-0.030zM23.586 24.352c-0.105 0.028-0.24 0.090-0.257 0.118s0.265 0.042 1.030 0.053l0.654-0.019c-0.088-0.042-0.417-0.12-0.635-0.152-0.119-0.017-0.256-0.027-0.396-0.027s-0.277 0.010-0.411 0.029l0.015-0.002z"></path>
</svg>
