<!-- Generated by IcoMoon.io -->
<svg version="1.1" xmlns="http://www.w3.org/2000/svg" width="32" height="32" viewBox="0 0 32 32">
<title>jenkins</title>
<path d="M16.392 3c-0.627 0.053-1.097 0.14-1.54 0.283l-1.073 0.406c-0.173 0.076-0.928 0.5-1.406 0.77-0.834 0.488-1.265 0.952-1.466 1.582-0.040 0.123-0.057 0.153-0.097 0.175-0.206 0.116-0.378 0.27-0.51 0.454l-0.003 0.005c-0.195 0.285-0.335 0.726-0.38 1.198l-0.035 0.372-0.195 0.17c-0.57 0.513-1.075 1.079-1.513 1.695l-0.021 0.032c-0.848 1.209-1.443 2.657-1.673 4.223l-0.007 0.054c-0.060 0.378-0.094 0.813-0.094 1.257 0 0.059 0.001 0.117 0.002 0.175l-0-0.009c0 0.623 0.017 0.878 0.092 1.423 0.162 1.097 0.476 2.087 0.923 3l-0.026-0.060c0.52 1.080 1.288 2.118 2.147 2.9l0.245 0.225 0.020 0.313 0.035 0.77c0.018 0.582 0.042 0.682 0.186 0.805 0.083 0.070 0.216 0.136 0.488 0.238l0.774 0.354c0.802 0.4 1.062 0.496 1.46 0.592 0.2 0.056 0.43 0.088 0.668 0.088 0.014 0 0.029-0 0.043-0l-0.002 0 0.35 0.010 0.113 0.4 0.47 1.556 0.298 0.8c0.025 0.027 0.27 0.1 0.53 0.158 0.93 0.2 2.38 0.238 3.766 0.072 0.47-0.057 0.792-0.233 0.907-0.494 0.030-0.067 0.032-0.1 0.017-0.2l-0.027-0.323-0.012-0.2 0.148-0.028c0.484-0.093 0.726-0.22 0.832-0.436 0.035-0.073 0.045-0.12 0.052-0.26 0.012-0.215-0.008-0.353-0.113-0.82-0.142-0.614-0.17-0.847-0.133-1.068l0.020-0.12 0.105-0.035c0.225-0.075 0.325-0.186 0.325-0.364v-0.086l0.105-0.048c0.25-0.113 0.524-0.165 0.927-0.178l0.3-0.008 0.047 0.082 0.1 0.153c0.062 0.072 0.065 0.073 0.236 0.103 0.523 0.1 1.060 0.1 1.47 0.005 0.318-0.067 0.424-0.12 0.586-0.293 0.3-0.325 0.5-0.95 0.508-1.536 0-0.26-0.015-0.35-0.12-0.716-0.146-0.507-0.336-1.023-0.478-1.298-0.088-0.169-0.215-0.308-0.369-0.407l-0.004-0.003c-0.053-0.030-0.096-0.062-0.096-0.070s0.038-0.080 0.085-0.163c0.153-0.275 0.324-0.628 0.48-0.99l0.033-0.085c0.4-0.97 0.612-1.932 0.702-3.034 0.012-0.216 0.019-0.469 0.019-0.724s-0.007-0.508-0.020-0.759l0.002 0.035c-0.088-1.093-0.3-2.060-0.702-3.033-0.222-0.52-0.433-0.942-0.665-1.351l0.034 0.066c-0.428-0.719-0.907-1.341-1.45-1.899l0.002 0.002-0.26-0.266-0.030-0.33c-0.1-1.155-0.373-2.098-0.782-2.724-0.298-0.456-0.913-1.115-1.466-1.57-0.657-0.54-1.453-0.845-2.57-0.985-0.198-0.025-1.13-0.047-1.315-0.032zM17.649 3.628c0.687 0.113 1.304 0.314 1.874 0.596l-0.039-0.017c0.364 0.169 0.672 0.398 0.925 0.679l0.002 0.002c0.228 0.236 0.812 0.963 0.845 1.053 0.012 0.028 0.005 0.030-0.067 0.020-0.304-0.040-0.454-0.028-0.63 0.055-0.215 0.1-0.336 0.27-0.345 0.48-0.002 0.038 0.002 0.075 0.007 0.080s0.037-0.010 0.072-0.033c0.13-0.1 0.233-0.117 0.45-0.117 0.018-0.001 0.039-0.002 0.061-0.002 0.107 0 0.209 0.021 0.303 0.059l-0.005-0.002c0.226 0.075 0.419 0.198 0.574 0.359l0 0c0.32 0.32 0.43 0.7 0.5 1.706 0.030 0.486 0.040 1.46 0.018 1.764-0.095 1.343-0.45 2.588-1.008 3.534-0.245 0.396-0.461 0.716-0.688 1.028l0.032-0.046c-0.148 0.179-0.319 0.333-0.509 0.458l-0.009 0.005c-0.6 0.4-1.233 0.646-1.824 0.74-0.24 0.037-0.7 0.037-0.905 0-0.228-0.040-0.567-0.16-0.874-0.3-0.8-0.4-1.338-0.9-2.2-2.122l-0.106-0.15 0.010 0.083c0.050 0.373 0.268 0.755 0.707 1.256 0.507 0.576 0.88 0.915 1.2 1.095 0.060 0.033 0.12 0.072 0.133 0.085 0.022 0.020 0.013 0.022-0.058 0.012l-0.3-0.020c-0.338-0.017-0.562 0.053-0.674 0.208l-0.050 0.070-0.175-0.010c-0.97-0.055-1.557-0.235-1.907-0.586-0.38-0.38-0.927-1.646-1.047-2.428-0.040-0.253-0.030-0.278 0.16-0.484 0.2-0.226 0.246-0.3 0.196-0.454-0.018-0.052-0.022-0.053-0.093-0.043-0.097 0.013-0.15 0.042-0.33 0.178-0.082 0.062-0.17 0.122-0.2 0.13-0.155 0.060-0.4 0.050-0.6-0.023-0.448-0.18-0.852-0.767-0.973-1.408-0.035-0.18-0.035-0.506 0-0.647 0.080-0.325 0.293-0.617 0.566-0.777 0.198-0.117 0.47-0.17 0.706-0.142 0.376 0.048 0.584 0.3 0.737 0.895l0.055 0.213 0.18-0.003c0.298-0.003 0.54-0.083 0.63-0.208 0.033-0.043 0.033-0.048 0.005-0.233l-0.1-0.47c-0.2-0.75-0.188-0.87 0.032-1.922 0.102-0.486 0.128-0.686 0.13-0.94 0-0.013 0.001-0.029 0.001-0.045 0-0.207-0.035-0.406-0.099-0.591l0.004 0.013c-0.018-0.048-0.033-0.103-0.041-0.161l-0.001-0.004c0-0.055 0.1-0.258 0.25-0.454 0.251-0.31 0.524-0.583 0.822-0.827l0.010-0.008c0.281-0.213 0.602-0.428 0.934-0.624l0.048-0.026c0.87-0.493 1.176-0.58 1.988-0.567 0.344 0.005 0.46 0.013 0.682 0.048zM14.321 4.088c0.088 0.070 0.020 0.193-0.135 0.243-0.070 0.025-0.13 0.064-0.178 0.115l-0 0c-0.052 0.048-0.17 0.146-0.265 0.216-0.26 0.196-0.348 0.295-0.544 0.62-0.213 0.353-0.316 0.5-0.413 0.55s-0.188 0.075-0.378 0.052c-0.2-0.027-0.303-0.010-0.662 0.108-0.313 0.1-0.43 0.125-0.43 0.088 0-0.013 0.037-0.087 0.083-0.16 0.32-0.54 0.924-1.047 1.722-1.448 0.217-0.115 0.475-0.227 0.743-0.318l0.039-0.012c0.28-0.098 0.348-0.106 0.416-0.055zM12.617 6.288c0.065 0.17 0.087 0.304 0.095 0.576 0.008 0.316-0.007 0.496-0.088 1.018-0.1 0.586-0.098 0.667-0.098 0.965-0.001 0.024-0.002 0.053-0.002 0.081 0 0.229 0.040 0.449 0.114 0.653l-0.004-0.013c0.075 0.256 0.098 0.454 0.065 0.536-0.023 0.056-0.077 0.1-0.168 0.108l-0.060 0.012-0.012-0.113c-0.034-0.31-0.191-0.579-0.421-0.758l-0.002-0.002c-0.243-0.194-0.504-0.283-0.8-0.283-0.213 0-0.363 0.033-0.572 0.13-0.075 0.033-0.138 0.058-0.143 0.053-0.022-0.022-0.047-0.47-0.048-0.845 0-0.34 0.005-0.458 0.030-0.6 0.082-0.444 0.225-0.7 0.547-0.97 0.338-0.283 0.712-0.464 1.138-0.553 0.099-0.028 0.214-0.046 0.332-0.050l0.003-0c0.080-0.002 0.088 0.002 0.105 0.043zM9.947 9.016c0.017 0.015 0.027 0.058 0.028 0.115 0 0.050 0.007 0.1 0.015 0.1s0.012 0.037 0.012 0.083-0.007 0.083-0.015 0.083-0.010 0.018-0.007 0.038-0.003 0.052-0.018 0.067-0.027 0.033-0.027 0.043-0.007 0.018-0.017 0.018-0.017 0.010-0.017 0.023-0.012 0.027-0.025 0.033-0.025 0.020-0.025 0.033-0.010 0.032-0.023 0.038c-0.059 0.118-0.108 0.256-0.141 0.4l-0.002 0.013c0 0.013-0.005 0.025-0.012 0.025s-0.013 0.025-0.015 0.053c-0.005 0.099-0.013 0.187-0.024 0.275l0.002-0.020c-0.052 0.486 0.083 1.158 0.334 1.664 0.288 0.578 0.782 0.983 1.336 1.097l0.1 0.022 0.005 0.065c0.042 0.417 0.177 0.795 0.384 1.124l-0.006-0.011c0.208 0.326 0.273 0.52 0.225 0.666-0.035 0.108-0.13 0.178-0.6 0.44l-1.98 1.196c-0.1 0.065-0.3 0.188-0.464 0.27-0.426 0.22-0.557 0.353-0.586 0.596-0.020 0.17 0.065 0.512 0.253 1.023l0.206 0.576 0.255 0.682c0.162 0.372 0.298 0.807 0.386 1.26l0.007 0.041c0.073 0.348 0.2 1.2 0.2 1.33 0 0.095-0.473-0.418-0.87-0.944-0.817-1.072-1.413-2.356-1.697-3.754l-0.010-0.060c-0.070-0.354-0.123-0.717-0.112-0.764 0.007-0.025 0.003-0.040-0.008-0.040s-0.017-0.025-0.010-0.083 0.003-0.083-0.008-0.083-0.015-0.035-0.007-0.108 0.005-0.108-0.008-0.108-0.015-0.043-0.007-0.158 0.007-0.158-0.007-0.158-0.018-0.1-0.018-0.358 0.005-0.358 0.018-0.358 0.015-0.048 0.007-0.158c-0.008-0.115-0.007-0.158 0.007-0.158s0.017-0.032 0.008-0.108-0.005-0.108 0.007-0.108 0.015-0.028 0.008-0.083-0.003-0.083 0.007-0.083 0.015-0.030 0.008-0.075 0-0.075 0.008-0.075 0.012-0.027 0.008-0.058 0-0.058 0.008-0.058 0.012-0.027 0.008-0.058 0-0.058 0.008-0.058 0.013-0.023 0.008-0.050 0-0.050 0.007-0.050 0.017-0.043 0.018-0.095 0.010-0.098 0.018-0.1 0.012-0.023 0.007-0.045 0-0.042 0.007-0.042 0.017-0.035 0.017-0.078 0.010-0.082 0.020-0.085 0.015-0.015 0.010-0.027c0.083-0.441 0.196-0.828 0.343-1.199l-0.015 0.044c0.008-0.003 0.015-0.022 0.015-0.040 0-0.048 0.068-0.23 0.085-0.23 0.008 0 0.015-0.018 0.015-0.042s0.008-0.042 0.017-0.042 0.017-0.018 0.017-0.042 0.008-0.042 0.017-0.042 0.017-0.018 0.017-0.040 0.012-0.052 0.025-0.067 0.025-0.033 0.025-0.045c0-0.035 0.040-0.13 0.053-0.13 0.007 0 0.013-0.012 0.013-0.025 0-0.032 0.087-0.213 0.108-0.228 0.010-0.007 0.035-0.052 0.057-0.1 0.1-0.23 0.125-0.278 0.147-0.286 0.012-0.005 0.022-0.025 0.022-0.043s0.015-0.047 0.033-0.062 0.033-0.042 0.033-0.058 0.013-0.042 0.032-0.058 0.035-0.050 0.042-0.076 0.018-0.045 0.027-0.045 0.017-0.012 0.017-0.025 0.007-0.025 0.015-0.025 0.020-0.018 0.025-0.042 0.018-0.042 0.027-0.042 0.017-0.012 0.017-0.025 0.007-0.025 0.015-0.025 0.020-0.018 0.025-0.042 0.018-0.042 0.027-0.042 0.017-0.012 0.017-0.025 0.008-0.025 0.017-0.025 0.017-0.012 0.017-0.025 0.008-0.025 0.017-0.025 0.017-0.012 0.017-0.025 0.008-0.025 0.017-0.025 0.017-0.012 0.017-0.025 0.012-0.030 0.025-0.035 0.025-0.020 0.025-0.033 0.008-0.023 0.017-0.023 0.017-0.010 0.017-0.023 0.012-0.027 0.025-0.033 0.025-0.020 0.025-0.035 0.008-0.025 0.017-0.025 0.017-0.010 0.017-0.023 0.012-0.027 0.025-0.033 0.025-0.020 0.025-0.033 0.012-0.027 0.025-0.033 0.025-0.020 0.025-0.033 0.012-0.027 0.025-0.033 0.025-0.020 0.025-0.033 0.015-0.033 0.033-0.043 0.033-0.027 0.033-0.038 0.015-0.030 0.033-0.042 0.033-0.030 0.033-0.042 0.015-0.030 0.033-0.042 0.033-0.030 0.033-0.042 0.023-0.038 0.050-0.058 0.050-0.046 0.050-0.058 0.027-0.042 0.058-0.067 0.058-0.055 0.058-0.065 0.045-0.060 0.1-0.108c0.038-0.031 0.071-0.066 0.099-0.105l0.001-0.002c0.104-0.128 0.217-0.242 0.339-0.345l0.004-0.003c0.012 0 0.023-0.015 0.028-0.033 0.010-0.040 0.038-0.043 0.073-0.007zM22.807 9.733c1.236 1.444 1.98 3.175 2.198 5.13 0.024 0.316 0.037 0.684 0.037 1.056 0 0.211-0.004 0.422-0.013 0.631l0.001-0.030c-0.083 1.198-0.383 2.336-0.895 3.418l-0.4 0.76-0.043 0.068-0.16 0.022c-0.416 0.052-1.018 0.255-1.554 0.524-0.16 0.080-0.183 0.087-0.183 0.050 0-0.013 0.055-0.176 0.123-0.36l0.777-2.343 0.3-0.965c0.18-0.577 0.22-0.75 0.2-0.965-0.010-0.323-0.1-0.434-1.243-1.408-0.314-0.27-0.564-0.518-0.6-0.607-0.065-0.125-0.005-0.3 0.226-0.702 0.15-0.241 0.279-0.518 0.373-0.81l0.007-0.027c0.25-0.75 0.43-1.57 0.524-2.395l0.076-1.007c0-0.175 0.015-0.266 0.040-0.266 0.010 0 0.108 0.103 0.216 0.228zM21.043 15.28c0.055 0.047 0.3 0.27 0.524 0.5l0.607 0.556c0.268 0.2 0.398 0.34 0.46 0.468 0.053 0.106 0.053 0.108 0.043 0.294-0.012 0.193-0.070 0.488-0.203 1.040-0.17 0.7-0.45 1.53-0.86 2.558-0.268 0.67-0.328 0.76-0.534 0.82-0.17 0.048-0.206 0.053-0.652 0.070-0.4 0.017-0.55 0.037-0.674 0.1-0.078 0.040-0.1 0.042-0.1 0.007s0.118-0.236 0.75-1.27l0.92-1.543c0.025-0.045 0.023-0.053-0.005-0.098-0.046-0.063-0.091-0.119-0.139-0.171l0.001 0.001c-0.108-0.122-0.162-0.208-0.162-0.26 0.018-0.078 0.037-0.144 0.061-0.208l-0.004 0.012c0.235-0.7 0.115-1.82-0.233-2.207-0.076-0.085-0.2-0.168-0.27-0.168-0.071-0.018-0.13-0.060-0.169-0.117l-0.001-0.001c0-0.017 0.073-0.085 0.17-0.16 0.090-0.069 0.17-0.14 0.245-0.216l0-0c0.028-0.034 0.061-0.062 0.098-0.084l0.002-0.001c0.013 0 0.070 0.037 0.125 0.083zM12.377 15.78l0.293 0.32 0.3 0.356c0.17 0.195 0.552 0.424 1.4 0.84l0.524 0.258 0.022 0.135c0.134 0.638 0.298 1.188 0.502 1.717l-0.025-0.075c0.158 0.336 0.348 0.434 0.637 0.33l0.135-0.042c0.058 0-0.013 0.16-0.156 0.35-0.188 0.25-0.228 0.4-0.138 0.546 0.048 0.073 0.198 0.178 0.404 0.283l1.42 0.677 0.353 0.166c0 0.015-0.073 0.023-0.26 0.032l-3.523 0.278-0.606 0.053c-0.038-0.023-0.083-0.16-0.103-0.308-0.028-0.23-0.020-0.958 0.017-1.428l0.033-0.567c0-0.42-0.2-0.416-0.278 0.005-0.027 0.155-0.023 0.276 0.028 0.835 0.037 0.378 0.043 0.835 0.017 1.008-0.015 0.087-0.033 0.161-0.055 0.233l0.003-0.013c-0.030 0.105-0.037 0.113-0.078 0.113-0.068-0.002-0.173-0.055-0.354-0.183-0.215-0.15-0.298-0.193-0.316-0.163-0.040 0.062-0.002 0.166 0.107 0.293 0.105 0.12 0.12 0.225 0.046 0.308-0.038 0.047-0.070 0.058-0.205 0.087-0.218 0.047-0.313 0.116-0.313 0.233 0 0.040 0.003 0.042 0.105 0.042l0.423-0.020c0.32-0.018 0.477-0.010 0.64 0.037l0.060 0.017 0.012 0.138 0.3 2.544 0.098 0.727c0 0.040-0.418 0-0.765-0.073-0.56-0.118-1.015-0.305-1.955-0.8l-0.677-0.35-0.13-0.063v-0.15c-0.023-0.701-0.072-1.355-0.145-2.001l0.010 0.112c-0.2-1.74-0.584-3.33-1.132-4.58l-0.115-0.283c0-0.013 0.155-0.14 0.344-0.28 1.102-0.827 1.845-1.3 2.643-1.65 0.138-0.062 0.275-0.1 0.305-0.113 0.042 0 0.073 0.017 0.132 0.070zM20.531 16.3c0.17 0.087 0.3 0.476 0.34 1.1 0.027 0.34-0.022 0.674-0.116 0.802l-0.030 0.038-0.273-0.018c-0.44-0.028-1-0.1-1.263-0.188l-0.073-0.020 0.002-0.258 0.003-0.27c0-0.017 0.115-0.073 0.175-0.087s0.253-0.032 0.313-0.030c0.025 0.002 0.045-0.005 0.045-0.012 0-0.017-0.18-0.070-0.275-0.078l-0.088-0.015c-0.010-0.003-0.055 0-0.098 0.007-0.103 0.020-0.128 0.003-0.155-0.093-0.012-0.043-0.037-0.108-0.053-0.145-0.027-0.053-0.028-0.067-0.010-0.078 0.012-0.008 0.028-0.015 0.037-0.015s0.145-0.086 0.308-0.195c0.488-0.32 0.697-0.436 0.854-0.462l0.057-0.013c0.022-0.002 0.047-0.003 0.072-0.003 0.081 0 0.16 0.011 0.235 0.032l-0.006-0.001zM19.271 16.301c0 0.013-0.015 0.032-0.032 0.042s-0.17 0.125-0.336 0.258l-0.305 0.24-0.093 0.003c-0.356 0.012-0.627-0.032-0.837-0.133-0.16-0.080-0.328-0.195-0.328-0.228s0.075-0.048 0.13-0.027c0.117 0.039 0.251 0.064 0.391 0.068l0.002 0c0.16 0 0.423-0.042 0.75-0.12l0.63-0.128c0.015-0.002 0.028 0.010 0.028 0.023zM13.785 16.383c0.12 0.040 0.334 0.072 0.68 0.1 0.473 0.038 0.463 0.037 0.463 0.095-0.007 0.066-0.018 0.126-0.034 0.184l0.002-0.008-0.045 0.215c-0.010 0.082-0.015 0.088-0.055 0.088-0.076 0-0.373-0.080-0.56-0.148-0.45-0.17-0.72-0.38-0.682-0.53 0.020-0.078 0.038-0.088 0.097-0.053 0.037 0.020 0.081 0.039 0.126 0.055l0.007 0.002zM15.822 16.441c0.018 0.008 0.037 0.013 0.042 0.010 0.023-0.023 0.677 0.193 0.904 0.3l0.626 0.335c0.109 0.070 0.237 0.122 0.375 0.147l0.006 0.001 0.060 0.005c0.010 0.002 0.018 0.033 0.020 0.068 0.003 0.062-0.002 0.068-0.073 0.108s-0.228 0.095-0.253 0.1c-0.012-0.002-0.060 0.010-0.25 0.063-0.088 0.025-0.108 0.067-0.023 0.050 0.097-0.020 0.582 0.117 0.632 0.178 0.010 0.012 0.013 0.085 0.008 0.186l-0.010 0.168-0.068 0.048-0.35 0.285-0.416 0.33c-0.3 0.223-0.968 0.476-1.24 0.476-0.080 0-0.098-0.007-0.138-0.048-0.027-0.028-0.050-0.067-0.053-0.088-0.051-0.171-0.099-0.305-0.152-0.437l0.012 0.033c-0.075-0.174-0.147-0.384-0.202-0.6l-0.006-0.030-0.017-0.095c-0.038-0.2-0.057-0.686-0.033-0.948l0.012-0.15c0.010-0.123 0.105-0.353 0.173-0.416s0.153-0.093 0.275-0.1c0 0 0.001 0 0.001 0 0.051 0 0.101 0.008 0.147 0.023l-0.003-0.001zM18.569 17.158c0.1 0.040 0.1 0.062 0.16 0.17 0.028 0.061 0.044 0.133 0.044 0.208 0 0.081-0.019 0.158-0.053 0.226l0.001-0.003c-0.067 0.13-0.163 0.18-0.338 0.18-0.203 0-0.198 0.003-0.25-0.24-0.027-0.115-0.042-0.218-0.037-0.226s0.002-0.017-0.007-0.017-0.018-0.042-0.018-0.105c0-0.097 0.003-0.105 0.047-0.127 0.2-0.105 0.324-0.12 0.45-0.068zM18.932 18.205c0.079 0.042 0.145 0.083 0.208 0.129l-0.005-0.004c0.165 0.115 0.3 0.175 0.4 0.188l0.085 0.010v0.1c-0.002 0.104-0.008 0.203-0.018 0.3l0.001-0.015-0.033 0.592c-0.025 0.567-0.053 0.845-0.135 1.348-0.035 0.223-0.088 0.408-0.116 0.413s-0.225-0.388-0.506-1.037c-0.354-0.817-0.552-1.193-0.8-1.527-0.060-0.082-0.106-0.158-0.103-0.17 0.027-0.047 0.056-0.088 0.089-0.126l-0.001 0.001 0.083-0.102 0.075 0.012c0.123 0.018 0.173 0.010 0.353-0.068 0.196-0.085 0.306-0.096 0.423-0.043zM20.478 18.498c0.143 0.041 0.266 0.109 0.37 0.199l-0.001-0.001c0.1 0.088 0.205 0.22 0.205 0.26 0 0.033-0.496 0.895-0.8 1.374-0.28 0.458-0.666 1.008-0.717 1.028-0.033 0.013-0.030-0.010 0.027-0.228 0.12-0.468 0.216-1.157 0.275-1.96l0.025-0.48c0-0.135 0.002-0.138 0.047-0.155 0.176-0.068 0.393-0.083 0.56-0.040zM17.71 18.918c0.36 0.508 0.58 0.935 1.038 2.022l0.173 0.438c0 0.040-0.048 0.030-0.336-0.068-0.516-0.178-0.995-0.38-1.563-0.664l-0.78-0.422c0-0.007 0.015-0.062 0.035-0.12 0.1-0.278 0.283-0.547 0.554-0.776 0.16-0.135 0.734-0.536 0.77-0.537 0.010 0 0.060 0.058 0.1 0.128zM23.987 21.301c0.17 0.083 0.344 0.255 0.426 0.424 0.105 0.216 0.216 0.592 0.378 1.258 0.067 0.276 0.075 0.334 0.083 0.566 0.007 0.225 0.003 0.276-0.027 0.404-0.087 0.366-0.296 0.647-0.58 0.78s-0.98 0.185-1.338 0.103c-0.092-0.020-0.115-0.032-0.115-0.057 0-0.053 0.213-0.12 0.612-0.193l0.478-0.108c0.008-0.013-0.023-0.023-0.2-0.067-0.105-0.027-0.636-0.027-0.94-0.002l-0.494 0.030-0.268 0.012-0.010-0.1-0.062-0.606c-0.072-0.732-0.146-1.208-0.24-1.54l-0.027-0.1 0.072-0.062c0.138-0.118 0.456-0.26 1.027-0.453 0.323-0.1 0.53-0.195 0.66-0.27 0.076-0.064 0.175-0.103 0.283-0.103 0.018 0 0.035 0.001 0.052 0.003l-0.002-0c0.085 0.002 0.164 0.024 0.234 0.061l-0.003-0.001zM21.217 22.161c0.063 0.038 0.22 0.463 0.3 0.782 0.087 0.421 0.137 0.906 0.138 1.402v0.001l-0.005 0.17-0.216 0.073c-0.090 0.033-0.197 0.062-0.307 0.081l-0.012 0.002-0.102 0.012-0.010-0.072-0.035-0.33-0.127-0.9-0.165-1.2c0-0.038 0.007-0.040 0.13-0.047 0.17-0.010 0.394-0.002 0.42 0.013zM17.864 22.169c0.38 0.023 1.067 0.102 1.102 0.125 0.026 0.151 0.051 0.348 0.068 0.547l0.002 0.027 0.060 1.123 0.083 1.198 0.075 1.423 0.143 1.92 0.037 0.25c-0.017 0.010-0.285 0.078-0.446 0.115-0.478 0.105-0.945 0.15-1.523 0.15-0.67-0.002-1.18-0.052-1.8-0.173l-0.74-0.186c-0.003-0.003-0.053-0.163-0.113-0.356-0.428-1.38-0.727-2.737-0.96-4.34l-0.173-1.473c0.018-0.017 0.88-0.156 1.27-0.208l1.672-0.146c0.162-0.005 0.352-0.008 0.542-0.008 0.242 0 0.483 0.005 0.722 0.014l-0.034-0.001zM20.122 22.277c0.1 0.334 0.15 0.82 0.23 1.864l0.065 0.782c0.010 0.087 0.010 0.136-0.002 0.143-0.164 0.039-0.435 0.089-0.709 0.133l-0.091 0.012c-0.125 0.020-0.188 0.023-0.188 0.013s-0.012-0.165-0.025-0.343l-0.087-1.877v-0.702c0.048-0.009 0.086-0.019 0.123-0.030l-0.010 0.003c0.125-0.032 0.353-0.053 0.537-0.050 0.133 0.002 0.133 0.002 0.146 0.052zM20.079 25.607c0.030 0.008 0.038 0.027 0.047 0.1 0.042 0.253 0.078 0.434 0.118 0.614l-0.015-0.078c0.125 0.596 0.158 0.8 0.168 1.098l0.010 0.25-0.2 0.062-0.273 0.078c-0.1 0.018-0.374 0.043-0.374 0.033-0.022-0.391-0.034-0.581-0.048-0.77l0.013 0.223-0.043-1.037-0.010-0.494h0.053c0.030 0 0.127-0.018 0.215-0.040l0.2-0.048 0.066-0.008c0.010-0.002 0.033 0.002 0.052 0.007zM15.9 6.154c-0.14 0.023-0.336 0.1-0.524 0.236-0.202 0.148-0.373 0.322-0.515 0.519l-0.005 0.007c-0.143 0.218-0.236 0.5-0.2 0.66 0.012 0.067 0.088 0.165 0.128 0.165 0.012 0 0.052-0.062 0.088-0.138 0.142-0.3 0.358-0.57 0.556-0.716 0.115-0.085 0.295-0.166 0.446-0.203 0.095-0.023 0.167-0.027 0.358-0.020l0.276 0.020c0.032 0.010 0.040 0.003 0.062-0.048 0.040-0.093 0.032-0.163-0.028-0.253-0.117-0.173-0.38-0.27-0.63-0.228zM21.275 7.951c0 0.226 0.055 0.45 0.203 0.82 0.033 0.069 0.059 0.149 0.075 0.234l0.001 0.006c-0.008 0.053-0.158 0.1-0.45 0.1-0.258 0.018-0.283 0.022-0.406 0.053-0.065 0.017-0.072 0.023-0.072 0.068 0.005 0.168 0.119 0.308 0.273 0.353l0.003 0.001c0.26 0.075 0.7-0.062 0.945-0.286 0.145-0.14 0.143-0.13 0.025-0.326-0.096-0.158-0.3-0.544-0.5-0.982-0.045-0.1-0.087-0.18-0.093-0.18s-0.013 0.058-0.013 0.128zM17.023 7.921c-0.040 0.235 0.108 0.7 0.374 1.145 0.060 0.1 0.1 0.188 0.097 0.2-0.012 0.086-0.268 0.158-0.486 0.136l-0.343-0.052c-0.3-0.053-0.34-0.053-0.364 0.005-0.047 0.113-0.050 0.156-0.023 0.223 0.073 0.186 0.37 0.298 0.8 0.298 0.348 0 0.483-0.045 0.68-0.226 0.082-0.077 0.105-0.1 0.126-0.186 0.030-0.103 0.023-0.206-0.020-0.3-0.015-0.030-0.112-0.14-0.213-0.246-0.2-0.22-0.255-0.293-0.42-0.68l-0.148-0.336-0.038-0.073-0.012 0.072zM19.175 8.224c-0.025 0.013-0.030 0.040-0.030 0.138 0 0.456 0.265 1.055 0.73 1.657l0.687 0.824c0.166 0.2 0.223 0.35 0.18 0.527-0.027 0.113-0.093 0.245-0.13 0.258-0.015 0.005-0.185 0.083-0.378 0.173l-0.782 0.32c-0.22 0.062-0.388 0.083-0.567 0.072-0.3-0.017-0.35-0.073-0.438-0.418l-0.052-0.203c0-0.003-0.006-0.007-0.017-0.007-0.028 0-0.098 0.16-0.117 0.273-0.035 0.196 0.035 0.443 0.17 0.6l0.058 0.067 0.25 0.005c0.68 0.017 1.306-0.186 2.072-0.667l0.248-0.156 0.028-0.115c0.024-0.096 0.048-0.173 0.076-0.249l-0.006 0.018c0.021-0.055 0.042-0.125 0.059-0.197l0.003-0.013c0.033-0.16 0.020-0.185-0.26-0.46-0.724-0.7-1.513-1.805-1.607-2.236-0.011-0.068-0.036-0.128-0.073-0.179l0.001 0.001c-0.043-0.053-0.063-0.058-0.108-0.032zM10.963 10.024c-0.16 0.055-0.28 0.185-0.343 0.374-0.040 0.117-0.037 0.123 0.035 0.058 0.1-0.097 0.136-0.115 0.23-0.115 0.047 0 0.092 0.007 0.097 0.017-0.004 0.056-0.017 0.108-0.036 0.156l0.001-0.003c-0.037 0.115-0.046 0.176-0.053 0.364-0.008 0.26 0.018 0.43 0.095 0.6 0.098 0.205 0.096 0.208 0.105-0.226 0.008-0.34 0.013-0.403 0.045-0.5 0.058-0.18 0.17-0.258 0.3-0.213 0.083 0.028 0.148 0.112 0.26 0.343 0.057 0.115 0.126 0.235 0.156 0.27l0.053 0.062 0.012-0.115c0.052-0.478-0.22-0.93-0.637-1.058-0.050-0.020-0.108-0.031-0.168-0.031-0.058 0-0.114 0.011-0.166 0.030l0.003-0.001zM21.183 12.332c-0.634 0.336-0.855 0.423-1.213 0.48-0.060 0.005-0.116 0.021-0.166 0.046l0.003-0.001c-0.015 0.025-0.018 0.426-0.003 0.516 0.010 0.062 0.013 0.063 0.080 0.063 0.113 0 0.363-0.060 0.516-0.12 0.384-0.156 0.762-0.534 1.033-1.032l0.055-0.1c-0.002 0-0.14 0.072-0.305 0.16zM17.058 12.657c0.115 0.213 0.42 0.446 0.764 0.58 0.414 0.163 1.065 0.264 1.572 0.248l0.158-0.005-0.003-0.225-0.017-0.3-0.015-0.075-0.572-0.010c-0.942-0.017-1.426-0.1-1.904-0.3-0.027-0.012-0.025-0.002 0.017 0.077zM16.704 13.157c-0.085 0.025-0.096 0.067-0.040 0.14 0.043 0.054 0.087 0.102 0.134 0.147l0.001 0.001c0.047 0.045 0.153 0.178 0.236 0.294l0.253 0.333c0.294 0.344 0.62 0.463 1.266 0.463 0.53 0 1.018-0.098 1.185-0.24 0.052-0.043 0.17-0.2 0.17-0.238 0-0.008-0.27-0.012-0.604-0.008-0.995 0.012-1.4-0.045-1.817-0.245-0.276-0.136-0.47-0.32-0.58-0.554-0.048-0.103-0.058-0.113-0.103-0.1-0.037 0.002-0.073 0.008-0.106 0.018l0.003-0.001zM18.834 18.761c-0.1 0.060-0.113 0.206-0.028 0.3 0.123 0.123 0.32 0.033 0.32-0.146 0-0.050-0.012-0.075-0.057-0.12-0.067-0.067-0.153-0.076-0.236-0.025zM19.086 19.641c-0.081 0.019-0.141 0.090-0.141 0.176 0 0.005 0 0.010 0.001 0.015l-0-0.001c0 0.052 0.012 0.076 0.057 0.122s0.068 0.057 0.133 0.057 0.087-0.010 0.13-0.048c0.048-0.043 0.055-0.058 0.055-0.133s-0.006-0.092-0.050-0.133c-0.052-0.050-0.126-0.073-0.183-0.055zM23.221 22.007c-0.4 0.073-0.742 0.24-0.932 0.466l-0.070 0.083h0.078c0.175 0 0.358-0.076 0.757-0.316 0.24-0.145 0.384-0.22 0.483-0.25 0.083-0.027-0.138-0.015-0.316 0.017zM22.876 22.705c-0.116 0.022-0.253 0.076-0.313 0.125-0.042 0.035-0.047 0.045-0.025 0.060 0.037 0.025 0.587 0.005 0.973-0.035l0.35-0.035c0.055-0.003-0.14-0.060-0.308-0.088-0.2-0.033-0.558-0.048-0.677-0.027zM22.726 23.405c-0.093 0.025-0.213 0.080-0.228 0.105s0.235 0.037 0.913 0.047l0.58-0.017c-0.078-0.037-0.37-0.106-0.563-0.135-0.105-0.015-0.227-0.024-0.351-0.024s-0.246 0.009-0.365 0.026l0.014-0.002z"></path>
</svg>
