<!-- Generated by IcoMoon.io -->
<svg version="1.1" xmlns="http://www.w3.org/2000/svg" width="32" height="32" viewBox="0 0 32 32">
<title>jira</title>
<path d="M9.54 3.121c-1.087 0-1.966 0.88-1.966 1.969 0 1.087 0.88 1.969 1.966 1.969s1.966-0.882 1.966-1.969c0-1.089-0.879-1.969-1.966-1.969zM22.461 3.121c-1.087 0-1.966 0.88-1.966 1.969 0 1.087 0.879 1.969 1.966 1.969 1.085 0 1.966-0.882 1.966-1.969 0-1.089-0.882-1.966-1.966-1.969zM16.001 1.324c-1.087 0-1.966 0.879-1.966 1.969 0 1.087 0.88 1.969 1.966 1.969s1.966-0.882 1.966-1.969c0-1.090-0.879-1.969-1.966-1.969zM26.516 8.52c-1.331 0.509-2.684 0.896-3.918 1.183-0.251 0.059-0.455 0.246-0.54 0.47-0.899 2.463-3.196 4.808-5.605 7.266-0.096 0.093-0.232 0.213-0.453 0.213s-0.354-0.118-0.453-0.213c-2.409-2.457-4.705-4.795-5.605-7.257-0.085-0.224-0.288-0.412-0.539-0.47-1.235-0.288-2.59-0.686-3.921-1.196-0.071-0.027-0.146-0.041-0.22-0.041-0.134 0-0.263 0.042-0.372 0.126-0.171 0.13-0.259 0.341-0.239 0.545 0.204 2.048 1.013 4.051 2.474 6.15 1.373 1.973 3.164 3.799 4.895 5.566 3.19 3.255 6.204 6.327 6.469 9.892 0.024 0.322 0.292 0.571 0.615 0.571h3.748c0.169 0 0.329-0.069 0.446-0.191s0.178-0.286 0.169-0.455c-0.118-2.383-1.014-4.77-2.742-7.294-0.362-0.53-0.749-1.044-1.155-1.549-0.164-0.205-0.095-0.461 0.031-0.589 0.125-0.128 0.249-0.255 0.376-0.384 1.732-1.766 3.522-3.592 4.895-5.566 1.46-2.099 2.27-4.089 2.474-6.137zM11.979 23.632c-0.088-0.093-0.219-0.188-0.438-0.188-0.28 0-0.446 0.194-0.508 0.29-1.577 2.399-2.391 4.663-2.503 6.94-0.008 0.168 0.053 0.334 0.17 0.457s0.28 0.192 0.448 0.192h3.742c0.322 0 0.593-0.251 0.617-0.573 0.082-1.097 0.423-2.196 1.045-3.351 0.215-0.4 0.048-0.776-0.076-0.935-0.617-0.803-1.372-1.657-2.496-2.83zM16.005 10.442c1.174 0 1.856-0.071 2.096-0.071 0.29 0 0.567 0.238 0.567 0.571 0 0.097-0.023 0.166-0.045 0.228-0.156 0.417-0.866 1.916-2.188 3.2-0.148 0.144-0.316 0.171-0.432 0.171h-0.001c-0.116 0-0.283-0.027-0.431-0.171-1.322-1.285-2.032-2.784-2.187-3.2-0.023-0.061-0.046-0.13-0.046-0.228 0-0.333 0.277-0.571 0.567-0.571 0.239 0 0.92 0.071 2.094 0.071h0.008z"></path>
</svg>
