<!-- Generated by IcoMoon.io -->
<svg version="1.1" xmlns="http://www.w3.org/2000/svg" width="32" height="32" viewBox="0 0 32 32">
<title>joomla</title>
<path d="M4.163 9.328c-0.678 2.267-0.124 4.823 1.666 6.613l6.674 6.667 2.959-2.96-6.674-6.667c-0.957-0.958-0.959-2.52 0.005-3.485 0.962-0.962 2.519-0.962 3.48-0.001l0.23 0.231 2.962-2.96-0.23-0.23c-1.689-1.689-4.058-2.279-6.223-1.771-0.311-1.907-1.965-3.361-3.961-3.363-2.216 0-4.011 1.798-4.012 4.014 0 1.912 1.335 3.51 3.125 3.915zM9.718 13.206l2.961 2.96 6.672-6.667c0.965-0.965 2.519-0.962 3.477-0.005 0.961 0.961 0.961 2.519-0.001 3.481l-0.229 0.229 2.959 2.962 0.231-0.231c1.77-1.772 2.333-4.294 1.687-6.543 1.966-0.259 3.484-1.942 3.484-3.979 0.001-2.217-1.796-4.014-4.012-4.014-2.029 0-3.706 1.505-3.975 3.458-2.257-0.663-4.798-0.102-6.581 1.679l-0.578 0.577-6.097 6.092zM27.55 23.374c0.529-2.178-0.058-4.573-1.76-6.275l-6.664-6.671-2.962 2.959 6.664 6.671c0.965 0.965 0.963 2.518 0.005 3.477-0.961 0.959-2.52 0.959-3.481-0.001l-0.227-0.227-2.959 2.962 0.227 0.227c1.803 1.802 4.383 2.353 6.659 1.653 0.371 1.834 1.992 3.213 3.934 3.213 2.215 0 4.012-1.795 4.012-4.012 0-2.025-1.499-3.7-3.449-3.974zM21.899 19.829l-2.959-2.962-6.667 6.671c-0.957 0.958-2.519 0.961-3.484-0.004-0.962-0.963-0.962-2.519-0.001-3.481l0.229-0.227-2.962-2.959-0.226 0.226c-1.722 1.721-2.301 4.149-1.742 6.348-1.77 0.417-3.086 2.009-3.086 3.906 0 2.216 1.796 4.012 4.014 4.012 1.907-0.001 3.502-1.33 3.911-3.113 2.188 0.543 4.598-0.039 6.308-1.748l6.664-6.67z"></path>
</svg>
