<!-- Generated by IcoMoon.io -->
<svg version="1.1" xmlns="http://www.w3.org/2000/svg" width="32" height="32" viewBox="0 0 32 32">
<title>jquery</title>
<path d="M16.308 26.696c-0.199-0.045-0.392-0.106-0.585-0.165l-0.698-0.23-0.077-0.027-0.498-0.186-0.14-0.053-0.538-0.223-0.106-0.048-0.585-0.275-0.351-0.178-0.234-0.122-0.564-0.316-0.548-0.335-0.537-0.359-0.125-0.088-0.368-0.266-0.163-0.124-0.332-0.261-0.149-0.133-0.415-0.35-0.045-0.037-0.436-0.396-0.122-0.117-0.312-0.306-0.122-0.122-0.404-0.427-0.389-0.444-0.102-0.12-0.279-0.346-0.102-0.128-0.323-0.431c-2.92-3.982-3.969-9.477-1.635-13.987l-2.068 2.624c-2.665 3.821-2.337 8.779-0.312 12.826 0.048 0.097 0.098 0.193 0.149 0.288l0.093 0.182c0.019 0.036 0.040 0.070 0.058 0.106 0.035 0.066 0.070 0.126 0.106 0.189l0.191 0.331 0.11 0.181c0.073 0.12 0.146 0.234 0.226 0.351 0.032 0.049 0.062 0.1 0.096 0.146l0.324 0.469c0.003 0.004 0.007 0.008 0.009 0.013 0.017 0.024 0.037 0.049 0.053 0.074 0.096 0.133 0.195 0.266 0.296 0.393l0.112 0.142c0.089 0.113 0.181 0.226 0.274 0.336l0.106 0.125 0.381 0.436c0.003 0.003 0.005 0.005 0.008 0.007s0.011 0.011 0.013 0.017c0.126 0.138 0.257 0.274 0.385 0.408l0.124 0.125c0.101 0.102 0.205 0.203 0.31 0.303l0.126 0.12c0.128 0.121 0.266 0.248 0.406 0.371l0.018 0.015c0.003 0.001 0.004 0.004 0.007 0.005 0.024 0.021 0.051 0.043 0.074 0.062l0.399 0.326 0.16 0.128 0.319 0.253 0.173 0.13c0.12 0.088 0.239 0.173 0.359 0.258l0.133 0.093c0.013 0.008 0.024 0.017 0.036 0.027 0.114 0.080 0.233 0.154 0.35 0.231l0.152 0.101 0.548 0.336 0.564 0.316c0.074 0.040 0.152 0.080 0.226 0.117l0.292 0.153c0.023 0.013 0.047 0.023 0.066 0.033l0.12 0.058 0.465 0.217 0.098 0.044c0.179 0.080 0.359 0.154 0.545 0.226 0.044 0.019 0.088 0.035 0.133 0.053l0.513 0.19c0.021 0.008 0.043 0.016 0.066 0.023 0.189 0.066 0.38 0.128 0.572 0.186l0.138 0.040c0.195 0.058 0.389 0.129 0.591 0.166 12.817 2.339 16.54-7.702 16.54-7.702-3.126 4.074-8.677 5.148-13.936 3.953zM11.691 16.307c0.287 0.399 0.606 0.901 0.986 1.232 0.138 0.152 0.283 0.3 0.431 0.447 0.037 0.040 0.076 0.074 0.113 0.112 0.144 0.14 0.288 0.275 0.439 0.408 0.007 0.004 0.013 0.011 0.019 0.016l0.004 0.004c0.149 0.131 0.316 0.27 0.487 0.404l0.026 0.020c0.040 0.029 0.077 0.061 0.117 0.093 0.141 0.11 0.316 0.239 0.494 0.364l0.043 0.028 0.016 0.013c0.080 0.056 0.163 0.106 0.245 0.162 0.040 0.027 0.077 0.053 0.117 0.077 0.13 0.084 0.263 0.166 0.399 0.243 0.019 0.013 0.037 0.021 0.056 0.032 0.116 0.066 0.234 0.133 0.352 0.197 0.040 0.024 0.084 0.044 0.125 0.066l0.246 0.128c0.013 0.005 0.027 0.013 0.037 0.016 0.169 0.084 0.339 0.163 0.513 0.239l0.113 0.047c0.14 0.060 0.266 0.117 0.42 0.173l0.179 0.066c0.057 0.025 0.185 0.070 0.314 0.113l0.072 0.021 0.173 0.056c0.186 0.057 0.367 0.13 0.558 0.162 9.895 1.639 12.18-5.981 12.18-5.981-2.060 2.967-6.048 4.381-10.304 3.276-0.284-0.074-0.471-0.129-0.657-0.189l0.096 0.026c-0.057-0.017-0.112-0.036-0.169-0.053-0.206-0.065-0.336-0.111-0.465-0.16l0.072 0.024-0.177-0.066c-0.142-0.053-0.283-0.112-0.421-0.17-0.040-0.017-0.077-0.032-0.114-0.048-0.173-0.076-0.346-0.155-0.518-0.239-0.088-0.043-0.173-0.088-0.259-0.133l-0.149-0.077c-0.11-0.060-0.219-0.122-0.327-0.186-0.027-0.013-0.053-0.029-0.080-0.044-0.2-0.116-0.33-0.196-0.458-0.278l0.061 0.036c-0.040-0.027-0.080-0.053-0.133-0.080l-0.257-0.17c-0.223-0.155-0.397-0.284-0.568-0.416l0.034 0.025-0.12-0.093c-1.861-1.471-3.339-3.482-4.041-5.761-0.736-2.363-0.577-5.018 0.698-7.171l-1.552 2.206c-1.917 2.758-1.813 6.45-0.319 9.368 0.253 0.489 0.532 0.964 0.848 1.416zM22.122 12.895c0.080 0.031 0.163 0.057 0.246 0.085 0.036 0.011 0.072 0.024 0.109 0.035 0.117 0.036 0.233 0.080 0.352 0.101 5.463 1.055 6.946-2.791 7.341-3.372-1.299 1.869-3.48 2.318-6.157 1.668-0.269-0.069-0.485-0.137-0.696-0.216l0.048 0.016c-0.262-0.093-0.532-0.199-0.771-0.319-0.476-0.229-0.93-0.505-1.349-0.824-2.395-1.817-3.884-5.285-2.321-8.108l-0.847 1.166c-1.13 1.661-1.24 3.728-0.457 5.564 0.827 1.95 2.521 3.478 4.498 4.204z"></path>
</svg>
