<!-- Generated by IcoMoon.io -->
<svg version="1.1" xmlns="http://www.w3.org/2000/svg" width="32" height="32" viewBox="0 0 32 32">
<title>jquery</title>
<path d="M16.232 24.047c-0.15-0.034-0.295-0.080-0.44-0.124l-0.525-0.173-0.058-0.020-0.375-0.14-0.105-0.040-0.405-0.168-0.080-0.036-0.44-0.207-0.264-0.134-0.176-0.092-0.424-0.238-0.412-0.252-0.404-0.27-0.094-0.066-0.277-0.2-0.123-0.093-0.25-0.196-0.112-0.1-0.312-0.263-0.034-0.028-0.328-0.298-0.092-0.088-0.235-0.23-0.092-0.092-0.304-0.321-0.293-0.334-0.077-0.090-0.21-0.26-0.077-0.096-0.243-0.324c-2.197-2.996-2.986-7.13-1.23-10.523l-1.556 1.974c-2.005 2.875-1.758 6.605-0.235 9.65 0.036 0.073 0.074 0.145 0.112 0.217l0.070 0.137c0.014 0.027 0.030 0.053 0.044 0.080 0.026 0.050 0.053 0.095 0.080 0.142l0.144 0.249 0.083 0.136c0.055 0.090 0.11 0.176 0.17 0.264 0.024 0.037 0.047 0.075 0.072 0.11l0.244 0.353c0.002 0.003 0.005 0.006 0.007 0.010 0.013 0.018 0.028 0.037 0.040 0.056 0.072 0.1 0.147 0.2 0.223 0.296l0.084 0.107c0.067 0.085 0.136 0.17 0.206 0.253l0.080 0.094 0.287 0.328c0.002 0.002 0.004 0.004 0.006 0.005s0.008 0.008 0.010 0.013c0.095 0.104 0.193 0.206 0.29 0.307l0.093 0.094c0.076 0.077 0.154 0.153 0.233 0.228l0.095 0.090c0.096 0.091 0.2 0.186 0.306 0.279l0.013 0.012c0.002 0.001 0.003 0.003 0.005 0.004 0.018 0.016 0.038 0.032 0.056 0.047l0.3 0.245 0.12 0.096 0.24 0.19 0.13 0.098c0.090 0.066 0.18 0.13 0.27 0.194l0.1 0.070c0.010 0.006 0.018 0.013 0.027 0.020 0.086 0.060 0.175 0.116 0.263 0.174l0.114 0.076 0.412 0.253 0.424 0.238c0.056 0.030 0.114 0.060 0.17 0.088l0.22 0.115c0.017 0.010 0.035 0.017 0.050 0.025l0.090 0.044 0.35 0.163 0.074 0.033c0.135 0.060 0.27 0.116 0.41 0.17 0.033 0.014 0.066 0.026 0.1 0.040l0.386 0.143c0.016 0.006 0.032 0.012 0.050 0.017 0.142 0.050 0.286 0.096 0.43 0.14l0.104 0.030c0.147 0.044 0.293 0.097 0.445 0.125 9.643 1.76 12.444-5.795 12.444-5.795-2.352 3.065-6.528 3.873-10.485 2.974zM12.758 16.231c0.216 0.3 0.456 0.678 0.742 0.927 0.104 0.114 0.213 0.226 0.324 0.336 0.028 0.030 0.057 0.056 0.085 0.084 0.108 0.105 0.217 0.207 0.33 0.307 0.005 0.003 0.010 0.008 0.014 0.012l0.003 0.003c0.112 0.099 0.238 0.203 0.367 0.304l0.020 0.015c0.030 0.022 0.058 0.046 0.088 0.070 0.106 0.083 0.238 0.18 0.372 0.274l0.032 0.021 0.012 0.010c0.060 0.042 0.123 0.080 0.184 0.122 0.030 0.020 0.058 0.040 0.088 0.058 0.098 0.063 0.198 0.125 0.3 0.183 0.014 0.010 0.028 0.016 0.042 0.024 0.087 0.050 0.176 0.1 0.265 0.148 0.030 0.018 0.063 0.033 0.094 0.050l0.185 0.096c0.010 0.004 0.020 0.010 0.028 0.012 0.127 0.063 0.255 0.123 0.386 0.18l0.085 0.035c0.105 0.045 0.2 0.088 0.316 0.13l0.135 0.050c0.043 0.019 0.139 0.053 0.237 0.085l0.054 0.016 0.13 0.042c0.14 0.043 0.276 0.098 0.42 0.122 7.445 1.233 9.164-4.5 9.164-4.5-1.55 2.232-4.55 3.296-7.752 2.465-0.214-0.055-0.354-0.097-0.494-0.142l0.072 0.020c-0.043-0.013-0.084-0.027-0.127-0.040-0.155-0.049-0.253-0.083-0.349-0.12l0.055 0.018-0.133-0.050c-0.107-0.040-0.213-0.084-0.317-0.128-0.030-0.013-0.058-0.024-0.086-0.036-0.13-0.057-0.26-0.117-0.39-0.18-0.066-0.032-0.13-0.066-0.195-0.1l-0.112-0.058c-0.083-0.045-0.165-0.092-0.246-0.14-0.020-0.010-0.040-0.022-0.060-0.033-0.151-0.087-0.248-0.148-0.345-0.209l0.046 0.027c-0.030-0.020-0.060-0.040-0.1-0.060l-0.193-0.128c-0.168-0.117-0.299-0.213-0.427-0.313l0.025 0.019-0.090-0.070c-1.4-1.107-2.512-2.62-3.040-4.334-0.554-1.778-0.434-3.775 0.525-5.395l-1.168 1.66c-1.442 2.075-1.364 4.853-0.24 7.048 0.19 0.368 0.4 0.725 0.638 1.065zM20.606 13.664c0.060 0.023 0.123 0.043 0.185 0.064 0.027 0.008 0.054 0.018 0.082 0.026 0.088 0.027 0.175 0.060 0.265 0.076 4.11 0.794 5.226-2.1 5.523-2.537-0.977 1.406-2.618 1.744-4.632 1.255-0.202-0.052-0.365-0.103-0.524-0.163l0.036 0.012c-0.197-0.070-0.4-0.15-0.58-0.24-0.358-0.172-0.7-0.38-1.015-0.62-1.802-1.367-2.922-3.976-1.746-6.1l-0.637 0.877c-0.85 1.25-0.933 2.805-0.344 4.186 0.622 1.467 1.897 2.617 3.384 3.163z"></path>
</svg>
