<!-- Generated by IcoMoon.io -->
<svg version="1.1" xmlns="http://www.w3.org/2000/svg" width="32" height="32" viewBox="0 0 32 32">
<title>laravel</title>
<path d="M4.234 0.43c-0.282 0.022-0.558 0.019-0.831 0.093-0.597 0.164-1.127 0.425-1.595 0.829-0.275 0.237-0.515 0.492-0.719 0.793-0.315 0.465-0.529 0.964-0.636 1.526 0.043 0.075 0.088 0.154 0.136 0.235 0.305 0.509 0.61 1.015 0.915 1.525l0.803 1.335c0.247 0.412 0.494 0.823 0.74 1.235l1.152 1.922c0.262 0.437 0.524 0.874 0.786 1.311 0.382 0.636 0.764 1.272 1.146 1.909l1.402 2.343c0.404 0.675 0.809 1.349 1.214 2.023l0.054 0.078c0.059 0.019 0.105 0.003 0.154-0.009 0.534-0.128 1.067-0.255 1.601-0.383 0.865-0.207 1.73-0.413 2.596-0.62l1.355-0.324c0.875-0.209 1.75-0.418 2.624-0.627 0.884-0.211 1.768-0.424 2.653-0.636 0.447-0.107 0.894-0.214 1.341-0.321 0.865-0.207 1.73-0.412 2.596-0.619l2.827-0.673 0.153-0.041-0.042-0.083-4.696-6.641c-0.26-0.367-0.521-0.734-0.782-1.102l-0.412-0.582c-0.063-0.089-0.113-0.186-0.147-0.29-0.081-0.253 0.012-0.421 0.159-0.545 0.096-0.081 0.206-0.14 0.325-0.175 0.166-0.049 0.333-0.095 0.503-0.127 0.34-0.064 0.682-0.119 1.023-0.175l1.156-0.188c0.244-0.040 0.487-0.083 0.731-0.124 0.331-0.056 0.663-0.112 0.994-0.167 0.322-0.054 0.643-0.107 0.965-0.16l1.053-0.172 0.731-0.123c0.278-0.046 0.556-0.093 0.834-0.138 0.346-0.057 0.693-0.114 1.039-0.168 0.206-0.032 0.413-0.043 0.618 0.015 0.154 0.044 0.294 0.116 0.424 0.208l0.18 0.126c0.018-0.042-0.008-0.064-0.020-0.088-0.26-0.526-0.614-0.979-1.065-1.355-0.419-0.351-0.889-0.608-1.409-0.772-0.307-0.097-0.623-0.052-0.945-0.076zM13.922 31.75c-0.015 0-0.029-0.113-0.047-0.142-0.375-0.64-0.754-1.327-1.124-1.969-0.467-0.809-0.929-1.622-1.389-2.435-0.491-0.869-0.978-1.741-1.466-2.613-0.463-0.829-0.925-1.658-1.387-2.487-0.279-0.501-0.556-1.003-0.834-1.505l-0.074-0.115-0.136 0.027c-0.268 0.069-0.535 0.139-0.803 0.209-0.372 0.098-0.745 0.198-1.117 0.295-0.837 0.218-1.673 0.434-2.51 0.651-0.851 0.221-1.738 0.442-2.589 0.663-0.052 0.013 0.055 0.018-0.195 0.026v5.286c0.103 0.164 0.093 0.087 0.1 0.141 0.020 0.157 0.052 0.314 0.079 0.469 0.103 0.578 0.335 1.106 0.67 1.588 0.491 0.706 1.145 1.212 1.947 1.52 0.286 0.11 0.585 0.188 0.89 0.225l0.31 0.082z"></path>
<path d="M1.244 19.436c0.985-0.234 1.97-0.468 2.955-0.702 0.433-0.102 0.865-0.204 1.298-0.307 0.216-0.052 0.433-0.101 0.647-0.159 0.191-0.052 0.215-0.115 0.116-0.287-0.142-0.249-0.287-0.497-0.43-0.745l-2.531-4.36c-0.429-0.739-0.859-1.479-1.288-2.218-0.368-0.633-0.736-1.265-1.103-1.897-0.159-0.274-0.352-0.548-0.512-0.821-0.030-0.050 0.105-0.109-0.145-0.136v11.849c0-0.008 0.113-0.015 0.151-0.024l0.843-0.193zM31.556 27.905c-0.386 0.137-0.772 0.276-1.158 0.414-0.879 0.315-1.758 0.63-2.636 0.945-0.488 0.175-0.976 0.352-1.464 0.527-0.995 0.355-1.991 0.709-2.987 1.064-0.577 0.206-1.154 0.459-1.731 0.666-0.158 0.057-0.314 0.229-0.47 0.229h6.622l0.142-0.082c0.169-0.007 0.334-0.057 0.5-0.087 0.68-0.124 1.288-0.418 1.828-0.848 0.414-0.33 0.751-0.734 1.015-1.195 0.271-0.474 0.433-0.987 0.51-1.525 0.007-0.047 0.021-0.099-0.018-0.147-0.055-0.004-0.104 0.021-0.154 0.039zM30.987 19.012c-0.292-0.399-0.585-0.798-0.876-1.198-0.402-0.552-0.804-1.104-1.206-1.656-0.163-0.224-0.329-0.446-0.488-0.673-0.048-0.068-0.103-0.086-0.177-0.066l-0.043 0.012c-0.739 0.18-1.479 0.359-2.219 0.538l-1.326 0.322c-0.864 0.21-1.729 0.42-2.593 0.63-0.855 0.208-1.709 0.416-2.564 0.623l-2.666 0.645c-0.874 0.212-1.748 0.425-2.622 0.638l-2.535 0.616c-0.447 0.108-0.893 0.216-1.34 0.326-0.066 0.016-0.136 0.020-0.207 0.073l0.060 0.114c0.374 0.646 0.748 1.293 1.124 1.939 0.425 0.732 0.85 1.463 1.276 2.194 0.469 0.803 0.938 1.606 1.408 2.409 0.27 0.461 0.538 0.923 0.81 1.383 0.302 0.511 0.605 1.021 0.913 1.529 0.092 0.152 0.197 0.297 0.302 0.44 0.071 0.096 0.158 0.177 0.262 0.239 0.107 0.064 0.221 0.084 0.342 0.057 0.063-0.014 0.124-0.035 0.184-0.056l0.223-0.082c0.809-0.277 1.618-0.553 2.428-0.829 0.631-0.215 1.264-0.429 1.896-0.643 0.627-0.213 1.255-0.424 1.883-0.636l1.869-0.631c0.637-0.215 1.274-0.43 1.91-0.646 0.782-0.265 1.563-0.532 2.345-0.796 0.754-0.255 1.508-0.509 2.262-0.763 0.046-0.015 0.097-0.022 0.136-0.073l0.005-0.11c0-1.564 0-3.128 0.002-4.692 0-0.084-0.022-0.151-0.072-0.218-0.237-0.317-0.469-0.638-0.703-0.957zM30.858 4.278c-0.175-0.222-0.399-0.293-0.673-0.221-0.119 0.031-0.242 0.051-0.363 0.073-0.398 0.073-0.797 0.145-1.196 0.217-0.584 0.106-1.167 0.213-1.75 0.318-0.462 0.083-0.924 0.165-1.387 0.246l-1.855 0.325c-0.078 0.013-0.156 0.027-0.231 0.051-0.109 0.035-0.141 0.104-0.091 0.206 0.041 0.084 0.091 0.164 0.146 0.24 0.384 0.529 0.769 1.056 1.154 1.583 0.531 0.727 1.062 1.454 1.593 2.181 0.45 0.615 0.899 1.23 1.349 1.845 0.354 0.483 0.707 0.966 1.061 1.449l0.070 0.085 3.068-0.758 0.007-0.159c0-2.128 0-4.255 0.002-6.383 0-0.094-0.023-0.17-0.082-0.244-0.258-0.326-0.511-0.655-0.767-0.983l-0.056-0.069zM31.683 14.588c-0.464 0.111-0.93 0.217-1.405 0.343 0.050 0.089 1.354 1.849 1.43 1.932l0.047 0.026 0.005-0.107v-0.741c0-0.43 0.001-0.86 0-1.289 0-0.052 0.015-0.108-0.021-0.162l-0.056-0.003z"></path>
</svg>
