<!-- Generated by IcoMoon.io -->
<svg version="1.1" xmlns="http://www.w3.org/2000/svg" width="32" height="32" viewBox="0 0 32 32">
<title>laravel</title>
<path d="M4.804 1.184c-0.268 0.021-0.531 0.018-0.791 0.089-0.568 0.156-1.072 0.404-1.518 0.789-0.262 0.226-0.49 0.468-0.684 0.755-0.3 0.442-0.503 0.917-0.605 1.452 0.041 0.071 0.084 0.147 0.129 0.224 0.29 0.484 0.58 0.966 0.871 1.451l0.764 1.27c0.235 0.392 0.47 0.783 0.704 1.175l1.096 1.829c0.249 0.416 0.499 0.832 0.748 1.248 0.364 0.605 0.727 1.21 1.090 1.817l1.334 2.229c0.384 0.642 0.77 1.284 1.155 1.925l0.051 0.074c0.056 0.018 0.1 0.003 0.147-0.009 0.508-0.122 1.015-0.243 1.523-0.364 0.823-0.197 1.646-0.393 2.47-0.59l1.289-0.308c0.833-0.199 1.665-0.398 2.497-0.597 0.841-0.201 1.682-0.403 2.524-0.605 0.425-0.102 0.851-0.204 1.276-0.305 0.823-0.197 1.646-0.392 2.47-0.589l2.69-0.64 0.146-0.039-0.040-0.079-4.469-6.319c-0.247-0.349-0.496-0.698-0.744-1.049l-0.392-0.554c-0.060-0.085-0.108-0.177-0.14-0.276-0.077-0.241 0.011-0.401 0.151-0.519 0.091-0.077 0.196-0.133 0.309-0.167 0.158-0.047 0.317-0.090 0.479-0.121 0.324-0.061 0.649-0.113 0.973-0.167l1.1-0.179c0.232-0.038 0.463-0.079 0.696-0.118 0.315-0.053 0.631-0.107 0.946-0.159 0.306-0.051 0.612-0.102 0.918-0.152l1.002-0.164 0.696-0.117c0.265-0.044 0.529-0.088 0.794-0.131 0.329-0.054 0.659-0.108 0.989-0.16 0.196-0.030 0.393-0.041 0.588 0.014 0.147 0.042 0.28 0.11 0.403 0.198l0.171 0.12c0.017-0.040-0.008-0.061-0.019-0.084-0.247-0.501-0.584-0.932-1.013-1.289-0.399-0.334-0.846-0.579-1.341-0.735-0.292-0.092-0.593-0.050-0.899-0.072zM14.023 30.987c-0.014 0-0.028-0.108-0.045-0.135-0.357-0.609-0.717-1.263-1.070-1.874-0.444-0.77-0.884-1.543-1.322-2.317-0.467-0.827-0.931-1.657-1.395-2.486-0.441-0.789-0.88-1.578-1.32-2.367-0.265-0.477-0.529-0.954-0.794-1.432l-0.070-0.109-0.129 0.026c-0.255 0.066-0.509 0.132-0.764 0.199-0.354 0.093-0.709 0.188-1.063 0.281-0.796 0.207-1.592 0.413-2.388 0.619-0.81 0.21-1.654 0.421-2.464 0.631-0.050 0.012 0.052 0.017-0.186 0.025v5.030c0.098 0.156 0.089 0.083 0.095 0.134 0.019 0.149 0.050 0.299 0.075 0.446 0.098 0.55 0.319 1.052 0.638 1.511 0.467 0.672 1.090 1.153 1.853 1.446 0.272 0.105 0.557 0.179 0.847 0.214l0.295 0.078z"></path>
<path d="M1.959 19.27c0.937-0.223 1.875-0.445 2.812-0.668 0.412-0.097 0.823-0.194 1.235-0.292 0.206-0.049 0.412-0.096 0.616-0.151 0.182-0.049 0.205-0.109 0.11-0.273-0.135-0.237-0.273-0.473-0.409-0.709l-2.408-4.149c-0.408-0.703-0.817-1.407-1.226-2.111-0.35-0.602-0.7-1.204-1.050-1.805-0.151-0.261-0.335-0.521-0.487-0.781-0.029-0.048 0.1-0.104-0.138-0.129v11.275c0-0.008 0.108-0.014 0.144-0.023l0.802-0.184zM30.803 27.328c-0.367 0.13-0.735 0.263-1.102 0.394-0.836 0.3-1.673 0.599-2.508 0.899-0.464 0.166-0.929 0.335-1.393 0.501-0.947 0.338-1.895 0.675-2.842 1.012-0.549 0.196-1.098 0.437-1.647 0.634-0.15 0.054-0.299 0.218-0.447 0.218h6.301l0.135-0.078c0.161-0.007 0.318-0.054 0.476-0.083 0.647-0.118 1.226-0.398 1.739-0.807 0.394-0.314 0.715-0.698 0.966-1.137 0.258-0.451 0.412-0.939 0.485-1.451 0.007-0.045 0.020-0.094-0.017-0.14-0.052-0.004-0.099 0.020-0.147 0.037zM30.261 18.866c-0.278-0.38-0.557-0.759-0.834-1.14-0.383-0.525-0.765-1.051-1.148-1.576-0.155-0.213-0.313-0.424-0.464-0.64-0.046-0.065-0.098-0.082-0.168-0.063l-0.041 0.011c-0.703 0.171-1.407 0.342-2.112 0.512l-1.262 0.306c-0.822 0.2-1.645 0.4-2.467 0.599-0.814 0.198-1.626 0.396-2.44 0.593l-2.537 0.614c-0.832 0.202-1.663 0.404-2.495 0.607l-2.412 0.586c-0.425 0.103-0.85 0.206-1.275 0.31-0.063 0.015-0.129 0.019-0.197 0.069l0.057 0.108c0.356 0.615 0.712 1.23 1.070 1.845 0.404 0.697 0.809 1.392 1.214 2.088 0.446 0.764 0.893 1.528 1.34 2.292 0.257 0.439 0.512 0.878 0.771 1.316 0.287 0.486 0.576 0.972 0.869 1.455 0.088 0.145 0.187 0.283 0.287 0.419 0.068 0.091 0.15 0.168 0.249 0.227 0.102 0.061 0.21 0.080 0.325 0.054 0.060-0.013 0.118-0.033 0.175-0.053l0.212-0.078c0.77-0.264 1.54-0.526 2.31-0.789 0.6-0.205 1.203-0.408 1.804-0.612 0.597-0.203 1.194-0.403 1.792-0.605l1.778-0.6c0.606-0.205 1.212-0.409 1.817-0.615 0.744-0.252 1.487-0.506 2.231-0.757 0.717-0.243 1.435-0.484 2.152-0.726 0.044-0.014 0.092-0.021 0.129-0.069l0.005-0.105c0-1.488 0-2.977 0.002-4.465 0-0.080-0.021-0.144-0.069-0.207-0.226-0.302-0.446-0.607-0.669-0.911zM30.138 4.846c-0.166-0.211-0.38-0.279-0.64-0.21-0.113 0.029-0.23 0.049-0.345 0.069-0.379 0.069-0.758 0.138-1.138 0.207-0.556 0.101-1.11 0.203-1.665 0.303-0.44 0.079-0.879 0.157-1.32 0.234l-1.765 0.309c-0.074 0.012-0.148 0.026-0.22 0.049-0.104 0.033-0.134 0.099-0.087 0.196 0.039 0.080 0.087 0.156 0.139 0.228 0.365 0.503 0.732 1.005 1.098 1.506 0.505 0.692 1.011 1.384 1.516 2.075 0.428 0.585 0.855 1.17 1.284 1.756 0.337 0.46 0.673 0.919 1.010 1.379l0.067 0.081 2.919-0.721 0.007-0.151c0-2.025 0-4.049 0.002-6.074 0-0.089-0.022-0.162-0.078-0.232-0.245-0.31-0.486-0.623-0.73-0.935l-0.053-0.066zM30.923 14.656c-0.442 0.106-0.885 0.207-1.337 0.326 0.048 0.085 1.288 1.759 1.361 1.838l0.045 0.025 0.005-0.102v-0.705c0-0.409 0.001-0.818 0-1.227 0-0.050 0.014-0.103-0.020-0.154l-0.053-0.003z"></path>
</svg>
