<!-- Generated by IcoMoon.io -->
<svg version="1.1" xmlns="http://www.w3.org/2000/svg" width="32" height="32" viewBox="0 0 32 32">
<title>less</title>
<path d="M8.197 9.754v8.062c0 0.97 0.108 1.114 1.071 1.39l-0.231 1.351c-0.514-0.117-1.009-0.169-1.457-0.345-0.854-0.335-0.988-1.109-0.991-1.904-0.011-2.279-0.004-4.559-0.004-6.837v-0.451c-0.392 0.030-0.753 0.027-1.099 0.093-0.399 0.075-0.626 0.403-0.639 0.883-0.019 0.668-0.007 1.337-0.018 2.005-0.006 0.306-0.019 0.614-0.056 0.917-0.069 0.572-0.332 1.037-0.814 1.349 0.004 0.043-0.002 0.076 0.009 0.083 0.723 0.505 0.847 1.262 0.86 2.062 0.010 0.635 0 1.271 0.003 1.906 0.006 0.958 0.254 1.217 1.216 1.278l0.155 0.023v1.25c-0.667-0.017-1.32-0.044-1.917-0.364-0.665-0.356-0.889-0.974-0.921-1.671-0.033-0.722-0.021-1.445-0.028-2.168-0.001-0.131 0.004-0.263-0.003-0.395-0.048-0.837-0.374-1.206-1.198-1.348-0.007-0.038-0.019-0.079-0.019-0.121-0.002-0.351-0.001-0.701-0.001-1.040l0.059-0.053c0.867-0.21 1.151-0.563 1.161-1.469 0.007-0.581-0.010-1.161 0.006-1.742 0.010-0.393 0.027-0.79 0.097-1.176 0.154-0.852 0.774-1.367 1.765-1.5 0.293-0.039 0.588-0.063 0.884-0.068 0.688-0.010 1.378-0.003 2.112-0.003v0zM10.992 17.305c-0.102 0.843 0.547 1.615 1.449 1.783 0.853 0.159 1.675 0.012 2.527-0.254 0.068 0.395 0.142 0.777 0.191 1.162 0.008 0.059-0.093 0.171-0.165 0.193-1.249 0.391-2.509 0.52-3.762 0.039-0.773-0.296-1.331-0.848-1.629-1.621-0.472-1.229-0.477-2.466 0.079-3.669 0.813-1.76 2.838-2.217 4.353-1.512 0.916 0.426 1.358 1.219 1.515 2.169 0.090 0.544 0.082 1.104 0.122 1.709-1.609-0.001-3.146-0.001-4.678-0.001v0zM14.021 16.117c0.019-1.026-0.563-1.668-1.474-1.662-0.871 0.006-1.58 0.752-1.558 1.662h3.032zM25.802 22.883v-1.27l0.364-0.026c0.685-0.055 0.99-0.36 1.008-1.046 0.017-0.657 0-1.314 0.012-1.972 0.006-0.316 0.024-0.636 0.071-0.949 0.081-0.542 0.358-0.977 0.866-1.307-0.899-0.571-0.929-1.442-0.938-2.319-0.007-0.603 0.007-1.206-0.006-1.807-0.017-0.818-0.319-1.117-1.139-1.153l-0.226-0.016v-1.262c0.713 0.016 1.419 0.038 2.044 0.442 0.582 0.376 0.764 0.973 0.792 1.614 0.034 0.777 0.017 1.555 0.031 2.333 0.004 0.229 0.016 0.464 0.074 0.683 0.15 0.563 0.54 0.854 1.131 0.874v1.231c-0.566 0.024-0.971 0.294-1.124 0.858-0.060 0.219-0.076 0.453-0.080 0.681-0.016 0.767 0 1.534-0.028 2.3-0.043 1.216-0.684 1.892-1.894 2.033-0.311 0.037-0.625 0.050-0.958 0.077v0zM26.098 13.448l-0.292 1.272c-0.677-0.224-1.344-0.379-2.044-0.266-0.441 0.071-0.701 0.264-0.755 0.573-0.060 0.334 0.103 0.631 0.507 0.83 0.342 0.169 0.705 0.295 1.057 0.444 0.211 0.090 0.423 0.178 0.628 0.281 0.988 0.493 1.33 1.125 1.217 2.237-0.079 0.779-0.641 1.353-1.629 1.571-1.178 0.259-2.344 0.186-3.517-0.255l0.258-1.281c0.505 0.115 0.986 0.265 1.478 0.324 0.406 0.049 0.829 0.010 1.24-0.031 0.271-0.027 0.498-0.165 0.565-0.47 0.069-0.313-0.020-0.585-0.284-0.746-0.324-0.198-0.679-0.346-1.024-0.512-0.413-0.198-0.844-0.364-1.241-0.59-1.17-0.661-1.159-2.706 0.142-3.327 0.385-0.184 0.823-0.295 1.248-0.355 0.825-0.118 1.628 0.052 2.447 0.301zM20.794 13.39l-0.305 1.332c-0.678-0.231-1.336-0.376-2.026-0.271-0.462 0.071-0.721 0.266-0.776 0.591-0.055 0.329 0.111 0.617 0.527 0.82 0.363 0.177 0.747 0.311 1.119 0.467 0.181 0.077 0.362 0.155 0.538 0.243 1.024 0.51 1.381 1.197 1.218 2.327-0.112 0.779-0.792 1.378-1.793 1.535-1.017 0.16-2.026 0.133-3.019-0.184-0.243-0.078-0.345-0.172-0.271-0.439 0.089-0.313 0.142-0.636 0.212-0.958 0.502 0.113 0.983 0.264 1.474 0.322 0.406 0.048 0.829 0.010 1.24-0.031 0.289-0.028 0.513-0.19 0.574-0.504 0.059-0.303-0.047-0.566-0.296-0.712-0.376-0.219-0.783-0.384-1.176-0.573-0.364-0.174-0.742-0.326-1.090-0.526-1.171-0.672-1.152-2.701 0.168-3.357 0.587-0.292 1.209-0.401 1.847-0.351 0.603 0.048 1.2 0.172 1.835 0.268v0z"></path>
</svg>
