<!-- Generated by IcoMoon.io -->
<svg version="1.1" xmlns="http://www.w3.org/2000/svg" width="32" height="32" viewBox="0 0 32 32">
<title>linkedin</title>
<path d="M28.786 1.001h-25.572c-0.007 0-0.015 0-0.023 0-1.2 0-2.176 0.965-2.191 2.163v25.677c0.017 1.196 0.992 2.159 2.191 2.159 0.008 0 0.016 0 0.024 0h25.572c0.005 0 0.011 0 0.017 0 1.203 0 2.179-0.967 2.196-2.165v-25.677c-0.023-1.196-0.996-2.156-2.196-2.156-0.007 0-0.012 0-0.019 0h0.001zM9.895 26.573h-4.453v-14.329h4.453zM7.682 10.294c-0.001 0-0.001 0-0.003 0-1.425 0-2.583-1.156-2.583-2.583s1.156-2.583 2.583-2.583c1.425 0 2.583 1.156 2.583 2.583v0c-0.003 1.424-1.157 2.577-2.583 2.577-0.004 0-0.007 0-0.011 0v0zM26.573 26.573h-4.453v-6.972c0-1.66-0.029-3.797-2.315-3.797s-2.673 1.809-2.673 3.688v7.080h-4.445v-14.329h4.269v1.967h0.059c0.595-1.127 2.045-2.315 4.212-2.315 4.509-0.009 5.345 2.959 5.345 6.806z"></path>
</svg>
