<!-- Generated by IcoMoon.io -->
<svg version="1.1" xmlns="http://www.w3.org/2000/svg" width="32" height="32" viewBox="0 0 32 32">
<title>linkedin</title>
<path d="M25.59 4.75h-19.18c-0.005 0-0.011 0-0.017 0-0.9 0-1.632 0.724-1.643 1.622v19.259c0.013 0.897 0.744 1.619 1.643 1.619 0.006 0 0.012 0 0.018 0h19.18c0.004 0 0.008 0 0.013 0 0.902 0 1.634-0.725 1.647-1.624v-19.259c-0.017-0.897-0.747-1.617-1.647-1.617-0.005 0-0.009 0-0.014 0h0.001zM11.421 23.93h-3.34v-10.747h3.34zM9.761 11.72c-0.001 0-0.001 0-0.002 0-1.069 0-1.937-0.867-1.937-1.937s0.867-1.937 1.937-1.937c1.069 0 1.937 0.867 1.937 1.937v0c-0.002 1.068-0.868 1.933-1.937 1.933-0.003 0-0.005 0-0.008 0v0zM23.93 23.93h-3.34v-5.229c0-1.245-0.022-2.848-1.736-2.848s-2.005 1.357-2.005 2.766v5.31h-3.334v-10.747h3.202v1.475h0.044c0.446-0.845 1.534-1.736 3.159-1.736 3.382-0.007 4.009 2.219 4.009 5.105z"></path>
</svg>
