<!-- Generated by IcoMoon.io -->
<svg version="1.1" xmlns="http://www.w3.org/2000/svg" width="32" height="32" viewBox="0 0 32 32">
<title>linux</title>
<path d="M15.546 8.608c0 0.099-0.099 0.099-0.099 0.099h-0.099c-0.099 0-0.099-0.099-0.199-0.199 0 0-0.099-0.099-0.099-0.199s0-0.099 0.099-0.099l0.199 0.099c0.099 0.099 0.199 0.199 0.199 0.298zM13.758 7.614c0-0.487-0.199-0.795-0.487-0.795 0 0 0 0.099-0.099 0.099v0.199h0.298c0 0.199 0.099 0.298 0.099 0.487h0.199zM17.235 7.128c0.199 0 0.298 0.199 0.397 0.487h0.199c-0.099-0.099-0.099-0.199-0.099-0.298s0-0.199-0.099-0.298-0.199-0.199-0.298-0.199c0 0-0.099 0.099-0.199 0.099 0 0.099 0.099 0.099 0.099 0.199zM14.255 8.717c-0.099 0-0.099 0-0.099-0.099s0-0.199 0.099-0.298c0.199 0 0.298-0.099 0.298-0.099 0.099 0 0.099 0.099 0.099 0.099 0 0.099-0.099 0.199-0.298 0.397h-0.099zM13.162 8.618c-0.397-0.199-0.487-0.487-0.487-0.993 0-0.298 0-0.487 0.199-0.695 0.092-0.178 0.275-0.298 0.486-0.298 0.004 0 0.007 0 0.011 0h-0.001c0.199 0 0.298 0.099 0.487 0.298 0.099 0.298 0.199 0.596 0.199 0.894v0.191h0.099v-0.099c0.099 0 0.099-0.199 0.099-0.596 0-0.298 0-0.596-0.199-0.894s-0.397-0.487-0.795-0.487c-0.298 0-0.596 0.199-0.695 0.487-0.199 0.397-0.239 0.695-0.239 1.192 0 0.397 0.139 0.795 0.536 1.192 0.099-0.099 0.199-0.099 0.298-0.199zM25.578 22.623c0.099 0 0.099-0.039 0.099-0.13 0-0.218-0.099-0.477-0.397-0.765-0.298-0.298-0.795-0.487-1.391-0.565l-0.199-0.010c-0.099-0.019-0.099-0.019-0.199-0.019l-0.397-0.049c0.298-0.925 0.397-1.738 0.397-2.454 0-0.993-0.199-1.689-0.596-2.285s-0.795-0.894-1.291-0.993c-0.099 0.099-0.099 0.099-0.099 0.199 0.487 0.199 0.993 0.596 1.291 1.192 0.252 0.559 0.398 1.213 0.398 1.9 0 0.030-0 0.061-0.001 0.091l0-0.005c0 0.555-0.099 1.381-0.487 2.435-0.397 0.159-0.795 0.526-1.093 1.102 0 0.090 0 0.139 0.099 0.139 0 0 0.099-0.090 0.199-0.258 0.199-0.169 0.298-0.338 0.487-0.506 0.298-0.169 0.487-0.258 0.795-0.258 0.487 0 0.993 0.068 1.291 0.208 0.397 0.13 0.596 0.268 0.695 0.429l0.298 0.417c0 0.129 0.099 0.189 0.099 0.189zM16.44 8.211c-0.099-0.099-0.099-0.298-0.099-0.487 0-0.397 0-0.596 0.199-0.894 0.199-0.199 0.397-0.298 0.596-0.298 0.298 0 0.487 0.199 0.695 0.397 0.099 0.298 0.199 0.487 0.199 0.795 0 0.487-0.199 0.795-0.596 0.894 0 0 0.099 0.099 0.199 0.099 0.199 0 0.298 0.099 0.487 0.199 0.099-0.596 0.199-0.993 0.199-1.49 0-0.596-0.099-0.993-0.298-1.291-0.298-0.298-0.596-0.397-0.993-0.397-0.298 0-0.596 0.099-0.894 0.298-0.199 0.298-0.298 0.487-0.298 0.795 0 0.487 0.099 0.894 0.298 1.291 0.099 0 0.199 0.099 0.298 0.099zM17.632 9.801c-1.291 0.894-2.285 1.291-3.080 1.291-0.695 0-1.391-0.298-1.987-0.795 0.099 0.199 0.199 0.397 0.298 0.487l0.596 0.596c0.397 0.397 0.894 0.596 1.391 0.596 0.695 0 1.49-0.397 2.484-1.093l0.894-0.596c0.199-0.199 0.397-0.397 0.397-0.695 0-0.099 0-0.199-0.099-0.199-0.099-0.199-0.596-0.487-1.589-0.795-0.894-0.397-1.589-0.596-1.987-0.596-0.298 0-0.795 0.199-1.49 0.596-0.596 0.397-0.993 0.795-0.993 1.192 0 0 0.099 0.099 0.199 0.298 0.596 0.487 1.192 0.795 1.788 0.795 0.795 0 1.788-0.397 3.080-1.391v0.199c0.099 0 0.099 0.099 0.099 0.099zM19.916 29.864c0.397 0.747 1.093 1.122 1.887 1.122 0.199 0 0.397-0.029 0.596-0.090 0.199-0.039 0.397-0.109 0.487-0.189l0.298-0.218c0.199-0.068 0.199-0.119 0.298-0.169l1.689-1.461c0.397-0.317 0.795-0.584 1.291-0.835 0.397-0.239 0.795-0.397 0.993-0.487 0.298-0.080 0.487-0.199 0.695-0.357 0.099-0.149 0.199-0.338 0.199-0.577 0-0.288-0.199-0.506-0.397-0.665s-0.397-0.268-0.596-0.338-0.397-0.229-0.695-0.487c-0.199-0.258-0.397-0.616-0.487-1.083l-0.099-0.575c-0.099-0.268-0.099-0.468-0.199-0.577 0-0.029 0-0.039-0.099-0.039s-0.298 0.090-0.397 0.258l-0.596 0.555c-0.099 0.199-0.397 0.377-0.596 0.545-0.298 0.169-0.596 0.258-0.795 0.258-0.795 0-1.192-0.218-1.49-0.646-0.199-0.317-0.298-0.686-0.397-1.102-0.199-0.169-0.298-0.258-0.487-0.258-0.487 0-0.695 0.516-0.695 1.558v3.089c0 0.090-0.099 0.288-0.099 0.596-0.099 0.308-0.099 0.657-0.099 1.052l-0.199 1.102v0.017zM5.514 29.335c0.923 0.136 1.987 0.424 3.189 0.865s1.938 0.665 2.205 0.665c0.695 0 1.272-0.308 1.748-0.903 0.099-0.193 0.099-0.419 0.099-0.68 0-0.939-0.565-2.126-1.699-3.565l-0.676-0.904c-0.139-0.189-0.308-0.487-0.526-0.864-0.208-0.388-0.397-0.686-0.545-0.894-0.13-0.229-0.338-0.458-0.606-0.686-0.243-0.216-0.541-0.375-0.87-0.454l-0.014-0.003c-0.417 0.080-0.705 0.218-0.844 0.407-0.13 0.171-0.216 0.381-0.238 0.611l-0 0.005c-0.029 0.208-0.090 0.348-0.189 0.417-0.099 0.058-0.268 0.109-0.487 0.159l-0.268 0.010h-0.268c-0.526 0-0.884 0.058-1.071 0.159-0.248 0.288-0.378 0.616-0.378 0.964 0 0.159 0.039 0.429 0.119 0.804 0.080 0.367 0.119 0.665 0.119 0.874 0 0.407-0.119 0.814-0.367 1.221-0.248 0.429-0.378 0.745-0.378 0.971 0.099 0.386 0.755 0.656 1.958 0.815zM8.822 20.305c0-0.686 0.179-1.441 0.545-2.335 0.357-0.894 0.715-1.49 1.062-1.887-0.019-0.099-0.068-0.099-0.149-0.099l-0.099-0.099c-0.288 0.298-0.636 0.993-1.052 1.987-0.417 0.894-0.636 1.718-0.636 2.325-0 0.010-0 0.021-0 0.033 0 0.42 0.114 0.813 0.314 1.149l-0.006-0.010c0.218 0.328 0.745 0.804 1.58 1.41l1.052 0.686c1.122 0.974 1.718 1.649 1.718 2.045 0 0.208-0.099 0.417-0.397 0.646-0.199 0.239-0.467 0.357-0.695 0.357-0.019 0-0.029 0.019-0.029 0.068 0 0.010 0.099 0.208 0.308 0.596 0.417 0.565 1.311 0.844 2.503 0.844 2.185 0 3.873-0.894 5.165-2.682 0-0.487 0-0.804-0.099-0.935v-0.367c0-0.646 0.099-1.133 0.298-1.451s0.397-0.468 0.695-0.468c0.199 0 0.397 0.068 0.596 0.218 0.099-0.765 0.099-1.432 0.099-2.026 0-0.904 0-1.649-0.199-2.344-0.099-0.596-0.298-1.093-0.487-1.49l-0.596-0.894c-0.199-0.298-0.298-0.596-0.487-0.894-0.099-0.397-0.199-0.695-0.199-1.192-0.298-0.487-0.487-0.993-0.795-1.49l-0.596-1.391-0.894 0.695c-0.993 0.695-1.788 0.993-2.484 0.993-0.596 0-1.093-0.099-1.391-0.487l-0.596-0.487c0 0.298-0.099 0.695-0.298 1.093l-0.626 1.192c-0.279 0.695-0.427 1.093-0.458 1.391l-0.090 0.397-0.745 1.49c-0.804 1.49-1.212 2.87-1.212 4.013 0 0.229 0.019 0.468 0.058 0.705-0.448-0.308-0.665-0.735-0.665-1.291zM15.935 29.701c-1.291 0-2.285 0.175-2.98 0.521v-0.029c-0.487 0.596-1.052 0.904-1.828 0.904-0.487 0-1.252-0.189-2.285-0.565l-2.771-0.812c-0.080-0.022-0.258-0.056-0.545-0.102l-0.765-0.136c-0.208-0.045-0.448-0.112-0.705-0.205-0.248-0.078-0.448-0.181-0.596-0.305-0.136-0.127-0.195-0.266-0.195-0.425s0.034-0.328 0.101-0.509l0.203-0.317c0.068-0.109 0.13-0.208 0.168-0.308 0.052-0.080 0.099-0.172 0.136-0.268l0.003-0.010c0.039-0.090 0.080-0.179 0.099-0.288 0.019-0.099 0.039-0.199 0.039-0.298s-0.039-0.397-0.119-0.923l-0.119-0.974c0-0.438 0.099-0.785 0.317-1.032s0.429-0.378 0.646-0.378h1.131c0.090 0 0.229-0.049 0.438-0.169l0.168-0.407c0.049-0.119 0.068-0.208 0.090-0.248l0.058-0.169c0.049-0.087 0.101-0.162 0.16-0.231l-0.002 0.002c-0.080-0.099-0.119-0.229-0.119-0.388 0-0.109 0-0.208 0.019-0.268 0-0.357 0.168-0.864 0.526-1.529l0.348-0.626 0.665-1.331c0.168-0.397 0.348-0.993 0.545-1.788 0.159-0.695 0.536-1.391 1.133-2.086l0.745-0.894c0.516-0.596 0.854-1.093 1.042-1.49s0.288-0.894 0.288-1.291c0-0.199-0.049-0.795-0.159-1.788l-0.149-2.881c0-0.695 0.058-1.192 0.189-1.689s0.357-0.993 0.695-1.391c0.298-0.397 0.695-0.795 1.291-0.993s1.294-0.311 2.089-0.311c0.298 0 0.596 0 0.894 0.099 0.298 0 0.695 0.099 1.192 0.298 0.397 0.199 0.795 0.397 1.093 0.695 0.397 0.298 0.695 0.795 0.993 1.291 0.199 0.596 0.397 1.192 0.487 1.987 0.099 0.487 0.099 0.993 0.199 1.689 0 0.596 0.099 0.993 0.099 1.291 0.099 0.298 0.099 0.695 0.199 1.192 0.099 0.397 0.199 0.795 0.397 1.093 0.199 0.397 0.397 0.795 0.695 1.192 0.298 0.487 0.695 0.993 1.093 1.589 0.894 0.993 1.589 2.086 1.987 3.178 0.487 0.993 0.795 2.285 0.795 3.665 0 0.004 0 0.008 0 0.013 0 0.708-0.109 1.39-0.311 2.031l0.013-0.048c0.199 0 0.298 0.080 0.397 0.218s0.199 0.438 0.298 0.904l0.099 0.735c0.099 0.218 0.199 0.429 0.487 0.606 0.199 0.179 0.397 0.328 0.695 0.448 0.199 0.099 0.487 0.239 0.695 0.417 0.199 0.199 0.298 0.407 0.298 0.625 0 0.338-0.099 0.586-0.298 0.765-0.185 0.197-0.42 0.345-0.684 0.425l-0.011 0.003-1.192 0.579c-0.487 0.294-0.993 0.651-1.49 1.071l-0.993 0.845c-0.319 0.314-0.678 0.591-1.067 0.821l-0.026 0.014c-0.298 0.179-0.695 0.268-1.093 0.268l-0.695-0.080c-0.795-0.208-1.291-0.606-1.589-1.212l-3.676-0.288z"></path>
</svg>
