<!-- Generated by IcoMoon.io -->
<svg version="1.1" xmlns="http://www.w3.org/2000/svg" width="32" height="32" viewBox="0 0 32 32">
<title>linux</title>
<path d="M15.534 8.41c0 0.102-0.102 0.102-0.102 0.102h-0.102c-0.102 0-0.102-0.102-0.204-0.204 0 0-0.102-0.102-0.102-0.204s0-0.102 0.102-0.102l0.204 0.102c0.102 0.102 0.204 0.204 0.204 0.306zM13.698 7.39c0-0.5-0.204-0.816-0.5-0.816 0 0 0 0.102-0.102 0.102v0.204h0.306c0 0.204 0.102 0.306 0.102 0.5h0.204zM17.268 6.89c0.204 0 0.306 0.204 0.408 0.5h0.204c-0.102-0.102-0.102-0.204-0.102-0.306s0-0.204-0.102-0.306-0.204-0.204-0.306-0.204c0 0-0.102 0.102-0.204 0.102 0 0.102 0.102 0.102 0.102 0.204zM14.208 8.522c-0.102 0-0.102 0-0.102-0.102s0-0.204 0.102-0.306c0.204 0 0.306-0.102 0.306-0.102 0.102 0 0.102 0.102 0.102 0.102 0 0.102-0.102 0.204-0.306 0.408h-0.102zM13.086 8.42c-0.408-0.204-0.5-0.5-0.5-1.020 0-0.306 0-0.5 0.204-0.714 0.095-0.183 0.283-0.306 0.499-0.306 0.004 0 0.008 0 0.011 0h-0.001c0.204 0 0.306 0.102 0.5 0.306 0.102 0.306 0.204 0.612 0.204 0.918v0.196h0.102v-0.102c0.102 0 0.102-0.204 0.102-0.612 0-0.306 0-0.612-0.204-0.918s-0.408-0.5-0.816-0.5c-0.306 0-0.612 0.204-0.714 0.5-0.204 0.408-0.245 0.714-0.245 1.224 0 0.408 0.143 0.816 0.55 1.224 0.102-0.102 0.204-0.102 0.306-0.204zM25.834 22.8c0.102 0 0.102-0.040 0.102-0.133 0-0.224-0.102-0.49-0.408-0.785-0.306-0.306-0.816-0.5-1.428-0.58l-0.204-0.010c-0.102-0.020-0.102-0.020-0.204-0.020l-0.408-0.050c0.306-0.95 0.408-1.785 0.408-2.52 0-1.020-0.204-1.734-0.612-2.346s-0.816-0.918-1.326-1.020c-0.102 0.102-0.102 0.102-0.102 0.204 0.5 0.204 1.020 0.612 1.326 1.224 0.258 0.574 0.409 1.245 0.409 1.951 0 0.031-0 0.063-0.001 0.094l0-0.005c0 0.57-0.102 1.418-0.5 2.5-0.408 0.163-0.816 0.54-1.122 1.132 0 0.092 0 0.143 0.102 0.143 0 0 0.102-0.092 0.204-0.265 0.204-0.173 0.306-0.347 0.5-0.52 0.306-0.173 0.5-0.265 0.816-0.265 0.5 0 1.020 0.070 1.326 0.214 0.408 0.133 0.612 0.275 0.714 0.44l0.306 0.428c0 0.132 0.102 0.194 0.102 0.194zM16.452 8.003c-0.102-0.102-0.102-0.306-0.102-0.5 0-0.408 0-0.612 0.204-0.918 0.204-0.204 0.408-0.306 0.612-0.306 0.306 0 0.5 0.204 0.714 0.408 0.102 0.306 0.204 0.5 0.204 0.816 0 0.5-0.204 0.816-0.612 0.918 0 0 0.102 0.102 0.204 0.102 0.204 0 0.306 0.102 0.5 0.204 0.102-0.612 0.204-1.020 0.204-1.53 0-0.612-0.102-1.020-0.306-1.326-0.306-0.306-0.612-0.408-1.020-0.408-0.306 0-0.612 0.102-0.918 0.306-0.204 0.306-0.306 0.5-0.306 0.816 0 0.5 0.102 0.918 0.306 1.326 0.102 0 0.204 0.102 0.306 0.102zM17.676 9.635c-1.326 0.918-2.346 1.326-3.162 1.326-0.714 0-1.428-0.306-2.040-0.816 0.102 0.204 0.204 0.408 0.306 0.5l0.612 0.612c0.408 0.408 0.918 0.612 1.428 0.612 0.714 0 1.53-0.408 2.55-1.122l0.918-0.612c0.204-0.204 0.408-0.408 0.408-0.714 0-0.102 0-0.204-0.102-0.204-0.102-0.204-0.612-0.5-1.632-0.816-0.918-0.408-1.632-0.612-2.040-0.612-0.306 0-0.816 0.204-1.53 0.612-0.612 0.408-1.020 0.816-1.020 1.224 0 0 0.102 0.102 0.204 0.306 0.612 0.5 1.224 0.816 1.836 0.816 0.816 0 1.836-0.408 3.162-1.428v0.204c0.102 0 0.102 0.102 0.102 0.102zM20.021 30.235c0.408 0.767 1.122 1.152 1.938 1.152 0.204 0 0.408-0.030 0.612-0.092 0.204-0.040 0.408-0.112 0.5-0.194l0.306-0.224c0.204-0.070 0.204-0.122 0.306-0.173l1.734-1.5c0.408-0.325 0.816-0.6 1.326-0.857 0.408-0.245 0.816-0.408 1.020-0.5 0.306-0.082 0.5-0.204 0.714-0.367 0.102-0.153 0.204-0.347 0.204-0.592 0-0.296-0.204-0.52-0.408-0.683s-0.408-0.275-0.612-0.347-0.408-0.235-0.714-0.5c-0.204-0.265-0.408-0.632-0.5-1.112l-0.102-0.59c-0.102-0.275-0.102-0.48-0.204-0.592 0-0.030 0-0.040-0.102-0.040s-0.306 0.092-0.408 0.265l-0.612 0.57c-0.102 0.204-0.408 0.387-0.612 0.56-0.306 0.173-0.612 0.265-0.816 0.265-0.816 0-1.224-0.224-1.53-0.663-0.204-0.326-0.306-0.704-0.408-1.132-0.204-0.173-0.306-0.265-0.5-0.265-0.5 0-0.714 0.53-0.714 1.6v3.172c0 0.092-0.102 0.296-0.102 0.612-0.102 0.316-0.102 0.675-0.102 1.080l-0.204 1.132v0.017zM5.233 29.692c0.948 0.14 2.040 0.435 3.274 0.888s1.99 0.683 2.264 0.683c0.714 0 1.306-0.316 1.795-0.927 0.102-0.198 0.102-0.43 0.102-0.698 0-0.964-0.58-2.183-1.744-3.66l-0.694-0.928c-0.143-0.194-0.316-0.5-0.54-0.887-0.214-0.398-0.408-0.704-0.56-0.918-0.133-0.235-0.347-0.47-0.622-0.704-0.25-0.221-0.556-0.385-0.894-0.466l-0.014-0.003c-0.428 0.082-0.724 0.224-0.867 0.418-0.133 0.175-0.221 0.392-0.245 0.627l-0 0.005c-0.030 0.214-0.092 0.357-0.194 0.428-0.102 0.060-0.275 0.112-0.5 0.163l-0.275 0.010h-0.275c-0.54 0-0.908 0.060-1.1 0.163-0.255 0.296-0.388 0.632-0.388 0.99 0 0.163 0.040 0.44 0.122 0.826 0.082 0.377 0.122 0.683 0.122 0.897 0 0.418-0.122 0.836-0.377 1.254-0.255 0.44-0.388 0.765-0.388 0.997 0.102 0.396 0.775 0.674 2.010 0.837zM8.63 20.42c0-0.704 0.184-1.48 0.56-2.397 0.367-0.918 0.734-1.53 1.090-1.938-0.020-0.102-0.070-0.102-0.153-0.102l-0.102-0.102c-0.296 0.306-0.653 1.020-1.080 2.040-0.428 0.918-0.653 1.764-0.653 2.387-0 0.010-0 0.022-0 0.034 0 0.431 0.117 0.834 0.322 1.18l-0.006-0.011c0.224 0.337 0.765 0.826 1.622 1.448l1.080 0.704c1.152 1 1.764 1.693 1.764 2.1 0 0.214-0.102 0.428-0.408 0.663-0.204 0.245-0.48 0.367-0.714 0.367-0.020 0-0.030 0.020-0.030 0.070 0 0.010 0.102 0.214 0.316 0.612 0.428 0.58 1.346 0.867 2.57 0.867 2.244 0 3.977-0.918 5.303-2.754 0-0.5 0-0.826-0.102-0.96v-0.377c0-0.663 0.102-1.163 0.306-1.49s0.408-0.48 0.714-0.48c0.204 0 0.408 0.070 0.612 0.224 0.102-0.785 0.102-1.47 0.102-2.080 0-0.928 0-1.693-0.204-2.407-0.102-0.612-0.306-1.122-0.5-1.53l-0.612-0.918c-0.204-0.306-0.306-0.612-0.5-0.918-0.102-0.408-0.204-0.714-0.204-1.224-0.306-0.5-0.5-1.020-0.816-1.53l-0.612-1.428-0.918 0.714c-1.020 0.714-1.836 1.020-2.55 1.020-0.612 0-1.122-0.102-1.428-0.5l-0.612-0.5c0 0.306-0.102 0.714-0.306 1.122l-0.643 1.224c-0.286 0.714-0.438 1.122-0.47 1.428l-0.092 0.408-0.765 1.53c-0.826 1.53-1.244 2.947-1.244 4.12 0 0.235 0.020 0.48 0.060 0.724-0.46-0.316-0.683-0.755-0.683-1.326zM15.933 30.068c-1.326 0-2.346 0.18-3.060 0.535v-0.030c-0.5 0.612-1.080 0.928-1.877 0.928-0.5 0-1.285-0.194-2.346-0.58l-2.845-0.834c-0.082-0.023-0.265-0.058-0.56-0.105l-0.785-0.14c-0.214-0.046-0.46-0.115-0.724-0.21-0.255-0.080-0.46-0.186-0.612-0.313-0.14-0.13-0.2-0.273-0.2-0.436s0.035-0.337 0.104-0.523l0.208-0.326c0.070-0.112 0.133-0.214 0.173-0.316 0.053-0.082 0.101-0.176 0.139-0.276l0.004-0.010c0.040-0.092 0.082-0.184 0.102-0.296 0.020-0.102 0.040-0.204 0.040-0.306s-0.040-0.408-0.122-0.948l-0.122-1c0-0.45 0.102-0.806 0.326-1.060s0.44-0.388 0.663-0.388h1.161c0.092 0 0.235-0.050 0.45-0.173l0.173-0.418c0.050-0.122 0.070-0.214 0.092-0.255l0.060-0.173c0.050-0.089 0.104-0.166 0.165-0.237l-0.002 0.002c-0.082-0.102-0.122-0.235-0.122-0.398 0-0.112 0-0.214 0.020-0.275 0-0.367 0.173-0.887 0.54-1.57l0.357-0.643 0.683-1.367c0.173-0.408 0.357-1.020 0.56-1.836 0.163-0.714 0.55-1.428 1.163-2.142l0.765-0.918c0.53-0.612 0.877-1.122 1.070-1.53s0.296-0.918 0.296-1.326c0-0.204-0.050-0.816-0.163-1.836l-0.153-2.958c0-0.714 0.060-1.224 0.194-1.734s0.367-1.020 0.714-1.428c0.306-0.408 0.714-0.816 1.326-1.020s1.329-0.319 2.145-0.319c0.306 0 0.612 0 0.918 0.102 0.306 0 0.714 0.102 1.224 0.306 0.408 0.204 0.816 0.408 1.122 0.714 0.408 0.306 0.714 0.816 1.020 1.326 0.204 0.612 0.408 1.224 0.5 2.040 0.102 0.5 0.102 1.020 0.204 1.734 0 0.612 0.102 1.020 0.102 1.326 0.102 0.306 0.102 0.714 0.204 1.224 0.102 0.408 0.204 0.816 0.408 1.122 0.204 0.408 0.408 0.816 0.714 1.224 0.306 0.5 0.714 1.020 1.122 1.632 0.918 1.020 1.632 2.142 2.040 3.263 0.5 1.020 0.816 2.346 0.816 3.763 0 0.004 0 0.009 0 0.013 0 0.727-0.112 1.427-0.319 2.086l0.013-0.049c0.204 0 0.306 0.082 0.408 0.224s0.204 0.45 0.306 0.928l0.102 0.755c0.102 0.224 0.204 0.44 0.5 0.622 0.204 0.184 0.408 0.337 0.714 0.46 0.204 0.102 0.5 0.245 0.714 0.428 0.204 0.204 0.306 0.418 0.306 0.642 0 0.347-0.102 0.602-0.306 0.785-0.19 0.202-0.431 0.354-0.703 0.436l-0.011 0.003-1.224 0.594c-0.5 0.302-1.020 0.668-1.53 1.1l-1.020 0.868c-0.328 0.323-0.696 0.607-1.096 0.843l-0.026 0.014c-0.306 0.184-0.714 0.275-1.122 0.275l-0.714-0.082c-0.816-0.214-1.326-0.622-1.632-1.244l-3.774-0.296z"></path>
</svg>
