<!-- Generated by IcoMoon.io -->
<svg version="1.1" xmlns="http://www.w3.org/2000/svg" width="32" height="32" viewBox="0 0 32 32">
<title>mailchimp</title>
<path d="M27.887 16.68c-0.075-0.092-0.168-0.065-0.253-0.002-0.066 0.049-0.131 0.1-0.205 0.157 0.017-0.602-0.056-0.854-0.33-0.996-0.441-0.228-0.839-0.077-1.23 0.195-0.008-0.091-0.017-0.166-0.021-0.242-0.007-0.12-0.074-0.192-0.189-0.188s-0.181 0.080-0.181 0.199c0 0.128 0.013 0.256 0.008 0.384-0.008 0.227-0.014 0.456-0.046 0.68-0.020 0.137-0.127 0.226-0.273 0.228-0.149 0.001-0.229-0.095-0.264-0.234-0.012-0.048-0.023-0.098-0.029-0.146-0.025-0.177-0.037-0.356-0.077-0.528-0.067-0.295-0.307-0.415-0.57-0.267-0.14 0.078-0.246 0.217-0.363 0.334-0.041 0.041-0.066 0.098-0.106 0.158-0.071-0.487-0.233-0.725-0.868-0.31 0.016-0.055 0.033-0.096 0.039-0.138 0.013-0.097 0.052-0.212-0.080-0.256s-0.198 0.046-0.24 0.149c-0.053 0.128-0.093 0.262-0.139 0.393-0.104 0.296-0.22 0.585-0.453 0.808-0.088 0.084-0.186 0.147-0.315 0.098-0.137-0.053-0.151-0.176-0.136-0.294 0.033-0.264 0.088-0.526 0.114-0.791 0.007-0.076-0.040-0.198-0.099-0.23-0.106-0.058-0.184 0.029-0.226 0.133-0.023 0.057-0.040 0.116-0.060 0.173-0.059 0.168-0.11 0.339-0.178 0.503-0.060 0.147-0.164 0.266-0.339 0.247-0.18-0.020-0.18-0.186-0.214-0.319-0.046-0.182-0.072-0.374-0.142-0.546-0.081-0.2-0.298-0.249-0.474-0.122-0.094 0.067-0.172 0.158-0.249 0.244-0.057 0.062-0.102 0.135-0.164 0.219-0.037-0.186 0.014-0.305 0.121-0.422 0.307-0.335 0.562-0.706 0.724-1.133 0.142-0.377 0.212-0.764 0.115-1.162-0.067-0.277-0.323-0.371-0.558-0.207-0.105 0.074-0.2 0.182-0.263 0.295-0.089 0.159-0.174 0.33-0.208 0.506-0.102 0.511-0.178 1.029-0.266 1.544-0.009 0.058-0.023 0.125-0.060 0.165-0.368 0.405-0.758 0.786-1.236 1.065-0.435 0.254-0.895 0.355-1.395 0.247-0.735-0.157-1.214-0.757-1.147-1.443 0.088-0.892 0.872-1.815 1.742-2.049 0.355-0.096 0.682-0.079 0.962 0.198 0.089 0.088 0.203 0.138 0.308 0.027 0.105-0.109 0.028-0.218-0.051-0.293-0.103-0.098-0.221-0.191-0.348-0.248-0.267-0.122-0.552-0.115-0.836-0.054-1.473 0.32-2.133 1.717-2.198 2.73-0.015 0.228-0.061 0.465-0.146 0.676-0.108 0.267-0.386 0.347-0.609 0.22-0.212-0.12-0.266-0.405-0.132-0.64 0.262-0.459 0.534-0.913 0.775-1.384 0.164-0.319 0.245-0.67 0.186-1.034-0.028-0.173-0.111-0.322-0.295-0.37s-0.341 0.031-0.439 0.174c-0.118 0.173-0.226 0.359-0.297 0.555-0.217 0.596-0.279 1.224-0.338 1.851-0.034 0.353-0.225 0.613-0.495 0.817-0.179 0.135-0.366 0.039-0.369-0.184-0.003-0.165 0.027-0.333 0.045-0.498 0.016-0.155 0.045-0.309 0.045-0.464 0-0.053-0.065-0.139-0.115-0.149-0.052-0.012-0.143 0.031-0.176 0.078-0.053 0.075-0.076 0.172-0.103 0.262-0.051 0.159-0.077 0.328-0.147 0.478-0.067 0.141-0.159 0.286-0.277 0.385-0.185 0.155-0.382 0.083-0.459-0.145-0.035-0.104-0.055-0.218-0.055-0.326 0.001-0.212 0.032-0.422 0.031-0.634-0.001-0.23-0.136-0.381-0.362-0.368-0.17 0.009-0.359 0.054-0.5 0.144-0.38 0.243-0.62 0.606-0.729 1.043-0.064 0.255-0.029 0.503 0.194 0.684 0.219 0.178 0.468 0.181 0.707 0.064 0.155-0.076 0.286-0.201 0.441-0.314 0.112 0.155 0.272 0.283 0.508 0.272 0.228-0.012 0.405-0.128 0.565-0.279 0.209 0.34 0.377 0.436 0.654 0.381 0.295-0.058 0.467-0.279 0.639-0.509 0.228 0.683 1.128 0.78 1.472-0.132 0.569 0.65 1.085 0.886 1.889 0.847 0.654-0.032 1.172-0.354 1.632-0.79 0.156-0.147 0.297-0.31 0.445-0.466 0.036 0.095 0.041 0.165 0.036 0.235-0.022 0.283-0.046 0.566-0.071 0.849-0.008 0.105-0.009 0.21 0.121 0.239s0.214-0.042 0.254-0.162c0.046-0.137 0.080-0.279 0.132-0.414 0.097-0.254 0.195-0.508 0.311-0.754 0.032-0.065 0.134-0.097 0.203-0.143 0.039 0.071 0.093 0.136 0.113 0.21 0.040 0.149 0.048 0.308 0.094 0.457 0.086 0.288 0.308 0.39 0.589 0.278 0.1-0.040 0.189-0.106 0.293-0.165 0.031 0.219 0.101 0.41 0.329 0.485 0.218 0.071 0.413-0.002 0.59-0.124 0.144 0.218 0.284 0.209 0.397-0.017 0.047-0.095 0.078-0.197 0.127-0.29 0.122-0.23 0.241-0.464 0.382-0.683 0.066-0.103 0.17-0.216 0.32-0.146 0.141 0.066 0.122 0.21 0.121 0.339 0 0.022-0.007 0.044-0.011 0.066-0.028 0.198-0.067 0.396-0.078 0.596-0.003 0.064 0.061 0.18 0.108 0.187 0.068 0.011 0.159-0.043 0.221-0.093 0.042-0.034 0.047-0.109 0.073-0.165 0.125-0.278 0.244-0.56 0.385-0.829 0.032-0.061 0.147-0.116 0.217-0.108 0.051 0.006 0.112 0.115 0.128 0.186 0.038 0.162 0.044 0.33 0.075 0.495 0.083 0.455 0.247 0.589 0.646 0.524 0.008-0.001 0.019 0.008 0.015 0.006-0.033 0.207-0.082 0.408-0.092 0.611-0.011 0.204-0.003 0.415 0.037 0.615 0.035 0.168 0.103 0.343 0.202 0.482 0.11 0.155 0.313 0.104 0.384-0.074 0.022-0.056 0.037-0.118 0.041-0.178 0.021-0.272 0.045-0.544 0.055-0.816 0.009-0.247 0.002-0.495 0.002-0.738 0.037-0.005 0.043-0.008 0.048-0.006 0.043 0.012 0.085 0.025 0.128 0.037 0.68 0.188 1.274 0.019 1.804-0.427 0.090-0.076 0.117-0.17 0.041-0.263zM19.877 13.947c0.020-0.045 0.047-0.098 0.086-0.12 0.058-0.034 0.136-0.071 0.193-0.056 0.045 0.012 0.096 0.097 0.099 0.152 0.006 0.12-0.003 0.245-0.029 0.363-0.099 0.448-0.31 0.843-0.593 1.203-0.017 0.021-0.020 0.053-0.029 0.079-0.019-0.013-0.038-0.026-0.057-0.040 0.066-0.536 0.101-1.079 0.33-1.583zM14.3 14.261c0.025-0.066 0.057-0.14 0.107-0.185s0.146-0.1 0.194-0.081c0.060 0.025 0.121 0.117 0.126 0.185 0.009 0.101-0.011 0.215-0.051 0.309-0.197 0.457-0.404 0.909-0.607 1.363-0.024-0.008-0.048-0.017-0.073-0.025 0.064-0.528 0.107-1.061 0.303-1.565zM11.031 16.798c-0.046 0.101-0.156 0.195-0.259 0.246-0.274 0.135-0.519-0.043-0.481-0.343 0.052-0.398 0.275-0.688 0.616-0.885 0.232-0.134 0.359-0.045 0.354 0.223 0.014 0.005 0.028 0.009 0.042 0.015-0.088 0.248-0.162 0.504-0.272 0.743zM25.546 18.729c-0.147-0.387-0.123-0.774 0-1.16 0 0.386 0 0.774 0 1.16zM26.771 17.031c-0.228 0.087-0.457 0.073-0.683-0.017-0.162-0.064-0.236-0.177-0.217-0.35-0.002-0.22 0.083-0.397 0.296-0.476 0.243-0.092 0.5-0.155 0.731 0.024 0.281 0.217 0.204 0.694-0.126 0.82zM9.834 17.224c-0.177-0.017-0.295-0.118-0.374-0.272-0.112-0.218-0.129-0.453-0.085-0.684 0.074-0.387 0.17-0.769 0.253-1.156 0.049-0.233 0.114-0.466 0.127-0.702 0.020-0.351-0.196-0.519-0.544-0.463-0.305 0.048-0.524 0.236-0.721 0.453-0.466 0.514-0.769 1.128-1.070 1.745-0.092 0.187-0.181 0.376-0.272 0.563-0.019-0.004-0.037-0.008-0.056-0.013 0.025-0.204 0.047-0.409 0.078-0.614 0.057-0.384 0.135-0.767 0.173-1.153 0.021-0.213 0.008-0.457-0.229-0.565s-0.431 0.038-0.58 0.193c-0.256 0.269-0.501 0.554-0.718 0.854-0.247 0.341-0.459 0.708-0.712 1.104 0.025-0.101 0.040-0.158 0.054-0.215 0.080-0.353 0.179-0.702 0.236-1.058 0.054-0.336 0.066-0.677-0.075-1.003-0.101-0.235-0.27-0.382-0.529-0.4-0.266-0.018-0.491 0.080-0.66 0.292-0.033 0.041-0.058 0.1-0.059 0.152-0.001 0.056 0.016 0.14 0.053 0.16 0.047 0.026 0.129 0.017 0.184-0.007 0.069-0.031 0.122-0.096 0.186-0.139 0.183-0.121 0.36-0.081 0.465 0.112 0.042 0.077 0.079 0.166 0.081 0.25 0.006 0.216 0.024 0.438-0.019 0.646-0.103 0.5-0.243 0.993-0.359 1.491-0.044 0.188-0.073 0.382-0.087 0.575-0.004 0.054 0.058 0.14 0.111 0.162s0.148 0.002 0.195-0.037c0.079-0.066 0.142-0.157 0.197-0.246 0.17-0.275 0.324-0.559 0.502-0.828 0.316-0.478 0.636-0.952 0.971-1.417 0.087-0.122 0.237-0.199 0.357-0.297 0.017 0.013 0.035 0.026 0.052 0.039 0 0.076 0.007 0.153-0.001 0.228-0.028 0.255-0.065 0.507-0.094 0.762-0.042 0.368-0.088 0.738-0.115 1.107-0.009 0.137 0.055 0.268 0.201 0.316 0.159 0.052 0.304 0.002 0.402-0.129 0.089-0.119 0.166-0.25 0.233-0.384 0.204-0.407 0.39-0.825 0.603-1.228 0.199-0.377 0.447-0.722 0.811-0.96 0.093-0.060 0.22-0.065 0.332-0.096 0.006 0.112 0.036 0.228 0.014 0.335-0.082 0.38-0.203 0.754-0.268 1.137-0.059 0.342-0.103 0.697-0.081 1.041 0.027 0.421 0.425 0.711 0.818 0.659 0.102-0.014 0.208-0.041 0.209-0.172 0.001-0.121-0.095-0.131-0.188-0.14zM21.614 15.503c0.201 0.009 0.367-0.155 0.373-0.367 0.003-0.165-0.093-0.289-0.229-0.296-0.187-0.009-0.352 0.186-0.358 0.425-0.004 0.148 0.071 0.232 0.216 0.238zM12.826 15.371c0.186 0.002 0.314-0.128 0.308-0.313-0.005-0.156-0.1-0.259-0.241-0.262-0.167-0.003-0.282 0.136-0.28 0.34 0.001 0.157 0.071 0.233 0.214 0.235z"></path>
</svg>
