<!-- Generated by IcoMoon.io -->
<svg version="1.1" xmlns="http://www.w3.org/2000/svg" width="32" height="32" viewBox="0 0 32 32">
<title>markdown</title>
<path d="M28.323 7.364h-24.647c-1.145 0-2.076 0.931-2.076 2.076v13.846c0 1.145 0.931 2.076 2.076 2.076h24.647c1.145 0 2.076-0.931 2.076-2.076v-13.846c0-1.145-0.931-2.076-2.076-2.076zM17.8 21.76l-3.6 0.004v-5.4l-2.701 3.461-2.701-3.461v5.4h-3.6v-10.8h3.6l2.701 3.6 2.701-3.6 3.6-0.004v10.8zM23.174 22.661l-4.474-6.297h2.699v-5.4h3.6v5.4h2.699l-4.526 6.297z"></path>
</svg>
