<!-- Generated by IcoMoon.io -->
<svg version="1.1" xmlns="http://www.w3.org/2000/svg" width="34" height="32" viewBox="0 0 34 32">
<title>materializecss</title>
<path d="M26.265 17.884l0.034 0.018-0.072-0.028c0.013 0 0.027 0.003 0.038 0.010zM26.265 17.884c0.010 0.008 0.023 0.012 0.036 0.014l-0.072-0.028 0.036 0.013zM26.221 18.020c-0.022 0.075-0.043 0.167-0.057 0.262l-0.002 0.013c-0.016 0.107-0.037 0.2-0.063 0.291l0.004-0.016-0.075-0.021c0.031-0.106 0.064-0.193 0.102-0.278l-0.006 0.014c0.031-0.069 0.064-0.156 0.092-0.246l0.005-0.017zM26.221 18.020c-0.022 0.075-0.043 0.167-0.057 0.262l-0.002 0.013c-0.014 0.103-0.033 0.185-0.059 0.274l-0.075-0.021c0.026-0.089 0.060-0.177 0.096-0.263l0.096-0.263zM24.117 23.544c-0.103-0.023-0.172-0.078-0.242-0.141-0.033-0.034-0.068-0.066-0.096-0.103l-0.044-0.056-0.041-0.059c-0.094-0.142-0.182-0.306-0.256-0.478l-0.008-0.021-0.204-0.528-0.172-0.539-0.295-1.090-0.257-1.101-0.46-2.214-0.216-1.111-0.206-1.111h0.072l-0.002 0.014v-0.012l0.206 1.113 0.209 1.113 0.442 2.22 0.247 1.105 0.285 1.094 0.366 1.070c0.081 0.193 0.168 0.357 0.268 0.513l-0.008-0.013 0.039 0.059 0.043 0.056c0.028 0.038 0.062 0.070 0.093 0.105 0.064 0.064 0.144 0.113 0.234 0.14l0.004 0.001h-0.001l0.086-0.007c0.029-0.002 0.056-0.013 0.082-0.018s0.055-0.018 0.080-0.031 0.053-0.023 0.077-0.039l0.072-0.046 0.068-0.055c0.023-0.017 0.041-0.041 0.062-0.060s0.041-0.041 0.060-0.062l0.108-0.136c0.016-0.024 0.036-0.046 0.049-0.072l0.043-0.076 0.043-0.075c0.015-0.025 0.027-0.051 0.039-0.077l0.076-0.156 0.005 0.002-0.165 0.3-0.095 0.142c-0.033 0.046-0.069 0.090-0.107 0.134-0.018 0.021-0.039 0.041-0.059 0.062s-0.041 0.039-0.062 0.058c-0.041 0.035-0.086 0.068-0.134 0.097l-0.005 0.003c-0.026 0.012-0.049 0.029-0.076 0.038l-0.080 0.029c-0.024 0.008-0.052 0.014-0.081 0.017l-0.002 0c-0.028 0.004-0.057 0.004-0.085 0.006zM24.117 23.544c0.029-0.002 0.058-0.001 0.085-0.007s0.057-0.010 0.082-0.018c0.032-0.009 0.058-0.019 0.084-0.030l-0.004 0.002c0.027-0.010 0.051-0.026 0.076-0.038 0.052-0.031 0.098-0.064 0.14-0.101l-0.001 0.001 0.062-0.058 0.059-0.062c0.038-0.041 0.072-0.087 0.107-0.134l0.095-0.142c0.048-0.078 0.102-0.176 0.152-0.277l0.010-0.023 0.005 0.003-0.075 0.156-0.039 0.077-0.043 0.075-0.043 0.076c-0.013 0.027-0.033 0.048-0.049 0.072-0.033 0.048-0.070 0.103-0.107 0.137-0.017 0.024-0.039 0.043-0.060 0.064l-0.062 0.062-0.068 0.055c-0.023 0.018-0.049 0.031-0.072 0.047-0.022 0.014-0.048 0.028-0.075 0.039l-0.003 0.001c-0.027 0.010-0.051 0.025-0.082 0.031s-0.057 0.017-0.085 0.021l-0.089 0.007c-0.096-0.028-0.178-0.077-0.245-0.142l0 0-0.097-0.105-0.044-0.056-0.041-0.059c-0.094-0.143-0.184-0.307-0.259-0.478l-0.008-0.021c-0.15-0.347-0.272-0.706-0.381-1.068l-0.298-1.093-0.257-1.103-0.455-2.219-0.211-1.113-0.202-1.131 0.001-0.005 0.002-0.012 0.036-0.2 0.034 0.199 0.201 1.111 0.206 1.111 0.436 2.218 0.247 1.103 0.286 1.093 0.17 0.539 0.201 0.528c0.081 0.193 0.169 0.357 0.27 0.513l-0.008-0.013 0.039 0.059 0.044 0.056c0.028 0.038 0.062 0.070 0.095 0.105 0.070 0.062 0.148 0.119 0.241 0.142zM14.906 23.544l-0.053 0.021-0.057 0.008c-0.093-0.023-0.175-0.079-0.244-0.144-0.033-0.034-0.068-0.067-0.096-0.106l-0.044-0.056-0.041-0.060c-0.106-0.158-0.189-0.329-0.265-0.504l-0.206-0.533-0.173-0.545-0.154-0.55-0.142-0.553-0.259-1.111-0.463-2.237-0.206-1.131-0.106-0.561-0.103-0.563h0.061l-0.008 0.043-0.008 0.041v-0.010l0.103 0.557 0.107 0.557 0.216 1.114 0.453 2.224 0.252 1.106 0.288 1.096c0.122 0.432 0.248 0.787 0.393 1.132l-0.024-0.063c0.082 0.193 0.17 0.356 0.27 0.511l-0.008-0.013c0.051 0.079 0.111 0.15 0.177 0.206 0.064 0.062 0.142 0.11 0.229 0.139l0 0c0.057-0.001 0.111-0.024 0.159-0.056 0.049-0.035 0.091-0.074 0.128-0.119l0.001-0.001c0.021-0.021 0.038-0.046 0.056-0.070l0.051-0.074 0.093-0.154c0.098-0.182 0.195-0.401 0.277-0.627l0.012-0.036 0.062-0.171c0.021-0.057 0.038-0.113 0.055-0.173l0.103-0.35 0.202-0.699 0.010 0.003-0.411 1.323-0.123 0.323-0.144 0.315c-0.025 0.051-0.055 0.103-0.082 0.152l-0.095 0.144-0.051 0.069-0.058 0.064-0.066 0.057c-0.024 0.016-0.049 0.031-0.074 0.044zM14.906 23.544l0.074-0.045 0.065-0.057 0.058-0.064c0.018-0.021 0.035-0.046 0.051-0.069 0.035-0.045 0.062-0.097 0.093-0.144l0.082-0.152 0.142-0.315 0.123-0.323 0.396-1.324 0.010 0.003-0.197 0.699-0.098 0.35-0.053 0.175-0.060 0.172c-0.082 0.228-0.172 0.453-0.285 0.669l-0.093 0.158-0.051 0.076-0.057 0.072c-0.021 0.024-0.084 0.090-0.134 0.128s-0.113 0.062-0.178 0.064h-0.002l-0.002-0.001c-0.097-0.026-0.178-0.082-0.251-0.146s-0.132-0.141-0.185-0.221c-0.108-0.158-0.193-0.329-0.272-0.502-0.151-0.35-0.274-0.71-0.381-1.070l-0.298-1.096-0.257-1.107-0.459-2.224-0.319-1.673-0.101-0.566 0.001-0.005 0.008-0.045 0.008-0.043 0.035-0.175 0.031 0.175 0.2 1.124 0.206 1.123 0.44 2.24 0.538 2.219 0.171 0.545 0.203 0.535c0.082 0.195 0.17 0.361 0.271 0.518l-0.008-0.013 0.041 0.060 0.044 0.057c0.028 0.038 0.062 0.072 0.096 0.106 0.070 0.064 0.149 0.12 0.243 0.144l0.057-0.008 0.053-0.021z"></path>
<path d="M5.422 23.545c-0.029-0.031-0.072-0.044-0.103-0.069-0.019-0.012-0.035-0.024-0.051-0.038l0.001 0.001c-0.015-0.013-0.033-0.027-0.046-0.041-0.062-0.058-0.109-0.128-0.154-0.199-0.025-0.034-0.041-0.072-0.062-0.109s-0.039-0.074-0.056-0.113l-0.051-0.113-0.045-0.117c-0.031-0.077-0.058-0.157-0.082-0.237l-0.074-0.24-0.127-0.487-0.107-0.491-0.103-0.494-0.090-0.494-0.105-0.49-0.058-0.244-0.065-0.242-0.144-0.479-0.173-0.469c-0.060-0.156-0.134-0.305-0.204-0.456l-0.119-0.219c-0.041-0.072-0.088-0.141-0.132-0.211s-0.097-0.134-0.146-0.202-0.106-0.127-0.161-0.188-0.117-0.115-0.179-0.171-0.131-0.1-0.195-0.149c-0.030-0.023-0.065-0.044-0.101-0.062l-0.004-0.002-0.109-0.059c-0.074-0.036-0.154-0.060-0.229-0.090l0.010 0.001h-0.082l0.007-0.062 0.245 0.082 0.116 0.056c0.039 0.018 0.078 0.036 0.103 0.062 0.153 0.093 0.284 0.199 0.402 0.319l0 0c0.123 0.12 0.228 0.255 0.327 0.395l0.139 0.216 0.125 0.223 0.213 0.463c0.069 0.156 0.121 0.319 0.179 0.477l0.075 0.243 0.072 0.245 0.123 0.494 0.106 0.498 0.18 0.998 0.103 0.496 0.123 0.491 0.072 0.243 0.082 0.239 0.044 0.118 0.051 0.115 0.054 0.103c0.021 0.037 0.037 0.075 0.062 0.109 0.044 0.074 0.093 0.139 0.149 0.197l-0-0c0.013 0.015 0.029 0.029 0.044 0.041s0.031 0.026 0.048 0.036c0.033 0.026 0.070 0.034 0.111 0.077l-0.021-0.010c0.056-0.001 0.11-0.024 0.158-0.056 0.049-0.035 0.092-0.075 0.13-0.119l0.001-0.001c0.036-0.043 0.072-0.091 0.104-0.141l0.004-0.006 0.103-0.158c0.099-0.186 0.198-0.41 0.282-0.642l0.012-0.037 0.060-0.175 0.168-0.532 0.197-0.715 0.038 0.010-0.202 0.71-0.234 0.699c-0.085 0.23-0.18 0.459-0.296 0.675-0.062 0.116-0.13 0.217-0.207 0.309l0.002-0.003c-0.041 0.046-0.085 0.089-0.136 0.123s-0.11 0.058-0.172 0.058zM5.422 23.545c0.064-0.003 0.123-0.025 0.172-0.060l-0.001 0.001c0.051-0.036 0.095-0.077 0.133-0.123l0.001-0.001c0.073-0.090 0.139-0.191 0.195-0.299l0.005-0.010c0.113-0.216 0.204-0.446 0.288-0.677 0.165-0.463 0.293-0.926 0.417-1.411l0.038 0.010-0.195 0.718-0.165 0.533-0.060 0.177c-0.084 0.233-0.177 0.465-0.293 0.686l-0.093 0.163c-0.037 0.058-0.074 0.108-0.113 0.156l0.002-0.003c-0.041 0.047-0.085 0.096-0.141 0.131-0.052 0.038-0.117 0.062-0.187 0.065l-0.001 0h-0.012l-0.010-0.010c-0.018-0.021-0.064-0.039-0.099-0.065-0.019-0.010-0.036-0.025-0.051-0.039-0.018-0.014-0.034-0.028-0.048-0.044l-0-0c-0.062-0.062-0.113-0.134-0.157-0.206-0.025-0.036-0.041-0.075-0.062-0.113-0.018-0.032-0.037-0.070-0.053-0.109l-0.002-0.007-0.051-0.117-0.045-0.119c-0.031-0.079-0.057-0.16-0.082-0.241l-0.072-0.244-0.125-0.494-0.103-0.498-0.093-0.5-0.103-0.498-0.107-0.494-0.125-0.491-0.072-0.243-0.076-0.241-0.175-0.473c-0.060-0.157-0.136-0.309-0.208-0.459l-0.123-0.22-0.136-0.212c-0.096-0.137-0.199-0.27-0.317-0.387-0.114-0.117-0.241-0.22-0.38-0.306l-0.009-0.005c-0.034-0.025-0.072-0.041-0.109-0.060l-0.113-0.055c-0.076-0.031-0.157-0.053-0.237-0.080l-0.18-0.062 0.276 0.001 0.003 0.001 0.237 0.095 0.113 0.062c0.038 0.021 0.075 0.041 0.108 0.067 0.068 0.051 0.142 0.095 0.202 0.154s0.129 0.111 0.182 0.175 0.116 0.123 0.165 0.193l0.147 0.206 0.134 0.216 0.119 0.222 0.204 0.461c0.066 0.154 0.115 0.315 0.172 0.473l0.141 0.483 0.064 0.243 0.057 0.245 0.103 0.492 0.088 0.494 0.086 0.494 0.1 0.492 0.12 0.487 0.070 0.241 0.080 0.237 0.043 0.117 0.051 0.115c0.015 0.039 0.034 0.076 0.054 0.103l0.062 0.11c0.044 0.072 0.090 0.141 0.15 0.2 0.013 0.015 0.031 0.031 0.046 0.041l0.049 0.038c0.018 0.010 0.075 0.039 0.103 0.072zM28.51 23.599s0.946-0.541 1.136-2.623c0.271-2.921 0.757-3.948 2.299-4.462h-4.408c-0.473 0.079-0.792 0.339-1.032 0.847 0.001 0.002 0.001 0.004 0.001 0.005s-0.002 0.005-0.004 0.007l0.004 0.021c-0.319 0.586-0.533 1.517-0.72 2.769-0.206 1.203-0.502 2.238-0.895 2.822-0.229 0.372-0.494 0.588-0.792 0.588z"></path>
<path d="M26.488 17.403c-0.001-0.007-0.002-0.013-0.004-0.021-0.076 0.139-0.15 0.305-0.211 0.476l-0.008 0.025c-0.001 0.001-0.001 0.002-0.001 0.002l-0.043 0.134-0.154 0.538c-0.113 0.461-0.213 1.001-0.304 1.619-0.17 0.992-0.401 1.868-0.693 2.469-0.067 0.149-0.137 0.284-0.211 0.401 0.396-0.59 0.694-1.636 0.905-2.854 0.188-1.265 0.404-2.209 0.727-2.802z"></path>
<path d="M23.758 8.407c-0.075 0.002-0.142 0.038-0.201 0.080-0.056 0.048-0.106 0.1-0.148 0.158l-0.002 0.002c-0.088 0.117-0.159 0.247-0.222 0.379l-0.175 0.404-0.147 0.415-0.132 0.422-0.12 0.424-0.206 0.854-0.72 3.453-0.024 0.132-0.023-0.134v-0.013l0.047-0.001-0.002 0.010v-0.008l0.206 1.111 0.211 1.111 0.453 2.215 0.253 1.101 0.292 1.090 0.171 0.537 0.202 0.514c0.076 0.171 0.158 0.339 0.261 0.494l0.039 0.058 0.043 0.053c0.027 0.037 0.062 0.068 0.093 0.101 0.061 0.060 0.136 0.105 0.22 0.131l0.004 0.001-0.008-0.001c0.13-0.003 0.251-0.045 0.35-0.114l-0.002 0.001c0.106-0.074 0.196-0.161 0.271-0.259l0.002-0.003c0.074-0.095 0.144-0.201 0.204-0.313l0.006-0.012 0.087-0.172 0.076-0.182c0.027-0.062 0.046-0.121 0.070-0.183l0.065-0.185 0.115-0.374 0.101-0.379 0.089-0.383 0.078-0.385 0.216-1.16 0.084-0.386 0.087-0.385c0.013-0.065 0.031-0.13 0.051-0.191l0.055-0.189 0.116-0.381-0.001 0.003 0.093-0.251 0.053-0.123 0.055-0.123 0.036-0.082 0.017 0.089 0.004 0.021-0.053-0.006 0.016-0.031-0.002 0.017-0.098-0.586-0.103-0.584-0.206-1.166-0.46-2.327-0.257-1.157-0.293-1.149-0.173-0.566-0.206-0.555c-0.076-0.182-0.159-0.362-0.267-0.528l-0.085-0.12-0.046-0.058-0.051-0.053c-0.072-0.068-0.152-0.129-0.249-0.151l-0.178-0.001c-0.031 0.001-0.060-0.002-0.089 0.003l-0.023 0.003c-0.007 0.001-0.015 0.001-0.021 0.004l-0.041 0.016h0.157zM23.758 8.407l-0.161 0.001 0.045-0.018c0.007-0.003 0.014-0.003 0.023-0.004l0.021-0.003c0.031-0.006 0.060-0.003 0.089-0.004l0.18-0.001c0.1 0.029 0.185 0.081 0.253 0.151l0 0 0.051 0.053 0.047 0.058c0.033 0.038 0.059 0.080 0.086 0.12 0.096 0.15 0.187 0.323 0.264 0.504l0.009 0.023 0.21 0.555 0.178 0.566 0.566 2.304 0.467 2.327 0.22 1.165 0.105 0.584 0.101 0.595-0.021 0.039-0.038 0.075-0.015-0.082-0.003-0.018 0.053 0.006-0.105 0.243-0.103 0.252-0.111 0.372-0.055 0.189-0.049 0.189-0.085 0.383-0.082 0.384-0.142 0.775-0.070 0.388-0.078 0.387-0.088 0.385-0.101 0.381-0.115 0.379-0.065 0.187-0.070 0.185-0.075 0.182-0.090 0.179c-0.069 0.128-0.141 0.238-0.22 0.341l0.004-0.006c-0.082 0.109-0.178 0.202-0.287 0.277l-0.004 0.003c-0.109 0.076-0.244 0.123-0.389 0.125h-0.005l-0.004-0.001c-0.103-0.025-0.185-0.085-0.257-0.151-0.034-0.035-0.070-0.069-0.098-0.108l-0.045-0.057-0.041-0.060c-0.106-0.16-0.189-0.332-0.265-0.504-0.057-0.125-0.125-0.301-0.187-0.479l-0.015-0.051-0.171-0.541-0.288-1.094-0.251-1.103-0.444-2.218-0.208-1.111-0.202-1.118 0.002-0.008 0.028-0.116 0.021 0.115 0.002 0.013-0.047-0.001 0.339-1.731 0.387-1.721 0.224-0.854 0.123-0.422 0.136-0.42 0.151-0.415 0.177-0.404c0.065-0.132 0.137-0.261 0.226-0.377 0.044-0.059 0.096-0.113 0.152-0.159s0.128-0.078 0.203-0.079zM26.484 17.384c0.001-0.002 0.002-0.005 0.004-0.007s-0.001-0.004-0.001-0.005-0.002 0.005-0.003 0.007 0 0.004 0.001 0.006z"></path>
<path d="M26.264 17.888v0zM26.467 17.409c-0.001-0.006-0.002-0.013-0.004-0.021-0.070 0.148-0.137 0.314-0.199 0.494 0.069-0.197 0.143-0.362 0.229-0.52l-0.009 0.019c0-0.002-0.001-0.004-0.001-0.005l-0.015 0.031zM25.068 22.657c0.293-0.611 0.523-1.488 0.693-2.469l0.304-1.619-0.339 1.677c-0.165 0.955-0.381 1.806-0.658 2.422zM19.16 23.624c0.704-0.163 1.296-2.162 2.297-7.612l0.183-1.047-0.017-0.101 0.003-0.012-0.003-0.014c0.634-3.267 1.29-6.124 1.949-6.421h-3.894c-0.037-0.016-0.074-0.027-0.111-0.027h-0.243c-0.676 0.161-1.27 2.135-2.27 7.612l-0.062 0.352 0.005 0.026c-0.001 0.005-0.001 0.010-0.003 0.013l0.003 0.013-1.301 5.696c-0.267 0.828-0.535 1.373-0.802 1.494z"></path>
<path d="M21.641 14.885l-0.003 0.012 0.017 0.103c0.001-0.004 0.002-0.010 0.002-0.013l-0.017-0.101zM16.976 16.448l-0.98 4.605-0.327 1.145c0.444-1.33 0.888-3.458 1.31-5.737l-0.003-0.013z"></path>
<path d="M21.629 14.872l0.003 0.014c0.638-3.31 1.296-6.172 1.96-6.48-0.663 0.309-1.325 3.175-1.963 6.465z"></path>
<path d="M21.663 14.992c0.653-3.538 1.389-6.586 2.095-6.586h-0.157c-0.662 0.298-1.323 3.168-1.96 6.48l0.017 0.101c0-0.002 0.001-0.004 0.001-0.007 0.001 0.004 0.002 0.008 0.002 0.013zM16.972 16.432l-0.847-4.161-0.525-2.055-0.36-0.995c-0.072-0.16-0.154-0.317-0.253-0.461-0.049-0.072-0.106-0.138-0.168-0.197-0.065-0.055-0.137-0.103-0.218-0.123l0.006 0.001c-0.072 0.001-0.154-0.002-0.221 0.003-0.018 0.003-0.039 0.003-0.053 0.010l-0.045 0.018c-0.015 0.007-0.031 0.018-0.044 0.028-0.016 0.010-0.030 0.021-0.042 0.033v0c-0.108 0.095-0.189 0.222-0.261 0.35s-0.134 0.265-0.19 0.401l-0.158 0.419c-0.195 0.566-0.348 1.144-0.491 1.724l-0.391 1.752-0.35 1.761v-0.013l0.101 0.562 0.103 0.562 0.209 1.121 0.447 2.238 0.252 1.113 0.139 0.553 0.151 0.549 0.17 0.543 0.202 0.532c0.081 0.194 0.169 0.358 0.269 0.514l-0.008-0.013 0.039 0.059 0.043 0.055c0.028 0.038 0.062 0.070 0.093 0.103 0.068 0.062 0.144 0.116 0.231 0.137l-0.005-0.001 0.051-0.008 0.049-0.018c0.035-0.021 0.070-0.039 0.096-0.065 0.057-0.047 0.106-0.11 0.151-0.173 0.089-0.129 0.161-0.27 0.226-0.411l0.179-0.439 0.154-0.45 0.264-0.912 0.206-0.926 0.216-0.926 0.103-0.463 0.093-0.466 0.281-1.399 0.093-0.467zM16.972 16.432l-0.087 0.468-0.358 1.869-0.099 0.465-0.314 1.393-0.107 0.463-0.261 0.926-0.154 0.453-0.179 0.442c-0.067 0.144-0.139 0.288-0.23 0.422-0.047 0.070-0.1 0.13-0.16 0.183l-0.001 0.001c-0.031 0.031-0.066 0.048-0.101 0.069-0.023 0.010-0.041 0.015-0.062 0.024s-0.043 0.007-0.065 0.010h-0.002l-0.004-0.001c-0.1-0.029-0.186-0.080-0.255-0.149v0c-0.034-0.035-0.070-0.069-0.098-0.108l-0.045-0.057-0.041-0.060c-0.095-0.145-0.185-0.313-0.259-0.488l-0.008-0.021-0.206-0.535-0.173-0.545-0.154-0.55-0.141-0.555-0.257-1.114-0.455-2.238-0.213-1.121-0.105-0.562-0.1-0.569 0.001-0.007 0.356-1.761 0.398-1.753 0.498-1.728 0.16-0.422 0.195-0.407c0.074-0.141 0.166-0.261 0.274-0.364l0.001-0.001c0.014-0.013 0.031-0.026 0.046-0.036l0.051-0.031 0.060-0.023c0.021-0.007 0.037-0.006 0.057-0.010 0.082-0.005 0.151-0.001 0.228-0.002h0.003l0.003 0.001c0.103 0.024 0.171 0.076 0.241 0.134s0.123 0.132 0.175 0.206c0.103 0.148 0.185 0.307 0.257 0.47 0.144 0.325 0.257 0.662 0.36 1.002l0.517 2.060 0.808 4.169z"></path>
<path d="M16.976 16.447l0.003-0.013c-0.001-0.008-0.003-0.017-0.005-0.026-0.001 0.005-0.002 0.010-0.002 0.014s0.003 0.016 0.004 0.026z"></path>
<path d="M16.955 16.516l-0.959 4.526 0.98-4.605-0.004-0.026-0.016 0.095zM9.842 23.599c0.704-0.161 1.268-2.109 2.269-7.571l0.185-1.051-0.015-0.085 0.767-3.597c0.388-1.59 0.786-2.71 1.186-2.89h-4.258c-0.676 0.163-1.27 2.135-2.298 7.622l-0.187 0.985c0.006 0.008 0.012 0.014 0.019 0.023l-0.004 0.023c0.001 0.002 0.003 0.003 0.004 0.005l-1.227 5.159c-0.29 0.858-0.583 1.378-0.874 1.378h3.024z"></path>
<path d="M12.323 14.923l-0.005-0.026 0.744-3.59-0.771 3.616 0.015 0.086 0.005-0.031 0.010-0.057zM7.492 17.104l-0.843 3.866-0.385 1.321c0.417-1.195 0.83-3.101 1.232-5.181-0.002-0.002-0.003-0.003-0.004-0.005zM13.062 11.311c0.43-1.731 0.867-2.904 1.303-2.904h-0.111c-0.411 0.18-0.802 1.306-1.193 2.904z"></path>
<path d="M14.404 8.406h-0.038c-0.436 0-0.874 1.173-1.303 2.904l-0.744 3.59 0.005 0.026c0.676-3.497 1.378-6.517 2.081-6.517zM4.399 20.852l0.067 0.363 0.072 0.362 0.082 0.36 0.095 0.357c0.031 0.119 0.072 0.235 0.11 0.352l0.066 0.173c0.021 0.058 0.049 0.103 0.072 0.169s0.057 0.109 0.082 0.165c0.014 0.028 0.033 0.051 0.048 0.078 0.017 0.028 0.034 0.053 0.053 0.076l-0.001-0.001c0.021 0.024 0.078 0.095 0.125 0.134 0.023 0.021 0.049 0.036 0.075 0.051s0.054 0.028 0.078 0.053l-0.006-0.003c0.069-0.002 0.134-0.031 0.189-0.074s0.103-0.095 0.144-0.151c0.078-0.105 0.149-0.224 0.208-0.349l0.005-0.013c0.104-0.212 0.208-0.473 0.296-0.74l0.013-0.046 0.243-0.811 0.107-0.408 0.093-0.411 0.188-0.826 0.095-0.411 0.086-0.415 0.333-1.659 0.006 0.029-0.012-0.016-0.010-0.014 0.003-0.016 0.025-0.128 0.008 0.031-0.111-0.127-0.123-0.113c-0.044-0.033-0.085-0.072-0.134-0.099l-0.070-0.044-0.075-0.035c-0.048-0.026-0.103-0.039-0.154-0.058s-0.108-0.025-0.163-0.036l-0.165-0.015-1.543-0.003-2.741-0.014 0.005-0.038c0.099 0.041 0.203 0.070 0.294 0.128 0.046 0.027 0.096 0.048 0.139 0.080l0.13 0.093c0.045 0.029 0.082 0.069 0.121 0.103s0.082 0.069 0.115 0.11c0.070 0.080 0.146 0.154 0.206 0.243l0.095 0.128 0.085 0.134 0.082 0.136 0.075 0.14c0.051 0.103 0.095 0.189 0.139 0.286s0.082 0.195 0.123 0.293l0.11 0.309 0.051 0.15 0.046 0.152 0.088 0.304 0.080 0.309 0.072 0.309 0.064 0.311 0.059 0.312 0.053 0.313zM4.399 20.852l-0.056-0.313-0.060-0.312-0.066-0.311-0.072-0.309-0.082-0.307-0.089-0.304-0.046-0.151-0.051-0.149-0.111-0.298-0.123-0.291-0.141-0.284-0.076-0.139c-0.026-0.046-0.057-0.089-0.084-0.134l-0.086-0.134-0.096-0.125c-0.062-0.086-0.137-0.159-0.206-0.239-0.035-0.041-0.077-0.072-0.115-0.107s-0.076-0.072-0.12-0.101l-0.129-0.090c-0.041-0.031-0.093-0.051-0.137-0.077-0.089-0.055-0.192-0.082-0.288-0.121l-0.093-0.037 4.38-0.018c0.062 0.001 0.117 0.010 0.175 0.015l0.172 0.037c0.056 0.018 0.103 0.033 0.165 0.062l0.080 0.037 0.075 0.046c0.051 0.029 0.096 0.069 0.142 0.103s0.085 0.080 0.128 0.12l0.127 0.144-0.003 0.018-0.025 0.129-0.007-0.031 0.023 0.033-0.003 0.015-0.341 1.66-0.087 0.415-0.098 0.411-0.295 1.234-0.113 0.409-0.261 0.812c-0.093 0.267-0.193 0.532-0.309 0.786-0.068 0.139-0.141 0.258-0.224 0.369l0.004-0.006c-0.044 0.058-0.093 0.108-0.147 0.151l-0.002 0.001c-0.057 0.043-0.127 0.074-0.2 0.075h-0.003l-0.003-0.003c-0.019-0.021-0.047-0.034-0.072-0.051s-0.051-0.033-0.076-0.055c-0.048-0.039-0.089-0.085-0.127-0.134-0.019-0.022-0.036-0.047-0.051-0.074l-0.001-0.003-0.048-0.079-0.082-0.165-0.072-0.17-0.065-0.173-0.109-0.353-0.103-0.357-0.082-0.36-0.072-0.362-0.066-0.363z"></path>
<path d="M7.492 17.103l0.004-0.023-0.019-0.023-0.004 0.023 0.019 0.023zM7.449 17.209l0.012 0.018-0.813 3.742 0.843-3.866-0.019-0.023-0.025 0.129z"></path>
</svg>
