<!-- Generated by IcoMoon.io -->
<svg version="1.1" xmlns="http://www.w3.org/2000/svg" width="34" height="32" viewBox="0 0 34 32">
<title>materializecss</title>
<path d="M26.007 17.832l0.033 0.018-0.070-0.027c0.013 0 0.026 0.003 0.037 0.010zM26.007 17.832c0.010 0.008 0.022 0.012 0.035 0.014l-0.070-0.027 0.035 0.013zM25.964 17.964c-0.021 0.073-0.041 0.163-0.055 0.255l-0.002 0.012c-0.016 0.104-0.036 0.195-0.061 0.282l0.004-0.015-0.073-0.020c0.030-0.103 0.062-0.188 0.099-0.271l-0.005 0.014c0.030-0.067 0.062-0.152 0.089-0.239l0.005-0.017zM25.964 17.964c-0.021 0.073-0.041 0.163-0.055 0.255l-0.002 0.012c-0.014 0.1-0.032 0.18-0.057 0.266l-0.073-0.020c0.025-0.087 0.058-0.172 0.093-0.256l0.093-0.256zM23.919 23.334c-0.1-0.022-0.167-0.076-0.235-0.137-0.032-0.033-0.066-0.064-0.093-0.1l-0.043-0.054-0.040-0.057c-0.091-0.138-0.177-0.298-0.249-0.465l-0.008-0.020-0.198-0.513-0.167-0.524-0.287-1.060-0.25-1.070-0.447-2.152-0.21-1.080-0.2-1.080h0.070l-0.002 0.014v-0.012l0.2 1.082 0.203 1.082 0.43 2.158 0.24 1.074 0.277 1.064 0.356 1.040c0.078 0.188 0.163 0.348 0.261 0.498l-0.008-0.012 0.038 0.057 0.042 0.054c0.027 0.037 0.060 0.068 0.090 0.102 0.063 0.062 0.14 0.11 0.227 0.136l0.004 0.001h-0.001l0.084-0.007c0.028-0.002 0.054-0.013 0.080-0.018s0.053-0.018 0.078-0.030 0.052-0.022 0.075-0.038l0.070-0.045 0.066-0.053c0.022-0.017 0.040-0.040 0.060-0.058s0.040-0.040 0.058-0.060l0.105-0.132c0.016-0.023 0.035-0.045 0.048-0.070l0.042-0.074 0.042-0.073c0.015-0.024 0.026-0.050 0.038-0.075l0.074-0.152 0.005 0.002-0.16 0.292-0.092 0.138c-0.032 0.045-0.067 0.088-0.104 0.13-0.018 0.020-0.038 0.040-0.057 0.060s-0.040 0.038-0.060 0.056c-0.040 0.034-0.084 0.066-0.13 0.094l-0.005 0.003c-0.025 0.012-0.048 0.028-0.074 0.037l-0.078 0.028c-0.023 0.007-0.051 0.013-0.079 0.017l-0.002 0c-0.027 0.004-0.055 0.004-0.083 0.006zM23.919 23.334c0.028-0.002 0.056-0.001 0.083-0.007s0.055-0.010 0.080-0.018c0.031-0.009 0.057-0.018 0.082-0.029l-0.004 0.001c0.026-0.010 0.050-0.025 0.074-0.037 0.051-0.030 0.095-0.062 0.136-0.098l-0.001 0.001 0.060-0.056 0.057-0.060c0.037-0.040 0.070-0.085 0.104-0.13l0.092-0.138c0.047-0.076 0.099-0.172 0.148-0.27l0.010-0.022 0.005 0.003-0.073 0.152-0.038 0.075-0.042 0.073-0.042 0.074c-0.013 0.026-0.032 0.047-0.048 0.070-0.032 0.047-0.068 0.1-0.104 0.133-0.017 0.023-0.038 0.042-0.058 0.062l-0.060 0.060-0.066 0.053c-0.022 0.018-0.048 0.030-0.070 0.046-0.022 0.014-0.047 0.027-0.073 0.038l-0.003 0.001c-0.026 0.010-0.050 0.024-0.080 0.030s-0.055 0.017-0.083 0.020l-0.087 0.007c-0.093-0.027-0.173-0.075-0.238-0.138l0 0-0.094-0.102-0.043-0.054-0.040-0.057c-0.092-0.139-0.178-0.298-0.252-0.465l-0.008-0.021c-0.146-0.337-0.264-0.686-0.37-1.038l-0.29-1.063-0.25-1.072-0.442-2.157-0.205-1.082-0.196-1.1 0.001-0.005 0.002-0.012 0.035-0.194 0.033 0.193 0.195 1.080 0.2 1.080 0.424 2.156 0.24 1.072 0.278 1.063 0.165 0.524 0.195 0.513c0.079 0.188 0.165 0.347 0.262 0.498l-0.007-0.012 0.038 0.057 0.043 0.054c0.027 0.037 0.060 0.068 0.092 0.102 0.068 0.060 0.144 0.116 0.234 0.138zM14.964 23.334l-0.052 0.020-0.055 0.008c-0.090-0.022-0.17-0.077-0.237-0.14-0.032-0.033-0.066-0.065-0.093-0.103l-0.043-0.054-0.040-0.058c-0.103-0.154-0.184-0.32-0.258-0.49l-0.2-0.518-0.168-0.53-0.15-0.535-0.138-0.538-0.252-1.080-0.45-2.175-0.2-1.1-0.103-0.545-0.1-0.547h0.059l-0.008 0.042-0.008 0.040v-0.010l0.1 0.542 0.104 0.542 0.21 1.083 0.44 2.162 0.245 1.075 0.28 1.066c0.118 0.42 0.241 0.765 0.382 1.101l-0.023-0.062c0.080 0.187 0.165 0.346 0.263 0.497l-0.008-0.013c0.050 0.077 0.108 0.146 0.172 0.2 0.062 0.060 0.138 0.107 0.223 0.135l0 0c0.055-0.001 0.108-0.023 0.155-0.054 0.048-0.034 0.089-0.072 0.124-0.116l0.001-0.001c0.020-0.020 0.037-0.045 0.054-0.068l0.050-0.072 0.090-0.15c0.095-0.177 0.19-0.39 0.27-0.61l0.011-0.035 0.060-0.166c0.020-0.055 0.037-0.11 0.053-0.168l0.1-0.34 0.196-0.68 0.010 0.003-0.4 1.286-0.12 0.314-0.14 0.306c-0.024 0.050-0.053 0.1-0.080 0.148l-0.092 0.14-0.050 0.067-0.056 0.062-0.064 0.055c-0.023 0.016-0.048 0.030-0.072 0.043zM14.964 23.334l0.072-0.044 0.063-0.055 0.056-0.062c0.018-0.020 0.034-0.045 0.050-0.067 0.034-0.044 0.060-0.094 0.090-0.14l0.080-0.148 0.138-0.306 0.12-0.314 0.385-1.287 0.010 0.003-0.192 0.68-0.095 0.34-0.052 0.17-0.058 0.167c-0.080 0.222-0.167 0.44-0.277 0.65l-0.090 0.154-0.050 0.074-0.055 0.070c-0.020 0.023-0.082 0.088-0.13 0.124s-0.11 0.060-0.173 0.062h-0.002l-0.002-0.001c-0.094-0.025-0.173-0.080-0.244-0.142s-0.128-0.137-0.18-0.215c-0.105-0.154-0.188-0.32-0.264-0.488-0.147-0.34-0.266-0.69-0.37-1.040l-0.29-1.066-0.25-1.076-0.446-2.162-0.31-1.626-0.098-0.55 0.001-0.005 0.008-0.044 0.008-0.042 0.034-0.17 0.030 0.17 0.194 1.093 0.2 1.092 0.428 2.178 0.523 2.157 0.166 0.53 0.197 0.52c0.079 0.19 0.165 0.351 0.264 0.503l-0.008-0.012 0.040 0.058 0.043 0.055c0.027 0.037 0.060 0.070 0.093 0.103 0.068 0.062 0.145 0.117 0.236 0.14l0.055-0.008 0.052-0.020z"></path>
<path d="M5.744 23.335c-0.028-0.030-0.070-0.043-0.1-0.067-0.019-0.012-0.035-0.024-0.050-0.037l0.001 0.001c-0.015-0.013-0.032-0.026-0.045-0.040-0.060-0.056-0.106-0.124-0.15-0.193-0.024-0.033-0.040-0.070-0.060-0.106s-0.038-0.072-0.054-0.11l-0.050-0.11-0.044-0.114c-0.030-0.075-0.056-0.153-0.080-0.23l-0.072-0.233-0.123-0.473-0.104-0.477-0.1-0.48-0.088-0.48-0.102-0.476-0.056-0.237-0.063-0.235-0.14-0.466-0.168-0.456c-0.058-0.152-0.13-0.297-0.198-0.443l-0.116-0.213c-0.040-0.070-0.086-0.137-0.128-0.205s-0.094-0.13-0.142-0.196-0.103-0.123-0.157-0.183-0.114-0.112-0.174-0.166-0.127-0.097-0.19-0.145c-0.030-0.022-0.063-0.043-0.098-0.060l-0.004-0.002-0.106-0.057c-0.072-0.035-0.15-0.058-0.223-0.088l0.010 0.001h-0.080l0.007-0.060 0.238 0.080 0.113 0.054c0.038 0.018 0.076 0.035 0.1 0.060 0.148 0.091 0.277 0.193 0.391 0.31l0 0c0.12 0.117 0.222 0.248 0.318 0.384l0.135 0.21 0.122 0.217 0.207 0.45c0.067 0.152 0.118 0.31 0.174 0.464l0.073 0.236 0.070 0.238 0.12 0.48 0.103 0.484 0.175 0.97 0.1 0.482 0.12 0.477 0.070 0.236 0.080 0.232 0.043 0.115 0.050 0.112 0.053 0.1c0.020 0.036 0.036 0.073 0.060 0.106 0.043 0.072 0.091 0.135 0.144 0.191l-0-0c0.013 0.015 0.028 0.028 0.043 0.040s0.030 0.025 0.047 0.035c0.032 0.025 0.068 0.033 0.108 0.075l-0.020-0.010c0.054-0.001 0.107-0.023 0.154-0.054 0.048-0.035 0.090-0.073 0.126-0.116l0.001-0.001c0.035-0.042 0.070-0.089 0.101-0.137l0.003-0.006 0.1-0.154c0.097-0.181 0.193-0.399 0.274-0.624l0.011-0.036 0.058-0.17 0.163-0.517 0.192-0.695 0.037 0.010-0.196 0.69-0.227 0.68c-0.083 0.224-0.175 0.446-0.288 0.656-0.060 0.113-0.126 0.211-0.201 0.301l0.002-0.003c-0.040 0.045-0.083 0.087-0.132 0.12s-0.107 0.056-0.167 0.056zM5.744 23.335c0.063-0.003 0.12-0.024 0.167-0.059l-0.001 0.001c0.050-0.035 0.092-0.075 0.129-0.12l0.001-0.001c0.071-0.087 0.135-0.186 0.189-0.29l0.005-0.010c0.11-0.21 0.198-0.434 0.28-0.658 0.16-0.45 0.285-0.9 0.405-1.372l0.037 0.010-0.19 0.698-0.16 0.518-0.058 0.172c-0.082 0.227-0.172 0.452-0.285 0.667l-0.090 0.158c-0.036 0.057-0.072 0.105-0.11 0.152l0.002-0.003c-0.040 0.046-0.083 0.093-0.137 0.127-0.051 0.037-0.113 0.060-0.181 0.063l-0.001 0h-0.012l-0.010-0.010c-0.017-0.020-0.062-0.038-0.096-0.063-0.018-0.010-0.035-0.024-0.050-0.038-0.017-0.013-0.033-0.027-0.047-0.043l-0-0c-0.060-0.060-0.11-0.13-0.153-0.2-0.024-0.035-0.040-0.073-0.060-0.11-0.018-0.031-0.036-0.068-0.052-0.106l-0.002-0.006-0.050-0.114-0.044-0.116c-0.030-0.077-0.055-0.156-0.080-0.234l-0.070-0.237-0.122-0.48-0.1-0.484-0.090-0.486-0.1-0.484-0.104-0.48-0.122-0.477-0.070-0.236-0.074-0.234-0.17-0.46c-0.058-0.153-0.132-0.3-0.202-0.446l-0.12-0.214-0.132-0.206c-0.093-0.133-0.193-0.262-0.308-0.376-0.111-0.114-0.235-0.214-0.37-0.297l-0.008-0.005c-0.033-0.024-0.070-0.040-0.106-0.058l-0.11-0.053c-0.074-0.030-0.153-0.052-0.23-0.078l-0.175-0.060 0.268 0.001 0.003 0.001 0.23 0.092 0.11 0.060c0.037 0.020 0.073 0.040 0.105 0.065 0.066 0.050 0.138 0.092 0.196 0.15s0.125 0.108 0.177 0.17 0.113 0.12 0.16 0.188l0.143 0.2 0.13 0.21 0.116 0.216 0.198 0.448c0.064 0.15 0.112 0.306 0.167 0.46l0.137 0.47 0.062 0.236 0.055 0.238 0.1 0.478 0.086 0.48 0.084 0.48 0.097 0.478 0.117 0.473 0.068 0.234 0.078 0.23 0.042 0.114 0.050 0.112c0.015 0.038 0.033 0.074 0.053 0.1l0.060 0.107c0.043 0.070 0.088 0.137 0.146 0.194 0.013 0.015 0.030 0.030 0.045 0.040l0.048 0.037c0.017 0.010 0.073 0.038 0.1 0.070zM28.19 23.388s0.92-0.526 1.104-2.55c0.263-2.84 0.736-3.838 2.235-4.338h-4.285c-0.46 0.077-0.77 0.33-1.003 0.823 0.001 0.002 0.001 0.004 0.001 0.005s-0.002 0.005-0.004 0.007l0.004 0.020c-0.31 0.57-0.518 1.475-0.7 2.692-0.2 1.17-0.488 2.176-0.87 2.743-0.223 0.362-0.48 0.572-0.77 0.572z"></path>
<path d="M26.224 17.364c-0.001-0.007-0.002-0.013-0.004-0.020-0.074 0.136-0.146 0.296-0.206 0.463l-0.007 0.024c-0.001 0.001-0.001 0.002-0.001 0.002l-0.042 0.13-0.15 0.523c-0.11 0.448-0.207 0.973-0.296 1.574-0.165 0.964-0.39 1.816-0.674 2.4-0.065 0.145-0.133 0.276-0.205 0.39 0.385-0.574 0.675-1.59 0.88-2.775 0.183-1.23 0.393-2.148 0.707-2.724z"></path>
<path d="M23.57 8.618c-0.073 0.002-0.138 0.037-0.195 0.078-0.055 0.046-0.103 0.097-0.144 0.154l-0.002 0.002c-0.086 0.114-0.155 0.24-0.216 0.368l-0.17 0.393-0.143 0.403-0.128 0.41-0.117 0.412-0.2 0.83-0.7 3.357-0.023 0.128-0.022-0.13v-0.013l0.046-0.001-0.002 0.010v-0.008l0.2 1.080 0.205 1.080 0.44 2.153 0.246 1.070 0.284 1.060 0.166 0.522 0.196 0.5c0.074 0.166 0.154 0.33 0.254 0.48l0.038 0.056 0.042 0.052c0.026 0.036 0.060 0.066 0.090 0.098 0.059 0.058 0.133 0.102 0.214 0.127l0.004 0.001-0.008-0.001c0.127-0.002 0.244-0.043 0.34-0.111l-0.002 0.001c0.103-0.072 0.191-0.156 0.264-0.252l0.002-0.003c0.072-0.092 0.14-0.195 0.198-0.304l0.006-0.012 0.085-0.167 0.074-0.177c0.026-0.060 0.045-0.118 0.068-0.178l0.063-0.18 0.112-0.364 0.098-0.368 0.087-0.372 0.076-0.374 0.21-1.128 0.082-0.375 0.085-0.374c0.013-0.063 0.030-0.126 0.050-0.186l0.053-0.184 0.113-0.37-0.001 0.003 0.090-0.244 0.052-0.12 0.053-0.12 0.035-0.080 0.017 0.087 0.004 0.020-0.052-0.006 0.016-0.030-0.002 0.017-0.095-0.57-0.1-0.568-0.2-1.134-0.447-2.262-0.25-1.125-0.285-1.117-0.168-0.55-0.2-0.54c-0.074-0.177-0.155-0.352-0.26-0.513l-0.083-0.117-0.045-0.056-0.050-0.052c-0.070-0.066-0.148-0.125-0.242-0.147l-0.173-0.001c-0.030 0.001-0.058-0.002-0.087 0.003l-0.022 0.003c-0.007 0.001-0.015 0.001-0.020 0.004l-0.040 0.016h0.153zM23.57 8.618l-0.157 0.001 0.044-0.018c0.007-0.003 0.014-0.003 0.022-0.004l0.020-0.003c0.030-0.006 0.058-0.003 0.087-0.004l0.175-0.001c0.097 0.028 0.18 0.079 0.246 0.147l0 0 0.050 0.052 0.046 0.056c0.032 0.037 0.057 0.078 0.084 0.117 0.093 0.146 0.182 0.314 0.257 0.49l0.008 0.022 0.204 0.54 0.173 0.55 0.55 2.24 0.454 2.262 0.214 1.133 0.102 0.568 0.098 0.578-0.020 0.038-0.037 0.073-0.015-0.080-0.003-0.018 0.052 0.006-0.102 0.236-0.1 0.245-0.108 0.362-0.053 0.184-0.048 0.184-0.083 0.372-0.080 0.373-0.138 0.753-0.068 0.377-0.076 0.376-0.086 0.374-0.098 0.37-0.112 0.368-0.063 0.182-0.068 0.18-0.073 0.177-0.088 0.174c-0.067 0.125-0.137 0.231-0.214 0.332l0.004-0.006c-0.080 0.106-0.173 0.196-0.279 0.269l-0.004 0.003c-0.106 0.074-0.237 0.119-0.378 0.122h-0.005l-0.004-0.001c-0.1-0.024-0.18-0.083-0.25-0.147-0.033-0.034-0.068-0.067-0.095-0.105l-0.044-0.055-0.040-0.058c-0.103-0.156-0.184-0.323-0.258-0.49-0.055-0.121-0.122-0.292-0.182-0.466l-0.015-0.050-0.166-0.526-0.28-1.064-0.244-1.072-0.432-2.156-0.202-1.080-0.196-1.087 0.002-0.008 0.027-0.113 0.020 0.112 0.002 0.013-0.046-0.001 0.33-1.683 0.376-1.673 0.218-0.83 0.12-0.41 0.132-0.408 0.147-0.403 0.172-0.393c0.063-0.128 0.133-0.254 0.22-0.367 0.043-0.057 0.093-0.11 0.148-0.155s0.124-0.076 0.197-0.077zM26.22 17.345c0.001-0.002 0.002-0.005 0.004-0.007s-0.001-0.004-0.001-0.005-0.002 0.005-0.003 0.007 0 0.004 0.001 0.006z"></path>
<path d="M26.006 17.835v0zM26.204 17.37c-0.001-0.006-0.002-0.013-0.004-0.020-0.068 0.144-0.133 0.305-0.193 0.48 0.067-0.191 0.139-0.352 0.222-0.506l-0.009 0.019c0-0.002-0.001-0.004-0.001-0.005l-0.015 0.030zM24.844 22.472c0.285-0.594 0.508-1.447 0.674-2.4l0.296-1.574-0.33 1.63c-0.16 0.928-0.37 1.756-0.64 2.355zM19.1 23.412c0.684-0.158 1.26-2.102 2.233-7.4l0.178-1.018-0.017-0.098 0.003-0.012-0.003-0.014c0.616-3.176 1.254-5.954 1.895-6.242h-3.786c-0.036-0.016-0.072-0.026-0.108-0.026h-0.236c-0.657 0.157-1.235 2.076-2.207 7.4l-0.060 0.342 0.005 0.025c-0.001 0.005-0.001 0.010-0.003 0.013l0.003 0.013-1.265 5.538c-0.26 0.805-0.52 1.335-0.78 1.452z"></path>
<path d="M21.512 14.916l-0.003 0.012 0.017 0.1c0.001-0.004 0.002-0.010 0.002-0.013l-0.017-0.098zM16.977 16.436l-0.953 4.477-0.318 1.113c0.432-1.293 0.863-3.362 1.274-5.577l-0.003-0.013z"></path>
<path d="M21.5 14.903l0.003 0.014c0.62-3.218 1.26-6 1.905-6.3-0.645 0.3-1.288 3.087-1.908 6.285z"></path>
<path d="M21.533 15.020c0.635-3.44 1.35-6.403 2.037-6.403h-0.153c-0.644 0.29-1.286 3.080-1.905 6.3l0.017 0.098c0-0.002 0.001-0.004 0.001-0.007 0.001 0.004 0.002 0.008 0.002 0.013zM16.973 16.42l-0.823-4.045-0.51-1.998-0.35-0.967c-0.070-0.156-0.15-0.308-0.246-0.448-0.048-0.070-0.103-0.134-0.163-0.192-0.063-0.053-0.133-0.1-0.212-0.12l0.006 0.001c-0.070 0.001-0.15-0.002-0.215 0.003-0.017 0.003-0.038 0.003-0.052 0.010l-0.044 0.018c-0.015 0.007-0.030 0.018-0.043 0.027-0.016 0.009-0.029 0.020-0.041 0.032v0c-0.105 0.092-0.184 0.216-0.254 0.34s-0.13 0.258-0.185 0.39l-0.154 0.407c-0.19 0.55-0.338 1.112-0.477 1.676l-0.38 1.703-0.34 1.712v-0.013l0.098 0.546 0.1 0.546 0.203 1.090 0.435 2.176 0.245 1.082 0.135 0.538 0.147 0.534 0.165 0.528 0.196 0.517c0.079 0.188 0.164 0.348 0.262 0.5l-0.008-0.013 0.038 0.057 0.042 0.053c0.027 0.037 0.060 0.068 0.090 0.1 0.066 0.060 0.14 0.113 0.225 0.133l-0.005-0.001 0.050-0.008 0.048-0.018c0.034-0.020 0.068-0.038 0.093-0.063 0.055-0.046 0.103-0.107 0.147-0.168 0.087-0.125 0.157-0.262 0.22-0.4l0.174-0.427 0.15-0.437 0.257-0.887 0.2-0.9 0.21-0.9 0.1-0.45 0.090-0.453 0.273-1.36 0.090-0.454zM16.973 16.42l-0.085 0.455-0.348 1.817-0.096 0.452-0.305 1.354-0.104 0.45-0.254 0.9-0.15 0.44-0.174 0.43c-0.065 0.14-0.135 0.28-0.224 0.41-0.046 0.068-0.098 0.127-0.156 0.178l-0.001 0.001c-0.030 0.030-0.064 0.047-0.098 0.067-0.022 0.010-0.040 0.015-0.060 0.023s-0.042 0.007-0.063 0.010h-0.002l-0.004-0.001c-0.097-0.028-0.181-0.078-0.248-0.145v0c-0.033-0.034-0.068-0.067-0.095-0.105l-0.044-0.055-0.040-0.058c-0.093-0.141-0.18-0.304-0.252-0.474l-0.008-0.021-0.2-0.52-0.168-0.53-0.15-0.535-0.137-0.54-0.25-1.083-0.442-2.176-0.207-1.090-0.102-0.546-0.097-0.553 0.001-0.007 0.346-1.712 0.387-1.704 0.484-1.68 0.156-0.41 0.19-0.396c0.072-0.137 0.161-0.253 0.266-0.353l0.001-0.001c0.014-0.013 0.030-0.025 0.045-0.035l0.050-0.030 0.058-0.022c0.020-0.007 0.036-0.006 0.055-0.010 0.080-0.005 0.147-0.001 0.222-0.002h0.003l0.003 0.001c0.1 0.023 0.166 0.074 0.234 0.13s0.12 0.128 0.17 0.2c0.1 0.144 0.18 0.298 0.25 0.457 0.14 0.316 0.25 0.644 0.35 0.974l0.503 2.003 0.786 4.053z"></path>
<path d="M16.977 16.435l0.003-0.013c-0.001-0.008-0.003-0.017-0.005-0.025-0.001 0.005-0.002 0.010-0.002 0.014s0.003 0.016 0.004 0.025z"></path>
<path d="M16.956 16.502l-0.932 4.4 0.953-4.477-0.004-0.025-0.016 0.092zM10.041 23.388c0.684-0.157 1.233-2.050 2.206-7.36l0.18-1.022-0.015-0.083 0.746-3.497c0.377-1.546 0.764-2.635 1.153-2.81h-4.14c-0.657 0.158-1.235 2.076-2.234 7.41l-0.182 0.958c0.006 0.008 0.012 0.014 0.018 0.022l-0.004 0.022c0.001 0.002 0.003 0.003 0.004 0.005l-1.193 5.015c-0.282 0.834-0.567 1.34-0.85 1.34h2.94z"></path>
<path d="M12.453 14.953l-0.005-0.025 0.723-3.49-0.75 3.515 0.015 0.084 0.005-0.030 0.010-0.055zM7.757 17.073l-0.82 3.758-0.374 1.284c0.405-1.162 0.807-3.015 1.198-5.037-0.002-0.002-0.003-0.003-0.004-0.005zM13.172 11.441c0.418-1.683 0.843-2.823 1.267-2.823h-0.108c-0.4 0.175-0.78 1.27-1.16 2.823z"></path>
<path d="M14.476 8.617h-0.037c-0.424 0-0.85 1.14-1.267 2.823l-0.723 3.49 0.005 0.025c0.657-3.4 1.34-6.336 2.023-6.336zM4.75 20.717l0.065 0.353 0.070 0.352 0.080 0.35 0.092 0.347c0.030 0.116 0.070 0.228 0.107 0.342l0.064 0.168c0.020 0.056 0.048 0.1 0.070 0.164s0.055 0.106 0.080 0.16c0.014 0.027 0.032 0.050 0.047 0.076 0.016 0.028 0.033 0.052 0.052 0.074l-0.001-0.001c0.020 0.023 0.076 0.092 0.122 0.13 0.022 0.020 0.048 0.035 0.073 0.050s0.053 0.027 0.076 0.052l-0.006-0.003c0.067-0.002 0.13-0.030 0.184-0.072s0.1-0.092 0.14-0.147c0.076-0.102 0.145-0.217 0.203-0.339l0.005-0.013c0.101-0.206 0.202-0.459 0.287-0.72l0.013-0.044 0.236-0.788 0.104-0.397 0.090-0.4 0.183-0.803 0.092-0.4 0.084-0.403 0.324-1.613 0.006 0.028-0.012-0.016-0.010-0.014 0.003-0.016 0.024-0.124 0.008 0.030-0.108-0.123-0.12-0.11c-0.043-0.032-0.083-0.070-0.13-0.096l-0.068-0.043-0.073-0.034c-0.047-0.025-0.1-0.038-0.15-0.056s-0.105-0.024-0.158-0.035l-0.16-0.015-1.5-0.003-2.665-0.014 0.005-0.037c0.096 0.040 0.197 0.068 0.286 0.124 0.045 0.026 0.093 0.047 0.135 0.078l0.126 0.090c0.044 0.028 0.080 0.067 0.118 0.1s0.080 0.067 0.112 0.107c0.068 0.078 0.142 0.15 0.2 0.236l0.092 0.124 0.083 0.13 0.080 0.132 0.073 0.136c0.050 0.1 0.092 0.184 0.135 0.278s0.080 0.19 0.12 0.285l0.107 0.3 0.050 0.146 0.045 0.148 0.086 0.296 0.078 0.3 0.070 0.3 0.062 0.302 0.057 0.303 0.052 0.304zM4.75 20.717l-0.054-0.304-0.058-0.303-0.064-0.302-0.070-0.3-0.080-0.298-0.087-0.296-0.045-0.147-0.050-0.145-0.108-0.29-0.12-0.283-0.137-0.276-0.074-0.135c-0.025-0.045-0.055-0.087-0.082-0.13l-0.084-0.13-0.093-0.122c-0.060-0.084-0.133-0.155-0.2-0.232-0.034-0.040-0.075-0.070-0.112-0.104s-0.074-0.070-0.117-0.098l-0.125-0.088c-0.040-0.030-0.090-0.050-0.133-0.075-0.087-0.053-0.187-0.080-0.28-0.118l-0.090-0.036 4.258-0.018c0.060 0.001 0.114 0.010 0.17 0.015l0.167 0.036c0.054 0.018 0.1 0.032 0.16 0.060l0.078 0.036 0.073 0.045c0.050 0.028 0.093 0.067 0.138 0.1s0.083 0.078 0.124 0.117l0.123 0.14-0.003 0.018-0.024 0.125-0.007-0.030 0.022 0.032-0.003 0.015-0.332 1.614-0.085 0.403-0.095 0.4-0.287 1.2-0.11 0.398-0.254 0.789c-0.090 0.26-0.188 0.517-0.3 0.764-0.066 0.135-0.137 0.251-0.218 0.359l0.004-0.006c-0.042 0.056-0.090 0.105-0.143 0.147l-0.002 0.001c-0.055 0.042-0.123 0.072-0.194 0.073h-0.003l-0.003-0.003c-0.018-0.020-0.046-0.033-0.070-0.050s-0.050-0.032-0.074-0.053c-0.047-0.038-0.087-0.083-0.123-0.13-0.018-0.022-0.035-0.046-0.050-0.072l-0.001-0.003-0.047-0.077-0.080-0.16-0.070-0.165-0.063-0.168-0.106-0.343-0.1-0.347-0.080-0.35-0.070-0.352-0.064-0.353z"></path>
<path d="M7.757 17.072l0.004-0.022-0.018-0.022-0.004 0.022 0.018 0.022zM7.715 17.175l0.012 0.018-0.79 3.638 0.82-3.758-0.018-0.022-0.024 0.125z"></path>
</svg>
