<!-- Generated by IcoMoon.io -->
<svg version="1.1" xmlns="http://www.w3.org/2000/svg" width="32" height="32" viewBox="0 0 32 32">
<title>mozilla</title>
<path d="M11.46 8.543c-0.412 0.482-0.825 0.961-0.922 1.607l0.092 0.11c0.276-0.332 0.687-0.61 1.067-0.801 0 0.682 0.44 1.351 1.026 1.678l0.1 0.008c-0.125-0.72-0.041-1.599 0.241-2.248 0.448-0.377 1.038-0.526 1.417-0.923-0.948-0.222-1.853-0.036-2.663 0.275l-0.358 0.292zM15.358 10.629c-0.612 0.046-1.183 0.155-1.759 0.305 0.255 0.235 0.575 0.314 0.816 0.533-0.754 0.285-1.544 0.464-2.202 1.047l0.138 0.081c1.219-0.253 2.661-0.233 3.931 0.039l0.075-0.053-0.736-1.34 1.132-0.246c-0.602-0.563-1.29-1.115-2.078-1.355 0.118 0.327 0.451 0.655 0.684 0.987v0 0zM19.784 11.974c0.602 0.111 1.266 0.125 1.839 0.017-0.946-0.484-2.154-0.389-2.908-1.235 0.14 0.445 0.448 1.16 1.068 1.217zM10.79 15.381c0.235 0.757-0.558 1.677 0.078 2.37 0.54 0.631 1.201 1.153 1.839 1.615l-0.055-0.236c-0.566-0.663-1.088-1.392-1.348-2.178 0.663 0.233 1.364 0.554 2.124 0.66-0.855-1.275-2.419-2.495-1.829-4.241 0.031-0.289 0.413-0.51 0.318-0.777-0.895 0.684-1.269 1.691-1.126 2.787v0zM30.228 13.183c-1.209-1.676-5.583-1.94-7.561-4.147 0.337-1.097-0.37-1.997-1.090-2.683-1.083-0.797-2.578-0.43-3.73-0.1-1.314-0.275-2.528-0.746-3.806-1.119-2.844-0.297-5.646 1.782-5.646 1.782-2.018 1.334-5.182 4.098-6.694 5.71 0.373 0.050 0.768-0.24 1.188-0.296l2.907-0.798c-1.207 1.039-3.749 2.865-4.485 4.307 0.907-0.327 2.812-1.425 3.76-1.514-0.827 0.759-2.553 2.2-3.094 3.117 0.065 0.032 0.019 0.11 0.031 0.169 0.712-0.409 2.44-1.477 3.225-1.548-0.807 0.872-2.291 2.546-2.617 3.67 0.702-0.478 2.464-1.447 3.234-1.743-0.175 0.443-0.565 0.773-0.817 1.216-0.349 0.613-1.177 1.31-1.207 2.040 0.615-0.595 1.376-1.117 2.142-1.537-0.342 0.737-0.969 1.346-1.141 2.223 0.501-0.506 1.454-0.768 2.1-1l-0.078 0.077c-0.056 0.047-0.783 0.584-1.279 1.182 0.439-0.029 0.116-0.084 0.67 0.044l-0.916 0.371c0.671 0.879 1.397 1.637 2.176 2.274-0.034-0.193-0.030-0.408-0.144-0.445l2.261-1.276c-0.769 0.13-2.87 0.778-2.997 0.672 0.46-0.517 2.848-1.2 3.299-2.103 0 0 0.073-0.032-0.161 0.056l-1.801 0.101c-0.352-1.274 1.145-1.944 0.378-2.958-1.144-1.513-2.078-3.074-1.879-4.99 0.107 0.227 0.212 0.482 0.402 0.662 0.079-0.424 0.097-0.902 0.214-1.282 0.165 0.577 0.338 1.235 0.935 1.592l0.030-0.039c-0.491-1.811-0.181-3.982 1.596-5.094-0.473 0.161-1.174 0.116-1.869 0.416 0.119-0.165 0.328-1.026 0.807-1.457 0.393-0.264 0.588-0.579 0.992-0.8 0.799-0.635 1.61-1.164 3-1.384 1.299-0.206 2.452 0.393 3.671 0.589-0.054 0.185-0.285 0.273-0.367 0.425-0.112 0.21-0.394 0.423-0.281 0.65l0.944-0.361c1.324-0.334 2.583-1.005 4.027-0.854l0.722 0.918c-1.55-1.234-3.163 0.344-4.698 0.68-0.587 0.107-1.166 0.315-1.725 0.438 0.636 0.476 1.393 0.584 2.218 0.494 0.089 0.602 0.824 1.558 1.367 1.694-0.078-0.556-0.699-1.318-0.3-2.003 0.512-0.287 1.245-0.919 1.826-0.446-0.37 0.034-0.682 0.289-1.004 0.457-0.238 0.173-0.298 0.706-0.249 0.828 0.238 0.723 1.552 1.407 3.781 1.384-0.191-0.331-1.297-1.299-1.231-1.67 2.247 2.229 6.386 2.753 7.344 3.726 0.083 0.326-0.892 1.043-0.703 1.329-0.11 0.344 0.42 0.952 0.961 1.608-0.425-2.652 0.98-0.901 0.255 0.997l-1.023-0.226c-3.314-0.233-4.606-1.367-7.219-3.075-0.971-0.644-2.064-1.567-2.729-2.103l-1.457-0.556c1.933 2.348 2.435 2.132 1.474 3.873l-0.506-0.887-0.197-1.627c-0.567 1.947-0.879 3.999 1.701 5.192l1.467 0.208c-0.683-0.562-1.292-1.105-1.141-1.765 0.801 1.548 4.517 2.312 6.089 2.746 0.261 0.1 0.534 0.255 0.71 0.447-0.413 0.373-0.653 0.316-1.204 0.514-1.198-0.409-2.836-0.737-3.377-1.517 0.3 0.432-4.801 1.033-3.816 1.117-1.447-0.068-2.895-1.003-3.91-2.159l-0.264-0.091c0.028 1.135 1.097 1.929 1.659 2.896l1.114 0.494c-0.532 0.343-1.201 0.66-1.536 1.263-0.117 0.298-0.352 0.673-0.202 0.987 0.5-0.532 1.153-0.793 1.799-0.956l-0.485 0.737c0.104 0.821-0.573 2.268-1.032 3.121-0.543 1.331-4 0.080-7.102-0.844 2.498 1.86 5.517 2.568 8.987 2.269l-0.374-0.812c0.815-1.606 0.381-4.18 2.51-5.29 1.441-0.767 1.604-1.185 3.266-0.874 0.898 0.17 2.863 0.847 3.805 0.634 0.853-0.494 1.279-0.719 2.015-1.29 0.925 0.164 1.223 0.065 1.559-0.439 0.172-0.471 0.586-1.718 0.964-2.532l0.028-0.44c-0.37-1.106-0.28-2.993-0.465-3.265zM19.679 10.021c-0.018 0.078-0.019 0.156-0.007 0.228-0.198-0.158-0.327-0.367-0.33-0.617 0.203-0.017 0.393 0.007 0.572 0.062-0.112 0.068-0.199 0.185-0.235 0.328zM20.347 10.545c0.092-0.069 0.162-0.172 0.194-0.299 0.015-0.061 0.019-0.12 0.014-0.18 0.162 0.14 0.304 0.304 0.432 0.479-0.206 0.039-0.429 0.037-0.64-0.001zM22.414 16.909c0.025-0.182-0.006-0.397 0.079-0.542 0.13 0.054 0.368 0.055 0.421 0.165-0.182 0.078-0.313 0.283-0.499 0.377zM23.576 17.495l0.030-0.5c0.152-0.034 0.264 0.062 0.347 0.131l-0.378 0.369zM24.471 17.896c0.034-0.075-0.021-0.588 0.080-0.582l0.302 0.178c-0.091-0.007-0.295 0.409-0.383 0.405zM25.298 18.322l0.095-0.237c-0.016-0.462-0.002-0.366 0.344-0.298-0.124 0.115-0.23 0.518-0.44 0.535zM26.384 18.632l0.025-0.721 0.349 0.080-0.374 0.641zM27.34 18.521c-0.026-0.559-0.002-0.496 0.43-0.329l-0.43 0.329zM28.365 18.871c0.013-0.197 0.070-0.422 0.008-0.608 0.118 0.009 0.255-0.029 0.354 0.055-0.028 0.225-0.259 0.362-0.362 0.554zM24.471 17.896c0.091 0.007 0.295-0.409 0.383-0.405l-0.302-0.178c-0.104-0.008-0.047 0.509-0.080 0.582zM15.496 25.426c0.138 0.257 0.142 0.571 0.28 0.828 0.323-0.698 0.288-1.536-0.133-2.163-0.73-0.322-1.435-0.657-2.066-1.166 0.26 0.891 1.117 1.873 1.918 2.502v0zM15.233 27.209l0.709-0.578c-0.689-0.448-1.855-1.25-2.488-1.845 0.496 1.032 0.512 2.171 1.778 2.422z"></path>
</svg>
