<!-- Generated by IcoMoon.io -->
<svg version="1.1" xmlns="http://www.w3.org/2000/svg" width="32" height="32" viewBox="0 0 32 32">
<title>mysql</title>
<path d="M1.468 2.148c-0.751 0.751-0.563 1.615 0.751 3.566 0.676 1.013 1.464 2.59 1.765 3.491 0.301 0.938 0.901 2.215 1.314 2.852 0.751 1.052 0.751 1.276 0.262 3.191-0.301 1.201-0.413 2.703-0.262 3.642 0.225 1.577 1.501 3.867 2.289 4.129 0.676 0.225 1.652-0.976 1.689-2.064 0-0.938 0.037-0.976 0.45-0.301 0.713 1.163 2.966 3.64 3.153 3.453 0.075-0.075-0.413-1.052-1.126-2.139-0.676-1.126-1.464-2.59-1.764-3.266-0.413-1.126-0.563-1.201-1.052-0.676-0.301 0.301-0.676 1.163-0.788 1.951-0.301 1.802-0.976 2.027-1.501 0.488s-0.526-4.168 0-5.968c0.375-1.239 0.338-1.576-0.301-2.516-0.413-0.563-1.052-1.914-1.39-3.003-0.338-1.052-1.126-2.627-1.764-3.454-1.464-2.064-1.464-2.815 0.075-2.516 0.638 0.113 1.615 0.563 2.215 0.976 0.563 0.413 1.539 0.751 2.139 0.751 1.802 0 4.956 1.765 7.245 4.054 1.765 1.764 2.665 3.191 4.58 7.057 2.252 4.579 2.44 4.842 3.829 5.292 1.652 0.563 5.105 2.665 5.105 3.116 0 0.15-0.864 0.375-1.914 0.45-2.815 0.301-3.079 0.825-1.239 2.477 0.864 0.751 2.478 1.914 3.642 2.553l2.102 1.201-0.976-1.239c-0.563-0.676-1.726-1.726-2.628-2.289s-1.615-1.163-1.615-1.314c0-0.15 0.638-0.413 1.427-0.526 2.102-0.375 2.702-0.563 2.702-0.938 0-0.563-3.791-3.416-5.593-4.205-1.539-0.713-1.726-1.014-3.716-5.105-1.765-3.754-2.477-4.805-4.729-7.057-2.89-2.89-4.88-4.129-7.433-4.504-0.864-0.15-2.064-0.6-2.59-0.976-1.239-0.938-3.754-1.276-4.355-0.638z"></path>
</svg>
