<!-- Generated by IcoMoon.io -->
<svg version="1.1" xmlns="http://www.w3.org/2000/svg" width="32" height="32" viewBox="0 0 32 32">
<title>nginx</title>
<path d="M6.125 12.625c-0.375 0-0.625 0.3-0.625 0.675v3.525l-3.975-4c-0.2-0.2-0.55-0.25-0.8-0.15s-0.475 0.35-0.475 0.625v5.175c0 0.375 0.375 0.675 0.75 0.675s0.75-0.3 0.75-0.675v-3.525l4.025 4c0.125 0.125 0.3 0.2 0.475 0.2 0.075 0 0.1-0.025 0.175-0.050 0.25-0.1 0.325-0.35 0.325-0.625v-5.15c0-0.375-0.25-0.7-0.625-0.7zM11.050 15.575c-0.35 0-0.675 0.35-0.675 0.7s0.325 0.7 0.675 0.7l1.65 0.1-0.375 0.925h-2.125l-1.050-1.975 1.075-2.025h2.275l0.525 1h1.375l-0.9-1.975-0.2-0.275h-3.9l-0.175 0.3-1.475 2.575-0.175 0.325 0.175 0.325 1.45 2.575 0.2 0.4h3.775l0.175-0.425 1.075-2.25 0.475-1.075h-1.1l-2.75 0.075zM16.25 12.625c-0.35 0-0.75 0.325-0.75 0.675v1.7h1.5v-1.675c0-0.375-0.4-0.7-0.75-0.7zM23.85 12.7c-0.25-0.1-0.6-0.050-0.775 0.15l-4.075 4v-3.525c0-0.375-0.25-0.675-0.625-0.675s-0.625 0.3-0.625 0.675v5.175c0 0.275 0.175 0.525 0.425 0.625 0.075 0.025 0.175 0.050 0.25 0.050 0.175 0 0.4-0.075 0.525-0.2l4.050-4v3.525c0 0.375 0.25 0.675 0.625 0.675s0.625-0.3 0.625-0.675v-5.175c0-0.275-0.15-0.525-0.4-0.625zM29.3 15.9l2.1-2.1c0.275-0.275 0.275-0.7 0-0.95-0.275-0.275-0.7-0.275-0.95 0l-2.1 2.1-2.1-2.1c-0.275-0.275-0.7-0.275-0.95 0-0.275 0.275-0.275 0.7 0 0.95l2.1 2.1-2.1 2.1c-0.275 0.275-0.275 0.7 0 0.95 0.125 0.125 0.3 0.2 0.475 0.2s0.35-0.075 0.475-0.2l2.1-2.1 2.1 2.1c0.125 0.125 0.3 0.2 0.475 0.2s0.35-0.075 0.475-0.2c0.275-0.275 0.275-0.7 0-0.95l-2.1-2.1zM15.5 18.475c0 0.35 0.375 0.675 0.75 0.675 0.35 0 0.75-0.325 0.75-0.675v-2.975h-1.5v2.975z"></path>
</svg>
