<!-- Generated by IcoMoon.io -->
<svg version="1.1" xmlns="http://www.w3.org/2000/svg" width="32" height="32" viewBox="0 0 32 32">
<title>nginx</title>
<path d="M8.903 13.575c-0.27 0-0.449 0.216-0.449 0.485v2.533l-2.857-2.875c-0.144-0.144-0.395-0.18-0.575-0.108s-0.341 0.252-0.341 0.449v3.719c0 0.27 0.269 0.485 0.539 0.485s0.539-0.216 0.539-0.485v-2.533l2.893 2.875c0.090 0.090 0.216 0.144 0.341 0.144 0.054 0 0.072-0.018 0.126-0.036 0.18-0.072 0.234-0.252 0.234-0.449v-3.701c0-0.27-0.18-0.503-0.449-0.503zM12.443 15.695c-0.252 0-0.485 0.252-0.485 0.503s0.234 0.503 0.485 0.503l1.186 0.072-0.27 0.665h-1.527l-0.755-1.419 0.773-1.455h1.635l0.377 0.719h0.988l-0.647-1.419-0.144-0.198h-2.803l-0.126 0.216-1.060 1.851-0.126 0.234 0.126 0.234 1.042 1.851 0.144 0.287h2.713l0.126-0.305 0.773-1.617 0.341-0.773h-0.791l-1.976 0.054zM16.18 13.575c-0.252 0-0.539 0.234-0.539 0.485v1.222h1.078v-1.204c0-0.27-0.287-0.503-0.539-0.503zM21.641 13.628c-0.18-0.072-0.431-0.036-0.557 0.108l-2.928 2.875v-2.533c0-0.27-0.18-0.485-0.449-0.485s-0.449 0.216-0.449 0.485v3.719c0 0.198 0.126 0.377 0.305 0.449 0.054 0.018 0.126 0.036 0.18 0.036 0.126 0 0.287-0.054 0.377-0.144l2.911-2.875v2.533c0 0.27 0.18 0.485 0.449 0.485s0.449-0.216 0.449-0.485v-3.719c0-0.198-0.108-0.377-0.287-0.449zM25.558 15.928l1.509-1.509c0.198-0.198 0.198-0.503 0-0.683-0.198-0.198-0.503-0.198-0.683 0l-1.509 1.509-1.509-1.509c-0.198-0.198-0.503-0.198-0.683 0-0.198 0.198-0.198 0.503 0 0.683l1.509 1.509-1.509 1.509c-0.198 0.198-0.198 0.503 0 0.683 0.090 0.090 0.216 0.144 0.341 0.144s0.252-0.054 0.341-0.144l1.509-1.509 1.509 1.509c0.090 0.090 0.216 0.144 0.341 0.144s0.252-0.054 0.341-0.144c0.198-0.198 0.198-0.503 0-0.683l-1.509-1.509zM15.641 17.779c0 0.252 0.27 0.485 0.539 0.485 0.252 0 0.539-0.234 0.539-0.485v-2.138h-1.078v2.138z"></path>
</svg>
