<!-- Generated by IcoMoon.io -->
<svg version="1.1" xmlns="http://www.w3.org/2000/svg" width="32" height="32" viewBox="0 0 32 32">
<title>nodejs</title>
<path d="M7.461 16.449c0-0.076-0.040-0.146-0.105-0.184l-1.75-1.007c-0.030-0.018-0.063-0.026-0.097-0.028-0.003 0-0.016 0-0.018 0-0.034 0.002-0.066 0.010-0.097 0.028l-1.749 1.007c-0.065 0.038-0.106 0.108-0.106 0.184l0.004 2.711c0 0.038 0.020 0.073 0.053 0.091s0.073 0.019 0.105 0l1.039-0.596c0.065-0.039 0.105-0.108 0.105-0.184v-1.267c0-0.075 0.040-0.145 0.105-0.183l0.443-0.255c0.033-0.019 0.069-0.028 0.106-0.028 0.036 0 0.073 0.010 0.105 0.028l0.442 0.255c0.065 0.038 0.105 0.108 0.105 0.183v1.267c0 0.076 0.041 0.145 0.106 0.184l1.039 0.596c0.033 0.019 0.073 0.019 0.105 0s0.053-0.053 0.053-0.091l0.003-2.711zM16.803 12.722c-0.033-0.018-0.073-0.018-0.105 0.002s-0.052 0.053-0.052 0.091v2.685c0 0.026-0.014 0.051-0.037 0.064s-0.051 0.014-0.074 0l-0.438-0.252c-0.065-0.038-0.146-0.038-0.212 0l-1.75 1.010c-0.065 0.038-0.106 0.108-0.106 0.183v2.020c0 0.076 0.040 0.145 0.105 0.183l1.75 1.011c0.065 0.038 0.146 0.038 0.212 0l1.751-1.011c0.065-0.038 0.105-0.108 0.105-0.183v-5.036c0-0.077-0.041-0.147-0.109-0.184l-1.042-0.581zM16.641 17.861c0 0.019-0.010 0.037-0.026 0.046l-0.601 0.346c-0.016 0.010-0.037 0.010-0.053 0l-0.601-0.346c-0.017-0.010-0.026-0.027-0.026-0.046v-0.694c0-0.019 0.010-0.037 0.026-0.046l0.601-0.347c0.016-0.010 0.037-0.010 0.053 0l0.601 0.347c0.016 0.010 0.026 0.027 0.026 0.046v0.694zM23.065 17.149c0.065-0.038 0.105-0.107 0.105-0.183v-0.489c0-0.076-0.040-0.145-0.105-0.183l-1.739-1.010c-0.065-0.038-0.146-0.038-0.212 0l-1.75 1.010c-0.065 0.038-0.105 0.108-0.105 0.183v2.020c0 0.076 0.041 0.146 0.107 0.184l1.739 0.991c0.064 0.037 0.143 0.037 0.208 0.001l1.051-0.584c0.033-0.018 0.053-0.053 0.054-0.092s-0.020-0.073-0.053-0.093l-1.761-1.011c-0.033-0.018-0.053-0.053-0.053-0.092v-0.633c0-0.038 0.020-0.073 0.053-0.092l0.548-0.315c0.033-0.018 0.073-0.018 0.105 0l0.548 0.315c0.033 0.019 0.053 0.053 0.053 0.092v0.498c0 0.038 0.020 0.073 0.053 0.092s0.073 0.018 0.106 0l1.047-0.609zM10.644 15.274c0.065-0.038 0.146-0.038 0.212 0l1.75 1.010c0.065 0.038 0.105 0.107 0.105 0.183v2.021c0 0.076-0.041 0.145-0.105 0.183l-1.75 1.011c-0.065 0.038-0.146 0.038-0.212 0l-1.75-1.011c-0.065-0.038-0.105-0.108-0.105-0.183v-2.021c0-0.076 0.040-0.145 0.105-0.183l1.75-1.010zM26.462 19.71c-0.060 0-0.121-0.016-0.173-0.046l-0.551-0.326c-0.082-0.046-0.041-0.062-0.015-0.072 0.109-0.038 0.132-0.047 0.249-0.113 0.012-0.007 0.029-0.004 0.041 0.003l0.423 0.251c0.015 0.009 0.037 0.009 0.051 0l1.65-0.952c0.015-0.009 0.025-0.026 0.025-0.045v-1.905c0-0.018-0.010-0.036-0.026-0.046l-1.649-0.952c-0.015-0.009-0.036-0.009-0.051 0l-1.649 0.952c-0.016 0.009-0.026 0.027-0.026 0.046v1.905c0 0.018 0.010 0.035 0.026 0.044l0.452 0.261c0.245 0.123 0.395-0.022 0.395-0.167v-1.88c0-0.026 0.022-0.047 0.048-0.047h0.209c0.026 0 0.048 0.021 0.048 0.047v1.88c0 0.327-0.178 0.515-0.489 0.515-0.095 0-0.171 0-0.38-0.103l-0.433-0.249c-0.107-0.061-0.173-0.177-0.173-0.301v-1.905c0-0.124 0.066-0.239 0.173-0.301l1.65-0.953c0.105-0.059 0.244-0.059 0.346 0l1.65 0.953c0.107 0.061 0.173 0.177 0.173 0.301v1.905c0 0.124-0.066 0.239-0.173 0.301l-1.65 0.952c-0.053 0.030-0.113 0.046-0.174 0.046zM26.973 18.398c-0.722 0-0.873-0.331-0.873-0.61 0-0.026 0.021-0.047 0.048-0.047h0.213c0.024 0 0.044 0.018 0.047 0.041 0.032 0.217 0.128 0.327 0.565 0.327 0.347 0 0.496-0.079 0.496-0.263 0-0.106-0.041-0.185-0.582-0.238-0.451-0.045-0.73-0.145-0.73-0.505 0-0.333 0.281-0.532 0.751-0.532 0.528 0 0.79 0.184 0.823 0.577 0.002 0.014-0.003 0.026-0.013 0.037s-0.022 0.015-0.035 0.015h-0.214c-0.022 0-0.041-0.016-0.046-0.038-0.051-0.228-0.176-0.302-0.515-0.302-0.379 0-0.424 0.133-0.424 0.232 0 0.121 0.052 0.155 0.564 0.223 0.507 0.067 0.748 0.162 0.748 0.518 0 0.359-0.299 0.565-0.822 0.565zM21.194 17.055c0.013-0.007 0.028-0.007 0.041 0l0.336 0.194c0.013 0.007 0.021 0.021 0.021 0.035v0.388c0 0.014-0.008 0.028-0.021 0.035l-0.336 0.194c-0.013 0.007-0.028 0.007-0.041 0l-0.335-0.194c-0.013-0.007-0.020-0.021-0.020-0.035v-0.388c0-0.014 0.008-0.028 0.020-0.035l0.335-0.194z"></path>
</svg>
