<!-- Generated by IcoMoon.io -->
<svg version="1.1" xmlns="http://www.w3.org/2000/svg" width="32" height="32" viewBox="0 0 32 32">
<title>opera</title>
<path d="M21.608 16.534c0-0.104 0.001-0.208 0.001-0.313h-0.004c-0.037-3.927-0.441-6.438-1.002-8.106-0.295-0.876-0.633-1.52-0.984-2.011s-0.715-0.826-1.047-1.084c-0.399-0.308-0.872-0.473-1.304-0.566s-0.828-0.109-1.078-0.11c-0.081 0-0.145 0.001-0.192 0.004-0.047-0.003-0.111-0.004-0.191-0.004-0.25 0-0.644 0.017-1.078 0.11s-0.906 0.258-1.304 0.566c-0.332 0.258-0.696 0.593-1.047 1.084-0.526 0.737-1.024 1.816-1.389 3.507-0.342 1.586-0.57 3.711-0.597 6.61h-0.002c0 0.089 0 0.177 0.001 0.266 0 0.107-0.001 0.213-0.001 0.321h0.004c0.038 3.817 0.442 6.257 1.003 7.882 0.295 0.854 0.633 1.482 0.985 1.96s0.715 0.805 1.047 1.057c0.399 0.3 0.871 0.461 1.303 0.551s0.826 0.107 1.076 0.107c0.081 0 0.145-0.003 0.191-0.004 0.047 0.003 0.111 0.004 0.191 0.004 0.25 0 0.644-0.017 1.076-0.107s0.904-0.25 1.303-0.551c0.332-0.25 0.696-0.577 1.048-1.057 0.528-0.718 1.026-1.771 1.391-3.418 0.342-1.542 0.57-3.608 0.597-6.423h0.003c0-0.093 0-0.183-0.001-0.274zM20.18 24.542c-0.282 0.818-0.601 1.401-0.922 1.84s-0.647 0.731-0.955 0.964c-0.322 0.244-0.733 0.389-1.124 0.469s-0.758 0.098-0.986 0.098c-0.058 0-0.107-0.001-0.144-0.003v-0.005c-0.001 0-0.017 0.001-0.046 0.003-0.014-0.001-0.026-0.001-0.033-0.001h-0.014v0.005c-0.038 0.001-0.087 0.003-0.144 0.003-0.228 0-0.596-0.017-0.986-0.098s-0.801-0.225-1.124-0.469c-0.308-0.233-0.634-0.525-0.956-0.964-0.482-0.657-0.958-1.645-1.313-3.248-0.343-1.548-0.574-3.669-0.588-6.603 0.017-4.075 0.429-6.63 0.981-8.272 0.282-0.84 0.601-1.441 0.923-1.892s0.648-0.751 0.956-0.99c0.322-0.25 0.732-0.399 1.122-0.482s0.757-0.1 0.985-0.1c0.058 0 0.107 0.001 0.145 0.003v0.005c0.001 0 0.017-0.001 0.046-0.003 0.014 0.001 0.025 0.001 0.032 0.001l0.014 0.001v-0.005c0.038-0.001 0.087-0.003 0.145-0.003 0.228 0 0.595 0.017 0.985 0.1s0.8 0.232 1.122 0.482c0.308 0.239 0.634 0.54 0.956 0.99 0.483 0.675 0.959 1.692 1.316 3.34 0.344 1.592 0.574 3.771 0.59 6.783-0.017 3.968-0.427 6.455-0.98 8.052zM29.387 11.482c-2.5-8.397-9.018-10.128-13.388-10.128-4.424 0-10.887 1.731-13.387 10.128-0.493 1.656-0.689 3.295-0.657 4.872-0.032 1.577 0.163 3.215 0.657 4.872 2.5 8.397 8.964 10.128 13.387 10.128 4.369 0 10.887-1.731 13.388-10.128 0.493-1.656 0.689-3.295 0.657-4.872 0.032-1.577-0.163-3.215-0.657-4.872zM19.067 28.148c-0.941 0.753-2.499 0.877-3.062 0.896-0.564-0.019-2.131-0.142-3.072-0.896-1.272-1.018-2.923-3.175-2.948-11.794 0.025-8.62 1.676-10.777 2.948-11.794 0.941-0.753 2.508-0.877 3.072-0.896 0.564 0.019 2.121 0.142 3.062 0.896 1.272 1.018 2.923 3.175 2.948 11.795-0.025 8.62-1.675 10.777-2.948 11.794z"></path>
</svg>
