<!-- Generated by IcoMoon.io -->
<svg version="1.1" xmlns="http://www.w3.org/2000/svg" width="32" height="32" viewBox="0 0 32 32">
<title>photoshop</title>
<path d="M12.726 10.671c-0.877-0.22-1.754-0.149-2.681-0.005 0 1.62-0.004 3.197 0.009 4.774 0.001 0.081 0.122 0.221 0.2 0.231 1.010 0.136 2.015 0.148 2.96-0.313 0.977-0.476 1.475-1.472 1.346-2.641-0.117-1.065-0.748-1.773-1.834-2.046zM30.998 15.991v-14.445c0-0.499 0.006-0.544-0.479-0.544h-28.927c-0.471 0-0.59 0.045-0.59 0.52v28.927c0 0.481 0.060 0.481 0.526 0.481 9.655 0 19.338-0.002 28.993 0.009 0.374 0 0.475-0.099 0.474-0.467-0.013-4.827 0.003-9.655 0.003-14.482zM14.179 17.382c-1.323 0.471-2.703 0.498-4.131 0.388v5.373h-2.619v-0.334c0-4.498-0.021-8.996-0.033-13.494-0.002-0.373 0.058-0.554 0.479-0.597 1.984-0.203 3.956-0.43 5.928 0.031 2.12 0.497 3.342 1.899 3.436 3.835 0.115 2.398-0.939 4.041-3.060 4.797zM24.728 20.418c-0.101 1.374-0.875 2.276-2.146 2.712-1.7 0.584-3.391 0.448-5.053-0.212-0.272-0.109-0.325-0.246-0.235-0.523 0.164-0.507 0.283-1.027 0.409-1.497 0.703 0.206 1.37 0.464 2.063 0.585 0.489 0.086 1.017 0.035 1.514-0.042 0.446-0.070 0.766-0.372 0.839-0.85 0.074-0.486-0.072-0.907-0.501-1.166-0.341-0.205-0.717-0.352-1.077-0.524-0.579-0.277-1.196-0.494-1.73-0.841-2.103-1.364-1.418-3.9-0.015-4.856 0.75-0.511 1.581-0.737 2.47-0.768 1.046-0.037 2.053 0.144 3.042 0.625l-0.523 1.854c-0.414-0.147-0.8-0.337-1.207-0.413-0.483-0.090-0.989-0.14-1.477-0.1-0.653 0.053-1.036 0.505-1.036 1.064 0 0.331 0.126 0.611 0.402 0.772 0.396 0.23 0.817 0.421 1.235 0.614 0.451 0.209 0.927 0.369 1.363 0.608 1.16 0.636 1.763 1.619 1.665 2.958z"></path>
</svg>
