<!-- Generated by IcoMoon.io -->
<svg version="1.1" xmlns="http://www.w3.org/2000/svg" width="32" height="32" viewBox="0 0 32 32">
<title>php</title>
<path d="M9.068 12.39h-4.886l-2.112 10.696h2.509l0.528-2.772h2.377c2.244 0.132 4.754-1.717 4.754-4.886 0-1.849-1.057-2.905-3.169-3.037zM7.22 18.333h-1.585l0.66-3.961h1.717c0.924 0 1.585 0.397 1.585 1.189-0.132 2.245-1.189 2.641-2.377 2.772zM17.915 12.39h-2.377l0.528-2.772h-2.509l-2.112 10.696h2.509l1.189-5.941h1.981c0.925 0 0.925 0.397 0.792 1.057l-0.924 4.886h2.641l0.924-5.414c0.264-1.32-0.528-2.377-2.641-2.509zM26.762 12.39h-4.886l-2.112 10.696h2.509l0.528-2.772h2.377c2.245 0.132 4.754-1.717 4.754-4.886 0-1.849-1.057-2.905-3.169-3.037zM24.913 18.333h-1.585l0.66-3.961h1.717c0.925 0 1.585 0.397 1.585 1.189-0.132 2.245-1.189 2.641-2.377 2.772z"></path>
</svg>
