<!-- Generated by IcoMoon.io -->
<svg version="1.1" xmlns="http://www.w3.org/2000/svg" width="32" height="32" viewBox="0 0 32 32">
<title>phpstorm</title>
<path d="M18 20.608v-2.817c0-0.624-0.19-0.957-0.624-0.957-0.437 0-0.626 0.333-0.626 0.957v2.817c0 0.625 0.189 0.916 0.626 0.916 0.434 0 0.624-0.291 0.624-0.916z"></path>
<path d="M21.037 24.992c0.263-0.304 0.483-0.541 0.694-0.769 0.42-0.452 0.783-0.843 1.445-1.745 0.65-0.885 1.071-1.55 1.003-2.695-0.035-0.587-0.058-0.992-0.441-1.465-0.231-0.285-0.658-0.698-1.113-1.134-0.491-0.474-0.918-0.924-1.495-1.525-0.58-0.603-1.328-2.138-1.328-2.138-0.261-0.595-0.788-1.936-0.788-3.029l-0.025-0.704c0-0.030 0.003-0.040 0.004-0.040h-8.492v6.022c0.5-0.551 1.109-0.739 1.691-0.739 0.944 0 1.809 0.551 1.809 1.771v6.195h-2.25v-5.441c0-0.494-0.232-0.726-0.61-0.726-0.423 0-0.64 0.275-0.64 0.726v5.441h-2.25v-13.25h-7.75v17.5h1.5v-12h2v0.928c0.5-0.783 1.171-1.145 1.81-1.145 1.134 0 1.94 0.87 1.94 2.453v3.572c0 1.337-0.893 2.223-1.924 2.223-0.595 0-1.076-0.274-1.576-0.915v4.884h10.25v-12h2v0.928c0.5-0.783 1.172-1.145 1.809-1.145 1.134 0 1.941 0.87 1.941 2.453v3.572c0 1.337-0.893 2.223-1.925 2.223-0.595 0-1.075-0.274-1.575-0.915v4.884h2.313l0.678-0.729c0.303-0.38 0.661-0.795 1.084-1.282l0.212-0.245z"></path>
<path d="M5.5 20.608v-2.817c0-0.624-0.189-0.957-0.624-0.957-0.436 0-0.626 0.333-0.626 0.957v2.817c0 0.625 0.19 0.916 0.626 0.916 0.435 0 0.624-0.291 0.624-0.916zM31.571 19.009c0-1.16-0.829-2.897-0.829-2.897-0.13-0.303-0.569-0.861-0.852-1.361h0.006c-0.090 0-0.153-0.171-0.153-0.171-0.827-0.949-2.083-1.995-2.635-2.677-0.648-0.799-0.666-1.54-0.7-2.124-0.094-1.575 0.544-2.522 1.226-3.453 1.032-1.405 1.403-1.665 2.196-2.583 0.508-0.587 0.925-1.060 1.268-1.492h-7.691c-0.457 0.585-1.387 1.71-1.918 2.71-0.7 1.322-1.277 2.314-1.334 4.748l0.024 0.785c0 1.16 0.831 2.895 0.831 2.895 0.13 0.303 0.568 0.862 0.849 1.362h-0.006c0.093 0 0.153 0.171 0.153 0.171 0.829 0.949 2.083 1.995 2.637 2.677 0.648 0.8 0.664 1.541 0.698 2.123 0.095 1.575-0.544 2.522-1.226 3.453-1.030 1.406-1.402 1.666-2.196 2.585-0.506 0.586-0.922 1.059-1.266 1.491h7.945c0.467-0.6 1.129-1.704 1.663-2.709 0.701-1.322 1.278-2.315 1.334-4.747l-0.025-0.785z"></path>
</svg>
