<!-- Generated by IcoMoon.io -->
<svg version="1.1" xmlns="http://www.w3.org/2000/svg" width="32" height="32" viewBox="0 0 32 32">
<title>phpstorm</title>
<path d="M17.898 20.374v-2.674c0-0.592-0.18-0.908-0.592-0.908-0.415 0-0.594 0.316-0.594 0.908v2.674c0 0.593 0.179 0.869 0.594 0.869 0.412 0 0.592-0.276 0.592-0.869z"></path>
<path d="M20.781 24.535c0.25-0.289 0.458-0.513 0.659-0.73 0.399-0.429 0.743-0.8 1.372-1.656 0.617-0.84 1.017-1.471 0.952-2.558-0.033-0.557-0.055-0.942-0.419-1.39-0.219-0.27-0.625-0.663-1.056-1.076-0.466-0.45-0.871-0.877-1.419-1.447-0.55-0.572-1.26-2.029-1.26-2.029-0.248-0.565-0.748-1.838-0.748-2.875l-0.024-0.668c0-0.028 0.003-0.038 0.004-0.038h-8.060v5.716c0.475-0.523 1.053-0.701 1.605-0.701 0.896 0 1.717 0.523 1.717 1.681v5.88h-2.136v-5.164c0-0.469-0.22-0.689-0.579-0.689-0.401 0-0.607 0.261-0.607 0.689v5.164h-2.136v-12.576h-7.356v16.61h1.424v-11.39h1.898v0.881c0.475-0.743 1.111-1.087 1.718-1.087 1.076 0 1.841 0.826 1.841 2.328v3.39c0 1.269-0.848 2.11-1.826 2.11-0.565 0-1.021-0.26-1.496-0.868v4.636h9.729v-11.39h1.898v0.881c0.475-0.743 1.112-1.087 1.717-1.087 1.076 0 1.842 0.826 1.842 2.328v3.39c0 1.269-0.848 2.11-1.827 2.11-0.565 0-1.020-0.26-1.495-0.868v4.636h2.195l0.643-0.692c0.288-0.361 0.627-0.755 1.029-1.217l0.201-0.233z"></path>
<path d="M6.034 20.374v-2.674c0-0.592-0.179-0.908-0.592-0.908s-0.594 0.316-0.594 0.908v2.674c0 0.593 0.18 0.869 0.594 0.869s0.592-0.276 0.592-0.869zM30.779 18.856c0-1.101-0.787-2.75-0.787-2.75-0.123-0.288-0.54-0.817-0.809-1.292h0.006c-0.085 0-0.145-0.162-0.145-0.162-0.785-0.901-1.977-1.894-2.501-2.541-0.615-0.758-0.632-1.462-0.664-2.016-0.089-1.495 0.516-2.394 1.164-3.277 0.98-1.334 1.332-1.58 2.084-2.452 0.482-0.557 0.878-1.006 1.203-1.416h-7.3c-0.434 0.555-1.316 1.623-1.82 2.572-0.664 1.255-1.212 2.196-1.266 4.507l0.023 0.745c0 1.101 0.789 2.748 0.789 2.748 0.123 0.288 0.539 0.818 0.806 1.293h-0.006c0.088 0 0.145 0.162 0.145 0.162 0.787 0.901 1.977 1.894 2.503 2.541 0.615 0.759 0.63 1.463 0.663 2.015 0.090 1.495-0.516 2.394-1.164 3.277-0.978 1.334-1.331 1.581-2.084 2.454-0.48 0.556-0.875 1.005-1.202 1.415h7.541c0.443-0.569 1.072-1.617 1.578-2.571 0.665-1.255 1.213-2.197 1.266-4.506l-0.024-0.745z"></path>
</svg>
