<!-- Generated by IcoMoon.io -->
<svg version="1.1" xmlns="http://www.w3.org/2000/svg" width="28" height="32" viewBox="0 0 28 32">
<title>preact</title>
<path d="M10.811 12.179c0.695-0.543 1.396-1.044 2.092-1.497-1.298-0.744-2.566-1.312-3.72-1.665-2.021-0.621-3.478-0.515-4.051 0.218s-0.322 2.172 0.769 3.983c0.407 0.674 0.913 1.373 1.503 2.079 0.975-1.056 2.122-2.113 3.407-3.117z"></path>
<path d="M16.215 12.917c-0.797-0.622-1.607-1.191-2.414-1.696-0.806 0.506-1.617 1.075-2.414 1.697-1.26 0.984-2.398 2.035-3.361 3.090 0.963 1.054 2.101 2.105 3.361 3.090 0.797 0.622 1.607 1.191 2.414 1.697 0.806-0.506 1.617-1.075 2.414-1.697 1.26-0.984 2.398-2.035 3.361-3.090-0.963-1.054-2.101-2.105-3.361-3.090zM13.801 17.996c-1.098 0-1.989-0.891-1.989-1.989s0.891-1.989 1.989-1.989 1.989 0.891 1.989 1.989c0 1.098-0.891 1.989-1.989 1.989z"></path>
<path d="M20.198 15.296c0.59-0.705 1.098-1.404 1.503-2.079 1.091-1.812 1.342-3.251 0.769-3.983s-2.030-0.838-4.051-0.218c-1.154 0.354-2.42 0.923-3.72 1.665 0.697 0.454 1.397 0.955 2.092 1.497 1.284 1.004 2.433 2.061 3.407 3.117z"></path>
<path d="M16.791 19.833c-0.695 0.544-1.396 1.044-2.093 1.498 1.298 0.744 2.566 1.312 3.72 1.665 2.022 0.621 3.478 0.515 4.051-0.218v0c0.573-0.733 0.323-2.172-0.769-3.983-0.407-0.674-0.913-1.373-1.503-2.079-0.974 1.056-2.122 2.113-3.407 3.117z"></path>
<path d="M7.405 16.717c-0.59 0.705-1.098 1.404-1.503 2.079-1.091 1.812-1.342 3.251-0.769 3.983v0c0.573 0.733 2.030 0.838 4.051 0.218 1.154-0.354 2.421-0.923 3.72-1.665-0.697-0.454-1.397-0.955-2.093-1.498-1.284-1.004-2.432-2.061-3.407-3.117z"></path>
<path d="M13.847 0.98l-12.99 7.5v15l12.99 7.5 12.99-7.5v-15l-12.99-7.5zM23.208 23.356c-1.395 1.786-5.246 1.029-9.406-1.463-4.161 2.492-8.011 3.248-9.406 1.463-1.203-1.54-0.131-4.392 2.38-7.349-2.511-2.957-3.583-5.809-2.38-7.349 1.395-1.786 5.246-1.029 9.406 1.463 4.161-2.492 8.011-3.248 9.406-1.463 1.203 1.54 0.131 4.392-2.38 7.349 2.511 2.957 3.583 5.809 2.38 7.349z"></path>
</svg>
