<!-- Generated by IcoMoon.io -->
<svg version="1.1" xmlns="http://www.w3.org/2000/svg" width="28" height="32" viewBox="0 0 28 32">
<title>preact</title>
<path d="M10.603 11.93c0.74-0.578 1.487-1.112 2.228-1.595-1.383-0.792-2.733-1.397-3.962-1.774-2.153-0.661-3.705-0.549-4.315 0.232s-0.343 2.314 0.819 4.243c0.433 0.718 0.972 1.463 1.601 2.214 1.038-1.125 2.26-2.251 3.629-3.32z"></path>
<path d="M16.359 12.716c-0.849-0.663-1.712-1.269-2.571-1.807-0.859 0.539-1.722 1.145-2.571 1.808-1.342 1.048-2.554 2.168-3.58 3.291 1.026 1.123 2.238 2.242 3.58 3.291 0.849 0.663 1.712 1.269 2.571 1.808 0.859-0.539 1.722-1.145 2.571-1.808 1.342-1.048 2.554-2.168 3.58-3.291-1.026-1.123-2.238-2.242-3.58-3.291zM13.788 18.126c-1.17 0-2.119-0.949-2.119-2.119s0.949-2.119 2.119-2.119 2.119 0.949 2.119 2.119c0 1.17-0.949 2.119-2.119 2.119z"></path>
<path d="M20.602 15.25c0.629-0.751 1.169-1.495 1.601-2.214 1.162-1.93 1.429-3.463 0.819-4.243s-2.162-0.893-4.315-0.232c-1.229 0.377-2.578 0.983-3.962 1.774 0.742 0.484 1.488 1.017 2.228 1.595 1.368 1.069 2.591 2.195 3.629 3.32z"></path>
<path d="M16.973 20.083c-0.74 0.579-1.487 1.112-2.229 1.596 1.383 0.792 2.733 1.397 3.962 1.774 2.154 0.661 3.705 0.549 4.315-0.232v0c0.61-0.781 0.344-2.314-0.819-4.243-0.433-0.718-0.972-1.463-1.601-2.214-1.038 1.125-2.26 2.251-3.629 3.32z"></path>
<path d="M6.975 16.764c-0.629 0.751-1.169 1.495-1.601 2.214-1.162 1.93-1.429 3.463-0.819 4.243v0c0.61 0.781 2.162 0.893 4.315 0.232 1.229-0.377 2.579-0.983 3.962-1.774-0.742-0.484-1.488-1.017-2.229-1.596-1.368-1.069-2.591-2.195-3.629-3.32z"></path>
<path d="M13.837 0.001l-13.837 7.989v15.977l13.837 7.989 13.837-7.989v-15.977l-13.837-7.989zM23.808 23.835c-1.486 1.902-5.588 1.096-10.019-1.558-4.432 2.654-8.533 3.46-10.019 1.558-1.281-1.64-0.14-4.678 2.535-7.828-2.675-3.15-3.817-6.188-2.535-7.828 1.486-1.902 5.588-1.096 10.019 1.558 4.432-2.654 8.533-3.46 10.019-1.558 1.281 1.64 0.14 4.678-2.535 7.828 2.675 3.15 3.816 6.188 2.535 7.828z"></path>
</svg>
