<!-- Generated by IcoMoon.io -->
<svg version="1.1" xmlns="http://www.w3.org/2000/svg" width="34" height="32" viewBox="0 0 34 32">
<title>react</title>
<path d="M19.807 15.984c0 1.603-1.299 2.902-2.902 2.902s-2.902-1.299-2.902-2.902c0-1.603 1.299-2.902 2.902-2.902s2.902 1.299 2.902 2.902z"></path>
<path d="M16.905 26.655c2.278 2.215 4.524 3.525 6.334 3.525 0.593 0 1.155-0.125 1.622-0.405 1.622-0.937 2.215-3.277 1.654-6.615-0.093-0.593-0.218-1.185-0.375-1.81 0.624-0.187 1.185-0.375 1.747-0.562 3.152-1.217 4.899-2.902 4.899-4.742 0-1.872-1.747-3.557-4.899-4.742-0.562-0.218-1.123-0.405-1.747-0.562 0.157-0.624 0.281-1.217 0.375-1.81 0.53-3.401-0.062-5.772-1.685-6.709-0.468-0.28-1.030-0.405-1.622-0.405-1.779 0-4.057 1.31-6.334 3.525-2.247-2.215-4.494-3.525-6.302-3.525-0.593 0-1.155 0.125-1.622 0.405-1.622 0.937-2.215 3.277-1.654 6.615 0.093 0.593 0.218 1.185 0.375 1.81-0.624 0.187-1.185 0.375-1.747 0.562-3.152 1.217-4.899 2.902-4.899 4.742 0 1.872 1.747 3.557 4.899 4.742 0.562 0.218 1.123 0.405 1.747 0.562-0.157 0.624-0.281 1.217-0.375 1.81-0.53 3.339 0.062 5.71 1.654 6.615 0.468 0.281 1.030 0.405 1.622 0.405 1.81 0.062 4.057-1.248 6.334-3.432v0zM15.157 22.443c0.562 0.032 1.155 0.032 1.747 0.032s1.185 0 1.747-0.032c-0.562 0.749-1.155 1.435-1.747 2.090-0.593-0.655-1.185-1.342-1.747-2.090zM11.288 19.229c0.312 0.53 0.593 1.030 0.937 1.529-0.967-0.125-1.872-0.281-2.745-0.468 0.281-0.842 0.593-1.717 0.967-2.59 0.25 0.499 0.53 1.030 0.842 1.529zM9.478 11.709c0.873-0.187 1.778-0.343 2.745-0.468-0.312 0.5-0.624 0.998-0.937 1.529s-0.593 1.030-0.842 1.56c-0.405-0.905-0.718-1.778-0.967-2.622zM11.195 15.984c0.405-0.842 0.842-1.685 1.342-2.527 0.468-0.812 0.998-1.622 1.529-2.434 0.937-0.062 1.872-0.093 2.84-0.093 0.998 0 1.935 0.032 2.84 0.093 0.562 0.812 1.060 1.622 1.529 2.434 0.5 0.842 0.937 1.685 1.342 2.527-0.405 0.842-0.842 1.685-1.342 2.527-0.468 0.812-0.998 1.622-1.529 2.434-0.937 0.062-1.872 0.093-2.84 0.093-0.998 0-1.935-0.032-2.84-0.093-0.562-0.812-1.060-1.622-1.529-2.434-0.5-0.843-0.937-1.685-1.342-2.527v0zM23.396 14.299l-0.842-1.56c-0.312-0.53-0.593-1.030-0.937-1.529 0.967 0.125 1.872 0.281 2.745 0.468-0.28 0.873-0.593 1.747-0.967 2.622v0zM23.396 17.669c0.375 0.873 0.687 1.747 0.967 2.59-0.873 0.187-1.779 0.343-2.745 0.468 0.312-0.5 0.624-0.998 0.937-1.529 0.281-0.468 0.562-0.998 0.842-1.529v0zM24.113 28.497c-0.25 0.157-0.562 0.218-0.905 0.218-1.529 0-3.432-1.248-5.304-3.12 0.905-0.967 1.779-2.060 2.652-3.277 1.467-0.125 2.87-0.343 4.182-0.655 0.157 0.562 0.25 1.123 0.343 1.685 0.437 2.652 0.093 4.555-0.967 5.149zM25.736 12.052c3.495 0.998 5.585 2.527 5.585 3.932 0 1.217-1.435 2.434-3.962 3.402-0.5 0.187-1.060 0.375-1.622 0.53-0.405-1.28-0.905-2.59-1.529-3.932 0.624-1.342 1.155-2.652 1.529-3.932v0zM23.239 3.253c0.343 0 0.624 0.062 0.905 0.218 1.030 0.593 1.404 2.465 0.967 5.149-0.093 0.53-0.218 1.092-0.343 1.685-1.31-0.281-2.715-0.5-4.182-0.655-0.842-1.217-1.747-2.309-2.652-3.277 1.872-1.842 3.775-3.12 5.304-3.12zM18.652 9.525c-0.562-0.032-1.155-0.032-1.747-0.032s-1.185 0-1.747 0.032c0.562-0.749 1.155-1.435 1.747-2.090 0.593 0.655 1.185 1.373 1.747 2.090v0zM9.697 3.472c0.25-0.156 0.562-0.218 0.905-0.218 1.529 0 3.432 1.248 5.304 3.12-0.905 0.967-1.778 2.059-2.652 3.277-1.467 0.125-2.87 0.343-4.182 0.655-0.156-0.562-0.25-1.123-0.343-1.685-0.437-2.652-0.093-4.524 0.967-5.149v0zM8.075 19.916c-3.495-0.998-5.585-2.527-5.585-3.932 0-1.217 1.435-2.434 3.962-3.4 0.5-0.187 1.060-0.375 1.622-0.53 0.405 1.28 0.905 2.59 1.529 3.932-0.624 1.342-1.155 2.684-1.529 3.932zM8.73 23.348c0.093-0.53 0.218-1.092 0.343-1.685 1.31 0.281 2.715 0.5 4.182 0.655 0.842 1.217 1.747 2.309 2.652 3.277-1.872 1.84-3.775 3.12-5.304 3.12-0.343 0-0.624-0.062-0.905-0.218-1.062-0.593-1.404-2.497-0.967-5.149z"></path>
</svg>
