<!-- Generated by IcoMoon.io -->
<svg version="1.1" xmlns="http://www.w3.org/2000/svg" width="32" height="32" viewBox="0 0 32 32">
<title>responsive</title>
<path fill="#000" d="M22.415 22.722c0-1.282 0-2.564 0-3.845 1.966 0 3.933 0 5.899 0 0.048-3.836 0.026-7.631 0.026-11.562 0-0.641 0.091-1.415-0.237-1.659-0.218-0.162-0.925-0.105-1.449-0.105-7.208 0-14.25 0-21.491 0-0.501 0-1.288-0.053-1.501 0.105-0.438 0.325-0.237 2.365-0.237 3.134 0 3.39 0 6.638 0 10.034 0.189 0.136 0.664-0.014 0.895 0.079 0 1.273 0 2.546 0 3.819-1.103 0.054-1.85-0.514-2.028-1.396-0.107-0.533-0.026-1.253-0.026-1.923 0-3.836 0-7.833 0-11.694 0-0.645-0.071-1.327 0.026-1.896 0.133-0.777 0.794-1.37 1.554-1.449 0.958-0.099 2.025 0 3.055 0 6.096 0 12.070 0 18.225 0 0.994 0 2.166-0.127 2.976 0.053 0.628 0.139 1.239 0.621 1.37 1.37 0.1 0.572 0.026 1.281 0.026 1.949 0 3.89 0 7.72 0 11.694 0 0.676 0.083 1.39-0.026 1.923-0.134 0.655-0.655 1.155-1.29 1.317-0.788 0.2-1.967 0.053-2.871 0.053-0.984 0-1.907 0-2.897 0z"></path>
<path fill="#000" d="M12.855 27.173c-0.043-0.121 0.089-0.238 0.158-0.369 0.232-0.44 0.243-1.227 0.211-2.002 2.467 0 4.934 0 7.401 0 0-4.337 0-8.674 0-13.011-3.406-0.061-6.927-0.009-10.377-0.026 0 0.694 0 1.387 0 2.081-0.386 0-0.773 0-1.159 0 0.135-1.347-0.462-3.112 0.816-3.266 0.921-0.111 1.902 0 2.871 0 2.338 0 4.689 0 7.19 0 0.915 0 1.504-0.053 1.765 0.527 0.163 0.362 0.079 1.207 0.079 1.87 0 3.938 0 7.688 0 11.667 0 1.074 0.154 2.246-0.632 2.502-0.263 0.086-0.685 0.026-1.027 0.026-2.472 0-4.817 0-7.295 0zM15.041 25.645c-0.133 0.57 0.32 0.778 0.632 0.711 0.602-0.128 0.421-1.266-0.29-1.053-0.185 0.055-0.322 0.256-0.342 0.342z"></path>
<path fill="#000" d="M5.849 14.478c0.396-0.074 1.079-0.026 1.554-0.026 0.975 0 2.007 0 3.055 0 0.453 0 1.114-0.070 1.449 0.053 0.739 0.271 0.711 0.974 0.711 2.002 0 2.977 0 5.599 0 8.612 0 1.035-0.017 1.697-0.711 1.975-0.35 0.14-1.013 0.079-1.528 0.079-1.13 0-2.045 0-3.213 0-1.126 0-1.867 0.026-2.16-0.737-0.218-0.568-0.079-2.055-0.079-2.765 0-2.42 0-4.679 0-7.111 0-1.11-0.065-1.896 0.922-2.081zM6.112 15.69c0 2.941 0 5.882 0 8.823 1.773 0 3.547 0 5.32 0 0.061-2.906 0.009-5.926 0.026-8.876-1.721-0.061-3.555-0.009-5.32-0.026-0.031 0.004-0.029 0.042-0.026 0.079zM8.641 26.356c0.818 0.109 0.751-1.261-0.053-1.053-0.527 0.136-0.453 0.986 0.053 1.053z"></path>
<path fill="#000" d="M25.075 26.541c0 0.105 0 0.211 0 0.316-0.834 0.061-1.782 0.009-2.66 0.026 0-0.606 0-1.212 0-1.817 0.361-0.486 0.508 0.305 0.711 0.579 0.419 0.566 1.372 0.558 1.949 0.895z"></path>
<path fill="#fff" d="M8.588 25.303c0.804-0.207 0.871 1.163 0.053 1.053-0.506-0.067-0.58-0.918-0.053-1.053z"></path>
<path fill="#fff" d="M15.383 25.303c0.711-0.213 0.891 0.925 0.29 1.053-0.313 0.067-0.765-0.141-0.632-0.711 0.020-0.087 0.157-0.287 0.342-0.342z"></path>
</svg>
