<!-- Generated by IcoMoon.io -->
<svg version="1.1" xmlns="http://www.w3.org/2000/svg" width="32" height="32" viewBox="0 0 32 32">
<title>responsive</title>
<path fill="#000" d="M22.961 23.294c0-1.391 0-2.782 0-4.172 2.133 0 4.268 0 6.401 0 0.052-4.162 0.028-8.28 0.028-12.546 0-0.696 0.099-1.535-0.257-1.8-0.237-0.176-1.004-0.114-1.572-0.114-7.821 0-15.462 0-23.319 0-0.544 0-1.398-0.058-1.629 0.114-0.475 0.353-0.257 2.566-0.257 3.401 0 3.678 0 7.203 0 10.888 0.205 0.148 0.72-0.015 0.971 0.086 0 1.381 0 2.763 0 4.144-1.197 0.059-2.007-0.558-2.201-1.515-0.116-0.578-0.028-1.36-0.028-2.087 0-4.162 0-8.499 0-12.689 0-0.7-0.077-1.44 0.028-2.057 0.144-0.843 0.862-1.487 1.686-1.572 1.039-0.107 2.197 0 3.315 0 6.615 0 13.097 0 19.776 0 1.079 0 2.35-0.138 3.229 0.058 0.681 0.151 1.344 0.674 1.487 1.487 0.108 0.621 0.028 1.39 0.028 2.115 0 4.221 0 8.377 0 12.689 0 0.733 0.090 1.508-0.028 2.087-0.145 0.711-0.711 1.253-1.4 1.429-0.855 0.217-2.134 0.058-3.115 0.058-1.068 0-2.069 0-3.143 0z"></path>
<path fill="#000" d="M12.587 28.124c-0.047-0.131 0.097-0.258 0.171-0.4 0.252-0.477 0.264-1.331 0.229-2.172 2.677 0 5.354 0 8.031 0 0-4.706 0-9.412 0-14.118-3.696-0.066-7.516-0.010-11.26-0.028 0 0.753 0 1.505 0 2.258-0.419 0-0.839 0-1.258 0 0.146-1.462-0.501-3.377 0.885-3.544 0.999-0.12 2.064 0 3.115 0 2.537 0 5.088 0 7.802 0 0.993 0 1.632-0.058 1.915 0.572 0.177 0.393 0.086 1.31 0.086 2.029 0 4.273 0 8.342 0 12.66 0 1.165 0.167 2.437-0.686 2.715-0.285 0.093-0.743 0.028-1.114 0.028-2.682 0-5.227 0-7.916 0zM14.959 26.466c-0.144 0.619 0.347 0.844 0.686 0.771 0.653-0.139 0.457-1.374-0.315-1.143-0.201 0.060-0.349 0.278-0.371 0.371z"></path>
<path fill="#000" d="M4.985 14.349c0.43-0.080 1.171-0.028 1.686-0.028 1.058 0 2.178 0 3.315 0 0.492 0 1.209-0.076 1.572 0.058 0.802 0.294 0.771 1.057 0.771 2.172 0 3.23 0 6.075 0 9.345 0 1.123-0.018 1.841-0.771 2.143-0.38 0.152-1.099 0.086-1.658 0.086-1.226 0-2.219 0-3.486 0-1.222 0-2.026 0.028-2.344-0.8-0.237-0.616-0.086-2.23-0.086-3 0-2.626 0-5.077 0-7.716 0-1.204-0.071-2.057 1-2.258zM5.271 15.664c0 3.191 0 6.382 0 9.574 1.924 0 3.849 0 5.773 0 0.066-3.153 0.010-6.43 0.028-9.631-1.867-0.066-3.857-0.010-5.773-0.028-0.034 0.004-0.031 0.046-0.028 0.086zM8.015 27.237c0.888 0.118 0.815-1.368-0.058-1.143-0.572 0.148-0.492 1.070 0.058 1.143z"></path>
<path fill="#000" d="M25.847 27.438c0 0.114 0 0.229 0 0.343-0.905 0.066-1.934 0.010-2.886 0.028 0-0.658 0-1.315 0-1.972 0.392-0.527 0.551 0.331 0.771 0.628 0.455 0.614 1.489 0.605 2.115 0.971z"></path>
<path fill="#fff" d="M7.957 26.095c0.872-0.225 0.945 1.262 0.058 1.143-0.549-0.073-0.629-0.996-0.058-1.143z"></path>
<path fill="#fff" d="M15.331 26.095c0.771-0.231 0.967 1.004 0.315 1.143-0.34 0.073-0.83-0.153-0.686-0.771 0.022-0.094 0.17-0.311 0.371-0.371z"></path>
</svg>
