<!-- Generated by IcoMoon.io -->
<svg version="1.1" xmlns="http://www.w3.org/2000/svg" width="32" height="32" viewBox="0 0 32 32">
<title>safari</title>
<path d="M16 4.338c-0.555 0-1.1 0.035-1.636 0.099-0.036-0.133-0.096-0.255-0.177-0.362 0.284-0.29 0.457-0.673 0.457-1.094 0-0.906-0.802-1.64-1.792-1.64s-1.792 0.734-1.792 1.64c0 0.726 0.515 1.341 1.23 1.557-0.010 0.056-0.016 0.115-0.016 0.173 0 0.049 0.005 0.096 0.011 0.143-5.651 1.614-9.788 6.815-9.788 12.984 0 7.457 6.044 13.502 13.502 13.502s13.502-6.044 13.502-13.502c0-7.457-6.046-13.502-13.502-13.502zM11.485 2.981c0-0.691 0.612-1.25 1.366-1.25s1.366 0.559 1.366 1.25c0 0.314-0.127 0.6-0.335 0.82-0.159-0.096-0.345-0.152-0.545-0.152-0.388 0-0.727 0.209-0.913 0.52-0.545-0.164-0.94-0.633-0.94-1.188zM16 29.216c-6.284 0-11.377-5.093-11.377-11.377s5.093-11.377 11.377-11.377 11.377 5.093 11.377 11.377c0 6.282-5.093 11.377-11.377 11.377zM23.94 22.649l0.742 0.472c0.938-1.54 1.48-3.348 1.48-5.282 0-0.683-0.067-1.348-0.196-1.992l-0.804 0.179c-0.102 0.023-0.202-0.039-0.224-0.137s0.043-0.196 0.145-0.219l0.806-0.179c-0.595-2.514-2.123-4.668-4.199-6.073l-0.525 0.825c-0.055 0.086-0.169 0.112-0.253 0.059s-0.109-0.167-0.055-0.255l0.526-0.827c-1.561-0.978-3.407-1.543-5.383-1.543-0.65 0-1.286 0.062-1.902 0.178l0.209 0.941c0.023 0.1-0.039 0.2-0.137 0.222s-0.196-0.042-0.219-0.142l-0.21-0.945c-2.55 0.579-4.734 2.116-6.157 4.212l0.833 0.53c0.087 0.055 0.115 0.17 0.061 0.255s-0.169 0.109-0.256 0.053l-0.837-0.532c-0.98 1.563-1.548 3.411-1.548 5.392 0 0.678 0.067 1.339 0.194 1.978l0.969-0.216c0.102-0.023 0.201 0.038 0.223 0.137s-0.043 0.196-0.143 0.219l-0.972 0.216c0.601 2.557 2.168 4.74 4.295 6.146l0.595-0.936c0.055-0.086 0.169-0.112 0.253-0.059s0.109 0.167 0.054 0.255l-0.595 0.936c1.541 0.942 3.353 1.485 5.29 1.485 0.709 0 1.401-0.073 2.069-0.21l-0.214-0.959c-0.023-0.1 0.039-0.2 0.137-0.222s0.196 0.042 0.219 0.142l0.213 0.956c2.521-0.617 4.674-2.175 6.062-4.28l-0.742-0.472c-0.087-0.055-0.115-0.17-0.061-0.255s0.169-0.109 0.256-0.053zM11.911 14.988l1.856 0.677c0.267-0.274 0.584-0.5 0.937-0.661v-3.764l1.629 3.5c0.128 0.013 0.253 0.035 0.377 0.063l-0.273 0.256c-0.142-0.023-0.288-0.033-0.436-0.033-1.554 0-2.814 1.26-2.814 2.814 0 0.32 0.055 0.629 0.153 0.916l-0.197 0.329c-0.001-0.004-0.002-0.007-0.005-0.010h-3.716l3.487-1.623c0.049-0.398 0.173-0.772 0.357-1.109l-1.354-1.354zM9.907 25.268l5.011-8.329 7.021-6.585-5.011 8.329-0.036 0.033-6.985 6.551zM20.256 20.479l-1.819-0.696c-0.244 0.305-0.543 0.563-0.883 0.759l0.047-0.007-0.061 3.885-1.547-3.461c-0.268 0-0.528-0.036-0.777-0.099l0.269-0.252c0.166 0.031 0.338 0.048 0.514 0.048 1.554 0 2.814-1.26 2.814-2.814 0-0.434-0.098-0.845-0.274-1.212l0.183-0.305c0.004 0.006 0.007 0.012 0.011 0.018l3.805 0.060-3.423 1.529c-0.011 0.397-0.096 0.776-0.241 1.122l1.383 1.427zM15.968 16.968c-0.48 0.021-0.852 0.428-0.831 0.908s0.428 0.852 0.908 0.831c0.48-0.021 0.852-0.428 0.831-0.908s-0.428-0.852-0.908-0.831z"></path>
</svg>
