<!-- Generated by IcoMoon.io -->
<svg version="1.1" xmlns="http://www.w3.org/2000/svg" width="32" height="32" viewBox="0 0 32 32">
<title>safari</title>
<path d="M16 0.325c-8.65 0-15.675 7.025-15.675 15.675s7.025 15.675 15.675 15.675 15.675-7.025 15.675-15.675-7.025-15.675-15.675-15.675zM16 31.175c-8.375 0-15.175-6.8-15.175-15.175s6.8-15.175 15.175-15.175 15.175 6.8 15.175 15.175-6.8 15.175-15.175 15.175zM16 2h0.25v2.25h-0.25zM16 27.5h0.25v2.25h-0.25zM18.297 2.298l0.246 0.043-0.393 2.241-0.246-0.043zM13.701 29.631l-0.246-0.043 0.393-2.241 0.246 0.043zM20.619 2.9l0.235 0.086-0.78 2.137-0.235-0.086zM11.377 29.028l-0.235-0.086 0.78-2.137 0.235 0.086zM13.717 2.287l0.393 2.241-0.246 0.043-0.393-2.241zM18.286 29.645l-0.393-2.241 0.246-0.043 0.393 2.241zM11.376 2.882l0.779 2.137-0.235 0.086-0.779-2.137zM20.618 29.030l-0.779-2.137 0.235-0.086 0.779 2.137zM9.164 3.902l1.142 1.968-0.216 0.125-1.142-1.968zM22.842 28.041l-1.137-1.971 0.216-0.125 1.137 1.971zM7.187 5.248l1.461 1.744-0.191 0.16-1.461-1.744zM24.817 26.667l-1.461-1.744 0.192-0.16 1.461 1.744zM5.452 6.947l1.744 1.461-0.16 0.191-1.744-1.461zM26.543 24.971l-1.744-1.461 0.16-0.192 1.744 1.461zM4.065 8.93l1.97 1.137-0.125 0.216-1.97-1.137zM27.933 23.015l-1.971-1.137 0.125-0.216 1.971 1.137zM3.007 11.117l2.137 0.779-0.086 0.235-2.137-0.779zM28.99 20.82l-2.137-0.779 0.086-0.235 2.137 0.779zM2.365 13.431l2.241 0.393-0.043 0.246-2.241-0.393zM29.631 18.502l-2.241-0.393 0.043-0.246 2.241 0.393zM2.25 15.75h2.25v0.25h-2.25zM27.75 15.75h2.25v0.25h-2.25zM2.319 18.249l2.241-0.393 0.043 0.246-2.241 0.393zM29.677 13.681l-2.241 0.393-0.043-0.246 2.241-0.393zM2.929 20.596l2.137-0.779 0.086 0.235-2.137 0.779zM29.069 11.33l-2.137 0.779-0.086-0.235 2.137-0.779zM3.933 22.78l1.97-1.137 0.125 0.216-1.97 1.137zM28.064 9.15l-1.971 1.137-0.125-0.216 1.971-1.137zM7.029 23.337l0.16 0.192-1.744 1.462-0.16-0.192zM26.707 7.158l-1.744 1.461-0.16-0.191 1.744-1.461zM6.991 26.52l1.461-1.744 0.191 0.16-1.461 1.744zM25.014 5.428l-1.461 1.744-0.192-0.16 1.461-1.744zM8.965 27.913l1.142-1.968 0.216 0.125-1.142 1.968zM23.042 4.006l-1.137 1.971-0.216-0.125 1.137-1.97zM14.907 2.141l0.109 1.22-0.249 0.022-0.109-1.22zM17.097 29.777l-0.109-1.22 0.249-0.022 0.109 1.22zM12.525 2.542l0.326 1.207-0.241 0.065-0.326-1.207zM19.465 29.404l-0.326-1.207 0.241-0.065 0.326 1.207zM10.257 3.338l0.528 1.133-0.226 0.106-0.528-1.133zM21.756 28.589l-0.534-1.13 0.226-0.107 0.534 1.13zM8.134 4.537l0.714 1.026-0.205 0.143-0.714-1.026zM23.861 27.4l-0.714-1.026 0.205-0.143 0.714 1.026zM6.269 6.066l0.866 0.866-0.177 0.177-0.866-0.866zM25.73 25.851l-0.866-0.866 0.177-0.177 0.866 0.866zM4.701 7.916l1.026 0.714-0.143 0.205-1.026-0.714zM27.303 24.023l-1.026-0.714 0.143-0.205 1.026 0.714zM3.481 10l1.133 0.528-0.106 0.226-1.133-0.528zM28.527 21.939l-1.13-0.534 0.107-0.226 1.13 0.534zM2.632 12.24l1.207 0.326-0.065 0.241-1.207-0.326zM29.361 19.675l-1.207-0.326 0.065-0.241 1.207 0.326zM2.189 14.619l1.22 0.109-0.022 0.249-1.22-0.109zM29.807 17.299l-1.22-0.109 0.022-0.249 1.22 0.109zM2.167 17.056l1.22-0.109 0.022 0.249-1.22 0.109zM29.829 14.888l-1.22 0.109-0.022-0.249 1.22-0.109zM2.566 19.444l1.207-0.326 0.065 0.241-1.207 0.326zM29.428 12.504l-1.207 0.326-0.065-0.241 1.207-0.326zM3.383 21.722l1.133-0.528 0.106 0.227-1.133 0.528zM28.603 10.209l-1.133 0.528-0.105-0.226 1.133-0.528zM4.57 23.825l1.026-0.714 0.143 0.205-1.026 0.714zM27.433 8.1l-1.026 0.714-0.143-0.205 1.026-0.714zM8.146 27.398l-0.205-0.143 0.714-1.026 0.205 0.143zM23.849 4.54l0.204 0.144-0.719 1.023-0.204-0.144zM10.25 28.59l-0.226-0.107 0.534-1.13 0.226 0.107zM21.748 3.356l0.226 0.107-0.534 1.13-0.226-0.107zM12.524 29.381l-0.241-0.065 0.326-1.207 0.241 0.065zM19.466 2.537l0.241 0.065-0.326 1.207-0.241-0.065zM14.908 29.785l-0.249-0.022 0.109-1.22 0.249 0.022zM17.080 2.141l0.249 0.022-0.109 1.22-0.249-0.022zM14.7 14.7l-9.3 11.825 12.050-9.075 9.075-12.050z"></path>
</svg>
