<!-- Generated by IcoMoon.io -->
<svg version="1.1" xmlns="http://www.w3.org/2000/svg" width="32" height="32" viewBox="0 0 32 32">
<title>sass</title>
<path d="M30.616 20.822c-0.103-0.85-0.54-1.512-1.202-2.030-0.766-0.598-1.663-0.846-2.619-0.885-0.779-0.032-1.542 0.093-2.277 0.351l-0.626 0.25-0.082-0.151c-0.217-0.443-0.478-0.866-0.535-1.374-0.041-0.361-0.092-0.721-0.006-1.078l0.292-1.019c0.052-0.175 0.016-0.271-0.15-0.35-0.058-0.028-0.122-0.051-0.184-0.061-0.12-0.018-0.258-0.028-0.399-0.028-0.289 0-0.567 0.043-0.83 0.123l0.020-0.005c-0.14 0.041-0.243 0.12-0.273 0.275-0.019 0.089-0.054 0.174-0.078 0.262-0.103 0.364-0.178 0.738-0.344 1.084-0.421 0.873-0.897 1.712-1.388 2.546l-0.176 0.288c-0.172-0.36-0.355-0.682-0.411-1.062-0.063-0.428-0.112-0.855-0.006-1.28l0.278-0.94c0.047-0.15 0.024-0.226-0.11-0.305-0.068-0.039-0.145-0.075-0.221-0.086-0.424-0.063-0.841-0.030-1.25 0.093-0.127 0.041-0.193 0.123-0.234 0.254l-0.371 1.149-1.981 4.442-0.458 0.907c-0.040 0.077-0.097 0.143-0.147 0.215-0.040-0.047-0.056-0.079-0.056-0.112 0.001-0.19-0.021-0.386 0.015-0.57l0.369-1.659 0.36-1.357c0.041-0.151 0.042-0.293-0.067-0.421-0.182-0.213-0.564-0.26-0.79-0.095-0.024 0.019-0.053 0.030-0.1 0.056l0.019-0.162c0.047-0.346 0.056-0.69-0.037-1.031-0.119-0.424-0.421-0.668-0.86-0.654-0.22 0.004-0.429 0.046-0.623 0.12l0.013-0.004c-0.799 0.313-1.413 0.867-1.934 1.535-0.048 0.061-0.107 0.112-0.174 0.151l-0.003 0.002-2.785 1.53-0.595-0.564-1.925-1.54c-0.568-0.455-1.12-0.93-1.542-1.533-0.314-0.449-0.516-0.939-0.535-1.495-0.024-0.707 0.176-1.352 0.535-1.953 0.461-0.769 1.088-1.386 1.778-1.946 0.729-0.592 1.52-1.093 2.338-1.551 1.145-0.641 2.323-1.208 3.586-1.583 1.295-0.383 2.607-0.604 3.962-0.45 0.533 0.060 1.049 0.182 1.525 0.443 0.364 0.199 0.662 0.46 0.801 0.869 0.136 0.402 0.133 0.808 0.037 1.215-0.193 0.825-0.654 1.506-1.215 2.115-0.933 0.997-2.071 1.676-3.353 2.124-0.738 0.259-1.5 0.421-2.28 0.486-0.637 0.053-1.262-0.003-1.865-0.224-0.4-0.147-0.748-0.372-1.028-0.698-0.050-0.059-0.114-0.121-0.207-0.067s-0.107 0.14-0.077 0.229c0.051 0.147 0.098 0.299 0.178 0.43 0.2 0.327 0.492 0.566 0.813 0.771 0.617 0.393 1.308 0.523 2.023 0.555 1.086 0.047 2.146-0.115 3.19-0.407 1.492-0.416 2.788-1.149 3.828-2.308 0.866-0.964 1.484-2.054 1.617-3.369 0.065-0.642-0.004-1.271-0.305-1.856-0.327-0.635-0.844-1.072-1.463-1.396-0.901-0.473-1.875-0.659-2.878-0.713h-1.006c-1.218 0.059-2.394 0.315-3.538 0.731-0.865 0.315-1.715 0.67-2.539 1.081-1.794 0.897-3.458 1.97-4.841 3.458-0.684 0.741-1.263 1.554-1.596 2.517-0.097 0.282-0.157 0.581-0.227 0.873-0.006 0.024 0.022 0.047-0.037 0.072v0.411c0.060 0.106 0.065 0.21 0.093 0.316 0.178 0.685 0.54 1.274 0.991 1.81 0.642 0.764 1.419 1.379 2.224 1.959l2.106 1.5c0.122 0.084 0.232 0.184 0.363 0.29l-0.304 0.164c-0.935 0.469-1.815 0.995-2.635 1.633-0.495 0.383-0.972 0.792-1.31 1.325-0.542 0.858-0.735 1.772-0.331 2.748 0.119 0.285 0.299 0.533 0.553 0.713 0.082 0.059 0.175 0.118 0.28 0.14l0.749 0.142h0.708c0.785-0.070 1.497-0.338 2.14-0.783 1.007-0.695 1.686-1.626 1.978-2.824 0.212-0.869 0.221-1.74-0.028-2.605-0.029-0.099-0.058-0.177-0.090-0.254l0.006 0.017-0.108-0.25 1.607-0.925 0.024 0.021-0.087 0.288c-0.191 0.697-0.318 1.406-0.271 2.131 0.049 0.771 0.264 1.492 0.715 2.137 0.374 0.521 1.234 0.54 1.622 0.019 0.133-0.171 0.256-0.363 0.361-0.566l0.010-0.021 0.754-1.638 0.044-0.1-0.049 0.714c-0.015 0.355 0.006 0.708 0.127 1.047 0.103 0.28 0.28 0.505 0.612 0.542 0.226 0.026 0.407-0.078 0.574-0.209 0.256-0.203 0.467-0.452 0.623-0.735l0.006-0.013 1.303-2.462 1.221-2.755 0.067-0.164 0.285 1.092c0.142 0.404 0.318 0.798 0.511 1.181 0.091 0.181 0.080 0.299-0.047 0.45l-1.563 1.921-0.324 0.441c-0.058 0.093-0.096 0.208-0.112 0.318-0.031 0.21 0.098 0.411 0.323 0.461 0.206 0.044 0.423 0.061 0.633 0.045 0.723-0.053 1.38-0.308 1.963-0.738 0.752-0.558 0.994-1.308 0.813-2.22-0.050-0.245-0.136-0.483-0.221-0.72-0.037-0.107-0.040-0.181 0.028-0.28 0.602-0.86 1.116-1.771 1.593-2.703 0.019-0.037 0.037-0.075 0.071-0.112 0.155 0.806 0.388 1.583 0.806 2.288l-0.615 0.598c-0.421 0.451-0.785 0.944-0.975 1.542-0.081 0.258-0.145 0.52-0.108 0.796 0.056 0.428 0.407 0.706 0.828 0.607 0.9-0.208 1.677-0.633 2.246-1.383 0.383-0.505 0.417-1.070 0.257-1.662l-0.152-0.505 0.663-0.203c1.163-0.265 2.314-0.219 3.434 0.201 0.654 0.245 1.183 0.656 1.495 1.302 0.374 0.79 0.171 1.538-0.573 2.037-0.069 0.047-0.15 0.084-0.206 0.14-0.035 0.035-0.056 0.107-0.047 0.156 0.005 0.028 0.081 0.065 0.124 0.065 0.245-0.002 0.443-0.131 0.634-0.262 0.477-0.33 0.792-0.776 0.867-1.359 0.002-0.017-0.022-0.033 0.037-0.049v-0.389c-0.060-0.016-0.035-0.032-0.037-0.049zM7.856 22.411c-0.078 1.042-0.55 1.888-1.321 2.57-0.435 0.385-0.932 0.659-1.512 0.755-0.21 0.035-0.425 0.043-0.63-0.044-0.29-0.124-0.355-0.383-0.362-0.658-0.009-0.439 0.145-0.835 0.355-1.211 0.275-0.492 0.678-0.866 1.107-1.215 0.678-0.561 1.413-1.028 2.165-1.458 0.012-0.007 0.028-0.011 0.056-0.023 0.116 0.43 0.172 0.854 0.14 1.287zM13.743 17.883c-0.061 0.386-0.138 0.719-0.235 1.044l0.014-0.056c-0.336 1.116-0.766 2.198-1.234 3.264-0.086 0.196-0.211 0.378-0.321 0.564-0.017 0.028-0.042 0.054-0.065 0.078-0.135 0.134-0.264 0.126-0.332-0.049-0.068-0.179-0.127-0.392-0.167-0.612l-0.003-0.022c-0.028-0.144-0.021-0.295-0.030-0.443 0.009-1.049 0.329-2.005 0.873-2.892 0.224-0.366 0.467-0.715 0.841-0.948 0.107-0.067 0.231-0.124 0.362-0.163l0.011-0.003c0.198-0.056 0.321 0.037 0.288 0.235zM17.752 22.992l1.441-1.682c0.060 0.626-1.002 1.873-1.441 1.682zM22.356 21.861c-0.103 0.058-0.213 0.101-0.318 0.154-0.095 0.050-0.127 0-0.131-0.082-0-0.004-0-0.008-0-0.013 0-0.055 0.008-0.109 0.023-0.16l-0.001 0.004c0.194-0.687 0.551-1.271 1.086-1.748 0.007-0.007 0.019-0.009 0.037-0.019 0.057 0.155 0.090 0.333 0.090 0.519 0 0.575-0.314 1.076-0.781 1.341l-0.008 0.004z"></path>
</svg>
