<!-- Generated by IcoMoon.io -->
<svg version="1.1" xmlns="http://www.w3.org/2000/svg" width="32" height="32" viewBox="0 0 32 32">
<title>sass</title>
<path d="M31.64 21.16c-0.11-0.91-0.578-1.618-1.286-2.172-0.82-0.64-1.78-0.905-2.803-0.947-0.834-0.034-1.65 0.1-2.437 0.376l-0.67 0.268-0.088-0.162c-0.232-0.474-0.512-0.927-0.573-1.47-0.044-0.386-0.098-0.772-0.006-1.153l0.312-1.090c0.056-0.187 0.017-0.29-0.16-0.375-0.062-0.030-0.13-0.055-0.197-0.065-0.128-0.019-0.276-0.030-0.427-0.030-0.309 0-0.607 0.046-0.888 0.132l0.022-0.006c-0.15 0.044-0.26 0.128-0.292 0.294-0.020 0.095-0.058 0.186-0.084 0.28-0.11 0.39-0.19 0.79-0.368 1.16-0.45 0.934-0.96 1.832-1.485 2.724l-0.188 0.308c-0.184-0.385-0.38-0.73-0.44-1.136-0.067-0.458-0.12-0.915-0.006-1.37l0.298-1.006c0.050-0.16 0.026-0.242-0.118-0.326-0.073-0.042-0.155-0.080-0.237-0.092-0.454-0.067-0.9-0.032-1.338 0.1-0.136 0.044-0.207 0.132-0.25 0.272l-0.397 1.23-2.12 4.753-0.49 0.97c-0.043 0.082-0.104 0.153-0.157 0.23-0.043-0.050-0.060-0.085-0.060-0.12 0.001-0.203-0.023-0.413 0.016-0.61l0.395-1.775 0.385-1.452c0.044-0.162 0.045-0.313-0.072-0.45-0.195-0.228-0.603-0.278-0.845-0.102-0.026 0.020-0.057 0.032-0.107 0.060l0.020-0.173c0.050-0.37 0.060-0.738-0.040-1.103-0.127-0.454-0.45-0.715-0.92-0.7-0.236 0.005-0.459 0.050-0.667 0.129l0.014-0.005c-0.855 0.335-1.512 0.928-2.070 1.642-0.052 0.066-0.114 0.12-0.186 0.161l-0.003 0.002-2.98 1.637-0.637-0.603-2.060-1.648c-0.608-0.487-1.198-0.995-1.65-1.64-0.336-0.48-0.552-1.005-0.572-1.6-0.026-0.756 0.188-1.447 0.573-2.090 0.493-0.823 1.164-1.483 1.903-2.082 0.78-0.633 1.626-1.17 2.502-1.66 1.225-0.686 2.486-1.293 3.837-1.694 1.386-0.41 2.79-0.646 4.24-0.482 0.57 0.064 1.123 0.195 1.632 0.474 0.39 0.213 0.708 0.492 0.857 0.93 0.146 0.43 0.142 0.865 0.040 1.3-0.206 0.883-0.7 1.612-1.3 2.263-0.998 1.067-2.216 1.793-3.588 2.273-0.79 0.277-1.605 0.45-2.44 0.52-0.682 0.057-1.35-0.003-1.996-0.24-0.428-0.157-0.8-0.398-1.1-0.747-0.054-0.063-0.122-0.13-0.222-0.072s-0.115 0.15-0.082 0.245c0.055 0.157 0.105 0.32 0.19 0.46 0.214 0.35 0.527 0.606 0.87 0.825 0.66 0.42 1.4 0.56 2.165 0.594 1.162 0.050 2.296-0.123 3.413-0.435 1.596-0.445 2.983-1.23 4.096-2.47 0.927-1.032 1.588-2.198 1.73-3.605 0.070-0.687-0.004-1.36-0.326-1.986-0.35-0.68-0.903-1.147-1.566-1.494-0.964-0.506-2.006-0.705-3.080-0.763h-1.076c-1.303 0.063-2.562 0.337-3.786 0.782-0.926 0.337-1.835 0.717-2.717 1.157-1.92 0.96-3.7 2.108-5.18 3.7-0.732 0.793-1.352 1.663-1.708 2.693-0.104 0.302-0.168 0.622-0.243 0.934-0.006 0.026 0.023 0.050-0.040 0.077v0.44c0.064 0.113 0.070 0.225 0.1 0.338 0.19 0.733 0.578 1.363 1.060 1.937 0.687 0.818 1.518 1.476 2.38 2.096l2.254 1.605c0.13 0.090 0.248 0.197 0.388 0.31l-0.325 0.175c-1 0.502-1.942 1.065-2.82 1.747-0.53 0.41-1.040 0.848-1.402 1.418-0.58 0.918-0.787 1.896-0.354 2.94 0.127 0.305 0.32 0.57 0.592 0.763 0.088 0.063 0.187 0.126 0.3 0.15l0.802 0.152h0.758c0.84-0.075 1.602-0.362 2.29-0.838 1.078-0.744 1.804-1.74 2.117-3.022 0.227-0.93 0.236-1.862-0.030-2.788-0.032-0.106-0.062-0.19-0.096-0.272l0.007 0.019-0.116-0.268 1.72-0.99 0.026 0.022-0.093 0.308c-0.204 0.746-0.34 1.505-0.29 2.28 0.052 0.825 0.282 1.597 0.765 2.287 0.4 0.558 1.32 0.578 1.736 0.020 0.142-0.183 0.274-0.388 0.386-0.606l0.011-0.022 0.807-1.753 0.047-0.107-0.052 0.764c-0.016 0.38 0.006 0.758 0.136 1.12 0.11 0.3 0.3 0.54 0.655 0.58 0.242 0.028 0.436-0.083 0.614-0.224 0.274-0.218 0.5-0.484 0.666-0.787l0.007-0.013 1.394-2.635 1.306-2.948 0.072-0.175 0.305 1.168c0.152 0.432 0.34 0.854 0.547 1.264 0.097 0.194 0.086 0.32-0.050 0.482l-1.673 2.056-0.347 0.472c-0.062 0.1-0.103 0.223-0.12 0.34-0.033 0.225 0.105 0.44 0.346 0.493 0.22 0.047 0.453 0.065 0.677 0.048 0.774-0.057 1.477-0.33 2.1-0.79 0.805-0.597 1.064-1.4 0.87-2.375-0.053-0.262-0.146-0.517-0.237-0.77-0.040-0.114-0.043-0.194 0.030-0.3 0.644-0.92 1.194-1.895 1.705-2.892 0.020-0.040 0.040-0.080 0.076-0.12 0.166 0.863 0.415 1.694 0.862 2.448l-0.658 0.64c-0.45 0.483-0.84 1.010-1.043 1.65-0.087 0.276-0.155 0.556-0.116 0.852 0.060 0.458 0.436 0.755 0.886 0.65 0.963-0.223 1.795-0.677 2.403-1.48 0.41-0.54 0.446-1.145 0.275-1.778l-0.163-0.54 0.71-0.217c1.245-0.284 2.476-0.234 3.675 0.215 0.7 0.262 1.266 0.702 1.6 1.393 0.4 0.845 0.183 1.646-0.613 2.18-0.074 0.050-0.16 0.090-0.22 0.15-0.038 0.038-0.060 0.115-0.050 0.167 0.005 0.030 0.087 0.070 0.133 0.070 0.262-0.002 0.474-0.14 0.678-0.28 0.51-0.353 0.848-0.83 0.928-1.454 0.002-0.018-0.024-0.035 0.040-0.052v-0.416c-0.064-0.017-0.037-0.034-0.040-0.052zM7.285 22.86c-0.083 1.115-0.588 2.020-1.414 2.75-0.465 0.412-0.997 0.705-1.618 0.808-0.225 0.037-0.455 0.046-0.674-0.047-0.31-0.133-0.38-0.41-0.387-0.704-0.010-0.47 0.155-0.893 0.38-1.296 0.294-0.526 0.725-0.927 1.185-1.3 0.725-0.6 1.512-1.1 2.317-1.56 0.013-0.008 0.030-0.012 0.060-0.025 0.124 0.46 0.184 0.914 0.15 1.377zM13.585 18.015c-0.065 0.413-0.147 0.77-0.251 1.117l0.015-0.060c-0.36 1.194-0.82 2.352-1.32 3.493-0.092 0.21-0.226 0.404-0.343 0.604-0.018 0.030-0.045 0.058-0.070 0.084-0.144 0.143-0.282 0.135-0.355-0.052-0.073-0.192-0.136-0.42-0.178-0.655l-0.004-0.024c-0.030-0.154-0.023-0.316-0.032-0.474 0.010-1.123 0.352-2.145 0.934-3.095 0.24-0.392 0.5-0.765 0.9-1.014 0.115-0.072 0.247-0.132 0.388-0.174l0.011-0.003c0.212-0.060 0.343 0.040 0.308 0.252zM17.875 23.482l1.542-1.8c0.064 0.67-1.072 2.004-1.542 1.8zM22.801 22.272c-0.11 0.062-0.228 0.108-0.34 0.165-0.102 0.053-0.136 0-0.14-0.088-0-0.004-0-0.009-0-0.014 0-0.059 0.008-0.117 0.024-0.171l-0.001 0.004c0.208-0.735 0.59-1.36 1.162-1.87 0.008-0.008 0.020-0.010 0.040-0.020 0.061 0.165 0.096 0.356 0.096 0.556 0 0.615-0.336 1.151-0.835 1.435l-0.008 0.004z"></path>
</svg>
