<!-- Generated by IcoMoon.io -->
<svg version="1.1" xmlns="http://www.w3.org/2000/svg" width="32" height="32" viewBox="0 0 32 32">
<title>scrum</title>
<path d="M22.037 22.946c0.083 0.005 0.173 0.016 0.262 0.016 1.269 0.001 2.539-0.006 3.807 0.006 0.278 0.003 0.361-0.092 0.347-0.358-0.018-0.347-0.004-0.695-0.004-1.123 1.44 1.060 2.832 2.083 4.261 3.135-1.418 1.044-2.81 2.069-4.261 3.137 0-0.404 0-0.738 0-1.071 0-0.431 0-0.432-0.419-0.432-8.112 0-16.226 0-24.338 0-0.392 0-0.392 0-0.392-0.395 0-0.856 0.012-1.712-0.006-2.566-0.006-0.278 0.083-0.34 0.349-0.339 4.362 0.008 8.724 0.014 13.086 0.003 2.236-0.006 4.001-0.932 5.168-2.859 2.106-3.48-0.090-8.038-4.126-8.625-3.117-0.453-6.014 1.639-6.542 4.809-0.056 0.33-0.060 0.669-0.092 1.066 0.51-0.069 0.973-0.132 1.496-0.203-0.819 1.584-1.61 3.114-2.413 4.665-1.23-1.267-2.441-2.515-3.626-3.736 0.297-0.049 0.692-0.107 1.083-0.188 0.074-0.016 0.183-0.135 0.181-0.204-0.022-0.83 0.035-1.651 0.197-2.465 0.005-0.025-0.006-0.053-0.014-0.101-0.792-0.135-1.527-0.421-2.193-0.88-1.628-1.127-2.48-3.224-2.080-5.136 0.435-2.083 2.006-3.64 4.037-4.024 1.317-0.248 2.537-0.012 3.671 0.684 0.2 0.123 0.322 0.142 0.453-0.073 0.077-0.126 0.192-0.227 0.325-0.38 0.165 0.665 0.319 1.287 0.473 1.909 0.052 0.209 0.092 0.422 0.153 0.628 0.066 0.223-0.001 0.323-0.238 0.308-0.683-0.047-1.367-0.088-2.050-0.134-0.169-0.012-0.336-0.030-0.553-0.051 0.169-0.213 0.322-0.404 0.49-0.613-0.369-0.28-0.775-0.421-1.199-0.49-2.047-0.335-3.85 1.238-3.809 3.309 0.031 1.589 1.371 3.010 2.954 3.145 0.205 0.017 0.277-0.087 0.356-0.24 1.122-2.153 2.811-3.675 5.11-4.467 5.318-1.834 10.869 1.452 11.894 6.829 0.505 2.648-0.070 5.066-1.676 7.233-0.044 0.060-0.084 0.123-0.123 0.187-0.008 0.012 0.003 0.035 0.009 0.084z"></path>
</svg>
