<!-- Generated by IcoMoon.io -->
<svg version="1.1" xmlns="http://www.w3.org/2000/svg" width="27" height="32" viewBox="0 0 27 32">
<title>semantic-web</title>
<path d="M12.961 26.301l-1.585 4.699h-0.639l-0.952-2.735-0.975 2.735h-0.644l-1.553-4.699h1.144l0.761 2.572 0.872-2.572h0.79l0.856 2.572 0.797-2.572h1.132zM15.832 29.523h-1.896c0.037 0.208 0.127 0.378 0.281 0.509 0.128 0.122 0.301 0.198 0.492 0.198h0c0.321 0 0.675-0.113 1.063-0.341v0.748c-0.145 0.095-0.312 0.179-0.488 0.245l-0.018 0.006c-0.197 0.075-0.45 0.113-0.756 0.113-0.331 0-0.612-0.078-0.844-0.234-0.231-0.156-0.41-0.372-0.518-0.626l-0.004-0.009c-0.115-0.268-0.172-0.572-0.172-0.909s0.058-0.634 0.172-0.898 0.289-0.472 0.521-0.622 0.514-0.225 0.844-0.225c0.234 0.001 0.452 0.067 0.637 0.181l-0.005-0.003c0.203 0.119 0.37 0.314 0.502 0.584s0.188 0.619 0.188 1.046v0.24zM14.942 28.93c0-0.216-0.043-0.39-0.128-0.519s-0.209-0.194-0.37-0.194-0.288 0.066-0.384 0.197-0.147 0.304-0.147 0.516h1.031zM19.332 29.258c0 0.394-0.061 0.722-0.182 0.983s-0.277 0.45-0.464 0.574-0.381 0.184-0.576 0.184c-0.006 0-0.014 0-0.021 0-0.124 0-0.242-0.023-0.351-0.064l0.007 0.002c-0.094-0.041-0.183-0.086-0.24-0.134-0.064-0.055-0.122-0.111-0.177-0.171l-0.001-0.002v0.305h-0.938v-4.635h0.938v1.434c0.082-0.076 0.178-0.137 0.284-0.18l0.006-0.002c0.12-0.050 0.26-0.079 0.407-0.079 0.007 0 0.015 0 0.022 0l-0.001-0c0.216 0 0.408 0.050 0.572 0.15 0.167 0.101 0.303 0.237 0.402 0.398l0.003 0.005c0.102 0.164 0.182 0.354 0.231 0.557l0.003 0.013c0.051 0.211 0.077 0.431 0.077 0.664zM18.329 29.232c0-0.291-0.052-0.516-0.156-0.668s-0.225-0.229-0.368-0.229-0.302 0.072-0.478 0.218v1.301c0.133 0.159 0.293 0.241 0.478 0.241 0.117 0 0.234-0.061 0.351-0.182s0.173-0.349 0.173-0.681zM14.203 3.016c5.3 2.389 6.456-2.016 6.456-2.016s-1.007 5.525-5.655 7.781l-1.535 0.707-7.614-3.713 7.614-3.122s-0.184-0.052 0.733 0.361zM12.581 19.197l-7.095-3.841v-7.922l7.095 3.607zM14.177 19.197l7.094-3.841v-7.922l-7.094 3.607zM3.544 23.616c0 0.281-0.058 0.542-0.175 0.755-0.114 0.208-0.281 0.374-0.483 0.484l-0.006 0.003c-0.201 0.107-0.44 0.17-0.693 0.17-0.009 0-0.019-0-0.028-0l0.001 0c-0.075 0-0.169-0.007-0.278-0.019s-0.256-0.047-0.438-0.103c-0.218-0.070-0.406-0.154-0.583-0.256l0.014 0.008v-1.139c0.185 0.144 0.375 0.265 0.544 0.361s0.369 0.143 0.572 0.143c0.188 0 0.309-0.039 0.366-0.119s0.084-0.153 0.084-0.222c0-0.001 0-0.003 0-0.004 0-0.124-0.055-0.236-0.142-0.311l-0.001-0c-0.094-0.086-0.234-0.174-0.415-0.266-0.2-0.107-0.375-0.223-0.525-0.35s-0.274-0.284-0.369-0.473-0.143-0.413-0.143-0.672c0-0.249 0.047-0.475 0.145-0.677 0.099-0.203 0.251-0.368 0.437-0.48l0.005-0.003c0.196-0.114 0.432-0.182 0.684-0.182 0.015 0 0.031 0 0.046 0.001l-0.002-0c0.005-0 0.010-0 0.015-0 0.196 0 0.385 0.027 0.565 0.079l-0.014-0.004c0.173 0.050 0.316 0.107 0.428 0.169s0.189 0.113 0.232 0.147v1.087c-0.15-0.136-0.317-0.257-0.501-0.366s-0.381-0.159-0.591-0.159c-0.138 0-0.236 0.034-0.298 0.1s-0.094 0.15-0.094 0.247c0 0.092 0.031 0.171 0.094 0.237 0.096 0.093 0.205 0.173 0.323 0.24l0.008 0.004c0.281 0.167 0.506 0.319 0.675 0.45 0.161 0.126 0.294 0.28 0.393 0.456l0.004 0.008c0.096 0.175 0.143 0.394 0.143 0.653zM6.896 23.551h-1.897c0.032 0.203 0.13 0.379 0.271 0.509l0.001 0.001c0.128 0.122 0.301 0.198 0.492 0.198h0c0.321 0 0.675-0.113 1.063-0.341v0.748c-0.145 0.095-0.312 0.179-0.488 0.245l-0.018 0.006c-0.197 0.075-0.45 0.113-0.756 0.113-0.331 0-0.612-0.078-0.844-0.234-0.231-0.156-0.41-0.372-0.518-0.626l-0.004-0.009c-0.115-0.268-0.173-0.572-0.173-0.909s0.056-0.634 0.173-0.898 0.289-0.472 0.521-0.622 0.514-0.225 0.844-0.225c0.218 0 0.428 0.059 0.632 0.188s0.37 0.314 0.502 0.584 0.188 0.619 0.188 1.046v0.24zM6.006 22.956c0-0.216-0.043-0.39-0.128-0.519s-0.209-0.194-0.37-0.194c-0.003-0-0.006-0-0.009-0-0.156 0-0.294 0.078-0.377 0.196l-0.001 0.002c-0.098 0.131-0.147 0.304-0.147 0.516h1.031zM12.156 24.962h-0.938v-1.809c0-0.24-0.032-0.42-0.094-0.539s-0.162-0.188-0.3-0.188-0.242 0.051-0.328 0.152c-0.092 0.112-0.176 0.237-0.249 0.369l-0.006 0.013v1.997h-0.938v-1.804c0-0.229-0.028-0.406-0.087-0.531s-0.162-0.188-0.311-0.188c-0.071 0-0.136 0.019-0.195 0.053s-0.108 0.075-0.144 0.12c-0.046 0.057-0.091 0.122-0.131 0.189l-0.004 0.008-0.101 0.163v1.997h-0.938v-3.406h0.938v0.494c0.143-0.192 0.288-0.332 0.436-0.419 0.142-0.083 0.312-0.131 0.494-0.131 0.007 0 0.013 0 0.020 0l-0.001-0c0.002-0 0.005-0 0.007-0 0.090 0 0.178 0.012 0.262 0.034l-0.007-0.002c0.082 0.022 0.164 0.056 0.244 0.109s0.153 0.122 0.218 0.212 0.117 0.193 0.156 0.312c0.153-0.219 0.312-0.375 0.478-0.497s0.354-0.169 0.57-0.169 0.394 0.054 0.541 0.164 0.253 0.267 0.322 0.473c0.066 0.208 0.105 0.448 0.105 0.697 0 0.019-0 0.037-0.001 0.056l0-0.003v2.076zM15.512 24.794c-0.139 0.069-0.267 0.126-0.375 0.169s-0.259 0.064-0.424 0.064c-0.157 0-0.265-0.036-0.326-0.106s-0.106-0.157-0.13-0.252l-0.001-0.004c-0.103 0.105-0.216 0.191-0.341 0.26s-0.291 0.103-0.492 0.103c-0.197 0-0.354-0.043-0.475-0.128-0.115-0.079-0.203-0.19-0.252-0.32l-0.002-0.005c-0.049-0.131-0.073-0.264-0.073-0.403 0-0.209 0.042-0.383 0.126-0.519 0.085-0.138 0.199-0.251 0.333-0.333l0.004-0.003c0.141-0.087 0.328-0.178 0.563-0.272l0.3-0.122 0.152-0.066c0.041-0.020 0.076-0.040 0.109-0.062l-0.003 0.002c0-0.165-0.026-0.293-0.080-0.387s-0.169-0.141-0.344-0.141c-0.208 0-0.401 0.058-0.579 0.173s-0.341 0.265-0.49 0.448v-0.924c0.118-0.108 0.246-0.197 0.383-0.264s0.281-0.119 0.431-0.153c0.137-0.032 0.293-0.050 0.455-0.051h0c0.389 0 0.682 0.096 0.878 0.286s0.294 0.453 0.294 0.788v1.314c0 0.125 0.009 0.218 0.028 0.279s0.053 0.092 0.103 0.092c0.060 0 0.141-0.032 0.244-0.097v0.633zM14.192 24.141v-0.806c-0.228 0.115-0.394 0.22-0.5 0.312s-0.158 0.218-0.158 0.375c0 0.113 0.026 0.201 0.079 0.261s0.113 0.090 0.183 0.090 0.131-0.023 0.197-0.068 0.131-0.101 0.2-0.165zM18.756 24.962h-0.938v-1.832c0-0.188-0.024-0.35-0.073-0.488s-0.156-0.209-0.319-0.209c-0.078 0-0.146 0.019-0.206 0.056s-0.113 0.084-0.159 0.141-0.086 0.113-0.118 0.167l-0.098 0.169v1.997h-0.938v-3.403h0.938v0.494c0.15-0.203 0.3-0.347 0.45-0.427s0.319-0.122 0.503-0.122c0.645 0 0.968 0.488 0.968 1.462v1.999z"></path>
<path d="M21.455 24.769c-0.117 0.068-0.253 0.128-0.395 0.171l-0.014 0.004c-0.173 0.056-0.339 0.084-0.497 0.084-0.681 0-1.022-0.425-1.022-1.275v-1.361h-0.431v-0.21l1.27-1.641h0.108v1.017h0.909v0.834h-0.909v1.092c0 0.128 0.007 0.23 0.019 0.309s0.047 0.143 0.103 0.197 0.144 0.079 0.261 0.079c0.152 0 0.351-0.080 0.597-0.241v0.943zM22.87 24.964h-0.938v-3.405h0.938v3.406zM22.795 20.772c0 0.005 0 0.010 0 0.015 0 0.13-0.045 0.249-0.119 0.343l0.001-0.001c-0.079 0.098-0.172 0.147-0.281 0.147-0.073 0-0.141-0.023-0.201-0.066s-0.108-0.105-0.142-0.182-0.052-0.162-0.052-0.255c0-0.138 0.038-0.257 0.115-0.356s0.171-0.15 0.281-0.15c0.116 0.002 0.218 0.060 0.28 0.149l0.001 0.001c0.079 0.1 0.118 0.219 0.118 0.356zM25.831 24.81c-0.064 0.032-0.147 0.068-0.232 0.1l-0.020 0.006c-0.191 0.071-0.412 0.113-0.643 0.113-0.005 0-0.011-0-0.016-0h0.001c-0.294 0-0.544-0.063-0.747-0.189s-0.361-0.284-0.472-0.475c-0.101-0.168-0.18-0.363-0.226-0.571l-0.003-0.013c-0.042-0.199-0.064-0.373-0.064-0.525s0.022-0.328 0.066-0.525 0.119-0.39 0.225-0.576c0.116-0.192 0.274-0.349 0.461-0.462l0.006-0.003c0.203-0.125 0.455-0.188 0.753-0.188 0.199 0 0.361 0.019 0.488 0.053s0.253 0.094 0.381 0.144v0.95c-0.309-0.125-0.553-0.188-0.727-0.188-0.177 0.001-0.337 0.075-0.451 0.193l-0 0c-0.131 0.128-0.188 0.328-0.188 0.6 0 0.18 0.033 0.331 0.098 0.455s0.148 0.214 0.248 0.272c0.086 0.052 0.19 0.084 0.301 0.086h0.001c0.096 0 0.203-0.019 0.325-0.053l0.444-0.154v0.95z"></path>
</svg>
