<!-- Generated by IcoMoon.io -->
<svg version="1.1" xmlns="http://www.w3.org/2000/svg" width="32" height="32" viewBox="0 0 32 32">
<title>semantic-ui</title>
<path d="M0 0v32h32v-32h-32zM23.992 20.308c-0.22 3.136-2.107 5.385-5.106 6.127-3.919 0.969-7.725-0.507-10.941-2.567 0.812-1.236 1.753-2.080 2.56-3.309 1.858 0.791 3.317 1.859 5.261 2.026 1.37 0.117 2.923 0.052 3.231-1.558 0.277-1.451-0.986-2.23-2.218-2.664-1.467-0.517-2.931-1.15-4.37-1.738-2.659-1.086-3.741-3.21-3.559-5.713 0-1.467 1.217-4.433 4.203-5.356 4.587-1.417 7.114 0.034 10.439 2.171-0.883 1.168-1.563 1.999-2.435 3.153 0 0 0 0 0 0v0c0 0 0 0 0 0-1.689-0.98-3.189-1.751-5.151-1.717-1.123 0.020-2.086 0.63-2.289 1.746-0.189 1.039 0.735 1.615 1.696 1.969 1.593 0.587 2.98 1.206 4.546 1.859 2.846 1.186 4.305 3.107 4.133 5.572z"></path>
</svg>
