<!-- Generated by IcoMoon.io -->
<svg version="1.1" xmlns="http://www.w3.org/2000/svg" width="27" height="32" viewBox="0 0 27 32">
<title>semantic-web</title>
<path d="M12.925 26.988l-1.691 5.012h-0.682l-1.015-2.917-1.040 2.917h-0.687l-1.657-5.012h1.22l0.812 2.743 0.93-2.743h0.843l0.913 2.743 0.85-2.743h1.207zM15.988 30.425h-2.022c0.040 0.222 0.136 0.403 0.3 0.543 0.136 0.13 0.321 0.211 0.525 0.211h0c0.342 0 0.72-0.12 1.134-0.364v0.798c-0.155 0.101-0.333 0.191-0.52 0.261l-0.019 0.006c-0.21 0.080-0.48 0.12-0.806 0.12-0.353 0-0.653-0.083-0.9-0.25-0.246-0.167-0.437-0.397-0.552-0.668l-0.004-0.010c-0.123-0.286-0.184-0.61-0.184-0.97s0.062-0.676 0.184-0.958 0.308-0.503 0.556-0.664 0.548-0.24 0.9-0.24c0.249 0.001 0.482 0.072 0.68 0.193l-0.006-0.003c0.217 0.127 0.395 0.335 0.535 0.623s0.2 0.66 0.2 1.116v0.256zM15.038 29.792c0-0.23-0.046-0.416-0.137-0.554s-0.223-0.207-0.395-0.207-0.307 0.070-0.41 0.21-0.157 0.324-0.157 0.55h1.1zM19.721 30.142c0 0.42-0.065 0.77-0.194 1.048s-0.295 0.48-0.495 0.612-0.406 0.196-0.614 0.196c-0.007 0-0.015 0-0.023 0-0.132 0-0.258-0.024-0.374-0.069l0.007 0.002c-0.1-0.044-0.195-0.092-0.256-0.143-0.068-0.059-0.13-0.119-0.189-0.182l-0.001-0.002v0.325h-1v-4.944h1v1.53c0.087-0.081 0.19-0.147 0.303-0.192l0.007-0.002c0.128-0.053 0.278-0.084 0.434-0.084 0.008 0 0.016 0 0.023 0l-0.001-0c0.23 0 0.435 0.053 0.61 0.16 0.178 0.108 0.323 0.253 0.429 0.424l0.003 0.006c0.108 0.175 0.194 0.378 0.246 0.594l0.003 0.014c0.054 0.225 0.082 0.46 0.082 0.708zM18.651 30.114c0-0.31-0.055-0.55-0.166-0.712s-0.24-0.244-0.393-0.244-0.322 0.077-0.51 0.232v1.388c0.142 0.17 0.313 0.257 0.51 0.257 0.125 0 0.25-0.065 0.374-0.194s0.185-0.372 0.185-0.726zM14.25 2.15c5.653 2.548 6.886-2.15 6.886-2.15s-1.074 5.893-6.032 8.3l-1.637 0.754-8.122-3.96 8.122-3.33s-0.196-0.055 0.782 0.385zM12.52 19.41l-7.568-4.097v-8.45l7.568 3.847zM14.222 19.41l7.567-4.097v-8.45l-7.567 3.847zM2.88 24.124c0 0.3-0.062 0.578-0.187 0.805-0.121 0.222-0.3 0.399-0.515 0.517l-0.007 0.003c-0.215 0.114-0.469 0.181-0.74 0.181-0.010 0-0.020-0-0.030-0l0.002 0c-0.080 0-0.18-0.007-0.297-0.020s-0.273-0.050-0.467-0.11c-0.233-0.075-0.433-0.165-0.621-0.273l0.015 0.008v-1.215c0.197 0.154 0.4 0.283 0.58 0.385s0.394 0.153 0.61 0.153c0.2 0 0.33-0.042 0.39-0.127s0.090-0.163 0.090-0.237c0-0.001 0-0.003 0-0.004 0-0.133-0.059-0.252-0.151-0.332l-0.001-0c-0.1-0.092-0.25-0.186-0.443-0.284-0.213-0.114-0.4-0.238-0.56-0.373s-0.292-0.303-0.394-0.505-0.153-0.44-0.153-0.717c0-0.266 0.050-0.507 0.155-0.722 0.105-0.217 0.267-0.393 0.467-0.512l0.005-0.003c0.21-0.122 0.461-0.194 0.729-0.194 0.016 0 0.033 0 0.049 0.001l-0.002-0c0.005-0 0.011-0 0.016-0 0.209 0 0.411 0.029 0.602 0.084l-0.015-0.004c0.185 0.053 0.337 0.114 0.457 0.18s0.202 0.12 0.247 0.157v1.16c-0.16-0.145-0.338-0.274-0.534-0.39s-0.406-0.17-0.63-0.17c-0.147 0-0.252 0.036-0.318 0.107s-0.1 0.16-0.1 0.264c0 0.098 0.033 0.182 0.1 0.253 0.103 0.099 0.219 0.185 0.345 0.256l0.008 0.004c0.3 0.178 0.54 0.34 0.72 0.48 0.172 0.134 0.314 0.298 0.419 0.486l0.004 0.008c0.102 0.187 0.153 0.42 0.153 0.697zM6.456 24.054h-2.023c0.034 0.216 0.139 0.404 0.289 0.542l0.001 0.001c0.136 0.13 0.321 0.211 0.525 0.211h0c0.342 0 0.72-0.12 1.134-0.364v0.798c-0.155 0.101-0.333 0.191-0.52 0.261l-0.019 0.006c-0.21 0.080-0.48 0.12-0.806 0.12-0.353 0-0.653-0.083-0.9-0.25-0.246-0.167-0.437-0.397-0.552-0.668l-0.004-0.010c-0.123-0.286-0.184-0.61-0.184-0.97s0.060-0.676 0.184-0.958 0.308-0.503 0.556-0.664 0.548-0.24 0.9-0.24c0.233 0 0.457 0.063 0.674 0.2s0.395 0.335 0.535 0.623 0.2 0.66 0.2 1.116v0.256zM5.506 23.42c0-0.23-0.046-0.416-0.137-0.554s-0.223-0.207-0.395-0.207c-0.003-0-0.006-0-0.009-0-0.166 0-0.313 0.083-0.402 0.209l-0.001 0.002c-0.105 0.14-0.157 0.324-0.157 0.55h1.1zM12.066 25.56h-1v-1.93c0-0.256-0.034-0.448-0.1-0.575s-0.173-0.2-0.32-0.2-0.258 0.054-0.35 0.162c-0.098 0.119-0.188 0.252-0.265 0.393l-0.007 0.014v2.13h-1v-1.924c0-0.244-0.030-0.433-0.093-0.566s-0.173-0.2-0.332-0.2c-0.076 0-0.145 0.020-0.208 0.057s-0.115 0.080-0.154 0.128c-0.049 0.061-0.097 0.13-0.139 0.202l-0.005 0.008-0.108 0.174v2.13h-1v-3.633h1v0.527c0.152-0.205 0.307-0.354 0.465-0.447 0.151-0.088 0.333-0.14 0.527-0.14 0.007 0 0.014 0 0.021 0l-0.001-0c0.002-0 0.005-0 0.008-0 0.096 0 0.19 0.012 0.279 0.036l-0.008-0.002c0.088 0.023 0.175 0.060 0.26 0.116s0.163 0.13 0.233 0.226 0.125 0.206 0.166 0.333c0.163-0.234 0.333-0.4 0.51-0.53s0.378-0.18 0.608-0.18 0.42 0.058 0.577 0.175 0.27 0.285 0.344 0.504c0.071 0.222 0.112 0.478 0.112 0.743 0 0.020-0 0.040-0.001 0.060l0-0.003v2.214zM15.646 25.38c-0.148 0.074-0.285 0.134-0.4 0.18s-0.276 0.068-0.452 0.068c-0.167 0-0.283-0.038-0.348-0.113s-0.113-0.168-0.139-0.268l-0.001-0.005c-0.11 0.112-0.23 0.204-0.364 0.277s-0.31 0.11-0.525 0.11c-0.21 0-0.378-0.046-0.507-0.137-0.122-0.085-0.216-0.203-0.269-0.341l-0.002-0.005c-0.052-0.14-0.078-0.282-0.078-0.43 0-0.223 0.045-0.408 0.134-0.554 0.091-0.147 0.212-0.268 0.355-0.355l0.005-0.003c0.15-0.093 0.35-0.19 0.6-0.29l0.32-0.13 0.162-0.070c0.044-0.021 0.081-0.043 0.117-0.066l-0.004 0.002c0-0.176-0.028-0.313-0.085-0.413s-0.18-0.15-0.367-0.15c-0.222 0-0.428 0.062-0.618 0.185s-0.364 0.283-0.523 0.478v-0.986c0.126-0.115 0.262-0.21 0.408-0.282s0.3-0.127 0.46-0.163c0.146-0.034 0.313-0.054 0.485-0.054h0c0.415 0 0.727 0.102 0.937 0.305s0.314 0.483 0.314 0.84v1.402c0 0.133 0.010 0.233 0.030 0.298s0.056 0.098 0.11 0.098c0.064 0 0.15-0.034 0.26-0.103v0.675zM14.238 24.684v-0.86c-0.243 0.123-0.42 0.235-0.533 0.333s-0.168 0.232-0.168 0.4c0 0.12 0.028 0.214 0.084 0.278s0.12 0.096 0.195 0.096 0.14-0.024 0.21-0.073 0.14-0.108 0.213-0.176zM19.106 25.559h-1v-1.954c0-0.2-0.026-0.373-0.078-0.52s-0.166-0.223-0.34-0.223c-0.083 0-0.156 0.020-0.22 0.060s-0.12 0.090-0.17 0.15-0.092 0.12-0.126 0.178l-0.105 0.18v2.13h-1v-3.63h1v0.527c0.16-0.217 0.32-0.37 0.48-0.456s0.34-0.13 0.537-0.13c0.688 0 1.032 0.52 1.032 1.56v2.132z"></path>
<path d="M21.985 25.354c-0.125 0.073-0.269 0.136-0.421 0.182l-0.015 0.004c-0.185 0.060-0.362 0.090-0.53 0.090-0.726 0-1.090-0.453-1.090-1.36v-1.452h-0.46v-0.224l1.355-1.75h0.115v1.085h0.97v0.89h-0.97v1.165c0 0.136 0.007 0.245 0.020 0.33s0.050 0.153 0.11 0.21 0.154 0.084 0.278 0.084c0.162 0 0.374-0.085 0.637-0.257v1.006zM23.495 25.562h-1v-3.632h1v3.633zM23.415 21.090c0 0.005 0 0.011 0 0.016 0 0.138-0.048 0.265-0.127 0.366l0.001-0.001c-0.084 0.105-0.184 0.157-0.3 0.157-0.078 0-0.15-0.024-0.214-0.070s-0.115-0.112-0.152-0.194-0.056-0.173-0.056-0.272c0-0.147 0.040-0.274 0.123-0.38s0.182-0.16 0.3-0.16c0.124 0.002 0.232 0.064 0.298 0.159l0.001 0.001c0.084 0.107 0.126 0.234 0.126 0.38zM26.653 25.397c-0.068 0.034-0.157 0.072-0.247 0.106l-0.021 0.007c-0.204 0.076-0.44 0.12-0.686 0.12-0.006 0-0.011-0-0.017-0h0.001c-0.314 0-0.58-0.067-0.797-0.202s-0.385-0.303-0.503-0.507c-0.108-0.179-0.192-0.388-0.241-0.609l-0.003-0.014c-0.045-0.212-0.068-0.398-0.068-0.56s0.023-0.35 0.070-0.56 0.127-0.416 0.24-0.614c0.124-0.205 0.292-0.372 0.492-0.492l0.006-0.004c0.217-0.133 0.485-0.2 0.803-0.2 0.212 0 0.385 0.020 0.52 0.057s0.27 0.1 0.406 0.154v1.013c-0.33-0.133-0.59-0.2-0.775-0.2-0.189 0.001-0.359 0.079-0.481 0.206l-0 0c-0.14 0.137-0.2 0.35-0.2 0.64 0 0.192 0.035 0.353 0.104 0.485s0.158 0.228 0.265 0.29c0.092 0.056 0.203 0.090 0.321 0.092h0.001c0.102 0 0.217-0.020 0.347-0.057l0.474-0.164v1.013z"></path>
</svg>
