<!-- Generated by IcoMoon.io -->
<svg version="1.1" xmlns="http://www.w3.org/2000/svg" width="32" height="32" viewBox="0 0 32 32">
<title>semantic-ui</title>
<path d="M1 1v30h30v-30h-30zM23.492 20.039c-0.206 2.94-1.975 5.048-4.787 5.744-3.674 0.908-7.242-0.475-10.257-2.407 0.761-1.159 1.643-1.95 2.4-3.102 1.742 0.742 3.11 1.743 4.932 1.899 1.284 0.11 2.74 0.049 3.029-1.461 0.26-1.36-0.924-2.091-2.079-2.497-1.375-0.485-2.748-1.078-4.097-1.629-2.493-1.018-3.507-3.009-3.337-5.356 0-1.375 1.141-4.156 3.94-5.021 4.3-1.328 6.669 0.032 9.787 2.035-0.828 1.095-1.465 1.874-2.283 2.956 0 0 0 0 0 0v0c0 0 0 0 0 0-1.583-0.919-2.99-1.642-4.829-1.61-1.053 0.019-1.956 0.591-2.146 1.637-0.177 0.974 0.689 1.514 1.59 1.846 1.493 0.55 2.794 1.131 4.262 1.743 2.668 1.112 4.036 2.913 3.875 5.224z"></path>
</svg>
