<!-- Generated by IcoMoon.io -->
<svg version="1.1" xmlns="http://www.w3.org/2000/svg" width="32" height="32" viewBox="0 0 32 32">
<title>seo</title>
<path d="M15.133 10.389c-1.886 0-3.255 1.41-3.255 3.352 0 1.949 1.369 3.363 3.255 3.363 0 0 0 0 0 0 1.012 0 1.916-0.376 2.544-1.057 0.086-0.093 0.080-0.239-0.013-0.325l-0.473-0.436c-0.093-0.086-0.239-0.080-0.325 0.013-0.417 0.452-1.032 0.701-1.732 0.701-1.065 0-1.88-0.676-2.095-1.707h5.022c0.127 0 0.23-0.103 0.23-0.23v-0.322c0-1.974-1.298-3.352-3.157-3.352zM15.133 11.492c1.062 0 1.811 0.643 2.004 1.696h-4.098c0.216-1.025 1.030-1.697 2.094-1.697z"></path>
<path d="M21.734 10.389c-1.898 0-3.276 1.41-3.276 3.352 0 1.949 1.378 3.363 3.276 3.363 0.909 0 1.741-0.34 2.343-0.957s0.933-1.471 0.933-2.406c0-1.942-1.378-3.352-3.276-3.352zM21.734 16c-1.259 0-2.172-0.95-2.172-2.259 0-1.303 0.914-2.248 2.172-2.248s2.172 0.946 2.172 2.248c0 0.645-0.22 1.226-0.619 1.635-0.393 0.403-0.944 0.624-1.553 0.624z"></path>
<path d="M9.63 13.269c-1.014-0.314-1.374-0.51-1.374-0.982 0-0.717 0.859-0.794 1.228-0.794 0.442 0 0.841 0.107 1.221 0.327 0.11 0.064 0.251 0.026 0.314-0.084l0.323-0.557c0.064-0.11 0.026-0.251-0.084-0.314-0.553-0.32-1.133-0.476-1.775-0.476-1.395 0-2.332 0.763-2.332 1.898 0 1.37 1.243 1.755 2.151 2.037 0.998 0.309 1.238 0.468 1.225 0.807-0.024 0.606-0.863 0.653-1.12 0.653-0.587 0-1.1-0.197-1.481-0.57-0.044-0.043-0.098-0.064-0.163-0.066-0.061 0.001-0.119 0.026-0.162 0.069l-0.45 0.46c-0.089 0.091-0.087 0.236 0.004 0.325 0.583 0.57 1.384 0.884 2.253 0.884 1.309 0 2.181-0.673 2.223-1.714 0.048-1.269-1.136-1.636-2.001-1.904z"></path>
<path d="M31.080 3.122h-30.16c-0.508 0-0.92 0.412-0.92 0.92v19.354c0 0.508 0.412 0.92 0.92 0.92h10.577c-0.405 1.976-1.343 2.996-1.35 3.003-0.257 0.265-0.33 0.659-0.186 0.999s0.478 0.561 0.847 0.561h10.385c0.369 0 0.703-0.221 0.847-0.561s0.071-0.733-0.186-0.999c-0.011-0.011-0.946-1.028-1.35-3.003h10.577c0.508 0 0.92-0.412 0.92-0.92v-19.354c0-0.508-0.412-0.92-0.92-0.92zM30.16 22.475h-1.5v-0.259c0-0.508-0.412-0.92-0.92-0.92s-0.92 0.412-0.92 0.92v0.259h-0.96v-0.259c0-0.508-0.412-0.92-0.92-0.92s-0.92 0.412-0.92 0.92v0.259h-22.18v-17.514h28.32v17.514z"></path>
</svg>
