<!-- Generated by IcoMoon.io -->
<svg version="1.1" xmlns="http://www.w3.org/2000/svg" width="32" height="32" viewBox="0 0 32 32">
<title>seo</title>
<path d="M15.2 10.825c-1.739 0-3.002 1.3-3.002 3.092 0 1.798 1.263 3.102 3.002 3.102 0 0 0 0 0 0 0.933 0 1.767-0.347 2.346-0.975 0.079-0.086 0.074-0.22-0.012-0.3l-0.436-0.402c-0.086-0.079-0.22-0.074-0.3 0.012-0.385 0.417-0.952 0.647-1.597 0.647-0.982 0-1.734-0.623-1.932-1.574h4.632c0.117 0 0.212-0.095 0.212-0.212v-0.297c0-1.821-1.197-3.092-2.912-3.092zM15.2 11.842c0.979 0 1.67 0.593 1.848 1.564h-3.78c0.199-0.945 0.95-1.565 1.931-1.565z"></path>
<path d="M21.289 10.825c-1.751 0-3.022 1.3-3.022 3.092 0 1.798 1.271 3.102 3.022 3.102 0.838 0 1.606-0.314 2.161-0.883s0.861-1.357 0.861-2.219c0-1.791-1.271-3.092-3.022-3.092zM21.289 16c-1.161 0-2.003-0.876-2.003-2.084 0-1.202 0.843-2.073 2.003-2.073s2.003 0.873 2.003 2.073c0 0.595-0.203 1.131-0.571 1.508-0.362 0.372-0.871 0.576-1.432 0.576z"></path>
<path d="M10.125 13.481c-0.935-0.29-1.267-0.47-1.267-0.906 0-0.661 0.792-0.732 1.133-0.732 0.408 0 0.776 0.099 1.126 0.302 0.101 0.059 0.232 0.024 0.29-0.077l0.298-0.514c0.059-0.101 0.024-0.232-0.077-0.29-0.51-0.295-1.045-0.439-1.637-0.439-1.287 0-2.151 0.704-2.151 1.751 0 1.264 1.146 1.619 1.984 1.879 0.92 0.285 1.142 0.432 1.13 0.744-0.022 0.559-0.796 0.602-1.033 0.602-0.541 0-1.015-0.182-1.366-0.526-0.041-0.040-0.090-0.059-0.15-0.061-0.056 0.001-0.11 0.024-0.149 0.064l-0.415 0.424c-0.082 0.084-0.080 0.218 0.004 0.3 0.538 0.526 1.276 0.815 2.078 0.815 1.207 0 2.012-0.621 2.050-1.581 0.044-1.17-1.048-1.509-1.846-1.756z"></path>
<path d="M29.909 4.122h-27.817c-0.469 0-0.849 0.38-0.849 0.849v17.851c0 0.469 0.38 0.849 0.849 0.849h9.755c-0.374 1.823-1.239 2.763-1.245 2.77-0.237 0.244-0.304 0.608-0.172 0.921s0.441 0.517 0.781 0.517h9.578c0.34 0 0.648-0.204 0.781-0.517s0.066-0.676-0.172-0.921c-0.010-0.010-0.872-0.948-1.245-2.77h9.755c0.469 0 0.849-0.38 0.849-0.849v-17.851c0-0.469-0.38-0.849-0.849-0.849zM29.060 21.972h-1.384v-0.239c0-0.469-0.38-0.849-0.849-0.849s-0.849 0.38-0.849 0.849v0.239h-0.885v-0.239c0-0.469-0.38-0.849-0.849-0.849s-0.849 0.38-0.849 0.849v0.239h-20.457v-16.154h26.12v16.154z"></path>
</svg>
