<!-- Generated by IcoMoon.io -->
<svg version="1.1" xmlns="http://www.w3.org/2000/svg" width="32" height="32" viewBox="0 0 32 32">
<title>sketch</title>
<path d="M30.851 11.777c0.002-0.003 0.003-0.005 0.005-0.008 0.007-0.012 0.013-0.024 0.018-0.036 0.001-0.003 0.003-0.006 0.004-0.009 0.006-0.015 0.011-0.030 0.016-0.045 0-0.002 0.001-0.003 0.001-0.004 0.004-0.014 0.006-0.029 0.009-0.044 0-0.003 0.001-0.006 0.001-0.009 0.004-0.032 0.003-0.065-0.002-0.097-0-0.003-0.001-0.006-0.001-0.009-0.003-0.016-0.006-0.032-0.011-0.047-0-0-0-0-0-0.001-0.005-0.016-0.011-0.031-0.018-0.046-0.001-0.002-0.001-0.003-0.002-0.005s-0.002-0.004-0.003-0.006c-0.006-0.012-0.013-0.024-0.020-0.036-0.002-0.002-0.003-0.005-0.004-0.007s-0.002-0.003-0.003-0.005l-5.685-8.212c-0.001-0.001-0.002-0.002-0.003-0.003-0.007-0.010-0.015-0.020-0.023-0.030-0.004-0.005-0.009-0.010-0.014-0.015s-0.010-0.010-0.015-0.015c-0.005-0.005-0.010-0.009-0.015-0.013s-0.012-0.010-0.018-0.014c-0.005-0.003-0.009-0.007-0.014-0.010-0.008-0.006-0.017-0.011-0.026-0.015-0.003-0.002-0.006-0.004-0.009-0.005-0.012-0.006-0.025-0.012-0.039-0.017-0.002-0.001-0.004-0.001-0.006-0.002-0.011-0.004-0.022-0.008-0.034-0.011-0.004-0.001-0.008-0.002-0.013-0.003-0.010-0.002-0.019-0.004-0.029-0.005-0.005-0.001-0.010-0.001-0.015-0.002-0.004-0-0.008-0.001-0.012-0.001l-8.844-0.632c-0.002-0-0.004 0-0.007 0-0.007-0-0.013-0.001-0.020-0.001s-0.014 0.001-0.020 0.001c-0.002 0-0.004-0-0.007 0l-8.844 0.632c-0.004 0-0.008 0.001-0.012 0.001-0.005 0.001-0.010 0.001-0.015 0.002-0.010 0.002-0.021 0.003-0.031 0.006-0.003 0.001-0.007 0.001-0.010 0.002-0.028 0.007-0.055 0.018-0.081 0.031-0.001 0.001-0.002 0.001-0.003 0.002-0.011 0.006-0.022 0.013-0.033 0.020-0.003 0.002-0.006 0.004-0.008 0.006-0.009 0.006-0.017 0.013-0.025 0.020-0.003 0.003-0.007 0.006-0.010 0.008-0.008 0.007-0.015 0.014-0.022 0.022-0.003 0.003-0.005 0.006-0.008 0.008-0.001 0.001-0.001 0.001-0.002 0.002-0.009 0.010-0.017 0.021-0.025 0.032-0 0-0 0.001-0.001 0.001l-5.685 8.212c-0.001 0.002-0.002 0.003-0.003 0.005s-0.003 0.005-0.004 0.007c-0.008 0.012-0.015 0.024-0.021 0.037-0.001 0.002-0.002 0.003-0.003 0.005s-0.001 0.002-0.001 0.003c-0.014 0.031-0.024 0.064-0.030 0.098-0 0.001-0 0.002-0 0.003-0.005 0.034-0.006 0.068-0.002 0.103 0 0.001 0 0.003 0 0.004 0.001 0.006 0.001 0.013 0.003 0.019 0.005 0.028 0.013 0.055 0.024 0.080 0 0.001 0.001 0.001 0.001 0.002 0.007 0.015 0.014 0.030 0.023 0.044 0.001 0.001 0.001 0.002 0.002 0.003 0.009 0.015 0.019 0.029 0.030 0.042 0 0 0 0.001 0.001 0.001l14.529 17.687c0.004 0.004 0.008 0.008 0.012 0.013s0.008 0.009 0.012 0.013 0.017 0.016 0.025 0.023c0.003 0.003 0.006 0.006 0.009 0.008 0.012 0.010 0.025 0.019 0.038 0.027 0.003 0.002 0.005 0.003 0.008 0.004 0.011 0.006 0.022 0.012 0.034 0.017 0.004 0.002 0.009 0.004 0.014 0.006 0.010 0.004 0.020 0.008 0.031 0.011 0.005 0.002 0.010 0.003 0.015 0.004 0.011 0.003 0.022 0.005 0.033 0.007 0.005 0.001 0.009 0.002 0.014 0.002 0.016 0.002 0.032 0.003 0.048 0.003s0.032-0.001 0.048-0.003c0.005-0.001 0.009-0.002 0.014-0.002 0.011-0.002 0.022-0.004 0.033-0.007 0.005-0.001 0.010-0.003 0.015-0.004 0.010-0.003 0.021-0.007 0.031-0.011 0.005-0.002 0.009-0.004 0.014-0.006 0.011-0.005 0.022-0.011 0.033-0.017 0.003-0.002 0.006-0.003 0.009-0.005 0.013-0.008 0.026-0.017 0.038-0.026 0.004-0.003 0.007-0.006 0.010-0.009 0.008-0.007 0.017-0.014 0.024-0.022 0.004-0.004 0.009-0.009 0.013-0.014s0.008-0.008 0.011-0.012l14.529-17.687c0.001-0.001 0.001-0.002 0.002-0.003 0.010-0.013 0.019-0.026 0.028-0.039zM7.158 11.957h17.685l-8.842 16.506-8.842-16.506zM24.514 11.199h-17.028l8.514-7.946 8.514 7.946zM25.023 10.637l-7.98-7.448 7.448 0.532 0.532 6.916zM25.329 4.733l4.477 6.466h-3.979l-0.497-6.466zM6.977 10.637l0.532-6.916 7.448-0.532-7.981 7.448zM6.174 11.199h-3.979l4.477-6.466-0.497 6.466zM6.298 11.957l7.546 14.087-11.571-14.087h4.025zM25.702 11.957h4.025l-11.571 14.087 7.546-14.087z"></path>
</svg>
