<!-- Generated by IcoMoon.io -->
<svg version="1.1" xmlns="http://www.w3.org/2000/svg" width="32" height="32" viewBox="0 0 32 32">
<title>sketch</title>
<path d="M15.953 29.657l-15.25-17.615v-0.078l6.652-8.863 0.043-0.025 8.602-0.902 8.608 0.902 0.043 0.025 6.65 8.86v0.078l-15.25 17.615zM0.83 12l15.17 17.52 15.17-17.52-6.608-8.803-8.563-0.897-8.563 0.897z"></path>
<path d="M15.953 29.657l-15.25-17.615 0.047-0.105h6.178l0.055 0.035 9.072 17.615zM0.887 12.063l14.818 17.117-8.815-17.117z"></path>
<path d="M16.047 29.657l-0.102-0.070 9.072-17.615 0.055-0.035h6.178l0.047 0.102zM25.113 12.063l-8.817 17.117 14.818-17.117z"></path>
<path d="M16.055 29.645h-0.11l-9.072-17.617 0.055-0.090h18.145l0.055 0.090zM7.030 12.063l8.97 17.418 8.97-17.418z"></path>
<path d="M6.973 12.043l-0.107-0.043 0.478-8.86 0.055-0.058 8.602-0.907 0.052 0.105zM7.473 3.195l-0.473 8.635 8.84-9.512z"></path>
<path d="M25.027 12.043l-9.072-9.75 0.045-0.118 8.595 0.9 0.055 0.058 0.485 8.867zM16.16 2.317l8.84 9.512-0.465-8.635z"></path>
<path d="M31.25 12.063h-6.178l-0.073-0.063-0.468-8.857 0.113-0.040 6.655 8.86zM25.133 11.938h6l-6.462-8.598z"></path>
<path d="M25.073 12.063h-18.145l-0.045-0.105 9.072-9.75h0.093l9.073 9.75zM7.072 11.938h17.858l-8.93-9.607z"></path>
<path d="M6.928 12.063h-6.178l-0.050-0.1 6.655-8.86 0.112 0.040-0.468 8.857zM0.875 11.938h6l0.463-8.598z"></path>
</svg>
