<!-- Generated by IcoMoon.io -->
<svg version="1.1" xmlns="http://www.w3.org/2000/svg" width="32" height="32" viewBox="0 0 32 32">
<title>slack-plain</title>
<path d="M13.258 14.742l1.338 3.858 4.147-1.343-1.337-3.857-4.148 1.342z"></path>
<path d="M30.227 11.877c-3.203-10.31-7.825-12.715-18.495-9.627s-13.162 7.565-9.96 17.872 7.825 12.713 18.5 9.62 13.158-7.558 9.955-17.865zM24.83 18.567l-2 0.65 0.698 2c0.053 0.149 0.084 0.322 0.084 0.502 0 0.698-0.464 1.288-1.1 1.478l-0.011 0.003c-0.152 0.051-0.328 0.081-0.51 0.081-0.015 0-0.030 0-0.044-0.001h0.002c-0.681-0.011-1.258-0.444-1.481-1.049l-0.004-0.011-0.698-2-4.148 1.33 0.698 2c0.051 0.147 0.080 0.315 0.080 0.491 0 0.692-0.456 1.278-1.084 1.473l-0.011 0.003c-0.152 0.051-0.328 0.081-0.51 0.081-0.015 0-0.030 0-0.044-0.001h0.002c-0.684-0.004-1.266-0.434-1.494-1.039l-0.004-0.011-0.697-2-2 0.65c-0.153 0.051-0.328 0.081-0.511 0.081-0.015 0-0.029 0-0.044-0.001h0.002c-0.681-0.011-1.258-0.444-1.481-1.049l-0.004-0.011c-0.051-0.147-0.080-0.315-0.080-0.491 0-0.692 0.456-1.278 1.084-1.473l0.011-0.003 2-0.65-1.325-3.87-2 0.65c-0.152 0.051-0.328 0.081-0.51 0.081-0.015 0-0.030 0-0.044-0.001h0.002c-0.681-0.011-1.258-0.444-1.481-1.049l-0.004-0.011c-0.051-0.147-0.080-0.315-0.080-0.491 0-0.692 0.456-1.278 1.084-1.473l0.011-0.003 2-0.65-0.697-2c-0.054-0.15-0.085-0.324-0.085-0.505 0-0.694 0.458-1.281 1.089-1.475l0.011-0.003c0.153-0.053 0.33-0.084 0.514-0.084 0.696 0 1.289 0.438 1.52 1.052l0.004 0.011 0.697 2 4.15-1.342-0.697-2c-0.051-0.147-0.080-0.315-0.080-0.491 0-0.692 0.456-1.278 1.084-1.473l0.011-0.003c0.156-0.055 0.335-0.086 0.522-0.086 0.697 0 1.292 0.44 1.521 1.058l0.004 0.011 0.698 2 2-0.65c0.153-0.053 0.33-0.084 0.514-0.084 0.695 0 1.289 0.438 1.52 1.052l0.004 0.011c0.051 0.147 0.080 0.315 0.080 0.491 0 0.692-0.456 1.278-1.084 1.473l-0.011 0.003-2 0.65 1.337 3.858 2-0.65c0.153-0.053 0.33-0.084 0.514-0.084 0.695 0 1.289 0.438 1.52 1.052l0.004 0.011c0.053 0.15 0.084 0.323 0.084 0.503 0 0.694-0.458 1.281-1.088 1.475l-0.011 0.003z"></path>
</svg>
