<!-- Generated by IcoMoon.io -->
<svg version="1.1" xmlns="http://www.w3.org/2000/svg" width="32" height="32" viewBox="0 0 32 32">
<title>smashing_magazine</title>
<path d="M24.79 1.592c0.523 0.214 1.046 0.69 1.297 1.153 0.154 0.297 0.952 3.686 4.139 17.527 0.429 1.844 0.773 3.626 0.773 3.971 0 0.749-0.25 1.285-0.844 1.82-0.475 0.439-0.737 0.535-3.139 1.106l-1.427 0.333 0.381-0.725c0.523-0.976 0.773-2.129 0.773-3.496 0-2.628-0.976-4.804-2.937-6.552-1.142-1.023-2.83-1.962-5.41-3.021-3.59-1.463-4.638-2.367-4.638-3.995 0.012-1.808 1.439-2.736 3.924-2.568 1.237 0.096 2.544 0.417 3.9 0.976 0.571 0.238 1.118 0.451 1.213 0.487 0.143 0.048 0.369-0.463 0.999-2.175 0.451-1.225 0.844-2.295 0.868-2.367 0.072-0.19-1.902-1.058-3.235-1.427-1.558-0.417-1.594-0.427-1.367-0.487 3.009-0.761 3.983-0.88 4.733-0.559zM8.036 5.587c-0.357 0.511-0.713 1.249-0.904 1.82-0.273 0.82-0.321 1.153-0.321 2.438 0 1.307 0.036 1.593 0.309 2.355 1.034 2.878 3.46 4.947 7.825 6.683 1.95 0.773 3.259 1.511 3.924 2.211 0.678 0.714 0.88 1.307 0.808 2.379-0.060 0.999-0.451 1.582-1.367 2.033-0.666 0.321-0.749 0.333-2.473 0.333-1.653 0-1.878-0.024-3.091-0.381-0.714-0.202-1.712-0.547-2.199-0.749-0.487-0.214-0.988-0.393-1.106-0.405-0.155-0.012-0.451 0.511-1.273 2.235-0.595 1.237-1.070 2.295-1.070 2.331 0 0.143 1.866 0.952 3.079 1.331 0.63 0.202 1.225 0.393 1.319 0.417 0.096 0.036-0.463 0.214-1.249 0.404-2.473 0.607-3.638 0.345-4.293-0.964-0.166-0.333-1.201-4.578-2.664-10.928-2.628-11.355-2.556-10.916-1.914-11.926 0.463-0.737 1.177-1.046 3.52-1.581 1.641-0.357 3.638-0.832 3.71-0.88 0.012-0.012-0.238 0.369-0.571 0.844z"></path>
</svg>
