<!-- Generated by IcoMoon.io -->
<svg version="1.1" xmlns="http://www.w3.org/2000/svg" width="32" height="32" viewBox="0 0 32 32">
<title>sourcetree</title>
<path d="M16 0.182c-8.722 0-15.818 7.096-15.818 15.818s7.096 15.818 15.818 15.818c8.722 0 15.818-7.096 15.818-15.818s-7.096-15.818-15.818-15.818zM16.834 30.225v-2.747l6.86-3.475c0.16-0.082 0.268-0.247 0.268-0.436 0 0 0 0 0-0.001v0-1.573c0.59-0.209 1.005-0.762 1.005-1.413 0-0.054-0.003-0.106-0.008-0.159l0.001 0.006c-0.071-0.766-0.71-1.361-1.489-1.361-0.825 0-1.494 0.669-1.494 1.494 0 0.061 0.004 0.121 0.011 0.18l-0.001-0.007c0.062 0.586 0.456 1.066 0.987 1.254l0.010 0.003v1.273l-6.15 3.115v-2.555l2.711-1.254c0.169-0.079 0.283-0.248 0.284-0.443v0l0.005-4.256 5.018-2.819c0.154-0.086 0.25-0.25 0.25-0.427v-1.186c0.591-0.208 1.008-0.761 1.008-1.412 0-0.825-0.669-1.494-1.494-1.494-0.055 0-0.11 0.003-0.163 0.009l0.007-0.001c-0.757 0.080-1.341 0.715-1.341 1.486 0 0.65 0.415 1.203 0.995 1.408l0.010 0.003v0.902l-5.018 2.817c-0.154 0.087-0.25 0.25-0.25 0.427l-0.005 4.23-2.017 0.933v-9.198l4.221-2.064c0.164-0.081 0.274-0.247 0.274-0.438 0 0 0 0 0 0v0-1.572c0.59-0.209 1.005-0.762 1.005-1.412 0-0.054-0.003-0.107-0.008-0.159l0.001 0.007c-0.080-0.756-0.715-1.34-1.486-1.34-0.054 0-0.108 0.003-0.16 0.009l0.007-0.001c-0.757 0.080-1.341 0.715-1.341 1.486 0 0.054 0.003 0.108 0.009 0.161l-0.001-0.007c0.062 0.586 0.456 1.066 0.987 1.254l0.010 0.003v1.268l-3.517 1.719v-5.311c0.59-0.209 1.005-0.762 1.005-1.412 0-0.825-0.669-1.494-1.494-1.494s-1.494 0.669-1.494 1.494c0 0.054 0.003 0.108 0.009 0.161l-0.001-0.007c0.062 0.586 0.455 1.066 0.987 1.254l0.010 0.003v8.661l-2.486-1.306v-3.934c0 0 0 0 0 0 0-0.158-0.075-0.298-0.191-0.387l-0.001-0.001-1.7-1.303c0.072-0.169 0.114-0.367 0.114-0.573 0-0.825-0.669-1.495-1.495-1.495s-1.495 0.669-1.495 1.495c0 0.825 0.669 1.495 1.495 1.495 0.267 0 0.518-0.070 0.735-0.193l-0.007 0.004 1.566 1.2v3.988c0 0.182 0.101 0.349 0.262 0.433l3.203 1.682v3.181l-5.343-2.471 0.073-1.935c0-0.006 0-0.012 0-0.018 0-0.189-0.107-0.352-0.263-0.434l-0.003-0.001-2.449-1.256c0.037-0.158 0.050-0.323 0.032-0.492-0.089-0.748-0.72-1.323-1.485-1.323-0.825 0-1.495 0.669-1.495 1.495 0 0.048 0.002 0.095 0.007 0.141v-0.006c0.081 0.756 0.715 1.34 1.486 1.34 0.054 0 0.108-0.003 0.16-0.008l-0.007 0.001c0.297-0.031 0.562-0.145 0.778-0.319l-0.003 0.002 2.251 1.154-0.074 1.95c-0.008 0.198 0.104 0.38 0.283 0.462l6.050 2.799v2.271c-0.003 0.019-0.004 0.042-0.004 0.064s0.002 0.045 0.005 0.067v-0.003 6.673c-0.543-0.006-1.072-0.041-1.592-0.104l0.069 0.007v-5.736c0-0.192-0.111-0.365-0.285-0.445l-3.796-1.747c0.005-0.044 0.007-0.095 0.007-0.146 0-0.825-0.669-1.494-1.494-1.494-0.054 0-0.108 0.003-0.161 0.009l0.007-0.001c-0.757 0.080-1.342 0.715-1.342 1.486 0 0.825 0.669 1.494 1.494 1.494 0.424 0 0.806-0.176 1.078-0.46h0.001l3.512 1.616v5.273c-6.598-1.244-11.605-7.047-11.605-14.001 0-7.858 6.394-14.252 14.252-14.252s14.252 6.394 14.252 14.252c0 7.579-5.947 13.793-13.419 14.226z"></path>
</svg>
