<!-- Generated by IcoMoon.io -->
<svg version="1.1" xmlns="http://www.w3.org/2000/svg" width="32" height="32" viewBox="0 0 32 32">
<title>sourcetree</title>
<path d="M16 1c-8.271 0-15 6.729-15 15s6.729 15 15 15c8.271 0 15-6.729 15-15s-6.729-15-15-15zM16.791 29.489v-2.605l6.505-3.295c0.152-0.078 0.254-0.234 0.254-0.413 0 0 0 0 0-0.001v0-1.492c0.559-0.198 0.953-0.723 0.953-1.34 0-0.051-0.003-0.101-0.008-0.151l0.001 0.006c-0.067-0.726-0.673-1.291-1.412-1.291-0.782 0-1.417 0.634-1.417 1.417 0 0.058 0.004 0.115 0.010 0.171l-0.001-0.007c0.059 0.556 0.432 1.011 0.936 1.189l0.009 0.003v1.207l-5.832 2.954v-2.423l2.571-1.189c0.16-0.075 0.268-0.235 0.269-0.42v0l0.005-4.036 4.759-2.673c0.146-0.082 0.237-0.237 0.237-0.405v-1.125c0.56-0.197 0.956-0.722 0.956-1.339 0-0.782-0.634-1.417-1.417-1.417-0.052 0-0.104 0.003-0.155 0.009l0.007-0.001c-0.718 0.076-1.272 0.678-1.272 1.409 0 0.616 0.394 1.141 0.944 1.335l0.009 0.003v0.855l-4.759 2.671c-0.146 0.082-0.237 0.237-0.237 0.405l-0.005 4.011-1.913 0.885v-8.722l4.003-1.957c0.155-0.077 0.26-0.234 0.26-0.415 0 0 0 0 0 0v0-1.491c0.559-0.198 0.953-0.723 0.953-1.339 0-0.051-0.003-0.101-0.008-0.151l0.001 0.007c-0.076-0.717-0.678-1.271-1.409-1.271-0.051 0-0.102 0.003-0.152 0.009l0.007-0.001c-0.718 0.076-1.272 0.678-1.272 1.409 0 0.051 0.003 0.102 0.009 0.153l-0.001-0.007c0.059 0.556 0.432 1.011 0.936 1.189l0.009 0.003v1.202l-3.335 1.63v-5.036c0.559-0.198 0.953-0.723 0.953-1.339 0-0.782-0.634-1.417-1.417-1.417s-1.417 0.634-1.417 1.417c0 0.051 0.003 0.102 0.009 0.153l-0.001-0.007c0.059 0.556 0.431 1.011 0.936 1.189l0.009 0.003v8.213l-2.357-1.238v-3.731c0 0 0 0 0 0 0-0.15-0.071-0.283-0.181-0.367l-0.001-0.001-1.612-1.236c0.068-0.16 0.108-0.348 0.108-0.543 0-0.782-0.634-1.418-1.418-1.418s-1.418 0.634-1.418 1.418c0 0.782 0.634 1.418 1.418 1.418 0.253 0 0.491-0.066 0.697-0.183l-0.007 0.004 1.485 1.138v3.782c0 0.173 0.096 0.331 0.248 0.411l3.037 1.595v3.017l-5.067-2.343 0.069-1.835c0-0.006 0-0.011 0-0.017 0-0.179-0.101-0.334-0.249-0.412l-0.003-0.001-2.322-1.191c0.035-0.15 0.047-0.306 0.030-0.467-0.084-0.709-0.683-1.255-1.408-1.255-0.782 0-1.418 0.634-1.418 1.418 0 0.046 0.002 0.090 0.007 0.134v-0.006c0.077 0.717 0.678 1.271 1.409 1.271 0.051 0 0.102-0.003 0.152-0.008l-0.007 0.001c0.282-0.029 0.533-0.137 0.738-0.303l-0.003 0.002 2.135 1.094-0.070 1.849c-0.008 0.188 0.099 0.36 0.268 0.438l5.737 2.654v2.154c-0.003 0.018-0.004 0.040-0.004 0.061s0.002 0.043 0.005 0.064v-0.003 6.328c-0.515-0.006-1.017-0.039-1.51-0.099l0.065 0.007v-5.439c0-0.182-0.105-0.346-0.27-0.422l-3.6-1.657c0.005-0.042 0.007-0.090 0.007-0.138 0-0.782-0.634-1.417-1.417-1.417-0.051 0-0.102 0.003-0.153 0.009l0.007-0.001c-0.718 0.076-1.273 0.678-1.273 1.409 0 0.782 0.634 1.417 1.417 1.417 0.402 0 0.764-0.167 1.022-0.436h0.001l3.33 1.532v5c-6.257-1.18-11.005-6.683-11.005-13.277 0-7.452 6.063-13.515 13.515-13.515s13.515 6.063 13.515 13.515c0 7.187-5.639 13.080-12.725 13.49z"></path>
</svg>
