<!-- Generated by IcoMoon.io -->
<svg version="1.1" xmlns="http://www.w3.org/2000/svg" width="34" height="32" viewBox="0 0 34 32">
<title>sqllite</title>
<path d="M22.291 1.652c-1.289-1.149-2.85-0.688-4.391 0.68-0.229 0.204-0.457 0.429-0.683 0.669-2.635 2.796-5.081 7.974-5.842 11.929 0.296 0.6 0.527 1.367 0.68 1.952 0.039 0.15 0.074 0.291 0.103 0.41 0.067 0.283 0.103 0.468 0.103 0.468s-0.023-0.089-0.12-0.371c-0.018-0.054-0.039-0.113-0.064-0.183-0.010-0.029-0.024-0.064-0.040-0.101-0.172-0.4-0.647-1.243-0.857-1.611-0.179 0.528-0.338 1.022-0.469 1.47 0.605 1.105 0.972 3 0.972 3s-0.032-0.123-0.184-0.552c-0.135-0.379-0.806-1.555-0.965-1.83-0.272 1.005-0.38 1.682-0.282 1.848 0.19 0.32 0.37 0.872 0.528 1.482 0.357 1.375 0.606 3.049 0.606 3.049s0.008 0.111 0.022 0.282c-0.050 1.155-0.020 2.352 0.069 3.434 0.119 1.433 0.341 2.663 0.626 3.322l0.193-0.105c-0.417-1.297-0.587-2.998-0.513-4.959 0.112-2.998 0.802-6.612 2.076-10.38 2.154-5.687 5.142-10.251 7.875-12.43-2.492 2.251-5.865 9.536-6.875 12.234-1.131 3.021-1.932 5.856-2.414 8.572 0.834-2.546 3.526-3.641 3.526-3.641s1.322-1.629 2.865-3.956c-0.925 0.21-2.443 0.572-2.952 0.786-0.75 0.314-0.953 0.422-0.953 0.422s2.43-1.48 4.515-2.151c2.867-4.516 5.991-10.933 2.845-13.74z"></path>
</svg>
