<!-- Generated by IcoMoon.io -->
<svg version="1.1" xmlns="http://www.w3.org/2000/svg" width="32" height="32" viewBox="0 0 32 32">
<title>ssh</title>
<path d="M8.568 27.296c-0.893 0-2.138 0.931-2.138 1.971 0 0.514 0.32 0.76 0.784 0.76 0.858 0 2.209-0.9 2.209-1.995-0.001-0.539-0.378-0.736-0.855-0.736zM11.536 7.229c0-0.915-0.649-1.615-1.615-1.615-0.906 0-1.638 0.7-1.638 1.615 0 0.858 0.697 1.639 1.614 1.639 0.867 0 1.639-0.683 1.639-1.638zM15.976 3.406c0-0.698-0.456-1.591-1.425-1.591-0.881 0-1.329 0.774-1.329 1.472 0 0.675 0.477 1.662 1.425 1.662 0.881 0 1.329-0.869 1.329-1.543zM12.095 29.267c-0.807 0-1.918 1.056-1.918 1.852 0 0.404 0.168 0.617 0.608 0.617 0.576 0 1.408-0.488 1.766-1.211 0.071-0.142 0.199-0.382 0.199-0.427v-0.404c-0.25-0.337-0.418-0.427-0.655-0.427zM7.119 24.303c0-0.698-0.516-0.974-1.093-0.974-0.842 0-2.303 0.809-2.303 1.971 0 0.656 0.447 0.95 1.068 0.95 0.796 0 2.327-0.722 2.327-1.948zM6.098 14.543c0.845 0 2.018-0.583 2.018-1.781 0-0.905-0.746-1.473-1.567-1.473-0.893 0-2.042 0.62-2.042 1.781 0 0.893 0.721 1.473 1.591 1.473zM6.549 18.889c0-0.831-0.678-1.211-1.401-1.211-0.045 0-0.080-0.014-0.261 0-1.044 0.087-2.018 0.986-2.018 1.9 0 0.854 0.776 1.211 1.448 1.211 0.87 0 2.232-0.668 2.232-1.9zM26.544 2.361c-0.636 0-0.855 0.987-0.855 1.306 0 0.317 0.11 1.021 0.665 1.021 0.652 0 0.855-0.987 0.855-1.306 0-0.268-0.144-1.021-0.665-1.021zM23.433 0.58c-0.739 0-0.973 0.925-0.973 1.354 0 0.282 0.174 1.289 0.879 1.282s0.974-0.923 0.974-1.377c0-0.353-0.17-1.258-0.879-1.258zM28.61 4.973c-0.587 0-0.808 0.965-0.808 1.258 0 0.245 0.094 0.831 0.546 0.831 0.571 0 0.784-0.941 0.784-1.235 0-0.195-0.086-0.855-0.523-0.855zM22.436 26.654c-0.67 0-1.14 1.023-1.14 1.425 0 0.209 0.053 0.427 0.357 0.427 0.663 0 1.14-1.008 1.14-1.425 0-0.195-0.072-0.427-0.357-0.427zM15.786 29.575c-0.758 0-1.639 1.012-1.639 1.71 0 0.102 0.002 0.303 0.19 0.427 0.197 0.129 0.549 0.141 0.974-0.142 0.57-0.381 0.95-1.053 0.95-1.496 0-0.243-0.156-0.498-0.475-0.499zM19.301 0.2c-0.808 0-1.116 0.959-1.116 1.472 0 0.539 0.398 1.472 1.187 1.472 0.801 0 1.107-0.958 1.093-1.449-0.019-0.629-0.282-1.496-1.164-1.496zM19.301 28.578c-0.734 0-1.354 1.052-1.354 1.591 0 0.271 0.123 0.427 0.404 0.427 0.663 0 1.354-1.016 1.354-1.544 0-0.232-0.047-0.475-0.404-0.475z"></path>
</svg>
