<!-- Generated by IcoMoon.io -->
<svg version="1.1" xmlns="http://www.w3.org/2000/svg" width="32" height="32" viewBox="0 0 32 32">
<title>ssh</title>
<path d="M8.944 26.724c-0.848 0-2.030 0.884-2.030 1.871 0 0.488 0.304 0.722 0.744 0.722 0.815 0 2.097-0.854 2.097-1.894-0.001-0.512-0.359-0.699-0.812-0.699zM11.762 7.673c0-0.869-0.616-1.533-1.533-1.533-0.86 0-1.555 0.665-1.555 1.533 0 0.815 0.662 1.556 1.532 1.556 0.823 0 1.556-0.648 1.556-1.555zM15.977 4.044c0-0.663-0.433-1.51-1.353-1.51-0.836 0-1.262 0.735-1.262 1.397 0 0.641 0.453 1.578 1.353 1.578 0.836 0 1.262-0.825 1.262-1.465zM12.293 28.595c-0.766 0-1.821 1.003-1.821 1.758 0 0.384 0.159 0.586 0.577 0.586 0.547 0 1.337-0.463 1.677-1.15 0.067-0.135 0.189-0.363 0.189-0.405v-0.384c-0.237-0.32-0.397-0.405-0.622-0.405zM7.569 23.883c0-0.663-0.49-0.925-1.038-0.925-0.799 0-2.186 0.768-2.186 1.871 0 0.623 0.424 0.902 1.014 0.902 0.756 0 2.209-0.685 2.209-1.849zM6.599 14.617c0.802 0 1.916-0.553 1.916-1.691 0-0.859-0.708-1.398-1.488-1.398-0.848 0-1.939 0.589-1.939 1.691 0 0.848 0.684 1.398 1.51 1.398zM7.028 18.743c0-0.789-0.644-1.15-1.33-1.15-0.043 0-0.076-0.013-0.248 0-0.991 0.083-1.916 0.936-1.916 1.804 0 0.811 0.737 1.15 1.375 1.15 0.826 0 2.119-0.634 2.119-1.804zM26.010 3.052c-0.604 0-0.812 0.937-0.812 1.24 0 0.301 0.104 0.969 0.631 0.969 0.619 0 0.812-0.937 0.812-1.24 0-0.254-0.137-0.969-0.631-0.969zM23.057 1.361c-0.702 0-0.924 0.878-0.924 1.285 0 0.268 0.165 1.224 0.834 1.217s0.925-0.876 0.925-1.307c0-0.335-0.161-1.194-0.834-1.194zM27.971 5.531c-0.557 0-0.767 0.916-0.767 1.194 0 0.233 0.089 0.789 0.518 0.789 0.542 0 0.744-0.893 0.744-1.172 0-0.185-0.082-0.812-0.497-0.812zM22.11 26.114c-0.636 0-1.082 0.971-1.082 1.353 0 0.198 0.050 0.405 0.339 0.405 0.629 0 1.082-0.957 1.082-1.353 0-0.185-0.068-0.405-0.339-0.405zM15.797 28.887c-0.72 0-1.556 0.961-1.556 1.623 0 0.097 0.002 0.288 0.18 0.405 0.187 0.122 0.521 0.134 0.925-0.135 0.541-0.362 0.902-1 0.902-1.42 0-0.231-0.148-0.473-0.451-0.474zM19.134 1c-0.767 0-1.059 0.91-1.059 1.397 0 0.512 0.378 1.397 1.127 1.397 0.76 0 1.051-0.909 1.038-1.376-0.018-0.597-0.268-1.42-1.105-1.42zM19.134 27.941c-0.697 0-1.285 0.999-1.285 1.51 0 0.257 0.117 0.405 0.384 0.405 0.629 0 1.285-0.965 1.285-1.466 0-0.22-0.045-0.451-0.384-0.451z"></path>
</svg>
