<!-- Generated by IcoMoon.io -->
<svg version="1.1" xmlns="http://www.w3.org/2000/svg" width="32" height="32" viewBox="0 0 32 32">
<title>stackoverflow</title>
<path d="M4.458 25.116v6.19h19.509v-12.418l-1.013 0.113-1.051 0.113-0.113 5.139-0.113 5.178h-15.344v-10.504h-1.876v6.19zM7.834 26.054v1.125h12.005v-2.251h-12.005v1.125zM8.015 21.622l-0.122 1.119 11.934 1.301 0.244-2.237-11.934-1.301-0.122 1.119zM8.912 16.328l-0.292 1.087 11.594 3.114 0.584-2.173-11.594-3.114-0.292 1.087zM11.374 10.157l-0.599 0.953 10.162 6.392 1.198-1.906-10.162-6.392-0.599 0.953zM17.123 4.409l-0.927 0.639 6.81 9.888 1.853-1.276-6.81-9.888-0.927 0.639zM24.625 1.513l-1.107 0.206 2.203 11.802 2.213-0.413-2.201-11.802-1.107 0.206z"></path>
</svg>
