<!-- Generated by IcoMoon.io -->
<svg version="1.1" xmlns="http://www.w3.org/2000/svg" width="27" height="32" viewBox="0 0 27 32">
<title>sublime</title>
<path d="M0.98 16.339v12.5h25v-25h-25v12.5zM15.155 10.162c0.27 0.066 0.531 0.147 0.777 0.241 0.536 0.205 1.263 0.448 1.751 0.936 0.197 0.197 0.173 0.255-0.278 0.903-0.266 0.37-0.521 0.729-0.567 0.788-0.058 0.058-0.203-0.046-0.671-0.266-0.942-0.442-1.805-0.844-2.755-0.844-1.331 0-2.014 0.509-2.014 1.516 0 0.926 0.637 1.343 2.894 1.921 2.975 0.764 4.028 1.771 3.982 3.831-0.030 1.309-1.024 2.648-2.183 3.156-1.316 0.576-2.862 0.496-4.21 0.078-0.739-0.229-1.509-0.54-2.181-0.924-0.25-0.142-0.593-0.357-0.806-0.57-0.234-0.234-0.114-0.279 0.098-0.548 0.162-0.219 0.452-0.567 0.637-0.776l0.324-0.394 0.776 0.521c1.123 0.752 1.921 1.019 3.055 1.031 1.123 0.012 1.69-0.219 2.106-0.834 0.219-0.313 0.266-0.509 0.209-0.868-0.081-0.694-0.625-1.134-1.887-1.505-2.778-0.834-3.264-1.007-3.704-1.32-0.555-0.406-0.995-0.961-1.18-1.505-0.185-0.555-0.162-1.724 0.058-2.35 0.817-2.322 3.613-2.744 5.771-2.218z"></path>
</svg>
