<!-- Generated by IcoMoon.io -->
<svg version="1.1" xmlns="http://www.w3.org/2000/svg" width="32" height="32" viewBox="0 0 32 32">
<title>symfony</title>
<path d="M31 16.378c0 8.285-6.716 15.001-15 15.001s-15-6.716-15-15.001c0-8.284 6.716-14.999 15-14.999s15 6.715 15 14.999zM22.558 6.927c-1.524 0.053-2.854 0.893-3.844 2.054-1.097 1.274-1.826 2.785-2.351 4.328-0.94-0.77-1.665-1.767-3.173-2.203-1.166-0.335-2.39-0.197-3.516 0.642-0.534 0.399-0.901 1.001-1.075 1.567-0.453 1.471 0.475 2.781 0.897 3.251l0.921 0.986c0.19 0.194 0.647 0.698 0.424 1.424-0.241 0.789-1.192 1.298-2.164 0.998-0.435-0.135-1.060-0.459-0.92-0.913 0.057-0.187 0.191-0.327 0.264-0.488 0.065-0.139 0.097-0.243 0.117-0.304 0.178-0.582-0.065-1.337-0.687-1.53-0.581-0.178-1.174-0.037-1.405 0.71-0.261 0.85 0.144 2.39 2.321 3.062 2.55 0.783 4.707-0.606 5.013-2.415 0.194-1.133-0.319-1.978-1.258-3.060l-0.763-0.844c-0.464-0.464-0.622-1.251-0.143-1.857 0.404-0.512 0.981-0.729 1.923-0.473 1.377 0.372 1.991 1.329 3.014 2.1-0.423 1.386-0.698 2.778-0.949 4.028l-0.154 0.93c-0.733 3.84-1.291 5.947-2.744 7.159-0.293 0.208-0.71 0.52-1.341 0.542-0.33 0.011-0.437-0.217-0.443-0.317-0.007-0.232 0.188-0.338 0.318-0.443 0.194-0.106 0.488-0.282 0.468-0.843-0.021-0.665-0.573-1.242-1.368-1.214-0.596 0.020-1.504 0.581-1.47 1.608 0.036 1.060 1.023 1.856 2.514 1.804 0.797-0.026 2.577-0.351 4.33-2.435 2.041-2.39 2.611-5.129 3.042-7.135l0.478-2.647c0.266 0.032 0.551 0.053 0.862 0.061 2.541 0.054 3.812-1.263 3.832-2.22 0.012-0.579-0.38-1.151-0.93-1.137-0.394 0.012-0.888 0.273-1.006 0.818-0.115 0.534 0.808 1.017 0.085 1.485-0.513 0.333-1.434 0.567-2.73 0.376l0.236-1.303c0.481-2.471 1.075-5.51 3.326-5.583 0.164-0.008 0.765 0.007 0.778 0.404 0.004 0.133-0.028 0.167-0.184 0.471-0.159 0.236-0.217 0.437-0.211 0.669 0.023 0.631 0.502 1.046 1.196 1.021 0.929-0.030 1.196-0.934 1.181-1.4-0.038-1.092-1.19-1.783-2.712-1.734z"></path>
</svg>
