<!-- Generated by IcoMoon.io -->
<svg version="1.1" xmlns="http://www.w3.org/2000/svg" width="32" height="32" viewBox="0 0 32 32">
<title>travis</title>
<path d="M9.771 8.481h4.648v14.888h-1.743v2.542h6.899v-2.832h-2.179v-14.815h4.938v2.179h2.251v-4.43h-17.357v4.43h2.542zM30.050 0.928h-28.196c-0.491 0-0.944 0.364-0.944 0.85v28.193c0 0.486 0.452 0.878 0.944 0.878h28.196c0.491 0 0.854-0.394 0.854-0.878v-28.193c0-0.486-0.362-0.85-0.854-0.85zM26.039 11.894h-5.156v-2.179h-2.033v11.91h2.179v5.737h-9.804v-5.447h1.743v-11.983h-1.743v1.961h-5.447v-7.335h20.262v7.335z"></path>
</svg>
