<!-- Generated by IcoMoon.io -->
<svg version="1.1" xmlns="http://www.w3.org/2000/svg" width="32" height="32" viewBox="0 0 32 32">
<title>trello</title>
<path d="M31.75 4.035c0-2.091-1.695-3.785-3.785-3.785h-23.929c-2.091 0-3.785 1.695-3.785 3.785v23.929c0 2.091 1.695 3.786 3.785 3.786h23.929c2.091 0 3.785-1.695 3.785-3.786v-23.929zM14.5 24.885c0 0.952-0.822 1.615-1.773 1.615h-6.836c-0.952 0-1.641-0.663-1.641-1.615v-19.078c0-0.952 0.689-1.808 1.641-1.808h6.836c0.952 0 1.773 0.856 1.773 1.808v19.078zM28.25 8.271v7.971c0 0.952-0.734 1.758-1.686 1.758h-6.832c-0.952 0-1.732-0.806-1.732-1.758v-10.526c0-0.952 0.779-1.716 1.732-1.716h6.832c0.952 0 1.686 0.764 1.686 1.716v2.555z"></path>
</svg>
