<!-- Generated by IcoMoon.io -->
<svg version="1.1" xmlns="http://www.w3.org/2000/svg" width="32" height="32" viewBox="0 0 32 32">
<title>trello</title>
<path d="M31 4.605c0-1.991-1.614-3.605-3.605-3.605h-22.79c-1.991 0-3.605 1.614-3.605 3.605v22.789c0 1.991 1.614 3.606 3.605 3.606h22.79c1.991 0 3.605-1.614 3.605-3.606v-22.79zM14.571 24.462c0 0.907-0.783 1.538-1.689 1.538h-6.51c-0.907 0-1.563-0.631-1.563-1.538v-18.169c0-0.907 0.656-1.722 1.563-1.722h6.51c0.907 0 1.689 0.815 1.689 1.722v18.169zM27.667 8.639v7.591c0 0.907-0.699 1.674-1.606 1.674h-6.507c-0.907 0-1.65-0.768-1.65-1.674v-10.025c0-0.907 0.742-1.634 1.65-1.634h6.507c0.907 0 1.606 0.728 1.606 1.634v2.433z"></path>
</svg>
