<!-- Generated by IcoMoon.io -->
<svg version="1.1" xmlns="http://www.w3.org/2000/svg" width="32" height="32" viewBox="0 0 32 32">
<title>twitter</title>
<path d="M10.083 28.978c12.099 0 18.715-10.024 18.715-18.715 0-0.284 0-0.569-0.018-0.851 1.292-0.942 2.381-2.070 3.251-3.358l0.030-0.047c-1.1 0.501-2.375 0.866-3.713 1.030l-0.063 0.006c1.359-0.825 2.381-2.089 2.877-3.593l0.013-0.047c-1.203 0.726-2.602 1.281-4.093 1.583l-0.085 0.014c-1.204-1.278-2.907-2.073-4.795-2.073-3.636 0-6.583 2.947-6.583 6.583 0 0.528 0.062 1.042 0.18 1.534l-0.009-0.045c-5.479-0.283-10.299-2.886-13.53-6.839l-0.026-0.033c-0.561 0.949-0.893 2.090-0.893 3.31 0 2.272 1.151 4.275 2.901 5.458l0.023 0.015c-1.094-0.038-2.11-0.339-2.996-0.842l0.032 0.017c0 0.028 0 0.056 0 0.084 0 0 0 0.001 0 0.001 0 3.169 2.239 5.814 5.222 6.44l0.043 0.008c-0.518 0.147-1.112 0.231-1.726 0.231-0.441 0-0.871-0.043-1.287-0.126l0.042 0.007c0.865 2.636 3.279 4.516 6.139 4.571h0.007c-2.22 1.751-5.058 2.809-8.143 2.809-0.010 0-0.019 0-0.029 0h0.002c-0.002 0-0.005 0-0.007 0-0.55 0-1.093-0.033-1.626-0.098l0.064 0.006c2.845 1.852 6.325 2.954 10.064 2.954 0.007 0 0.013 0 0.020 0h-0.001z"></path>
</svg>
