<!-- Generated by IcoMoon.io -->
<svg version="1.1" xmlns="http://www.w3.org/2000/svg" width="32" height="32" viewBox="0 0 32 32">
<title>twitter</title>
<path d="M10.56 27.932c11.124 0 17.207-9.216 17.207-17.207 0-0.261 0-0.523-0.017-0.782 1.188-0.866 2.189-1.903 2.989-3.087l0.028-0.043c-1.011 0.461-2.184 0.796-3.414 0.947l-0.058 0.005c1.249-0.758 2.189-1.921 2.645-3.303l0.012-0.043c-1.106 0.667-2.392 1.178-3.763 1.455l-0.078 0.013c-1.107-1.175-2.673-1.906-4.409-1.906-3.343 0-6.052 2.709-6.052 6.052 0 0.485 0.057 0.958 0.165 1.41l-0.008-0.041c-5.037-0.26-9.469-2.653-12.439-6.288l-0.024-0.030c-0.516 0.873-0.821 1.922-0.821 3.043 0 2.089 1.058 3.93 2.667 5.018l0.021 0.014c-1.006-0.035-1.94-0.312-2.755-0.774l0.029 0.016c0 0.026 0 0.051 0 0.077 0 0 0 0.001 0 0.001 0 2.914 2.059 5.345 4.801 5.921l0.040 0.007c-0.476 0.135-1.022 0.212-1.587 0.212-0.405 0-0.801-0.040-1.183-0.116l0.039 0.006c0.795 2.424 3.015 4.152 5.644 4.203h0.006c-2.041 1.61-4.65 2.583-7.487 2.583-0.009 0-0.017 0-0.027 0h0.002c-0.002 0-0.005 0-0.006 0-0.506 0-1.005-0.030-1.495-0.090l0.059 0.006c2.616 1.703 5.815 2.716 9.253 2.716 0.006 0 0.012 0 0.018 0h-0.001z"></path>
</svg>
