<!-- Generated by IcoMoon.io -->
<svg version="1.1" xmlns="http://www.w3.org/2000/svg" width="32" height="32" viewBox="0 0 32 32">
<title>typescript</title>
<path d="M1.12 15.978v15h30v-30h-30zM25.296 14.778c0.745 0.177 1.384 0.557 1.875 1.078l0.002 0.002c0.27 0.281 0.509 0.596 0.708 0.937l0.012 0.023c0 0.038-1.296 0.915-2.085 1.404-0.029 0.019-0.144-0.106-0.271-0.296-0.29-0.492-0.808-0.824-1.405-0.847h-0.003c-0.91-0.062-1.496 0.416-1.49 1.2-0.001 0.012-0.001 0.028-0.001 0.042 0 0.19 0.048 0.369 0.133 0.525l-0.003-0.006c0.199 0.416 0.571 0.662 1.738 1.166 2.148 0.924 3.067 1.534 3.638 2.4 0.638 0.96 0.78 2.51 0.349 3.658-0.48 1.248-1.656 2.096-3.319 2.376-0.314 0.038-0.678 0.060-1.046 0.060-0.437 0-0.866-0.031-1.286-0.089l0.048 0.006c-1.202-0.2-2.247-0.763-3.045-1.572l-0.001-0.001c-0.276-0.304-0.814-1.099-0.78-1.157 0.080-0.060 0.17-0.118 0.264-0.169l0.012-0.006 1.104-0.634 0.862-0.499 0.18 0.266c0.307 0.436 0.685 0.799 1.121 1.080l0.016 0.010c0.96 0.504 2.27 0.435 2.918-0.149 0.241-0.236 0.39-0.565 0.39-0.929 0-0.273-0.084-0.526-0.228-0.735l0.003 0.005c-0.24-0.334-0.72-0.614-2.062-1.2-1.549-0.667-2.216-1.080-2.824-1.738-0.368-0.418-0.651-0.92-0.816-1.472l-0.008-0.028c-0.067-0.338-0.106-0.726-0.106-1.123 0-0.281 0.019-0.558 0.057-0.829l-0.004 0.032c0.319-1.496 1.44-2.539 3.077-2.848 0.28-0.036 0.604-0.058 0.933-0.058 0.475 0 0.94 0.043 1.391 0.127l-0.047-0.008zM18.254 16.036v1.229h-3.896v11.095h-2.762v-11.098h-3.904v-1.2c-0.003-0.089-0.004-0.194-0.004-0.3 0-0.33 0.013-0.658 0.040-0.981l-0.003 0.042c0.014-0.019 2.4-0.029 5.28-0.024h5.235z"></path>
</svg>
