<!-- Generated by IcoMoon.io -->
<svg version="1.1" xmlns="http://www.w3.org/2000/svg" width="32" height="32" viewBox="0 0 32 32">
<title>typo3</title>
<path d="M23.6 22.084c-0.445 0.132-0.8 0.176-1.265 0.176-3.809 0-9.406-13.312-9.406-17.744 0-1.633 0.388-2.176 0.933-2.643-4.663 0.544-10.26 2.254-12.047 4.43-0.388 0.544-0.621 1.399-0.621 2.487 0 6.919 7.384 22.618 12.592 22.618 2.41 0 6.472-3.964 9.815-9.326zM21.169 1.409c4.819 0 9.639 0.777 9.639 3.497 0 5.519-3.497 12.203-5.286 12.203-3.187 0-7.151-8.861-7.151-13.291 0-2.021 0.777-2.41 2.798-2.41z"></path>
</svg>
