<!-- Generated by IcoMoon.io -->
<svg version="1.1" xmlns="http://www.w3.org/2000/svg" width="32" height="32" viewBox="0 0 32 32">
<title>visualstudio</title>
<path d="M17.75 7.263c-3.242 3.242-5.97 5.883-6.098 5.883-0.107 0-1.889-1.309-3.929-2.899l-3.693-2.899-3.006 1.503v15.031l3.006 1.503 3.415-2.662c1.89-1.482 3.629-2.812 3.866-2.964 0.43-0.257 0.858 0.129 6.421 5.67l5.948 5.948 3.651-1.482 3.651-1.461v-24.137l-2.791-1.117c-1.524-0.623-3.178-1.267-3.672-1.461l-0.881-0.344-5.883 5.883zM23.569 16.369c0 3.307-0.042 6.012-0.129 6.012-0.301 0-7.601-5.883-7.537-6.077 0.065-0.236 7.258-5.927 7.516-5.927 0.086-0.021 0.151 2.684 0.151 5.991zM6.498 14.221l2.148 2.148-2.148 2.148c-1.181 1.181-2.211 2.148-2.298 2.148-0.107 0-0.172-1.933-0.172-4.294s0.064-4.295 0.172-4.295c0.086 0 1.117 0.967 2.298 2.148z"></path>
</svg>
