<!-- Generated by IcoMoon.io -->
<svg version="1.1" xmlns="http://www.w3.org/2000/svg" width="32" height="32" viewBox="0 0 32 32">
<title>w3c</title>
<path d="M29.151 9.953l-0.548 1.091-0.072-0.128c-0.12-0.209-0.382-0.598-0.527-0.778-0.39-0.485-0.921-0.84-1.458-0.974-0.216-0.053-0.636-0.054-0.832-0.001-0.383 0.105-0.747 0.329-1.087 0.672-0.406 0.407-0.739 0.952-1.016 1.657-0.305 0.775-0.46 1.537-0.511 2.532-0.057 1.082 0.093 2.131 0.433 3.042 0.085 0.223 0.199 0.492 0.208 0.484 0.003-0.003-0.006-0.060-0.018-0.128-0.081-0.424-0.114-1.281-0.075-1.893 0.042-0.636 0.164-1.238 0.404-1.976 0.245-0.764 0.537-1.265 1.009-1.752 0.477-0.489 0.903-0.704 1.465-0.736 0.401-0.021 0.712 0.079 1.158 0.376 0.421 0.283 0.814 0.729 1.133 1.292 0.049 0.085 0.093 0.148 0.1 0.141 0.025-0.028 1.083-2.070 1.090-2.102 0.006-0.028-0.279-1.829-0.3-1.894-0.003-0.008-0.252 0.475-0.553 1.075zM1.886 8.989c0.004 0.022 1.001 3.385 2.213 7.477l2.203 7.439h0.197l1.38-4.62c0.758-2.542 1.384-4.621 1.388-4.621s0.63 2.079 1.388 4.621l1.38 4.62h0.194l1.898-6.405c1.873-6.322 1.9-6.407 1.985-6.554l0.088-0.15h3.129l-0.056 0.095c-0.032 0.053-0.613 1.059-1.293 2.238l-1.239 2.141v0.891h0.488c0.516 0 0.733 0.015 0.994 0.067 0.963 0.197 1.586 0.829 1.813 1.845 0.127 0.563 0.141 1.256 0.042 1.841-0.156 0.923-0.616 1.706-1.178 2.006-0.224 0.121-0.333 0.145-0.648 0.142-0.24-0.001-0.294-0.007-0.433-0.043-0.375-0.102-0.622-0.247-0.92-0.549-0.291-0.294-0.493-0.599-0.691-1.037-0.050-0.111-0.088-0.178-0.102-0.174-0.020 0.006-1.222 0.502-1.412 0.583l-0.079 0.033 0.067 0.185c0.408 1.144 1.155 2.054 2.057 2.504 0.426 0.215 0.832 0.321 1.328 0.348 0.878 0.050 1.67-0.176 2.312-0.665 0.181-0.137 0.502-0.449 0.654-0.637 0.598-0.739 0.946-1.579 1.090-2.624 0.049-0.355 0.061-1.109 0.025-1.486-0.148-1.543-0.81-2.761-1.879-3.459-0.206-0.135-0.538-0.301-0.789-0.393-0.105-0.040-0.198-0.078-0.203-0.084s0.599-1.068 1.349-2.359l1.363-2.348v-0.905h-7.267l-1.337 4.542c-0.734 2.497-1.338 4.542-1.344 4.542s-0.573-1.919-1.26-4.265c-0.688-2.344-1.291-4.387-1.335-4.542l-0.084-0.277h-0.97c-0.917 0-0.97 0.001-0.962 0.028 0.006 0.017 0.205 0.686 0.442 1.486l0.433 1.455-0.902 3.058c-0.496 1.682-0.904 3.056-0.91 3.056s-0.609-2.044-1.343-4.542l-1.335-4.542h-1.939l0.008 0.036zM22.419 19.452c0 0.028 0.27 0.818 0.341 1.001 0.096 0.249 0.35 0.765 0.505 1.034 0.277 0.478 0.627 0.942 0.98 1.295 0.583 0.588 1.164 0.907 1.876 1.033 0.166 0.028 0.764 0.028 0.93 0 0.495-0.088 0.93-0.269 1.311-0.549 0.662-0.484 1.233-1.147 1.657-1.923l0.102-0.185-0.139-0.723c-0.077-0.4-0.141-0.729-0.146-0.733-0.003-0.003-0.075 0.111-0.162 0.255-0.201 0.339-0.433 0.688-0.576 0.867-0.061 0.077-0.236 0.263-0.387 0.415-0.425 0.426-0.755 0.676-1.15 0.861-0.587 0.279-1.022 0.372-1.565 0.333-0.39-0.026-0.609-0.075-0.941-0.209-0.482-0.192-0.847-0.445-1.332-0.918-0.431-0.424-0.616-0.68-1.109-1.536-0.188-0.325-0.197-0.34-0.197-0.319z"></path>
</svg>
