<!-- Generated by IcoMoon.io -->
<svg version="1.1" xmlns="http://www.w3.org/2000/svg" width="32" height="32" viewBox="0 0 32 32">
<title>webpack</title>
<path d="M29.534 24.66l-12.965 7.34v-5.717l8.066-4.441 4.9 2.819zM30.423 23.858v-15.338l-4.744 2.743v9.857l4.742 2.735zM2.467 24.66l12.952 7.335v-5.711l-8.068-4.441zM1.577 23.858v-15.338l4.744 2.743v9.857zM2.133 7.528l13.298-7.528v5.526l-8.589 4.724zM29.862 7.528l-13.293-7.528v5.526l8.589 4.721 4.709-2.72z"></path>
<path d="M15.431 24.983l-7.973-4.386v-8.681l7.973 4.592zM16.569 24.983l7.973-4.381v-8.686l-7.973 4.592zM8 10.921l8-4.404 8 4.404-8 4.612-8-4.612z"></path>
</svg>
