<!-- Generated by IcoMoon.io -->
<svg version="1.1" xmlns="http://www.w3.org/2000/svg" width="32" height="32" viewBox="0 0 32 32">
<title>webpack</title>
<path d="M29.323 24.525l-12.762 7.225v-5.628l7.94-4.372 4.823 2.775zM30.198 23.735v-15.098l-4.67 2.7v9.703l4.668 2.692zM2.678 24.525l12.75 7.22v-5.622l-7.942-4.372zM1.802 23.735v-15.098l4.67 2.7v9.703zM2.35 7.66l13.090-7.41v5.44l-8.455 4.65zM29.645 7.66l-13.085-7.41v5.44l8.455 4.647 4.635-2.678z"></path>
<path d="M15.44 24.843l-7.848-4.317v-8.545l7.848 4.52zM16.56 24.843l7.848-4.313v-8.55l-7.848 4.52zM8.125 11l7.875-4.335 7.875 4.335-7.875 4.54-7.875-4.54z"></path>
</svg>
