<!-- Generated by IcoMoon.io -->
<svg version="1.1" xmlns="http://www.w3.org/2000/svg" width="32" height="32" viewBox="0 0 32 32">
<title>woocommerce</title>
<path d="M26.944 14.1c0-0.338-0.070-0.699-0.209-1.059-0.174-0.454-0.407-0.699-0.686-0.756-0.419-0.081-0.826 0.151-1.211 0.721-0.314 0.442-0.512 0.908-0.617 1.385-0.059 0.268-0.081 0.558-0.081 0.85 0 0.338 0.070 0.699 0.209 1.059 0.174 0.453 0.407 0.699 0.686 0.756 0.292 0.059 0.606-0.070 0.943-0.373 0.431-0.384 0.721-0.954 0.885-1.723v0 0c0.059-0.268 0.081-0.558 0.081-0.861z"></path>
<path d="M27.651 7.477h-23.312c-1.475 0-2.67 1.206-2.658 2.67v8.898c0 1.475 1.195 2.67 2.67 2.67h11.041l5.046 2.81-1.148-2.81h8.36c1.475 0 2.67-1.194 2.67-2.67v-8.898c0-1.475-1.195-2.67-2.67-2.67zM13.544 19.153c0.024 0.29-0.024 0.547-0.14 0.769-0.14 0.257-0.349 0.396-0.617 0.419-0.303 0.024-0.617-0.116-0.919-0.431-1.083-1.106-1.944-2.76-2.573-4.96-0.756 1.49-1.316 2.608-1.677 3.353-0.686 1.316-1.268 1.991-1.758 2.026-0.314 0.024-0.582-0.244-0.815-0.804-0.594-1.525-1.233-4.47-1.921-8.836-0.046-0.303 0.024-0.571 0.186-0.78 0.163-0.222 0.407-0.338 0.734-0.361 0.594-0.046 0.932 0.233 1.013 0.838 0.361 2.433 0.756 4.494 1.176 6.182l2.549-4.855c0.233-0.442 0.525-0.675 0.873-0.699 0.512-0.035 0.826 0.292 0.954 0.978 0.292 1.549 0.664 2.864 1.106 3.982 0.303-2.957 0.815-5.087 1.536-6.403 0.174-0.326 0.431-0.488 0.769-0.512 0.268-0.024 0.512 0.059 0.734 0.233s0.338 0.396 0.361 0.664c0.011 0.209-0.024 0.384-0.116 0.558-0.454 0.838-0.827 2.246-1.129 4.202-0.292 1.898-0.396 3.376-0.326 4.435zM20.692 17.326c-0.699 1.164-1.606 1.747-2.736 1.747-0.198 0-0.407-0.024-0.629-0.070-0.826-0.174-1.444-0.617-1.863-1.351-0.373-0.64-0.558-1.409-0.558-2.305 0-1.2 0.303-2.294 0.908-3.283 0.71-1.164 1.618-1.747 2.736-1.747 0.198 0 0.407 0.024 0.629 0.070 0.815 0.174 1.444 0.617 1.863 1.351 0.373 0.629 0.558 1.385 0.558 2.294 0 1.199-0.303 2.294-0.908 3.294zM27.981 17.326c-0.699 1.164-1.607 1.747-2.736 1.747-0.198 0-0.407-0.024-0.629-0.070-0.826-0.174-1.444-0.617-1.863-1.351-0.373-0.64-0.558-1.409-0.558-2.305 0-1.2 0.303-2.294 0.908-3.283 0.71-1.164 1.618-1.747 2.736-1.747 0.198 0 0.407 0.024 0.629 0.070 0.826 0.174 1.444 0.617 1.863 1.351 0.373 0.629 0.571 1.385 0.558 2.294 0 1.199-0.303 2.294-0.908 3.294z"></path>
<path d="M19.435 13.041c-0.174-0.454-0.407-0.699-0.686-0.756-0.419-0.081-0.826 0.151-1.211 0.721-0.314 0.442-0.512 0.908-0.617 1.385-0.059 0.268-0.081 0.558-0.081 0.85 0 0.338 0.070 0.699 0.209 1.059 0.174 0.453 0.407 0.699 0.686 0.756 0.292 0.059 0.606-0.070 0.943-0.373 0.431-0.384 0.721-0.954 0.885-1.723v0 0c0.059-0.268 0.093-0.558 0.081-0.861 0-0.338-0.070-0.699-0.209-1.059z"></path>
</svg>
