<!-- Generated by IcoMoon.io -->
<svg version="1.1" xmlns="http://www.w3.org/2000/svg" width="32" height="32" viewBox="0 0 32 32">
<title>woocommerce</title>
<path d="M24.784 14.475c0-0.271-0.056-0.561-0.168-0.85-0.14-0.364-0.327-0.561-0.551-0.607-0.336-0.065-0.663 0.121-0.972 0.579-0.252 0.355-0.411 0.729-0.495 1.112-0.047 0.215-0.065 0.448-0.065 0.682 0 0.271 0.056 0.561 0.168 0.85 0.14 0.364 0.327 0.561 0.551 0.607 0.234 0.047 0.486-0.056 0.757-0.299 0.346-0.308 0.579-0.766 0.71-1.383v0 0c0.047-0.215 0.065-0.448 0.065-0.691z"></path>
<path d="M25.351 9.159h-18.711c-1.184 0-2.143 0.968-2.133 2.143v7.142c0 1.184 0.959 2.143 2.143 2.143h8.862l4.050 2.255-0.921-2.255h6.71c1.184 0 2.143-0.958 2.143-2.143v-7.142c0-1.184-0.959-2.143-2.143-2.143zM14.029 18.531c0.019 0.233-0.019 0.439-0.112 0.617-0.112 0.206-0.28 0.318-0.495 0.336-0.243 0.019-0.495-0.093-0.738-0.346-0.869-0.888-1.56-2.215-2.065-3.981-0.607 1.196-1.056 2.093-1.346 2.691-0.551 1.056-1.018 1.598-1.411 1.626-0.252 0.019-0.467-0.196-0.654-0.645-0.477-1.224-0.99-3.588-1.542-7.092-0.037-0.243 0.019-0.458 0.149-0.626 0.131-0.178 0.327-0.271 0.589-0.29 0.477-0.037 0.748 0.187 0.813 0.673 0.29 1.953 0.607 3.607 0.944 4.962l2.046-3.897c0.187-0.355 0.421-0.542 0.701-0.561 0.411-0.028 0.663 0.234 0.766 0.785 0.234 1.243 0.533 2.299 0.888 3.196 0.243-2.373 0.654-4.083 1.233-5.139 0.14-0.262 0.346-0.392 0.617-0.411 0.215-0.019 0.411 0.047 0.589 0.187s0.271 0.318 0.29 0.533c0.009 0.168-0.019 0.308-0.093 0.448-0.364 0.673-0.664 1.803-0.906 3.373-0.234 1.523-0.318 2.71-0.262 3.56zM19.766 17.064c-0.561 0.934-1.289 1.402-2.196 1.402-0.159 0-0.327-0.019-0.505-0.056-0.663-0.14-1.159-0.495-1.495-1.084-0.299-0.514-0.448-1.131-0.448-1.85 0-0.963 0.243-1.841 0.729-2.635 0.57-0.934 1.299-1.402 2.196-1.402 0.159 0 0.327 0.019 0.505 0.056 0.654 0.14 1.159 0.495 1.495 1.084 0.299 0.505 0.448 1.112 0.448 1.841 0 0.962-0.243 1.841-0.729 2.644zM25.616 17.064c-0.561 0.934-1.29 1.402-2.196 1.402-0.159 0-0.327-0.019-0.505-0.056-0.663-0.14-1.159-0.495-1.495-1.084-0.299-0.514-0.448-1.131-0.448-1.85 0-0.963 0.243-1.841 0.729-2.635 0.57-0.934 1.299-1.402 2.196-1.402 0.159 0 0.327 0.019 0.505 0.056 0.663 0.14 1.159 0.495 1.495 1.084 0.299 0.505 0.458 1.112 0.448 1.841 0 0.962-0.243 1.841-0.729 2.644z"></path>
<path d="M18.757 13.625c-0.14-0.364-0.327-0.561-0.551-0.607-0.336-0.065-0.663 0.121-0.972 0.579-0.252 0.355-0.411 0.729-0.495 1.112-0.047 0.215-0.065 0.448-0.065 0.682 0 0.271 0.056 0.561 0.168 0.85 0.14 0.364 0.327 0.561 0.551 0.607 0.234 0.047 0.486-0.056 0.757-0.299 0.346-0.308 0.579-0.766 0.71-1.383v0 0c0.047-0.215 0.075-0.448 0.065-0.691 0-0.271-0.056-0.561-0.168-0.85z"></path>
</svg>
