<!-- Generated by IcoMoon.io -->
<svg version="1.1" xmlns="http://www.w3.org/2000/svg" width="32" height="32" viewBox="0 0 32 32">
<title>wordpress</title>
<path d="M16.022 30.979c8.251-0.012 14.93-6.724 14.93-15.003 0-8.144-6.648-14.852-14.591-14.994-8.342-0.148-15.312 6.62-15.314 14.828-0.003 8.445 6.647 15.181 14.975 15.17zM15.998 1.708c7.922-0.003 14.233 6.433 14.231 14.511-0.003 7.626-6.481 14.006-14.225 14.007-7.889 0.002-14.233-6.395-14.233-14.349 0-7.75 6.443-14.166 14.227-14.169zM10.019 9.235c0.129 0.431-0.233 0.582-0.618 0.612-0.405 0.032-0.811 0.062-1.282 0.097 1.554 4.631 3.085 9.192 4.652 13.859 0.112-0.183 0.158-0.234 0.178-0.295 0.86-2.572 1.726-5.141 2.564-7.72 0.076-0.235 0.039-0.547-0.045-0.789-0.444-1.281-0.975-2.533-1.364-3.829-0.266-0.887-0.619-1.462-1.668-1.359-0.178 0.017-0.397-0.367-0.597-0.565 0.242-0.144 0.482-0.41 0.726-0.414 2.136-0.033 4.272-0.033 6.408 0.002 0.246 0.004 0.485 0.276 0.727 0.425-0.212 0.194-0.395 0.483-0.642 0.559-0.398 0.119-0.838 0.097-1.313 0.14 1.556 4.628 3.079 9.161 4.658 13.856 0.706-2.344 1.363-4.496 2.001-6.654 0.569-1.926 0.23-3.725-0.8-5.421-0.31-0.51-0.689-1.005-0.866-1.561-0.199-0.633-0.365-1.353-0.259-1.988 0.179-1.076 1.005-1.61 2.121-1.712-6.113-5.673-15.718-3.643-19.257 2.522 1.362-0.063 2.663-0.145 3.965-0.163 0.246-0.003 0.654 0.205 0.712 0.398zM12.456 28.005c-0.029 0.083-0.030 0.175-0.053 0.314 2.635 0.731 5.218 0.678 7.862-0.213l-4.039-11.064c-1.292 3.758-2.532 7.36-3.77 10.964zM10.419 27.504l-6.086-16.694c-2.745 5.363-0.657 13.545 6.086 16.694zM28.817 16.777c0.194-2.535-0.682-6.047-1.437-6.529-0.084 0.933-0.025 1.97-0.294 2.917-0.63 2.228-1.4 4.417-2.142 6.612-0.806 2.386-1.645 4.762-2.469 7.141 3.874-2.297 6.003-5.685 6.342-10.14z"></path>
</svg>
