<!-- Generated by IcoMoon.io -->
<svg version="1.1" xmlns="http://www.w3.org/2000/svg" width="32" height="32" viewBox="0 0 32 32">
<title>xing</title>
<path d="M28.188 1h-24.375c-1.547 0-2.813 1.266-2.813 2.813v24.375c0 1.547 1.266 2.813 2.813 2.813h24.375c1.547 0 2.813-1.266 2.813-2.813v-24.375c0-1.547-1.266-2.813-2.813-2.813zM10.158 20.512h-3.24c-0.193 0-0.339-0.088-0.422-0.223-0.088-0.141-0.088-0.316 0-0.498l3.445-6.082c0.006-0.006 0.006-0.011 0-0.018l-2.192-3.797c-0.088-0.182-0.105-0.357-0.018-0.498 0.082-0.135 0.247-0.205 0.445-0.205h3.246c0.498 0 0.744 0.322 0.903 0.609 0 0 2.215 3.867 2.232 3.891-0.128 0.234-3.503 6.193-3.503 6.193-0.176 0.305-0.411 0.627-0.896 0.627zM25.503 5.459l-7.183 12.703c-0.006 0.006-0.006 0.018 0 0.023l4.576 8.356c0.088 0.182 0.094 0.363 0.006 0.504-0.082 0.135-0.234 0.205-0.433 0.205h-3.24c-0.498 0-0.744-0.328-0.908-0.615 0 0-4.599-8.438-4.612-8.461 0.229-0.404 7.219-12.803 7.219-12.803 0.176-0.31 0.387-0.615 0.867-0.615h3.287c0.193 0 0.352 0.076 0.433 0.205 0.082 0.135 0.082 0.317-0.011 0.498z"></path>
</svg>
