<!-- Generated by IcoMoon.io -->
<svg version="1.1" xmlns="http://www.w3.org/2000/svg" width="32" height="32" viewBox="0 0 32 32">
<title>yarn</title>
<path d="M24.81 20.177c-1.085 0.012-2.035 0.573-2.837 1.073-1.5 0.927-2.25 0.867-2.25 0.867l-0.025-0.043c-0.102-0.168 0.48-1.67-0.172-3.46-0.705-1.957-1.825-2.43-1.735-2.58 0.383-0.648 1.34-1.675 1.723-3.59 0.227-1.16 0.168-3.070-0.348-4.070-0.095-0.185-0.945 0.31-0.945 0.31s-0.795-1.772-1.018-1.915c-0.718-0.46-1.5 1.903-1.5 1.903-0.102-0.011-0.221-0.017-0.341-0.017-1.023 0-1.944 0.439-2.584 1.139l-0.002 0.003c-0.264 0.254-0.586 0.45-0.945 0.563l-0.017 0.005c-0.102 0.035-0.227 0.030-0.537 0.867-0.475 1.268 0.81 2.703 0.81 2.703s-1.533 1.082-2.1 2.43c-0.293 0.695-0.464 1.503-0.464 2.352 0 0.2 0.009 0.398 0.028 0.593l-0.002-0.025s-1.090 0.945-1.16 1.92c-0.009 0.091-0.014 0.197-0.014 0.305 0 0.61 0.17 1.181 0.465 1.667l-0.008-0.014c0.079 0.166 0.246 0.279 0.439 0.279 0.080 0 0.155-0.019 0.221-0.053l-0.003 0.001s-0.725 0.845-0.047 1.203c0.617 0.323 1.658 0.5 2.207-0.047 0.4-0.4 0.48-1.293 0.627-1.657 0.035-0.085 0.155 0.142 0.27 0.25 0.101 0.088 0.212 0.171 0.329 0.244l0.011 0.006s-0.975 0.42-0.575 1.378c0.133 0.317 0.605 0.52 1.377 0.515 0.287 0 3.44-0.18 4.28-0.383 0.263-0.043 0.489-0.175 0.651-0.364l0.001-0.001c1.474-0.445 2.759-1.040 3.937-1.788l-0.064 0.038c1.185-0.773 1.67-0.983 2.628-1.21 0.79-0.188 0.738-1.413-0.31-1.395z"></path>
<path d="M16 0.5c-8.56 0-15.5 6.94-15.5 15.5s6.94 15.5 15.5 15.5c8.56 0 15.5-6.94 15.5-15.5v0c0-8.56-6.94-15.5-15.5-15.5v0zM25.325 22.457c-0.837 0.203-1.227 0.36-2.352 1.090-1.119 0.714-2.407 1.323-3.771 1.762l-0.119 0.033c-0.253 0.209-0.56 0.363-0.895 0.44l-0.015 0.003c-0.953 0.233-4.22 0.407-4.477 0.407h-0.060c-1 0-1.568-0.31-1.873-0.635-0.85 0.425-1.95 0.25-2.75-0.172-0.383-0.191-0.662-0.544-0.748-0.966l-0.002-0.009c-0.014-0.077-0.022-0.166-0.022-0.258s0.008-0.18 0.024-0.267l-0.001 0.009c-0.071-0.074-0.137-0.156-0.194-0.244l-0.004-0.006c-0.368-0.602-0.585-1.33-0.585-2.109 0-0.143 0.007-0.284 0.022-0.423l-0.001 0.017c0.072-0.933 0.718-1.765 1.138-2.207-0.003-0.074-0.004-0.162-0.004-0.249 0-0.963 0.191-1.882 0.537-2.721l-0.017 0.047c0.42-0.888 0.995-1.637 1.696-2.243l0.009-0.007c-0.412-0.695-0.832-1.765-0.425-2.855 0.293-0.777 0.533-1.21 1.060-1.395v0c0.242-0.071 0.452-0.186 0.63-0.337l-0.002 0.002c0.747-0.809 1.788-1.338 2.952-1.414l0.013-0.001c0.047-0.12 0.102-0.25 0.162-0.365 0.4-0.85 0.825-1.327 1.323-1.5 0.127-0.049 0.274-0.077 0.427-0.077 0.251 0 0.483 0.076 0.677 0.205l-0.004-0.003c0.163 0.107 0.37 0.25 0.975 1.5 0.118-0.043 0.254-0.069 0.395-0.069 0.113 0 0.222 0.016 0.325 0.046l-0.008-0.002c0.262 0.073 0.475 0.249 0.595 0.48l0.003 0.005c0.617 1.185 0.7 3.297 0.43 4.655-0.258 1.269-0.768 2.388-1.476 3.351l0.016-0.023c0.627 0.652 1.12 1.439 1.429 2.313l0.014 0.045c0.234 0.636 0.37 1.37 0.37 2.136 0 0.164-0.006 0.327-0.018 0.488l0.001-0.021c0.307-0.148 0.563-0.293 0.808-0.452l-0.028 0.017c0.765-0.473 1.92-1.185 3.297-1.203 0.033-0.002 0.072-0.004 0.111-0.004 0.834 0 1.524 0.617 1.638 1.42l0.001 0.009c0.009 0.063 0.014 0.136 0.014 0.209 0 0.752-0.523 1.382-1.226 1.546l-0.011 0.002z"></path>
</svg>
