<!-- Generated by IcoMoon.io -->
<svg version="1.1" xmlns="http://www.w3.org/2000/svg" width="32" height="32" viewBox="0 0 32 32">
<title>yarn</title>
<path d="M24.526 20.042c-1.050 0.012-1.969 0.555-2.745 1.038-1.452 0.897-2.177 0.839-2.177 0.839l-0.024-0.042c-0.099-0.163 0.465-1.616-0.166-3.348-0.682-1.894-1.766-2.352-1.679-2.497 0.371-0.627 1.297-1.621 1.667-3.474 0.22-1.123 0.163-2.971-0.337-3.939-0.092-0.179-0.915 0.3-0.915 0.3s-0.769-1.715-0.985-1.853c-0.695-0.445-1.452 1.842-1.452 1.842-0.099-0.011-0.214-0.016-0.33-0.016-0.99 0-1.881 0.425-2.501 1.102l-0.002 0.003c-0.255 0.246-0.567 0.435-0.915 0.545l-0.016 0.005c-0.099 0.034-0.22 0.029-0.52 0.839-0.46 1.227 0.784 2.616 0.784 2.616s-1.484 1.047-2.032 2.352c-0.284 0.673-0.449 1.454-0.449 2.276 0 0.194 0.009 0.385 0.027 0.574l-0.002-0.024s-1.055 0.915-1.123 1.858c-0.009 0.088-0.014 0.191-0.014 0.295 0 0.59 0.165 1.143 0.45 1.613l-0.008-0.014c0.076 0.161 0.238 0.27 0.425 0.27 0.077 0 0.15-0.018 0.214-0.051l-0.003 0.001s-0.702 0.818-0.046 1.164c0.597 0.313 1.604 0.484 2.136-0.046 0.387-0.387 0.464-1.251 0.607-1.604 0.034-0.082 0.15 0.137 0.261 0.242 0.098 0.085 0.205 0.166 0.318 0.236l0.011 0.006s-0.944 0.406-0.556 1.334c0.129 0.307 0.585 0.503 1.333 0.498 0.278 0 3.329-0.174 4.142-0.371 0.255-0.042 0.473-0.169 0.63-0.352l0.001-0.001c1.426-0.431 2.67-1.006 3.81-1.73l-0.062 0.037c1.147-0.748 1.616-0.951 2.543-1.171 0.764-0.182 0.714-1.367-0.3-1.35z"></path>
<path d="M16 1c-8.284 0-15 6.716-15 15s6.716 15 15 15c8.284 0 15-6.716 15-15v0c0-8.284-6.716-15-15-15v0zM25.024 22.249c-0.81 0.196-1.187 0.348-2.276 1.055-1.083 0.691-2.329 1.28-3.649 1.705l-0.115 0.032c-0.245 0.202-0.542 0.351-0.866 0.426l-0.015 0.003c-0.922 0.226-4.084 0.394-4.333 0.394h-0.058c-0.968 0-1.517-0.3-1.813-0.614-0.823 0.411-1.887 0.242-2.661-0.166-0.371-0.185-0.641-0.526-0.724-0.935l-0.002-0.009c-0.014-0.075-0.021-0.161-0.021-0.25s0.008-0.174 0.023-0.258l-0.001 0.009c-0.069-0.072-0.133-0.151-0.188-0.236l-0.004-0.006c-0.356-0.583-0.566-1.287-0.566-2.041 0-0.138 0.007-0.275 0.021-0.409l-0.001 0.016c0.070-0.903 0.695-1.708 1.101-2.136-0.003-0.072-0.004-0.157-0.004-0.241 0-0.932 0.185-1.821 0.52-2.633l-0.016 0.046c0.406-0.859 0.963-1.584 1.641-2.171l0.009-0.007c-0.399-0.673-0.805-1.708-0.411-2.763 0.284-0.752 0.516-1.171 1.026-1.35v0c0.234-0.069 0.437-0.18 0.61-0.326l-0.002 0.002c0.723-0.783 1.73-1.295 2.857-1.368l0.013-0.001c0.046-0.116 0.099-0.242 0.157-0.353 0.387-0.823 0.798-1.284 1.28-1.452 0.123-0.047 0.265-0.074 0.413-0.074 0.243 0 0.467 0.074 0.655 0.198l-0.004-0.003c0.158 0.104 0.358 0.242 0.944 1.452 0.114-0.042 0.246-0.067 0.382-0.067 0.109 0 0.215 0.016 0.314 0.045l-0.008-0.002c0.254 0.071 0.46 0.241 0.576 0.465l0.003 0.005c0.597 1.147 0.677 3.191 0.416 4.505-0.25 1.228-0.743 2.311-1.428 3.243l0.015-0.022c0.607 0.631 1.084 1.393 1.383 2.238l0.014 0.044c0.226 0.616 0.358 1.326 0.358 2.067 0 0.159-0.006 0.316-0.017 0.472l0.001-0.020c0.297-0.143 0.545-0.284 0.782-0.437l-0.027 0.016c0.74-0.458 1.858-1.147 3.191-1.164 0.032-0.002 0.070-0.004 0.107-0.004 0.807 0 1.475 0.597 1.585 1.374l0.001 0.009c0.009 0.061 0.014 0.132 0.014 0.202 0 0.728-0.506 1.337-1.186 1.496l-0.011 0.002z"></path>
</svg>
