<!-- Generated by IcoMoon.io -->
<svg version="1.1" xmlns="http://www.w3.org/2000/svg" width="32" height="32" viewBox="0 0 32 32">
<title>yeoman</title>
<path d="M16.909 14.936l-0.076-0.207c-0.018 0.010-0.036 0.020-0.055 0.028l0.13 0.177zM17.463 14.493l-0.145-0.165c-0.013 0.016-0.028 0.031-0.042 0.046l0.186 0.119zM17.82 13.879l-0.195-0.102c-0.007 0.020-0.014 0.039-0.021 0.058l0.216 0.044zM17.93 13.178l-0.22-0.025c0.001 0.021 0.003 0.042 0.003 0.062l0.217-0.037zM17.781 12.484l-0.213 0.056c0.009 0.019 0.016 0.038 0.024 0.057l0.189-0.113zM14.88 14.804l0.151-0.159c-0.018-0.012-0.033-0.025-0.049-0.037l-0.101 0.196zM16.231 15.149l0.004-0.22c-0.021 0.003-0.041 0.008-0.061 0.009l0.057 0.211zM15.523 15.103l0.084-0.204c-0.020-0.004-0.041-0.010-0.060-0.015l-0.024 0.219zM15.031 14.646c0.155 0.107 0.33 0.187 0.517 0.239l0.096-0.882-0.612 0.644zM16.814 11.48l-0.12 0.185c0.019 0.009 0.037 0.018 0.056 0.027l0.064-0.211zM14.331 12.261l0.172 0.136c0.010-0.019 0.021-0.035 0.032-0.053l-0.205-0.083zM14.093 12.929l0.209 0.065c0.003-0.021 0.005-0.041 0.010-0.061l-0.219-0.003zM14.112 13.638l0.218-0.015c-0.004-0.020-0.010-0.039-0.014-0.060l-0.205 0.076zM17.392 11.892l-0.178 0.129c0.014 0.014 0.027 0.031 0.042 0.046l0.137-0.175zM14.386 14.293l0.198-0.093c-0.012-0.018-0.022-0.035-0.033-0.053l-0.165 0.146zM15.607 14.9c0.127 0.030 0.257 0.047 0.393 0.047 0.059 0 0.117-0.003 0.175-0.009l-0.23-0.858-0.338 0.82zM16.126 11.305l-0.045 0.217c0.021 0.001 0.042 0.001 0.062 0.003l-0.016-0.219zM15.421 11.389l0.036 0.217c0.020-0.007 0.039-0.013 0.059-0.019l-0.094-0.198zM14.795 11.723l0.112 0.188c0.016-0.013 0.033-0.025 0.049-0.037l-0.161-0.151zM16.833 14.73c0.168-0.093 0.316-0.215 0.443-0.356l-0.746-0.478 0.302 0.834zM16.521 13.31c0 0.288-0.233 0.521-0.521 0.521s-0.521-0.233-0.521-0.521c0-0.288 0.233-0.521 0.521-0.521s0.521 0.233 0.521 0.521zM14.331 13.623c0.044 0.188 0.119 0.366 0.22 0.524l0.666-0.587-0.886 0.062zM14.303 12.993c-0.011 0.078-0.019 0.158-0.019 0.239 0 0.113 0.012 0.223 0.033 0.331l0.834-0.308-0.849-0.262zM14.981 14.608l0.407-0.787-0.804 0.379c0.108 0.158 0.243 0.295 0.396 0.408zM16 15.608c1.311 0 2.376-1.065 2.376-2.375s-1.066-2.377-2.376-2.377-2.376 1.066-2.376 2.377c0 1.309 1.066 2.375 2.376 2.375zM16 11.259c1.088 0 1.973 0.886 1.973 1.973s-0.886 1.973-1.973 1.973-1.973-0.885-1.973-1.973c0-1.088 0.886-1.973 1.973-1.973zM14.503 12.397c-0.092 0.164-0.157 0.345-0.192 0.537l0.888 0.014-0.696-0.551zM22.448 23.157c-4.522-1.126-6.448 1.168-6.448 1.168-0.022 2.294 3.116 6.405 6.967 6.902s6.317-1.341 6.317-1.341-2.315-5.604-6.836-6.729zM9.552 23.157c-4.522 1.124-6.836 6.729-6.836 6.729s2.467 1.839 6.317 1.341c3.851-0.497 6.989-4.608 6.967-6.902 0 0-1.926-2.294-6.448-1.168zM16.236 14.929c0.193-0.026 0.376-0.085 0.542-0.171l-0.523-0.716-0.020 0.887zM3.408 18.419h25.185l0.778-2.336h-3.699l0.725-4.189 0.965-5.578c0 0-2.548-5.001-11.306-5.001-10.646 0-11.417 5.001-11.417 5.001l1.689 9.767h-3.7l0.778 2.336zM16 10.499c1.508 0 2.734 1.226 2.734 2.734 0 1.507-1.226 2.732-2.734 2.732s-2.734-1.226-2.734-2.732c0-1.508 1.226-2.734 2.734-2.734zM17.711 13.153c-0.009-0.195-0.050-0.382-0.119-0.556l-0.761 0.454 0.88 0.101zM17.625 13.777c0.058-0.171 0.090-0.355 0.090-0.545 0-0.005-0.001-0.011-0.001-0.016l-0.875 0.15 0.786 0.412zM17.318 14.328c0.122-0.146 0.217-0.312 0.286-0.492l-0.869-0.176 0.584 0.669zM17.568 12.54c-0.078-0.175-0.184-0.335-0.313-0.474l-0.544 0.697 0.858-0.224zM17.213 12.021c-0.134-0.135-0.291-0.245-0.463-0.328l-0.256 0.849 0.719-0.519zM14.906 11.913c-0.147 0.122-0.272 0.268-0.37 0.431l0.822 0.334-0.451-0.765zM16.080 11.521c-0.027-0.001-0.054-0.004-0.080-0.004-0.169 0-0.331 0.025-0.484 0.071l0.383 0.801 0.182-0.867zM15.457 11.606c-0.183 0.061-0.351 0.152-0.501 0.268l0.646 0.608-0.145-0.876zM16.693 11.664c-0.171-0.076-0.356-0.125-0.551-0.14l0.068 0.884 0.483-0.743z"></path>
</svg>
